<?xml version="1.0" encoding="UTF-8"?>
<svg width="512" height="512" viewBox="0 0 512 512" xmlns="http://www.w3.org/2000/svg">
  <defs>
    <linearGradient id="bg-gradient-018" x1="0%" y1="0%" x2="100%" y2="100%">
      <stop offset="0%" stop-color="#a855f7" />
      <stop offset="33%" stop-color="#9333ea" />
      <stop offset="66%" stop-color="#7e22ce" />
    </linearGradient>
    
    <filter id="shadow-018" x="-20%" y="-20%" width="140%" height="140%">
      <feDropShadow dx="0" dy="4" stdDeviation="8" flood-color="#9333ea" flood-opacity="0.3"/>
    </filter>
    
  </defs>
  
  <!-- Background -->
  <rect width="512" height="512" fill="url(#bg-gradient-018)"/>
  
  <!-- Subtle pattern overlay -->
  <rect width="512" height="512" fill="#a855f7" fill-opacity="0.05"/>
  <circle cx="256" cy="256" r="200" fill="#d8b4fe" fill-opacity="0.05"/>
  <circle cx="256" cy="256" r="150" fill="#d8b4fe" fill-opacity="0.05"/>
  
  
  
  <!-- Geometric decorative elements -->
  <g fill="#d8b4fe" fill-opacity="0.15">
    <circle cx="100" cy="100" r="40"/>
    <circle cx="412" cy="100" r="30"/>
    <circle cx="100" cy="412" r="30"/>
    <circle cx="412" cy="412" r="40"/>
    <rect x="200" y="80" width="112" height="8" rx="4"/>
    <rect x="200" y="424" width="112" height="8" rx="4"/>
  </g>
  
  <!-- Central icon container -->
  <g transform="translate(256, 256)" filter="url(#shadow-018)">
    <circle cx="0" cy="0" r="120" fill="#9333ea" fill-opacity="0.3" stroke="#d8b4fe" stroke-width="3"/>
    <circle cx="0" cy="0" r="90" fill="#a855f7" fill-opacity="0.5"/>
    
    <!-- Dad type symbol -->
    <text x="0" y="20" text-anchor="middle" font-size="64" font-family="system-ui, sans-serif" filter="url(#shadow-018)">
      🔥
    </text>
    
    
  </g>
  
  <!-- Card name banner -->
  <g transform="translate(0, 430)">
    <rect x="20" y="0" width="472" height="50" rx="8" fill="#9333ea" fill-opacity="0.8" filter="url(#shadow-018)"/>
    <text x="256" y="32" text-anchor="middle" fill="white" font-family="system-ui, sans-serif" font-weight="bold" font-size="20">
      Smoker Steve
    </text>
  </g>
  
  <!-- Rarity indicator -->
  <circle cx="456" cy="56" r="40" fill="#a855f7" stroke="#d8b4fe" stroke-width="3" filter="url(#shadow-018)"/>
  <text x="456" y="66" text-anchor="middle" fill="white" font-family="system-ui, sans-serif" font-weight="bold" font-size="16">
    E
  </text>
  
  
</svg>