<?xml version="1.0" encoding="UTF-8"?>
<svg xmlns="http://www.w3.org/2000/svg" viewBox="0 0 400 550" width="400" height="550">
  <defs>
    <linearGradient id="bg-gradient-001" x1="0%" y1="0%" x2="100%" y2="100%">
      <stop offset="0%" style="stop-color:#ef4444;stop-opacity:0.26" />
      <stop offset="50%" style="stop-color:#f97316;stop-opacity:0.4" />
      <stop offset="100%" style="stop-color:#ef4444;stop-opacity:0.26" />
    </linearGradient>
    
  <filter id="shadow-001">
    <feDropShadow dx="0" dy="2" stdDeviation="3" flood-opacity="0.8"/>
  </filter>
  </defs>
  <rect width="400" height="550" fill="url(#bg-gradient-0.6094334565568715)" />
  <g opacity="0.3"><circle cx="8.9" cy="3.3" r="6" fill="#fbbf24" />
    <circle cx="2.2" cy="55.2" r="6" fill="#f97316" />
    <circle cx="1.3" cy="75.1" r="6" fill="#ef4444" />
    <circle cx="4.7" cy="108.9" r="6" fill="#f97316" />
    <circle cx="1.2" cy="126.6" r="6" fill="#fbbf24" />
    <circle cx="9.9" cy="181.5" r="6" fill="#fbbf24" />
    <circle cx="8.6" cy="200.4" r="6" fill="#f97316" />
    <circle cx="2.8" cy="228.5" r="6" fill="#f97316" />
    <circle cx="0.4" cy="257.6" r="6" fill="#ef4444" />
    <circle cx="1.8" cy="277.9" r="6" fill="#fbbf24" />
    <circle cx="9.2" cy="350.5" r="6" fill="#f97316" />
    <circle cx="0.5" cy="382.4" r="6" fill="#ef4444" />
    <circle cx="0.0" cy="409.2" r="6" fill="#ef4444" />
    <circle cx="5.2" cy="430.7" r="6" fill="#ef4444" />
    <circle cx="1.8" cy="459.8" r="6" fill="#fbbf24" />
    <circle cx="3.4" cy="475.3" r="6" fill="#f97316" />
    <circle cx="4.1" cy="525.3" r="6" fill="#fbbf24" />
    <circle cx="28.0" cy="79.6" r="6" fill="#ef4444" />
    <circle cx="27.3" cy="103.3" r="6" fill="#ef4444" />
    <circle cx="25.9" cy="126.0" r="6" fill="#f97316" />
    <circle cx="34.2" cy="153.4" r="6" fill="#fbbf24" />
    <circle cx="33.5" cy="209.4" r="6" fill="#f97316" />
    <circle cx="31.0" cy="257.7" r="6" fill="#ef4444" />
    <circle cx="33.3" cy="357.4" r="6" fill="#ef4444" />
    <circle cx="28.5" cy="380.3" r="6" fill="#f97316" />
    <circle cx="28.4" cy="459.0" r="6" fill="#fbbf24" />
    <circle cx="29.8" cy="476.1" r="6" fill="#fbbf24" />
    <circle cx="33.2" cy="507.2" r="6" fill="#fbbf24" />
    <circle cx="32.1" cy="534.3" r="6" fill="#fbbf24" />
    <circle cx="54.5" cy="0.1" r="6" fill="#f97316" />
    <circle cx="54.0" cy="28.7" r="6" fill="#fbbf24" />
    <circle cx="51.6" cy="56.9" r="6" fill="#f97316" />
    <circle cx="54.0" cy="131.2" r="6" fill="#fbbf24" />
    <circle cx="57.4" cy="156.3" r="6" fill="#fbbf24" />
    <circle cx="50.2" cy="183.4" r="6" fill="#ef4444" />
    <circle cx="53.5" cy="205.5" r="6" fill="#f97316" />
    <circle cx="59.5" cy="232.8" r="6" fill="#fbbf24" />
    <circle cx="54.2" cy="254.1" r="6" fill="#fbbf24" />
    <circle cx="54.8" cy="281.4" r="6" fill="#ef4444" />
    <circle cx="57.2" cy="306.4" r="6" fill="#f97316" />
    <circle cx="50.7" cy="355.7" r="6" fill="#ef4444" />
    <circle cx="59.3" cy="382.7" r="6" fill="#f97316" />
    <circle cx="54.0" cy="407.4" r="6" fill="#fbbf24" />
    <circle cx="52.4" cy="455.5" r="6" fill="#ef4444" />
    <circle cx="55.2" cy="484.8" r="6" fill="#ef4444" />
    <circle cx="54.8" cy="505.4" r="6" fill="#f97316" />
    <circle cx="50.1" cy="531.3" r="6" fill="#f97316" />
    <circle cx="82.9" cy="2.7" r="6" fill="#f97316" />
    <circle cx="83.6" cy="29.1" r="6" fill="#ef4444" />
    <circle cx="78.9" cy="59.1" r="6" fill="#ef4444" />
    <circle cx="77.9" cy="80.3" r="6" fill="#ef4444" />
    <circle cx="80.7" cy="108.3" r="6" fill="#f97316" />
    <circle cx="78.7" cy="134.8" r="6" fill="#fbbf24" />
    <circle cx="78.7" cy="179.3" r="6" fill="#ef4444" />
    <circle cx="78.7" cy="259.4" r="6" fill="#f97316" />
    <circle cx="80.8" cy="279.0" r="6" fill="#f97316" />
    <circle cx="81.6" cy="332.0" r="6" fill="#fbbf24" />
    <circle cx="81.6" cy="351.7" r="6" fill="#ef4444" />
    <circle cx="83.2" cy="379.7" r="6" fill="#fbbf24" />
    <circle cx="77.0" cy="408.4" r="6" fill="#f97316" />
    <circle cx="83.8" cy="430.0" r="6" fill="#ef4444" />
    <circle cx="77.6" cy="451.2" r="6" fill="#ef4444" />
    <circle cx="79.1" cy="509.4" r="6" fill="#fbbf24" />
    <circle cx="75.9" cy="531.5" r="6" fill="#f97316" />
    <circle cx="104.1" cy="1.5" r="6" fill="#fbbf24" />
    <circle cx="100.7" cy="27.3" r="6" fill="#ef4444" />
    <circle cx="106.0" cy="56.2" r="6" fill="#fbbf24" />
    <circle cx="109.2" cy="84.6" r="6" fill="#ef4444" />
    <circle cx="100.5" cy="101.0" r="6" fill="#fbbf24" />
    <circle cx="109.7" cy="132.6" r="6" fill="#f97316" />
    <circle cx="109.7" cy="155.3" r="6" fill="#ef4444" />
    <circle cx="108.7" cy="202.4" r="6" fill="#f97316" />
    <circle cx="105.4" cy="230.5" r="6" fill="#fbbf24" />
    <circle cx="101.9" cy="254.9" r="6" fill="#fbbf24" />
    <circle cx="103.4" cy="277.2" r="6" fill="#ef4444" />
    <circle cx="108.4" cy="309.3" r="6" fill="#ef4444" />
    <circle cx="108.5" cy="352.3" r="6" fill="#fbbf24" />
    <circle cx="109.5" cy="380.3" r="6" fill="#fbbf24" />
    <circle cx="102.4" cy="401.7" r="6" fill="#fbbf24" />
    <circle cx="109.1" cy="429.7" r="6" fill="#fbbf24" />
    <circle cx="104.1" cy="534.8" r="6" fill="#ef4444" />
    <circle cx="125.4" cy="27.7" r="6" fill="#ef4444" />
    <circle cx="134.1" cy="50.2" r="6" fill="#fbbf24" />
    <circle cx="129.8" cy="82.4" r="6" fill="#fbbf24" />
    <circle cx="128.6" cy="104.1" r="6" fill="#fbbf24" />
    <circle cx="128.3" cy="128.8" r="6" fill="#f97316" />
    <circle cx="126.7" cy="182.1" r="6" fill="#fbbf24" />
    <circle cx="128.3" cy="209.8" r="6" fill="#fbbf24" />
    <circle cx="129.1" cy="230.1" r="6" fill="#fbbf24" />
    <circle cx="127.9" cy="251.6" r="6" fill="#ef4444" />
    <circle cx="130.4" cy="278.2" r="6" fill="#fbbf24" />
    <circle cx="134.6" cy="308.9" r="6" fill="#f97316" />
    <circle cx="132.1" cy="334.0" r="6" fill="#ef4444" />
    <circle cx="126.7" cy="358.6" r="6" fill="#ef4444" />
    <circle cx="126.9" cy="400.7" r="6" fill="#f97316" />
    <circle cx="126.9" cy="433.9" r="6" fill="#ef4444" />
    <circle cx="133.8" cy="459.3" r="6" fill="#ef4444" />
    <circle cx="128.2" cy="478.1" r="6" fill="#fbbf24" />
    <circle cx="126.7" cy="533.1" r="6" fill="#f97316" />
    <circle cx="151.9" cy="8.2" r="6" fill="#f97316" />
    <circle cx="158.6" cy="34.2" r="6" fill="#f97316" />
    <circle cx="158.9" cy="59.4" r="6" fill="#f97316" />
    <circle cx="157.9" cy="108.3" r="6" fill="#ef4444" />
    <circle cx="150.3" cy="158.0" r="6" fill="#f97316" />
    <circle cx="151.8" cy="179.9" r="6" fill="#f97316" />
    <circle cx="151.6" cy="203.2" r="6" fill="#ef4444" />
    <circle cx="150.2" cy="228.3" r="6" fill="#ef4444" />
    <circle cx="159.1" cy="255.7" r="6" fill="#ef4444" />
    <circle cx="151.8" cy="301.6" r="6" fill="#ef4444" />
    <circle cx="154.6" cy="332.9" r="6" fill="#fbbf24" />
    <circle cx="158.9" cy="358.5" r="6" fill="#fbbf24" />
    <circle cx="157.7" cy="380.1" r="6" fill="#fbbf24" />
    <circle cx="150.1" cy="405.4" r="6" fill="#f97316" />
    <circle cx="159.2" cy="429.2" r="6" fill="#f97316" />
    <circle cx="151.3" cy="451.4" r="6" fill="#fbbf24" />
    <circle cx="154.1" cy="477.3" r="6" fill="#ef4444" />
    <circle cx="158.9" cy="532.2" r="6" fill="#fbbf24" />
    <circle cx="183.5" cy="6.7" r="6" fill="#ef4444" />
    <circle cx="180.9" cy="26.8" r="6" fill="#ef4444" />
    <circle cx="181.4" cy="107.4" r="6" fill="#fbbf24" />
    <circle cx="178.2" cy="132.1" r="6" fill="#ef4444" />
    <circle cx="182.8" cy="150.2" r="6" fill="#fbbf24" />
    <circle cx="183.5" cy="183.1" r="6" fill="#fbbf24" />
    <circle cx="178.4" cy="227.3" r="6" fill="#ef4444" />
    <circle cx="184.0" cy="254.3" r="6" fill="#fbbf24" />
    <circle cx="183.6" cy="307.5" r="6" fill="#f97316" />
    <circle cx="177.8" cy="329.3" r="6" fill="#fbbf24" />
    <circle cx="176.5" cy="354.5" r="6" fill="#ef4444" />
    <circle cx="183.5" cy="402.5" r="6" fill="#fbbf24" />
    <circle cx="176.8" cy="426.8" r="6" fill="#fbbf24" />
    <circle cx="182.4" cy="459.6" r="6" fill="#f97316" />
    <circle cx="184.6" cy="482.2" r="6" fill="#fbbf24" />
    <circle cx="179.6" cy="500.2" r="6" fill="#fbbf24" />
    <circle cx="182.1" cy="528.4" r="6" fill="#ef4444" />
    <circle cx="207.1" cy="5.7" r="6" fill="#ef4444" />
    <circle cx="202.3" cy="105.4" r="6" fill="#ef4444" />
    <circle cx="204.8" cy="125.2" r="6" fill="#fbbf24" />
    <circle cx="205.8" cy="157.3" r="6" fill="#f97316" />
    <circle cx="201.6" cy="183.3" r="6" fill="#ef4444" />
    <circle cx="202.2" cy="200.9" r="6" fill="#fbbf24" />
    <circle cx="204.8" cy="230.3" r="6" fill="#f97316" />
    <circle cx="204.8" cy="282.5" r="6" fill="#f97316" />
    <circle cx="209.8" cy="307.6" r="6" fill="#ef4444" />
    <circle cx="206.8" cy="378.1" r="6" fill="#fbbf24" />
    <circle cx="205.1" cy="404.6" r="6" fill="#ef4444" />
    <circle cx="207.1" cy="429.4" r="6" fill="#ef4444" />
    <circle cx="208.5" cy="454.4" r="6" fill="#fbbf24" />
    <circle cx="207.0" cy="475.1" r="6" fill="#f97316" />
    <circle cx="207.8" cy="503.9" r="6" fill="#ef4444" />
    <circle cx="234.6" cy="59.8" r="6" fill="#f97316" />
    <circle cx="225.5" cy="81.0" r="6" fill="#ef4444" />
    <circle cx="226.0" cy="105.2" r="6" fill="#ef4444" />
    <circle cx="234.8" cy="130.2" r="6" fill="#f97316" />
    <circle cx="229.8" cy="154.0" r="6" fill="#ef4444" />
    <circle cx="234.7" cy="177.7" r="6" fill="#f97316" />
    <circle cx="226.7" cy="206.3" r="6" fill="#ef4444" />
    <circle cx="231.6" cy="251.8" r="6" fill="#fbbf24" />
    <circle cx="227.0" cy="277.3" r="6" fill="#f97316" />
    <circle cx="233.2" cy="304.8" r="6" fill="#fbbf24" />
    <circle cx="231.0" cy="375.9" r="6" fill="#ef4444" />
    <circle cx="234.2" cy="404.6" r="6" fill="#fbbf24" />
    <circle cx="234.5" cy="450.5" r="6" fill="#f97316" />
    <circle cx="228.2" cy="509.6" r="6" fill="#fbbf24" />
    <circle cx="234.9" cy="525.3" r="6" fill="#fbbf24" />
    <circle cx="254.6" cy="27.0" r="6" fill="#ef4444" />
    <circle cx="255.5" cy="130.9" r="6" fill="#ef4444" />
    <circle cx="259.4" cy="178.4" r="6" fill="#ef4444" />
    <circle cx="251.5" cy="209.0" r="6" fill="#f97316" />
    <circle cx="258.8" cy="308.9" r="6" fill="#ef4444" />
    <circle cx="253.9" cy="358.7" r="6" fill="#ef4444" />
    <circle cx="251.4" cy="384.1" r="6" fill="#ef4444" />
    <circle cx="259.7" cy="404.0" r="6" fill="#fbbf24" />
    <circle cx="259.2" cy="434.5" r="6" fill="#f97316" />
    <circle cx="253.0" cy="459.2" r="6" fill="#fbbf24" />
    <circle cx="283.8" cy="1.0" r="6" fill="#f97316" />
    <circle cx="282.1" cy="28.3" r="6" fill="#f97316" />
    <circle cx="282.5" cy="55.5" r="6" fill="#fbbf24" />
    <circle cx="281.6" cy="81.1" r="6" fill="#fbbf24" />
    <circle cx="280.8" cy="107.0" r="6" fill="#f97316" />
    <circle cx="279.8" cy="155.7" r="6" fill="#fbbf24" />
    <circle cx="279.1" cy="181.0" r="6" fill="#fbbf24" />
    <circle cx="283.3" cy="208.6" r="6" fill="#fbbf24" />
    <circle cx="279.6" cy="250.2" r="6" fill="#ef4444" />
    <circle cx="281.6" cy="276.4" r="6" fill="#fbbf24" />
    <circle cx="281.7" cy="301.3" r="6" fill="#f97316" />
    <circle cx="282.6" cy="327.8" r="6" fill="#f97316" />
    <circle cx="284.1" cy="380.3" r="6" fill="#ef4444" />
    <circle cx="281.9" cy="400.4" r="6" fill="#fbbf24" />
    <circle cx="283.1" cy="433.9" r="6" fill="#fbbf24" />
    <circle cx="302.4" cy="8.7" r="6" fill="#fbbf24" />
    <circle cx="304.9" cy="30.3" r="6" fill="#ef4444" />
    <circle cx="300.6" cy="57.6" r="6" fill="#ef4444" />
    <circle cx="301.7" cy="80.9" r="6" fill="#ef4444" />
    <circle cx="309.3" cy="133.1" r="6" fill="#fbbf24" />
    <circle cx="306.4" cy="200.1" r="6" fill="#ef4444" />
    <circle cx="300.8" cy="230.8" r="6" fill="#f97316" />
    <circle cx="303.3" cy="258.6" r="6" fill="#ef4444" />
    <circle cx="309.4" cy="301.4" r="6" fill="#ef4444" />
    <circle cx="305.8" cy="331.2" r="6" fill="#ef4444" />
    <circle cx="302.2" cy="353.4" r="6" fill="#f97316" />
    <circle cx="304.7" cy="409.5" r="6" fill="#f97316" />
    <circle cx="309.2" cy="459.2" r="6" fill="#f97316" />
    <circle cx="300.1" cy="501.9" r="6" fill="#ef4444" />
    <circle cx="326.1" cy="6.2" r="6" fill="#ef4444" />
    <circle cx="327.8" cy="34.5" r="6" fill="#fbbf24" />
    <circle cx="330.9" cy="58.6" r="6" fill="#f97316" />
    <circle cx="333.1" cy="100.8" r="6" fill="#f97316" />
    <circle cx="331.9" cy="126.8" r="6" fill="#fbbf24" />
    <circle cx="332.0" cy="150.2" r="6" fill="#f97316" />
    <circle cx="329.0" cy="178.0" r="6" fill="#ef4444" />
    <circle cx="333.5" cy="206.3" r="6" fill="#ef4444" />
    <circle cx="333.7" cy="233.4" r="6" fill="#f97316" />
    <circle cx="334.8" cy="254.4" r="6" fill="#ef4444" />
    <circle cx="327.1" cy="280.8" r="6" fill="#f97316" />
    <circle cx="327.1" cy="333.5" r="6" fill="#ef4444" />
    <circle cx="328.1" cy="378.1" r="6" fill="#ef4444" />
    <circle cx="328.1" cy="405.3" r="6" fill="#f97316" />
    <circle cx="328.1" cy="425.4" r="6" fill="#fbbf24" />
    <circle cx="326.4" cy="453.5" r="6" fill="#f97316" />
    <circle cx="330.3" cy="482.4" r="6" fill="#f97316" />
    <circle cx="330.3" cy="525.4" r="6" fill="#f97316" />
    <circle cx="353.6" cy="56.8" r="6" fill="#fbbf24" />
    <circle cx="351.4" cy="75.8" r="6" fill="#ef4444" />
    <circle cx="354.4" cy="179.7" r="6" fill="#fbbf24" />
    <circle cx="357.4" cy="207.4" r="6" fill="#f97316" />
    <circle cx="351.6" cy="226.7" r="6" fill="#fbbf24" />
    <circle cx="354.0" cy="252.4" r="6" fill="#fbbf24" />
    <circle cx="352.2" cy="275.5" r="6" fill="#f97316" />
    <circle cx="359.0" cy="331.8" r="6" fill="#f97316" />
    <circle cx="358.7" cy="382.5" r="6" fill="#f97316" />
    <circle cx="355.2" cy="427.5" r="6" fill="#ef4444" />
    <circle cx="353.5" cy="478.9" r="6" fill="#ef4444" />
    <circle cx="354.0" cy="534.6" r="6" fill="#f97316" />
    <circle cx="379.2" cy="0.0" r="6" fill="#f97316" />
    <circle cx="375.6" cy="34.5" r="6" fill="#fbbf24" />
    <circle cx="380.2" cy="79.6" r="6" fill="#fbbf24" />
    <circle cx="384.0" cy="109.3" r="6" fill="#fbbf24" />
    <circle cx="384.1" cy="184.6" r="6" fill="#fbbf24" />
    <circle cx="384.4" cy="225.5" r="6" fill="#fbbf24" />
    <circle cx="381.7" cy="257.9" r="6" fill="#ef4444" />
    <circle cx="375.9" cy="300.9" r="6" fill="#f97316" />
    <circle cx="384.6" cy="332.0" r="6" fill="#fbbf24" />
    <circle cx="381.0" cy="351.2" r="6" fill="#ef4444" />
    <circle cx="378.1" cy="384.6" r="6" fill="#ef4444" />
    <circle cx="384.5" cy="409.8" r="6" fill="#fbbf24" />
    <circle cx="379.3" cy="458.0" r="6" fill="#ef4444" />
    <circle cx="376.6" cy="480.7" r="6" fill="#ef4444" />
    <circle cx="376.6" cy="525.4" r="6" fill="#fbbf24" /></g>
  <rect x="142.6" y="368.4" width="20.0" height="20.0" fill="#fbbf24" opacity="0.39" />
    <rect x="235.4" y="321.9" width="53.8" height="53.8" fill="#f97316" opacity="0.15" />
    <polygon points="20.7,250.0 38.8,268.1 20.7,286.3 2.6,268.1" fill="#fbbf24" opacity="0.21" />
    <polygon points="397.9,254.8 430.3,319.6 365.5,319.6" fill="#ef4444" opacity="0.24" />
    <rect x="102.9" y="415.0" width="62.8" height="62.8" fill="#f97316" opacity="0.28" />
    <rect x="289.1" y="382.2" width="96.6" height="96.6" fill="#ef4444" opacity="0.27" />
    <polygon points="273.5,269.3 300.6,296.4 273.5,323.4 246.5,296.4" fill="#f97316" opacity="0.35" />
    <rect x="24.5" y="402.2" width="51.7" height="51.7" fill="#fbbf24" opacity="0.17" />
    <circle cx="246.3" cy="105.2" r="15.4" fill="#fbbf24" opacity="0.20" />
    <circle cx="339.1" cy="374.5" r="11.0" fill="#ef4444" opacity="0.17" />
    <rect x="2.7" y="252.6" width="78.4" height="78.4" fill="#f97316" opacity="0.26" />
  
  <!-- Text background banner -->
  <defs>
    <linearGradient id="text-bg-25" x1="0%" y1="0%" x2="100%" y2="0%">
      <stop offset="0%" style="stop-color:#000000;stop-opacity:0.7" />
      <stop offset="50%" style="stop-color:#ef4444;stop-opacity:0.4" />
      <stop offset="100%" style="stop-color:#000000;stop-opacity:0.7" />
    </linearGradient>
  </defs>
  <rect x="0" y="494" width="400" height="56" fill="url(#text-bg-25)" />

  <!-- Text shadow -->
  <text x="200" y="522" font-family="system-ui, -apple-system, sans-serif" font-size="24" font-weight="bold" text-anchor="middle" fill="#000000" opacity="0.8">GARY THE GRILL APOCALY...</text>

  <!-- Main text -->
  <text x="200" y="520" font-family="system-ui, -apple-system, sans-serif" font-size="24" font-weight="bold" text-anchor="middle" fill="#ffffff">GARY THE GRILL APOCALY...</text>
  
  <!-- Rarity border -->
  <rect x="4" y="4" width="392" height="542"
        fill="none" stroke="#eab308" stroke-width="8" rx="8" ry="8" />
</svg>