<?xml version="1.0" encoding="UTF-8"?>
<svg xmlns="http://www.w3.org/2000/svg" viewBox="0 0 400 550" width="400" height="550">
  <defs>
    <linearGradient id="bg-gradient-002" x1="0%" y1="0%" x2="100%" y2="100%">
      <stop offset="0%" style="stop-color:#3b82f6;stop-opacity:0.26" />
      <stop offset="50%" style="stop-color:#6366f1;stop-opacity:0.4" />
      <stop offset="100%" style="stop-color:#3b82f6;stop-opacity:0.26" />
    </linearGradient>
    
  <filter id="shadow-002">
    <feDropShadow dx="0" dy="2" stdDeviation="3" flood-opacity="0.8"/>
  </filter>
  </defs>
  <rect width="400" height="550" fill="url(#bg-gradient-0.6702036669012159)" />
  <g opacity="0.3"><circle cx="4.5" cy="63.1" r="8" fill="#3b82f6" />
    <circle cx="9.0" cy="84.9" r="8" fill="#3b82f6" />
    <circle cx="7.2" cy="141.8" r="8" fill="#8b5cf6" />
    <circle cx="9.6" cy="166.8" r="8" fill="#6366f1" />
    <circle cx="6.8" cy="185.8" r="8" fill="#8b5cf6" />
    <circle cx="7.7" cy="206.0" r="8" fill="#6366f1" />
    <circle cx="5.9" cy="223.7" r="8" fill="#3b82f6" />
    <circle cx="1.8" cy="307.1" r="8" fill="#6366f1" />
    <circle cx="2.2" cy="324.2" r="8" fill="#6366f1" />
    <circle cx="1.4" cy="347.7" r="8" fill="#8b5cf6" />
    <circle cx="3.4" cy="360.9" r="8" fill="#8b5cf6" />
    <circle cx="2.6" cy="387.6" r="8" fill="#8b5cf6" />
    <circle cx="7.6" cy="400.3" r="8" fill="#8b5cf6" />
    <circle cx="0.9" cy="427.9" r="8" fill="#6366f1" />
    <circle cx="8.2" cy="442.7" r="8" fill="#8b5cf6" />
    <circle cx="0.1" cy="466.5" r="8" fill="#3b82f6" />
    <circle cx="6.7" cy="480.5" r="8" fill="#8b5cf6" />
    <circle cx="6.9" cy="509.8" r="8" fill="#8b5cf6" />
    <circle cx="8.1" cy="546.4" r="8" fill="#8b5cf6" />
    <circle cx="27.5" cy="8.2" r="8" fill="#8b5cf6" />
    <circle cx="29.8" cy="22.6" r="8" fill="#8b5cf6" />
    <circle cx="23.6" cy="41.0" r="8" fill="#8b5cf6" />
    <circle cx="24.0" cy="86.0" r="8" fill="#6366f1" />
    <circle cx="27.6" cy="105.9" r="8" fill="#3b82f6" />
    <circle cx="24.6" cy="122.5" r="8" fill="#8b5cf6" />
    <circle cx="21.6" cy="147.2" r="8" fill="#6366f1" />
    <circle cx="22.5" cy="166.4" r="8" fill="#3b82f6" />
    <circle cx="28.5" cy="185.5" r="8" fill="#6366f1" />
    <circle cx="26.9" cy="249.5" r="8" fill="#6366f1" />
    <circle cx="28.9" cy="288.6" r="8" fill="#3b82f6" />
    <circle cx="25.7" cy="302.9" r="8" fill="#3b82f6" />
    <circle cx="22.5" cy="329.0" r="8" fill="#6366f1" />
    <circle cx="27.9" cy="344.0" r="8" fill="#3b82f6" />
    <circle cx="21.0" cy="404.7" r="8" fill="#3b82f6" />
    <circle cx="28.9" cy="446.9" r="8" fill="#6366f1" />
    <circle cx="24.1" cy="460.8" r="8" fill="#8b5cf6" />
    <circle cx="24.3" cy="484.3" r="8" fill="#6366f1" />
    <circle cx="24.1" cy="525.4" r="8" fill="#6366f1" />
    <circle cx="21.0" cy="540.6" r="8" fill="#6366f1" />
    <circle cx="45.2" cy="8.8" r="8" fill="#3b82f6" />
    <circle cx="41.4" cy="24.8" r="8" fill="#8b5cf6" />
    <circle cx="47.7" cy="63.2" r="8" fill="#3b82f6" />
    <circle cx="48.5" cy="84.7" r="8" fill="#6366f1" />
    <circle cx="44.8" cy="106.9" r="8" fill="#3b82f6" />
    <circle cx="45.4" cy="123.4" r="8" fill="#6366f1" />
    <circle cx="43.0" cy="146.0" r="8" fill="#6366f1" />
    <circle cx="47.9" cy="181.7" r="8" fill="#8b5cf6" />
    <circle cx="40.4" cy="207.4" r="8" fill="#3b82f6" />
    <circle cx="46.0" cy="225.9" r="8" fill="#3b82f6" />
    <circle cx="49.5" cy="247.4" r="8" fill="#8b5cf6" />
    <circle cx="42.8" cy="282.9" r="8" fill="#3b82f6" />
    <circle cx="46.0" cy="326.3" r="8" fill="#8b5cf6" />
    <circle cx="43.0" cy="384.2" r="8" fill="#6366f1" />
    <circle cx="40.7" cy="406.3" r="8" fill="#6366f1" />
    <circle cx="40.8" cy="426.3" r="8" fill="#3b82f6" />
    <circle cx="49.9" cy="487.6" r="8" fill="#6366f1" />
    <circle cx="42.5" cy="525.6" r="8" fill="#3b82f6" />
    <circle cx="43.4" cy="540.7" r="8" fill="#3b82f6" />
    <circle cx="68.4" cy="2.5" r="8" fill="#8b5cf6" />
    <circle cx="60.3" cy="43.5" r="8" fill="#8b5cf6" />
    <circle cx="67.6" cy="81.4" r="8" fill="#8b5cf6" />
    <circle cx="66.6" cy="101.7" r="8" fill="#8b5cf6" />
    <circle cx="61.2" cy="128.2" r="8" fill="#3b82f6" />
    <circle cx="67.1" cy="140.0" r="8" fill="#8b5cf6" />
    <circle cx="65.2" cy="160.9" r="8" fill="#3b82f6" />
    <circle cx="68.0" cy="184.5" r="8" fill="#6366f1" />
    <circle cx="63.6" cy="203.8" r="8" fill="#6366f1" />
    <circle cx="60.4" cy="242.3" r="8" fill="#8b5cf6" />
    <circle cx="65.2" cy="260.1" r="8" fill="#6366f1" />
    <circle cx="68.4" cy="286.0" r="8" fill="#6366f1" />
    <circle cx="67.4" cy="306.0" r="8" fill="#6366f1" />
    <circle cx="63.4" cy="349.9" r="8" fill="#6366f1" />
    <circle cx="63.6" cy="367.0" r="8" fill="#3b82f6" />
    <circle cx="69.4" cy="409.2" r="8" fill="#6366f1" />
    <circle cx="66.6" cy="444.1" r="8" fill="#8b5cf6" />
    <circle cx="60.4" cy="464.0" r="8" fill="#8b5cf6" />
    <circle cx="61.8" cy="505.3" r="8" fill="#3b82f6" />
    <circle cx="66.8" cy="528.0" r="8" fill="#6366f1" />
    <circle cx="86.4" cy="2.8" r="8" fill="#3b82f6" />
    <circle cx="88.4" cy="26.7" r="8" fill="#3b82f6" />
    <circle cx="82.3" cy="64.6" r="8" fill="#6366f1" />
    <circle cx="87.9" cy="84.6" r="8" fill="#6366f1" />
    <circle cx="85.6" cy="129.9" r="8" fill="#6366f1" />
    <circle cx="83.7" cy="143.3" r="8" fill="#6366f1" />
    <circle cx="88.7" cy="169.8" r="8" fill="#8b5cf6" />
    <circle cx="85.5" cy="187.1" r="8" fill="#8b5cf6" />
    <circle cx="89.0" cy="226.2" r="8" fill="#6366f1" />
    <circle cx="89.1" cy="242.3" r="8" fill="#6366f1" />
    <circle cx="85.7" cy="265.6" r="8" fill="#6366f1" />
    <circle cx="87.0" cy="301.1" r="8" fill="#6366f1" />
    <circle cx="87.4" cy="328.8" r="8" fill="#8b5cf6" />
    <circle cx="87.4" cy="348.2" r="8" fill="#3b82f6" />
    <circle cx="84.1" cy="409.4" r="8" fill="#3b82f6" />
    <circle cx="82.8" cy="447.5" r="8" fill="#6366f1" />
    <circle cx="89.4" cy="467.9" r="8" fill="#3b82f6" />
    <circle cx="88.3" cy="503.1" r="8" fill="#6366f1" />
    <circle cx="87.5" cy="524.7" r="8" fill="#6366f1" />
    <circle cx="86.3" cy="545.8" r="8" fill="#8b5cf6" />
    <circle cx="106.4" cy="8.7" r="8" fill="#3b82f6" />
    <circle cx="107.6" cy="49.4" r="8" fill="#6366f1" />
    <circle cx="105.0" cy="85.2" r="8" fill="#8b5cf6" />
    <circle cx="101.7" cy="108.6" r="8" fill="#6366f1" />
    <circle cx="100.1" cy="126.4" r="8" fill="#6366f1" />
    <circle cx="102.9" cy="182.5" r="8" fill="#3b82f6" />
    <circle cx="106.3" cy="268.3" r="8" fill="#6366f1" />
    <circle cx="105.2" cy="304.3" r="8" fill="#3b82f6" />
    <circle cx="104.7" cy="382.9" r="8" fill="#8b5cf6" />
    <circle cx="102.3" cy="403.6" r="8" fill="#3b82f6" />
    <circle cx="104.3" cy="424.2" r="8" fill="#6366f1" />
    <circle cx="102.1" cy="443.8" r="8" fill="#6366f1" />
    <circle cx="102.0" cy="470.0" r="8" fill="#3b82f6" />
    <circle cx="100.0" cy="484.1" r="8" fill="#3b82f6" />
    <circle cx="106.0" cy="506.0" r="8" fill="#6366f1" />
    <circle cx="103.5" cy="540.8" r="8" fill="#3b82f6" />
    <circle cx="124.5" cy="20.2" r="8" fill="#6366f1" />
    <circle cx="123.4" cy="48.3" r="8" fill="#3b82f6" />
    <circle cx="122.3" cy="81.4" r="8" fill="#3b82f6" />
    <circle cx="126.8" cy="100.0" r="8" fill="#3b82f6" />
    <circle cx="126.8" cy="128.4" r="8" fill="#8b5cf6" />
    <circle cx="125.5" cy="181.9" r="8" fill="#8b5cf6" />
    <circle cx="128.3" cy="206.8" r="8" fill="#8b5cf6" />
    <circle cx="127.3" cy="223.2" r="8" fill="#6366f1" />
    <circle cx="120.9" cy="240.7" r="8" fill="#6366f1" />
    <circle cx="124.5" cy="266.3" r="8" fill="#8b5cf6" />
    <circle cx="120.7" cy="287.8" r="8" fill="#6366f1" />
    <circle cx="126.4" cy="305.3" r="8" fill="#6366f1" />
    <circle cx="127.2" cy="341.0" r="8" fill="#3b82f6" />
    <circle cx="127.8" cy="369.7" r="8" fill="#6366f1" />
    <circle cx="123.3" cy="381.4" r="8" fill="#8b5cf6" />
    <circle cx="128.1" cy="424.1" r="8" fill="#3b82f6" />
    <circle cx="128.4" cy="442.1" r="8" fill="#6366f1" />
    <circle cx="120.6" cy="468.1" r="8" fill="#8b5cf6" />
    <circle cx="127.8" cy="488.1" r="8" fill="#6366f1" />
    <circle cx="129.5" cy="501.1" r="8" fill="#3b82f6" />
    <circle cx="128.1" cy="522.5" r="8" fill="#8b5cf6" />
    <circle cx="148.7" cy="41.3" r="8" fill="#3b82f6" />
    <circle cx="147.7" cy="62.3" r="8" fill="#3b82f6" />
    <circle cx="143.6" cy="81.7" r="8" fill="#3b82f6" />
    <circle cx="144.7" cy="124.5" r="8" fill="#6366f1" />
    <circle cx="143.2" cy="143.8" r="8" fill="#8b5cf6" />
    <circle cx="146.4" cy="160.0" r="8" fill="#8b5cf6" />
    <circle cx="149.8" cy="206.2" r="8" fill="#8b5cf6" />
    <circle cx="148.3" cy="220.9" r="8" fill="#6366f1" />
    <circle cx="143.6" cy="245.4" r="8" fill="#6366f1" />
    <circle cx="141.0" cy="268.3" r="8" fill="#3b82f6" />
    <circle cx="145.9" cy="283.9" r="8" fill="#6366f1" />
    <circle cx="148.7" cy="303.9" r="8" fill="#6366f1" />
    <circle cx="143.2" cy="327.6" r="8" fill="#6366f1" />
    <circle cx="149.1" cy="342.0" r="8" fill="#6366f1" />
    <circle cx="143.9" cy="405.3" r="8" fill="#6366f1" />
    <circle cx="143.3" cy="424.3" r="8" fill="#8b5cf6" />
    <circle cx="141.8" cy="445.9" r="8" fill="#3b82f6" />
    <circle cx="148.9" cy="469.4" r="8" fill="#8b5cf6" />
    <circle cx="146.8" cy="485.4" r="8" fill="#8b5cf6" />
    <circle cx="141.9" cy="501.3" r="8" fill="#8b5cf6" />
    <circle cx="141.3" cy="544.9" r="8" fill="#6366f1" />
    <circle cx="169.5" cy="0.2" r="8" fill="#3b82f6" />
    <circle cx="166.3" cy="21.1" r="8" fill="#8b5cf6" />
    <circle cx="163.3" cy="69.4" r="8" fill="#8b5cf6" />
    <circle cx="169.9" cy="87.5" r="8" fill="#8b5cf6" />
    <circle cx="161.3" cy="107.5" r="8" fill="#6366f1" />
    <circle cx="168.0" cy="124.1" r="8" fill="#8b5cf6" />
    <circle cx="169.4" cy="140.6" r="8" fill="#8b5cf6" />
    <circle cx="163.4" cy="168.7" r="8" fill="#8b5cf6" />
    <circle cx="162.7" cy="188.9" r="8" fill="#3b82f6" />
    <circle cx="166.0" cy="208.8" r="8" fill="#8b5cf6" />
    <circle cx="161.3" cy="224.6" r="8" fill="#8b5cf6" />
    <circle cx="161.2" cy="249.1" r="8" fill="#3b82f6" />
    <circle cx="162.4" cy="283.0" r="8" fill="#8b5cf6" />
    <circle cx="163.6" cy="300.1" r="8" fill="#8b5cf6" />
    <circle cx="168.9" cy="349.5" r="8" fill="#3b82f6" />
    <circle cx="161.7" cy="361.4" r="8" fill="#6366f1" />
    <circle cx="169.3" cy="387.1" r="8" fill="#6366f1" />
    <circle cx="160.8" cy="423.2" r="8" fill="#6366f1" />
    <circle cx="167.0" cy="441.8" r="8" fill="#6366f1" />
    <circle cx="163.6" cy="482.4" r="8" fill="#3b82f6" />
    <circle cx="163.1" cy="525.2" r="8" fill="#6366f1" />
    <circle cx="166.6" cy="541.5" r="8" fill="#6366f1" />
    <circle cx="181.5" cy="1.0" r="8" fill="#6366f1" />
    <circle cx="183.5" cy="46.3" r="8" fill="#3b82f6" />
    <circle cx="185.3" cy="67.6" r="8" fill="#3b82f6" />
    <circle cx="189.2" cy="125.6" r="8" fill="#6366f1" />
    <circle cx="188.1" cy="145.0" r="8" fill="#8b5cf6" />
    <circle cx="181.3" cy="161.1" r="8" fill="#6366f1" />
    <circle cx="183.2" cy="188.9" r="8" fill="#8b5cf6" />
    <circle cx="180.1" cy="200.6" r="8" fill="#6366f1" />
    <circle cx="181.5" cy="222.7" r="8" fill="#6366f1" />
    <circle cx="182.1" cy="247.1" r="8" fill="#6366f1" />
    <circle cx="182.3" cy="268.1" r="8" fill="#8b5cf6" />
    <circle cx="181.3" cy="283.0" r="8" fill="#6366f1" />
    <circle cx="188.8" cy="301.6" r="8" fill="#8b5cf6" />
    <circle cx="183.5" cy="321.7" r="8" fill="#6366f1" />
    <circle cx="186.3" cy="342.8" r="8" fill="#6366f1" />
    <circle cx="187.1" cy="380.5" r="8" fill="#3b82f6" />
    <circle cx="180.2" cy="405.7" r="8" fill="#8b5cf6" />
    <circle cx="182.6" cy="422.0" r="8" fill="#6366f1" />
    <circle cx="181.9" cy="448.9" r="8" fill="#6366f1" />
    <circle cx="187.6" cy="460.6" r="8" fill="#8b5cf6" />
    <circle cx="188.3" cy="484.4" r="8" fill="#3b82f6" />
    <circle cx="189.1" cy="523.2" r="8" fill="#3b82f6" />
    <circle cx="187.4" cy="547.6" r="8" fill="#8b5cf6" />
    <circle cx="207.6" cy="2.0" r="8" fill="#3b82f6" />
    <circle cx="202.7" cy="24.7" r="8" fill="#3b82f6" />
    <circle cx="202.9" cy="67.9" r="8" fill="#8b5cf6" />
    <circle cx="207.0" cy="84.5" r="8" fill="#6366f1" />
    <circle cx="208.2" cy="100.2" r="8" fill="#8b5cf6" />
    <circle cx="203.5" cy="145.4" r="8" fill="#8b5cf6" />
    <circle cx="207.7" cy="169.0" r="8" fill="#6366f1" />
    <circle cx="204.2" cy="206.3" r="8" fill="#6366f1" />
    <circle cx="200.4" cy="221.3" r="8" fill="#6366f1" />
    <circle cx="203.3" cy="243.8" r="8" fill="#3b82f6" />
    <circle cx="206.6" cy="302.3" r="8" fill="#6366f1" />
    <circle cx="205.1" cy="326.4" r="8" fill="#6366f1" />
    <circle cx="203.7" cy="366.5" r="8" fill="#6366f1" />
    <circle cx="200.7" cy="381.8" r="8" fill="#8b5cf6" />
    <circle cx="206.5" cy="420.8" r="8" fill="#3b82f6" />
    <circle cx="202.0" cy="444.6" r="8" fill="#8b5cf6" />
    <circle cx="200.2" cy="469.3" r="8" fill="#6366f1" />
    <circle cx="207.5" cy="506.9" r="8" fill="#3b82f6" />
    <circle cx="203.5" cy="545.1" r="8" fill="#8b5cf6" />
    <circle cx="222.1" cy="0.4" r="8" fill="#6366f1" />
    <circle cx="226.7" cy="23.9" r="8" fill="#8b5cf6" />
    <circle cx="224.0" cy="44.9" r="8" fill="#8b5cf6" />
    <circle cx="227.7" cy="66.7" r="8" fill="#6366f1" />
    <circle cx="229.9" cy="82.1" r="8" fill="#3b82f6" />
    <circle cx="222.0" cy="109.9" r="8" fill="#6366f1" />
    <circle cx="228.3" cy="120.3" r="8" fill="#3b82f6" />
    <circle cx="223.5" cy="140.6" r="8" fill="#8b5cf6" />
    <circle cx="227.7" cy="166.2" r="8" fill="#8b5cf6" />
    <circle cx="224.4" cy="183.5" r="8" fill="#3b82f6" />
    <circle cx="221.2" cy="229.9" r="8" fill="#8b5cf6" />
    <circle cx="227.9" cy="240.2" r="8" fill="#8b5cf6" />
    <circle cx="225.2" cy="267.9" r="8" fill="#8b5cf6" />
    <circle cx="223.4" cy="286.6" r="8" fill="#8b5cf6" />
    <circle cx="225.5" cy="308.0" r="8" fill="#8b5cf6" />
    <circle cx="223.1" cy="349.3" r="8" fill="#3b82f6" />
    <circle cx="223.0" cy="361.6" r="8" fill="#3b82f6" />
    <circle cx="228.9" cy="383.7" r="8" fill="#6366f1" />
    <circle cx="222.1" cy="429.6" r="8" fill="#8b5cf6" />
    <circle cx="222.6" cy="463.4" r="8" fill="#3b82f6" />
    <circle cx="220.4" cy="541.1" r="8" fill="#6366f1" />
    <circle cx="241.0" cy="3.9" r="8" fill="#6366f1" />
    <circle cx="244.2" cy="23.7" r="8" fill="#3b82f6" />
    <circle cx="248.3" cy="47.4" r="8" fill="#3b82f6" />
    <circle cx="247.0" cy="60.6" r="8" fill="#3b82f6" />
    <circle cx="245.1" cy="89.1" r="8" fill="#6366f1" />
    <circle cx="241.3" cy="145.4" r="8" fill="#8b5cf6" />
    <circle cx="243.7" cy="169.7" r="8" fill="#3b82f6" />
    <circle cx="249.1" cy="180.1" r="8" fill="#3b82f6" />
    <circle cx="245.5" cy="208.7" r="8" fill="#3b82f6" />
    <circle cx="245.5" cy="241.0" r="8" fill="#8b5cf6" />
    <circle cx="245.9" cy="268.6" r="8" fill="#3b82f6" />
    <circle cx="247.6" cy="289.8" r="8" fill="#3b82f6" />
    <circle cx="240.5" cy="320.6" r="8" fill="#8b5cf6" />
    <circle cx="246.0" cy="345.0" r="8" fill="#8b5cf6" />
    <circle cx="246.4" cy="364.4" r="8" fill="#8b5cf6" />
    <circle cx="240.2" cy="401.9" r="8" fill="#6366f1" />
    <circle cx="243.5" cy="426.1" r="8" fill="#8b5cf6" />
    <circle cx="243.0" cy="444.8" r="8" fill="#8b5cf6" />
    <circle cx="248.3" cy="465.7" r="8" fill="#3b82f6" />
    <circle cx="243.5" cy="488.0" r="8" fill="#3b82f6" />
    <circle cx="240.5" cy="501.4" r="8" fill="#3b82f6" />
    <circle cx="244.7" cy="523.0" r="8" fill="#8b5cf6" />
    <circle cx="240.0" cy="546.9" r="8" fill="#8b5cf6" />
    <circle cx="260.3" cy="9.1" r="8" fill="#8b5cf6" />
    <circle cx="265.8" cy="21.1" r="8" fill="#8b5cf6" />
    <circle cx="269.4" cy="45.6" r="8" fill="#8b5cf6" />
    <circle cx="263.3" cy="64.6" r="8" fill="#3b82f6" />
    <circle cx="269.2" cy="81.4" r="8" fill="#8b5cf6" />
    <circle cx="261.1" cy="101.5" r="8" fill="#8b5cf6" />
    <circle cx="266.7" cy="122.2" r="8" fill="#3b82f6" />
    <circle cx="262.7" cy="145.0" r="8" fill="#6366f1" />
    <circle cx="263.7" cy="167.2" r="8" fill="#8b5cf6" />
    <circle cx="263.0" cy="182.4" r="8" fill="#6366f1" />
    <circle cx="269.4" cy="226.0" r="8" fill="#6366f1" />
    <circle cx="267.6" cy="268.5" r="8" fill="#8b5cf6" />
    <circle cx="264.8" cy="280.6" r="8" fill="#6366f1" />
    <circle cx="262.5" cy="303.0" r="8" fill="#3b82f6" />
    <circle cx="260.4" cy="348.6" r="8" fill="#8b5cf6" />
    <circle cx="268.1" cy="368.1" r="8" fill="#6366f1" />
    <circle cx="261.0" cy="382.5" r="8" fill="#8b5cf6" />
    <circle cx="265.9" cy="442.0" r="8" fill="#6366f1" />
    <circle cx="262.5" cy="464.3" r="8" fill="#3b82f6" />
    <circle cx="264.9" cy="480.8" r="8" fill="#6366f1" />
    <circle cx="263.3" cy="501.9" r="8" fill="#8b5cf6" />
    <circle cx="265.9" cy="521.9" r="8" fill="#8b5cf6" />
    <circle cx="264.9" cy="543.3" r="8" fill="#3b82f6" />
    <circle cx="285.1" cy="7.3" r="8" fill="#6366f1" />
    <circle cx="289.2" cy="21.7" r="8" fill="#6366f1" />
    <circle cx="284.6" cy="40.3" r="8" fill="#8b5cf6" />
    <circle cx="288.4" cy="89.4" r="8" fill="#3b82f6" />
    <circle cx="286.9" cy="109.0" r="8" fill="#3b82f6" />
    <circle cx="286.5" cy="121.3" r="8" fill="#6366f1" />
    <circle cx="287.2" cy="149.4" r="8" fill="#3b82f6" />
    <circle cx="288.8" cy="203.6" r="8" fill="#6366f1" />
    <circle cx="283.9" cy="307.3" r="8" fill="#6366f1" />
    <circle cx="285.1" cy="322.7" r="8" fill="#6366f1" />
    <circle cx="283.9" cy="348.4" r="8" fill="#8b5cf6" />
    <circle cx="286.4" cy="362.4" r="8" fill="#3b82f6" />
    <circle cx="288.1" cy="404.9" r="8" fill="#8b5cf6" />
    <circle cx="287.6" cy="446.6" r="8" fill="#6366f1" />
    <circle cx="283.4" cy="466.4" r="8" fill="#3b82f6" />
    <circle cx="280.6" cy="525.6" r="8" fill="#8b5cf6" />
    <circle cx="289.1" cy="548.4" r="8" fill="#3b82f6" />
    <circle cx="309.0" cy="0.9" r="8" fill="#6366f1" />
    <circle cx="306.3" cy="23.5" r="8" fill="#6366f1" />
    <circle cx="300.6" cy="40.5" r="8" fill="#8b5cf6" />
    <circle cx="308.4" cy="67.7" r="8" fill="#3b82f6" />
    <circle cx="300.8" cy="164.6" r="8" fill="#3b82f6" />
    <circle cx="308.0" cy="203.8" r="8" fill="#6366f1" />
    <circle cx="308.6" cy="242.2" r="8" fill="#3b82f6" />
    <circle cx="303.3" cy="262.1" r="8" fill="#8b5cf6" />
    <circle cx="302.4" cy="282.6" r="8" fill="#6366f1" />
    <circle cx="305.9" cy="303.8" r="8" fill="#8b5cf6" />
    <circle cx="305.8" cy="328.4" r="8" fill="#3b82f6" />
    <circle cx="300.2" cy="342.3" r="8" fill="#8b5cf6" />
    <circle cx="302.7" cy="369.5" r="8" fill="#8b5cf6" />
    <circle cx="306.8" cy="383.7" r="8" fill="#8b5cf6" />
    <circle cx="305.5" cy="403.3" r="8" fill="#8b5cf6" />
    <circle cx="306.7" cy="443.7" r="8" fill="#3b82f6" />
    <circle cx="309.8" cy="465.9" r="8" fill="#3b82f6" />
    <circle cx="307.4" cy="484.9" r="8" fill="#6366f1" />
    <circle cx="308.1" cy="503.5" r="8" fill="#3b82f6" />
    <circle cx="303.7" cy="546.7" r="8" fill="#3b82f6" />
    <circle cx="322.2" cy="3.3" r="8" fill="#6366f1" />
    <circle cx="327.6" cy="22.4" r="8" fill="#6366f1" />
    <circle cx="327.5" cy="43.2" r="8" fill="#6366f1" />
    <circle cx="328.6" cy="63.3" r="8" fill="#6366f1" />
    <circle cx="320.1" cy="89.2" r="8" fill="#8b5cf6" />
    <circle cx="329.4" cy="106.5" r="8" fill="#3b82f6" />
    <circle cx="329.4" cy="120.9" r="8" fill="#3b82f6" />
    <circle cx="323.2" cy="189.5" r="8" fill="#8b5cf6" />
    <circle cx="322.0" cy="205.0" r="8" fill="#8b5cf6" />
    <circle cx="322.1" cy="245.2" r="8" fill="#6366f1" />
    <circle cx="328.5" cy="286.7" r="8" fill="#6366f1" />
    <circle cx="326.7" cy="326.3" r="8" fill="#6366f1" />
    <circle cx="322.8" cy="409.9" r="8" fill="#3b82f6" />
    <circle cx="320.6" cy="424.7" r="8" fill="#8b5cf6" />
    <circle cx="320.8" cy="480.3" r="8" fill="#3b82f6" />
    <circle cx="329.9" cy="507.4" r="8" fill="#3b82f6" />
    <circle cx="326.8" cy="529.6" r="8" fill="#8b5cf6" />
    <circle cx="348.2" cy="46.6" r="8" fill="#8b5cf6" />
    <circle cx="346.2" cy="62.1" r="8" fill="#6366f1" />
    <circle cx="341.1" cy="86.3" r="8" fill="#3b82f6" />
    <circle cx="343.8" cy="128.3" r="8" fill="#8b5cf6" />
    <circle cx="345.0" cy="167.6" r="8" fill="#8b5cf6" />
    <circle cx="345.7" cy="182.4" r="8" fill="#3b82f6" />
    <circle cx="348.4" cy="207.7" r="8" fill="#6366f1" />
    <circle cx="343.7" cy="221.0" r="8" fill="#8b5cf6" />
    <circle cx="341.8" cy="247.1" r="8" fill="#8b5cf6" />
    <circle cx="346.4" cy="284.6" r="8" fill="#3b82f6" />
    <circle cx="345.6" cy="302.8" r="8" fill="#6366f1" />
    <circle cx="345.1" cy="345.4" r="8" fill="#8b5cf6" />
    <circle cx="349.0" cy="385.7" r="8" fill="#3b82f6" />
    <circle cx="340.9" cy="409.0" r="8" fill="#6366f1" />
    <circle cx="346.9" cy="425.0" r="8" fill="#6366f1" />
    <circle cx="343.2" cy="441.7" r="8" fill="#3b82f6" />
    <circle cx="341.9" cy="500.1" r="8" fill="#6366f1" />
    <circle cx="344.7" cy="529.4" r="8" fill="#3b82f6" />
    <circle cx="363.0" cy="6.4" r="8" fill="#8b5cf6" />
    <circle cx="367.1" cy="41.2" r="8" fill="#6366f1" />
    <circle cx="367.1" cy="62.3" r="8" fill="#8b5cf6" />
    <circle cx="367.0" cy="89.6" r="8" fill="#3b82f6" />
    <circle cx="360.8" cy="109.4" r="8" fill="#8b5cf6" />
    <circle cx="366.3" cy="122.6" r="8" fill="#3b82f6" />
    <circle cx="367.0" cy="149.0" r="8" fill="#6366f1" />
    <circle cx="363.9" cy="163.5" r="8" fill="#8b5cf6" />
    <circle cx="366.3" cy="265.5" r="8" fill="#3b82f6" />
    <circle cx="366.6" cy="289.6" r="8" fill="#8b5cf6" />
    <circle cx="363.8" cy="301.7" r="8" fill="#8b5cf6" />
    <circle cx="363.6" cy="325.2" r="8" fill="#6366f1" />
    <circle cx="367.7" cy="349.6" r="8" fill="#8b5cf6" />
    <circle cx="366.6" cy="365.1" r="8" fill="#3b82f6" />
    <circle cx="363.9" cy="424.2" r="8" fill="#8b5cf6" />
    <circle cx="369.2" cy="466.8" r="8" fill="#3b82f6" />
    <circle cx="369.7" cy="488.2" r="8" fill="#6366f1" />
    <circle cx="365.0" cy="523.6" r="8" fill="#3b82f6" />
    <circle cx="385.8" cy="8.2" r="8" fill="#3b82f6" />
    <circle cx="380.0" cy="28.8" r="8" fill="#3b82f6" />
    <circle cx="386.7" cy="47.2" r="8" fill="#3b82f6" />
    <circle cx="389.7" cy="82.9" r="8" fill="#6366f1" />
    <circle cx="382.3" cy="122.4" r="8" fill="#6366f1" />
    <circle cx="388.8" cy="149.8" r="8" fill="#6366f1" />
    <circle cx="388.8" cy="166.5" r="8" fill="#3b82f6" />
    <circle cx="385.0" cy="185.4" r="8" fill="#8b5cf6" />
    <circle cx="382.1" cy="203.5" r="8" fill="#6366f1" />
    <circle cx="383.6" cy="223.5" r="8" fill="#6366f1" />
    <circle cx="388.1" cy="240.7" r="8" fill="#3b82f6" />
    <circle cx="381.0" cy="266.2" r="8" fill="#8b5cf6" />
    <circle cx="386.3" cy="282.8" r="8" fill="#3b82f6" />
    <circle cx="389.4" cy="304.9" r="8" fill="#3b82f6" />
    <circle cx="386.1" cy="328.4" r="8" fill="#8b5cf6" />
    <circle cx="381.0" cy="342.6" r="8" fill="#6366f1" />
    <circle cx="384.8" cy="383.8" r="8" fill="#6366f1" />
    <circle cx="382.5" cy="409.7" r="8" fill="#6366f1" />
    <circle cx="389.3" cy="422.1" r="8" fill="#6366f1" />
    <circle cx="383.9" cy="442.4" r="8" fill="#3b82f6" />
    <circle cx="386.3" cy="486.9" r="8" fill="#8b5cf6" />
    <circle cx="381.3" cy="529.0" r="8" fill="#8b5cf6" />
    <circle cx="384.4" cy="548.0" r="8" fill="#3b82f6" /></g>
  <rect x="362.8" y="44.7" width="65.8" height="65.8" fill="#6366f1" opacity="0.31" />
    <circle cx="199.3" cy="176.0" r="44.2" fill="#6366f1" opacity="0.34" />
    <circle cx="337.5" cy="522.4" r="37.1" fill="#8b5cf6" opacity="0.23" />
    <circle cx="314.1" cy="81.2" r="38.2" fill="#6366f1" opacity="0.30" />
    <polygon points="399.0,329.3 440.4,412.2 357.5,412.2" fill="#3b82f6" opacity="0.17" />
    <polygon points="285.5,383.6 314.5,441.5 256.6,441.5" fill="#3b82f6" opacity="0.31" />
    <polygon points="5.8,323.2 16.6,334.0 5.8,344.8 -5.0,334.0" fill="#3b82f6" opacity="0.17" />
    <polygon points="392.3,310.7 427.0,345.5 392.3,380.3 357.5,345.5" fill="#8b5cf6" opacity="0.19" />
    <rect x="34.1" y="96.0" width="59.3" height="59.3" fill="#3b82f6" opacity="0.10" />
    <circle cx="359.8" cy="106.0" r="35.2" fill="#6366f1" opacity="0.22" />
    <circle cx="13.5" cy="302.0" r="49.4" fill="#8b5cf6" opacity="0.40" />
    <polygon points="170.9,164.9 207.3,201.4 170.9,237.8 134.5,201.4" fill="#6366f1" opacity="0.33" />
    <circle cx="335.9" cy="194.8" r="37.3" fill="#8b5cf6" opacity="0.35" />
    <circle cx="177.6" cy="435.0" r="23.8" fill="#3b82f6" opacity="0.37" />
  
  <!-- Text background banner -->
  <defs>
    <linearGradient id="text-bg-21" x1="0%" y1="0%" x2="100%" y2="0%">
      <stop offset="0%" style="stop-color:#000000;stop-opacity:0.7" />
      <stop offset="50%" style="stop-color:#3b82f6;stop-opacity:0.4" />
      <stop offset="100%" style="stop-color:#000000;stop-opacity:0.7" />
    </linearGradient>
  </defs>
  <rect x="0" y="494" width="400" height="56" fill="url(#text-bg-21)" />

  <!-- Text shadow -->
  <text x="200" y="522" font-family="system-ui, -apple-system, sans-serif" font-size="24" font-weight="bold" text-anchor="middle" fill="#000000" opacity="0.8">Thermostat Tyrant Tim</text>

  <!-- Main text -->
  <text x="200" y="520" font-family="system-ui, -apple-system, sans-serif" font-size="24" font-weight="bold" text-anchor="middle" fill="#ffffff">Thermostat Tyrant Tim</text>
  
  <!-- Rarity border -->
  <rect x="5" y="5" width="390" height="540"
        fill="none" stroke="#a855f7" stroke-width="10" rx="8" ry="8" />
</svg>