<?xml version="1.0" encoding="UTF-8"?>
<svg xmlns="http://www.w3.org/2000/svg" viewBox="0 0 400 550" width="400" height="550">
  <defs>
    <linearGradient id="bg-gradient-003" x1="0%" y1="0%" x2="100%" y2="100%">
      <stop offset="0%" style="stop-color:#ec4899;stop-opacity:0.26" />
      <stop offset="50%" style="stop-color:#f472b6;stop-opacity:0.4" />
      <stop offset="100%" style="stop-color:#ec4899;stop-opacity:0.26" />
    </linearGradient>
    
  <filter id="shadow-003">
    <feDropShadow dx="0" dy="2" stdDeviation="3" flood-opacity="0.8"/>
  </filter>
  </defs>
  <rect width="400" height="550" fill="url(#bg-gradient-0.7435961272567511)" />
  <g opacity="0.3"><rect x="285.0" y="353.1" width="58.5" height="58.5" fill="none" stroke="#8b5cf6" stroke-width="1.4" opacity="0.19" />
    <circle cx="118.6" cy="360.3" r="38.2" fill="none" stroke="#ec4899" stroke-width="1.3" opacity="0.20" />
    <rect x="34.1" y="308.7" width="42.2" height="42.2" fill="none" stroke="#f472b6" stroke-width="3.0" opacity="0.23" />
    <rect x="-21.4" y="190.4" width="62.8" height="62.8" fill="none" stroke="#8b5cf6" stroke-width="1.6" opacity="0.28" />
    <circle cx="274.7" cy="445.2" r="14.0" fill="none" stroke="#8b5cf6" stroke-width="2.2" opacity="0.13" /></g>
  <polygon points="231.5,428.1 281.2,477.8 231.5,527.6 181.7,477.8" fill="#ec4899" opacity="0.19" />
    <polygon points="97.6,289.1 132.9,324.4 97.6,359.7 62.3,324.4" fill="#f472b6" opacity="0.33" />
    <polygon points="204.7,272.0 238.7,306.0 204.7,339.9 170.7,306.0" fill="#ec4899" opacity="0.37" />
    <polygon points="306.9,68.5 342.4,139.5 271.3,139.5" fill="#f472b6" opacity="0.13" />
    <polygon points="239.7,274.2 288.6,323.0 239.7,371.9 190.8,323.0" fill="#f472b6" opacity="0.40" />
  
  <!-- Text background banner -->
  <defs>
    <linearGradient id="text-bg-25" x1="0%" y1="0%" x2="100%" y2="0%">
      <stop offset="0%" style="stop-color:#000000;stop-opacity:0.7" />
      <stop offset="50%" style="stop-color:#ec4899;stop-opacity:0.4" />
      <stop offset="100%" style="stop-color:#000000;stop-opacity:0.7" />
    </linearGradient>
  </defs>
  <rect x="0" y="494" width="400" height="56" fill="url(#text-bg-25)" />

  <!-- Text shadow -->
  <text x="200" y="522" font-family="system-ui, -apple-system, sans-serif" font-size="24" font-weight="bold" text-anchor="middle" fill="#000000" opacity="0.8">NATHAN THE NEW BALANCE...</text>

  <!-- Main text -->
  <text x="200" y="520" font-family="system-ui, -apple-system, sans-serif" font-size="24" font-weight="bold" text-anchor="middle" fill="#ffffff">NATHAN THE NEW BALANCE...</text>
  
  <!-- Rarity border -->
  <rect x="2" y="2" width="396" height="546"
        fill="none" stroke="#9ca3af" stroke-width="4" rx="8" ry="8" />
</svg>