<?xml version="1.0" encoding="UTF-8"?>
<svg xmlns="http://www.w3.org/2000/svg" viewBox="0 0 400 550" width="400" height="550">
  <defs>
    <linearGradient id="bg-gradient-005" x1="0%" y1="0%" x2="100%" y2="100%">
      <stop offset="0%" style="stop-color:#3b82f6;stop-opacity:0.26" />
      <stop offset="50%" style="stop-color:#6366f1;stop-opacity:0.4" />
      <stop offset="100%" style="stop-color:#3b82f6;stop-opacity:0.26" />
    </linearGradient>
    
  <filter id="shadow-005">
    <feDropShadow dx="0" dy="2" stdDeviation="3" flood-opacity="0.8"/>
  </filter>
  </defs>
  <rect width="400" height="550" fill="url(#bg-gradient-0.9692761804908514)" />
  <g opacity="0.3"><circle cx="6.1" cy="3.5" r="2" fill="#3b82f6" />
    <circle cx="8.2" cy="37.2" r="2" fill="#6366f1" />
    <circle cx="4.9" cy="77.0" r="2" fill="#8b5cf6" />
    <circle cx="1.5" cy="107.4" r="2" fill="#3b82f6" />
    <circle cx="0.4" cy="183.1" r="2" fill="#8b5cf6" />
    <circle cx="2.2" cy="246.2" r="2" fill="#3b82f6" />
    <circle cx="0.1" cy="281.3" r="2" fill="#6366f1" />
    <circle cx="3.4" cy="354.5" r="2" fill="#3b82f6" />
    <circle cx="8.3" cy="391.5" r="2" fill="#6366f1" />
    <circle cx="9.6" cy="428.9" r="2" fill="#3b82f6" />
    <circle cx="2.3" cy="460.7" r="2" fill="#8b5cf6" />
    <circle cx="9.1" cy="496.2" r="2" fill="#3b82f6" />
    <circle cx="8.3" cy="529.1" r="2" fill="#6366f1" />
    <circle cx="38.3" cy="39.8" r="2" fill="#3b82f6" />
    <circle cx="38.2" cy="74.3" r="2" fill="#3b82f6" />
    <circle cx="42.0" cy="113.6" r="2" fill="#3b82f6" />
    <circle cx="35.7" cy="142.3" r="2" fill="#8b5cf6" />
    <circle cx="43.3" cy="176.7" r="2" fill="#6366f1" />
    <circle cx="44.5" cy="215.1" r="2" fill="#3b82f6" />
    <circle cx="38.3" cy="253.6" r="2" fill="#6366f1" />
    <circle cx="36.3" cy="284.1" r="2" fill="#6366f1" />
    <circle cx="44.2" cy="317.0" r="2" fill="#8b5cf6" />
    <circle cx="37.2" cy="350.1" r="2" fill="#8b5cf6" />
    <circle cx="35.4" cy="459.6" r="2" fill="#3b82f6" />
    <circle cx="35.1" cy="493.3" r="2" fill="#8b5cf6" />
    <circle cx="37.7" cy="529.5" r="2" fill="#8b5cf6" />
    <circle cx="71.9" cy="3.2" r="2" fill="#8b5cf6" />
    <circle cx="74.3" cy="41.3" r="2" fill="#6366f1" />
    <circle cx="79.0" cy="71.5" r="2" fill="#6366f1" />
    <circle cx="71.2" cy="141.9" r="2" fill="#6366f1" />
    <circle cx="71.7" cy="176.9" r="2" fill="#6366f1" />
    <circle cx="78.4" cy="248.6" r="2" fill="#6366f1" />
    <circle cx="74.8" cy="282.1" r="2" fill="#3b82f6" />
    <circle cx="78.2" cy="322.1" r="2" fill="#8b5cf6" />
    <circle cx="71.8" cy="359.1" r="2" fill="#8b5cf6" />
    <circle cx="70.4" cy="394.4" r="2" fill="#3b82f6" />
    <circle cx="75.1" cy="428.0" r="2" fill="#8b5cf6" />
    <circle cx="71.2" cy="459.3" r="2" fill="#6366f1" />
    <circle cx="75.9" cy="492.2" r="2" fill="#6366f1" />
    <circle cx="73.0" cy="527.2" r="2" fill="#6366f1" />
    <circle cx="107.5" cy="8.1" r="2" fill="#6366f1" />
    <circle cx="107.1" cy="40.4" r="2" fill="#3b82f6" />
    <circle cx="105.4" cy="75.7" r="2" fill="#8b5cf6" />
    <circle cx="108.8" cy="218.6" r="2" fill="#6366f1" />
    <circle cx="112.1" cy="254.1" r="2" fill="#3b82f6" />
    <circle cx="108.7" cy="317.7" r="2" fill="#6366f1" />
    <circle cx="110.5" cy="355.6" r="2" fill="#6366f1" />
    <circle cx="111.8" cy="388.2" r="2" fill="#6366f1" />
    <circle cx="105.9" cy="422.9" r="2" fill="#3b82f6" />
    <circle cx="108.4" cy="464.9" r="2" fill="#8b5cf6" />
    <circle cx="106.1" cy="497.3" r="2" fill="#3b82f6" />
    <circle cx="140.5" cy="3.6" r="2" fill="#8b5cf6" />
    <circle cx="142.6" cy="39.0" r="2" fill="#6366f1" />
    <circle cx="141.0" cy="142.1" r="2" fill="#6366f1" />
    <circle cx="141.2" cy="183.5" r="2" fill="#8b5cf6" />
    <circle cx="146.0" cy="217.4" r="2" fill="#6366f1" />
    <circle cx="143.3" cy="247.6" r="2" fill="#6366f1" />
    <circle cx="140.3" cy="280.8" r="2" fill="#8b5cf6" />
    <circle cx="143.1" cy="324.2" r="2" fill="#3b82f6" />
    <circle cx="147.6" cy="356.0" r="2" fill="#8b5cf6" />
    <circle cx="142.1" cy="385.1" r="2" fill="#8b5cf6" />
    <circle cx="146.7" cy="424.3" r="2" fill="#6366f1" />
    <circle cx="140.6" cy="462.9" r="2" fill="#8b5cf6" />
    <circle cx="143.7" cy="494.5" r="2" fill="#6366f1" />
    <circle cx="179.9" cy="75.3" r="2" fill="#3b82f6" />
    <circle cx="182.4" cy="109.3" r="2" fill="#8b5cf6" />
    <circle cx="182.0" cy="145.9" r="2" fill="#6366f1" />
    <circle cx="179.0" cy="181.4" r="2" fill="#8b5cf6" />
    <circle cx="182.8" cy="215.5" r="2" fill="#8b5cf6" />
    <circle cx="179.1" cy="253.9" r="2" fill="#6366f1" />
    <circle cx="181.5" cy="284.5" r="2" fill="#8b5cf6" />
    <circle cx="175.2" cy="358.6" r="2" fill="#8b5cf6" />
    <circle cx="177.1" cy="496.5" r="2" fill="#6366f1" />
    <circle cx="176.2" cy="532.6" r="2" fill="#3b82f6" />
    <circle cx="218.1" cy="39.6" r="2" fill="#3b82f6" />
    <circle cx="218.2" cy="76.8" r="2" fill="#6366f1" />
    <circle cx="211.0" cy="141.4" r="2" fill="#8b5cf6" />
    <circle cx="216.9" cy="180.8" r="2" fill="#6366f1" />
    <circle cx="218.7" cy="217.6" r="2" fill="#3b82f6" />
    <circle cx="211.3" cy="288.5" r="2" fill="#6366f1" />
    <circle cx="211.3" cy="318.0" r="2" fill="#8b5cf6" />
    <circle cx="210.9" cy="352.4" r="2" fill="#3b82f6" />
    <circle cx="214.1" cy="391.6" r="2" fill="#8b5cf6" />
    <circle cx="213.4" cy="491.3" r="2" fill="#3b82f6" />
    <circle cx="217.7" cy="529.4" r="2" fill="#8b5cf6" />
    <circle cx="254.5" cy="109.0" r="2" fill="#8b5cf6" />
    <circle cx="251.6" cy="143.6" r="2" fill="#8b5cf6" />
    <circle cx="254.9" cy="217.3" r="2" fill="#8b5cf6" />
    <circle cx="246.0" cy="245.8" r="2" fill="#8b5cf6" />
    <circle cx="246.5" cy="289.3" r="2" fill="#6366f1" />
    <circle cx="247.3" cy="319.7" r="2" fill="#6366f1" />
    <circle cx="248.9" cy="353.7" r="2" fill="#8b5cf6" />
    <circle cx="247.7" cy="393.8" r="2" fill="#8b5cf6" />
    <circle cx="251.1" cy="463.6" r="2" fill="#6366f1" />
    <circle cx="253.6" cy="494.0" r="2" fill="#6366f1" />
    <circle cx="251.2" cy="525.2" r="2" fill="#3b82f6" />
    <circle cx="288.3" cy="0.1" r="2" fill="#6366f1" />
    <circle cx="281.4" cy="42.2" r="2" fill="#3b82f6" />
    <circle cx="287.0" cy="105.7" r="2" fill="#8b5cf6" />
    <circle cx="282.5" cy="144.2" r="2" fill="#3b82f6" />
    <circle cx="283.2" cy="179.8" r="2" fill="#8b5cf6" />
    <circle cx="288.2" cy="217.9" r="2" fill="#6366f1" />
    <circle cx="285.2" cy="254.7" r="2" fill="#8b5cf6" />
    <circle cx="289.8" cy="289.1" r="2" fill="#3b82f6" />
    <circle cx="280.0" cy="318.1" r="2" fill="#6366f1" />
    <circle cx="282.1" cy="391.5" r="2" fill="#3b82f6" />
    <circle cx="283.6" cy="462.5" r="2" fill="#6366f1" />
    <circle cx="288.5" cy="532.6" r="2" fill="#3b82f6" />
    <circle cx="318.7" cy="35.3" r="2" fill="#8b5cf6" />
    <circle cx="319.4" cy="72.2" r="2" fill="#6366f1" />
    <circle cx="322.4" cy="108.6" r="2" fill="#3b82f6" />
    <circle cx="315.5" cy="142.3" r="2" fill="#8b5cf6" />
    <circle cx="316.7" cy="219.8" r="2" fill="#3b82f6" />
    <circle cx="319.6" cy="250.2" r="2" fill="#6366f1" />
    <circle cx="324.3" cy="281.0" r="2" fill="#6366f1" />
    <circle cx="316.9" cy="318.4" r="2" fill="#3b82f6" />
    <circle cx="316.0" cy="355.8" r="2" fill="#8b5cf6" />
    <circle cx="316.3" cy="386.2" r="2" fill="#6366f1" />
    <circle cx="317.2" cy="421.1" r="2" fill="#8b5cf6" />
    <circle cx="350.0" cy="37.9" r="2" fill="#3b82f6" />
    <circle cx="352.0" cy="70.7" r="2" fill="#6366f1" />
    <circle cx="354.8" cy="112.9" r="2" fill="#6366f1" />
    <circle cx="351.5" cy="147.0" r="2" fill="#8b5cf6" />
    <circle cx="352.3" cy="184.8" r="2" fill="#3b82f6" />
    <circle cx="356.9" cy="215.3" r="2" fill="#3b82f6" />
    <circle cx="350.0" cy="245.6" r="2" fill="#8b5cf6" />
    <circle cx="353.1" cy="324.7" r="2" fill="#6366f1" />
    <circle cx="359.4" cy="464.4" r="2" fill="#8b5cf6" />
    <circle cx="350.9" cy="533.3" r="2" fill="#6366f1" />
    <circle cx="390.3" cy="8.8" r="2" fill="#3b82f6" />
    <circle cx="389.3" cy="78.9" r="2" fill="#6366f1" />
    <circle cx="393.8" cy="175.3" r="2" fill="#8b5cf6" />
    <circle cx="392.1" cy="212.6" r="2" fill="#3b82f6" />
    <circle cx="391.2" cy="250.8" r="2" fill="#3b82f6" />
    <circle cx="392.3" cy="284.7" r="2" fill="#8b5cf6" />
    <circle cx="386.4" cy="322.3" r="2" fill="#3b82f6" />
    <circle cx="391.3" cy="354.8" r="2" fill="#8b5cf6" />
    <circle cx="388.8" cy="385.2" r="2" fill="#6366f1" />
    <circle cx="395.0" cy="423.2" r="2" fill="#8b5cf6" />
    <circle cx="393.4" cy="493.6" r="2" fill="#6366f1" />
    <circle cx="385.3" cy="531.5" r="2" fill="#3b82f6" /></g>
  <polygon points="293.9,403.3 311.6,420.9 293.9,438.6 276.3,420.9" fill="#3b82f6" opacity="0.32" />
    <circle cx="161.5" cy="91.5" r="40.2" fill="#6366f1" opacity="0.25" />
    <polygon points="22.3,363.1 32.9,384.4 11.6,384.4" fill="#8b5cf6" opacity="0.32" />
    <rect x="-2.5" y="342.4" width="66.0" height="66.0" fill="#8b5cf6" opacity="0.35" />
    <rect x="353.4" y="9.5" width="33.8" height="33.8" fill="#3b82f6" opacity="0.20" />
  
  <!-- Text background banner -->
  <defs>
    <linearGradient id="text-bg-25" x1="0%" y1="0%" x2="100%" y2="0%">
      <stop offset="0%" style="stop-color:#000000;stop-opacity:0.7" />
      <stop offset="50%" style="stop-color:#3b82f6;stop-opacity:0.4" />
      <stop offset="100%" style="stop-color:#000000;stop-opacity:0.7" />
    </linearGradient>
  </defs>
  <rect x="0" y="494" width="400" height="56" fill="url(#text-bg-25)" />

  <!-- Text shadow -->
  <text x="200" y="522" font-family="system-ui, -apple-system, sans-serif" font-size="24" font-weight="bold" text-anchor="middle" fill="#000000" opacity="0.8">RANDY THE REMOTE RULER...</text>

  <!-- Main text -->
  <text x="200" y="520" font-family="system-ui, -apple-system, sans-serif" font-size="24" font-weight="bold" text-anchor="middle" fill="#ffffff">RANDY THE REMOTE RULER...</text>
  
  <!-- Rarity border -->
  <rect x="2" y="2" width="396" height="546"
        fill="none" stroke="#9ca3af" stroke-width="4" rx="8" ry="8" />
</svg>