<?xml version="1.0" encoding="UTF-8"?>
<svg xmlns="http://www.w3.org/2000/svg" viewBox="0 0 400 550" width="400" height="550">
  <defs>
    <linearGradient id="bg-gradient-006" x1="0%" y1="0%" x2="100%" y2="100%">
      <stop offset="0%" style="stop-color:#6366f1;stop-opacity:0.26" />
      <stop offset="50%" style="stop-color:#8b5cf6;stop-opacity:0.4" />
      <stop offset="100%" style="stop-color:#6366f1;stop-opacity:0.26" />
    </linearGradient>
    
  <filter id="shadow-006">
    <feDropShadow dx="0" dy="2" stdDeviation="3" flood-opacity="0.8"/>
  </filter>
  </defs>
  <rect width="400" height="550" fill="url(#bg-gradient-0.46326714055612683)" />
  <g opacity="0.3"><polyline points="0,233.6 5,234.2 10,234.8 15,235.4 20,236.0 25,236.6 30,237.1 35,237.7 40,238.3 45,238.8 50,239.3 55,239.8 60,240.3 65,240.8 70,241.3 75,241.7 80,242.1 85,242.5 90,242.8 95,243.2 100,243.5 105,243.8 110,244.0 115,244.2 120,244.4 125,244.6 130,244.7 135,244.8 140,244.9 145,244.9 150,244.9 155,244.9 160,244.8 165,244.7 170,244.6 175,244.5 180,244.3 185,244.1 190,243.8 195,243.5 200,243.2 205,242.9 210,242.6 215,242.2 220,241.8 225,241.3 230,240.9 235,240.4 240,239.9 245,239.4 250,238.9 255,238.4 260,237.8 265,237.2 270,236.7 275,236.1 280,235.5 285,234.9 290,234.3 295,233.7 300,233.1 305,232.5 310,231.9 315,231.3 320,230.7 325,230.1 330,229.5 335,228.9 340,228.4 345,227.8 350,227.3 355,226.8 360,226.3 365,225.8 370,225.4 375,224.9 380,224.5 385,224.1 390,223.8 395,223.4 400,223.1" fill="none" stroke="#8b5cf6" stroke-width="2.2" opacity="0.25" />
    <polyline points="0,87.6 5,85.0 10,82.4 15,79.8 20,77.2 25,74.7 30,72.1 35,69.6 40,67.2 45,64.9 50,62.7 55,60.6 60,58.6 65,56.7 70,55.0 75,53.5 80,52.1 85,50.9 90,49.9 95,49.0 100,48.4 105,47.9 110,47.7 115,47.6 120,47.8 125,48.2 130,48.7 135,49.5 140,50.4 145,51.6 150,52.9 155,54.4 160,56.0 165,57.8 170,59.7 175,61.8 180,64.0 185,66.3 190,68.6 195,71.1 200,73.6 205,76.2 210,78.8 215,81.4 220,84.0 225,86.5 230,89.1 235,91.6 240,94.0 245,96.4 250,98.7 255,100.8 260,102.9 265,104.8 270,106.6 275,108.2 280,109.6 285,110.9 290,112.0 295,112.9 300,113.6 305,114.2 310,114.5 315,114.6 320,114.6 325,114.3 330,113.8 335,113.1 340,112.3 345,111.2 350,110.0 355,108.5 360,107.0 365,105.2 370,103.4 375,101.3 380,99.2 385,97.0 390,94.6 395,92.2 400,89.7" fill="none" stroke="#fbbf24" stroke-width="2.5" opacity="0.28" />
    <polyline points="0,394.8 5,395.0 10,395.4 15,396.0 20,396.7 25,397.5 30,398.5 35,399.6 40,400.7 45,401.9 50,403.2 55,404.5 60,405.8 65,407.1 70,408.4 75,409.6 80,410.7 85,411.7 90,412.6 95,413.4 100,414.1 105,414.6 110,414.9 115,415.1 120,415.1 125,414.9 130,414.6 135,414.1 140,413.5 145,412.7 150,411.8 155,410.8 160,409.7 165,408.5 170,407.3 175,406.0 180,404.7 185,403.4 190,402.1 195,400.9 200,399.7 205,398.6 210,397.7 215,396.8 220,396.1 225,395.5 230,395.1 235,394.8 240,394.7 245,394.8 250,395.0 255,395.4 260,396.0 265,396.7 270,397.5 275,398.5 280,399.6 285,400.7 290,401.9 295,403.2 300,404.5 305,405.8 310,407.1 315,408.4 320,409.6 325,410.7 330,411.7 335,412.6 340,413.4 345,414.1 350,414.6 355,414.9 360,415.1 365,415.1 370,414.9 375,414.6 380,414.1 385,413.5 390,412.7 395,411.8 400,410.8" fill="none" stroke="#fbbf24" stroke-width="2.9" opacity="0.13" />
    <polyline points="0,233.8 5,232.3 10,230.8 15,229.2 20,227.7 25,226.1 30,224.6 35,223.0 40,221.4 45,219.9 50,218.3 55,216.8 60,215.3 65,213.9 70,212.4 75,211.0 80,209.7 85,208.4 90,207.1 95,205.9 100,204.8 105,203.7 110,202.7 115,201.7 120,200.9 125,200.1 130,199.4 135,198.7 140,198.2 145,197.7 150,197.4 155,197.1 160,196.9 165,196.8 170,196.8 175,196.8 180,197.0 185,197.3 190,197.6 195,198.0 200,198.5 205,199.1 210,199.8 215,200.6 220,201.4 225,202.3 230,203.3 235,204.4 240,205.5 245,206.7 250,207.9 255,209.2 260,210.6 265,211.9 270,213.4 275,214.8 280,216.3 285,217.8 290,219.4 295,220.9 300,222.5 305,224.0 310,225.6 315,227.2 320,228.7 325,230.3 330,231.8 335,233.3 340,234.7 345,236.1 350,237.5 355,238.9 360,240.1 365,241.4 370,242.6 375,243.7 380,244.7 385,245.7 390,246.6 395,247.4 400,248.2" fill="none" stroke="#fbbf24" stroke-width="1.5" opacity="0.10" />
    <polyline points="0,284.8 5,281.4 10,277.6 15,273.5 20,269.0 25,264.4 30,259.6 35,254.9 40,250.2 45,245.7 50,241.5 55,237.6 60,234.1 65,231.1 70,228.7 75,226.9 80,225.7 85,225.2 90,225.3 95,226.1 100,227.5 105,229.6 110,232.3 115,235.5 120,239.1 125,243.1 130,247.5 135,252.1 140,256.8 145,261.6 150,266.3 155,270.8 160,275.2 165,279.2 170,282.8 175,286.0 180,288.6 185,290.7 190,292.1 195,292.9 200,293.0 205,292.4 210,291.2 215,289.3 220,286.9 225,283.9 230,280.4 235,276.5 240,272.2 245,267.7 250,263.0 255,258.3 260,253.5 265,248.9 270,244.5 275,240.3 280,236.5 285,233.2 290,230.4 295,228.1 300,226.5 305,225.5 310,225.1 315,225.5 320,226.4 325,228.1 330,230.3 335,233.1 340,236.5 345,240.2 350,244.4 355,248.8 360,253.4 365,258.2 370,262.9 375,267.6 380,272.1 385,276.4 390,280.3 395,283.8 400,286.8" fill="none" stroke="#6366f1" stroke-width="1.2" opacity="0.27" />
    <polyline points="0,136.1 5,134.1 10,132.4 15,130.8 20,129.4 25,128.2 30,127.2 35,126.4 40,125.9 45,125.6 50,125.6 55,125.8 60,126.2 65,126.9 70,127.8 75,128.9 80,130.3 85,131.8 90,133.5 95,135.4 100,137.4 105,139.6 110,141.8 115,144.2 120,146.6 125,149.0 130,151.5 135,154.0 140,156.4 145,158.8 150,161.0 155,163.2 160,165.3 165,167.2 170,169.0 175,170.6 180,172.0 185,173.2 190,174.2 195,174.9 200,175.4 205,175.7 210,175.8 215,175.6 220,175.1 225,174.4 230,173.5 235,172.4 240,171.1 245,169.5 250,167.8 255,165.9 260,163.9 265,161.7 270,159.5 275,157.1 280,154.7 285,152.3 290,149.8 295,147.4 300,144.9 305,142.6 310,140.3 315,138.1 320,136.0 325,134.1 330,132.3 335,130.7 340,129.3 345,128.1 350,127.2 355,126.4 360,125.9 365,125.6 370,125.6 375,125.8 380,126.2 385,126.9 390,127.8 395,129.0 400,130.3" fill="none" stroke="#fbbf24" stroke-width="2.4" opacity="0.26" /></g>
  <circle cx="142.7" cy="443.3" r="14.3" fill="#fbbf24" opacity="0.17" />
    <rect x="307.0" y="72.2" width="77.0" height="77.0" fill="#fbbf24" opacity="0.25" />
    <rect x="112.4" y="35.5" width="49.9" height="49.9" fill="#fbbf24" opacity="0.29" />
    <circle cx="299.1" cy="36.6" r="32.9" fill="#8b5cf6" opacity="0.30" />
    <circle cx="175.7" cy="407.5" r="22.1" fill="#8b5cf6" opacity="0.22" />
    <circle cx="333.4" cy="527.5" r="45.7" fill="#6366f1" opacity="0.11" />
    <circle cx="26.6" cy="450.2" r="31.8" fill="#8b5cf6" opacity="0.23" />
    <rect x="355.4" y="164.2" width="46.3" height="46.3" fill="#fbbf24" opacity="0.10" />
  
  <!-- Text background banner -->
  <defs>
    <linearGradient id="text-bg-25" x1="0%" y1="0%" x2="100%" y2="0%">
      <stop offset="0%" style="stop-color:#000000;stop-opacity:0.7" />
      <stop offset="50%" style="stop-color:#6366f1;stop-opacity:0.4" />
      <stop offset="100%" style="stop-color:#000000;stop-opacity:0.7" />
    </linearGradient>
  </defs>
  <rect x="0" y="494" width="400" height="56" fill="url(#text-bg-25)" />

  <!-- Text shadow -->
  <text x="200" y="522" font-family="system-ui, -apple-system, sans-serif" font-size="24" font-weight="bold" text-anchor="middle" fill="#000000" opacity="0.8">Handyman Hank the Home...</text>

  <!-- Main text -->
  <text x="200" y="520" font-family="system-ui, -apple-system, sans-serif" font-size="24" font-weight="bold" text-anchor="middle" fill="#ffffff">Handyman Hank the Home...</text>
  
  <!-- Rarity border -->
  <rect x="3" y="3" width="394" height="544"
        fill="none" stroke="#3b82f6" stroke-width="6" rx="8" ry="8" />
</svg>