<?xml version="1.0" encoding="UTF-8"?>
<svg xmlns="http://www.w3.org/2000/svg" viewBox="0 0 400 550" width="400" height="550">
  <defs>
    <linearGradient id="bg-gradient-008" x1="0%" y1="0%" x2="100%" y2="100%">
      <stop offset="0%" style="stop-color:#ef4444;stop-opacity:0.26" />
      <stop offset="50%" style="stop-color:#f97316;stop-opacity:0.4" />
      <stop offset="100%" style="stop-color:#ef4444;stop-opacity:0.26" />
    </linearGradient>
    
  <filter id="shadow-008">
    <feDropShadow dx="0" dy="2" stdDeviation="3" flood-opacity="0.8"/>
  </filter>
  </defs>
  <rect width="400" height="550" fill="url(#bg-gradient-0.6223005149513483)" />
  <g opacity="0.3"><line x1="235.5" y1="0" x2="235.5" y2="550" stroke="#f97316" stroke-width="1.6" opacity="0.18" />
    <line x1="181.9" y1="0" x2="181.9" y2="550" stroke="#ef4444" stroke-width="1.1" opacity="0.29" />
    <line x1="0" y1="103.6" x2="400" y2="103.6" stroke="#f97316" stroke-width="1.2" opacity="0.16" />
    <line x1="0" y1="257.6" x2="400" y2="257.6" stroke="#fbbf24" stroke-width="1.6" opacity="0.22" />
    <line x1="0" y1="144.5" x2="400" y2="144.5" stroke="#fbbf24" stroke-width="1.2" opacity="0.36" />
    <line x1="161.8" y1="0" x2="161.8" y2="550" stroke="#fbbf24" stroke-width="1.6" opacity="0.32" />
    <line x1="362.7" y1="0" x2="362.7" y2="550" stroke="#fbbf24" stroke-width="3.1" opacity="0.23" />
    <line x1="0" y1="275.5" x2="400" y2="275.5" stroke="#ef4444" stroke-width="2.8" opacity="0.39" />
    <line x1="0" y1="350.7" x2="400" y2="350.7" stroke="#f97316" stroke-width="3.0" opacity="0.15" />
    <line x1="0" y1="438.1" x2="400" y2="438.1" stroke="#fbbf24" stroke-width="1.3" opacity="0.11" />
    <line x1="0" y1="319.7" x2="400" y2="319.7" stroke="#f97316" stroke-width="2.0" opacity="0.10" />
    <line x1="0" y1="475.3" x2="400" y2="475.3" stroke="#ef4444" stroke-width="2.8" opacity="0.29" />
    <line x1="0" y1="231.8" x2="400" y2="231.8" stroke="#f97316" stroke-width="1.2" opacity="0.12" />
    <line x1="298.0" y1="0" x2="298.0" y2="550" stroke="#ef4444" stroke-width="3.7" opacity="0.11" />
    <line x1="0" y1="356.9" x2="400" y2="356.9" stroke="#fbbf24" stroke-width="1.7" opacity="0.13" />
    <line x1="0" y1="380.6" x2="400" y2="380.6" stroke="#f97316" stroke-width="2.2" opacity="0.31" />
    <line x1="0" y1="201.6" x2="400" y2="201.6" stroke="#fbbf24" stroke-width="3.2" opacity="0.10" />
    <line x1="0" y1="121.4" x2="400" y2="121.4" stroke="#f97316" stroke-width="2.1" opacity="0.19" />
    <line x1="0" y1="312.4" x2="400" y2="312.4" stroke="#f97316" stroke-width="2.1" opacity="0.19" />
    <line x1="101.4" y1="0" x2="101.4" y2="550" stroke="#f97316" stroke-width="3.9" opacity="0.17" /></g>
  <circle cx="327.9" cy="549.8" r="18.3" fill="#f97316" opacity="0.36" />
    <rect x="38.4" y="437.8" width="31.2" height="31.2" fill="#ef4444" opacity="0.12" />
    <rect x="366.2" y="375.5" width="38.5" height="38.5" fill="#ef4444" opacity="0.16" />
    <polygon points="277.8,47.6 306.8,105.7 248.8,105.7" fill="#f97316" opacity="0.31" />
    <circle cx="103.3" cy="152.4" r="39.0" fill="#ef4444" opacity="0.39" />
    <polygon points="285.9,167.3 334.9,265.3 236.9,265.3" fill="#ef4444" opacity="0.36" />
    <polygon points="148.0,240.5 185.6,278.1 148.0,315.6 110.4,278.1" fill="#fbbf24" opacity="0.39" />
    <polygon points="207.4,271.6 233.1,297.4 207.4,323.1 181.7,297.4" fill="#fbbf24" opacity="0.18" />
    <rect x="335.9" y="52.2" width="21.3" height="21.3" fill="#f97316" opacity="0.24" />
    <circle cx="291.2" cy="536.8" r="49.7" fill="#fbbf24" opacity="0.28" />
    <circle cx="28.8" cy="514.4" r="26.5" fill="#f97316" opacity="0.37" />
  
  <!-- Text background banner -->
  <defs>
    <linearGradient id="text-bg-24" x1="0%" y1="0%" x2="100%" y2="0%">
      <stop offset="0%" style="stop-color:#000000;stop-opacity:0.7" />
      <stop offset="50%" style="stop-color:#ef4444;stop-opacity:0.4" />
      <stop offset="100%" style="stop-color:#000000;stop-opacity:0.7" />
    </linearGradient>
  </defs>
  <rect x="0" y="494" width="400" height="56" fill="url(#text-bg-24)" />

  <!-- Text shadow -->
  <text x="200" y="522" font-family="system-ui, -apple-system, sans-serif" font-size="24" font-weight="bold" text-anchor="middle" fill="#000000" opacity="0.8">Smoker Steve Meat-Masher</text>

  <!-- Main text -->
  <text x="200" y="520" font-family="system-ui, -apple-system, sans-serif" font-size="24" font-weight="bold" text-anchor="middle" fill="#ffffff">Smoker Steve Meat-Masher</text>
  
  <!-- Rarity border -->
  <rect x="4" y="4" width="392" height="542"
        fill="none" stroke="#eab308" stroke-width="8" rx="8" ry="8" />
</svg>