<?xml version="1.0" encoding="UTF-8"?>
<svg xmlns="http://www.w3.org/2000/svg" viewBox="0 0 400 550" width="400" height="550">
  <defs>
    <linearGradient id="bg-gradient-009" x1="0%" y1="0%" x2="100%" y2="100%">
      <stop offset="0%" style="stop-color:#64748b;stop-opacity:0.26" />
      <stop offset="50%" style="stop-color:#94a3b8;stop-opacity:0.4" />
      <stop offset="100%" style="stop-color:#64748b;stop-opacity:0.26" />
    </linearGradient>
    
  <filter id="shadow-009">
    <feDropShadow dx="0" dy="2" stdDeviation="3" flood-opacity="0.8"/>
  </filter>
  </defs>
  <rect width="400" height="550" fill="url(#bg-gradient-0.8024848757777363)" />
  <g opacity="0.3"><line x1="217.8" y1="0" x2="217.8" y2="550" stroke="#94a3b8" stroke-width="1.5" opacity="0.38" />
    <line x1="73.8" y1="0" x2="73.8" y2="550" stroke="#ef4444" stroke-width="1.3" opacity="0.14" />
    <line x1="0" y1="373.1" x2="400" y2="373.1" stroke="#ef4444" stroke-width="1.4" opacity="0.11" />
    <line x1="0" y1="477.6" x2="400" y2="477.6" stroke="#ef4444" stroke-width="3.7" opacity="0.21" />
    <line x1="271.5" y1="0" x2="271.5" y2="550" stroke="#94a3b8" stroke-width="1.3" opacity="0.18" />
    <line x1="0" y1="215.5" x2="400" y2="215.5" stroke="#ef4444" stroke-width="1.5" opacity="0.36" />
    <line x1="217.4" y1="0" x2="217.4" y2="550" stroke="#64748b" stroke-width="2.3" opacity="0.11" />
    <line x1="197.4" y1="0" x2="197.4" y2="550" stroke="#64748b" stroke-width="3.5" opacity="0.32" />
    <line x1="0" y1="390.1" x2="400" y2="390.1" stroke="#64748b" stroke-width="2.2" opacity="0.31" />
    <line x1="165.7" y1="0" x2="165.7" y2="550" stroke="#ef4444" stroke-width="3.1" opacity="0.24" /></g>
  <polygon points="169.1,312.1 183.8,326.8 169.1,341.5 154.4,326.8" fill="#ef4444" opacity="0.20" />
    <rect x="353.4" y="-11.5" width="90.2" height="90.2" fill="#ef4444" opacity="0.17" />
    <polygon points="288.2,255.7 305.8,273.3 288.2,290.8 270.7,273.3" fill="#94a3b8" opacity="0.22" />
    <rect x="237.4" y="472.6" width="51.7" height="51.7" fill="#64748b" opacity="0.30" />
    <polygon points="196.9,352.0 241.4,440.9 152.4,440.9" fill="#94a3b8" opacity="0.23" />
  
  <!-- Text background banner -->
  <defs>
    <linearGradient id="text-bg-16" x1="0%" y1="0%" x2="100%" y2="0%">
      <stop offset="0%" style="stop-color:#000000;stop-opacity:0.7" />
      <stop offset="50%" style="stop-color:#64748b;stop-opacity:0.4" />
      <stop offset="100%" style="stop-color:#000000;stop-opacity:0.7" />
    </linearGradient>
  </defs>
  <rect x="0" y="494" width="400" height="56" fill="url(#text-bg-16)" />

  <!-- Text shadow -->
  <text x="200" y="522" font-family="system-ui, -apple-system, sans-serif" font-size="24" font-weight="bold" text-anchor="middle" fill="#000000" opacity="0.8">Oil Change Oscar</text>

  <!-- Main text -->
  <text x="200" y="520" font-family="system-ui, -apple-system, sans-serif" font-size="24" font-weight="bold" text-anchor="middle" fill="#ffffff">Oil Change Oscar</text>
  
  <!-- Rarity border -->
  <rect x="2" y="2" width="396" height="546"
        fill="none" stroke="#9ca3af" stroke-width="4" rx="8" ry="8" />
</svg>