<?xml version="1.0" encoding="UTF-8"?>
<svg xmlns="http://www.w3.org/2000/svg" viewBox="0 0 400 550" width="400" height="550">
  <defs>
    <linearGradient id="bg-gradient-010" x1="0%" y1="0%" x2="100%" y2="100%">
      <stop offset="0%" style="stop-color:#6366f1;stop-opacity:0.26" />
      <stop offset="50%" style="stop-color:#8b5cf6;stop-opacity:0.4" />
      <stop offset="100%" style="stop-color:#6366f1;stop-opacity:0.26" />
    </linearGradient>
    
  <filter id="shadow-010">
    <feDropShadow dx="0" dy="2" stdDeviation="3" flood-opacity="0.8"/>
  </filter>
  </defs>
  <rect width="400" height="550" fill="url(#bg-gradient-0.24115741671994328)" />
  <g opacity="0.3"><line x1="0" y1="319.9" x2="400" y2="319.9" stroke="#8b5cf6" stroke-width="3.1" opacity="0.15" />
    <line x1="282.4" y1="0" x2="282.4" y2="550" stroke="#6366f1" stroke-width="3.3" opacity="0.17" />
    <line x1="59.1" y1="0" x2="59.1" y2="550" stroke="#6366f1" stroke-width="2.2" opacity="0.39" />
    <line x1="0" y1="305.3" x2="400" y2="305.3" stroke="#ec4899" stroke-width="1.8" opacity="0.26" />
    <line x1="325.5" y1="0" x2="325.5" y2="550" stroke="#8b5cf6" stroke-width="2.8" opacity="0.15" />
    <line x1="0" y1="536.0" x2="400" y2="536.0" stroke="#ec4899" stroke-width="3.5" opacity="0.30" />
    <line x1="0" y1="288.8" x2="400" y2="288.8" stroke="#ec4899" stroke-width="2.9" opacity="0.36" />
    <line x1="64.7" y1="0" x2="64.7" y2="550" stroke="#8b5cf6" stroke-width="1.0" opacity="0.24" />
    <line x1="0" y1="191.4" x2="400" y2="191.4" stroke="#8b5cf6" stroke-width="4.0" opacity="0.19" />
    <line x1="233.7" y1="0" x2="233.7" y2="550" stroke="#ec4899" stroke-width="3.5" opacity="0.20" /></g>
  <polygon points="329.1,450.1 372.8,493.8 329.1,537.4 285.5,493.8" fill="#8b5cf6" opacity="0.39" />
    <rect x="73.8" y="263.2" width="88.7" height="88.7" fill="#ec4899" opacity="0.26" />
    <rect x="-18.8" y="-38.1" width="82.3" height="82.3" fill="#6366f1" opacity="0.24" />
    <circle cx="265.8" cy="402.3" r="25.3" fill="#6366f1" opacity="0.30" />
    <polygon points="326.1,86.3 350.5,135.2 301.6,135.2" fill="#ec4899" opacity="0.28" />
  
  <!-- Text background banner -->
  <defs>
    <linearGradient id="text-bg-16" x1="0%" y1="0%" x2="100%" y2="0%">
      <stop offset="0%" style="stop-color:#000000;stop-opacity:0.7" />
      <stop offset="50%" style="stop-color:#6366f1;stop-opacity:0.4" />
      <stop offset="100%" style="stop-color:#000000;stop-opacity:0.7" />
    </linearGradient>
  </defs>
  <rect x="0" y="494" width="400" height="56" fill="url(#text-bg-16)" />

  <!-- Text shadow -->
  <text x="200" y="522" font-family="system-ui, -apple-system, sans-serif" font-size="24" font-weight="bold" text-anchor="middle" fill="#000000" opacity="0.8">TPS Report Terry</text>

  <!-- Main text -->
  <text x="200" y="520" font-family="system-ui, -apple-system, sans-serif" font-size="24" font-weight="bold" text-anchor="middle" fill="#ffffff">TPS Report Terry</text>
  
  <!-- Rarity border -->
  <rect x="2" y="2" width="396" height="546"
        fill="none" stroke="#9ca3af" stroke-width="4" rx="8" ry="8" />
</svg>