<?xml version="1.0" encoding="UTF-8"?>
<svg xmlns="http://www.w3.org/2000/svg" viewBox="0 0 400 550" width="400" height="550">
  <defs>
    <linearGradient id="bg-gradient-011" x1="0%" y1="0%" x2="100%" y2="100%">
      <stop offset="0%" style="stop-color:#64748b;stop-opacity:0.26" />
      <stop offset="50%" style="stop-color:#94a3b8;stop-opacity:0.4" />
      <stop offset="100%" style="stop-color:#64748b;stop-opacity:0.26" />
    </linearGradient>
    
  <filter id="shadow-011">
    <feDropShadow dx="0" dy="2" stdDeviation="3" flood-opacity="0.8"/>
  </filter>
  </defs>
  <rect width="400" height="550" fill="url(#bg-gradient-0.6941114633809775)" />
  <g opacity="0.3"><line x1="92.3" y1="0" x2="92.3" y2="550" stroke="#64748b" stroke-width="3.8" opacity="0.39" />
    <line x1="207.2" y1="0" x2="207.2" y2="550" stroke="#fbbf24" stroke-width="2.0" opacity="0.20" />
    <line x1="166.6" y1="0" x2="166.6" y2="550" stroke="#64748b" stroke-width="2.4" opacity="0.20" />
    <line x1="0" y1="461.2" x2="400" y2="461.2" stroke="#64748b" stroke-width="3.2" opacity="0.38" />
    <line x1="64.9" y1="0" x2="64.9" y2="550" stroke="#64748b" stroke-width="1.7" opacity="0.30" />
    <line x1="0" y1="253.3" x2="400" y2="253.3" stroke="#94a3b8" stroke-width="1.6" opacity="0.29" />
    <line x1="0" y1="213.7" x2="400" y2="213.7" stroke="#94a3b8" stroke-width="3.0" opacity="0.11" />
    <line x1="215.5" y1="0" x2="215.5" y2="550" stroke="#64748b" stroke-width="2.4" opacity="0.27" />
    <line x1="300.3" y1="0" x2="300.3" y2="550" stroke="#64748b" stroke-width="3.2" opacity="0.32" />
    <line x1="218.0" y1="0" x2="218.0" y2="550" stroke="#64748b" stroke-width="3.6" opacity="0.23" />
    <line x1="188.2" y1="0" x2="188.2" y2="550" stroke="#64748b" stroke-width="3.6" opacity="0.11" />
    <line x1="0" y1="331.4" x2="400" y2="331.4" stroke="#fbbf24" stroke-width="2.1" opacity="0.39" />
    <line x1="332.3" y1="0" x2="332.3" y2="550" stroke="#64748b" stroke-width="2.1" opacity="0.34" />
    <line x1="0" y1="125.3" x2="400" y2="125.3" stroke="#fbbf24" stroke-width="3.4" opacity="0.36" />
    <line x1="0" y1="404.7" x2="400" y2="404.7" stroke="#fbbf24" stroke-width="3.9" opacity="0.28" />
    <line x1="0" y1="420.4" x2="400" y2="420.4" stroke="#94a3b8" stroke-width="1.0" opacity="0.37" />
    <line x1="13.8" y1="0" x2="13.8" y2="550" stroke="#64748b" stroke-width="2.9" opacity="0.17" />
    <line x1="251.4" y1="0" x2="251.4" y2="550" stroke="#64748b" stroke-width="2.2" opacity="0.23" />
    <line x1="0" y1="32.0" x2="400" y2="32.0" stroke="#fbbf24" stroke-width="2.1" opacity="0.26" />
    <line x1="311.6" y1="0" x2="311.6" y2="550" stroke="#94a3b8" stroke-width="2.3" opacity="0.14" /></g>
  <circle cx="110.1" cy="85.8" r="16.3" fill="#64748b" opacity="0.22" />
    <rect x="157.6" y="436.0" width="43.2" height="43.2" fill="#64748b" opacity="0.33" />
    <circle cx="232.8" cy="178.3" r="30.1" fill="#64748b" opacity="0.28" />
    <polygon points="234.7,363.6 254.7,403.5 214.8,403.5" fill="#94a3b8" opacity="0.13" />
    <polygon points="131.2,154.3 165.4,188.5 131.2,222.7 96.9,188.5" fill="#64748b" opacity="0.19" />
    <polygon points="275.1,100.9 302.3,155.3 247.9,155.3" fill="#94a3b8" opacity="0.33" />
    <circle cx="396.3" cy="508.9" r="49.7" fill="#64748b" opacity="0.30" />
    <polygon points="320.2,184.6 360.6,225.0 320.2,265.4 279.9,225.0" fill="#fbbf24" opacity="0.16" />
    <polygon points="267.2,403.9 307.8,444.6 267.2,485.2 226.5,444.6" fill="#64748b" opacity="0.12" />
    <rect x="188.6" y="376.3" width="56.7" height="56.7" fill="#fbbf24" opacity="0.30" />
    <polygon points="63.8,270.1 83.3,309.1 44.3,309.1" fill="#64748b" opacity="0.20" />
  
  <!-- Text background banner -->
  <defs>
    <linearGradient id="text-bg-25" x1="0%" y1="0%" x2="100%" y2="0%">
      <stop offset="0%" style="stop-color:#000000;stop-opacity:0.7" />
      <stop offset="50%" style="stop-color:#64748b;stop-opacity:0.4" />
      <stop offset="100%" style="stop-color:#000000;stop-opacity:0.7" />
    </linearGradient>
  </defs>
  <rect x="0" y="494" width="400" height="56" fill="url(#text-bg-25)" />

  <!-- Text shadow -->
  <text x="200" y="522" font-family="system-ui, -apple-system, sans-serif" font-size="24" font-weight="bold" text-anchor="middle" fill="#000000" opacity="0.8">Cool Ass Clint Crypto-...</text>

  <!-- Main text -->
  <text x="200" y="520" font-family="system-ui, -apple-system, sans-serif" font-size="24" font-weight="bold" text-anchor="middle" fill="#ffffff">Cool Ass Clint Crypto-...</text>
  
  <!-- Rarity border -->
  <rect x="4" y="4" width="392" height="542"
        fill="none" stroke="#eab308" stroke-width="8" rx="8" ry="8" />
</svg>