<?xml version="1.0" encoding="UTF-8"?>
<svg xmlns="http://www.w3.org/2000/svg" viewBox="0 0 400 550" width="400" height="550">
  <defs>
    <linearGradient id="bg-gradient-011" x1="0%" y1="0%" x2="100%" y2="100%">
      <stop offset="0%" style="stop-color:#8b5cf6;stop-opacity:0.26" />
      <stop offset="50%" style="stop-color:#ec4899;stop-opacity:0.4" />
      <stop offset="100%" style="stop-color:#8b5cf6;stop-opacity:0.26" />
    </linearGradient>
    
  <filter id="shadow-011">
    <feDropShadow dx="0" dy="2" stdDeviation="3" flood-opacity="0.8"/>
  </filter>
  </defs>
  <rect width="400" height="550" fill="url(#bg-gradient-0.6941114633809775)" />
  <g opacity="0.3"><line x1="92.3" y1="0" x2="92.3" y2="550" stroke="#8b5cf6" stroke-width="3.8" opacity="0.39" />
    <line x1="207.2" y1="0" x2="207.2" y2="550" stroke="#f97316" stroke-width="2.0" opacity="0.20" />
    <line x1="166.6" y1="0" x2="166.6" y2="550" stroke="#8b5cf6" stroke-width="2.4" opacity="0.20" />
    <line x1="0" y1="461.2" x2="400" y2="461.2" stroke="#8b5cf6" stroke-width="3.2" opacity="0.38" />
    <line x1="64.9" y1="0" x2="64.9" y2="550" stroke="#8b5cf6" stroke-width="1.7" opacity="0.30" />
    <line x1="0" y1="253.3" x2="400" y2="253.3" stroke="#ec4899" stroke-width="1.6" opacity="0.29" />
    <line x1="0" y1="213.7" x2="400" y2="213.7" stroke="#ec4899" stroke-width="3.0" opacity="0.11" />
    <line x1="215.5" y1="0" x2="215.5" y2="550" stroke="#8b5cf6" stroke-width="2.4" opacity="0.27" />
    <line x1="300.3" y1="0" x2="300.3" y2="550" stroke="#8b5cf6" stroke-width="3.2" opacity="0.32" />
    <line x1="218.0" y1="0" x2="218.0" y2="550" stroke="#8b5cf6" stroke-width="3.6" opacity="0.23" />
    <line x1="188.2" y1="0" x2="188.2" y2="550" stroke="#8b5cf6" stroke-width="3.6" opacity="0.11" />
    <line x1="0" y1="331.4" x2="400" y2="331.4" stroke="#f97316" stroke-width="2.1" opacity="0.39" />
    <line x1="332.3" y1="0" x2="332.3" y2="550" stroke="#8b5cf6" stroke-width="2.1" opacity="0.34" />
    <line x1="0" y1="125.3" x2="400" y2="125.3" stroke="#f97316" stroke-width="3.4" opacity="0.36" />
    <line x1="0" y1="404.7" x2="400" y2="404.7" stroke="#f97316" stroke-width="3.9" opacity="0.28" /></g>
  <polygon points="215.9,-44.9 261.7,0.8 215.9,46.6 170.2,0.8" fill="#f97316" opacity="0.12" />
    <circle cx="248.8" cy="129.2" r="15.4" fill="#8b5cf6" opacity="0.22" />
    <polygon points="179.0,-33.1 214.2,2.0 179.0,37.2 143.9,2.0" fill="#ec4899" opacity="0.26" />
    <rect x="361.9" y="-0.5" width="65.1" height="65.1" fill="#8b5cf6" opacity="0.23" />
    <circle cx="311.6" cy="151.4" r="16.2" fill="#8b5cf6" opacity="0.16" />
    <rect x="119.4" y="203.1" width="86.6" height="86.6" fill="#8b5cf6" opacity="0.10" />
    <polygon points="307.3,297.2 330.3,343.1 284.4,343.1" fill="#8b5cf6" opacity="0.13" />
    <circle cx="236.1" cy="322.7" r="37.9" fill="#ec4899" opacity="0.25" />
  
  <!-- Text background banner -->
  <defs>
    <linearGradient id="text-bg-16" x1="0%" y1="0%" x2="100%" y2="0%">
      <stop offset="0%" style="stop-color:#000000;stop-opacity:0.7" />
      <stop offset="50%" style="stop-color:#8b5cf6;stop-opacity:0.4" />
      <stop offset="100%" style="stop-color:#000000;stop-opacity:0.7" />
    </linearGradient>
  </defs>
  <rect x="0" y="494" width="400" height="56" fill="url(#text-bg-16)" />

  <!-- Text shadow -->
  <text x="200" y="522" font-family="system-ui, -apple-system, sans-serif" font-size="24" font-weight="bold" text-anchor="middle" fill="#000000" opacity="0.8">Skateboard Scott</text>

  <!-- Main text -->
  <text x="200" y="520" font-family="system-ui, -apple-system, sans-serif" font-size="24" font-weight="bold" text-anchor="middle" fill="#ffffff">Skateboard Scott</text>
  
  <!-- Rarity border -->
  <rect x="3" y="3" width="394" height="544"
        fill="none" stroke="#3b82f6" stroke-width="6" rx="8" ry="8" />
</svg>