<?xml version="1.0" encoding="UTF-8"?>
<svg xmlns="http://www.w3.org/2000/svg" viewBox="0 0 400 550" width="400" height="550">
  <defs>
    <linearGradient id="bg-gradient-012" x1="0%" y1="0%" x2="100%" y2="100%">
      <stop offset="0%" style="stop-color:#f97316;stop-opacity:0.26" />
      <stop offset="50%" style="stop-color:#ef4444;stop-opacity:0.4" />
      <stop offset="100%" style="stop-color:#f97316;stop-opacity:0.26" />
    </linearGradient>
    
  <filter id="shadow-012">
    <feDropShadow dx="0" dy="2" stdDeviation="3" flood-opacity="0.8"/>
  </filter>
  </defs>
  <rect width="400" height="550" fill="url(#bg-gradient-0.7609502815175802)" />
  <g opacity="0.3"><circle cx="8.6" cy="7.0" r="2" fill="#f97316" />
    <circle cx="9.1" cy="35.2" r="2" fill="#fbbf24" />
    <circle cx="9.8" cy="107.8" r="2" fill="#fbbf24" />
    <circle cx="8.2" cy="145.3" r="2" fill="#ef4444" />
    <circle cx="3.5" cy="180.0" r="2" fill="#fbbf24" />
    <circle cx="5.1" cy="249.2" r="2" fill="#f97316" />
    <circle cx="8.2" cy="281.7" r="2" fill="#f97316" />
    <circle cx="6.1" cy="317.7" r="2" fill="#fbbf24" />
    <circle cx="0.8" cy="357.1" r="2" fill="#fbbf24" />
    <circle cx="9.1" cy="428.7" r="2" fill="#f97316" />
    <circle cx="2.7" cy="460.8" r="2" fill="#f97316" />
    <circle cx="6.1" cy="525.8" r="2" fill="#fbbf24" />
    <circle cx="42.9" cy="6.6" r="2" fill="#fbbf24" />
    <circle cx="35.6" cy="38.1" r="2" fill="#f97316" />
    <circle cx="42.0" cy="72.6" r="2" fill="#f97316" />
    <circle cx="41.1" cy="141.3" r="2" fill="#fbbf24" />
    <circle cx="44.1" cy="176.7" r="2" fill="#f97316" />
    <circle cx="41.7" cy="213.1" r="2" fill="#f97316" />
    <circle cx="35.1" cy="247.7" r="2" fill="#fbbf24" />
    <circle cx="44.8" cy="283.0" r="2" fill="#fbbf24" />
    <circle cx="42.6" cy="315.0" r="2" fill="#f97316" />
    <circle cx="41.1" cy="356.6" r="2" fill="#f97316" />
    <circle cx="36.5" cy="390.1" r="2" fill="#fbbf24" />
    <circle cx="35.4" cy="459.7" r="2" fill="#f97316" />
    <circle cx="37.4" cy="525.3" r="2" fill="#f97316" />
    <circle cx="79.6" cy="6.0" r="2" fill="#fbbf24" />
    <circle cx="70.1" cy="39.3" r="2" fill="#fbbf24" />
    <circle cx="74.7" cy="73.2" r="2" fill="#ef4444" />
    <circle cx="76.1" cy="112.5" r="2" fill="#f97316" />
    <circle cx="70.1" cy="175.0" r="2" fill="#f97316" />
    <circle cx="73.2" cy="246.1" r="2" fill="#f97316" />
    <circle cx="74.5" cy="281.5" r="2" fill="#ef4444" />
    <circle cx="78.4" cy="323.9" r="2" fill="#f97316" />
    <circle cx="72.4" cy="350.8" r="2" fill="#ef4444" />
    <circle cx="72.6" cy="389.7" r="2" fill="#f97316" />
    <circle cx="72.6" cy="420.6" r="2" fill="#ef4444" />
    <circle cx="76.4" cy="498.1" r="2" fill="#fbbf24" />
    <circle cx="106.2" cy="3.1" r="2" fill="#ef4444" />
    <circle cx="110.1" cy="43.8" r="2" fill="#fbbf24" />
    <circle cx="106.6" cy="72.7" r="2" fill="#fbbf24" />
    <circle cx="111.4" cy="109.2" r="2" fill="#ef4444" />
    <circle cx="114.0" cy="184.4" r="2" fill="#ef4444" />
    <circle cx="105.5" cy="219.4" r="2" fill="#fbbf24" />
    <circle cx="109.7" cy="254.2" r="2" fill="#f97316" />
    <circle cx="106.3" cy="354.6" r="2" fill="#fbbf24" />
    <circle cx="112.4" cy="389.3" r="2" fill="#ef4444" />
    <circle cx="112.8" cy="422.8" r="2" fill="#fbbf24" />
    <circle cx="146.3" cy="147.1" r="2" fill="#f97316" />
    <circle cx="140.3" cy="178.8" r="2" fill="#ef4444" />
    <circle cx="142.9" cy="249.7" r="2" fill="#ef4444" />
    <circle cx="145.7" cy="282.9" r="2" fill="#ef4444" />
    <circle cx="147.0" cy="317.4" r="2" fill="#fbbf24" />
    <circle cx="142.1" cy="386.3" r="2" fill="#ef4444" />
    <circle cx="141.0" cy="427.0" r="2" fill="#f97316" />
    <circle cx="149.6" cy="458.0" r="2" fill="#ef4444" />
    <circle cx="147.0" cy="531.7" r="2" fill="#ef4444" />
    <circle cx="177.0" cy="9.0" r="2" fill="#fbbf24" />
    <circle cx="178.1" cy="73.6" r="2" fill="#ef4444" />
    <circle cx="180.0" cy="143.7" r="2" fill="#fbbf24" />
    <circle cx="176.6" cy="216.2" r="2" fill="#ef4444" />
    <circle cx="181.5" cy="281.4" r="2" fill="#f97316" />
    <circle cx="177.8" cy="315.0" r="2" fill="#fbbf24" />
    <circle cx="181.4" cy="390.1" r="2" fill="#ef4444" />
    <circle cx="175.4" cy="460.7" r="2" fill="#f97316" />
    <circle cx="181.4" cy="496.5" r="2" fill="#ef4444" />
    <circle cx="214.4" cy="2.5" r="2" fill="#f97316" />
    <circle cx="211.2" cy="37.7" r="2" fill="#f97316" />
    <circle cx="213.2" cy="78.0" r="2" fill="#ef4444" />
    <circle cx="218.3" cy="105.5" r="2" fill="#f97316" />
    <circle cx="212.9" cy="144.3" r="2" fill="#f97316" />
    <circle cx="213.4" cy="217.0" r="2" fill="#fbbf24" />
    <circle cx="219.8" cy="248.0" r="2" fill="#f97316" />
    <circle cx="212.7" cy="285.8" r="2" fill="#f97316" />
    <circle cx="219.0" cy="323.9" r="2" fill="#fbbf24" />
    <circle cx="212.9" cy="351.9" r="2" fill="#ef4444" />
    <circle cx="217.1" cy="388.2" r="2" fill="#f97316" />
    <circle cx="211.7" cy="423.3" r="2" fill="#fbbf24" />
    <circle cx="216.3" cy="499.9" r="2" fill="#fbbf24" />
    <circle cx="214.3" cy="532.7" r="2" fill="#fbbf24" />
    <circle cx="245.0" cy="9.9" r="2" fill="#f97316" />
    <circle cx="252.9" cy="35.4" r="2" fill="#ef4444" />
    <circle cx="251.9" cy="78.7" r="2" fill="#f97316" />
    <circle cx="246.9" cy="111.8" r="2" fill="#ef4444" />
    <circle cx="246.4" cy="149.8" r="2" fill="#ef4444" />
    <circle cx="251.0" cy="177.3" r="2" fill="#ef4444" />
    <circle cx="250.2" cy="215.2" r="2" fill="#fbbf24" />
    <circle cx="247.6" cy="250.4" r="2" fill="#f97316" />
    <circle cx="245.6" cy="320.0" r="2" fill="#ef4444" />
    <circle cx="249.5" cy="352.2" r="2" fill="#ef4444" />
    <circle cx="248.7" cy="535.0" r="2" fill="#fbbf24" />
    <circle cx="284.4" cy="1.5" r="2" fill="#f97316" />
    <circle cx="282.5" cy="35.9" r="2" fill="#ef4444" />
    <circle cx="280.6" cy="80.0" r="2" fill="#f97316" />
    <circle cx="288.4" cy="114.6" r="2" fill="#f97316" />
    <circle cx="283.4" cy="142.0" r="2" fill="#fbbf24" />
    <circle cx="285.7" cy="211.5" r="2" fill="#ef4444" />
    <circle cx="284.1" cy="253.4" r="2" fill="#fbbf24" />
    <circle cx="280.4" cy="281.2" r="2" fill="#f97316" />
    <circle cx="282.4" cy="354.9" r="2" fill="#fbbf24" />
    <circle cx="284.8" cy="464.5" r="2" fill="#fbbf24" />
    <circle cx="319.5" cy="4.8" r="2" fill="#fbbf24" />
    <circle cx="322.8" cy="110.6" r="2" fill="#fbbf24" />
    <circle cx="322.8" cy="141.1" r="2" fill="#fbbf24" />
    <circle cx="318.0" cy="177.7" r="2" fill="#ef4444" />
    <circle cx="323.6" cy="213.9" r="2" fill="#ef4444" />
    <circle cx="324.5" cy="253.2" r="2" fill="#fbbf24" />
    <circle cx="316.1" cy="356.5" r="2" fill="#ef4444" />
    <circle cx="321.8" cy="425.4" r="2" fill="#f97316" />
    <circle cx="316.8" cy="459.9" r="2" fill="#ef4444" />
    <circle cx="324.6" cy="493.3" r="2" fill="#fbbf24" />
    <circle cx="352.5" cy="79.1" r="2" fill="#f97316" />
    <circle cx="357.8" cy="108.7" r="2" fill="#ef4444" />
    <circle cx="357.2" cy="148.3" r="2" fill="#f97316" />
    <circle cx="356.9" cy="214.3" r="2" fill="#f97316" />
    <circle cx="350.4" cy="249.1" r="2" fill="#f97316" />
    <circle cx="357.3" cy="316.2" r="2" fill="#ef4444" />
    <circle cx="355.1" cy="423.3" r="2" fill="#ef4444" />
    <circle cx="352.7" cy="464.9" r="2" fill="#f97316" />
    <circle cx="355.8" cy="534.4" r="2" fill="#fbbf24" />
    <circle cx="394.3" cy="35.9" r="2" fill="#f97316" />
    <circle cx="385.3" cy="78.1" r="2" fill="#ef4444" />
    <circle cx="389.1" cy="109.1" r="2" fill="#fbbf24" />
    <circle cx="392.8" cy="247.2" r="2" fill="#ef4444" />
    <circle cx="387.4" cy="287.2" r="2" fill="#f97316" />
    <circle cx="389.2" cy="323.0" r="2" fill="#ef4444" />
    <circle cx="387.2" cy="385.4" r="2" fill="#f97316" />
    <circle cx="393.0" cy="422.9" r="2" fill="#ef4444" />
    <circle cx="394.4" cy="457.9" r="2" fill="#fbbf24" />
    <circle cx="387.6" cy="492.8" r="2" fill="#fbbf24" /></g>
  <polygon points="320.3,94.0 333.4,120.2 307.2,120.2" fill="#f97316" opacity="0.30" />
    <polygon points="166.0,45.9 203.2,83.0 166.0,120.2 128.8,83.0" fill="#fbbf24" opacity="0.39" />
    <polygon points="243.2,514.8 267.3,562.9 219.2,562.9" fill="#fbbf24" opacity="0.19" />
    <rect x="250.6" y="147.2" width="78.7" height="78.7" fill="#f97316" opacity="0.24" />
    <polygon points="12.8,34.2 48.7,70.1 12.8,106.1 -23.2,70.1" fill="#f97316" opacity="0.21" />
  
  <!-- Text background banner -->
  <defs>
    <linearGradient id="text-bg-11" x1="0%" y1="0%" x2="100%" y2="0%">
      <stop offset="0%" style="stop-color:#000000;stop-opacity:0.7" />
      <stop offset="50%" style="stop-color:#f97316;stop-opacity:0.4" />
      <stop offset="100%" style="stop-color:#000000;stop-opacity:0.7" />
    </linearGradient>
  </defs>
  <rect x="0" y="494" width="400" height="56" fill="url(#text-bg-11)" />

  <!-- Text shadow -->
  <text x="200" y="522" font-family="system-ui, -apple-system, sans-serif" font-size="24" font-weight="bold" text-anchor="middle" fill="#000000" opacity="0.8">Soccer Stan</text>

  <!-- Main text -->
  <text x="200" y="520" font-family="system-ui, -apple-system, sans-serif" font-size="24" font-weight="bold" text-anchor="middle" fill="#ffffff">Soccer Stan</text>
  
  <!-- Rarity border -->
  <rect x="2" y="2" width="396" height="546"
        fill="none" stroke="#9ca3af" stroke-width="4" rx="8" ry="8" />
</svg>