<?xml version="1.0" encoding="UTF-8"?>
<svg xmlns="http://www.w3.org/2000/svg" viewBox="0 0 400 550" width="400" height="550">
  <defs>
    <linearGradient id="bg-gradient-013" x1="0%" y1="0%" x2="100%" y2="100%">
      <stop offset="0%" style="stop-color:#ffffff;stop-opacity:0.26" />
      <stop offset="50%" style="stop-color:#fbbf24;stop-opacity:0.4" />
      <stop offset="100%" style="stop-color:#ffffff;stop-opacity:0.26" />
    </linearGradient>
    
  <filter id="shadow-013">
    <feDropShadow dx="0" dy="2" stdDeviation="3" flood-opacity="0.8"/>
  </filter>
  </defs>
  <rect width="400" height="550" fill="url(#bg-gradient-0.6941338533069938)" />
  <g opacity="0.3"><rect x="299.6" y="222.9" width="76.9" height="76.9" fill="none" stroke="#ef4444" stroke-width="1.9" opacity="0.16" />
    <rect x="240.6" y="269.4" width="23.3" height="23.3" fill="none" stroke="#ef4444" stroke-width="1.9" opacity="0.20" />
    <rect x="123.2" y="248.4" width="71.2" height="71.2" fill="none" stroke="#fbbf24" stroke-width="2.6" opacity="0.16" />
    <rect x="25.1" y="34.1" width="75.0" height="75.0" fill="none" stroke="#ffffff" stroke-width="1.2" opacity="0.17" />
    <circle cx="80.0" cy="327.1" r="11.2" fill="none" stroke="#fbbf24" stroke-width="2.2" opacity="0.19" />
    <circle cx="35.8" cy="338.8" r="11.8" fill="none" stroke="#fbbf24" stroke-width="2.4" opacity="0.19" />
    <rect x="130.9" y="461.3" width="38.6" height="38.6" fill="none" stroke="#ffffff" stroke-width="2.2" opacity="0.12" />
    <rect x="127.6" y="48.0" width="34.0" height="34.0" fill="none" stroke="#ef4444" stroke-width="1.7" opacity="0.29" />
    <rect x="307.0" y="253.7" width="57.8" height="57.8" fill="none" stroke="#ef4444" stroke-width="2.9" opacity="0.27" /></g>
  <polygon points="205.8,355.0 227.1,397.5 184.6,397.5" fill="#ef4444" opacity="0.36" />
    <polygon points="183.7,-19.8 226.3,65.5 141.1,65.5" fill="#ffffff" opacity="0.19" />
    <polygon points="81.1,131.5 113.7,196.7 48.5,196.7" fill="#ef4444" opacity="0.19" />
    <circle cx="31.7" cy="507.9" r="28.4" fill="#ffffff" opacity="0.33" />
    <circle cx="262.9" cy="301.9" r="19.3" fill="#ef4444" opacity="0.20" />
    <polygon points="242.8,487.2 281.5,525.9 242.8,564.6 204.1,525.9" fill="#fbbf24" opacity="0.38" />
    <circle cx="393.5" cy="238.9" r="39.1" fill="#ffffff" opacity="0.26" />
    <polygon points="42.6,301.2 89.6,395.2 -4.5,395.2" fill="#fbbf24" opacity="0.23" />
    <polygon points="62.2,474.2 103.3,515.4 62.2,556.5 21.0,515.4" fill="#fbbf24" opacity="0.35" />
    <circle cx="389.3" cy="181.4" r="30.6" fill="#ffffff" opacity="0.37" />
    <rect x="33.0" y="248.7" width="74.6" height="74.6" fill="#fbbf24" opacity="0.21" />
  
  <!-- Text background banner -->
  <defs>
    <linearGradient id="text-bg-18" x1="0%" y1="0%" x2="100%" y2="0%">
      <stop offset="0%" style="stop-color:#000000;stop-opacity:0.7" />
      <stop offset="50%" style="stop-color:#ffffff;stop-opacity:0.4" />
      <stop offset="100%" style="stop-color:#000000;stop-opacity:0.7" />
    </linearGradient>
  </defs>
  <rect x="0" y="494" width="400" height="56" fill="url(#text-bg-18)" />

  <!-- Text shadow -->
  <text x="200" y="522" font-family="system-ui, -apple-system, sans-serif" font-size="24" font-weight="bold" text-anchor="middle" fill="#000000" opacity="0.8">Secret Recipe Rick</text>

  <!-- Main text -->
  <text x="200" y="520" font-family="system-ui, -apple-system, sans-serif" font-size="24" font-weight="bold" text-anchor="middle" fill="#ffffff">Secret Recipe Rick</text>
  
  <!-- Rarity border -->
  <rect x="4" y="4" width="392" height="542"
        fill="none" stroke="#eab308" stroke-width="8" rx="8" ry="8" />
</svg>