<?xml version="1.0" encoding="UTF-8"?>
<svg xmlns="http://www.w3.org/2000/svg" viewBox="0 0 400 550" width="400" height="550">
  <defs>
    <linearGradient id="bg-gradient-014" x1="0%" y1="0%" x2="100%" y2="100%">
      <stop offset="0%" style="stop-color:#64748b;stop-opacity:0.26" />
      <stop offset="50%" style="stop-color:#94a3b8;stop-opacity:0.4" />
      <stop offset="100%" style="stop-color:#64748b;stop-opacity:0.26" />
    </linearGradient>
    
  <filter id="shadow-014">
    <feDropShadow dx="0" dy="2" stdDeviation="3" flood-opacity="0.8"/>
  </filter>
  </defs>
  <rect width="400" height="550" fill="url(#bg-gradient-0.16698568151332438)" />
  <g opacity="0.3"><line x1="0" y1="236.0" x2="400" y2="236.0" stroke="#64748b" stroke-width="2.4" opacity="0.28" />
    <line x1="260.3" y1="0" x2="260.3" y2="550" stroke="#fbbf24" stroke-width="2.0" opacity="0.13" />
    <line x1="41.1" y1="0" x2="41.1" y2="550" stroke="#64748b" stroke-width="3.8" opacity="0.14" />
    <line x1="109.0" y1="0" x2="109.0" y2="550" stroke="#64748b" stroke-width="1.5" opacity="0.22" />
    <line x1="0" y1="190.5" x2="400" y2="190.5" stroke="#fbbf24" stroke-width="3.7" opacity="0.15" />
    <line x1="0" y1="114.2" x2="400" y2="114.2" stroke="#fbbf24" stroke-width="2.0" opacity="0.39" />
    <line x1="0" y1="289.0" x2="400" y2="289.0" stroke="#fbbf24" stroke-width="3.8" opacity="0.19" />
    <line x1="0" y1="309.1" x2="400" y2="309.1" stroke="#64748b" stroke-width="2.4" opacity="0.37" />
    <line x1="0" y1="54.6" x2="400" y2="54.6" stroke="#64748b" stroke-width="2.1" opacity="0.28" />
    <line x1="0" y1="253.1" x2="400" y2="253.1" stroke="#fbbf24" stroke-width="2.7" opacity="0.27" />
    <line x1="0" y1="97.2" x2="400" y2="97.2" stroke="#94a3b8" stroke-width="3.6" opacity="0.24" />
    <line x1="0" y1="500.2" x2="400" y2="500.2" stroke="#fbbf24" stroke-width="1.1" opacity="0.35" />
    <line x1="392.4" y1="0" x2="392.4" y2="550" stroke="#fbbf24" stroke-width="2.1" opacity="0.15" />
    <line x1="11.2" y1="0" x2="11.2" y2="550" stroke="#64748b" stroke-width="1.3" opacity="0.21" />
    <line x1="60.9" y1="0" x2="60.9" y2="550" stroke="#64748b" stroke-width="1.0" opacity="0.27" /></g>
  <polygon points="341.8,259.6 373.1,290.9 341.8,322.3 310.5,290.9" fill="#94a3b8" opacity="0.25" />
    <polygon points="177.8,290.3 208.1,350.9 147.5,350.9" fill="#fbbf24" opacity="0.36" />
    <rect x="41.6" y="191.4" width="53.2" height="53.2" fill="#64748b" opacity="0.25" />
    <rect x="-28.7" y="464.4" width="83.3" height="83.3" fill="#64748b" opacity="0.22" />
    <polygon points="280.9,152.4 298.0,186.6 263.8,186.6" fill="#94a3b8" opacity="0.36" />
    <circle cx="319.5" cy="382.5" r="19.9" fill="#94a3b8" opacity="0.17" />
    <polygon points="336.1,470.8 356.8,491.5 336.1,512.2 315.3,491.5" fill="#fbbf24" opacity="0.31" />
    <polygon points="274.8,168.4 286.1,179.7 274.8,191.1 263.4,179.7" fill="#94a3b8" opacity="0.39" />
  
  <!-- Text background banner -->
  <defs>
    <linearGradient id="text-bg-25" x1="0%" y1="0%" x2="100%" y2="0%">
      <stop offset="0%" style="stop-color:#000000;stop-opacity:0.7" />
      <stop offset="50%" style="stop-color:#64748b;stop-opacity:0.4" />
      <stop offset="100%" style="stop-color:#000000;stop-opacity:0.7" />
    </linearGradient>
  </defs>
  <rect x="0" y="494" width="400" height="56" fill="url(#text-bg-25)" />

  <!-- Text shadow -->
  <text x="200" y="522" font-family="system-ui, -apple-system, sans-serif" font-size="24" font-weight="bold" text-anchor="middle" fill="#000000" opacity="0.8">Holiday Hank the Tacky...</text>

  <!-- Main text -->
  <text x="200" y="520" font-family="system-ui, -apple-system, sans-serif" font-size="24" font-weight="bold" text-anchor="middle" fill="#ffffff">Holiday Hank the Tacky...</text>
  
  <!-- Rarity border -->
  <rect x="3" y="3" width="394" height="544"
        fill="none" stroke="#3b82f6" stroke-width="6" rx="8" ry="8" />
</svg>