<?xml version="1.0" encoding="UTF-8"?>
<svg xmlns="http://www.w3.org/2000/svg" viewBox="0 0 400 550" width="400" height="550">
  <defs>
    <linearGradient id="bg-gradient-015" x1="0%" y1="0%" x2="100%" y2="100%">
      <stop offset="0%" style="stop-color:#64748b;stop-opacity:0.26" />
      <stop offset="50%" style="stop-color:#94a3b8;stop-opacity:0.4" />
      <stop offset="100%" style="stop-color:#64748b;stop-opacity:0.26" />
    </linearGradient>
    
  <filter id="shadow-015">
    <feDropShadow dx="0" dy="2" stdDeviation="3" flood-opacity="0.8"/>
  </filter>
  </defs>
  <rect width="400" height="550" fill="url(#bg-gradient-0.40749013260938227)" />
  <g opacity="0.3"><line x1="393.2" y1="0" x2="393.2" y2="550" stroke="#64748b" stroke-width="1.8" opacity="0.37" />
    <line x1="322.7" y1="0" x2="322.7" y2="550" stroke="#fbbf24" stroke-width="3.9" opacity="0.18" />
    <line x1="121.6" y1="0" x2="121.6" y2="550" stroke="#fbbf24" stroke-width="3.1" opacity="0.24" />
    <line x1="66.5" y1="0" x2="66.5" y2="550" stroke="#64748b" stroke-width="1.8" opacity="0.22" />
    <line x1="0" y1="350.9" x2="400" y2="350.9" stroke="#fbbf24" stroke-width="2.3" opacity="0.18" />
    <line x1="55.0" y1="0" x2="55.0" y2="550" stroke="#94a3b8" stroke-width="2.9" opacity="0.28" />
    <line x1="0" y1="31.4" x2="400" y2="31.4" stroke="#fbbf24" stroke-width="4.0" opacity="0.22" />
    <line x1="0" y1="290.6" x2="400" y2="290.6" stroke="#64748b" stroke-width="2.8" opacity="0.34" />
    <line x1="0" y1="416.8" x2="400" y2="416.8" stroke="#64748b" stroke-width="1.2" opacity="0.25" />
    <line x1="0" y1="83.4" x2="400" y2="83.4" stroke="#fbbf24" stroke-width="3.4" opacity="0.22" />
    <line x1="345.4" y1="0" x2="345.4" y2="550" stroke="#fbbf24" stroke-width="1.3" opacity="0.21" />
    <line x1="0" y1="59.3" x2="400" y2="59.3" stroke="#fbbf24" stroke-width="3.9" opacity="0.13" />
    <line x1="0" y1="373.3" x2="400" y2="373.3" stroke="#64748b" stroke-width="3.8" opacity="0.35" />
    <line x1="0" y1="230.8" x2="400" y2="230.8" stroke="#fbbf24" stroke-width="2.6" opacity="0.37" />
    <line x1="0" y1="505.9" x2="400" y2="505.9" stroke="#94a3b8" stroke-width="3.5" opacity="0.14" />
    <line x1="0" y1="361.4" x2="400" y2="361.4" stroke="#fbbf24" stroke-width="2.3" opacity="0.17" />
    <line x1="183.8" y1="0" x2="183.8" y2="550" stroke="#94a3b8" stroke-width="2.9" opacity="0.23" />
    <line x1="34.7" y1="0" x2="34.7" y2="550" stroke="#fbbf24" stroke-width="2.6" opacity="0.18" />
    <line x1="0" y1="454.6" x2="400" y2="454.6" stroke="#64748b" stroke-width="2.3" opacity="0.11" />
    <line x1="228.3" y1="0" x2="228.3" y2="550" stroke="#fbbf24" stroke-width="1.1" opacity="0.36" /></g>
  <polygon points="348.5,381.0 397.7,479.4 299.3,479.4" fill="#94a3b8" opacity="0.18" />
    <polygon points="275.4,86.6 285.8,107.5 264.9,107.5" fill="#64748b" opacity="0.28" />
    <rect x="255.1" y="276.9" width="37.7" height="37.7" fill="#94a3b8" opacity="0.18" />
    <polygon points="179.2,330.3 197.3,366.4 161.2,366.4" fill="#64748b" opacity="0.19" />
    <polygon points="157.7,270.9 178.8,292.0 157.7,313.1 136.6,292.0" fill="#94a3b8" opacity="0.20" />
    <rect x="249.4" y="254.5" width="31.1" height="31.1" fill="#64748b" opacity="0.10" />
    <polygon points="257.1,33.0 290.7,100.2 223.5,100.2" fill="#fbbf24" opacity="0.34" />
    <polygon points="16.1,30.9 54.8,108.4 -22.6,108.4" fill="#64748b" opacity="0.27" />
    <rect x="179.2" y="164.8" width="63.7" height="63.7" fill="#94a3b8" opacity="0.15" />
    <polygon points="101.4,236.5 143.1,278.2 101.4,319.9 59.6,278.2" fill="#fbbf24" opacity="0.33" />
    <polygon points="260.4,49.2 303.5,92.4 260.4,135.5 217.2,92.4" fill="#fbbf24" opacity="0.22" />
  
  <!-- Text background banner -->
  <defs>
    <linearGradient id="text-bg-25" x1="0%" y1="0%" x2="100%" y2="0%">
      <stop offset="0%" style="stop-color:#000000;stop-opacity:0.7" />
      <stop offset="50%" style="stop-color:#64748b;stop-opacity:0.4" />
      <stop offset="100%" style="stop-color:#000000;stop-opacity:0.7" />
    </linearGradient>
  </defs>
  <rect x="0" y="494" width="400" height="56" fill="url(#text-bg-25)" />

  <!-- Text shadow -->
  <text x="200" y="522" font-family="system-ui, -apple-system, sans-serif" font-size="24" font-weight="bold" text-anchor="middle" fill="#000000" opacity="0.8">Warehouse Willy the In...</text>

  <!-- Main text -->
  <text x="200" y="520" font-family="system-ui, -apple-system, sans-serif" font-size="24" font-weight="bold" text-anchor="middle" fill="#ffffff">Warehouse Willy the In...</text>
  
  <!-- Rarity border -->
  <rect x="4" y="4" width="392" height="542"
        fill="none" stroke="#eab308" stroke-width="8" rx="8" ry="8" />
</svg>