<?xml version="1.0" encoding="UTF-8"?>
<svg xmlns="http://www.w3.org/2000/svg" viewBox="0 0 400 550" width="400" height="550">
  <defs>
    <linearGradient id="bg-gradient-017" x1="0%" y1="0%" x2="100%" y2="100%">
      <stop offset="0%" style="stop-color:#64748b;stop-opacity:0.26" />
      <stop offset="50%" style="stop-color:#94a3b8;stop-opacity:0.4" />
      <stop offset="100%" style="stop-color:#64748b;stop-opacity:0.26" />
    </linearGradient>
    
  <filter id="shadow-017">
    <feDropShadow dx="0" dy="2" stdDeviation="3" flood-opacity="0.8"/>
  </filter>
  </defs>
  <rect width="400" height="550" fill="url(#bg-gradient-0.33892081840895116)" />
  <g opacity="0.3"><polyline points="0,132.3 5,133.2 10,134.2 15,135.4 20,136.7 25,138.1 30,139.6 35,141.2 40,142.8 45,144.5 50,146.2 55,147.9 60,149.7 65,151.4 70,153.0 75,154.6 80,156.1 85,157.5 90,158.9 95,160.1 100,161.1 105,162.1 110,162.8 115,163.4 120,163.9 125,164.2 130,164.3 135,164.2 140,164.0 145,163.5 150,163.0 155,162.2 160,161.3 165,160.3 170,159.1 175,157.8 180,156.4 185,154.9 190,153.3 195,151.7 200,150.0 205,148.3 210,146.5 215,144.8 220,143.1 225,141.5 230,139.9 235,138.4 240,136.9 245,135.6 250,134.4 255,133.4 260,132.4 265,131.7 270,131.1 275,130.6 280,130.3 285,130.2 290,130.3 295,130.6 300,131.0 305,131.6 310,132.3 315,133.2 320,134.3 325,135.5 330,136.8 335,138.2 340,139.7 345,141.2 350,142.9 355,144.6 360,146.3 365,148.0 370,149.7 375,151.4 380,153.1 385,154.7 390,156.2 395,157.6 400,158.9" fill="none" stroke="#fbbf24" stroke-width="1.5" opacity="0.27" />
    <polyline points="0,138.4 5,138.5 10,138.5 15,138.3 20,138.1 25,137.8 30,137.4 35,136.9 40,136.3 45,135.7 50,134.9 55,134.1 60,133.2 65,132.2 70,131.1 75,130.0 80,128.8 85,127.5 90,126.2 95,124.8 100,123.4 105,121.9 110,120.4 115,118.9 120,117.3 125,115.7 130,114.1 135,112.5 140,110.8 145,109.2 150,107.6 155,105.9 160,104.3 165,102.7 170,101.2 175,99.6 180,98.1 185,96.7 190,95.3 195,93.9 200,92.6 205,91.4 210,90.2 215,89.1 220,88.0 225,87.0 230,86.1 235,85.3 240,84.6 245,83.9 250,83.4 255,82.9 260,82.5 265,82.3 270,82.1 275,82.0 280,82.0 285,82.1 290,82.2 295,82.5 300,82.9 305,83.4 310,83.9 315,84.6 320,85.3 325,86.1 330,87.0 335,88.0 340,89.0 345,90.1 350,91.3 355,92.5 360,93.9 365,95.2 370,96.6 375,98.1 380,99.6 385,101.1 390,102.7 395,104.3 400,105.9" fill="none" stroke="#94a3b8" stroke-width="2.1" opacity="0.23" />
    <polyline points="0,56.5 5,56.1 10,56.0 15,55.9 20,55.9 25,56.1 30,56.4 35,56.8 40,57.4 45,58.0 50,58.8 55,59.6 60,60.6 65,61.7 70,62.9 75,64.1 80,65.5 85,66.9 90,68.4 95,69.9 100,71.5 105,73.2 110,74.9 115,76.6 120,78.3 125,80.1 130,81.9 135,83.6 140,85.4 145,87.1 150,88.9 155,90.6 160,92.2 165,93.8 170,95.3 175,96.8 180,98.2 185,99.5 190,100.8 195,101.9 200,103.0 205,103.9 210,104.8 215,105.5 220,106.2 225,106.7 230,107.1 235,107.4 240,107.5 245,107.6 250,107.5 255,107.3 260,106.9 265,106.5 270,105.9 275,105.2 280,104.4 285,103.6 290,102.6 295,101.5 300,100.3 305,99.0 310,97.6 315,96.2 320,94.7 325,93.1 330,91.5 335,89.8 340,88.1 345,86.4 350,84.7 355,82.9 360,81.1 365,79.3 370,77.6 375,75.8 380,74.1 385,72.4 390,70.8 395,69.2 400,67.7" fill="none" stroke="#64748b" stroke-width="1.6" opacity="0.11" />
    <polyline points="0,327.4 5,326.4 10,325.3 15,324.2 20,322.9 25,321.5 30,320.1 35,318.6 40,317.0 45,315.4 50,313.7 55,312.0 60,310.2 65,308.4 70,306.6 75,304.8 80,303.0 85,301.1 90,299.3 95,297.6 100,295.8 105,294.1 110,292.4 115,290.8 120,289.3 125,287.8 130,286.4 135,285.1 140,283.9 145,282.7 150,281.7 155,280.8 160,279.9 165,279.2 170,278.6 175,278.2 180,277.8 185,277.6 190,277.4 195,277.5 200,277.6 205,277.8 210,278.2 215,278.7 220,279.3 225,280.1 230,280.9 235,281.9 240,282.9 245,284.1 250,285.3 255,286.6 260,288.0 265,289.5 270,291.1 275,292.7 280,294.4 285,296.1 290,297.8 295,299.6 300,301.4 305,303.2 310,305.1 315,306.9 320,308.7 325,310.5 330,312.2 335,314.0 340,315.6 345,317.3 350,318.8 355,320.3 360,321.7 365,323.1 370,324.4 375,325.5 380,326.6 385,327.6 390,328.4 395,329.2 400,329.8" fill="none" stroke="#64748b" stroke-width="1.1" opacity="0.15" />
    <polyline points="0,231.3 5,233.2 10,234.5 15,235.2 20,235.3 25,234.8 30,233.7 35,232.1 40,230.0 45,227.3 50,224.2 55,220.8 60,217.0 65,213.0 70,208.9 75,204.7 80,200.5 85,196.4 90,192.5 95,188.8 100,185.5 105,182.6 110,180.1 115,178.2 120,176.8 125,175.9 130,175.7 135,176.1 140,177.0 145,178.5 150,180.6 155,183.1 160,186.1 165,189.5 170,193.2 175,197.1 180,201.2 185,205.4 190,209.6 195,213.8 200,217.7 205,221.4 210,224.8 215,227.8 220,230.4 225,232.5 230,234.0 235,234.9 240,235.3 245,235.1 250,234.3 255,232.9 260,230.9 265,228.5 270,225.6 275,222.3 280,218.6 285,214.7 290,210.6 295,206.5 300,202.2 305,198.1 310,194.1 315,190.3 320,186.9 325,183.8 330,181.1 335,178.9 340,177.3 345,176.2 350,175.7 355,175.8 360,176.5 365,177.8 370,179.6 375,182.0 380,184.8 385,188.0 390,191.6 395,195.4 400,199.5" fill="none" stroke="#fbbf24" stroke-width="2.9" opacity="0.22" />
    <polyline points="0,169.7 5,167.9 10,166.1 15,164.4 20,162.7 25,161.2 30,159.9 35,158.7 40,157.7 45,156.9 50,156.3 55,155.9 60,155.7 65,155.8 70,156.0 75,156.5 80,157.2 85,158.1 90,159.2 95,160.4 100,161.8 105,163.4 110,165.1 115,166.8 120,168.6 125,170.5 130,172.4 135,174.3 140,176.1 145,177.9 150,179.7 155,181.3 160,182.8 165,184.1 170,185.3 175,186.3 180,187.1 185,187.7 190,188.1 195,188.2 200,188.2 205,187.9 210,187.4 215,186.7 220,185.8 225,184.7 230,183.5 235,182.1 240,180.5 245,178.8 250,177.1 255,175.3 260,173.4 265,171.5 270,169.6 275,167.8 280,166.0 285,164.2 290,162.6 295,161.2 300,159.8 305,158.6 310,157.7 315,156.9 320,156.3 325,155.9 330,155.7 335,155.8 340,156.1 345,156.6 350,157.3 355,158.2 360,159.3 365,160.5 370,161.9 375,163.5 380,165.2 385,166.9 390,168.8 395,170.6 400,172.5" fill="none" stroke="#94a3b8" stroke-width="2.9" opacity="0.20" /></g>
  <rect x="29.4" y="253.1" width="80.0" height="80.0" fill="#64748b" opacity="0.23" />
    <polygon points="256.7,198.5 304.6,246.4 256.7,294.3 208.8,246.4" fill="#94a3b8" opacity="0.22" />
    <circle cx="302.8" cy="463.5" r="22.6" fill="#fbbf24" opacity="0.16" />
    <polygon points="342.5,202.2 374.6,266.4 310.4,266.4" fill="#94a3b8" opacity="0.29" />
    <polygon points="44.4,101.4 70.2,152.9 18.7,152.9" fill="#94a3b8" opacity="0.30" />
    <circle cx="297.6" cy="318.8" r="25.9" fill="#fbbf24" opacity="0.34" />
    <rect x="49.5" y="447.0" width="96.7" height="96.7" fill="#fbbf24" opacity="0.32" />
    <circle cx="193.1" cy="308.4" r="30.4" fill="#94a3b8" opacity="0.14" />
  
  <!-- Text background banner -->
  <defs>
    <linearGradient id="text-bg-20" x1="0%" y1="0%" x2="100%" y2="0%">
      <stop offset="0%" style="stop-color:#000000;stop-opacity:0.7" />
      <stop offset="50%" style="stop-color:#64748b;stop-opacity:0.4" />
      <stop offset="100%" style="stop-color:#000000;stop-opacity:0.7" />
    </linearGradient>
  </defs>
  <rect x="0" y="494" width="400" height="56" fill="url(#text-bg-20)" />

  <!-- Text shadow -->
  <text x="200" y="522" font-family="system-ui, -apple-system, sans-serif" font-size="24" font-weight="bold" text-anchor="middle" fill="#000000" opacity="0.8">Vintage Vinyl Victor</text>

  <!-- Main text -->
  <text x="200" y="520" font-family="system-ui, -apple-system, sans-serif" font-size="24" font-weight="bold" text-anchor="middle" fill="#ffffff">Vintage Vinyl Victor</text>
  
  <!-- Rarity border -->
  <rect x="3" y="3" width="394" height="544"
        fill="none" stroke="#3b82f6" stroke-width="6" rx="8" ry="8" />
</svg>