<?xml version="1.0" encoding="UTF-8"?>
<svg xmlns="http://www.w3.org/2000/svg" viewBox="0 0 400 550" width="400" height="550">
  <defs>
    <linearGradient id="bg-gradient-018" x1="0%" y1="0%" x2="100%" y2="100%">
      <stop offset="0%" style="stop-color:#ef4444;stop-opacity:0.26" />
      <stop offset="50%" style="stop-color:#f97316;stop-opacity:0.4" />
      <stop offset="100%" style="stop-color:#ef4444;stop-opacity:0.26" />
    </linearGradient>
    
  <filter id="shadow-018">
    <feDropShadow dx="0" dy="2" stdDeviation="3" flood-opacity="0.8"/>
  </filter>
  </defs>
  <rect width="400" height="550" fill="url(#bg-gradient-0.28586356271989644)" />
  <g opacity="0.3"><circle cx="215.2" cy="280.1" r="13.0" fill="none" stroke="#f97316" stroke-width="2.9" opacity="0.25" />
    <rect x="213.1" y="507.9" width="77.7" height="77.7" fill="none" stroke="#f97316" stroke-width="2.8" opacity="0.10" />
    <rect x="38.6" y="84.9" width="70.5" height="70.5" fill="none" stroke="#ef4444" stroke-width="2.8" opacity="0.27" />
    <circle cx="368.5" cy="172.5" r="36.1" fill="none" stroke="#f97316" stroke-width="1.8" opacity="0.18" />
    <circle cx="357.4" cy="364.3" r="28.5" fill="none" stroke="#f97316" stroke-width="2.3" opacity="0.28" />
    <rect x="82.6" y="-0.5" width="49.4" height="49.4" fill="none" stroke="#f97316" stroke-width="2.0" opacity="0.16" />
    <rect x="300.6" y="40.0" width="66.2" height="66.2" fill="none" stroke="#fbbf24" stroke-width="1.0" opacity="0.25" />
    <rect x="54.9" y="225.7" width="20.9" height="20.9" fill="none" stroke="#f97316" stroke-width="1.4" opacity="0.26" />
    <circle cx="86.3" cy="58.2" r="28.1" fill="none" stroke="#ef4444" stroke-width="1.3" opacity="0.14" /></g>
  <polygon points="156.7,387.7 178.9,432.1 134.4,432.1" fill="#fbbf24" opacity="0.15" />
    <polygon points="17.8,92.3 61.6,180.0 -26.1,180.0" fill="#ef4444" opacity="0.28" />
    <rect x="93.4" y="319.1" width="52.7" height="52.7" fill="#ef4444" opacity="0.39" />
    <polygon points="113.4,371.4 134.4,392.3 113.4,413.3 92.4,392.3" fill="#f97316" opacity="0.31" />
    <circle cx="399.3" cy="120.4" r="28.0" fill="#ef4444" opacity="0.14" />
    <polygon points="132.5,-34.5 167.8,36.1 97.3,36.1" fill="#ef4444" opacity="0.15" />
    <rect x="1.6" y="422.5" width="51.2" height="51.2" fill="#fbbf24" opacity="0.32" />
    <rect x="187.0" y="295.6" width="84.6" height="84.6" fill="#fbbf24" opacity="0.15" />
    <polygon points="92.8,17.7 123.4,78.9 62.2,78.9" fill="#f97316" opacity="0.22" />
    <polygon points="352.6,76.0 399.9,170.6 305.3,170.6" fill="#fbbf24" opacity="0.11" />
    <polygon points="285.8,500.8 307.4,543.9 264.3,543.9" fill="#fbbf24" opacity="0.18" />
  
  <!-- Text background banner -->
  <defs>
    <linearGradient id="text-bg-12" x1="0%" y1="0%" x2="100%" y2="0%">
      <stop offset="0%" style="stop-color:#000000;stop-opacity:0.7" />
      <stop offset="50%" style="stop-color:#ef4444;stop-opacity:0.4" />
      <stop offset="100%" style="stop-color:#000000;stop-opacity:0.7" />
    </linearGradient>
  </defs>
  <rect x="0" y="494" width="400" height="56" fill="url(#text-bg-12)" />

  <!-- Text shadow -->
  <text x="200" y="522" font-family="system-ui, -apple-system, sans-serif" font-size="24" font-weight="bold" text-anchor="middle" fill="#000000" opacity="0.8">Smoker Steve</text>

  <!-- Main text -->
  <text x="200" y="520" font-family="system-ui, -apple-system, sans-serif" font-size="24" font-weight="bold" text-anchor="middle" fill="#ffffff">Smoker Steve</text>
  
  <!-- Rarity border -->
  <rect x="4" y="4" width="392" height="542"
        fill="none" stroke="#eab308" stroke-width="8" rx="8" ry="8" />
</svg>