<?xml version="1.0" encoding="UTF-8"?>
<svg xmlns="http://www.w3.org/2000/svg" viewBox="0 0 400 550" width="400" height="550">
  <defs>
    <linearGradient id="bg-gradient-019" x1="0%" y1="0%" x2="100%" y2="100%">
      <stop offset="0%" style="stop-color:#ec4899;stop-opacity:0.26" />
      <stop offset="50%" style="stop-color:#f472b6;stop-opacity:0.4" />
      <stop offset="100%" style="stop-color:#ec4899;stop-opacity:0.26" />
    </linearGradient>
    
  <filter id="shadow-019">
    <feDropShadow dx="0" dy="2" stdDeviation="3" flood-opacity="0.8"/>
  </filter>
  </defs>
  <rect width="400" height="550" fill="url(#bg-gradient-0.8100830165203661)" />
  <g opacity="0.3"><line x1="287.0" y1="0" x2="287.0" y2="550" stroke="#f472b6" stroke-width="2.0" opacity="0.15" />
    <line x1="0" y1="461.2" x2="400" y2="461.2" stroke="#ec4899" stroke-width="1.1" opacity="0.26" />
    <line x1="0" y1="101.9" x2="400" y2="101.9" stroke="#8b5cf6" stroke-width="1.8" opacity="0.28" />
    <line x1="134.1" y1="0" x2="134.1" y2="550" stroke="#ec4899" stroke-width="1.8" opacity="0.40" />
    <line x1="338.2" y1="0" x2="338.2" y2="550" stroke="#f472b6" stroke-width="3.2" opacity="0.35" />
    <line x1="0" y1="535.6" x2="400" y2="535.6" stroke="#ec4899" stroke-width="3.9" opacity="0.24" />
    <line x1="0" y1="163.7" x2="400" y2="163.7" stroke="#8b5cf6" stroke-width="2.8" opacity="0.28" />
    <line x1="8.5" y1="0" x2="8.5" y2="550" stroke="#ec4899" stroke-width="3.7" opacity="0.25" />
    <line x1="221.1" y1="0" x2="221.1" y2="550" stroke="#8b5cf6" stroke-width="1.2" opacity="0.39" />
    <line x1="0" y1="217.5" x2="400" y2="217.5" stroke="#ec4899" stroke-width="3.3" opacity="0.20" /></g>
  <polygon points="47.6,299.0 95.5,346.9 47.6,394.8 -0.3,346.9" fill="#ec4899" opacity="0.20" />
    <rect x="211.0" y="216.1" width="33.6" height="33.6" fill="#f472b6" opacity="0.23" />
    <polygon points="185.9,241.4 215.3,270.7 185.9,300.1 156.6,270.7" fill="#ec4899" opacity="0.10" />
    <rect x="27.8" y="362.0" width="33.6" height="33.6" fill="#ec4899" opacity="0.23" />
    <circle cx="365.5" cy="445.7" r="31.5" fill="#ec4899" opacity="0.34" />
  
  <!-- Text background banner -->
  <defs>
    <linearGradient id="text-bg-25" x1="0%" y1="0%" x2="100%" y2="0%">
      <stop offset="0%" style="stop-color:#000000;stop-opacity:0.7" />
      <stop offset="50%" style="stop-color:#ec4899;stop-opacity:0.4" />
      <stop offset="100%" style="stop-color:#000000;stop-opacity:0.7" />
    </linearGradient>
  </defs>
  <rect x="0" y="494" width="400" height="56" fill="url(#text-bg-25)" />

  <!-- Text shadow -->
  <text x="200" y="522" font-family="system-ui, -apple-system, sans-serif" font-size="24" font-weight="bold" text-anchor="middle" fill="#000000" opacity="0.8">Fashion Fuck Frank the...</text>

  <!-- Main text -->
  <text x="200" y="520" font-family="system-ui, -apple-system, sans-serif" font-size="24" font-weight="bold" text-anchor="middle" fill="#ffffff">Fashion Fuck Frank the...</text>
  
  <!-- Rarity border -->
  <rect x="2" y="2" width="396" height="546"
        fill="none" stroke="#9ca3af" stroke-width="4" rx="8" ry="8" />
</svg>