<?xml version="1.0" encoding="UTF-8"?>
<svg xmlns="http://www.w3.org/2000/svg" viewBox="0 0 400 550" width="400" height="550">
  <defs>
    <linearGradient id="bg-gradient-020" x1="0%" y1="0%" x2="100%" y2="100%">
      <stop offset="0%" style="stop-color:#64748b;stop-opacity:0.26" />
      <stop offset="50%" style="stop-color:#94a3b8;stop-opacity:0.4" />
      <stop offset="100%" style="stop-color:#64748b;stop-opacity:0.26" />
    </linearGradient>
    
  <filter id="shadow-020">
    <feDropShadow dx="0" dy="2" stdDeviation="3" flood-opacity="0.8"/>
  </filter>
  </defs>
  <rect width="400" height="550" fill="url(#bg-gradient-0.132550346897915)" />
  <g opacity="0.3"><circle cx="5.5" cy="8.6" r="6" fill="#94a3b8" />
    <circle cx="5.8" cy="31.5" r="6" fill="#94a3b8" />
    <circle cx="8.6" cy="57.5" r="6" fill="#64748b" />
    <circle cx="2.2" cy="104.4" r="6" fill="#fbbf24" />
    <circle cx="7.3" cy="179.2" r="6" fill="#64748b" />
    <circle cx="3.1" cy="208.2" r="6" fill="#fbbf24" />
    <circle cx="4.1" cy="252.0" r="6" fill="#64748b" />
    <circle cx="3.9" cy="276.9" r="6" fill="#fbbf24" />
    <circle cx="6.8" cy="309.5" r="6" fill="#94a3b8" />
    <circle cx="9.1" cy="326.8" r="6" fill="#64748b" />
    <circle cx="6.8" cy="378.4" r="6" fill="#94a3b8" />
    <circle cx="6.1" cy="430.9" r="6" fill="#fbbf24" />
    <circle cx="6.8" cy="455.0" r="6" fill="#fbbf24" />
    <circle cx="5.2" cy="525.7" r="6" fill="#94a3b8" />
    <circle cx="27.5" cy="1.7" r="6" fill="#94a3b8" />
    <circle cx="31.2" cy="33.9" r="6" fill="#64748b" />
    <circle cx="33.6" cy="51.0" r="6" fill="#fbbf24" />
    <circle cx="30.1" cy="75.5" r="6" fill="#fbbf24" />
    <circle cx="34.9" cy="108.8" r="6" fill="#64748b" />
    <circle cx="32.1" cy="129.4" r="6" fill="#94a3b8" />
    <circle cx="29.7" cy="181.8" r="6" fill="#64748b" />
    <circle cx="31.5" cy="207.3" r="6" fill="#fbbf24" />
    <circle cx="34.2" cy="283.4" r="6" fill="#fbbf24" />
    <circle cx="31.9" cy="308.7" r="6" fill="#94a3b8" />
    <circle cx="31.2" cy="333.8" r="6" fill="#94a3b8" />
    <circle cx="25.3" cy="350.7" r="6" fill="#fbbf24" />
    <circle cx="30.2" cy="384.1" r="6" fill="#94a3b8" />
    <circle cx="28.9" cy="409.0" r="6" fill="#64748b" />
    <circle cx="31.2" cy="429.3" r="6" fill="#fbbf24" />
    <circle cx="31.9" cy="459.2" r="6" fill="#fbbf24" />
    <circle cx="25.6" cy="484.5" r="6" fill="#64748b" />
    <circle cx="57.0" cy="8.1" r="6" fill="#fbbf24" />
    <circle cx="56.8" cy="27.2" r="6" fill="#fbbf24" />
    <circle cx="59.9" cy="76.1" r="6" fill="#64748b" />
    <circle cx="53.4" cy="134.3" r="6" fill="#64748b" />
    <circle cx="58.9" cy="150.4" r="6" fill="#fbbf24" />
    <circle cx="54.1" cy="183.4" r="6" fill="#64748b" />
    <circle cx="52.0" cy="255.3" r="6" fill="#94a3b8" />
    <circle cx="58.5" cy="303.4" r="6" fill="#fbbf24" />
    <circle cx="56.5" cy="330.7" r="6" fill="#fbbf24" />
    <circle cx="54.3" cy="350.1" r="6" fill="#94a3b8" />
    <circle cx="59.5" cy="382.8" r="6" fill="#64748b" />
    <circle cx="50.7" cy="405.7" r="6" fill="#94a3b8" />
    <circle cx="55.3" cy="453.9" r="6" fill="#fbbf24" />
    <circle cx="58.9" cy="481.0" r="6" fill="#64748b" />
    <circle cx="50.9" cy="504.9" r="6" fill="#fbbf24" />
    <circle cx="54.9" cy="529.9" r="6" fill="#94a3b8" />
    <circle cx="75.5" cy="4.4" r="6" fill="#fbbf24" />
    <circle cx="79.9" cy="30.5" r="6" fill="#64748b" />
    <circle cx="81.5" cy="75.5" r="6" fill="#64748b" />
    <circle cx="78.9" cy="128.9" r="6" fill="#fbbf24" />
    <circle cx="82.9" cy="159.6" r="6" fill="#fbbf24" />
    <circle cx="79.2" cy="181.2" r="6" fill="#fbbf24" />
    <circle cx="84.7" cy="228.3" r="6" fill="#fbbf24" />
    <circle cx="84.9" cy="278.1" r="6" fill="#94a3b8" />
    <circle cx="78.0" cy="382.1" r="6" fill="#94a3b8" />
    <circle cx="75.5" cy="457.0" r="6" fill="#64748b" />
    <circle cx="81.1" cy="480.7" r="6" fill="#fbbf24" />
    <circle cx="80.4" cy="504.8" r="6" fill="#fbbf24" />
    <circle cx="83.0" cy="525.1" r="6" fill="#fbbf24" />
    <circle cx="109.9" cy="29.7" r="6" fill="#fbbf24" />
    <circle cx="104.6" cy="55.4" r="6" fill="#fbbf24" />
    <circle cx="103.3" cy="81.5" r="6" fill="#fbbf24" />
    <circle cx="100.3" cy="101.8" r="6" fill="#94a3b8" />
    <circle cx="107.0" cy="125.6" r="6" fill="#94a3b8" />
    <circle cx="107.5" cy="200.4" r="6" fill="#94a3b8" />
    <circle cx="101.7" cy="227.3" r="6" fill="#94a3b8" />
    <circle cx="109.6" cy="253.6" r="6" fill="#64748b" />
    <circle cx="109.7" cy="276.1" r="6" fill="#fbbf24" />
    <circle cx="100.1" cy="304.8" r="6" fill="#fbbf24" />
    <circle cx="108.8" cy="403.6" r="6" fill="#fbbf24" />
    <circle cx="101.0" cy="426.1" r="6" fill="#94a3b8" />
    <circle cx="106.0" cy="451.4" r="6" fill="#fbbf24" />
    <circle cx="108.6" cy="480.3" r="6" fill="#94a3b8" />
    <circle cx="102.0" cy="532.0" r="6" fill="#64748b" />
    <circle cx="128.4" cy="1.6" r="6" fill="#94a3b8" />
    <circle cx="133.7" cy="57.1" r="6" fill="#94a3b8" />
    <circle cx="128.4" cy="80.7" r="6" fill="#64748b" />
    <circle cx="133.0" cy="103.7" r="6" fill="#fbbf24" />
    <circle cx="132.5" cy="125.9" r="6" fill="#fbbf24" />
    <circle cx="129.6" cy="159.4" r="6" fill="#fbbf24" />
    <circle cx="134.3" cy="181.3" r="6" fill="#64748b" />
    <circle cx="129.7" cy="202.3" r="6" fill="#64748b" />
    <circle cx="133.6" cy="257.0" r="6" fill="#94a3b8" />
    <circle cx="130.9" cy="281.3" r="6" fill="#64748b" />
    <circle cx="132.4" cy="309.2" r="6" fill="#94a3b8" />
    <circle cx="131.9" cy="327.8" r="6" fill="#94a3b8" />
    <circle cx="128.3" cy="356.1" r="6" fill="#94a3b8" />
    <circle cx="132.3" cy="405.8" r="6" fill="#64748b" />
    <circle cx="131.0" cy="426.7" r="6" fill="#64748b" />
    <circle cx="132.8" cy="480.1" r="6" fill="#64748b" />
    <circle cx="127.5" cy="509.8" r="6" fill="#fbbf24" />
    <circle cx="151.6" cy="1.2" r="6" fill="#94a3b8" />
    <circle cx="153.9" cy="28.6" r="6" fill="#94a3b8" />
    <circle cx="151.8" cy="104.8" r="6" fill="#94a3b8" />
    <circle cx="153.5" cy="133.0" r="6" fill="#fbbf24" />
    <circle cx="150.4" cy="176.1" r="6" fill="#64748b" />
    <circle cx="154.9" cy="208.9" r="6" fill="#64748b" />
    <circle cx="157.0" cy="229.7" r="6" fill="#64748b" />
    <circle cx="152.1" cy="308.6" r="6" fill="#94a3b8" />
    <circle cx="157.4" cy="351.7" r="6" fill="#64748b" />
    <circle cx="153.7" cy="377.7" r="6" fill="#64748b" />
    <circle cx="157.8" cy="409.2" r="6" fill="#94a3b8" />
    <circle cx="159.5" cy="434.1" r="6" fill="#94a3b8" />
    <circle cx="158.7" cy="451.6" r="6" fill="#64748b" />
    <circle cx="157.4" cy="478.7" r="6" fill="#fbbf24" />
    <circle cx="159.2" cy="530.9" r="6" fill="#94a3b8" />
    <circle cx="175.1" cy="9.1" r="6" fill="#94a3b8" />
    <circle cx="183.7" cy="28.8" r="6" fill="#94a3b8" />
    <circle cx="180.7" cy="75.5" r="6" fill="#fbbf24" />
    <circle cx="178.4" cy="102.8" r="6" fill="#64748b" />
    <circle cx="180.6" cy="134.0" r="6" fill="#94a3b8" />
    <circle cx="180.6" cy="152.3" r="6" fill="#94a3b8" />
    <circle cx="176.8" cy="176.1" r="6" fill="#fbbf24" />
    <circle cx="181.5" cy="228.7" r="6" fill="#64748b" />
    <circle cx="182.8" cy="301.3" r="6" fill="#94a3b8" />
    <circle cx="178.0" cy="382.3" r="6" fill="#94a3b8" />
    <circle cx="184.4" cy="425.5" r="6" fill="#94a3b8" />
    <circle cx="182.2" cy="456.6" r="6" fill="#64748b" />
    <circle cx="176.0" cy="477.6" r="6" fill="#94a3b8" />
    <circle cx="177.9" cy="505.7" r="6" fill="#94a3b8" />
    <circle cx="183.2" cy="529.4" r="6" fill="#64748b" />
    <circle cx="203.7" cy="54.7" r="6" fill="#64748b" />
    <circle cx="205.2" cy="79.5" r="6" fill="#64748b" />
    <circle cx="205.0" cy="103.8" r="6" fill="#64748b" />
    <circle cx="203.2" cy="134.0" r="6" fill="#64748b" />
    <circle cx="203.4" cy="181.1" r="6" fill="#fbbf24" />
    <circle cx="209.0" cy="230.5" r="6" fill="#fbbf24" />
    <circle cx="203.8" cy="258.9" r="6" fill="#fbbf24" />
    <circle cx="202.3" cy="281.4" r="6" fill="#94a3b8" />
    <circle cx="207.1" cy="327.9" r="6" fill="#fbbf24" />
    <circle cx="201.9" cy="356.8" r="6" fill="#fbbf24" />
    <circle cx="209.3" cy="384.3" r="6" fill="#94a3b8" />
    <circle cx="206.5" cy="433.4" r="6" fill="#64748b" />
    <circle cx="204.3" cy="456.9" r="6" fill="#94a3b8" />
    <circle cx="203.3" cy="478.5" r="6" fill="#fbbf24" />
    <circle cx="204.4" cy="503.6" r="6" fill="#fbbf24" />
    <circle cx="225.8" cy="9.2" r="6" fill="#94a3b8" />
    <circle cx="235.0" cy="52.2" r="6" fill="#fbbf24" />
    <circle cx="225.2" cy="102.2" r="6" fill="#fbbf24" />
    <circle cx="228.3" cy="130.4" r="6" fill="#fbbf24" />
    <circle cx="227.9" cy="229.8" r="6" fill="#94a3b8" />
    <circle cx="229.8" cy="252.5" r="6" fill="#94a3b8" />
    <circle cx="232.4" cy="353.3" r="6" fill="#fbbf24" />
    <circle cx="232.2" cy="379.6" r="6" fill="#94a3b8" />
    <circle cx="234.8" cy="433.4" r="6" fill="#64748b" />
    <circle cx="230.2" cy="455.8" r="6" fill="#64748b" />
    <circle cx="228.8" cy="476.8" r="6" fill="#94a3b8" />
    <circle cx="230.6" cy="525.2" r="6" fill="#fbbf24" />
    <circle cx="254.5" cy="34.5" r="6" fill="#fbbf24" />
    <circle cx="253.5" cy="50.3" r="6" fill="#fbbf24" />
    <circle cx="258.0" cy="78.6" r="6" fill="#94a3b8" />
    <circle cx="257.6" cy="109.4" r="6" fill="#94a3b8" />
    <circle cx="252.2" cy="176.0" r="6" fill="#64748b" />
    <circle cx="257.0" cy="205.4" r="6" fill="#94a3b8" />
    <circle cx="257.8" cy="252.8" r="6" fill="#94a3b8" />
    <circle cx="252.7" cy="277.0" r="6" fill="#64748b" />
    <circle cx="253.7" cy="302.4" r="6" fill="#94a3b8" />
    <circle cx="254.4" cy="328.7" r="6" fill="#fbbf24" />
    <circle cx="250.4" cy="356.4" r="6" fill="#64748b" />
    <circle cx="259.9" cy="383.2" r="6" fill="#64748b" />
    <circle cx="255.8" cy="404.7" r="6" fill="#64748b" />
    <circle cx="254.7" cy="482.9" r="6" fill="#64748b" />
    <circle cx="253.2" cy="504.8" r="6" fill="#64748b" />
    <circle cx="254.1" cy="525.8" r="6" fill="#fbbf24" />
    <circle cx="283.6" cy="2.4" r="6" fill="#fbbf24" />
    <circle cx="280.1" cy="29.0" r="6" fill="#94a3b8" />
    <circle cx="283.4" cy="59.5" r="6" fill="#64748b" />
    <circle cx="278.8" cy="82.6" r="6" fill="#fbbf24" />
    <circle cx="276.2" cy="108.5" r="6" fill="#fbbf24" />
    <circle cx="275.8" cy="130.4" r="6" fill="#94a3b8" />
    <circle cx="277.4" cy="183.8" r="6" fill="#64748b" />
    <circle cx="276.8" cy="203.8" r="6" fill="#64748b" />
    <circle cx="281.2" cy="253.9" r="6" fill="#64748b" />
    <circle cx="277.2" cy="276.7" r="6" fill="#fbbf24" />
    <circle cx="277.5" cy="306.2" r="6" fill="#94a3b8" />
    <circle cx="283.8" cy="329.0" r="6" fill="#fbbf24" />
    <circle cx="284.6" cy="359.5" r="6" fill="#fbbf24" />
    <circle cx="277.1" cy="379.0" r="6" fill="#fbbf24" />
    <circle cx="282.5" cy="402.4" r="6" fill="#64748b" />
    <circle cx="282.5" cy="427.1" r="6" fill="#94a3b8" />
    <circle cx="282.3" cy="454.5" r="6" fill="#64748b" />
    <circle cx="275.7" cy="500.0" r="6" fill="#fbbf24" />
    <circle cx="276.8" cy="534.0" r="6" fill="#94a3b8" />
    <circle cx="300.8" cy="0.4" r="6" fill="#fbbf24" />
    <circle cx="306.4" cy="59.0" r="6" fill="#fbbf24" />
    <circle cx="301.5" cy="134.7" r="6" fill="#fbbf24" />
    <circle cx="302.2" cy="181.7" r="6" fill="#64748b" />
    <circle cx="308.1" cy="208.8" r="6" fill="#64748b" />
    <circle cx="309.4" cy="226.3" r="6" fill="#fbbf24" />
    <circle cx="304.5" cy="259.9" r="6" fill="#94a3b8" />
    <circle cx="302.5" cy="282.8" r="6" fill="#94a3b8" />
    <circle cx="308.1" cy="301.5" r="6" fill="#94a3b8" />
    <circle cx="307.8" cy="352.9" r="6" fill="#fbbf24" />
    <circle cx="301.0" cy="452.5" r="6" fill="#94a3b8" />
    <circle cx="304.4" cy="477.8" r="6" fill="#94a3b8" />
    <circle cx="305.9" cy="509.8" r="6" fill="#fbbf24" />
    <circle cx="305.4" cy="526.2" r="6" fill="#94a3b8" />
    <circle cx="329.3" cy="7.8" r="6" fill="#fbbf24" />
    <circle cx="332.2" cy="29.6" r="6" fill="#64748b" />
    <circle cx="326.7" cy="55.2" r="6" fill="#64748b" />
    <circle cx="333.5" cy="78.2" r="6" fill="#94a3b8" />
    <circle cx="329.7" cy="102.4" r="6" fill="#64748b" />
    <circle cx="333.9" cy="126.8" r="6" fill="#94a3b8" />
    <circle cx="325.1" cy="155.6" r="6" fill="#64748b" />
    <circle cx="331.8" cy="181.0" r="6" fill="#94a3b8" />
    <circle cx="333.8" cy="207.7" r="6" fill="#fbbf24" />
    <circle cx="327.9" cy="228.2" r="6" fill="#94a3b8" />
    <circle cx="329.7" cy="253.6" r="6" fill="#94a3b8" />
    <circle cx="329.4" cy="280.5" r="6" fill="#94a3b8" />
    <circle cx="334.5" cy="357.7" r="6" fill="#64748b" />
    <circle cx="330.9" cy="380.1" r="6" fill="#fbbf24" />
    <circle cx="331.0" cy="452.0" r="6" fill="#94a3b8" />
    <circle cx="329.6" cy="531.5" r="6" fill="#64748b" />
    <circle cx="351.9" cy="0.3" r="6" fill="#64748b" />
    <circle cx="352.7" cy="52.3" r="6" fill="#fbbf24" />
    <circle cx="356.6" cy="103.8" r="6" fill="#94a3b8" />
    <circle cx="350.4" cy="127.9" r="6" fill="#94a3b8" />
    <circle cx="357.1" cy="157.8" r="6" fill="#fbbf24" />
    <circle cx="357.3" cy="175.0" r="6" fill="#fbbf24" />
    <circle cx="353.2" cy="203.8" r="6" fill="#94a3b8" />
    <circle cx="355.1" cy="232.1" r="6" fill="#fbbf24" />
    <circle cx="351.6" cy="257.7" r="6" fill="#fbbf24" />
    <circle cx="352.4" cy="281.9" r="6" fill="#64748b" />
    <circle cx="359.3" cy="302.9" r="6" fill="#fbbf24" />
    <circle cx="352.7" cy="326.0" r="6" fill="#94a3b8" />
    <circle cx="355.9" cy="353.5" r="6" fill="#64748b" />
    <circle cx="355.1" cy="384.6" r="6" fill="#64748b" />
    <circle cx="353.7" cy="407.1" r="6" fill="#94a3b8" />
    <circle cx="350.3" cy="451.3" r="6" fill="#fbbf24" />
    <circle cx="355.6" cy="504.9" r="6" fill="#64748b" />
    <circle cx="354.5" cy="529.6" r="6" fill="#fbbf24" />
    <circle cx="375.8" cy="9.7" r="6" fill="#64748b" />
    <circle cx="384.9" cy="25.2" r="6" fill="#fbbf24" />
    <circle cx="383.6" cy="50.6" r="6" fill="#94a3b8" />
    <circle cx="381.4" cy="154.0" r="6" fill="#fbbf24" />
    <circle cx="379.2" cy="181.2" r="6" fill="#64748b" />
    <circle cx="375.1" cy="201.5" r="6" fill="#94a3b8" />
    <circle cx="384.3" cy="259.0" r="6" fill="#fbbf24" />
    <circle cx="375.6" cy="279.1" r="6" fill="#fbbf24" />
    <circle cx="377.2" cy="302.2" r="6" fill="#64748b" />
    <circle cx="384.8" cy="331.4" r="6" fill="#64748b" />
    <circle cx="378.3" cy="355.7" r="6" fill="#fbbf24" />
    <circle cx="381.2" cy="407.9" r="6" fill="#fbbf24" />
    <circle cx="377.6" cy="454.6" r="6" fill="#94a3b8" />
    <circle cx="380.6" cy="481.5" r="6" fill="#94a3b8" />
    <circle cx="383.5" cy="525.2" r="6" fill="#64748b" /></g>
  <polygon points="387.1,348.5 427.2,388.6 387.1,428.6 347.0,388.6" fill="#64748b" opacity="0.40" />
    <circle cx="274.9" cy="318.2" r="25.2" fill="#fbbf24" opacity="0.33" />
    <polygon points="177.1,129.9 190.8,157.3 163.4,157.3" fill="#94a3b8" opacity="0.37" />
    <circle cx="22.8" cy="173.2" r="41.5" fill="#64748b" opacity="0.23" />
    <rect x="139.0" y="66.6" width="80.5" height="80.5" fill="#94a3b8" opacity="0.35" />
    <polygon points="135.9,94.9 175.1,134.1 135.9,173.2 96.7,134.1" fill="#94a3b8" opacity="0.39" />
    <polygon points="188.4,32.7 236.6,80.8 188.4,129.0 140.3,80.8" fill="#64748b" opacity="0.17" />
    <polygon points="90.3,299.2 128.3,375.3 52.2,375.3" fill="#fbbf24" opacity="0.20" />
    <polygon points="259.0,6.7 281.4,29.2 259.0,51.6 236.6,29.2" fill="#64748b" opacity="0.16" />
    <rect x="143.7" y="300.0" width="98.5" height="98.5" fill="#fbbf24" opacity="0.27" />
    <polygon points="373.6,40.6 411.8,117.2 335.3,117.2" fill="#fbbf24" opacity="0.20" />
  
  <!-- Text background banner -->
  <defs>
    <linearGradient id="text-bg-25" x1="0%" y1="0%" x2="100%" y2="0%">
      <stop offset="0%" style="stop-color:#000000;stop-opacity:0.7" />
      <stop offset="50%" style="stop-color:#64748b;stop-opacity:0.4" />
      <stop offset="100%" style="stop-color:#000000;stop-opacity:0.7" />
    </linearGradient>
  </defs>
  <rect x="0" y="494" width="400" height="56" fill="url(#text-bg-25)" />

  <!-- Text shadow -->
  <text x="200" y="522" font-family="system-ui, -apple-system, sans-serif" font-size="24" font-weight="bold" text-anchor="middle" fill="#000000" opacity="0.8">Tech Guru Tim the Sili...</text>

  <!-- Main text -->
  <text x="200" y="520" font-family="system-ui, -apple-system, sans-serif" font-size="24" font-weight="bold" text-anchor="middle" fill="#ffffff">Tech Guru Tim the Sili...</text>
  
  <!-- Rarity border -->
  <rect x="4" y="4" width="392" height="542"
        fill="none" stroke="#eab308" stroke-width="8" rx="8" ry="8" />
</svg>