<?xml version="1.0" encoding="UTF-8"?>
<svg xmlns="http://www.w3.org/2000/svg" viewBox="0 0 400 550" width="400" height="550">
  <defs>
    <linearGradient id="bg-gradient-020" x1="0%" y1="0%" x2="100%" y2="100%">
      <stop offset="0%" style="stop-color:#3b82f6;stop-opacity:0.26" />
      <stop offset="50%" style="stop-color:#6366f1;stop-opacity:0.4" />
      <stop offset="100%" style="stop-color:#3b82f6;stop-opacity:0.26" />
    </linearGradient>
    
  <filter id="shadow-020">
    <feDropShadow dx="0" dy="2" stdDeviation="3" flood-opacity="0.8"/>
  </filter>
  </defs>
  <rect width="400" height="550" fill="url(#bg-gradient-0.132550346897915)" />
  <g opacity="0.3"><circle cx="5.5" cy="8.6" r="4" fill="#6366f1" />
    <circle cx="5.8" cy="36.5" r="4" fill="#6366f1" />
    <circle cx="8.6" cy="67.5" r="4" fill="#3b82f6" />
    <circle cx="2.2" cy="124.4" r="4" fill="#8b5cf6" />
    <circle cx="7.3" cy="214.2" r="4" fill="#3b82f6" />
    <circle cx="3.1" cy="248.2" r="4" fill="#8b5cf6" />
    <circle cx="4.1" cy="302.0" r="4" fill="#3b82f6" />
    <circle cx="3.9" cy="331.9" r="4" fill="#8b5cf6" />
    <circle cx="6.8" cy="369.5" r="4" fill="#6366f1" />
    <circle cx="9.1" cy="391.8" r="4" fill="#3b82f6" />
    <circle cx="6.8" cy="453.4" r="4" fill="#6366f1" />
    <circle cx="6.1" cy="515.9" r="4" fill="#8b5cf6" />
    <circle cx="6.8" cy="545.0" r="4" fill="#8b5cf6" />
    <circle cx="35.2" cy="60.7" r="4" fill="#6366f1" />
    <circle cx="32.5" cy="91.7" r="4" fill="#6366f1" />
    <circle cx="36.2" cy="128.9" r="4" fill="#3b82f6" />
    <circle cx="38.6" cy="151.0" r="4" fill="#8b5cf6" />
    <circle cx="35.1" cy="180.5" r="4" fill="#8b5cf6" />
    <circle cx="39.9" cy="218.8" r="4" fill="#3b82f6" />
    <circle cx="37.1" cy="244.4" r="4" fill="#6366f1" />
    <circle cx="34.7" cy="306.8" r="4" fill="#3b82f6" />
    <circle cx="36.5" cy="337.3" r="4" fill="#8b5cf6" />
    <circle cx="39.2" cy="428.4" r="4" fill="#8b5cf6" />
    <circle cx="36.9" cy="458.7" r="4" fill="#6366f1" />
    <circle cx="36.2" cy="488.8" r="4" fill="#6366f1" />
    <circle cx="30.3" cy="510.7" r="4" fill="#8b5cf6" />
    <circle cx="35.2" cy="549.1" r="4" fill="#6366f1" />
    <circle cx="63.9" cy="9.0" r="4" fill="#3b82f6" />
    <circle cx="66.2" cy="34.3" r="4" fill="#8b5cf6" />
    <circle cx="66.9" cy="69.2" r="4" fill="#8b5cf6" />
    <circle cx="60.6" cy="99.5" r="4" fill="#3b82f6" />
    <circle cx="67.0" cy="188.1" r="4" fill="#8b5cf6" />
    <circle cx="66.8" cy="212.2" r="4" fill="#8b5cf6" />
    <circle cx="69.9" cy="271.1" r="4" fill="#3b82f6" />
    <circle cx="63.4" cy="339.3" r="4" fill="#3b82f6" />
    <circle cx="68.9" cy="360.4" r="4" fill="#8b5cf6" />
    <circle cx="64.1" cy="398.4" r="4" fill="#3b82f6" />
    <circle cx="62.0" cy="485.3" r="4" fill="#6366f1" />
    <circle cx="68.5" cy="543.4" r="4" fill="#8b5cf6" />
    <circle cx="96.5" cy="5.7" r="4" fill="#8b5cf6" />
    <circle cx="94.3" cy="30.1" r="4" fill="#6366f1" />
    <circle cx="99.5" cy="67.8" r="4" fill="#3b82f6" />
    <circle cx="90.7" cy="95.7" r="4" fill="#6366f1" />
    <circle cx="95.3" cy="153.9" r="4" fill="#8b5cf6" />
    <circle cx="98.9" cy="186.0" r="4" fill="#3b82f6" />
    <circle cx="90.9" cy="214.9" r="4" fill="#8b5cf6" />
    <circle cx="94.9" cy="244.9" r="4" fill="#6366f1" />
    <circle cx="90.5" cy="274.4" r="4" fill="#8b5cf6" />
    <circle cx="94.9" cy="305.5" r="4" fill="#3b82f6" />
    <circle cx="96.5" cy="360.5" r="4" fill="#3b82f6" />
    <circle cx="93.9" cy="423.9" r="4" fill="#8b5cf6" />
    <circle cx="97.9" cy="459.6" r="4" fill="#8b5cf6" />
    <circle cx="94.2" cy="486.2" r="4" fill="#8b5cf6" />
    <circle cx="99.7" cy="543.3" r="4" fill="#8b5cf6" />
    <circle cx="129.9" cy="33.1" r="4" fill="#6366f1" />
    <circle cx="123.0" cy="157.1" r="4" fill="#6366f1" />
    <circle cx="120.5" cy="247.0" r="4" fill="#3b82f6" />
    <circle cx="126.1" cy="275.7" r="4" fill="#8b5cf6" />
    <circle cx="125.4" cy="304.8" r="4" fill="#8b5cf6" />
    <circle cx="128.0" cy="330.1" r="4" fill="#8b5cf6" />
    <circle cx="129.9" cy="394.7" r="4" fill="#8b5cf6" />
    <circle cx="124.6" cy="425.4" r="4" fill="#8b5cf6" />
    <circle cx="123.3" cy="456.5" r="4" fill="#8b5cf6" />
    <circle cx="120.3" cy="481.8" r="4" fill="#6366f1" />
    <circle cx="127.0" cy="510.6" r="4" fill="#6366f1" />
    <circle cx="157.5" cy="30.4" r="4" fill="#6366f1" />
    <circle cx="151.7" cy="62.3" r="4" fill="#6366f1" />
    <circle cx="159.6" cy="93.6" r="4" fill="#3b82f6" />
    <circle cx="159.7" cy="121.1" r="4" fill="#8b5cf6" />
    <circle cx="150.1" cy="154.8" r="4" fill="#8b5cf6" />
    <circle cx="158.8" cy="273.6" r="4" fill="#8b5cf6" />
    <circle cx="151.0" cy="301.1" r="4" fill="#6366f1" />
    <circle cx="156.0" cy="331.4" r="4" fill="#8b5cf6" />
    <circle cx="158.6" cy="365.3" r="4" fill="#6366f1" />
    <circle cx="152.0" cy="427.0" r="4" fill="#3b82f6" />
    <circle cx="153.4" cy="451.6" r="4" fill="#6366f1" />
    <circle cx="158.7" cy="517.1" r="4" fill="#6366f1" />
    <circle cx="153.4" cy="545.7" r="4" fill="#3b82f6" />
    <circle cx="188.0" cy="3.7" r="4" fill="#8b5cf6" />
    <circle cx="187.5" cy="30.9" r="4" fill="#8b5cf6" />
    <circle cx="184.6" cy="69.4" r="4" fill="#8b5cf6" />
    <circle cx="189.3" cy="96.3" r="4" fill="#3b82f6" />
    <circle cx="184.7" cy="122.3" r="4" fill="#3b82f6" />
    <circle cx="188.6" cy="187.0" r="4" fill="#6366f1" />
    <circle cx="185.9" cy="216.3" r="4" fill="#3b82f6" />
    <circle cx="187.4" cy="249.2" r="4" fill="#6366f1" />
    <circle cx="186.9" cy="272.8" r="4" fill="#6366f1" />
    <circle cx="183.3" cy="306.1" r="4" fill="#6366f1" />
    <circle cx="187.3" cy="365.8" r="4" fill="#3b82f6" />
    <circle cx="186.0" cy="391.7" r="4" fill="#3b82f6" />
    <circle cx="187.8" cy="455.1" r="4" fill="#3b82f6" />
    <circle cx="182.5" cy="489.8" r="4" fill="#8b5cf6" />
    <circle cx="181.6" cy="541.2" r="4" fill="#6366f1" />
    <circle cx="213.9" cy="3.6" r="4" fill="#6366f1" />
    <circle cx="211.8" cy="94.8" r="4" fill="#6366f1" />
    <circle cx="213.5" cy="128.0" r="4" fill="#8b5cf6" />
    <circle cx="210.4" cy="181.1" r="4" fill="#3b82f6" />
    <circle cx="214.9" cy="218.9" r="4" fill="#3b82f6" />
    <circle cx="217.0" cy="244.7" r="4" fill="#3b82f6" />
    <circle cx="212.1" cy="338.6" r="4" fill="#6366f1" />
    <circle cx="217.4" cy="391.7" r="4" fill="#3b82f6" />
    <circle cx="213.7" cy="422.7" r="4" fill="#3b82f6" />
    <circle cx="217.8" cy="459.2" r="4" fill="#6366f1" />
    <circle cx="219.5" cy="489.1" r="4" fill="#6366f1" />
    <circle cx="218.7" cy="511.6" r="4" fill="#3b82f6" />
    <circle cx="217.4" cy="543.7" r="4" fill="#8b5cf6" />
    <circle cx="249.2" cy="35.9" r="4" fill="#6366f1" />
    <circle cx="240.1" cy="69.1" r="4" fill="#6366f1" />
    <circle cx="248.7" cy="93.8" r="4" fill="#6366f1" />
    <circle cx="245.7" cy="150.5" r="4" fill="#8b5cf6" />
    <circle cx="243.4" cy="182.8" r="4" fill="#3b82f6" />
    <circle cx="245.6" cy="219.0" r="4" fill="#6366f1" />
    <circle cx="245.6" cy="242.3" r="4" fill="#6366f1" />
    <circle cx="241.8" cy="271.1" r="4" fill="#8b5cf6" />
    <circle cx="246.5" cy="333.7" r="4" fill="#3b82f6" />
    <circle cx="247.8" cy="421.3" r="4" fill="#6366f1" />
    <circle cx="243.0" cy="517.3" r="4" fill="#6366f1" />
    <circle cx="279.4" cy="0.5" r="4" fill="#6366f1" />
    <circle cx="277.2" cy="36.6" r="4" fill="#3b82f6" />
    <circle cx="271.0" cy="62.6" r="4" fill="#6366f1" />
    <circle cx="272.9" cy="95.7" r="4" fill="#6366f1" />
    <circle cx="278.2" cy="124.4" r="4" fill="#3b82f6" />
    <circle cx="273.7" cy="214.7" r="4" fill="#3b82f6" />
    <circle cx="275.2" cy="244.5" r="4" fill="#3b82f6" />
    <circle cx="275.0" cy="273.8" r="4" fill="#3b82f6" />
    <circle cx="273.2" cy="309.0" r="4" fill="#3b82f6" />
    <circle cx="273.4" cy="366.1" r="4" fill="#8b5cf6" />
    <circle cx="279.0" cy="425.5" r="4" fill="#8b5cf6" />
    <circle cx="273.8" cy="458.9" r="4" fill="#8b5cf6" />
    <circle cx="272.3" cy="486.4" r="4" fill="#6366f1" />
    <circle cx="277.1" cy="542.9" r="4" fill="#8b5cf6" />
    <circle cx="301.9" cy="6.8" r="4" fill="#8b5cf6" />
    <circle cx="309.3" cy="39.3" r="4" fill="#6366f1" />
    <circle cx="306.5" cy="98.4" r="4" fill="#3b82f6" />
    <circle cx="304.3" cy="126.9" r="4" fill="#6366f1" />
    <circle cx="303.3" cy="153.5" r="4" fill="#8b5cf6" />
    <circle cx="304.4" cy="183.6" r="4" fill="#8b5cf6" />
    <circle cx="300.8" cy="249.2" r="4" fill="#6366f1" />
    <circle cx="310.0" cy="302.2" r="4" fill="#8b5cf6" />
    <circle cx="300.2" cy="362.2" r="4" fill="#8b5cf6" />
    <circle cx="303.3" cy="395.4" r="4" fill="#8b5cf6" />
    <circle cx="302.9" cy="514.8" r="4" fill="#6366f1" />
    <circle cx="304.8" cy="542.5" r="4" fill="#6366f1" />
    <circle cx="337.4" cy="93.3" r="4" fill="#8b5cf6" />
    <circle cx="337.2" cy="124.6" r="4" fill="#6366f1" />
    <circle cx="339.8" cy="188.4" r="4" fill="#3b82f6" />
    <circle cx="335.2" cy="215.8" r="4" fill="#3b82f6" />
    <circle cx="333.8" cy="241.8" r="4" fill="#6366f1" />
    <circle cx="335.6" cy="300.2" r="4" fill="#8b5cf6" />
    <circle cx="334.5" cy="369.5" r="4" fill="#8b5cf6" />
    <circle cx="333.5" cy="390.3" r="4" fill="#8b5cf6" />
    <circle cx="338.0" cy="423.6" r="4" fill="#6366f1" />
    <circle cx="337.6" cy="459.4" r="4" fill="#6366f1" />
    <circle cx="332.2" cy="541.0" r="4" fill="#3b82f6" />
    <circle cx="367.0" cy="5.4" r="4" fill="#6366f1" />
    <circle cx="367.8" cy="62.8" r="4" fill="#6366f1" />
    <circle cx="362.7" cy="92.0" r="4" fill="#3b82f6" />
    <circle cx="363.7" cy="122.4" r="4" fill="#6366f1" />
    <circle cx="364.4" cy="153.7" r="4" fill="#8b5cf6" />
    <circle cx="360.4" cy="186.4" r="4" fill="#3b82f6" />
    <circle cx="369.9" cy="218.2" r="4" fill="#3b82f6" />
    <circle cx="365.8" cy="244.7" r="4" fill="#3b82f6" />
    <circle cx="364.7" cy="337.9" r="4" fill="#3b82f6" />
    <circle cx="363.2" cy="364.8" r="4" fill="#3b82f6" />
    <circle cx="364.1" cy="390.8" r="4" fill="#8b5cf6" />
    <circle cx="368.6" cy="422.4" r="4" fill="#8b5cf6" />
    <circle cx="365.1" cy="454.0" r="4" fill="#6366f1" />
    <circle cx="368.4" cy="489.5" r="4" fill="#3b82f6" />
    <circle cx="363.8" cy="517.6" r="4" fill="#8b5cf6" />
    <circle cx="361.2" cy="548.5" r="4" fill="#8b5cf6" />
    <circle cx="390.8" cy="5.4" r="4" fill="#6366f1" />
    <circle cx="392.4" cy="68.8" r="4" fill="#3b82f6" />
    <circle cx="391.8" cy="93.8" r="4" fill="#3b82f6" />
    <circle cx="396.2" cy="153.9" r="4" fill="#3b82f6" />
    <circle cx="392.2" cy="181.7" r="4" fill="#8b5cf6" />
    <circle cx="392.5" cy="216.2" r="4" fill="#6366f1" />
    <circle cx="398.8" cy="244.0" r="4" fill="#8b5cf6" />
    <circle cx="399.6" cy="279.5" r="4" fill="#8b5cf6" />
    <circle cx="392.1" cy="304.0" r="4" fill="#8b5cf6" />
    <circle cx="397.5" cy="332.4" r="4" fill="#3b82f6" />
    <circle cx="397.5" cy="362.1" r="4" fill="#6366f1" />
    <circle cx="397.3" cy="394.5" r="4" fill="#3b82f6" />
    <circle cx="390.7" cy="450.0" r="4" fill="#8b5cf6" />
    <circle cx="391.8" cy="489.0" r="4" fill="#6366f1" />
    <circle cx="390.8" cy="510.4" r="4" fill="#8b5cf6" /></g>
  <polygon points="122.6,362.7 158.1,398.2 122.6,433.7 87.1,398.2" fill="#3b82f6" opacity="0.14" />
    <polygon points="133.5,481.4 149.6,497.5 133.5,513.6 117.4,497.5" fill="#3b82f6" opacity="0.40" />
    <polygon points="83.5,86.2 120.1,159.4 46.9,159.4" fill="#3b82f6" opacity="0.34" />
    <polygon points="350.4,477.9 387.8,515.4 350.4,552.8 312.9,515.4" fill="#3b82f6" opacity="0.39" />
    <polygon points="161.2,199.9 210.6,298.8 111.8,298.8" fill="#6366f1" opacity="0.17" />
    <polygon points="311.4,347.9 335.9,372.4 311.4,397.0 286.9,372.4" fill="#3b82f6" opacity="0.13" />
    <rect x="239.4" y="491.8" width="82.5" height="82.5" fill="#3b82f6" opacity="0.15" />
    <circle cx="8.7" cy="214.6" r="23.6" fill="#3b82f6" opacity="0.37" />
  
  <!-- Text background banner -->
  <defs>
    <linearGradient id="text-bg-14" x1="0%" y1="0%" x2="100%" y2="0%">
      <stop offset="0%" style="stop-color:#000000;stop-opacity:0.7" />
      <stop offset="50%" style="stop-color:#3b82f6;stop-opacity:0.4" />
      <stop offset="100%" style="stop-color:#000000;stop-opacity:0.7" />
    </linearGradient>
  </defs>
  <rect x="0" y="494" width="400" height="56" fill="url(#text-bg-14)" />

  <!-- Text shadow -->
  <text x="200" y="522" font-family="system-ui, -apple-system, sans-serif" font-size="24" font-weight="bold" text-anchor="middle" fill="#000000" opacity="0.8">Recliner Randy</text>

  <!-- Main text -->
  <text x="200" y="520" font-family="system-ui, -apple-system, sans-serif" font-size="24" font-weight="bold" text-anchor="middle" fill="#ffffff">Recliner Randy</text>
  
  <!-- Rarity border -->
  <rect x="3" y="3" width="394" height="544"
        fill="none" stroke="#3b82f6" stroke-width="6" rx="8" ry="8" />
</svg>