<?xml version="1.0" encoding="UTF-8"?>
<svg xmlns="http://www.w3.org/2000/svg" viewBox="0 0 400 550" width="400" height="550">
  <defs>
    <linearGradient id="bg-gradient-022" x1="0%" y1="0%" x2="100%" y2="100%">
      <stop offset="0%" style="stop-color:#22c55e;stop-opacity:0.26" />
      <stop offset="50%" style="stop-color:#16a34a;stop-opacity:0.4" />
      <stop offset="100%" style="stop-color:#22c55e;stop-opacity:0.26" />
    </linearGradient>
    
  <filter id="shadow-022">
    <feDropShadow dx="0" dy="2" stdDeviation="3" flood-opacity="0.8"/>
  </filter>
  </defs>
  <rect width="400" height="550" fill="url(#bg-gradient-0.8514706930145621)" />
  <g opacity="0.3"><polyline points="0,78.2 5,75.7 10,73.0 15,70.4 20,67.7 25,65.0 30,62.3 35,59.7 40,57.1 45,54.5 50,52.1 55,49.7 60,47.5 65,45.4 70,43.4 75,41.6 80,40.0 85,38.5 90,37.3 95,36.2 100,35.3 105,34.7 110,34.2 115,34.0 120,34.0 125,34.2 130,34.6 135,35.3 140,36.1 145,37.2 150,38.5 155,39.9 160,41.5 165,43.3 170,45.3 175,47.4 180,49.6 185,51.9 190,54.4 195,56.9 200,59.5 205,62.1 210,64.8 215,67.5 220,70.2 225,72.9 230,75.5 235,78.1 240,80.6 245,83.0 250,85.3 255,87.5 260,89.5 265,91.4 270,93.2 275,94.7 280,96.1 285,97.3 290,98.3 295,99.1 300,99.7 305,100.0 310,100.2 315,100.1 320,99.8 325,99.3 330,98.6 335,97.6 340,96.5 345,95.2 350,93.7 355,92.0 360,90.1 365,88.1 370,86.0 375,83.7 380,81.3 385,78.8 390,76.3 395,73.7 400,71.0" fill="none" stroke="#16a34a" stroke-width="3.0" opacity="0.13" />
    <polyline points="0,51.7 5,55.6 10,59.7 15,63.7 20,67.6 25,71.5 30,75.2 35,78.8 40,82.1 45,85.2 50,88.0 55,90.5 60,92.6 65,94.4 70,95.8 75,96.8 80,97.4 85,97.6 90,97.4 95,96.8 100,95.7 105,94.3 110,92.5 115,90.3 120,87.8 125,85.0 130,81.9 135,78.5 140,74.9 145,71.2 150,67.3 155,63.4 160,59.4 165,55.3 170,51.4 175,47.5 180,43.7 185,40.0 190,36.6 195,33.4 200,30.5 205,27.8 210,25.5 215,23.6 220,22.0 225,20.8 230,20.0 235,19.6 240,19.6 245,20.1 250,20.9 255,22.2 260,23.8 265,25.8 270,28.2 275,30.9 280,33.8 285,37.1 290,40.5 295,44.2 300,48.0 305,51.9 310,55.9 315,60.0 320,64.0 325,67.9 330,71.8 335,75.5 340,79.0 345,82.3 350,85.4 355,88.2 360,90.6 365,92.8 370,94.5 375,95.9 380,96.9 385,97.4 390,97.6 395,97.4 400,96.7" fill="none" stroke="#16a34a" stroke-width="2.2" opacity="0.12" />
    <polyline points="0,7.2 5,7.2 10,7.3 15,7.4 20,7.7 25,8.1 30,8.6 35,9.1 40,9.8 45,10.5 50,11.4 55,12.3 60,13.3 65,14.4 70,15.5 75,16.8 80,18.1 85,19.4 90,20.8 95,22.2 100,23.7 105,25.2 110,26.8 115,28.4 120,29.9 125,31.5 130,33.2 135,34.8 140,36.4 145,37.9 150,39.5 155,41.0 160,42.5 165,44.0 170,45.4 175,46.8 180,48.1 185,49.4 190,50.6 195,51.7 200,52.7 205,53.7 210,54.6 215,55.4 220,56.1 225,56.7 230,57.2 235,57.7 240,58.0 245,58.2 250,58.4 255,58.4 260,58.3 265,58.2 270,57.9 275,57.5 280,57.1 285,56.5 290,55.8 295,55.1 300,54.3 305,53.4 310,52.4 315,51.3 320,50.1 325,48.9 330,47.6 335,46.3 340,44.9 345,43.5 350,42.0 355,40.5 360,38.9 365,37.4 370,35.8 375,34.2 380,32.6 385,31.0 390,29.4 395,27.8 400,26.2" fill="none" stroke="#16a34a" stroke-width="2.9" opacity="0.27" />
    <polyline points="0,-7.5 5,-5.3 10,-2.9 15,-0.4 20,2.3 25,5.0 30,7.8 35,10.5 40,13.3 45,16.0 50,18.7 55,21.2 60,23.5 65,25.7 70,27.7 75,29.5 80,31.0 85,32.2 90,33.2 95,33.8 100,34.2 105,34.2 110,34.0 115,33.4 120,32.5 125,31.4 130,30.0 135,28.3 140,26.4 145,24.3 150,21.9 155,19.5 160,16.9 165,14.2 170,11.4 175,8.6 180,5.9 185,3.1 190,0.4 195,-2.1 200,-4.6 205,-6.8 210,-8.9 215,-10.8 220,-12.4 225,-13.8 230,-14.8 235,-15.6 240,-16.1 245,-16.3 250,-16.2 255,-15.7 260,-15.0 265,-14.0 270,-12.7 275,-11.1 280,-9.3 285,-7.3 290,-5.0 295,-2.6 300,-0.1 305,2.6 310,5.3 315,8.1 320,10.9 325,13.6 330,16.3 335,19.0 340,21.5 345,23.8 350,26.0 355,27.9 360,29.7 365,31.1 370,32.3 375,33.3 380,33.9 385,34.2 390,34.2 395,33.9 400,33.3" fill="none" stroke="#84cc16" stroke-width="2.3" opacity="0.28" />
    <polyline points="0,368.7 5,369.8 10,370.9 15,372.2 20,373.6 25,375.0 30,376.6 35,378.2 40,379.9 45,381.7 50,383.6 55,385.4 60,387.3 65,389.3 70,391.2 75,393.1 80,395.0 85,396.9 90,398.8 95,400.6 100,402.4 105,404.1 110,405.7 115,407.2 120,408.7 125,410.0 130,411.3 135,412.4 140,413.4 145,414.3 150,415.0 155,415.6 160,416.1 165,416.4 170,416.6 175,416.6 180,416.5 185,416.3 190,415.9 195,415.3 200,414.6 205,413.8 210,412.9 215,411.8 220,410.6 225,409.3 230,407.9 235,406.4 240,404.8 245,403.2 250,401.4 255,399.6 260,397.8 265,395.9 270,394.0 275,392.1 280,390.1 285,388.2 290,386.3 295,384.4 300,382.6 305,380.8 310,379.0 315,377.3 320,375.7 325,374.2 330,372.8 335,371.5 340,370.3 345,369.2 350,368.2 355,367.4 360,366.7 365,366.1 370,365.7 375,365.4 380,365.3 385,365.3 390,365.5 395,365.8 400,366.2" fill="none" stroke="#84cc16" stroke-width="1.1" opacity="0.22" />
    <polyline points="0,185.4 5,184.5 10,183.6 15,182.8 20,182.1 25,181.5 30,180.9 35,180.4 40,180.1 45,179.8 50,179.6 55,179.5 60,179.5 65,179.6 70,179.7 75,180.0 80,180.4 85,180.8 90,181.4 95,182.0 100,182.7 105,183.5 110,184.3 115,185.3 120,186.3 125,187.4 130,188.5 135,189.7 140,191.0 145,192.3 150,193.6 155,195.0 160,196.4 165,197.8 170,199.3 175,200.7 180,202.2 185,203.7 190,205.2 195,206.6 200,208.1 205,209.5 210,210.9 215,212.3 220,213.6 225,214.9 230,216.2 235,217.4 240,218.5 245,219.6 250,220.6 255,221.6 260,222.4 265,223.2 270,223.9 275,224.5 280,225.1 285,225.5 290,225.9 295,226.2 300,226.4 305,226.4 310,226.4 315,226.3 320,226.1 325,225.9 330,225.5 335,225.0 340,224.5 345,223.8 350,223.1 355,222.3 360,221.4 365,220.5 370,219.5 375,218.4 380,217.2 385,216.0 390,214.8 395,213.5 400,212.1" fill="none" stroke="#16a34a" stroke-width="1.5" opacity="0.26" />
    <polyline points="0,148.9 5,148.1 10,147.4 15,146.8 20,146.3 25,146.0 30,145.8 35,145.7 40,145.8 45,145.9 50,146.2 55,146.6 60,147.2 65,147.8 70,148.6 75,149.5 80,150.4 85,151.5 90,152.7 95,153.9 100,155.3 105,156.7 110,158.1 115,159.6 120,161.2 125,162.8 130,164.4 135,166.0 140,167.7 145,169.3 150,170.9 155,172.5 160,174.1 165,175.6 170,177.1 175,178.5 180,179.9 185,181.2 190,182.4 195,183.5 200,184.5 205,185.4 210,186.2 215,186.9 220,187.4 225,187.9 230,188.2 235,188.4 240,188.5 245,188.5 250,188.3 255,188.0 260,187.6 265,187.0 270,186.4 275,185.6 280,184.8 285,183.8 290,182.7 295,181.5 300,180.3 305,178.9 310,177.5 315,176.1 320,174.6 325,173.0 330,171.4 335,169.8 340,168.2 345,166.5 350,164.9 355,163.3 360,161.7 365,160.1 370,158.6 375,157.1 380,155.7 385,154.3 390,153.0 395,151.8 400,150.7" fill="none" stroke="#16a34a" stroke-width="1.0" opacity="0.11" />
    <polyline points="0,202.6 5,201.7 10,200.7 15,199.7 20,198.6 25,197.5 30,196.4 35,195.3 40,194.1 45,192.9 50,191.8 55,190.7 60,189.5 65,188.5 70,187.5 75,186.5 80,185.6 85,184.8 90,184.0 95,183.4 100,182.8 105,182.3 110,182.0 115,181.7 120,181.5 125,181.5 130,181.5 135,181.7 140,182.0 145,182.3 150,182.8 155,183.4 160,184.0 165,184.8 170,185.6 175,186.5 180,187.5 185,188.5 190,189.6 195,190.7 200,191.8 205,193.0 210,194.1 215,195.3 220,196.4 225,197.6 230,198.7 235,199.7 240,200.7 245,201.7 250,202.6 255,203.4 260,204.1 265,204.8 270,205.3 275,205.8 280,206.1 285,206.4 290,206.5 295,206.5 300,206.5 305,206.3 310,206.0 315,205.6 320,205.1 325,204.5 330,203.8 335,203.1 340,202.2 345,201.3 350,200.3 355,199.3 360,198.2 365,197.1 370,196.0 375,194.8 380,193.7 385,192.5 390,191.4 395,190.2 400,189.1" fill="none" stroke="#22c55e" stroke-width="2.6" opacity="0.24" /></g>
  <polygon points="70.1,362.3 93.8,386.0 70.1,409.7 46.4,386.0" fill="#22c55e" opacity="0.20" />
    <rect x="97.7" y="352.7" width="99.0" height="99.0" fill="#84cc16" opacity="0.29" />
    <polygon points="249.6,502.2 270.9,523.4 249.6,544.7 228.4,523.4" fill="#16a34a" opacity="0.10" />
    <polygon points="134.2,78.4 151.2,112.3 117.2,112.3" fill="#16a34a" opacity="0.17" />
    <polygon points="275.8,288.2 308.4,320.8 275.8,353.5 243.1,320.8" fill="#16a34a" opacity="0.19" />
    <polygon points="215.7,28.3 242.9,82.7 188.5,82.7" fill="#84cc16" opacity="0.11" />
    <polygon points="365.7,123.4 401.5,195.1 329.9,195.1" fill="#22c55e" opacity="0.15" />
    <polygon points="114.8,290.6 129.5,319.9 100.2,319.9" fill="#22c55e" opacity="0.32" />
    <polygon points="290.9,156.0 322.7,219.5 259.2,219.5" fill="#22c55e" opacity="0.18" />
    <polygon points="202.9,-16.8 237.2,51.9 168.5,51.9" fill="#22c55e" opacity="0.21" />
    <polygon points="18.6,481.2 57.8,559.6 -20.5,559.6" fill="#16a34a" opacity="0.22" />
  
  <!-- Text background banner -->
  <defs>
    <linearGradient id="text-bg-17" x1="0%" y1="0%" x2="100%" y2="0%">
      <stop offset="0%" style="stop-color:#000000;stop-opacity:0.7" />
      <stop offset="50%" style="stop-color:#22c55e;stop-opacity:0.4" />
      <stop offset="100%" style="stop-color:#000000;stop-opacity:0.7" />
    </linearGradient>
  </defs>
  <rect x="0" y="494" width="400" height="56" fill="url(#text-bg-17)" />

  <!-- Text shadow -->
  <text x="200" y="522" font-family="system-ui, -apple-system, sans-serif" font-size="24" font-weight="bold" text-anchor="middle" fill="#000000" opacity="0.8">Garden Gnome Gary</text>

  <!-- Main text -->
  <text x="200" y="520" font-family="system-ui, -apple-system, sans-serif" font-size="24" font-weight="bold" text-anchor="middle" fill="#ffffff">Garden Gnome Gary</text>
  
  <!-- Rarity border -->
  <rect x="4" y="4" width="392" height="542"
        fill="none" stroke="#eab308" stroke-width="8" rx="8" ry="8" />
</svg>