<?xml version="1.0" encoding="UTF-8"?>
<svg xmlns="http://www.w3.org/2000/svg" viewBox="0 0 400 550" width="400" height="550">
  <defs>
    <linearGradient id="bg-gradient-022" x1="0%" y1="0%" x2="100%" y2="100%">
      <stop offset="0%" style="stop-color:#6366f1;stop-opacity:0.26" />
      <stop offset="50%" style="stop-color:#8b5cf6;stop-opacity:0.4" />
      <stop offset="100%" style="stop-color:#6366f1;stop-opacity:0.26" />
    </linearGradient>
    
  <filter id="shadow-022">
    <feDropShadow dx="0" dy="2" stdDeviation="3" flood-opacity="0.8"/>
  </filter>
  </defs>
  <rect width="400" height="550" fill="url(#bg-gradient-0.8514706930145621)" />
  <g opacity="0.3"><polyline points="0,78.2 5,75.7 10,73.0 15,70.4 20,67.7 25,65.0 30,62.3 35,59.7 40,57.1 45,54.5 50,52.1 55,49.7 60,47.5 65,45.4 70,43.4 75,41.6 80,40.0 85,38.5 90,37.3 95,36.2 100,35.3 105,34.7 110,34.2 115,34.0 120,34.0 125,34.2 130,34.6 135,35.3 140,36.1 145,37.2 150,38.5 155,39.9 160,41.5 165,43.3 170,45.3 175,47.4 180,49.6 185,51.9 190,54.4 195,56.9 200,59.5 205,62.1 210,64.8 215,67.5 220,70.2 225,72.9 230,75.5 235,78.1 240,80.6 245,83.0 250,85.3 255,87.5 260,89.5 265,91.4 270,93.2 275,94.7 280,96.1 285,97.3 290,98.3 295,99.1 300,99.7 305,100.0 310,100.2 315,100.1 320,99.8 325,99.3 330,98.6 335,97.6 340,96.5 345,95.2 350,93.7 355,92.0 360,90.1 365,88.1 370,86.0 375,83.7 380,81.3 385,78.8 390,76.3 395,73.7 400,71.0" fill="none" stroke="#8b5cf6" stroke-width="3.0" opacity="0.13" />
    <polyline points="0,51.7 5,55.6 10,59.7 15,63.7 20,67.6 25,71.5 30,75.2 35,78.8 40,82.1 45,85.2 50,88.0 55,90.5 60,92.6 65,94.4 70,95.8 75,96.8 80,97.4 85,97.6 90,97.4 95,96.8 100,95.7 105,94.3 110,92.5 115,90.3 120,87.8 125,85.0 130,81.9 135,78.5 140,74.9 145,71.2 150,67.3 155,63.4 160,59.4 165,55.3 170,51.4 175,47.5 180,43.7 185,40.0 190,36.6 195,33.4 200,30.5 205,27.8 210,25.5 215,23.6 220,22.0 225,20.8 230,20.0 235,19.6 240,19.6 245,20.1 250,20.9 255,22.2 260,23.8 265,25.8 270,28.2 275,30.9 280,33.8 285,37.1 290,40.5 295,44.2 300,48.0 305,51.9 310,55.9 315,60.0 320,64.0 325,67.9 330,71.8 335,75.5 340,79.0 345,82.3 350,85.4 355,88.2 360,90.6 365,92.8 370,94.5 375,95.9 380,96.9 385,97.4 390,97.6 395,97.4 400,96.7" fill="none" stroke="#8b5cf6" stroke-width="2.2" opacity="0.12" />
    <polyline points="0,7.2 5,7.2 10,7.3 15,7.4 20,7.7 25,8.1 30,8.6 35,9.1 40,9.8 45,10.5 50,11.4 55,12.3 60,13.3 65,14.4 70,15.5 75,16.8 80,18.1 85,19.4 90,20.8 95,22.2 100,23.7 105,25.2 110,26.8 115,28.4 120,29.9 125,31.5 130,33.2 135,34.8 140,36.4 145,37.9 150,39.5 155,41.0 160,42.5 165,44.0 170,45.4 175,46.8 180,48.1 185,49.4 190,50.6 195,51.7 200,52.7 205,53.7 210,54.6 215,55.4 220,56.1 225,56.7 230,57.2 235,57.7 240,58.0 245,58.2 250,58.4 255,58.4 260,58.3 265,58.2 270,57.9 275,57.5 280,57.1 285,56.5 290,55.8 295,55.1 300,54.3 305,53.4 310,52.4 315,51.3 320,50.1 325,48.9 330,47.6 335,46.3 340,44.9 345,43.5 350,42.0 355,40.5 360,38.9 365,37.4 370,35.8 375,34.2 380,32.6 385,31.0 390,29.4 395,27.8 400,26.2" fill="none" stroke="#8b5cf6" stroke-width="2.9" opacity="0.27" />
    <polyline points="0,-7.5 5,-5.3 10,-2.9 15,-0.4 20,2.3 25,5.0 30,7.8 35,10.5 40,13.3 45,16.0 50,18.7 55,21.2 60,23.5 65,25.7 70,27.7 75,29.5 80,31.0 85,32.2 90,33.2 95,33.8 100,34.2 105,34.2 110,34.0 115,33.4 120,32.5 125,31.4 130,30.0 135,28.3 140,26.4 145,24.3 150,21.9 155,19.5 160,16.9 165,14.2 170,11.4 175,8.6 180,5.9 185,3.1 190,0.4 195,-2.1 200,-4.6 205,-6.8 210,-8.9 215,-10.8 220,-12.4 225,-13.8 230,-14.8 235,-15.6 240,-16.1 245,-16.3 250,-16.2 255,-15.7 260,-15.0 265,-14.0 270,-12.7 275,-11.1 280,-9.3 285,-7.3 290,-5.0 295,-2.6 300,-0.1 305,2.6 310,5.3 315,8.1 320,10.9 325,13.6 330,16.3 335,19.0 340,21.5 345,23.8 350,26.0 355,27.9 360,29.7 365,31.1 370,32.3 375,33.3 380,33.9 385,34.2 390,34.2 395,33.9 400,33.3" fill="none" stroke="#ec4899" stroke-width="2.3" opacity="0.28" /></g>
  <polygon points="297.8,-17.7 331.3,49.4 264.2,49.4" fill="#6366f1" opacity="0.35" />
    <polygon points="284.3,179.6 304.2,199.4 284.3,219.3 264.5,199.4" fill="#8b5cf6" opacity="0.14" />
    <circle cx="253.5" cy="203.0" r="31.2" fill="#6366f1" opacity="0.21" />
    <circle cx="106.7" cy="364.4" r="22.2" fill="#ec4899" opacity="0.31" />
    <rect x="8.5" y="210.8" width="50.4" height="50.4" fill="#6366f1" opacity="0.31" />
  
  <!-- Text background banner -->
  <defs>
    <linearGradient id="text-bg-14" x1="0%" y1="0%" x2="100%" y2="0%">
      <stop offset="0%" style="stop-color:#000000;stop-opacity:0.7" />
      <stop offset="50%" style="stop-color:#6366f1;stop-opacity:0.4" />
      <stop offset="100%" style="stop-color:#000000;stop-opacity:0.7" />
    </linearGradient>
  </defs>
  <rect x="0" y="494" width="400" height="56" fill="url(#text-bg-14)" />

  <!-- Text shadow -->
  <text x="200" y="522" font-family="system-ui, -apple-system, sans-serif" font-size="24" font-weight="bold" text-anchor="middle" fill="#000000" opacity="0.8">LinkedIn Larry</text>

  <!-- Main text -->
  <text x="200" y="520" font-family="system-ui, -apple-system, sans-serif" font-size="24" font-weight="bold" text-anchor="middle" fill="#ffffff">LinkedIn Larry</text>
  
  <!-- Rarity border -->
  <rect x="2" y="2" width="396" height="546"
        fill="none" stroke="#9ca3af" stroke-width="4" rx="8" ry="8" />
</svg>