<?xml version="1.0" encoding="UTF-8"?>
<svg xmlns="http://www.w3.org/2000/svg" viewBox="0 0 400 550" width="400" height="550">
  <defs>
    <linearGradient id="bg-gradient-023" x1="0%" y1="0%" x2="100%" y2="100%">
      <stop offset="0%" style="stop-color:#64748b;stop-opacity:0.26" />
      <stop offset="50%" style="stop-color:#94a3b8;stop-opacity:0.4" />
      <stop offset="100%" style="stop-color:#64748b;stop-opacity:0.26" />
    </linearGradient>
    
  <filter id="shadow-023">
    <feDropShadow dx="0" dy="2" stdDeviation="3" flood-opacity="0.8"/>
  </filter>
  </defs>
  <rect width="400" height="550" fill="url(#bg-gradient-0.2498364532366395)" />
  <g opacity="0.3"><polyline points="0,511.7 5,506.8 10,502.0 15,497.3 20,492.9 25,488.9 30,485.3 35,482.3 40,479.8 45,478.1 50,477.0 55,476.7 60,477.1 65,478.2 70,480.0 75,482.4 80,485.5 85,489.1 90,493.1 95,497.6 100,502.3 105,507.1 110,512.0 115,516.9 120,521.6 125,526.1 130,530.2 135,533.8 140,537.0 145,539.5 150,541.4 155,542.6 160,543.1 165,542.8 170,541.8 175,540.2 180,537.8 185,534.9 190,531.4 195,527.4 200,523.0 205,518.4 210,513.6 215,508.6 220,503.8 225,499.0 230,494.5 235,490.3 240,486.6 245,483.3 250,480.7 255,478.7 260,477.3 265,476.7 270,476.8 275,477.7 280,479.2 285,481.4 290,484.3 295,487.7 300,491.6 305,495.9 310,500.5 315,505.3 320,510.2 325,515.1 330,519.9 335,524.4 340,528.7 345,532.5 350,535.9 355,538.6 360,540.8 365,542.2 370,543.0 375,543.0 380,542.3 385,540.9 390,538.8 395,536.0 400,532.7" fill="none" stroke="#94a3b8" stroke-width="1.5" opacity="0.17" />
    <polyline points="0,60.5 5,60.5 10,60.6 15,61.0 20,61.6 25,62.4 30,63.3 35,64.5 40,65.8 45,67.2 50,68.7 55,70.4 60,72.1 65,74.0 70,75.8 75,77.7 80,79.5 85,81.4 90,83.2 95,84.9 100,86.5 105,88.0 110,89.4 115,90.7 120,91.8 125,92.7 130,93.4 135,93.9 140,94.2 145,94.3 150,94.2 155,93.9 160,93.4 165,92.7 170,91.9 175,90.8 180,89.6 185,88.2 190,86.7 195,85.1 200,83.4 205,81.6 210,79.7 215,77.9 220,76.0 225,74.2 230,72.3 235,70.6 240,68.9 245,67.3 250,65.9 255,64.6 260,63.5 265,62.5 270,61.7 275,61.1 280,60.7 285,60.5 290,60.5 295,60.7 300,61.1 305,61.7 310,62.5 315,63.5 320,64.7 325,66.0 330,67.4 335,69.0 340,70.7 345,72.5 350,74.3 355,76.1 360,78.0 365,79.9 370,81.7 375,83.5 380,85.2 385,86.8 390,88.3 395,89.7 400,90.9" fill="none" stroke="#94a3b8" stroke-width="1.7" opacity="0.24" />
    <polyline points="0,503.7 5,502.3 10,500.9 15,499.3 20,497.6 25,495.9 30,494.1 35,492.3 40,490.5 45,488.7 50,486.9 55,485.2 60,483.5 65,481.9 70,480.5 75,479.1 80,477.9 85,476.8 90,475.9 95,475.2 100,474.7 105,474.3 110,474.1 115,474.1 120,474.3 125,474.7 130,475.3 135,476.0 140,476.9 145,478.0 150,479.2 155,480.6 160,482.0 165,483.6 170,485.3 175,487.0 180,488.8 185,490.6 190,492.4 195,494.2 200,496.0 205,497.7 210,499.4 215,501.0 220,502.4 225,503.8 230,505.0 235,506.1 240,507.0 245,507.7 250,508.3 255,508.6 260,508.8 265,508.8 270,508.6 275,508.3 280,507.7 285,507.0 290,506.0 295,505.0 300,503.8 305,502.4 310,500.9 315,499.4 320,497.7 325,496.0 330,494.2 335,492.4 340,490.6 345,488.8 350,487.0 355,485.2 360,483.6 365,482.0 370,480.5 375,479.2 380,478.0 385,476.9 390,476.0 395,475.2 400,474.7" fill="none" stroke="#94a3b8" stroke-width="2.2" opacity="0.28" />
    <polyline points="0,73.9 5,72.9 10,71.8 15,70.6 20,69.4 25,68.1 30,66.7 35,65.4 40,64.0 45,62.6 50,61.1 55,59.6 60,58.1 65,56.6 70,55.1 75,53.6 80,52.1 85,50.6 90,49.1 95,47.6 100,46.2 105,44.7 110,43.4 115,42.0 120,40.7 125,39.4 130,38.2 135,37.1 140,36.0 145,34.9 150,34.0 155,33.1 160,32.2 165,31.5 170,30.8 175,30.2 180,29.7 185,29.2 190,28.9 195,28.6 200,28.4 205,28.3 210,28.3 215,28.4 220,28.6 225,28.8 230,29.2 235,29.6 240,30.1 245,30.7 250,31.3 255,32.1 260,32.9 265,33.8 270,34.8 275,35.8 280,36.9 285,38.0 290,39.2 295,40.5 300,41.8 305,43.1 310,44.5 315,45.9 320,47.4 325,48.8 330,50.3 335,51.8 340,53.3 345,54.9 350,56.4 355,57.9 360,59.4 365,60.9 370,62.3 375,63.8 380,65.2 385,66.5 390,67.9 395,69.1 400,70.4" fill="none" stroke="#64748b" stroke-width="2.1" opacity="0.23" />
    <polyline points="0,377.4 5,380.0 10,382.5 15,384.6 20,386.4 25,388.0 30,389.2 35,390.0 40,390.5 45,390.7 50,390.5 55,389.9 60,389.0 65,387.8 70,386.2 75,384.3 80,382.2 85,379.7 90,377.0 95,374.1 100,370.9 105,367.6 110,364.1 115,360.6 120,356.9 125,353.2 130,349.5 135,345.8 140,342.2 145,338.6 150,335.2 155,331.9 160,328.9 165,326.0 170,323.3 175,320.9 180,318.8 185,317.0 190,315.5 195,314.4 200,313.6 205,313.1 210,313.0 215,313.3 220,313.9 225,314.8 230,316.1 235,317.7 240,319.6 245,321.8 250,324.3 255,327.0 260,330.0 265,333.2 270,336.5 275,340.0 280,343.6 285,347.2 290,350.9 295,354.6 300,358.3 305,361.9 310,365.5 315,368.9 320,372.1 325,375.2 330,378.1 335,380.7 340,383.0 345,385.1 350,386.9 355,388.3 360,389.4 365,390.2 370,390.6 375,390.7 380,390.4 385,389.7 390,388.7 395,387.4 400,385.8" fill="none" stroke="#64748b" stroke-width="1.3" opacity="0.23" />
    <polyline points="0,410.9 5,407.2 10,403.4 15,399.5 20,395.7 25,392.0 30,388.4 35,385.0 40,381.7 45,378.7 50,375.9 55,373.5 60,371.4 65,369.6 70,368.2 75,367.2 80,366.7 85,366.5 90,366.7 95,367.4 100,368.4 105,369.8 110,371.6 115,373.8 120,376.3 125,379.1 130,382.1 135,385.4 140,388.9 145,392.5 150,396.2 155,400.0 160,403.9 165,407.7 170,411.4 175,415.0 180,418.5 185,421.8 190,424.8 195,427.6 200,430.1 205,432.2 210,434.1 215,435.5 220,436.5 225,437.2 230,437.4 235,437.2 240,436.6 245,435.6 250,434.2 255,432.5 260,430.4 265,427.9 270,425.2 275,422.2 280,418.9 285,415.4 290,411.8 295,408.1 300,404.3 305,400.5 310,396.7 315,392.9 320,389.3 325,385.8 330,382.5 335,379.4 340,376.6 345,374.1 350,371.9 355,370.0 360,368.6 365,367.5 370,366.8 375,366.5 380,366.6 385,367.2 390,368.1 395,369.4 400,371.2" fill="none" stroke="#64748b" stroke-width="1.9" opacity="0.15" />
    <polyline points="0,232.6 5,230.0 10,227.6 15,225.3 20,223.1 25,221.1 30,219.3 35,217.8 40,216.5 45,215.4 50,214.7 55,214.2 60,214.0 65,214.0 70,214.4 75,215.1 80,216.0 85,217.2 90,218.6 95,220.3 100,222.2 105,224.3 110,226.6 115,229.0 120,231.5 125,234.1 130,236.8 135,239.4 140,242.1 145,244.8 150,247.4 155,249.8 160,252.2 165,254.4 170,256.4 175,258.3 180,259.9 185,261.3 190,262.4 195,263.2 200,263.8 205,264.0 210,264.0 215,263.7 220,263.1 225,262.3 230,261.2 235,259.8 240,258.1 245,256.3 250,254.2 255,252.0 260,249.7 265,247.2 270,244.6 275,241.9 280,239.2 285,236.5 290,233.9 295,231.3 300,228.8 305,226.4 310,224.1 315,222.1 320,220.2 325,218.5 330,217.1 335,215.9 340,215.0 345,214.4 350,214.0 355,214.0 360,214.2 365,214.7 370,215.5 375,216.6 380,217.9 385,219.5 390,221.2 395,223.2 400,225.4" fill="none" stroke="#fbbf24" stroke-width="2.9" opacity="0.11" />
    <polyline points="0,239.5 5,235.9 10,232.2 15,228.2 20,224.3 25,220.3 30,216.3 35,212.5 40,208.8 45,205.4 50,202.3 55,199.6 60,197.2 65,195.3 70,193.8 75,192.9 80,192.4 85,192.4 90,193.0 95,194.0 100,195.6 105,197.6 110,200.0 115,202.8 120,206.0 125,209.5 130,213.1 135,217.0 140,220.9 145,224.9 150,228.9 155,232.8 160,236.5 165,240.1 170,243.3 175,246.2 180,248.8 185,250.9 190,252.6 195,253.8 200,254.5 205,254.7 210,254.4 215,253.5 220,252.2 225,250.4 230,248.2 235,245.5 240,242.5 245,239.2 250,235.6 255,231.8 260,227.9 265,223.9 270,219.9 275,216.0 280,212.2 285,208.5 290,205.2 295,202.1 300,199.4 305,197.0 310,195.1 315,193.7 320,192.8 325,192.4 330,192.5 335,193.1 340,194.2 345,195.7 350,197.8 355,200.3 360,203.1 365,206.3 370,209.8 375,213.5 380,217.3 385,221.3 390,225.3 395,229.3 400,233.1" fill="none" stroke="#64748b" stroke-width="1.6" opacity="0.30" />
    <polyline points="0,549.2 5,550.4 10,551.6 15,552.7 20,553.8 25,554.7 30,555.6 35,556.5 40,557.3 45,557.9 50,558.5 55,559.1 60,559.5 65,559.8 70,560.1 75,560.2 80,560.3 85,560.3 90,560.1 95,559.9 100,559.6 105,559.2 110,558.7 115,558.1 120,557.5 125,556.7 130,555.9 135,555.0 140,554.1 145,553.0 150,552.0 155,550.8 160,549.6 165,548.4 170,547.1 175,545.8 180,544.5 185,543.1 190,541.7 195,540.4 200,539.0 205,537.6 210,536.3 215,534.9 220,533.6 225,532.3 230,531.0 235,529.8 240,528.7 245,527.6 250,526.5 255,525.5 260,524.6 265,523.7 270,523.0 275,522.3 280,521.6 285,521.1 290,520.7 295,520.3 300,520.0 305,519.9 310,519.8 315,519.8 320,519.9 325,520.1 330,520.4 335,520.8 340,521.3 345,521.9 350,522.5 355,523.2 360,524.0 365,524.9 370,525.9 375,526.9 380,528.0 385,529.1 390,530.3 395,531.5 400,532.8" fill="none" stroke="#94a3b8" stroke-width="2.3" opacity="0.23" />
    <polyline points="0,208.0 5,209.3 10,211.3 15,213.9 20,217.2 25,221.0 30,225.2 35,229.9 40,234.8 45,240.0 50,245.3 55,250.6 60,255.8 65,260.8 70,265.6 75,269.9 80,273.9 85,277.3 90,280.1 95,282.3 100,283.8 105,284.6 110,284.7 115,284.0 120,282.6 125,280.6 130,277.9 135,274.6 140,270.7 145,266.4 150,261.7 155,256.8 160,251.6 165,246.3 170,241.0 175,235.8 180,230.8 185,226.1 190,221.7 195,217.9 200,214.5 205,211.7 210,209.6 215,208.2 220,207.5 225,207.5 230,208.2 235,209.7 240,211.8 245,214.6 250,218.0 255,221.9 260,226.2 265,230.9 270,235.9 275,241.1 280,246.4 285,251.7 290,256.9 295,261.9 300,266.6 305,270.8 310,274.7 315,278.0 320,280.7 325,282.7 330,284.0 335,284.7 340,284.6 345,283.8 350,282.3 355,280.1 360,277.2 365,273.8 370,269.8 375,265.4 380,260.7 385,255.6 390,250.4 395,245.1 400,239.8" fill="none" stroke="#fbbf24" stroke-width="2.4" opacity="0.16" />
    <polyline points="0,172.7 5,176.1 10,180.0 15,184.3 20,188.8 25,193.6 30,198.4 35,203.2 40,208.0 45,212.5 50,216.8 55,220.7 60,224.1 65,227.0 70,229.4 75,231.1 80,232.2 85,232.5 90,232.2 95,231.2 100,229.6 105,227.3 110,224.4 115,221.1 120,217.2 125,213.0 130,208.5 135,203.8 140,198.9 145,194.1 150,189.3 155,184.8 160,180.5 165,176.5 170,173.0 175,170.0 180,167.6 185,165.8 190,164.7 195,164.2 200,164.4 205,165.4 210,166.9 215,169.1 220,171.9 225,175.2 230,179.0 235,183.2 240,187.7 245,192.4 250,197.2 255,202.1 260,206.8 265,211.4 270,215.8 275,219.8 280,223.3 285,226.4 290,228.9 295,230.7 300,232.0 305,232.5 310,232.4 315,231.5 320,230.0 325,227.9 330,225.2 335,221.9 340,218.2 345,214.1 350,209.6 355,204.9 360,200.1 365,195.3 370,190.5 375,185.9 380,181.5 385,177.5 390,173.8 395,170.7 400,168.2" fill="none" stroke="#fbbf24" stroke-width="1.1" opacity="0.16" />
    <polyline points="0,15.9 5,14.8 10,13.9 15,13.1 20,12.4 25,11.8 30,11.3 35,10.9 40,10.6 45,10.5 50,10.4 55,10.5 60,10.7 65,11.0 70,11.4 75,11.9 80,12.6 85,13.3 90,14.2 95,15.1 100,16.2 105,17.3 110,18.6 115,19.9 120,21.3 125,22.8 130,24.4 135,26.0 140,27.8 145,29.5 150,31.3 155,33.2 160,35.1 165,37.1 170,39.1 175,41.1 180,43.1 185,45.1 190,47.1 195,49.2 200,51.2 205,53.2 210,55.2 215,57.1 220,59.1 225,60.9 230,62.8 235,64.6 240,66.3 245,67.9 250,69.5 255,71.1 260,72.5 265,73.9 270,75.1 275,76.3 280,77.4 285,78.4 290,79.2 295,80.0 300,80.7 305,81.2 310,81.7 315,82.0 320,82.2 325,82.3 330,82.3 335,82.2 340,82.0 345,81.6 350,81.1 355,80.6 360,79.9 365,79.1 370,78.2 375,77.2 380,76.1 385,74.9 390,73.6 395,72.2 400,70.8" fill="none" stroke="#94a3b8" stroke-width="1.9" opacity="0.13" /></g>
  <polygon points="329.6,280.2 366.3,353.7 292.9,353.7" fill="#64748b" opacity="0.17" />
    <polygon points="323.6,284.4 368.6,374.4 278.6,374.4" fill="#94a3b8" opacity="0.19" />
    <rect x="223.4" y="310.3" width="42.1" height="42.1" fill="#fbbf24" opacity="0.25" />
    <polygon points="42.6,173.6 68.6,225.5 16.7,225.5" fill="#64748b" opacity="0.27" />
    <circle cx="343.8" cy="365.0" r="10.1" fill="#64748b" opacity="0.28" />
    <polygon points="100.1,467.7 137.4,505.0 100.1,542.2 62.9,505.0" fill="#fbbf24" opacity="0.19" />
    <polygon points="300.7,328.1 324.1,374.9 277.3,374.9" fill="#94a3b8" opacity="0.26" />
    <polygon points="359.5,109.0 381.2,152.6 337.7,152.6" fill="#fbbf24" opacity="0.20" />
    <polygon points="163.1,189.9 210.8,237.6 163.1,285.3 115.5,237.6" fill="#fbbf24" opacity="0.15" />
    <circle cx="209.4" cy="106.6" r="46.8" fill="#94a3b8" opacity="0.16" />
    <polygon points="253.7,29.2 302.5,78.0 253.7,126.9 204.9,78.0" fill="#94a3b8" opacity="0.18" />
    <rect x="231.7" y="109.2" width="22.6" height="22.6" fill="#94a3b8" opacity="0.10" />
    <circle cx="238.8" cy="439.8" r="32.0" fill="#94a3b8" opacity="0.26" />
    <rect x="216.8" y="414.5" width="79.9" height="79.9" fill="#64748b" opacity="0.30" />
    <circle cx="282.5" cy="237.5" r="15.9" fill="#94a3b8" opacity="0.31" />
    <circle cx="162.6" cy="10.9" r="23.0" fill="#94a3b8" opacity="0.18" />
    <circle cx="184.0" cy="8.5" r="25.2" fill="#fbbf24" opacity="0.35" />
  
  <!-- Text background banner -->
  <defs>
    <linearGradient id="text-bg-23" x1="0%" y1="0%" x2="100%" y2="0%">
      <stop offset="0%" style="stop-color:#000000;stop-opacity:0.7" />
      <stop offset="50%" style="stop-color:#64748b;stop-opacity:0.4" />
      <stop offset="100%" style="stop-color:#000000;stop-opacity:0.7" />
    </linearGradient>
  </defs>
  <rect x="0" y="494" width="400" height="56" fill="url(#text-bg-23)" />

  <!-- Text shadow -->
  <text x="200" y="522" font-family="system-ui, -apple-system, sans-serif" font-size="24" font-weight="bold" text-anchor="middle" fill="#000000" opacity="0.8">Weber Wiener 3000 Grill</text>

  <!-- Main text -->
  <text x="200" y="520" font-family="system-ui, -apple-system, sans-serif" font-size="24" font-weight="bold" text-anchor="middle" fill="#ffffff">Weber Wiener 3000 Grill</text>
  
  <!-- Rarity border -->
  <rect x="6" y="6" width="388" height="538"
        fill="none" stroke="#f97316" stroke-width="12" rx="8" ry="8" />
</svg>