<?xml version="1.0" encoding="UTF-8"?>
<svg xmlns="http://www.w3.org/2000/svg" viewBox="0 0 400 550" width="400" height="550">
  <defs>
    <linearGradient id="bg-gradient-023" x1="0%" y1="0%" x2="100%" y2="100%">
      <stop offset="0%" style="stop-color:#8b5cf6;stop-opacity:0.26" />
      <stop offset="50%" style="stop-color:#ec4899;stop-opacity:0.4" />
      <stop offset="100%" style="stop-color:#8b5cf6;stop-opacity:0.26" />
    </linearGradient>
    
  <filter id="shadow-023">
    <feDropShadow dx="0" dy="2" stdDeviation="3" flood-opacity="0.8"/>
  </filter>
  </defs>
  <rect width="400" height="550" fill="url(#bg-gradient-0.2498364532366395)" />
  <g opacity="0.3"><polyline points="0,511.7 5,506.8 10,502.0 15,497.3 20,492.9 25,488.9 30,485.3 35,482.3 40,479.8 45,478.1 50,477.0 55,476.7 60,477.1 65,478.2 70,480.0 75,482.4 80,485.5 85,489.1 90,493.1 95,497.6 100,502.3 105,507.1 110,512.0 115,516.9 120,521.6 125,526.1 130,530.2 135,533.8 140,537.0 145,539.5 150,541.4 155,542.6 160,543.1 165,542.8 170,541.8 175,540.2 180,537.8 185,534.9 190,531.4 195,527.4 200,523.0 205,518.4 210,513.6 215,508.6 220,503.8 225,499.0 230,494.5 235,490.3 240,486.6 245,483.3 250,480.7 255,478.7 260,477.3 265,476.7 270,476.8 275,477.7 280,479.2 285,481.4 290,484.3 295,487.7 300,491.6 305,495.9 310,500.5 315,505.3 320,510.2 325,515.1 330,519.9 335,524.4 340,528.7 345,532.5 350,535.9 355,538.6 360,540.8 365,542.2 370,543.0 375,543.0 380,542.3 385,540.9 390,538.8 395,536.0 400,532.7" fill="none" stroke="#ec4899" stroke-width="1.5" opacity="0.17" />
    <polyline points="0,60.5 5,60.5 10,60.6 15,61.0 20,61.6 25,62.4 30,63.3 35,64.5 40,65.8 45,67.2 50,68.7 55,70.4 60,72.1 65,74.0 70,75.8 75,77.7 80,79.5 85,81.4 90,83.2 95,84.9 100,86.5 105,88.0 110,89.4 115,90.7 120,91.8 125,92.7 130,93.4 135,93.9 140,94.2 145,94.3 150,94.2 155,93.9 160,93.4 165,92.7 170,91.9 175,90.8 180,89.6 185,88.2 190,86.7 195,85.1 200,83.4 205,81.6 210,79.7 215,77.9 220,76.0 225,74.2 230,72.3 235,70.6 240,68.9 245,67.3 250,65.9 255,64.6 260,63.5 265,62.5 270,61.7 275,61.1 280,60.7 285,60.5 290,60.5 295,60.7 300,61.1 305,61.7 310,62.5 315,63.5 320,64.7 325,66.0 330,67.4 335,69.0 340,70.7 345,72.5 350,74.3 355,76.1 360,78.0 365,79.9 370,81.7 375,83.5 380,85.2 385,86.8 390,88.3 395,89.7 400,90.9" fill="none" stroke="#ec4899" stroke-width="1.7" opacity="0.24" />
    <polyline points="0,503.7 5,502.3 10,500.9 15,499.3 20,497.6 25,495.9 30,494.1 35,492.3 40,490.5 45,488.7 50,486.9 55,485.2 60,483.5 65,481.9 70,480.5 75,479.1 80,477.9 85,476.8 90,475.9 95,475.2 100,474.7 105,474.3 110,474.1 115,474.1 120,474.3 125,474.7 130,475.3 135,476.0 140,476.9 145,478.0 150,479.2 155,480.6 160,482.0 165,483.6 170,485.3 175,487.0 180,488.8 185,490.6 190,492.4 195,494.2 200,496.0 205,497.7 210,499.4 215,501.0 220,502.4 225,503.8 230,505.0 235,506.1 240,507.0 245,507.7 250,508.3 255,508.6 260,508.8 265,508.8 270,508.6 275,508.3 280,507.7 285,507.0 290,506.0 295,505.0 300,503.8 305,502.4 310,500.9 315,499.4 320,497.7 325,496.0 330,494.2 335,492.4 340,490.6 345,488.8 350,487.0 355,485.2 360,483.6 365,482.0 370,480.5 375,479.2 380,478.0 385,476.9 390,476.0 395,475.2 400,474.7" fill="none" stroke="#ec4899" stroke-width="2.2" opacity="0.28" />
    <polyline points="0,73.9 5,72.9 10,71.8 15,70.6 20,69.4 25,68.1 30,66.7 35,65.4 40,64.0 45,62.6 50,61.1 55,59.6 60,58.1 65,56.6 70,55.1 75,53.6 80,52.1 85,50.6 90,49.1 95,47.6 100,46.2 105,44.7 110,43.4 115,42.0 120,40.7 125,39.4 130,38.2 135,37.1 140,36.0 145,34.9 150,34.0 155,33.1 160,32.2 165,31.5 170,30.8 175,30.2 180,29.7 185,29.2 190,28.9 195,28.6 200,28.4 205,28.3 210,28.3 215,28.4 220,28.6 225,28.8 230,29.2 235,29.6 240,30.1 245,30.7 250,31.3 255,32.1 260,32.9 265,33.8 270,34.8 275,35.8 280,36.9 285,38.0 290,39.2 295,40.5 300,41.8 305,43.1 310,44.5 315,45.9 320,47.4 325,48.8 330,50.3 335,51.8 340,53.3 345,54.9 350,56.4 355,57.9 360,59.4 365,60.9 370,62.3 375,63.8 380,65.2 385,66.5 390,67.9 395,69.1 400,70.4" fill="none" stroke="#8b5cf6" stroke-width="2.1" opacity="0.23" /></g>
  <polygon points="53.1,43.0 89.6,79.5 53.1,116.1 16.5,79.5" fill="#ec4899" opacity="0.13" />
    <rect x="228.2" y="106.1" width="55.3" height="55.3" fill="#f97316" opacity="0.27" />
    <polygon points="183.7,363.9 221.8,401.9 183.7,440.0 145.7,401.9" fill="#8b5cf6" opacity="0.25" />
    <circle cx="229.7" cy="297.7" r="27.4" fill="#8b5cf6" opacity="0.40" />
    <rect x="255.8" y="404.9" width="53.2" height="53.2" fill="#ec4899" opacity="0.29" />
  
  <!-- Text background banner -->
  <defs>
    <linearGradient id="text-bg-13" x1="0%" y1="0%" x2="100%" y2="0%">
      <stop offset="0%" style="stop-color:#000000;stop-opacity:0.7" />
      <stop offset="50%" style="stop-color:#8b5cf6;stop-opacity:0.4" />
      <stop offset="100%" style="stop-color:#000000;stop-opacity:0.7" />
    </linearGradient>
  </defs>
  <rect x="0" y="494" width="400" height="56" fill="url(#text-bg-13)" />

  <!-- Text shadow -->
  <text x="200" y="522" font-family="system-ui, -apple-system, sans-serif" font-size="24" font-weight="bold" text-anchor="middle" fill="#000000" opacity="0.8">Band Dad Brad</text>

  <!-- Main text -->
  <text x="200" y="520" font-family="system-ui, -apple-system, sans-serif" font-size="24" font-weight="bold" text-anchor="middle" fill="#ffffff">Band Dad Brad</text>
  
  <!-- Rarity border -->
  <rect x="2" y="2" width="396" height="546"
        fill="none" stroke="#9ca3af" stroke-width="4" rx="8" ry="8" />
</svg>