<?xml version="1.0" encoding="UTF-8"?>
<svg xmlns="http://www.w3.org/2000/svg" viewBox="0 0 400 550" width="400" height="550">
  <defs>
    <linearGradient id="bg-gradient-024" x1="0%" y1="0%" x2="100%" y2="100%">
      <stop offset="0%" style="stop-color:#64748b;stop-opacity:0.26" />
      <stop offset="50%" style="stop-color:#94a3b8;stop-opacity:0.4" />
      <stop offset="100%" style="stop-color:#64748b;stop-opacity:0.26" />
    </linearGradient>
    
  <filter id="shadow-024">
    <feDropShadow dx="0" dy="2" stdDeviation="3" flood-opacity="0.8"/>
  </filter>
  </defs>
  <rect width="400" height="550" fill="url(#bg-gradient-0.8133099344559014)" />
  <g opacity="0.3"><circle cx="4.3" cy="2.8" r="8" fill="#94a3b8" />
    <circle cx="1.3" cy="29.8" r="8" fill="#ef4444" />
    <circle cx="8.1" cy="49.8" r="8" fill="#94a3b8" />
    <circle cx="7.0" cy="101.4" r="8" fill="#ef4444" />
    <circle cx="4.1" cy="123.3" r="8" fill="#ef4444" />
    <circle cx="6.3" cy="164.1" r="8" fill="#ef4444" />
    <circle cx="1.0" cy="187.6" r="8" fill="#64748b" />
    <circle cx="5.7" cy="223.3" r="8" fill="#ef4444" />
    <circle cx="1.7" cy="245.8" r="8" fill="#64748b" />
    <circle cx="6.2" cy="282.5" r="8" fill="#64748b" />
    <circle cx="0.0" cy="321.7" r="8" fill="#ef4444" />
    <circle cx="9.5" cy="343.2" r="8" fill="#64748b" />
    <circle cx="6.0" cy="402.5" r="8" fill="#ef4444" />
    <circle cx="3.4" cy="446.4" r="8" fill="#94a3b8" />
    <circle cx="0.3" cy="485.7" r="8" fill="#ef4444" />
    <circle cx="6.4" cy="504.5" r="8" fill="#ef4444" />
    <circle cx="7.5" cy="527.3" r="8" fill="#94a3b8" />
    <circle cx="5.1" cy="549.0" r="8" fill="#ef4444" />
    <circle cx="23.1" cy="1.7" r="8" fill="#94a3b8" />
    <circle cx="25.8" cy="40.2" r="8" fill="#ef4444" />
    <circle cx="29.2" cy="69.6" r="8" fill="#64748b" />
    <circle cx="29.0" cy="85.4" r="8" fill="#94a3b8" />
    <circle cx="20.7" cy="106.4" r="8" fill="#64748b" />
    <circle cx="23.4" cy="145.0" r="8" fill="#94a3b8" />
    <circle cx="21.0" cy="185.3" r="8" fill="#ef4444" />
    <circle cx="28.5" cy="206.0" r="8" fill="#64748b" />
    <circle cx="28.2" cy="228.9" r="8" fill="#94a3b8" />
    <circle cx="26.9" cy="242.3" r="8" fill="#ef4444" />
    <circle cx="27.7" cy="301.3" r="8" fill="#64748b" />
    <circle cx="25.3" cy="328.2" r="8" fill="#94a3b8" />
    <circle cx="25.1" cy="345.5" r="8" fill="#94a3b8" />
    <circle cx="24.8" cy="365.9" r="8" fill="#94a3b8" />
    <circle cx="26.6" cy="404.2" r="8" fill="#94a3b8" />
    <circle cx="25.4" cy="426.5" r="8" fill="#ef4444" />
    <circle cx="25.9" cy="462.3" r="8" fill="#64748b" />
    <circle cx="28.8" cy="507.1" r="8" fill="#94a3b8" />
    <circle cx="23.3" cy="544.3" r="8" fill="#94a3b8" />
    <circle cx="40.9" cy="25.2" r="8" fill="#ef4444" />
    <circle cx="48.8" cy="49.3" r="8" fill="#94a3b8" />
    <circle cx="40.1" cy="62.4" r="8" fill="#ef4444" />
    <circle cx="41.6" cy="88.1" r="8" fill="#94a3b8" />
    <circle cx="44.8" cy="222.2" r="8" fill="#64748b" />
    <circle cx="43.2" cy="267.4" r="8" fill="#94a3b8" />
    <circle cx="45.0" cy="284.0" r="8" fill="#94a3b8" />
    <circle cx="42.2" cy="384.7" r="8" fill="#94a3b8" />
    <circle cx="42.0" cy="408.9" r="8" fill="#64748b" />
    <circle cx="46.4" cy="425.4" r="8" fill="#ef4444" />
    <circle cx="49.0" cy="461.4" r="8" fill="#ef4444" />
    <circle cx="40.4" cy="482.1" r="8" fill="#64748b" />
    <circle cx="48.0" cy="522.8" r="8" fill="#ef4444" />
    <circle cx="45.3" cy="540.6" r="8" fill="#64748b" />
    <circle cx="65.9" cy="9.7" r="8" fill="#ef4444" />
    <circle cx="62.3" cy="27.9" r="8" fill="#64748b" />
    <circle cx="62.7" cy="64.0" r="8" fill="#64748b" />
    <circle cx="64.8" cy="107.2" r="8" fill="#94a3b8" />
    <circle cx="66.7" cy="141.6" r="8" fill="#64748b" />
    <circle cx="66.0" cy="168.2" r="8" fill="#64748b" />
    <circle cx="66.5" cy="181.5" r="8" fill="#64748b" />
    <circle cx="61.2" cy="228.6" r="8" fill="#ef4444" />
    <circle cx="60.2" cy="244.6" r="8" fill="#ef4444" />
    <circle cx="61.1" cy="289.8" r="8" fill="#64748b" />
    <circle cx="66.5" cy="309.8" r="8" fill="#ef4444" />
    <circle cx="63.2" cy="321.7" r="8" fill="#64748b" />
    <circle cx="60.8" cy="344.3" r="8" fill="#94a3b8" />
    <circle cx="63.0" cy="368.9" r="8" fill="#94a3b8" />
    <circle cx="65.5" cy="427.5" r="8" fill="#64748b" />
    <circle cx="68.2" cy="466.2" r="8" fill="#ef4444" />
    <circle cx="67.2" cy="480.5" r="8" fill="#ef4444" />
    <circle cx="65.6" cy="504.5" r="8" fill="#ef4444" />
    <circle cx="65.3" cy="524.0" r="8" fill="#64748b" />
    <circle cx="63.8" cy="540.8" r="8" fill="#94a3b8" />
    <circle cx="87.5" cy="5.3" r="8" fill="#94a3b8" />
    <circle cx="81.3" cy="25.6" r="8" fill="#ef4444" />
    <circle cx="80.1" cy="45.0" r="8" fill="#64748b" />
    <circle cx="80.1" cy="66.0" r="8" fill="#64748b" />
    <circle cx="89.0" cy="87.5" r="8" fill="#94a3b8" />
    <circle cx="83.6" cy="126.4" r="8" fill="#ef4444" />
    <circle cx="84.8" cy="140.9" r="8" fill="#ef4444" />
    <circle cx="87.6" cy="166.2" r="8" fill="#ef4444" />
    <circle cx="81.6" cy="184.8" r="8" fill="#ef4444" />
    <circle cx="83.7" cy="207.2" r="8" fill="#94a3b8" />
    <circle cx="82.7" cy="246.4" r="8" fill="#ef4444" />
    <circle cx="82.3" cy="269.8" r="8" fill="#94a3b8" />
    <circle cx="82.2" cy="284.5" r="8" fill="#64748b" />
    <circle cx="80.1" cy="322.6" r="8" fill="#ef4444" />
    <circle cx="83.1" cy="347.5" r="8" fill="#94a3b8" />
    <circle cx="86.6" cy="366.6" r="8" fill="#ef4444" />
    <circle cx="87.8" cy="427.2" r="8" fill="#64748b" />
    <circle cx="88.3" cy="445.6" r="8" fill="#ef4444" />
    <circle cx="80.8" cy="465.5" r="8" fill="#94a3b8" />
    <circle cx="85.9" cy="488.9" r="8" fill="#ef4444" />
    <circle cx="89.2" cy="509.7" r="8" fill="#ef4444" />
    <circle cx="82.7" cy="525.5" r="8" fill="#64748b" />
    <circle cx="108.9" cy="9.7" r="8" fill="#ef4444" />
    <circle cx="104.5" cy="23.9" r="8" fill="#94a3b8" />
    <circle cx="101.6" cy="49.8" r="8" fill="#64748b" />
    <circle cx="106.3" cy="68.0" r="8" fill="#94a3b8" />
    <circle cx="101.6" cy="104.8" r="8" fill="#64748b" />
    <circle cx="101.0" cy="120.4" r="8" fill="#94a3b8" />
    <circle cx="103.2" cy="149.1" r="8" fill="#64748b" />
    <circle cx="105.3" cy="168.6" r="8" fill="#64748b" />
    <circle cx="107.9" cy="185.6" r="8" fill="#64748b" />
    <circle cx="108.0" cy="207.6" r="8" fill="#ef4444" />
    <circle cx="102.2" cy="226.5" r="8" fill="#64748b" />
    <circle cx="106.1" cy="269.4" r="8" fill="#ef4444" />
    <circle cx="104.6" cy="286.6" r="8" fill="#ef4444" />
    <circle cx="100.8" cy="306.5" r="8" fill="#64748b" />
    <circle cx="101.3" cy="323.9" r="8" fill="#64748b" />
    <circle cx="104.3" cy="347.1" r="8" fill="#94a3b8" />
    <circle cx="105.1" cy="405.2" r="8" fill="#64748b" />
    <circle cx="107.2" cy="425.3" r="8" fill="#ef4444" />
    <circle cx="108.8" cy="460.9" r="8" fill="#94a3b8" />
    <circle cx="107.5" cy="486.9" r="8" fill="#94a3b8" />
    <circle cx="109.2" cy="502.0" r="8" fill="#64748b" />
    <circle cx="104.0" cy="544.4" r="8" fill="#64748b" />
    <circle cx="129.0" cy="6.8" r="8" fill="#94a3b8" />
    <circle cx="126.8" cy="25.6" r="8" fill="#64748b" />
    <circle cx="129.3" cy="43.9" r="8" fill="#64748b" />
    <circle cx="126.1" cy="67.8" r="8" fill="#94a3b8" />
    <circle cx="123.7" cy="89.8" r="8" fill="#64748b" />
    <circle cx="121.6" cy="108.5" r="8" fill="#ef4444" />
    <circle cx="127.2" cy="143.4" r="8" fill="#64748b" />
    <circle cx="127.8" cy="163.2" r="8" fill="#94a3b8" />
    <circle cx="121.2" cy="189.2" r="8" fill="#64748b" />
    <circle cx="129.0" cy="227.1" r="8" fill="#64748b" />
    <circle cx="125.8" cy="265.1" r="8" fill="#64748b" />
    <circle cx="122.4" cy="282.0" r="8" fill="#94a3b8" />
    <circle cx="121.4" cy="300.4" r="8" fill="#94a3b8" />
    <circle cx="126.7" cy="320.6" r="8" fill="#64748b" />
    <circle cx="123.4" cy="361.1" r="8" fill="#64748b" />
    <circle cx="129.1" cy="381.2" r="8" fill="#ef4444" />
    <circle cx="124.0" cy="443.5" r="8" fill="#ef4444" />
    <circle cx="125.4" cy="484.2" r="8" fill="#64748b" />
    <circle cx="123.5" cy="502.6" r="8" fill="#64748b" />
    <circle cx="128.4" cy="520.2" r="8" fill="#ef4444" />
    <circle cx="123.6" cy="540.8" r="8" fill="#64748b" />
    <circle cx="140.3" cy="0.9" r="8" fill="#64748b" />
    <circle cx="150.0" cy="29.2" r="8" fill="#94a3b8" />
    <circle cx="145.9" cy="40.8" r="8" fill="#ef4444" />
    <circle cx="143.4" cy="101.9" r="8" fill="#94a3b8" />
    <circle cx="142.5" cy="184.2" r="8" fill="#94a3b8" />
    <circle cx="146.7" cy="247.4" r="8" fill="#64748b" />
    <circle cx="146.6" cy="268.8" r="8" fill="#ef4444" />
    <circle cx="141.8" cy="323.8" r="8" fill="#94a3b8" />
    <circle cx="148.6" cy="348.4" r="8" fill="#94a3b8" />
    <circle cx="144.4" cy="363.8" r="8" fill="#ef4444" />
    <circle cx="143.5" cy="382.0" r="8" fill="#ef4444" />
    <circle cx="146.6" cy="442.7" r="8" fill="#64748b" />
    <circle cx="144.5" cy="469.5" r="8" fill="#ef4444" />
    <circle cx="142.5" cy="507.7" r="8" fill="#94a3b8" />
    <circle cx="146.9" cy="524.5" r="8" fill="#64748b" />
    <circle cx="144.3" cy="547.4" r="8" fill="#64748b" />
    <circle cx="162.6" cy="2.7" r="8" fill="#ef4444" />
    <circle cx="166.6" cy="22.2" r="8" fill="#94a3b8" />
    <circle cx="169.4" cy="100.9" r="8" fill="#ef4444" />
    <circle cx="166.1" cy="123.1" r="8" fill="#64748b" />
    <circle cx="167.8" cy="142.2" r="8" fill="#ef4444" />
    <circle cx="162.1" cy="160.7" r="8" fill="#94a3b8" />
    <circle cx="168.9" cy="181.2" r="8" fill="#64748b" />
    <circle cx="162.5" cy="224.4" r="8" fill="#ef4444" />
    <circle cx="160.2" cy="245.1" r="8" fill="#94a3b8" />
    <circle cx="160.2" cy="287.6" r="8" fill="#ef4444" />
    <circle cx="169.0" cy="301.7" r="8" fill="#64748b" />
    <circle cx="162.9" cy="327.4" r="8" fill="#ef4444" />
    <circle cx="166.8" cy="365.9" r="8" fill="#94a3b8" />
    <circle cx="160.1" cy="380.7" r="8" fill="#94a3b8" />
    <circle cx="164.3" cy="448.3" r="8" fill="#ef4444" />
    <circle cx="168.4" cy="461.1" r="8" fill="#64748b" />
    <circle cx="161.7" cy="487.5" r="8" fill="#64748b" />
    <circle cx="168.4" cy="503.3" r="8" fill="#ef4444" />
    <circle cx="168.2" cy="521.4" r="8" fill="#64748b" />
    <circle cx="165.5" cy="540.3" r="8" fill="#ef4444" />
    <circle cx="186.2" cy="2.6" r="8" fill="#ef4444" />
    <circle cx="180.1" cy="49.2" r="8" fill="#94a3b8" />
    <circle cx="182.6" cy="62.3" r="8" fill="#64748b" />
    <circle cx="187.6" cy="148.7" r="8" fill="#94a3b8" />
    <circle cx="188.5" cy="160.6" r="8" fill="#94a3b8" />
    <circle cx="183.2" cy="188.4" r="8" fill="#64748b" />
    <circle cx="187.9" cy="205.0" r="8" fill="#94a3b8" />
    <circle cx="181.2" cy="223.8" r="8" fill="#ef4444" />
    <circle cx="184.0" cy="242.6" r="8" fill="#64748b" />
    <circle cx="185.9" cy="263.3" r="8" fill="#ef4444" />
    <circle cx="186.0" cy="284.3" r="8" fill="#94a3b8" />
    <circle cx="187.7" cy="300.4" r="8" fill="#ef4444" />
    <circle cx="185.5" cy="328.7" r="8" fill="#64748b" />
    <circle cx="180.4" cy="343.4" r="8" fill="#ef4444" />
    <circle cx="182.8" cy="385.1" r="8" fill="#ef4444" />
    <circle cx="185.0" cy="403.6" r="8" fill="#94a3b8" />
    <circle cx="180.7" cy="440.7" r="8" fill="#ef4444" />
    <circle cx="189.6" cy="488.5" r="8" fill="#ef4444" />
    <circle cx="187.0" cy="505.9" r="8" fill="#94a3b8" />
    <circle cx="180.1" cy="540.6" r="8" fill="#64748b" />
    <circle cx="201.1" cy="2.8" r="8" fill="#64748b" />
    <circle cx="203.1" cy="48.0" r="8" fill="#ef4444" />
    <circle cx="202.9" cy="69.2" r="8" fill="#64748b" />
    <circle cx="205.6" cy="89.9" r="8" fill="#94a3b8" />
    <circle cx="204.5" cy="106.8" r="8" fill="#64748b" />
    <circle cx="206.3" cy="145.6" r="8" fill="#ef4444" />
    <circle cx="206.7" cy="183.2" r="8" fill="#94a3b8" />
    <circle cx="206.4" cy="204.4" r="8" fill="#ef4444" />
    <circle cx="200.8" cy="248.1" r="8" fill="#94a3b8" />
    <circle cx="206.3" cy="261.7" r="8" fill="#94a3b8" />
    <circle cx="207.1" cy="281.3" r="8" fill="#64748b" />
    <circle cx="208.9" cy="305.6" r="8" fill="#64748b" />
    <circle cx="209.0" cy="323.9" r="8" fill="#ef4444" />
    <circle cx="203.0" cy="343.0" r="8" fill="#94a3b8" />
    <circle cx="206.7" cy="406.2" r="8" fill="#64748b" />
    <circle cx="201.4" cy="421.8" r="8" fill="#64748b" />
    <circle cx="200.1" cy="443.0" r="8" fill="#64748b" />
    <circle cx="200.3" cy="460.2" r="8" fill="#ef4444" />
    <circle cx="201.9" cy="481.2" r="8" fill="#64748b" />
    <circle cx="200.6" cy="526.1" r="8" fill="#94a3b8" />
    <circle cx="226.0" cy="5.3" r="8" fill="#ef4444" />
    <circle cx="221.6" cy="24.2" r="8" fill="#94a3b8" />
    <circle cx="221.5" cy="48.8" r="8" fill="#94a3b8" />
    <circle cx="220.3" cy="68.7" r="8" fill="#64748b" />
    <circle cx="221.4" cy="89.0" r="8" fill="#94a3b8" />
    <circle cx="221.7" cy="120.2" r="8" fill="#64748b" />
    <circle cx="224.3" cy="143.3" r="8" fill="#94a3b8" />
    <circle cx="220.6" cy="169.9" r="8" fill="#64748b" />
    <circle cx="221.0" cy="207.2" r="8" fill="#94a3b8" />
    <circle cx="225.8" cy="229.6" r="8" fill="#ef4444" />
    <circle cx="222.0" cy="244.7" r="8" fill="#ef4444" />
    <circle cx="228.0" cy="268.4" r="8" fill="#64748b" />
    <circle cx="226.4" cy="286.0" r="8" fill="#ef4444" />
    <circle cx="227.6" cy="346.3" r="8" fill="#ef4444" />
    <circle cx="225.7" cy="382.2" r="8" fill="#ef4444" />
    <circle cx="224.8" cy="423.8" r="8" fill="#ef4444" />
    <circle cx="224.9" cy="440.1" r="8" fill="#ef4444" />
    <circle cx="226.1" cy="480.6" r="8" fill="#94a3b8" />
    <circle cx="220.2" cy="507.5" r="8" fill="#ef4444" />
    <circle cx="225.1" cy="529.9" r="8" fill="#ef4444" />
    <circle cx="224.7" cy="541.7" r="8" fill="#64748b" />
    <circle cx="246.6" cy="44.5" r="8" fill="#64748b" />
    <circle cx="241.3" cy="102.1" r="8" fill="#94a3b8" />
    <circle cx="245.6" cy="148.2" r="8" fill="#94a3b8" />
    <circle cx="244.7" cy="162.8" r="8" fill="#64748b" />
    <circle cx="241.3" cy="185.6" r="8" fill="#64748b" />
    <circle cx="246.1" cy="202.5" r="8" fill="#64748b" />
    <circle cx="248.7" cy="246.8" r="8" fill="#94a3b8" />
    <circle cx="240.5" cy="263.0" r="8" fill="#94a3b8" />
    <circle cx="244.1" cy="288.5" r="8" fill="#94a3b8" />
    <circle cx="247.2" cy="308.0" r="8" fill="#ef4444" />
    <circle cx="241.4" cy="325.0" r="8" fill="#64748b" />
    <circle cx="249.4" cy="345.4" r="8" fill="#64748b" />
    <circle cx="240.2" cy="384.9" r="8" fill="#94a3b8" />
    <circle cx="243.9" cy="405.7" r="8" fill="#ef4444" />
    <circle cx="249.0" cy="421.7" r="8" fill="#94a3b8" />
    <circle cx="245.0" cy="444.5" r="8" fill="#64748b" />
    <circle cx="244.4" cy="467.0" r="8" fill="#94a3b8" />
    <circle cx="247.8" cy="482.8" r="8" fill="#ef4444" />
    <circle cx="242.8" cy="503.3" r="8" fill="#64748b" />
    <circle cx="242.3" cy="527.6" r="8" fill="#ef4444" />
    <circle cx="246.2" cy="544.5" r="8" fill="#ef4444" />
    <circle cx="268.5" cy="0.9" r="8" fill="#94a3b8" />
    <circle cx="268.1" cy="48.4" r="8" fill="#ef4444" />
    <circle cx="269.4" cy="63.8" r="8" fill="#94a3b8" />
    <circle cx="269.5" cy="87.7" r="8" fill="#94a3b8" />
    <circle cx="268.2" cy="106.4" r="8" fill="#94a3b8" />
    <circle cx="264.2" cy="126.3" r="8" fill="#64748b" />
    <circle cx="265.4" cy="142.7" r="8" fill="#64748b" />
    <circle cx="269.3" cy="183.8" r="8" fill="#64748b" />
    <circle cx="260.1" cy="208.5" r="8" fill="#94a3b8" />
    <circle cx="269.6" cy="221.3" r="8" fill="#ef4444" />
    <circle cx="267.5" cy="263.4" r="8" fill="#94a3b8" />
    <circle cx="265.6" cy="287.5" r="8" fill="#ef4444" />
    <circle cx="262.4" cy="304.2" r="8" fill="#64748b" />
    <circle cx="264.9" cy="322.6" r="8" fill="#94a3b8" />
    <circle cx="269.8" cy="343.6" r="8" fill="#ef4444" />
    <circle cx="262.6" cy="409.1" r="8" fill="#94a3b8" />
    <circle cx="262.7" cy="427.9" r="8" fill="#ef4444" />
    <circle cx="268.6" cy="447.0" r="8" fill="#ef4444" />
    <circle cx="261.9" cy="486.7" r="8" fill="#94a3b8" />
    <circle cx="266.1" cy="509.8" r="8" fill="#64748b" />
    <circle cx="268.8" cy="528.9" r="8" fill="#64748b" />
    <circle cx="264.7" cy="549.1" r="8" fill="#ef4444" />
    <circle cx="287.9" cy="1.6" r="8" fill="#64748b" />
    <circle cx="284.3" cy="25.3" r="8" fill="#94a3b8" />
    <circle cx="283.0" cy="43.9" r="8" fill="#64748b" />
    <circle cx="281.0" cy="62.7" r="8" fill="#ef4444" />
    <circle cx="284.2" cy="86.5" r="8" fill="#ef4444" />
    <circle cx="282.2" cy="104.5" r="8" fill="#94a3b8" />
    <circle cx="286.6" cy="127.9" r="8" fill="#94a3b8" />
    <circle cx="280.5" cy="145.2" r="8" fill="#94a3b8" />
    <circle cx="288.0" cy="167.5" r="8" fill="#94a3b8" />
    <circle cx="286.1" cy="185.7" r="8" fill="#64748b" />
    <circle cx="282.7" cy="203.1" r="8" fill="#ef4444" />
    <circle cx="287.2" cy="229.7" r="8" fill="#64748b" />
    <circle cx="287.3" cy="284.3" r="8" fill="#64748b" />
    <circle cx="287.9" cy="345.9" r="8" fill="#64748b" />
    <circle cx="287.0" cy="383.1" r="8" fill="#64748b" />
    <circle cx="280.8" cy="401.5" r="8" fill="#64748b" />
    <circle cx="282.1" cy="440.1" r="8" fill="#64748b" />
    <circle cx="287.0" cy="509.7" r="8" fill="#ef4444" />
    <circle cx="287.5" cy="540.4" r="8" fill="#94a3b8" />
    <circle cx="300.3" cy="25.9" r="8" fill="#ef4444" />
    <circle cx="304.7" cy="45.2" r="8" fill="#94a3b8" />
    <circle cx="305.8" cy="81.6" r="8" fill="#94a3b8" />
    <circle cx="301.9" cy="108.0" r="8" fill="#64748b" />
    <circle cx="309.1" cy="147.4" r="8" fill="#ef4444" />
    <circle cx="309.2" cy="162.5" r="8" fill="#ef4444" />
    <circle cx="306.6" cy="183.2" r="8" fill="#ef4444" />
    <circle cx="300.3" cy="221.1" r="8" fill="#ef4444" />
    <circle cx="308.9" cy="249.4" r="8" fill="#64748b" />
    <circle cx="307.3" cy="268.9" r="8" fill="#64748b" />
    <circle cx="305.0" cy="284.9" r="8" fill="#ef4444" />
    <circle cx="305.8" cy="304.0" r="8" fill="#94a3b8" />
    <circle cx="306.6" cy="342.5" r="8" fill="#94a3b8" />
    <circle cx="306.7" cy="367.1" r="8" fill="#64748b" />
    <circle cx="305.6" cy="383.9" r="8" fill="#ef4444" />
    <circle cx="305.9" cy="422.9" r="8" fill="#ef4444" />
    <circle cx="309.4" cy="509.7" r="8" fill="#64748b" />
    <circle cx="305.5" cy="521.3" r="8" fill="#ef4444" />
    <circle cx="329.8" cy="24.9" r="8" fill="#64748b" />
    <circle cx="326.6" cy="48.6" r="8" fill="#ef4444" />
    <circle cx="323.7" cy="62.1" r="8" fill="#64748b" />
    <circle cx="321.2" cy="88.8" r="8" fill="#94a3b8" />
    <circle cx="322.0" cy="108.9" r="8" fill="#94a3b8" />
    <circle cx="330.0" cy="121.5" r="8" fill="#ef4444" />
    <circle cx="322.6" cy="165.3" r="8" fill="#94a3b8" />
    <circle cx="321.6" cy="182.1" r="8" fill="#94a3b8" />
    <circle cx="320.2" cy="201.1" r="8" fill="#ef4444" />
    <circle cx="321.7" cy="227.6" r="8" fill="#ef4444" />
    <circle cx="325.5" cy="266.7" r="8" fill="#ef4444" />
    <circle cx="321.1" cy="283.9" r="8" fill="#94a3b8" />
    <circle cx="326.1" cy="322.2" r="8" fill="#64748b" />
    <circle cx="324.9" cy="342.7" r="8" fill="#ef4444" />
    <circle cx="329.6" cy="383.1" r="8" fill="#94a3b8" />
    <circle cx="325.7" cy="406.3" r="8" fill="#94a3b8" />
    <circle cx="326.7" cy="424.4" r="8" fill="#ef4444" />
    <circle cx="320.2" cy="507.6" r="8" fill="#ef4444" />
    <circle cx="323.9" cy="523.4" r="8" fill="#ef4444" />
    <circle cx="323.3" cy="546.0" r="8" fill="#ef4444" />
    <circle cx="342.5" cy="61.0" r="8" fill="#64748b" />
    <circle cx="341.1" cy="87.8" r="8" fill="#64748b" />
    <circle cx="343.8" cy="146.9" r="8" fill="#94a3b8" />
    <circle cx="342.6" cy="163.1" r="8" fill="#94a3b8" />
    <circle cx="344.8" cy="182.1" r="8" fill="#64748b" />
    <circle cx="341.7" cy="222.0" r="8" fill="#94a3b8" />
    <circle cx="347.8" cy="260.7" r="8" fill="#94a3b8" />
    <circle cx="346.0" cy="281.8" r="8" fill="#94a3b8" />
    <circle cx="343.3" cy="343.4" r="8" fill="#ef4444" />
    <circle cx="349.2" cy="366.6" r="8" fill="#64748b" />
    <circle cx="348.2" cy="382.3" r="8" fill="#94a3b8" />
    <circle cx="349.9" cy="429.9" r="8" fill="#64748b" />
    <circle cx="348.2" cy="466.7" r="8" fill="#64748b" />
    <circle cx="343.8" cy="485.4" r="8" fill="#94a3b8" />
    <circle cx="344.4" cy="501.4" r="8" fill="#64748b" />
    <circle cx="344.6" cy="540.5" r="8" fill="#64748b" />
    <circle cx="363.2" cy="29.8" r="8" fill="#94a3b8" />
    <circle cx="369.2" cy="47.4" r="8" fill="#64748b" />
    <circle cx="364.8" cy="125.4" r="8" fill="#64748b" />
    <circle cx="368.2" cy="144.4" r="8" fill="#94a3b8" />
    <circle cx="360.9" cy="186.5" r="8" fill="#ef4444" />
    <circle cx="364.0" cy="227.3" r="8" fill="#ef4444" />
    <circle cx="370.0" cy="246.0" r="8" fill="#64748b" />
    <circle cx="369.8" cy="264.4" r="8" fill="#ef4444" />
    <circle cx="364.5" cy="284.6" r="8" fill="#94a3b8" />
    <circle cx="365.5" cy="301.1" r="8" fill="#64748b" />
    <circle cx="361.2" cy="325.8" r="8" fill="#64748b" />
    <circle cx="365.0" cy="421.5" r="8" fill="#ef4444" />
    <circle cx="360.8" cy="489.3" r="8" fill="#ef4444" />
    <circle cx="368.1" cy="506.2" r="8" fill="#64748b" />
    <circle cx="361.8" cy="525.1" r="8" fill="#ef4444" />
    <circle cx="366.1" cy="547.3" r="8" fill="#ef4444" />
    <circle cx="387.1" cy="2.1" r="8" fill="#94a3b8" />
    <circle cx="385.7" cy="22.7" r="8" fill="#ef4444" />
    <circle cx="381.1" cy="84.3" r="8" fill="#94a3b8" />
    <circle cx="389.7" cy="108.3" r="8" fill="#64748b" />
    <circle cx="384.0" cy="120.4" r="8" fill="#94a3b8" />
    <circle cx="385.2" cy="161.2" r="8" fill="#94a3b8" />
    <circle cx="380.6" cy="189.9" r="8" fill="#64748b" />
    <circle cx="382.6" cy="226.8" r="8" fill="#64748b" />
    <circle cx="380.8" cy="241.2" r="8" fill="#64748b" />
    <circle cx="387.8" cy="264.0" r="8" fill="#64748b" />
    <circle cx="387.6" cy="288.7" r="8" fill="#64748b" />
    <circle cx="380.8" cy="329.3" r="8" fill="#ef4444" />
    <circle cx="388.8" cy="349.0" r="8" fill="#64748b" />
    <circle cx="384.0" cy="388.8" r="8" fill="#64748b" />
    <circle cx="380.7" cy="405.6" r="8" fill="#64748b" />
    <circle cx="385.7" cy="420.5" r="8" fill="#64748b" />
    <circle cx="389.1" cy="444.4" r="8" fill="#94a3b8" />
    <circle cx="380.5" cy="469.2" r="8" fill="#ef4444" />
    <circle cx="381.5" cy="484.3" r="8" fill="#64748b" />
    <circle cx="389.0" cy="521.3" r="8" fill="#94a3b8" /></g>
  <circle cx="383.4" cy="133.5" r="41.9" fill="#64748b" opacity="0.34" />
    <rect x="226.3" y="472.2" width="87.4" height="87.4" fill="#ef4444" opacity="0.33" />
    <circle cx="79.2" cy="548.3" r="17.6" fill="#94a3b8" opacity="0.29" />
    <rect x="47.4" y="451.5" width="50.0" height="50.0" fill="#64748b" opacity="0.39" />
    <polygon points="245.8,197.2 273.6,252.8 218.0,252.8" fill="#64748b" opacity="0.31" />
    <circle cx="190.4" cy="59.3" r="46.7" fill="#94a3b8" opacity="0.14" />
    <polygon points="39.3,143.9 62.9,167.6 39.3,191.2 15.7,167.6" fill="#64748b" opacity="0.18" />
    <polygon points="360.4,227.3 380.7,247.6 360.4,268.0 340.1,247.6" fill="#64748b" opacity="0.15" />
    <polygon points="34.2,460.6 62.9,518.1 5.4,518.1" fill="#ef4444" opacity="0.10" />
    <polygon points="105.4,0.8 151.8,93.5 59.1,93.5" fill="#94a3b8" opacity="0.34" />
    <polygon points="209.9,331.0 242.2,363.3 209.9,395.6 177.6,363.3" fill="#94a3b8" opacity="0.28" />
    <polygon points="306.3,346.0 342.9,382.6 306.3,419.2 269.7,382.6" fill="#94a3b8" opacity="0.25" />
    <circle cx="111.2" cy="446.8" r="19.9" fill="#ef4444" opacity="0.29" />
    <rect x="89.9" y="26.8" width="29.4" height="29.4" fill="#94a3b8" opacity="0.10" />
  
  <!-- Text background banner -->
  <defs>
    <linearGradient id="text-bg-17" x1="0%" y1="0%" x2="100%" y2="0%">
      <stop offset="0%" style="stop-color:#000000;stop-opacity:0.7" />
      <stop offset="50%" style="stop-color:#64748b;stop-opacity:0.4" />
      <stop offset="100%" style="stop-color:#000000;stop-opacity:0.7" />
    </linearGradient>
  </defs>
  <rect x="0" y="494" width="400" height="56" fill="url(#text-bg-17)" />

  <!-- Text shadow -->
  <text x="200" y="522" font-family="system-ui, -apple-system, sans-serif" font-size="24" font-weight="bold" text-anchor="middle" fill="#000000" opacity="0.8">Classic Car Craig</text>

  <!-- Main text -->
  <text x="200" y="520" font-family="system-ui, -apple-system, sans-serif" font-size="24" font-weight="bold" text-anchor="middle" fill="#ffffff">Classic Car Craig</text>
  
  <!-- Rarity border -->
  <rect x="5" y="5" width="390" height="540"
        fill="none" stroke="#a855f7" stroke-width="10" rx="8" ry="8" />
</svg>