<?xml version="1.0" encoding="UTF-8"?>
<svg xmlns="http://www.w3.org/2000/svg" viewBox="0 0 400 550" width="400" height="550">
  <defs>
    <linearGradient id="bg-gradient-024" x1="0%" y1="0%" x2="100%" y2="100%">
      <stop offset="0%" style="stop-color:#64748b;stop-opacity:0.26" />
      <stop offset="50%" style="stop-color:#94a3b8;stop-opacity:0.4" />
      <stop offset="100%" style="stop-color:#64748b;stop-opacity:0.26" />
    </linearGradient>
    
  <filter id="shadow-024">
    <feDropShadow dx="0" dy="2" stdDeviation="3" flood-opacity="0.8"/>
  </filter>
  </defs>
  <rect width="400" height="550" fill="url(#bg-gradient-0.8133099344559014)" />
  <g opacity="0.3"><circle cx="4.3" cy="2.8" r="6" fill="#94a3b8" />
    <circle cx="1.3" cy="34.8" r="6" fill="#fbbf24" />
    <circle cx="8.1" cy="59.8" r="6" fill="#94a3b8" />
    <circle cx="7.0" cy="126.4" r="6" fill="#fbbf24" />
    <circle cx="4.1" cy="153.3" r="6" fill="#fbbf24" />
    <circle cx="6.3" cy="204.1" r="6" fill="#fbbf24" />
    <circle cx="1.0" cy="232.6" r="6" fill="#64748b" />
    <circle cx="5.7" cy="278.3" r="6" fill="#fbbf24" />
    <circle cx="1.7" cy="305.8" r="6" fill="#64748b" />
    <circle cx="6.2" cy="352.5" r="6" fill="#64748b" />
    <circle cx="0.0" cy="401.7" r="6" fill="#fbbf24" />
    <circle cx="9.5" cy="428.2" r="6" fill="#64748b" />
    <circle cx="6.0" cy="502.5" r="6" fill="#fbbf24" />
    <circle cx="28.4" cy="6.4" r="6" fill="#94a3b8" />
    <circle cx="25.3" cy="55.7" r="6" fill="#fbbf24" />
    <circle cx="31.4" cy="79.5" r="6" fill="#fbbf24" />
    <circle cx="32.5" cy="107.3" r="6" fill="#94a3b8" />
    <circle cx="30.1" cy="134.0" r="6" fill="#fbbf24" />
    <circle cx="28.1" cy="151.7" r="6" fill="#94a3b8" />
    <circle cx="30.8" cy="200.2" r="6" fill="#fbbf24" />
    <circle cx="34.2" cy="234.6" r="6" fill="#64748b" />
    <circle cx="34.0" cy="255.4" r="6" fill="#94a3b8" />
    <circle cx="25.7" cy="281.4" r="6" fill="#64748b" />
    <circle cx="28.4" cy="330.0" r="6" fill="#94a3b8" />
    <circle cx="26.0" cy="380.3" r="6" fill="#fbbf24" />
    <circle cx="33.5" cy="406.0" r="6" fill="#64748b" />
    <circle cx="33.2" cy="433.9" r="6" fill="#94a3b8" />
    <circle cx="31.9" cy="452.3" r="6" fill="#fbbf24" />
    <circle cx="32.7" cy="526.3" r="6" fill="#64748b" />
    <circle cx="55.3" cy="8.2" r="6" fill="#94a3b8" />
    <circle cx="55.1" cy="30.5" r="6" fill="#94a3b8" />
    <circle cx="54.8" cy="55.9" r="6" fill="#94a3b8" />
    <circle cx="56.6" cy="104.2" r="6" fill="#94a3b8" />
    <circle cx="55.4" cy="131.5" r="6" fill="#fbbf24" />
    <circle cx="55.9" cy="177.3" r="6" fill="#64748b" />
    <circle cx="58.8" cy="232.1" r="6" fill="#94a3b8" />
    <circle cx="53.3" cy="279.3" r="6" fill="#94a3b8" />
    <circle cx="50.9" cy="330.2" r="6" fill="#fbbf24" />
    <circle cx="58.8" cy="359.3" r="6" fill="#94a3b8" />
    <circle cx="50.1" cy="377.4" r="6" fill="#fbbf24" />
    <circle cx="51.6" cy="408.1" r="6" fill="#94a3b8" />
    <circle cx="79.8" cy="27.2" r="6" fill="#64748b" />
    <circle cx="78.2" cy="82.4" r="6" fill="#94a3b8" />
    <circle cx="80.0" cy="104.0" r="6" fill="#94a3b8" />
    <circle cx="77.2" cy="229.7" r="6" fill="#94a3b8" />
    <circle cx="77.0" cy="258.9" r="6" fill="#64748b" />
    <circle cx="81.4" cy="280.4" r="6" fill="#fbbf24" />
    <circle cx="84.0" cy="326.4" r="6" fill="#fbbf24" />
    <circle cx="75.4" cy="352.1" r="6" fill="#64748b" />
    <circle cx="83.0" cy="402.8" r="6" fill="#fbbf24" />
    <circle cx="80.3" cy="425.6" r="6" fill="#64748b" />
    <circle cx="80.9" cy="459.7" r="6" fill="#fbbf24" />
    <circle cx="77.3" cy="482.9" r="6" fill="#64748b" />
    <circle cx="77.7" cy="529.0" r="6" fill="#64748b" />
    <circle cx="104.8" cy="32.2" r="6" fill="#94a3b8" />
    <circle cx="106.7" cy="76.6" r="6" fill="#64748b" />
    <circle cx="106.0" cy="108.2" r="6" fill="#64748b" />
    <circle cx="106.5" cy="126.5" r="6" fill="#64748b" />
    <circle cx="101.2" cy="183.6" r="6" fill="#fbbf24" />
    <circle cx="100.2" cy="204.6" r="6" fill="#fbbf24" />
    <circle cx="101.1" cy="259.8" r="6" fill="#64748b" />
    <circle cx="106.5" cy="284.8" r="6" fill="#fbbf24" />
    <circle cx="103.2" cy="301.7" r="6" fill="#64748b" />
    <circle cx="100.8" cy="329.3" r="6" fill="#94a3b8" />
    <circle cx="103.0" cy="358.9" r="6" fill="#94a3b8" />
    <circle cx="105.5" cy="432.5" r="6" fill="#64748b" />
    <circle cx="108.2" cy="481.2" r="6" fill="#fbbf24" />
    <circle cx="107.2" cy="500.5" r="6" fill="#fbbf24" />
    <circle cx="105.6" cy="529.5" r="6" fill="#fbbf24" />
    <circle cx="130.3" cy="4.0" r="6" fill="#64748b" />
    <circle cx="128.8" cy="25.8" r="6" fill="#94a3b8" />
    <circle cx="132.5" cy="55.3" r="6" fill="#94a3b8" />
    <circle cx="126.3" cy="80.6" r="6" fill="#fbbf24" />
    <circle cx="125.1" cy="105.0" r="6" fill="#64748b" />
    <circle cx="125.1" cy="131.0" r="6" fill="#64748b" />
    <circle cx="134.0" cy="157.5" r="6" fill="#94a3b8" />
    <circle cx="128.6" cy="206.4" r="6" fill="#fbbf24" />
    <circle cx="129.8" cy="225.9" r="6" fill="#fbbf24" />
    <circle cx="132.6" cy="256.2" r="6" fill="#fbbf24" />
    <circle cx="126.6" cy="279.8" r="6" fill="#fbbf24" />
    <circle cx="128.7" cy="307.2" r="6" fill="#94a3b8" />
    <circle cx="127.7" cy="356.4" r="6" fill="#fbbf24" />
    <circle cx="127.3" cy="384.8" r="6" fill="#94a3b8" />
    <circle cx="127.2" cy="404.5" r="6" fill="#64748b" />
    <circle cx="125.1" cy="452.6" r="6" fill="#fbbf24" />
    <circle cx="128.1" cy="482.5" r="6" fill="#94a3b8" />
    <circle cx="131.6" cy="506.6" r="6" fill="#fbbf24" />
    <circle cx="157.8" cy="32.2" r="6" fill="#64748b" />
    <circle cx="158.3" cy="55.6" r="6" fill="#fbbf24" />
    <circle cx="150.8" cy="80.5" r="6" fill="#94a3b8" />
    <circle cx="155.9" cy="108.9" r="6" fill="#fbbf24" />
    <circle cx="159.2" cy="134.7" r="6" fill="#fbbf24" />
    <circle cx="152.7" cy="155.5" r="6" fill="#64748b" />
    <circle cx="158.9" cy="209.7" r="6" fill="#fbbf24" />
    <circle cx="154.5" cy="228.9" r="6" fill="#94a3b8" />
    <circle cx="151.6" cy="259.8" r="6" fill="#64748b" />
    <circle cx="156.3" cy="283.0" r="6" fill="#94a3b8" />
    <circle cx="151.6" cy="329.8" r="6" fill="#64748b" />
    <circle cx="151.0" cy="350.4" r="6" fill="#94a3b8" />
    <circle cx="153.2" cy="384.1" r="6" fill="#64748b" />
    <circle cx="155.3" cy="408.6" r="6" fill="#64748b" />
    <circle cx="157.9" cy="430.6" r="6" fill="#64748b" />
    <circle cx="158.0" cy="457.6" r="6" fill="#fbbf24" />
    <circle cx="152.2" cy="481.5" r="6" fill="#64748b" />
    <circle cx="156.1" cy="534.4" r="6" fill="#fbbf24" />
    <circle cx="179.6" cy="6.6" r="6" fill="#fbbf24" />
    <circle cx="175.8" cy="31.5" r="6" fill="#64748b" />
    <circle cx="176.3" cy="53.9" r="6" fill="#64748b" />
    <circle cx="179.3" cy="82.1" r="6" fill="#94a3b8" />
    <circle cx="180.1" cy="155.2" r="6" fill="#64748b" />
    <circle cx="182.2" cy="180.3" r="6" fill="#fbbf24" />
    <circle cx="183.8" cy="225.9" r="6" fill="#94a3b8" />
    <circle cx="182.5" cy="256.9" r="6" fill="#94a3b8" />
    <circle cx="184.2" cy="277.0" r="6" fill="#64748b" />
    <circle cx="179.0" cy="329.4" r="6" fill="#64748b" />
    <circle cx="184.0" cy="356.8" r="6" fill="#94a3b8" />
    <circle cx="181.8" cy="380.6" r="6" fill="#64748b" />
    <circle cx="184.3" cy="403.9" r="6" fill="#64748b" />
    <circle cx="181.1" cy="432.8" r="6" fill="#94a3b8" />
    <circle cx="178.7" cy="459.8" r="6" fill="#64748b" />
    <circle cx="176.6" cy="483.5" r="6" fill="#fbbf24" />
    <circle cx="182.2" cy="528.4" r="6" fill="#64748b" />
    <circle cx="207.8" cy="3.2" r="6" fill="#94a3b8" />
    <circle cx="201.2" cy="34.2" r="6" fill="#64748b" />
    <circle cx="209.0" cy="82.1" r="6" fill="#64748b" />
    <circle cx="205.8" cy="130.1" r="6" fill="#64748b" />
    <circle cx="202.4" cy="152.0" r="6" fill="#94a3b8" />
    <circle cx="201.4" cy="175.4" r="6" fill="#94a3b8" />
    <circle cx="206.7" cy="200.6" r="6" fill="#64748b" />
    <circle cx="203.4" cy="251.1" r="6" fill="#64748b" />
    <circle cx="209.1" cy="276.2" r="6" fill="#fbbf24" />
    <circle cx="204.0" cy="353.5" r="6" fill="#fbbf24" />
    <circle cx="205.4" cy="404.2" r="6" fill="#64748b" />
    <circle cx="203.5" cy="427.6" r="6" fill="#64748b" />
    <circle cx="208.4" cy="450.2" r="6" fill="#fbbf24" />
    <circle cx="203.6" cy="475.8" r="6" fill="#64748b" />
    <circle cx="200.3" cy="500.9" r="6" fill="#64748b" />
    <circle cx="210.0" cy="534.2" r="6" fill="#94a3b8" />
    <circle cx="230.9" cy="0.8" r="6" fill="#fbbf24" />
    <circle cx="228.4" cy="76.9" r="6" fill="#94a3b8" />
    <circle cx="227.5" cy="179.2" r="6" fill="#94a3b8" />
    <circle cx="231.7" cy="257.4" r="6" fill="#64748b" />
    <circle cx="231.6" cy="283.8" r="6" fill="#fbbf24" />
    <circle cx="226.8" cy="353.8" r="6" fill="#94a3b8" />
    <circle cx="233.6" cy="383.4" r="6" fill="#94a3b8" />
    <circle cx="229.4" cy="403.8" r="6" fill="#fbbf24" />
    <circle cx="228.5" cy="427.0" r="6" fill="#fbbf24" />
    <circle cx="231.6" cy="502.7" r="6" fill="#64748b" />
    <circle cx="229.5" cy="534.5" r="6" fill="#fbbf24" />
    <circle cx="252.5" cy="32.7" r="6" fill="#94a3b8" />
    <circle cx="256.9" cy="54.5" r="6" fill="#64748b" />
    <circle cx="254.3" cy="82.4" r="6" fill="#64748b" />
    <circle cx="252.6" cy="102.7" r="6" fill="#fbbf24" />
    <circle cx="256.6" cy="127.2" r="6" fill="#94a3b8" />
    <circle cx="259.4" cy="225.9" r="6" fill="#fbbf24" />
    <circle cx="256.1" cy="253.1" r="6" fill="#64748b" />
    <circle cx="257.8" cy="277.2" r="6" fill="#fbbf24" />
    <circle cx="252.1" cy="300.7" r="6" fill="#94a3b8" />
    <circle cx="258.9" cy="326.2" r="6" fill="#64748b" />
    <circle cx="252.5" cy="379.4" r="6" fill="#fbbf24" />
    <circle cx="250.2" cy="405.1" r="6" fill="#94a3b8" />
    <circle cx="250.2" cy="457.6" r="6" fill="#fbbf24" />
    <circle cx="259.0" cy="476.7" r="6" fill="#64748b" />
    <circle cx="252.9" cy="507.4" r="6" fill="#fbbf24" />
    <circle cx="281.8" cy="5.9" r="6" fill="#94a3b8" />
    <circle cx="275.1" cy="25.7" r="6" fill="#94a3b8" />
    <circle cx="279.3" cy="108.3" r="6" fill="#fbbf24" />
    <circle cx="283.4" cy="126.1" r="6" fill="#64748b" />
    <circle cx="276.7" cy="157.5" r="6" fill="#64748b" />
    <circle cx="283.4" cy="178.3" r="6" fill="#fbbf24" />
    <circle cx="283.2" cy="201.4" r="6" fill="#64748b" />
    <circle cx="280.5" cy="225.3" r="6" fill="#fbbf24" />
    <circle cx="281.2" cy="252.6" r="6" fill="#fbbf24" />
    <circle cx="275.1" cy="309.2" r="6" fill="#94a3b8" />
    <circle cx="277.6" cy="327.3" r="6" fill="#64748b" />
    <circle cx="282.6" cy="433.7" r="6" fill="#94a3b8" />
    <circle cx="283.5" cy="450.6" r="6" fill="#94a3b8" />
    <circle cx="278.2" cy="483.4" r="6" fill="#64748b" />
    <circle cx="282.9" cy="505.0" r="6" fill="#94a3b8" />
    <circle cx="276.2" cy="528.8" r="6" fill="#fbbf24" />
    <circle cx="304.0" cy="2.6" r="6" fill="#64748b" />
    <circle cx="305.9" cy="28.3" r="6" fill="#fbbf24" />
    <circle cx="306.0" cy="54.3" r="6" fill="#94a3b8" />
    <circle cx="307.7" cy="75.4" r="6" fill="#fbbf24" />
    <circle cx="305.5" cy="108.7" r="6" fill="#64748b" />
    <circle cx="300.4" cy="128.4" r="6" fill="#fbbf24" />
    <circle cx="302.8" cy="180.1" r="6" fill="#fbbf24" />
    <circle cx="305.0" cy="203.6" r="6" fill="#94a3b8" />
    <circle cx="300.7" cy="250.7" r="6" fill="#fbbf24" />
    <circle cx="309.6" cy="308.5" r="6" fill="#fbbf24" />
    <circle cx="307.0" cy="330.9" r="6" fill="#94a3b8" />
    <circle cx="300.1" cy="375.6" r="6" fill="#64748b" />
    <circle cx="301.1" cy="402.8" r="6" fill="#64748b" />
    <circle cx="303.1" cy="458.0" r="6" fill="#fbbf24" />
    <circle cx="302.9" cy="484.2" r="6" fill="#64748b" />
    <circle cx="305.6" cy="509.9" r="6" fill="#94a3b8" />
    <circle cx="304.5" cy="531.8" r="6" fill="#64748b" />
    <circle cx="331.3" cy="30.6" r="6" fill="#fbbf24" />
    <circle cx="331.7" cy="78.2" r="6" fill="#94a3b8" />
    <circle cx="331.4" cy="104.4" r="6" fill="#fbbf24" />
    <circle cx="325.8" cy="158.1" r="6" fill="#94a3b8" />
    <circle cx="331.3" cy="176.7" r="6" fill="#94a3b8" />
    <circle cx="332.1" cy="201.3" r="6" fill="#64748b" />
    <circle cx="333.9" cy="230.6" r="6" fill="#64748b" />
    <circle cx="334.0" cy="253.9" r="6" fill="#fbbf24" />
    <circle cx="328.0" cy="278.0" r="6" fill="#94a3b8" />
    <circle cx="331.7" cy="356.2" r="6" fill="#64748b" />
    <circle cx="326.4" cy="376.8" r="6" fill="#64748b" />
    <circle cx="325.1" cy="403.0" r="6" fill="#64748b" />
    <circle cx="325.3" cy="425.2" r="6" fill="#fbbf24" />
    <circle cx="326.9" cy="451.2" r="6" fill="#64748b" />
    <circle cx="325.6" cy="506.1" r="6" fill="#94a3b8" />
    <circle cx="356.0" cy="5.3" r="6" fill="#fbbf24" />
    <circle cx="351.6" cy="29.2" r="6" fill="#94a3b8" />
    <circle cx="351.5" cy="58.8" r="6" fill="#94a3b8" />
    <circle cx="350.3" cy="83.7" r="6" fill="#64748b" />
    <circle cx="351.4" cy="109.0" r="6" fill="#94a3b8" />
    <circle cx="351.7" cy="150.2" r="6" fill="#64748b" />
    <circle cx="354.3" cy="178.3" r="6" fill="#94a3b8" />
    <circle cx="350.6" cy="209.9" r="6" fill="#64748b" />
    <circle cx="351.0" cy="257.2" r="6" fill="#94a3b8" />
    <circle cx="355.8" cy="284.6" r="6" fill="#fbbf24" />
    <circle cx="352.0" cy="304.7" r="6" fill="#fbbf24" />
    <circle cx="358.0" cy="333.4" r="6" fill="#64748b" />
    <circle cx="356.4" cy="356.0" r="6" fill="#fbbf24" />
    <circle cx="357.6" cy="431.3" r="6" fill="#fbbf24" />
    <circle cx="355.7" cy="477.2" r="6" fill="#fbbf24" />
    <circle cx="354.8" cy="528.8" r="6" fill="#fbbf24" />
    <circle cx="379.9" cy="0.1" r="6" fill="#fbbf24" />
    <circle cx="381.1" cy="50.6" r="6" fill="#94a3b8" />
    <circle cx="375.2" cy="82.5" r="6" fill="#fbbf24" />
    <circle cx="380.1" cy="109.9" r="6" fill="#fbbf24" />
    <circle cx="379.7" cy="126.7" r="6" fill="#64748b" />
    <circle cx="381.6" cy="204.5" r="6" fill="#64748b" />
    <circle cx="376.3" cy="277.1" r="6" fill="#94a3b8" />
    <circle cx="380.6" cy="333.2" r="6" fill="#94a3b8" />
    <circle cx="379.7" cy="352.8" r="6" fill="#64748b" />
    <circle cx="376.3" cy="380.6" r="6" fill="#64748b" />
    <circle cx="381.1" cy="402.5" r="6" fill="#64748b" />
    <circle cx="383.7" cy="456.8" r="6" fill="#94a3b8" />
    <circle cx="375.5" cy="478.0" r="6" fill="#94a3b8" />
    <circle cx="379.1" cy="508.5" r="6" fill="#94a3b8" />
    <circle cx="382.2" cy="533.0" r="6" fill="#fbbf24" /></g>
  <rect x="364.4" y="138.4" width="31.1" height="31.1" fill="#fbbf24" opacity="0.18" />
    <polygon points="376.1,283.3 388.7,308.4 363.5,308.4" fill="#94a3b8" opacity="0.11" />
    <rect x="147.4" y="207.3" width="99.3" height="99.3" fill="#94a3b8" opacity="0.21" />
    <rect x="135.5" y="480.6" width="33.8" height="33.8" fill="#64748b" opacity="0.25" />
    <rect x="154.5" y="290.3" width="47.9" height="47.9" fill="#fbbf24" opacity="0.26" />
    <polygon points="390.1,405.0 411.5,426.4 390.1,447.7 368.8,426.4" fill="#64748b" opacity="0.18" />
    <circle cx="131.3" cy="209.5" r="48.0" fill="#fbbf24" opacity="0.37" />
    <polygon points="351.3,313.5 379.5,341.7 351.3,369.8 323.1,341.7" fill="#94a3b8" opacity="0.36" />
    <polygon points="35.2,87.3 71.1,123.2 35.2,159.1 -0.7,123.2" fill="#fbbf24" opacity="0.35" />
    <rect x="314.5" y="151.7" width="95.5" height="95.5" fill="#94a3b8" opacity="0.23" />
    <polygon points="379.6,391.9 409.4,451.5 349.9,451.5" fill="#fbbf24" opacity="0.29" />
  
  <!-- Text background banner -->
  <defs>
    <linearGradient id="text-bg-25" x1="0%" y1="0%" x2="100%" y2="0%">
      <stop offset="0%" style="stop-color:#000000;stop-opacity:0.7" />
      <stop offset="50%" style="stop-color:#64748b;stop-opacity:0.4" />
      <stop offset="100%" style="stop-color:#000000;stop-opacity:0.7" />
    </linearGradient>
  </defs>
  <rect x="0" y="494" width="400" height="56" fill="url(#text-bg-25)" />

  <!-- Text shadow -->
  <text x="200" y="522" font-family="system-ui, -apple-system, sans-serif" font-size="24" font-weight="bold" text-anchor="middle" fill="#000000" opacity="0.8">Remote Control Deluxe ...</text>

  <!-- Main text -->
  <text x="200" y="520" font-family="system-ui, -apple-system, sans-serif" font-size="24" font-weight="bold" text-anchor="middle" fill="#ffffff">Remote Control Deluxe ...</text>
  
  <!-- Rarity border -->
  <rect x="4" y="4" width="392" height="542"
        fill="none" stroke="#eab308" stroke-width="8" rx="8" ry="8" />
</svg>