<?xml version="1.0" encoding="UTF-8"?>
<svg xmlns="http://www.w3.org/2000/svg" viewBox="0 0 400 550" width="400" height="550">
  <defs>
    <linearGradient id="bg-gradient-025" x1="0%" y1="0%" x2="100%" y2="100%">
      <stop offset="0%" style="stop-color:#64748b;stop-opacity:0.26" />
      <stop offset="50%" style="stop-color:#94a3b8;stop-opacity:0.4" />
      <stop offset="100%" style="stop-color:#64748b;stop-opacity:0.26" />
    </linearGradient>
    
  <filter id="shadow-025">
    <feDropShadow dx="0" dy="2" stdDeviation="3" flood-opacity="0.8"/>
  </filter>
  </defs>
  <rect width="400" height="550" fill="url(#bg-gradient-0.3714251318015158)" />
  <g opacity="0.3"><line x1="0" y1="320.1" x2="400" y2="320.1" stroke="#64748b" stroke-width="3.3" opacity="0.38" />
    <line x1="0" y1="127.1" x2="400" y2="127.1" stroke="#fbbf24" stroke-width="1.1" opacity="0.35" />
    <line x1="0" y1="546.4" x2="400" y2="546.4" stroke="#64748b" stroke-width="1.1" opacity="0.13" />
    <line x1="199.9" y1="0" x2="199.9" y2="550" stroke="#64748b" stroke-width="1.1" opacity="0.28" />
    <line x1="283.3" y1="0" x2="283.3" y2="550" stroke="#64748b" stroke-width="1.5" opacity="0.26" />
    <line x1="369.6" y1="0" x2="369.6" y2="550" stroke="#64748b" stroke-width="3.8" opacity="0.25" />
    <line x1="158.4" y1="0" x2="158.4" y2="550" stroke="#64748b" stroke-width="3.4" opacity="0.34" />
    <line x1="34.1" y1="0" x2="34.1" y2="550" stroke="#fbbf24" stroke-width="3.8" opacity="0.39" />
    <line x1="0" y1="176.7" x2="400" y2="176.7" stroke="#fbbf24" stroke-width="2.9" opacity="0.32" />
    <line x1="200.2" y1="0" x2="200.2" y2="550" stroke="#fbbf24" stroke-width="1.6" opacity="0.12" />
    <line x1="88.7" y1="0" x2="88.7" y2="550" stroke="#94a3b8" stroke-width="3.7" opacity="0.39" />
    <line x1="338.7" y1="0" x2="338.7" y2="550" stroke="#64748b" stroke-width="2.4" opacity="0.32" />
    <line x1="397.6" y1="0" x2="397.6" y2="550" stroke="#94a3b8" stroke-width="2.8" opacity="0.13" />
    <line x1="351.6" y1="0" x2="351.6" y2="550" stroke="#64748b" stroke-width="3.8" opacity="0.12" />
    <line x1="0" y1="520.1" x2="400" y2="520.1" stroke="#64748b" stroke-width="2.8" opacity="0.35" /></g>
  <polygon points="2.7,434.8 35.2,467.3 2.7,499.8 -29.8,467.3" fill="#64748b" opacity="0.31" />
    <rect x="169.0" y="258.2" width="67.0" height="67.0" fill="#64748b" opacity="0.24" />
    <rect x="302.3" y="397.0" width="63.2" height="63.2" fill="#fbbf24" opacity="0.14" />
    <rect x="135.3" y="493.5" width="86.3" height="86.3" fill="#94a3b8" opacity="0.20" />
    <rect x="208.4" y="168.6" width="64.7" height="64.7" fill="#94a3b8" opacity="0.12" />
    <rect x="303.2" y="96.9" width="21.1" height="21.1" fill="#64748b" opacity="0.23" />
    <rect x="50.7" y="158.2" width="21.9" height="21.9" fill="#fbbf24" opacity="0.37" />
    <circle cx="330.4" cy="43.9" r="11.3" fill="#94a3b8" opacity="0.18" />
  
  <!-- Text background banner -->
  <defs>
    <linearGradient id="text-bg-25" x1="0%" y1="0%" x2="100%" y2="0%">
      <stop offset="0%" style="stop-color:#000000;stop-opacity:0.7" />
      <stop offset="50%" style="stop-color:#64748b;stop-opacity:0.4" />
      <stop offset="100%" style="stop-color:#000000;stop-opacity:0.7" />
    </linearGradient>
  </defs>
  <rect x="0" y="494" width="400" height="56" fill="url(#text-bg-25)" />

  <!-- Text shadow -->
  <text x="200" y="522" font-family="system-ui, -apple-system, sans-serif" font-size="24" font-weight="bold" text-anchor="middle" fill="#000000" opacity="0.8">Margarita Machine Mach...</text>

  <!-- Main text -->
  <text x="200" y="520" font-family="system-ui, -apple-system, sans-serif" font-size="24" font-weight="bold" text-anchor="middle" fill="#ffffff">Margarita Machine Mach...</text>
  
  <!-- Rarity border -->
  <rect x="3" y="3" width="394" height="544"
        fill="none" stroke="#3b82f6" stroke-width="6" rx="8" ry="8" />
</svg>