<?xml version="1.0" encoding="UTF-8"?>
<svg xmlns="http://www.w3.org/2000/svg" viewBox="0 0 400 550" width="400" height="550">
  <defs>
    <linearGradient id="bg-gradient-025" x1="0%" y1="0%" x2="100%" y2="100%">
      <stop offset="0%" style="stop-color:#ffffff;stop-opacity:0.26" />
      <stop offset="50%" style="stop-color:#fbbf24;stop-opacity:0.4" />
      <stop offset="100%" style="stop-color:#ffffff;stop-opacity:0.26" />
    </linearGradient>
    
  <filter id="shadow-025">
    <feDropShadow dx="0" dy="2" stdDeviation="3" flood-opacity="0.8"/>
  </filter>
  </defs>
  <rect width="400" height="550" fill="url(#bg-gradient-0.3714251318015158)" />
  <g opacity="0.3"><line x1="0" y1="320.1" x2="400" y2="320.1" stroke="#ffffff" stroke-width="3.3" opacity="0.38" />
    <line x1="0" y1="127.1" x2="400" y2="127.1" stroke="#ef4444" stroke-width="1.1" opacity="0.35" />
    <line x1="0" y1="546.4" x2="400" y2="546.4" stroke="#ffffff" stroke-width="1.1" opacity="0.13" />
    <line x1="199.9" y1="0" x2="199.9" y2="550" stroke="#ffffff" stroke-width="1.1" opacity="0.28" />
    <line x1="283.3" y1="0" x2="283.3" y2="550" stroke="#ffffff" stroke-width="1.5" opacity="0.26" />
    <line x1="369.6" y1="0" x2="369.6" y2="550" stroke="#ffffff" stroke-width="3.8" opacity="0.25" />
    <line x1="158.4" y1="0" x2="158.4" y2="550" stroke="#ffffff" stroke-width="3.4" opacity="0.34" />
    <line x1="34.1" y1="0" x2="34.1" y2="550" stroke="#ef4444" stroke-width="3.8" opacity="0.39" />
    <line x1="0" y1="176.7" x2="400" y2="176.7" stroke="#ef4444" stroke-width="2.9" opacity="0.32" />
    <line x1="200.2" y1="0" x2="200.2" y2="550" stroke="#ef4444" stroke-width="1.6" opacity="0.12" /></g>
  <circle cx="252.8" cy="501.4" r="48.3" fill="#ffffff" opacity="0.11" />
    <polygon points="191.9,377.2 220.5,405.7 191.9,434.3 163.4,405.7" fill="#fbbf24" opacity="0.28" />
    <rect x="-7.5" y="118.4" width="99.5" height="99.5" fill="#ef4444" opacity="0.12" />
    <polygon points="53.1,461.9 74.7,505.1 31.5,505.1" fill="#ef4444" opacity="0.39" />
    <polygon points="378.3,-40.3 422.3,47.7 334.3,47.7" fill="#ef4444" opacity="0.14" />
  
  <!-- Text background banner -->
  <defs>
    <linearGradient id="text-bg-20" x1="0%" y1="0%" x2="100%" y2="0%">
      <stop offset="0%" style="stop-color:#000000;stop-opacity:0.7" />
      <stop offset="50%" style="stop-color:#ffffff;stop-opacity:0.4" />
      <stop offset="100%" style="stop-color:#000000;stop-opacity:0.7" />
    </linearGradient>
  </defs>
  <rect x="0" y="494" width="400" height="56" fill="url(#text-bg-20)" />

  <!-- Text shadow -->
  <text x="200" y="522" font-family="system-ui, -apple-system, sans-serif" font-size="24" font-weight="bold" text-anchor="middle" fill="#000000" opacity="0.8">Breakfast King Keith</text>

  <!-- Main text -->
  <text x="200" y="520" font-family="system-ui, -apple-system, sans-serif" font-size="24" font-weight="bold" text-anchor="middle" fill="#ffffff">Breakfast King Keith</text>
  
  <!-- Rarity border -->
  <rect x="2" y="2" width="396" height="546"
        fill="none" stroke="#9ca3af" stroke-width="4" rx="8" ry="8" />
</svg>