<?xml version="1.0" encoding="UTF-8"?>
<svg xmlns="http://www.w3.org/2000/svg" viewBox="0 0 400 550" width="400" height="550">
  <defs>
    <linearGradient id="bg-gradient-026" x1="0%" y1="0%" x2="100%" y2="100%">
      <stop offset="0%" style="stop-color:#64748b;stop-opacity:0.26" />
      <stop offset="50%" style="stop-color:#94a3b8;stop-opacity:0.4" />
      <stop offset="100%" style="stop-color:#64748b;stop-opacity:0.26" />
    </linearGradient>
    
  <filter id="shadow-026">
    <feDropShadow dx="0" dy="2" stdDeviation="3" flood-opacity="0.8"/>
  </filter>
  </defs>
  <rect width="400" height="550" fill="url(#bg-gradient-0.5582150074187666)" />
  <g opacity="0.3"><circle cx="1.7" cy="33.8" r="10" fill="#fbbf24" />
    <circle cx="0.1" cy="51.9" r="10" fill="#64748b" />
    <circle cx="1.7" cy="91.9" r="10" fill="#fbbf24" />
    <circle cx="0.5" cy="106.5" r="10" fill="#94a3b8" />
    <circle cx="6.2" cy="127.0" r="10" fill="#94a3b8" />
    <circle cx="3.1" cy="139.4" r="10" fill="#94a3b8" />
    <circle cx="3.2" cy="168.7" r="10" fill="#fbbf24" />
    <circle cx="4.7" cy="200.7" r="10" fill="#64748b" />
    <circle cx="0.8" cy="211.9" r="10" fill="#64748b" />
    <circle cx="3.8" cy="232.3" r="10" fill="#94a3b8" />
    <circle cx="1.6" cy="306.3" r="10" fill="#64748b" />
    <circle cx="9.3" cy="320.2" r="10" fill="#94a3b8" />
    <circle cx="7.6" cy="337.0" r="10" fill="#fbbf24" />
    <circle cx="4.2" cy="345.5" r="10" fill="#64748b" />
    <circle cx="8.4" cy="391.6" r="10" fill="#94a3b8" />
    <circle cx="2.1" cy="454.3" r="10" fill="#fbbf24" />
    <circle cx="5.6" cy="468.9" r="10" fill="#fbbf24" />
    <circle cx="8.6" cy="486.9" r="10" fill="#94a3b8" />
    <circle cx="7.5" cy="515.0" r="10" fill="#64748b" />
    <circle cx="6.2" cy="533.1" r="10" fill="#64748b" />
    <circle cx="1.2" cy="548.5" r="10" fill="#64748b" />
    <circle cx="22.2" cy="19.9" r="10" fill="#94a3b8" />
    <circle cx="18.0" cy="47.3" r="10" fill="#94a3b8" />
    <circle cx="19.4" cy="65.7" r="10" fill="#fbbf24" />
    <circle cx="23.2" cy="78.7" r="10" fill="#94a3b8" />
    <circle cx="20.1" cy="113.1" r="10" fill="#94a3b8" />
    <circle cx="21.6" cy="129.0" r="10" fill="#94a3b8" />
    <circle cx="18.3" cy="156.8" r="10" fill="#94a3b8" />
    <circle cx="16.9" cy="171.8" r="10" fill="#fbbf24" />
    <circle cx="22.1" cy="183.5" r="10" fill="#fbbf24" />
    <circle cx="15.7" cy="200.2" r="10" fill="#94a3b8" />
    <circle cx="16.7" cy="211.4" r="10" fill="#64748b" />
    <circle cx="21.9" cy="230.1" r="10" fill="#64748b" />
    <circle cx="24.6" cy="246.8" r="10" fill="#94a3b8" />
    <circle cx="21.9" cy="262.2" r="10" fill="#94a3b8" />
    <circle cx="19.4" cy="270.9" r="10" fill="#94a3b8" />
    <circle cx="25.0" cy="289.4" r="10" fill="#fbbf24" />
    <circle cx="15.9" cy="316.7" r="10" fill="#64748b" />
    <circle cx="17.2" cy="347.1" r="10" fill="#64748b" />
    <circle cx="19.1" cy="378.5" r="10" fill="#94a3b8" />
    <circle cx="24.5" cy="391.3" r="10" fill="#64748b" />
    <circle cx="16.6" cy="459.3" r="10" fill="#94a3b8" />
    <circle cx="16.0" cy="470.6" r="10" fill="#fbbf24" />
    <circle cx="18.3" cy="481.9" r="10" fill="#94a3b8" />
    <circle cx="22.0" cy="499.6" r="10" fill="#fbbf24" />
    <circle cx="23.8" cy="517.3" r="10" fill="#94a3b8" />
    <circle cx="22.7" cy="545.5" r="10" fill="#94a3b8" />
    <circle cx="35.3" cy="7.4" r="10" fill="#fbbf24" />
    <circle cx="33.7" cy="21.9" r="10" fill="#94a3b8" />
    <circle cx="31.9" cy="51.2" r="10" fill="#94a3b8" />
    <circle cx="34.6" cy="78.9" r="10" fill="#94a3b8" />
    <circle cx="36.9" cy="109.4" r="10" fill="#64748b" />
    <circle cx="34.8" cy="141.4" r="10" fill="#fbbf24" />
    <circle cx="34.4" cy="158.4" r="10" fill="#fbbf24" />
    <circle cx="32.7" cy="169.3" r="10" fill="#94a3b8" />
    <circle cx="32.6" cy="180.8" r="10" fill="#94a3b8" />
    <circle cx="34.1" cy="211.3" r="10" fill="#fbbf24" />
    <circle cx="36.3" cy="232.1" r="10" fill="#94a3b8" />
    <circle cx="30.3" cy="243.3" r="10" fill="#fbbf24" />
    <circle cx="35.7" cy="262.1" r="10" fill="#64748b" />
    <circle cx="39.2" cy="278.4" r="10" fill="#94a3b8" />
    <circle cx="33.2" cy="294.1" r="10" fill="#fbbf24" />
    <circle cx="39.9" cy="337.1" r="10" fill="#64748b" />
    <circle cx="35.7" cy="365.0" r="10" fill="#fbbf24" />
    <circle cx="32.8" cy="381.2" r="10" fill="#64748b" />
    <circle cx="39.2" cy="410.7" r="10" fill="#94a3b8" />
    <circle cx="32.7" cy="425.6" r="10" fill="#fbbf24" />
    <circle cx="36.1" cy="455.5" r="10" fill="#fbbf24" />
    <circle cx="39.4" cy="488.2" r="10" fill="#64748b" />
    <circle cx="30.2" cy="533.9" r="10" fill="#64748b" />
    <circle cx="38.0" cy="540.1" r="10" fill="#64748b" />
    <circle cx="50.8" cy="3.4" r="10" fill="#94a3b8" />
    <circle cx="49.3" cy="15.9" r="10" fill="#64748b" />
    <circle cx="46.5" cy="36.0" r="10" fill="#64748b" />
    <circle cx="46.9" cy="47.0" r="10" fill="#fbbf24" />
    <circle cx="48.7" cy="75.8" r="10" fill="#fbbf24" />
    <circle cx="50.3" cy="98.7" r="10" fill="#64748b" />
    <circle cx="45.4" cy="105.6" r="10" fill="#fbbf24" />
    <circle cx="49.4" cy="154.4" r="10" fill="#64748b" />
    <circle cx="50.2" cy="165.9" r="10" fill="#94a3b8" />
    <circle cx="52.2" cy="198.8" r="10" fill="#94a3b8" />
    <circle cx="51.1" cy="213.9" r="10" fill="#94a3b8" />
    <circle cx="52.6" cy="243.2" r="10" fill="#94a3b8" />
    <circle cx="46.0" cy="255.1" r="10" fill="#64748b" />
    <circle cx="52.6" cy="274.1" r="10" fill="#fbbf24" />
    <circle cx="47.9" cy="289.1" r="10" fill="#64748b" />
    <circle cx="49.0" cy="323.7" r="10" fill="#94a3b8" />
    <circle cx="51.5" cy="330.1" r="10" fill="#64748b" />
    <circle cx="51.1" cy="349.6" r="10" fill="#64748b" />
    <circle cx="49.0" cy="362.4" r="10" fill="#94a3b8" />
    <circle cx="49.6" cy="382.4" r="10" fill="#fbbf24" />
    <circle cx="52.9" cy="397.4" r="10" fill="#64748b" />
    <circle cx="45.5" cy="411.0" r="10" fill="#94a3b8" />
    <circle cx="46.4" cy="420.9" r="10" fill="#fbbf24" />
    <circle cx="51.5" cy="438.9" r="10" fill="#94a3b8" />
    <circle cx="48.1" cy="472.6" r="10" fill="#64748b" />
    <circle cx="49.9" cy="486.9" r="10" fill="#fbbf24" />
    <circle cx="53.2" cy="504.5" r="10" fill="#64748b" />
    <circle cx="45.3" cy="528.1" r="10" fill="#94a3b8" />
    <circle cx="49.4" cy="545.4" r="10" fill="#64748b" />
    <circle cx="67.6" cy="53.2" r="10" fill="#fbbf24" />
    <circle cx="65.0" cy="69.0" r="10" fill="#64748b" />
    <circle cx="67.0" cy="81.6" r="10" fill="#94a3b8" />
    <circle cx="61.8" cy="90.9" r="10" fill="#64748b" />
    <circle cx="70.0" cy="112.5" r="10" fill="#fbbf24" />
    <circle cx="69.2" cy="120.1" r="10" fill="#94a3b8" />
    <circle cx="61.9" cy="137.8" r="10" fill="#fbbf24" />
    <circle cx="67.1" cy="152.9" r="10" fill="#94a3b8" />
    <circle cx="61.5" cy="173.8" r="10" fill="#fbbf24" />
    <circle cx="69.9" cy="183.3" r="10" fill="#64748b" />
    <circle cx="63.4" cy="195.4" r="10" fill="#94a3b8" />
    <circle cx="68.7" cy="212.1" r="10" fill="#94a3b8" />
    <circle cx="66.5" cy="232.1" r="10" fill="#fbbf24" />
    <circle cx="60.8" cy="249.9" r="10" fill="#64748b" />
    <circle cx="66.6" cy="273.3" r="10" fill="#fbbf24" />
    <circle cx="66.3" cy="293.9" r="10" fill="#fbbf24" />
    <circle cx="69.8" cy="308.1" r="10" fill="#64748b" />
    <circle cx="65.6" cy="315.4" r="10" fill="#64748b" />
    <circle cx="67.1" cy="330.8" r="10" fill="#94a3b8" />
    <circle cx="67.3" cy="347.8" r="10" fill="#94a3b8" />
    <circle cx="62.5" cy="380.5" r="10" fill="#fbbf24" />
    <circle cx="60.5" cy="411.7" r="10" fill="#94a3b8" />
    <circle cx="64.9" cy="428.8" r="10" fill="#94a3b8" />
    <circle cx="60.9" cy="443.4" r="10" fill="#94a3b8" />
    <circle cx="61.3" cy="455.0" r="10" fill="#94a3b8" />
    <circle cx="68.4" cy="499.4" r="10" fill="#64748b" />
    <circle cx="65.4" cy="516.6" r="10" fill="#94a3b8" />
    <circle cx="80.3" cy="7.3" r="10" fill="#64748b" />
    <circle cx="83.3" cy="35.0" r="10" fill="#94a3b8" />
    <circle cx="76.6" cy="62.2" r="10" fill="#fbbf24" />
    <circle cx="78.1" cy="79.5" r="10" fill="#64748b" />
    <circle cx="75.8" cy="95.0" r="10" fill="#94a3b8" />
    <circle cx="81.6" cy="156.4" r="10" fill="#64748b" />
    <circle cx="77.9" cy="174.8" r="10" fill="#64748b" />
    <circle cx="78.8" cy="199.4" r="10" fill="#fbbf24" />
    <circle cx="80.7" cy="219.3" r="10" fill="#64748b" />
    <circle cx="84.4" cy="233.6" r="10" fill="#94a3b8" />
    <circle cx="84.9" cy="240.4" r="10" fill="#64748b" />
    <circle cx="82.5" cy="294.1" r="10" fill="#64748b" />
    <circle cx="77.9" cy="307.7" r="10" fill="#64748b" />
    <circle cx="75.8" cy="324.6" r="10" fill="#64748b" />
    <circle cx="80.5" cy="351.3" r="10" fill="#94a3b8" />
    <circle cx="83.5" cy="378.7" r="10" fill="#64748b" />
    <circle cx="84.2" cy="392.5" r="10" fill="#64748b" />
    <circle cx="77.4" cy="412.6" r="10" fill="#64748b" />
    <circle cx="80.2" cy="425.7" r="10" fill="#94a3b8" />
    <circle cx="75.3" cy="442.6" r="10" fill="#64748b" />
    <circle cx="79.0" cy="472.9" r="10" fill="#94a3b8" />
    <circle cx="83.9" cy="488.6" r="10" fill="#94a3b8" />
    <circle cx="79.9" cy="517.2" r="10" fill="#64748b" />
    <circle cx="84.2" cy="528.4" r="10" fill="#64748b" />
    <circle cx="91.9" cy="2.3" r="10" fill="#fbbf24" />
    <circle cx="91.9" cy="24.5" r="10" fill="#94a3b8" />
    <circle cx="98.6" cy="46.5" r="10" fill="#fbbf24" />
    <circle cx="98.5" cy="91.4" r="10" fill="#64748b" />
    <circle cx="97.7" cy="129.0" r="10" fill="#64748b" />
    <circle cx="93.9" cy="158.9" r="10" fill="#fbbf24" />
    <circle cx="90.5" cy="170.1" r="10" fill="#fbbf24" />
    <circle cx="97.5" cy="188.3" r="10" fill="#64748b" />
    <circle cx="95.5" cy="198.6" r="10" fill="#94a3b8" />
    <circle cx="92.0" cy="212.5" r="10" fill="#64748b" />
    <circle cx="95.3" cy="226.0" r="10" fill="#fbbf24" />
    <circle cx="95.8" cy="244.9" r="10" fill="#64748b" />
    <circle cx="96.8" cy="262.2" r="10" fill="#94a3b8" />
    <circle cx="92.9" cy="271.0" r="10" fill="#fbbf24" />
    <circle cx="90.8" cy="288.2" r="10" fill="#64748b" />
    <circle cx="91.3" cy="307.1" r="10" fill="#94a3b8" />
    <circle cx="97.0" cy="336.1" r="10" fill="#64748b" />
    <circle cx="97.1" cy="353.4" r="10" fill="#94a3b8" />
    <circle cx="97.3" cy="367.7" r="10" fill="#fbbf24" />
    <circle cx="98.7" cy="382.8" r="10" fill="#64748b" />
    <circle cx="94.7" cy="399.1" r="10" fill="#94a3b8" />
    <circle cx="95.4" cy="409.2" r="10" fill="#94a3b8" />
    <circle cx="95.5" cy="423.4" r="10" fill="#fbbf24" />
    <circle cx="95.5" cy="452.8" r="10" fill="#fbbf24" />
    <circle cx="97.3" cy="468.9" r="10" fill="#fbbf24" />
    <circle cx="92.8" cy="482.1" r="10" fill="#64748b" />
    <circle cx="93.1" cy="504.2" r="10" fill="#64748b" />
    <circle cx="90.4" cy="514.6" r="10" fill="#94a3b8" />
    <circle cx="97.4" cy="528.1" r="10" fill="#64748b" />
    <circle cx="112.6" cy="4.4" r="10" fill="#64748b" />
    <circle cx="107.8" cy="35.5" r="10" fill="#fbbf24" />
    <circle cx="106.4" cy="51.7" r="10" fill="#fbbf24" />
    <circle cx="108.2" cy="68.0" r="10" fill="#fbbf24" />
    <circle cx="114.9" cy="90.9" r="10" fill="#fbbf24" />
    <circle cx="113.6" cy="110.7" r="10" fill="#94a3b8" />
    <circle cx="110.9" cy="120.8" r="10" fill="#fbbf24" />
    <circle cx="109.3" cy="143.4" r="10" fill="#fbbf24" />
    <circle cx="107.9" cy="152.3" r="10" fill="#64748b" />
    <circle cx="106.9" cy="184.1" r="10" fill="#94a3b8" />
    <circle cx="112.0" cy="200.9" r="10" fill="#94a3b8" />
    <circle cx="109.4" cy="217.9" r="10" fill="#fbbf24" />
    <circle cx="114.5" cy="226.4" r="10" fill="#94a3b8" />
    <circle cx="110.8" cy="242.3" r="10" fill="#fbbf24" />
    <circle cx="113.6" cy="335.7" r="10" fill="#fbbf24" />
    <circle cx="108.4" cy="347.0" r="10" fill="#fbbf24" />
    <circle cx="114.5" cy="361.2" r="10" fill="#94a3b8" />
    <circle cx="108.1" cy="377.4" r="10" fill="#fbbf24" />
    <circle cx="106.5" cy="392.3" r="10" fill="#fbbf24" />
    <circle cx="109.6" cy="410.7" r="10" fill="#94a3b8" />
    <circle cx="107.0" cy="457.4" r="10" fill="#94a3b8" />
    <circle cx="113.7" cy="471.1" r="10" fill="#94a3b8" />
    <circle cx="105.6" cy="511.1" r="10" fill="#fbbf24" />
    <circle cx="109.4" cy="532.8" r="10" fill="#94a3b8" />
    <circle cx="109.1" cy="545.7" r="10" fill="#fbbf24" />
    <circle cx="126.9" cy="4.8" r="10" fill="#fbbf24" />
    <circle cx="128.4" cy="34.8" r="10" fill="#64748b" />
    <circle cx="126.4" cy="48.2" r="10" fill="#fbbf24" />
    <circle cx="128.2" cy="69.0" r="10" fill="#fbbf24" />
    <circle cx="123.3" cy="77.2" r="10" fill="#64748b" />
    <circle cx="121.3" cy="108.0" r="10" fill="#fbbf24" />
    <circle cx="120.4" cy="121.4" r="10" fill="#fbbf24" />
    <circle cx="125.4" cy="156.3" r="10" fill="#94a3b8" />
    <circle cx="122.2" cy="165.2" r="10" fill="#64748b" />
    <circle cx="126.2" cy="181.6" r="10" fill="#64748b" />
    <circle cx="125.4" cy="219.4" r="10" fill="#94a3b8" />
    <circle cx="120.2" cy="231.6" r="10" fill="#64748b" />
    <circle cx="120.9" cy="246.0" r="10" fill="#64748b" />
    <circle cx="121.5" cy="258.6" r="10" fill="#64748b" />
    <circle cx="129.5" cy="271.2" r="10" fill="#fbbf24" />
    <circle cx="123.9" cy="288.4" r="10" fill="#94a3b8" />
    <circle cx="129.2" cy="308.9" r="10" fill="#fbbf24" />
    <circle cx="125.2" cy="339.5" r="10" fill="#64748b" />
    <circle cx="129.4" cy="354.0" r="10" fill="#fbbf24" />
    <circle cx="125.0" cy="362.0" r="10" fill="#94a3b8" />
    <circle cx="122.8" cy="382.1" r="10" fill="#64748b" />
    <circle cx="127.4" cy="405.8" r="10" fill="#fbbf24" />
    <circle cx="122.5" cy="423.6" r="10" fill="#94a3b8" />
    <circle cx="128.7" cy="472.1" r="10" fill="#64748b" />
    <circle cx="128.3" cy="484.4" r="10" fill="#fbbf24" />
    <circle cx="126.1" cy="511.1" r="10" fill="#64748b" />
    <circle cx="125.1" cy="526.5" r="10" fill="#64748b" />
    <circle cx="120.5" cy="547.9" r="10" fill="#64748b" />
    <circle cx="137.2" cy="9.5" r="10" fill="#64748b" />
    <circle cx="139.6" cy="15.9" r="10" fill="#94a3b8" />
    <circle cx="142.5" cy="38.3" r="10" fill="#64748b" />
    <circle cx="138.6" cy="91.4" r="10" fill="#64748b" />
    <circle cx="144.3" cy="110.9" r="10" fill="#94a3b8" />
    <circle cx="138.9" cy="154.7" r="10" fill="#94a3b8" />
    <circle cx="139.9" cy="173.4" r="10" fill="#64748b" />
    <circle cx="143.6" cy="181.3" r="10" fill="#64748b" />
    <circle cx="144.3" cy="196.7" r="10" fill="#fbbf24" />
    <circle cx="139.6" cy="234.2" r="10" fill="#64748b" />
    <circle cx="138.9" cy="258.9" r="10" fill="#fbbf24" />
    <circle cx="140.1" cy="277.0" r="10" fill="#fbbf24" />
    <circle cx="143.6" cy="307.5" r="10" fill="#fbbf24" />
    <circle cx="141.1" cy="317.7" r="10" fill="#94a3b8" />
    <circle cx="144.5" cy="336.7" r="10" fill="#94a3b8" />
    <circle cx="142.7" cy="381.3" r="10" fill="#fbbf24" />
    <circle cx="138.4" cy="390.8" r="10" fill="#64748b" />
    <circle cx="139.4" cy="424.7" r="10" fill="#94a3b8" />
    <circle cx="140.8" cy="440.8" r="10" fill="#64748b" />
    <circle cx="135.1" cy="453.2" r="10" fill="#fbbf24" />
    <circle cx="141.6" cy="482.8" r="10" fill="#64748b" />
    <circle cx="135.7" cy="504.3" r="10" fill="#94a3b8" />
    <circle cx="135.5" cy="533.9" r="10" fill="#94a3b8" />
    <circle cx="142.2" cy="549.3" r="10" fill="#94a3b8" />
    <circle cx="151.6" cy="16.3" r="10" fill="#64748b" />
    <circle cx="156.1" cy="30.3" r="10" fill="#64748b" />
    <circle cx="157.9" cy="99.2" r="10" fill="#64748b" />
    <circle cx="152.4" cy="107.2" r="10" fill="#64748b" />
    <circle cx="158.6" cy="128.7" r="10" fill="#94a3b8" />
    <circle cx="158.3" cy="141.9" r="10" fill="#94a3b8" />
    <circle cx="153.7" cy="155.8" r="10" fill="#fbbf24" />
    <circle cx="154.7" cy="165.2" r="10" fill="#64748b" />
    <circle cx="158.1" cy="180.1" r="10" fill="#64748b" />
    <circle cx="155.9" cy="201.2" r="10" fill="#64748b" />
    <circle cx="156.6" cy="212.3" r="10" fill="#94a3b8" />
    <circle cx="156.7" cy="230.7" r="10" fill="#64748b" />
    <circle cx="154.9" cy="261.9" r="10" fill="#94a3b8" />
    <circle cx="159.2" cy="279.7" r="10" fill="#fbbf24" />
    <circle cx="158.8" cy="302.5" r="10" fill="#fbbf24" />
    <circle cx="153.5" cy="330.1" r="10" fill="#fbbf24" />
    <circle cx="156.7" cy="352.0" r="10" fill="#94a3b8" />
    <circle cx="153.0" cy="377.4" r="10" fill="#64748b" />
    <circle cx="156.8" cy="426.1" r="10" fill="#94a3b8" />
    <circle cx="157.1" cy="442.0" r="10" fill="#64748b" />
    <circle cx="156.8" cy="454.0" r="10" fill="#94a3b8" />
    <circle cx="157.8" cy="466.1" r="10" fill="#fbbf24" />
    <circle cx="154.9" cy="481.4" r="10" fill="#94a3b8" />
    <circle cx="150.3" cy="502.4" r="10" fill="#94a3b8" />
    <circle cx="160.0" cy="517.9" r="10" fill="#fbbf24" />
    <circle cx="159.9" cy="549.2" r="10" fill="#fbbf24" />
    <circle cx="166.5" cy="8.6" r="10" fill="#64748b" />
    <circle cx="169.0" cy="17.9" r="10" fill="#94a3b8" />
    <circle cx="174.8" cy="39.1" r="10" fill="#94a3b8" />
    <circle cx="173.7" cy="47.8" r="10" fill="#94a3b8" />
    <circle cx="165.8" cy="75.2" r="10" fill="#64748b" />
    <circle cx="168.0" cy="90.5" r="10" fill="#94a3b8" />
    <circle cx="172.7" cy="110.1" r="10" fill="#fbbf24" />
    <circle cx="167.1" cy="129.0" r="10" fill="#64748b" />
    <circle cx="167.4" cy="143.6" r="10" fill="#94a3b8" />
    <circle cx="172.8" cy="157.7" r="10" fill="#fbbf24" />
    <circle cx="174.6" cy="169.3" r="10" fill="#94a3b8" />
    <circle cx="169.8" cy="189.8" r="10" fill="#64748b" />
    <circle cx="165.5" cy="196.0" r="10" fill="#94a3b8" />
    <circle cx="173.1" cy="263.1" r="10" fill="#94a3b8" />
    <circle cx="166.7" cy="322.6" r="10" fill="#94a3b8" />
    <circle cx="166.9" cy="337.3" r="10" fill="#fbbf24" />
    <circle cx="175.0" cy="369.0" r="10" fill="#fbbf24" />
    <circle cx="166.6" cy="406.3" r="10" fill="#94a3b8" />
    <circle cx="172.6" cy="428.1" r="10" fill="#64748b" />
    <circle cx="170.6" cy="456.9" r="10" fill="#94a3b8" />
    <circle cx="167.3" cy="498.5" r="10" fill="#94a3b8" />
    <circle cx="170.1" cy="513.0" r="10" fill="#fbbf24" />
    <circle cx="165.3" cy="526.9" r="10" fill="#64748b" />
    <circle cx="186.1" cy="2.4" r="10" fill="#fbbf24" />
    <circle cx="187.7" cy="17.7" r="10" fill="#94a3b8" />
    <circle cx="184.0" cy="50.2" r="10" fill="#fbbf24" />
    <circle cx="183.2" cy="61.2" r="10" fill="#94a3b8" />
    <circle cx="185.4" cy="95.7" r="10" fill="#94a3b8" />
    <circle cx="181.0" cy="109.8" r="10" fill="#94a3b8" />
    <circle cx="188.4" cy="123.7" r="10" fill="#94a3b8" />
    <circle cx="186.8" cy="139.1" r="10" fill="#64748b" />
    <circle cx="182.2" cy="150.8" r="10" fill="#fbbf24" />
    <circle cx="188.1" cy="170.1" r="10" fill="#94a3b8" />
    <circle cx="182.1" cy="202.6" r="10" fill="#fbbf24" />
    <circle cx="183.9" cy="217.3" r="10" fill="#94a3b8" />
    <circle cx="189.8" cy="231.2" r="10" fill="#94a3b8" />
    <circle cx="188.0" cy="255.3" r="10" fill="#94a3b8" />
    <circle cx="184.5" cy="305.1" r="10" fill="#94a3b8" />
    <circle cx="180.1" cy="320.1" r="10" fill="#fbbf24" />
    <circle cx="181.5" cy="348.3" r="10" fill="#94a3b8" />
    <circle cx="186.4" cy="365.5" r="10" fill="#fbbf24" />
    <circle cx="182.5" cy="375.7" r="10" fill="#94a3b8" />
    <circle cx="188.5" cy="390.7" r="10" fill="#94a3b8" />
    <circle cx="180.5" cy="426.7" r="10" fill="#94a3b8" />
    <circle cx="187.5" cy="459.5" r="10" fill="#fbbf24" />
    <circle cx="183.7" cy="513.7" r="10" fill="#64748b" />
    <circle cx="188.5" cy="527.5" r="10" fill="#fbbf24" />
    <circle cx="199.6" cy="5.2" r="10" fill="#94a3b8" />
    <circle cx="204.0" cy="16.0" r="10" fill="#94a3b8" />
    <circle cx="201.8" cy="31.4" r="10" fill="#64748b" />
    <circle cx="199.0" cy="52.1" r="10" fill="#94a3b8" />
    <circle cx="201.6" cy="66.9" r="10" fill="#94a3b8" />
    <circle cx="202.8" cy="99.9" r="10" fill="#fbbf24" />
    <circle cx="195.3" cy="127.6" r="10" fill="#fbbf24" />
    <circle cx="197.8" cy="144.5" r="10" fill="#fbbf24" />
    <circle cx="204.9" cy="152.9" r="10" fill="#94a3b8" />
    <circle cx="196.1" cy="170.7" r="10" fill="#fbbf24" />
    <circle cx="195.7" cy="180.0" r="10" fill="#fbbf24" />
    <circle cx="201.6" cy="197.7" r="10" fill="#94a3b8" />
    <circle cx="198.4" cy="230.0" r="10" fill="#fbbf24" />
    <circle cx="200.1" cy="240.6" r="10" fill="#94a3b8" />
    <circle cx="202.7" cy="294.2" r="10" fill="#fbbf24" />
    <circle cx="198.6" cy="301.1" r="10" fill="#64748b" />
    <circle cx="204.8" cy="317.4" r="10" fill="#94a3b8" />
    <circle cx="203.2" cy="350.1" r="10" fill="#94a3b8" />
    <circle cx="201.8" cy="360.1" r="10" fill="#fbbf24" />
    <circle cx="202.6" cy="381.5" r="10" fill="#94a3b8" />
    <circle cx="195.3" cy="407.3" r="10" fill="#fbbf24" />
    <circle cx="201.1" cy="444.0" r="10" fill="#fbbf24" />
    <circle cx="203.4" cy="458.8" r="10" fill="#fbbf24" />
    <circle cx="198.5" cy="466.9" r="10" fill="#64748b" />
    <circle cx="201.0" cy="481.8" r="10" fill="#64748b" />
    <circle cx="204.6" cy="496.2" r="10" fill="#94a3b8" />
    <circle cx="203.7" cy="529.2" r="10" fill="#94a3b8" />
    <circle cx="200.8" cy="543.6" r="10" fill="#64748b" />
    <circle cx="210.5" cy="5.5" r="10" fill="#fbbf24" />
    <circle cx="214.9" cy="31.2" r="10" fill="#fbbf24" />
    <circle cx="217.6" cy="65.1" r="10" fill="#94a3b8" />
    <circle cx="217.9" cy="78.4" r="10" fill="#fbbf24" />
    <circle cx="216.2" cy="95.4" r="10" fill="#94a3b8" />
    <circle cx="213.9" cy="105.3" r="10" fill="#94a3b8" />
    <circle cx="210.8" cy="124.7" r="10" fill="#94a3b8" />
    <circle cx="212.4" cy="172.4" r="10" fill="#64748b" />
    <circle cx="215.1" cy="189.4" r="10" fill="#fbbf24" />
    <circle cx="219.4" cy="202.1" r="10" fill="#fbbf24" />
    <circle cx="217.8" cy="215.0" r="10" fill="#64748b" />
    <circle cx="217.8" cy="234.1" r="10" fill="#94a3b8" />
    <circle cx="214.3" cy="273.5" r="10" fill="#fbbf24" />
    <circle cx="219.0" cy="323.8" r="10" fill="#fbbf24" />
    <circle cx="219.9" cy="333.7" r="10" fill="#fbbf24" />
    <circle cx="217.0" cy="367.1" r="10" fill="#fbbf24" />
    <circle cx="212.9" cy="381.7" r="10" fill="#64748b" />
    <circle cx="211.8" cy="425.7" r="10" fill="#64748b" />
    <circle cx="219.0" cy="441.2" r="10" fill="#64748b" />
    <circle cx="218.8" cy="456.5" r="10" fill="#fbbf24" />
    <circle cx="219.1" cy="469.0" r="10" fill="#94a3b8" />
    <circle cx="215.1" cy="499.9" r="10" fill="#94a3b8" />
    <circle cx="212.2" cy="518.3" r="10" fill="#94a3b8" />
    <circle cx="219.1" cy="547.1" r="10" fill="#94a3b8" />
    <circle cx="234.6" cy="1.6" r="10" fill="#94a3b8" />
    <circle cx="232.6" cy="15.7" r="10" fill="#fbbf24" />
    <circle cx="226.3" cy="36.7" r="10" fill="#64748b" />
    <circle cx="227.0" cy="51.9" r="10" fill="#94a3b8" />
    <circle cx="225.6" cy="66.4" r="10" fill="#64748b" />
    <circle cx="234.4" cy="75.0" r="10" fill="#94a3b8" />
    <circle cx="232.6" cy="91.8" r="10" fill="#94a3b8" />
    <circle cx="225.4" cy="107.6" r="10" fill="#64748b" />
    <circle cx="227.9" cy="123.6" r="10" fill="#64748b" />
    <circle cx="226.6" cy="143.9" r="10" fill="#94a3b8" />
    <circle cx="230.2" cy="159.5" r="10" fill="#64748b" />
    <circle cx="230.3" cy="200.9" r="10" fill="#64748b" />
    <circle cx="233.7" cy="218.7" r="10" fill="#94a3b8" />
    <circle cx="234.2" cy="231.7" r="10" fill="#fbbf24" />
    <circle cx="228.3" cy="246.2" r="10" fill="#64748b" />
    <circle cx="227.0" cy="259.8" r="10" fill="#94a3b8" />
    <circle cx="232.5" cy="273.3" r="10" fill="#64748b" />
    <circle cx="229.6" cy="289.6" r="10" fill="#64748b" />
    <circle cx="229.0" cy="305.1" r="10" fill="#fbbf24" />
    <circle cx="232.2" cy="324.5" r="10" fill="#fbbf24" />
    <circle cx="226.3" cy="349.3" r="10" fill="#94a3b8" />
    <circle cx="225.8" cy="362.8" r="10" fill="#94a3b8" />
    <circle cx="229.4" cy="394.0" r="10" fill="#94a3b8" />
    <circle cx="229.3" cy="409.0" r="10" fill="#fbbf24" />
    <circle cx="227.5" cy="428.2" r="10" fill="#fbbf24" />
    <circle cx="234.2" cy="444.9" r="10" fill="#64748b" />
    <circle cx="230.5" cy="458.2" r="10" fill="#fbbf24" />
    <circle cx="227.3" cy="496.9" r="10" fill="#94a3b8" />
    <circle cx="234.7" cy="533.3" r="10" fill="#fbbf24" />
    <circle cx="231.3" cy="546.2" r="10" fill="#94a3b8" />
    <circle cx="248.5" cy="9.4" r="10" fill="#94a3b8" />
    <circle cx="248.5" cy="24.1" r="10" fill="#94a3b8" />
    <circle cx="241.0" cy="31.1" r="10" fill="#94a3b8" />
    <circle cx="245.9" cy="143.3" r="10" fill="#94a3b8" />
    <circle cx="247.0" cy="154.9" r="10" fill="#fbbf24" />
    <circle cx="245.2" cy="165.9" r="10" fill="#94a3b8" />
    <circle cx="247.6" cy="181.9" r="10" fill="#94a3b8" />
    <circle cx="241.8" cy="203.3" r="10" fill="#64748b" />
    <circle cx="241.0" cy="229.3" r="10" fill="#94a3b8" />
    <circle cx="243.9" cy="260.9" r="10" fill="#fbbf24" />
    <circle cx="243.4" cy="277.8" r="10" fill="#64748b" />
    <circle cx="241.1" cy="285.8" r="10" fill="#94a3b8" />
    <circle cx="247.3" cy="304.6" r="10" fill="#64748b" />
    <circle cx="247.4" cy="337.7" r="10" fill="#64748b" />
    <circle cx="245.4" cy="346.2" r="10" fill="#94a3b8" />
    <circle cx="242.9" cy="369.9" r="10" fill="#94a3b8" />
    <circle cx="243.3" cy="376.8" r="10" fill="#64748b" />
    <circle cx="243.8" cy="426.8" r="10" fill="#94a3b8" />
    <circle cx="248.3" cy="456.8" r="10" fill="#fbbf24" />
    <circle cx="248.1" cy="474.9" r="10" fill="#64748b" />
    <circle cx="249.8" cy="480.5" r="10" fill="#64748b" />
    <circle cx="243.2" cy="495.0" r="10" fill="#64748b" />
    <circle cx="242.8" cy="515.3" r="10" fill="#94a3b8" />
    <circle cx="241.2" cy="531.6" r="10" fill="#64748b" />
    <circle cx="244.7" cy="542.2" r="10" fill="#94a3b8" />
    <circle cx="257.9" cy="1.8" r="10" fill="#fbbf24" />
    <circle cx="262.5" cy="35.6" r="10" fill="#fbbf24" />
    <circle cx="256.4" cy="64.6" r="10" fill="#fbbf24" />
    <circle cx="262.8" cy="81.5" r="10" fill="#94a3b8" />
    <circle cx="264.5" cy="114.3" r="10" fill="#64748b" />
    <circle cx="256.7" cy="122.4" r="10" fill="#64748b" />
    <circle cx="263.5" cy="135.9" r="10" fill="#64748b" />
    <circle cx="263.2" cy="154.7" r="10" fill="#fbbf24" />
    <circle cx="263.8" cy="172.3" r="10" fill="#94a3b8" />
    <circle cx="264.3" cy="184.1" r="10" fill="#64748b" />
    <circle cx="259.8" cy="204.5" r="10" fill="#fbbf24" />
    <circle cx="260.4" cy="230.7" r="10" fill="#64748b" />
    <circle cx="260.1" cy="259.0" r="10" fill="#fbbf24" />
    <circle cx="261.8" cy="308.6" r="10" fill="#64748b" />
    <circle cx="257.7" cy="331.3" r="10" fill="#fbbf24" />
    <circle cx="260.7" cy="366.7" r="10" fill="#94a3b8" />
    <circle cx="256.7" cy="376.6" r="10" fill="#fbbf24" />
    <circle cx="257.1" cy="397.7" r="10" fill="#94a3b8" />
    <circle cx="259.6" cy="421.8" r="10" fill="#64748b" />
    <circle cx="259.8" cy="440.6" r="10" fill="#fbbf24" />
    <circle cx="258.0" cy="450.5" r="10" fill="#64748b" />
    <circle cx="259.8" cy="473.4" r="10" fill="#64748b" />
    <circle cx="259.1" cy="488.3" r="10" fill="#fbbf24" />
    <circle cx="255.8" cy="495.2" r="10" fill="#fbbf24" />
    <circle cx="260.7" cy="515.0" r="10" fill="#64748b" />
    <circle cx="262.9" cy="527.0" r="10" fill="#64748b" />
    <circle cx="263.0" cy="540.1" r="10" fill="#64748b" />
    <circle cx="271.0" cy="6.1" r="10" fill="#64748b" />
    <circle cx="278.3" cy="16.5" r="10" fill="#94a3b8" />
    <circle cx="277.0" cy="38.9" r="10" fill="#64748b" />
    <circle cx="272.0" cy="48.6" r="10" fill="#94a3b8" />
    <circle cx="270.8" cy="82.3" r="10" fill="#64748b" />
    <circle cx="270.3" cy="98.1" r="10" fill="#64748b" />
    <circle cx="275.6" cy="106.4" r="10" fill="#94a3b8" />
    <circle cx="274.6" cy="122.2" r="10" fill="#64748b" />
    <circle cx="278.6" cy="188.9" r="10" fill="#94a3b8" />
    <circle cx="279.4" cy="215.3" r="10" fill="#fbbf24" />
    <circle cx="272.2" cy="230.4" r="10" fill="#fbbf24" />
    <circle cx="274.7" cy="258.2" r="10" fill="#94a3b8" />
    <circle cx="273.3" cy="302.5" r="10" fill="#94a3b8" />
    <circle cx="278.6" cy="323.8" r="10" fill="#64748b" />
    <circle cx="278.1" cy="351.6" r="10" fill="#fbbf24" />
    <circle cx="271.0" cy="397.6" r="10" fill="#94a3b8" />
    <circle cx="276.4" cy="412.7" r="10" fill="#64748b" />
    <circle cx="275.7" cy="436.1" r="10" fill="#94a3b8" />
    <circle cx="278.9" cy="474.0" r="10" fill="#fbbf24" />
    <circle cx="273.1" cy="487.4" r="10" fill="#fbbf24" />
    <circle cx="276.3" cy="515.9" r="10" fill="#fbbf24" />
    <circle cx="278.6" cy="530.2" r="10" fill="#94a3b8" />
    <circle cx="294.1" cy="3.0" r="10" fill="#94a3b8" />
    <circle cx="290.5" cy="49.5" r="10" fill="#fbbf24" />
    <circle cx="291.8" cy="68.7" r="10" fill="#fbbf24" />
    <circle cx="286.9" cy="83.3" r="10" fill="#64748b" />
    <circle cx="288.2" cy="99.2" r="10" fill="#fbbf24" />
    <circle cx="285.5" cy="107.4" r="10" fill="#64748b" />
    <circle cx="286.9" cy="123.4" r="10" fill="#64748b" />
    <circle cx="287.4" cy="144.0" r="10" fill="#64748b" />
    <circle cx="288.0" cy="151.0" r="10" fill="#64748b" />
    <circle cx="293.9" cy="174.2" r="10" fill="#94a3b8" />
    <circle cx="291.0" cy="216.4" r="10" fill="#94a3b8" />
    <circle cx="285.4" cy="226.6" r="10" fill="#94a3b8" />
    <circle cx="293.1" cy="240.4" r="10" fill="#fbbf24" />
    <circle cx="291.3" cy="309.5" r="10" fill="#94a3b8" />
    <circle cx="292.9" cy="317.7" r="10" fill="#fbbf24" />
    <circle cx="288.6" cy="335.0" r="10" fill="#64748b" />
    <circle cx="291.1" cy="352.8" r="10" fill="#fbbf24" />
    <circle cx="288.9" cy="366.8" r="10" fill="#64748b" />
    <circle cx="285.9" cy="376.8" r="10" fill="#94a3b8" />
    <circle cx="288.1" cy="392.4" r="10" fill="#64748b" />
    <circle cx="291.6" cy="405.3" r="10" fill="#94a3b8" />
    <circle cx="286.6" cy="429.3" r="10" fill="#94a3b8" />
    <circle cx="294.8" cy="453.9" r="10" fill="#94a3b8" />
    <circle cx="290.2" cy="472.9" r="10" fill="#fbbf24" />
    <circle cx="293.6" cy="488.1" r="10" fill="#64748b" />
    <circle cx="287.8" cy="510.7" r="10" fill="#94a3b8" />
    <circle cx="289.9" cy="529.2" r="10" fill="#64748b" />
    <circle cx="285.4" cy="547.7" r="10" fill="#fbbf24" />
    <circle cx="302.5" cy="6.2" r="10" fill="#94a3b8" />
    <circle cx="309.3" cy="17.0" r="10" fill="#94a3b8" />
    <circle cx="300.6" cy="30.3" r="10" fill="#fbbf24" />
    <circle cx="300.8" cy="48.5" r="10" fill="#fbbf24" />
    <circle cx="305.9" cy="61.4" r="10" fill="#fbbf24" />
    <circle cx="303.3" cy="90.8" r="10" fill="#64748b" />
    <circle cx="309.4" cy="110.1" r="10" fill="#64748b" />
    <circle cx="301.8" cy="127.5" r="10" fill="#fbbf24" />
    <circle cx="303.7" cy="168.6" r="10" fill="#fbbf24" />
    <circle cx="307.1" cy="182.3" r="10" fill="#94a3b8" />
    <circle cx="307.1" cy="219.4" r="10" fill="#fbbf24" />
    <circle cx="303.0" cy="231.4" r="10" fill="#fbbf24" />
    <circle cx="306.3" cy="243.8" r="10" fill="#64748b" />
    <circle cx="304.9" cy="258.9" r="10" fill="#fbbf24" />
    <circle cx="302.1" cy="270.9" r="10" fill="#fbbf24" />
    <circle cx="307.5" cy="294.4" r="10" fill="#fbbf24" />
    <circle cx="308.7" cy="303.4" r="10" fill="#94a3b8" />
    <circle cx="303.5" cy="321.5" r="10" fill="#94a3b8" />
    <circle cx="305.6" cy="349.7" r="10" fill="#64748b" />
    <circle cx="300.7" cy="360.2" r="10" fill="#94a3b8" />
    <circle cx="305.8" cy="379.3" r="10" fill="#fbbf24" />
    <circle cx="300.1" cy="399.4" r="10" fill="#64748b" />
    <circle cx="303.0" cy="407.2" r="10" fill="#94a3b8" />
    <circle cx="302.6" cy="423.3" r="10" fill="#64748b" />
    <circle cx="307.3" cy="437.0" r="10" fill="#fbbf24" />
    <circle cx="308.2" cy="452.1" r="10" fill="#94a3b8" />
    <circle cx="307.5" cy="503.1" r="10" fill="#94a3b8" />
    <circle cx="307.5" cy="514.5" r="10" fill="#fbbf24" />
    <circle cx="305.7" cy="547.2" r="10" fill="#64748b" />
    <circle cx="323.6" cy="5.6" r="10" fill="#94a3b8" />
    <circle cx="324.6" cy="30.2" r="10" fill="#94a3b8" />
    <circle cx="319.4" cy="51.6" r="10" fill="#64748b" />
    <circle cx="322.3" cy="65.8" r="10" fill="#fbbf24" />
    <circle cx="321.1" cy="98.3" r="10" fill="#64748b" />
    <circle cx="319.7" cy="108.1" r="10" fill="#94a3b8" />
    <circle cx="316.8" cy="123.1" r="10" fill="#94a3b8" />
    <circle cx="324.1" cy="144.1" r="10" fill="#fbbf24" />
    <circle cx="323.2" cy="160.0" r="10" fill="#64748b" />
    <circle cx="323.6" cy="170.6" r="10" fill="#fbbf24" />
    <circle cx="318.7" cy="204.0" r="10" fill="#64748b" />
    <circle cx="323.9" cy="219.9" r="10" fill="#64748b" />
    <circle cx="320.6" cy="231.3" r="10" fill="#64748b" />
    <circle cx="317.3" cy="264.8" r="10" fill="#64748b" />
    <circle cx="320.2" cy="272.2" r="10" fill="#94a3b8" />
    <circle cx="322.9" cy="288.2" r="10" fill="#fbbf24" />
    <circle cx="323.6" cy="335.3" r="10" fill="#fbbf24" />
    <circle cx="321.7" cy="354.4" r="10" fill="#94a3b8" />
    <circle cx="324.9" cy="381.3" r="10" fill="#64748b" />
    <circle cx="316.2" cy="397.9" r="10" fill="#94a3b8" />
    <circle cx="315.3" cy="406.1" r="10" fill="#64748b" />
    <circle cx="316.8" cy="466.6" r="10" fill="#94a3b8" />
    <circle cx="322.6" cy="496.4" r="10" fill="#64748b" />
    <circle cx="319.9" cy="511.8" r="10" fill="#fbbf24" />
    <circle cx="318.1" cy="532.8" r="10" fill="#64748b" />
    <circle cx="319.9" cy="549.4" r="10" fill="#fbbf24" />
    <circle cx="332.2" cy="22.2" r="10" fill="#94a3b8" />
    <circle cx="334.0" cy="82.0" r="10" fill="#94a3b8" />
    <circle cx="334.8" cy="99.7" r="10" fill="#94a3b8" />
    <circle cx="333.9" cy="113.3" r="10" fill="#fbbf24" />
    <circle cx="330.7" cy="129.9" r="10" fill="#fbbf24" />
    <circle cx="339.1" cy="135.5" r="10" fill="#94a3b8" />
    <circle cx="339.5" cy="168.3" r="10" fill="#fbbf24" />
    <circle cx="330.5" cy="188.5" r="10" fill="#64748b" />
    <circle cx="331.7" cy="199.2" r="10" fill="#64748b" />
    <circle cx="331.2" cy="212.4" r="10" fill="#94a3b8" />
    <circle cx="331.9" cy="232.1" r="10" fill="#fbbf24" />
    <circle cx="334.7" cy="243.8" r="10" fill="#94a3b8" />
    <circle cx="330.3" cy="263.7" r="10" fill="#fbbf24" />
    <circle cx="331.7" cy="289.4" r="10" fill="#fbbf24" />
    <circle cx="338.2" cy="301.0" r="10" fill="#94a3b8" />
    <circle cx="333.7" cy="349.6" r="10" fill="#fbbf24" />
    <circle cx="334.6" cy="363.0" r="10" fill="#fbbf24" />
    <circle cx="339.7" cy="408.7" r="10" fill="#fbbf24" />
    <circle cx="338.8" cy="427.5" r="10" fill="#94a3b8" />
    <circle cx="338.3" cy="444.7" r="10" fill="#64748b" />
    <circle cx="335.0" cy="456.2" r="10" fill="#fbbf24" />
    <circle cx="333.6" cy="470.2" r="10" fill="#64748b" />
    <circle cx="330.8" cy="489.0" r="10" fill="#64748b" />
    <circle cx="332.3" cy="504.4" r="10" fill="#fbbf24" />
    <circle cx="335.0" cy="517.9" r="10" fill="#fbbf24" />
    <circle cx="339.3" cy="531.6" r="10" fill="#fbbf24" />
    <circle cx="352.0" cy="5.5" r="10" fill="#94a3b8" />
    <circle cx="345.3" cy="24.7" r="10" fill="#94a3b8" />
    <circle cx="352.7" cy="68.1" r="10" fill="#64748b" />
    <circle cx="348.1" cy="114.1" r="10" fill="#64748b" />
    <circle cx="354.4" cy="124.1" r="10" fill="#fbbf24" />
    <circle cx="350.2" cy="140.8" r="10" fill="#64748b" />
    <circle cx="349.8" cy="150.8" r="10" fill="#fbbf24" />
    <circle cx="346.3" cy="210.5" r="10" fill="#94a3b8" />
    <circle cx="352.0" cy="233.7" r="10" fill="#64748b" />
    <circle cx="351.8" cy="248.6" r="10" fill="#94a3b8" />
    <circle cx="346.7" cy="260.6" r="10" fill="#64748b" />
    <circle cx="353.6" cy="272.8" r="10" fill="#94a3b8" />
    <circle cx="352.3" cy="290.8" r="10" fill="#94a3b8" />
    <circle cx="354.4" cy="306.6" r="10" fill="#64748b" />
    <circle cx="354.4" cy="339.9" r="10" fill="#94a3b8" />
    <circle cx="346.9" cy="360.6" r="10" fill="#64748b" />
    <circle cx="352.1" cy="377.1" r="10" fill="#94a3b8" />
    <circle cx="352.7" cy="394.8" r="10" fill="#64748b" />
    <circle cx="347.0" cy="405.2" r="10" fill="#94a3b8" />
    <circle cx="354.8" cy="424.4" r="10" fill="#94a3b8" />
    <circle cx="353.1" cy="436.2" r="10" fill="#fbbf24" />
    <circle cx="353.1" cy="459.3" r="10" fill="#fbbf24" />
    <circle cx="348.5" cy="486.5" r="10" fill="#94a3b8" />
    <circle cx="354.6" cy="501.2" r="10" fill="#fbbf24" />
    <circle cx="347.1" cy="518.9" r="10" fill="#fbbf24" />
    <circle cx="348.2" cy="534.5" r="10" fill="#64748b" />
    <circle cx="350.9" cy="549.2" r="10" fill="#94a3b8" />
    <circle cx="366.0" cy="1.3" r="10" fill="#64748b" />
    <circle cx="369.3" cy="16.0" r="10" fill="#94a3b8" />
    <circle cx="360.7" cy="36.1" r="10" fill="#94a3b8" />
    <circle cx="369.9" cy="50.6" r="10" fill="#94a3b8" />
    <circle cx="363.0" cy="61.5" r="10" fill="#94a3b8" />
    <circle cx="361.8" cy="79.8" r="10" fill="#64748b" />
    <circle cx="369.9" cy="93.7" r="10" fill="#fbbf24" />
    <circle cx="365.7" cy="106.6" r="10" fill="#64748b" />
    <circle cx="364.9" cy="127.5" r="10" fill="#fbbf24" />
    <circle cx="367.3" cy="138.1" r="10" fill="#fbbf24" />
    <circle cx="360.8" cy="152.3" r="10" fill="#fbbf24" />
    <circle cx="363.1" cy="168.0" r="10" fill="#94a3b8" />
    <circle cx="368.6" cy="185.3" r="10" fill="#fbbf24" />
    <circle cx="363.6" cy="202.3" r="10" fill="#fbbf24" />
    <circle cx="361.1" cy="211.0" r="10" fill="#fbbf24" />
    <circle cx="369.5" cy="225.3" r="10" fill="#fbbf24" />
    <circle cx="367.4" cy="242.4" r="10" fill="#fbbf24" />
    <circle cx="364.9" cy="260.8" r="10" fill="#fbbf24" />
    <circle cx="361.1" cy="288.7" r="10" fill="#64748b" />
    <circle cx="369.3" cy="300.3" r="10" fill="#64748b" />
    <circle cx="360.7" cy="351.2" r="10" fill="#64748b" />
    <circle cx="368.2" cy="364.3" r="10" fill="#94a3b8" />
    <circle cx="369.4" cy="393.8" r="10" fill="#94a3b8" />
    <circle cx="366.7" cy="413.9" r="10" fill="#64748b" />
    <circle cx="365.4" cy="427.1" r="10" fill="#fbbf24" />
    <circle cx="362.3" cy="451.3" r="10" fill="#fbbf24" />
    <circle cx="368.0" cy="533.8" r="10" fill="#64748b" />
    <circle cx="365.9" cy="542.6" r="10" fill="#fbbf24" />
    <circle cx="381.3" cy="1.5" r="10" fill="#64748b" />
    <circle cx="378.1" cy="39.1" r="10" fill="#fbbf24" />
    <circle cx="375.4" cy="46.5" r="10" fill="#94a3b8" />
    <circle cx="380.6" cy="67.4" r="10" fill="#64748b" />
    <circle cx="382.1" cy="105.4" r="10" fill="#fbbf24" />
    <circle cx="377.2" cy="127.1" r="10" fill="#fbbf24" />
    <circle cx="383.3" cy="142.9" r="10" fill="#94a3b8" />
    <circle cx="375.8" cy="166.0" r="10" fill="#64748b" />
    <circle cx="380.9" cy="210.9" r="10" fill="#64748b" />
    <circle cx="380.5" cy="226.9" r="10" fill="#fbbf24" />
    <circle cx="377.8" cy="247.2" r="10" fill="#fbbf24" />
    <circle cx="383.6" cy="259.8" r="10" fill="#64748b" />
    <circle cx="384.8" cy="289.3" r="10" fill="#64748b" />
    <circle cx="384.2" cy="305.0" r="10" fill="#64748b" />
    <circle cx="383.9" cy="321.5" r="10" fill="#64748b" />
    <circle cx="375.9" cy="350.6" r="10" fill="#fbbf24" />
    <circle cx="382.0" cy="362.4" r="10" fill="#64748b" />
    <circle cx="378.3" cy="379.3" r="10" fill="#fbbf24" />
    <circle cx="380.6" cy="410.8" r="10" fill="#94a3b8" />
    <circle cx="381.3" cy="453.3" r="10" fill="#94a3b8" />
    <circle cx="381.7" cy="481.8" r="10" fill="#94a3b8" />
    <circle cx="377.6" cy="497.0" r="10" fill="#fbbf24" />
    <circle cx="381.7" cy="519.8" r="10" fill="#fbbf24" />
    <circle cx="375.4" cy="529.1" r="10" fill="#94a3b8" />
    <circle cx="384.0" cy="548.0" r="10" fill="#fbbf24" />
    <circle cx="390.7" cy="9.3" r="10" fill="#64748b" />
    <circle cx="398.7" cy="35.3" r="10" fill="#fbbf24" />
    <circle cx="393.3" cy="46.0" r="10" fill="#94a3b8" />
    <circle cx="391.2" cy="94.5" r="10" fill="#94a3b8" />
    <circle cx="397.6" cy="114.5" r="10" fill="#fbbf24" />
    <circle cx="398.7" cy="121.2" r="10" fill="#64748b" />
    <circle cx="398.5" cy="135.2" r="10" fill="#94a3b8" />
    <circle cx="395.7" cy="157.2" r="10" fill="#64748b" />
    <circle cx="394.7" cy="171.6" r="10" fill="#64748b" />
    <circle cx="395.1" cy="184.7" r="10" fill="#64748b" />
    <circle cx="391.1" cy="204.2" r="10" fill="#fbbf24" />
    <circle cx="391.4" cy="229.7" r="10" fill="#94a3b8" />
    <circle cx="399.8" cy="240.3" r="10" fill="#64748b" />
    <circle cx="399.0" cy="257.9" r="10" fill="#94a3b8" />
    <circle cx="393.4" cy="288.1" r="10" fill="#64748b" />
    <circle cx="399.0" cy="315.8" r="10" fill="#64748b" />
    <circle cx="392.2" cy="352.4" r="10" fill="#fbbf24" />
    <circle cx="396.5" cy="363.8" r="10" fill="#94a3b8" />
    <circle cx="395.8" cy="399.4" r="10" fill="#94a3b8" />
    <circle cx="398.1" cy="407.6" r="10" fill="#64748b" />
    <circle cx="399.7" cy="420.5" r="10" fill="#94a3b8" />
    <circle cx="397.6" cy="443.6" r="10" fill="#fbbf24" />
    <circle cx="400.0" cy="453.3" r="10" fill="#94a3b8" />
    <circle cx="399.2" cy="472.9" r="10" fill="#64748b" />
    <circle cx="395.9" cy="535.0" r="10" fill="#fbbf24" />
    <circle cx="393.0" cy="541.9" r="10" fill="#fbbf24" /></g>
  <polygon points="296.9,313.0 338.1,354.2 296.9,395.3 255.8,354.2" fill="#64748b" opacity="0.33" />
    <circle cx="278.2" cy="59.5" r="42.2" fill="#64748b" opacity="0.26" />
    <rect x="169.3" y="112.9" width="91.6" height="91.6" fill="#fbbf24" opacity="0.19" />
    <circle cx="205.1" cy="256.9" r="46.6" fill="#94a3b8" opacity="0.14" />
    <polygon points="239.4,269.7 265.7,322.2 213.1,322.2" fill="#94a3b8" opacity="0.24" />
    <polygon points="320.1,332.3 363.6,375.8 320.1,419.3 276.6,375.8" fill="#fbbf24" opacity="0.11" />
    <polygon points="158.9,360.5 208.5,459.6 109.3,459.6" fill="#64748b" opacity="0.19" />
    <rect x="166.5" y="251.8" width="54.1" height="54.1" fill="#fbbf24" opacity="0.25" />
    <polygon points="290.7,514.0 304.0,527.4 290.7,540.7 277.3,527.4" fill="#94a3b8" opacity="0.13" />
    <circle cx="332.2" cy="319.2" r="29.7" fill="#94a3b8" opacity="0.19" />
    <polygon points="142.2,505.3 166.4,529.6 142.2,553.8 118.0,529.6" fill="#94a3b8" opacity="0.37" />
    <polygon points="62.5,506.8 85.6,552.9 39.5,552.9" fill="#64748b" opacity="0.39" />
    <polygon points="162.5,-18.6 203.3,63.0 121.7,63.0" fill="#94a3b8" opacity="0.32" />
    <polygon points="344.8,466.4 355.3,476.8 344.8,487.3 334.4,476.8" fill="#64748b" opacity="0.22" />
    <rect x="-5.3" y="437.0" width="60.6" height="60.6" fill="#64748b" opacity="0.22" />
    <polygon points="224.3,158.4 237.0,171.1 224.3,183.7 211.6,171.1" fill="#94a3b8" opacity="0.29" />
    <circle cx="121.6" cy="447.4" r="40.2" fill="#64748b" opacity="0.26" />
  
  <!-- Text background banner -->
  <defs>
    <linearGradient id="text-bg-25" x1="0%" y1="0%" x2="100%" y2="0%">
      <stop offset="0%" style="stop-color:#000000;stop-opacity:0.7" />
      <stop offset="50%" style="stop-color:#64748b;stop-opacity:0.4" />
      <stop offset="100%" style="stop-color:#000000;stop-opacity:0.7" />
    </linearGradient>
  </defs>
  <rect x="0" y="494" width="400" height="56" fill="url(#text-bg-25)" />

  <!-- Text shadow -->
  <text x="200" y="522" font-family="system-ui, -apple-system, sans-serif" font-size="24" font-weight="bold" text-anchor="middle" fill="#000000" opacity="0.8">Gaming PC The Ultimate...</text>

  <!-- Main text -->
  <text x="200" y="520" font-family="system-ui, -apple-system, sans-serif" font-size="24" font-weight="bold" text-anchor="middle" fill="#ffffff">Gaming PC The Ultimate...</text>
  
  <!-- Rarity border -->
  <rect x="6" y="6" width="388" height="538"
        fill="none" stroke="#f97316" stroke-width="12" rx="8" ry="8" />
</svg>