<?xml version="1.0" encoding="UTF-8"?>
<svg xmlns="http://www.w3.org/2000/svg" viewBox="0 0 400 550" width="400" height="550">
  <defs>
    <linearGradient id="bg-gradient-027" x1="0%" y1="0%" x2="100%" y2="100%">
      <stop offset="0%" style="stop-color:#64748b;stop-opacity:0.26" />
      <stop offset="50%" style="stop-color:#94a3b8;stop-opacity:0.4" />
      <stop offset="100%" style="stop-color:#64748b;stop-opacity:0.26" />
    </linearGradient>
    
  <filter id="shadow-027">
    <feDropShadow dx="0" dy="2" stdDeviation="3" flood-opacity="0.8"/>
  </filter>
  </defs>
  <rect width="400" height="550" fill="url(#bg-gradient-0.14278430654667318)" />
  <g opacity="0.3"><polyline points="0,397.6 5,396.5 10,395.2 15,393.8 20,392.4 25,390.9 30,389.3 35,387.7 40,386.0 45,384.2 50,382.5 55,380.7 60,379.0 65,377.2 70,375.5 75,373.8 80,372.1 85,370.5 90,369.0 95,367.5 100,366.2 105,364.9 110,363.7 115,362.6 120,361.6 125,360.8 130,360.1 135,359.5 140,359.1 145,358.8 150,358.6 155,358.6 160,358.7 165,359.0 170,359.4 175,360.0 180,360.6 185,361.4 190,362.4 195,363.4 200,364.6 205,365.8 210,367.2 215,368.6 220,370.1 225,371.7 230,373.4 235,375.1 240,376.8 245,378.5 250,380.3 255,382.1 260,383.8 265,385.5 270,387.2 275,388.9 280,390.5 285,392.0 290,393.5 295,394.9 300,396.2 305,397.3 310,398.4 315,399.4 320,400.2 325,400.9 330,401.5 335,401.9 340,402.2 345,402.4 350,402.4 355,402.2 360,402.0 365,401.6 370,401.0 375,400.3 380,399.5 385,398.6 390,397.5 395,396.4 400,395.1" fill="none" stroke="#fbbf24" stroke-width="2.1" opacity="0.12" />
    <polyline points="0,289.7 5,287.9 10,286.1 15,284.2 20,282.3 25,280.3 30,278.5 35,276.7 40,275.1 45,273.7 50,272.5 55,271.5 60,270.7 65,270.3 70,270.1 75,270.2 80,270.5 85,271.2 90,272.1 95,273.2 100,274.6 105,276.1 110,277.8 115,279.6 120,281.5 125,283.5 130,285.4 135,287.3 140,289.1 145,290.7 150,292.2 155,293.5 160,294.6 165,295.4 170,296.0 175,296.3 180,296.3 185,296.1 190,295.5 195,294.7 200,293.6 205,292.3 210,290.9 215,289.2 220,287.4 225,285.6 230,283.6 235,281.7 240,279.8 245,278.0 250,276.3 255,274.7 260,273.3 265,272.2 270,271.2 275,270.6 280,270.2 285,270.1 290,270.2 295,270.7 300,271.4 305,272.4 310,273.6 315,275.0 320,276.6 325,278.3 330,280.2 335,282.1 340,284.0 345,285.9 350,287.8 355,289.5 360,291.2 365,292.6 370,293.8 375,294.9 380,295.6 385,296.1 390,296.3 395,296.3 400,295.9" fill="none" stroke="#94a3b8" stroke-width="1.9" opacity="0.20" />
    <polyline points="0,61.9 5,59.7 10,57.6 15,55.5 20,53.6 25,51.8 30,50.0 35,48.4 40,46.9 45,45.6 50,44.4 55,43.3 60,42.4 65,41.7 70,41.0 75,40.6 80,40.3 85,40.2 90,40.3 95,40.5 100,40.8 105,41.4 110,42.1 115,42.9 120,43.9 125,45.1 130,46.3 135,47.8 140,49.3 145,51.0 150,52.8 155,54.7 160,56.7 165,58.8 170,61.0 175,63.2 180,65.5 185,67.9 190,70.3 195,72.7 200,75.1 205,77.6 210,80.0 215,82.5 220,84.9 225,87.2 230,89.6 235,91.9 240,94.1 245,96.2 250,98.2 255,100.2 260,102.0 265,103.8 270,105.4 275,106.9 280,108.2 285,109.5 290,110.5 295,111.5 300,112.2 305,112.8 310,113.3 315,113.6 320,113.7 325,113.7 330,113.5 335,113.1 340,112.6 345,111.9 350,111.1 355,110.1 360,108.9 365,107.7 370,106.3 375,104.7 380,103.0 385,101.3 390,99.4 395,97.4 400,95.3" fill="none" stroke="#64748b" stroke-width="1.5" opacity="0.12" />
    <polyline points="0,92.7 5,91.2 10,89.6 15,88.0 20,86.2 25,84.5 30,82.7 35,81.0 40,79.2 45,77.5 50,75.8 55,74.2 60,72.6 65,71.2 70,69.9 75,68.6 80,67.6 85,66.6 90,65.8 95,65.2 100,64.8 105,64.5 110,64.4 115,64.4 120,64.7 125,65.1 130,65.7 135,66.4 140,67.3 145,68.3 150,69.5 155,70.8 160,72.2 165,73.8 170,75.4 175,77.0 180,78.7 185,80.5 190,82.3 195,84.0 200,85.8 205,87.5 210,89.2 215,90.8 220,92.3 225,93.7 230,95.0 235,96.2 240,97.3 245,98.2 250,99.0 255,99.6 260,100.0 265,100.2 270,100.3 275,100.2 280,100.0 285,99.5 290,98.9 295,98.2 300,97.2 305,96.2 310,95.0 315,93.7 320,92.2 325,90.7 330,89.1 335,87.4 340,85.7 345,83.9 350,82.2 355,80.4 360,78.6 365,76.9 370,75.3 375,73.7 380,72.2 385,70.8 390,69.5 395,68.3 400,67.3" fill="none" stroke="#94a3b8" stroke-width="2.7" opacity="0.11" />
    <polyline points="0,33.6 5,34.4 10,34.8 15,35.0 20,34.8 25,34.4 30,33.6 35,32.6 40,31.3 45,29.7 50,28.0 55,26.0 60,23.8 65,21.5 70,19.0 75,16.5 80,13.9 85,11.3 90,8.7 95,6.1 100,3.6 105,1.3 110,-0.9 115,-3.0 120,-4.8 125,-6.4 130,-7.8 135,-8.9 140,-9.7 145,-10.3 150,-10.5 155,-10.5 160,-10.1 165,-9.4 170,-8.5 175,-7.3 180,-5.8 185,-4.1 190,-2.2 195,-0.1 200,2.2 205,4.6 210,7.1 215,9.7 220,12.3 225,14.9 230,17.5 235,20.0 240,22.4 245,24.7 250,26.8 255,28.7 260,30.4 265,31.8 270,33.0 275,34.0 280,34.6 285,34.9 290,35.0 295,34.7 300,34.1 305,33.3 310,32.1 315,30.8 320,29.1 325,27.3 330,25.2 335,23.0 340,20.6 345,18.1 350,15.5 355,12.9 360,10.3 365,7.7 370,5.2 375,2.8 380,0.5 385,-1.7 390,-3.7 395,-5.4 400,-7.0" fill="none" stroke="#fbbf24" stroke-width="2.5" opacity="0.29" />
    <polyline points="0,35.9 5,32.0 10,28.3 15,24.8 20,21.6 25,18.8 30,16.4 35,14.4 40,12.8 45,11.6 50,10.9 55,10.7 60,11.0 65,11.7 70,13.0 75,14.6 80,16.7 85,19.2 90,22.1 95,25.3 100,28.8 105,32.5 110,36.5 115,40.6 120,44.8 125,49.1 130,53.4 135,57.6 140,61.7 145,65.7 150,69.4 155,72.9 160,76.1 165,79.0 170,81.5 175,83.6 180,85.3 185,86.5 190,87.2 195,87.5 200,87.3 205,86.6 210,85.5 215,83.9 220,81.9 225,79.4 230,76.6 235,73.4 240,70.0 245,66.3 250,62.3 255,58.2 260,54.0 265,49.8 270,45.5 275,41.2 280,37.1 285,33.1 290,29.3 295,25.8 300,22.5 305,19.6 310,17.1 315,14.9 320,13.2 325,11.9 330,11.1 335,10.7 340,10.9 345,11.5 350,12.5 355,14.1 360,16.0 365,18.4 370,21.2 375,24.3 380,27.7 385,31.4 390,35.3 395,39.4 400,43.6" fill="none" stroke="#fbbf24" stroke-width="1.0" opacity="0.28" />
    <polyline points="0,568.9 5,566.5 10,563.9 15,561.2 20,558.3 25,555.4 30,552.4 35,549.3 40,546.3 45,543.2 50,540.3 55,537.4 60,534.6 65,532.0 70,529.5 75,527.2 80,525.1 85,523.3 90,521.7 95,520.4 100,519.3 105,518.5 110,518.1 115,517.9 120,518.0 125,518.5 130,519.2 135,520.2 140,521.5 145,523.1 150,524.9 155,527.0 160,529.2 165,531.7 170,534.3 175,537.1 180,539.9 185,542.9 190,545.9 195,549.0 200,552.0 205,555.1 210,558.0 215,560.9 220,563.6 225,566.3 230,568.7 235,570.9 240,573.0 245,574.8 250,576.3 255,577.6 260,578.6 265,579.3 270,579.7 275,579.8 280,579.6 285,579.2 290,578.4 295,577.3 300,575.9 305,574.3 310,572.5 315,570.4 320,568.1 325,565.6 330,563.0 335,560.2 340,557.3 345,554.3 350,551.3 355,548.2 360,545.2 365,542.1 370,539.2 375,536.3 380,533.6 385,531.0 390,528.6 395,526.4 400,524.4" fill="none" stroke="#94a3b8" stroke-width="2.9" opacity="0.20" />
    <polyline points="0,462.4 5,461.3 10,460.2 15,459.0 20,457.8 25,456.6 30,455.4 35,454.2 40,453.1 45,451.9 50,450.8 55,449.8 60,448.8 65,447.8 70,447.0 75,446.2 80,445.5 85,444.9 90,444.4 95,443.9 100,443.6 105,443.4 110,443.3 115,443.3 120,443.4 125,443.6 130,443.9 135,444.3 140,444.8 145,445.4 150,446.1 155,446.9 160,447.7 165,448.6 170,449.6 175,450.7 180,451.8 185,452.9 190,454.1 195,455.2 200,456.4 205,457.6 210,458.8 215,460.0 220,461.1 225,462.2 230,463.3 235,464.3 240,465.3 245,466.2 250,467.0 255,467.7 260,468.4 265,468.9 270,469.4 275,469.7 280,470.0 285,470.1 290,470.2 295,470.1 300,470.0 305,469.7 310,469.3 315,468.8 320,468.3 325,467.6 330,466.9 335,466.0 340,465.1 345,464.2 350,463.1 355,462.1 360,460.9 365,459.8 370,458.6 375,457.4 380,456.2 385,455.0 390,453.9 395,452.7 400,451.6" fill="none" stroke="#94a3b8" stroke-width="1.8" opacity="0.18" /></g>
  <polygon points="119.8,219.9 147.4,247.5 119.8,275.0 92.2,247.5" fill="#fbbf24" opacity="0.19" />
    <polygon points="217.2,484.1 249.4,548.6 184.9,548.6" fill="#64748b" opacity="0.17" />
    <rect x="225.7" y="351.5" width="24.5" height="24.5" fill="#64748b" opacity="0.34" />
    <rect x="57.4" y="384.0" width="76.1" height="76.1" fill="#64748b" opacity="0.29" />
    <rect x="-29.8" y="73.5" width="85.6" height="85.6" fill="#94a3b8" opacity="0.12" />
    <rect x="320.1" y="281.4" width="98.2" height="98.2" fill="#fbbf24" opacity="0.14" />
    <rect x="103.9" y="313.9" width="67.3" height="67.3" fill="#64748b" opacity="0.11" />
    <polygon points="57.9,347.1 92.7,416.6 23.2,416.6" fill="#94a3b8" opacity="0.18" />
    <rect x="157.9" y="149.1" width="39.8" height="39.8" fill="#64748b" opacity="0.28" />
    <polygon points="382.5,235.6 408.9,262.1 382.5,288.6 356.0,262.1" fill="#64748b" opacity="0.39" />
    <polygon points="307.5,402.5 330.0,425.1 307.5,447.6 284.9,425.1" fill="#64748b" opacity="0.29" />
  
  <!-- Text background banner -->
  <defs>
    <linearGradient id="text-bg-15" x1="0%" y1="0%" x2="100%" y2="0%">
      <stop offset="0%" style="stop-color:#000000;stop-opacity:0.7" />
      <stop offset="50%" style="stop-color:#64748b;stop-opacity:0.4" />
      <stop offset="100%" style="stop-color:#000000;stop-opacity:0.7" />
    </linearGradient>
  </defs>
  <rect x="0" y="494" width="400" height="56" fill="url(#text-bg-15)" />

  <!-- Text shadow -->
  <text x="200" y="522" font-family="system-ui, -apple-system, sans-serif" font-size="24" font-weight="bold" text-anchor="middle" fill="#000000" opacity="0.8">La-Z-Boy Throne</text>

  <!-- Main text -->
  <text x="200" y="520" font-family="system-ui, -apple-system, sans-serif" font-size="24" font-weight="bold" text-anchor="middle" fill="#ffffff">La-Z-Boy Throne</text>
  
  <!-- Rarity border -->
  <rect x="4" y="4" width="392" height="542"
        fill="none" stroke="#eab308" stroke-width="8" rx="8" ry="8" />
</svg>