<?xml version="1.0" encoding="UTF-8"?>
<svg xmlns="http://www.w3.org/2000/svg" viewBox="0 0 400 550" width="400" height="550">
  <defs>
    <linearGradient id="bg-gradient-028" x1="0%" y1="0%" x2="100%" y2="100%">
      <stop offset="0%" style="stop-color:#64748b;stop-opacity:0.26" />
      <stop offset="50%" style="stop-color:#94a3b8;stop-opacity:0.4" />
      <stop offset="100%" style="stop-color:#64748b;stop-opacity:0.26" />
    </linearGradient>
    
  <filter id="shadow-028">
    <feDropShadow dx="0" dy="2" stdDeviation="3" flood-opacity="0.8"/>
  </filter>
  </defs>
  <rect width="400" height="550" fill="url(#bg-gradient-0.8937747466843575)" />
  <g opacity="0.3"><circle cx="341.4" cy="414.5" r="12.4" fill="none" stroke="#94a3b8" stroke-width="1.2" opacity="0.10" />
    <circle cx="71.3" cy="75.0" r="31.0" fill="none" stroke="#fbbf24" stroke-width="2.5" opacity="0.10" />
    <rect x="356.7" y="-11.8" width="63.1" height="63.1" fill="none" stroke="#fbbf24" stroke-width="1.8" opacity="0.27" />
    <circle cx="335.1" cy="66.5" r="34.2" fill="none" stroke="#fbbf24" stroke-width="2.8" opacity="0.29" />
    <rect x="121.3" y="421.2" width="63.2" height="63.2" fill="none" stroke="#94a3b8" stroke-width="1.2" opacity="0.20" />
    <rect x="341.3" y="278.1" width="37.6" height="37.6" fill="none" stroke="#94a3b8" stroke-width="1.6" opacity="0.10" />
    <circle cx="225.3" cy="549.6" r="12.6" fill="none" stroke="#64748b" stroke-width="1.1" opacity="0.27" /></g>
  <polygon points="78.6,415.4 123.6,460.3 78.6,505.3 33.6,460.3" fill="#fbbf24" opacity="0.26" />
    <circle cx="375.6" cy="319.5" r="33.1" fill="#64748b" opacity="0.27" />
    <circle cx="104.2" cy="16.0" r="23.8" fill="#64748b" opacity="0.12" />
    <circle cx="125.0" cy="239.2" r="40.8" fill="#94a3b8" opacity="0.29" />
    <rect x="67.4" y="2.9" width="93.2" height="93.2" fill="#fbbf24" opacity="0.28" />
    <polygon points="219.3,362.0 238.0,380.8 219.3,399.5 200.6,380.8" fill="#64748b" opacity="0.39" />
    <polygon points="353.9,-20.2 395.5,21.5 353.9,63.1 312.3,21.5" fill="#94a3b8" opacity="0.18" />
    <polygon points="363.1,9.1 413.0,59.0 363.1,108.9 313.2,59.0" fill="#fbbf24" opacity="0.38" />
  
  <!-- Text background banner -->
  <defs>
    <linearGradient id="text-bg-17" x1="0%" y1="0%" x2="100%" y2="0%">
      <stop offset="0%" style="stop-color:#000000;stop-opacity:0.7" />
      <stop offset="50%" style="stop-color:#64748b;stop-opacity:0.4" />
      <stop offset="100%" style="stop-color:#000000;stop-opacity:0.7" />
    </linearGradient>
  </defs>
  <rect x="0" y="494" width="400" height="56" fill="url(#text-bg-17)" />

  <!-- Text shadow -->
  <text x="200" y="522" font-family="system-ui, -apple-system, sans-serif" font-size="24" font-weight="bold" text-anchor="middle" fill="#000000" opacity="0.8">Craftsman Toolbox</text>

  <!-- Main text -->
  <text x="200" y="520" font-family="system-ui, -apple-system, sans-serif" font-size="24" font-weight="bold" text-anchor="middle" fill="#ffffff">Craftsman Toolbox</text>
  
  <!-- Rarity border -->
  <rect x="3" y="3" width="394" height="544"
        fill="none" stroke="#3b82f6" stroke-width="6" rx="8" ry="8" />
</svg>