<?xml version="1.0" encoding="UTF-8"?>
<svg xmlns="http://www.w3.org/2000/svg" viewBox="0 0 400 550" width="400" height="550">
  <defs>
    <linearGradient id="bg-gradient-029" x1="0%" y1="0%" x2="100%" y2="100%">
      <stop offset="0%" style="stop-color:#64748b;stop-opacity:0.26" />
      <stop offset="50%" style="stop-color:#94a3b8;stop-opacity:0.4" />
      <stop offset="100%" style="stop-color:#64748b;stop-opacity:0.26" />
    </linearGradient>
    
  <filter id="shadow-029">
    <feDropShadow dx="0" dy="2" stdDeviation="3" flood-opacity="0.8"/>
  </filter>
  </defs>
  <rect width="400" height="550" fill="url(#bg-gradient-0.05081140180118382)" />
  <g opacity="0.3"><rect x="15.7" y="276.8" width="67.2" height="67.2" fill="none" stroke="#94a3b8" stroke-width="1.4" opacity="0.29" />
    <circle cx="163.2" cy="129.3" r="36.4" fill="none" stroke="#fbbf24" stroke-width="1.6" opacity="0.23" />
    <rect x="176.5" y="476.3" width="62.5" height="62.5" fill="none" stroke="#94a3b8" stroke-width="2.1" opacity="0.18" />
    <circle cx="225.0" cy="504.7" r="12.2" fill="none" stroke="#94a3b8" stroke-width="2.2" opacity="0.11" />
    <rect x="137.9" y="252.6" width="35.6" height="35.6" fill="none" stroke="#94a3b8" stroke-width="2.4" opacity="0.10" />
    <circle cx="235.7" cy="85.1" r="14.0" fill="none" stroke="#fbbf24" stroke-width="2.1" opacity="0.19" />
    <rect x="373.9" y="99.3" width="49.9" height="49.9" fill="none" stroke="#fbbf24" stroke-width="1.4" opacity="0.16" /></g>
  <polygon points="184.6,144.9 214.9,205.7 154.2,205.7" fill="#fbbf24" opacity="0.20" />
    <circle cx="119.9" cy="158.2" r="26.4" fill="#94a3b8" opacity="0.28" />
    <polygon points="395.2,250.4 418.4,296.9 371.9,296.9" fill="#94a3b8" opacity="0.26" />
    <polygon points="44.7,90.7 89.0,135.0 44.7,179.3 0.4,135.0" fill="#64748b" opacity="0.28" />
    <polygon points="385.1,370.8 427.1,454.8 343.1,454.8" fill="#64748b" opacity="0.37" />
    <circle cx="163.1" cy="531.6" r="44.9" fill="#94a3b8" opacity="0.23" />
    <polygon points="375.0,145.3 421.4,191.8 375.0,238.2 328.5,191.8" fill="#94a3b8" opacity="0.40" />
    <rect x="8.1" y="77.5" width="86.3" height="86.3" fill="#fbbf24" opacity="0.36" />
  
  <!-- Text background banner -->
  <defs>
    <linearGradient id="text-bg-23" x1="0%" y1="0%" x2="100%" y2="0%">
      <stop offset="0%" style="stop-color:#000000;stop-opacity:0.7" />
      <stop offset="50%" style="stop-color:#64748b;stop-opacity:0.4" />
      <stop offset="100%" style="stop-color:#000000;stop-opacity:0.7" />
    </linearGradient>
  </defs>
  <rect x="0" y="494" width="400" height="56" fill="url(#text-bg-23)" />

  <!-- Text shadow -->
  <text x="200" y="522" font-family="system-ui, -apple-system, sans-serif" font-size="24" font-weight="bold" text-anchor="middle" fill="#000000" opacity="0.8">Cargo Shorts of Holding</text>

  <!-- Main text -->
  <text x="200" y="520" font-family="system-ui, -apple-system, sans-serif" font-size="24" font-weight="bold" text-anchor="middle" fill="#ffffff">Cargo Shorts of Holding</text>
  
  <!-- Rarity border -->
  <rect x="3" y="3" width="394" height="544"
        fill="none" stroke="#3b82f6" stroke-width="6" rx="8" ry="8" />
</svg>