<?xml version="1.0" encoding="UTF-8"?>
<svg xmlns="http://www.w3.org/2000/svg" viewBox="0 0 400 550" width="400" height="550">
  <defs>
    <linearGradient id="bg-gradient-030" x1="0%" y1="0%" x2="100%" y2="100%">
      <stop offset="0%" style="stop-color:#64748b;stop-opacity:0.26" />
      <stop offset="50%" style="stop-color:#94a3b8;stop-opacity:0.4" />
      <stop offset="100%" style="stop-color:#64748b;stop-opacity:0.26" />
    </linearGradient>
    
  <filter id="shadow-030">
    <feDropShadow dx="0" dy="2" stdDeviation="3" flood-opacity="0.8"/>
  </filter>
  </defs>
  <rect width="400" height="550" fill="url(#bg-gradient-0.8746878090314567)" />
  <g opacity="0.3"><circle cx="2.8" cy="8.9" r="10" fill="#94a3b8" />
    <circle cx="6.3" cy="24.6" r="10" fill="#94a3b8" />
    <circle cx="8.8" cy="34.4" r="10" fill="#fbbf24" />
    <circle cx="8.0" cy="48.9" r="10" fill="#64748b" />
    <circle cx="7.8" cy="64.7" r="10" fill="#fbbf24" />
    <circle cx="5.7" cy="94.0" r="10" fill="#64748b" />
    <circle cx="8.6" cy="122.1" r="10" fill="#fbbf24" />
    <circle cx="4.9" cy="135.4" r="10" fill="#fbbf24" />
    <circle cx="7.8" cy="154.5" r="10" fill="#fbbf24" />
    <circle cx="7.1" cy="172.8" r="10" fill="#64748b" />
    <circle cx="9.4" cy="186.0" r="10" fill="#94a3b8" />
    <circle cx="1.6" cy="200.5" r="10" fill="#fbbf24" />
    <circle cx="0.4" cy="227.8" r="10" fill="#64748b" />
    <circle cx="4.3" cy="249.8" r="10" fill="#94a3b8" />
    <circle cx="2.7" cy="261.0" r="10" fill="#94a3b8" />
    <circle cx="4.7" cy="276.7" r="10" fill="#94a3b8" />
    <circle cx="5.9" cy="307.3" r="10" fill="#64748b" />
    <circle cx="2.2" cy="330.9" r="10" fill="#fbbf24" />
    <circle cx="2.8" cy="352.3" r="10" fill="#64748b" />
    <circle cx="1.5" cy="364.1" r="10" fill="#fbbf24" />
    <circle cx="4.8" cy="377.8" r="10" fill="#94a3b8" />
    <circle cx="5.2" cy="429.7" r="10" fill="#94a3b8" />
    <circle cx="2.7" cy="435.4" r="10" fill="#fbbf24" />
    <circle cx="3.2" cy="468.7" r="10" fill="#64748b" />
    <circle cx="9.4" cy="481.7" r="10" fill="#fbbf24" />
    <circle cx="5.6" cy="495.5" r="10" fill="#94a3b8" />
    <circle cx="9.7" cy="518.8" r="10" fill="#64748b" />
    <circle cx="9.9" cy="532.7" r="10" fill="#fbbf24" />
    <circle cx="8.6" cy="549.7" r="10" fill="#94a3b8" />
    <circle cx="19.9" cy="3.8" r="10" fill="#94a3b8" />
    <circle cx="19.3" cy="23.0" r="10" fill="#fbbf24" />
    <circle cx="15.6" cy="64.0" r="10" fill="#fbbf24" />
    <circle cx="18.8" cy="76.4" r="10" fill="#fbbf24" />
    <circle cx="17.3" cy="91.5" r="10" fill="#94a3b8" />
    <circle cx="17.3" cy="114.0" r="10" fill="#fbbf24" />
    <circle cx="23.7" cy="128.4" r="10" fill="#fbbf24" />
    <circle cx="22.5" cy="136.6" r="10" fill="#94a3b8" />
    <circle cx="22.3" cy="153.5" r="10" fill="#64748b" />
    <circle cx="17.0" cy="186.2" r="10" fill="#fbbf24" />
    <circle cx="18.1" cy="203.5" r="10" fill="#fbbf24" />
    <circle cx="17.9" cy="232.5" r="10" fill="#fbbf24" />
    <circle cx="18.1" cy="261.6" r="10" fill="#64748b" />
    <circle cx="17.8" cy="278.4" r="10" fill="#64748b" />
    <circle cx="17.6" cy="302.3" r="10" fill="#fbbf24" />
    <circle cx="17.4" cy="321.4" r="10" fill="#94a3b8" />
    <circle cx="22.5" cy="369.7" r="10" fill="#fbbf24" />
    <circle cx="19.8" cy="381.4" r="10" fill="#64748b" />
    <circle cx="21.0" cy="394.1" r="10" fill="#94a3b8" />
    <circle cx="15.8" cy="407.5" r="10" fill="#fbbf24" />
    <circle cx="23.4" cy="428.3" r="10" fill="#fbbf24" />
    <circle cx="16.4" cy="435.7" r="10" fill="#94a3b8" />
    <circle cx="22.2" cy="454.9" r="10" fill="#64748b" />
    <circle cx="18.2" cy="474.2" r="10" fill="#94a3b8" />
    <circle cx="19.6" cy="497.5" r="10" fill="#94a3b8" />
    <circle cx="15.2" cy="519.8" r="10" fill="#64748b" />
    <circle cx="17.3" cy="526.3" r="10" fill="#94a3b8" />
    <circle cx="38.2" cy="2.1" r="10" fill="#94a3b8" />
    <circle cx="32.1" cy="17.4" r="10" fill="#94a3b8" />
    <circle cx="38.4" cy="46.5" r="10" fill="#94a3b8" />
    <circle cx="35.7" cy="62.6" r="10" fill="#fbbf24" />
    <circle cx="35.7" cy="75.2" r="10" fill="#fbbf24" />
    <circle cx="33.8" cy="109.9" r="10" fill="#64748b" />
    <circle cx="30.5" cy="129.5" r="10" fill="#fbbf24" />
    <circle cx="39.6" cy="136.4" r="10" fill="#fbbf24" />
    <circle cx="36.8" cy="153.4" r="10" fill="#64748b" />
    <circle cx="39.2" cy="189.2" r="10" fill="#94a3b8" />
    <circle cx="37.1" cy="213.1" r="10" fill="#fbbf24" />
    <circle cx="32.1" cy="229.5" r="10" fill="#fbbf24" />
    <circle cx="31.5" cy="242.8" r="10" fill="#64748b" />
    <circle cx="30.3" cy="275.2" r="10" fill="#94a3b8" />
    <circle cx="38.8" cy="320.1" r="10" fill="#64748b" />
    <circle cx="33.2" cy="338.6" r="10" fill="#64748b" />
    <circle cx="39.8" cy="382.9" r="10" fill="#94a3b8" />
    <circle cx="39.8" cy="391.0" r="10" fill="#94a3b8" />
    <circle cx="37.0" cy="414.9" r="10" fill="#64748b" />
    <circle cx="31.2" cy="421.5" r="10" fill="#94a3b8" />
    <circle cx="30.0" cy="436.3" r="10" fill="#64748b" />
    <circle cx="39.8" cy="456.2" r="10" fill="#94a3b8" />
    <circle cx="33.3" cy="467.0" r="10" fill="#64748b" />
    <circle cx="32.5" cy="483.4" r="10" fill="#94a3b8" />
    <circle cx="32.1" cy="503.4" r="10" fill="#94a3b8" />
    <circle cx="39.8" cy="512.3" r="10" fill="#fbbf24" />
    <circle cx="38.3" cy="534.8" r="10" fill="#fbbf24" />
    <circle cx="38.1" cy="543.4" r="10" fill="#94a3b8" />
    <circle cx="49.0" cy="21.3" r="10" fill="#fbbf24" />
    <circle cx="47.2" cy="39.3" r="10" fill="#94a3b8" />
    <circle cx="47.1" cy="53.7" r="10" fill="#fbbf24" />
    <circle cx="47.1" cy="68.7" r="10" fill="#fbbf24" />
    <circle cx="45.8" cy="92.2" r="10" fill="#64748b" />
    <circle cx="51.8" cy="108.3" r="10" fill="#fbbf24" />
    <circle cx="46.9" cy="144.4" r="10" fill="#94a3b8" />
    <circle cx="54.4" cy="154.7" r="10" fill="#64748b" />
    <circle cx="54.4" cy="170.5" r="10" fill="#94a3b8" />
    <circle cx="51.2" cy="185.0" r="10" fill="#64748b" />
    <circle cx="53.8" cy="196.5" r="10" fill="#fbbf24" />
    <circle cx="48.3" cy="226.4" r="10" fill="#64748b" />
    <circle cx="48.9" cy="256.4" r="10" fill="#fbbf24" />
    <circle cx="50.3" cy="271.4" r="10" fill="#64748b" />
    <circle cx="53.5" cy="304.8" r="10" fill="#64748b" />
    <circle cx="47.2" cy="315.2" r="10" fill="#fbbf24" />
    <circle cx="51.5" cy="353.8" r="10" fill="#94a3b8" />
    <circle cx="53.5" cy="381.0" r="10" fill="#fbbf24" />
    <circle cx="48.8" cy="392.1" r="10" fill="#94a3b8" />
    <circle cx="46.3" cy="406.9" r="10" fill="#94a3b8" />
    <circle cx="49.1" cy="425.0" r="10" fill="#fbbf24" />
    <circle cx="48.7" cy="453.7" r="10" fill="#64748b" />
    <circle cx="50.5" cy="487.1" r="10" fill="#64748b" />
    <circle cx="53.4" cy="497.3" r="10" fill="#94a3b8" />
    <circle cx="45.5" cy="514.8" r="10" fill="#94a3b8" />
    <circle cx="69.7" cy="3.0" r="10" fill="#64748b" />
    <circle cx="60.4" cy="16.2" r="10" fill="#64748b" />
    <circle cx="68.4" cy="39.2" r="10" fill="#64748b" />
    <circle cx="61.1" cy="53.6" r="10" fill="#fbbf24" />
    <circle cx="69.0" cy="68.3" r="10" fill="#fbbf24" />
    <circle cx="64.0" cy="77.7" r="10" fill="#94a3b8" />
    <circle cx="60.2" cy="95.3" r="10" fill="#64748b" />
    <circle cx="67.5" cy="113.2" r="10" fill="#64748b" />
    <circle cx="67.1" cy="127.2" r="10" fill="#94a3b8" />
    <circle cx="67.4" cy="156.7" r="10" fill="#94a3b8" />
    <circle cx="68.3" cy="169.3" r="10" fill="#64748b" />
    <circle cx="61.3" cy="188.0" r="10" fill="#94a3b8" />
    <circle cx="62.3" cy="213.1" r="10" fill="#64748b" />
    <circle cx="65.1" cy="242.4" r="10" fill="#94a3b8" />
    <circle cx="63.1" cy="261.7" r="10" fill="#fbbf24" />
    <circle cx="66.0" cy="301.7" r="10" fill="#fbbf24" />
    <circle cx="66.4" cy="316.7" r="10" fill="#fbbf24" />
    <circle cx="61.7" cy="351.5" r="10" fill="#fbbf24" />
    <circle cx="66.9" cy="362.0" r="10" fill="#64748b" />
    <circle cx="69.3" cy="399.1" r="10" fill="#fbbf24" />
    <circle cx="64.8" cy="411.3" r="10" fill="#fbbf24" />
    <circle cx="69.8" cy="427.0" r="10" fill="#fbbf24" />
    <circle cx="63.2" cy="437.6" r="10" fill="#fbbf24" />
    <circle cx="60.0" cy="452.8" r="10" fill="#64748b" />
    <circle cx="62.5" cy="540.1" r="10" fill="#fbbf24" />
    <circle cx="82.8" cy="2.9" r="10" fill="#94a3b8" />
    <circle cx="81.9" cy="15.6" r="10" fill="#64748b" />
    <circle cx="77.0" cy="31.4" r="10" fill="#94a3b8" />
    <circle cx="80.4" cy="46.6" r="10" fill="#64748b" />
    <circle cx="80.2" cy="66.5" r="10" fill="#64748b" />
    <circle cx="78.4" cy="78.8" r="10" fill="#94a3b8" />
    <circle cx="77.8" cy="96.1" r="10" fill="#fbbf24" />
    <circle cx="84.2" cy="112.8" r="10" fill="#94a3b8" />
    <circle cx="82.0" cy="125.0" r="10" fill="#64748b" />
    <circle cx="77.5" cy="135.5" r="10" fill="#64748b" />
    <circle cx="82.3" cy="154.9" r="10" fill="#64748b" />
    <circle cx="78.9" cy="184.1" r="10" fill="#64748b" />
    <circle cx="80.4" cy="201.4" r="10" fill="#fbbf24" />
    <circle cx="80.0" cy="228.0" r="10" fill="#fbbf24" />
    <circle cx="81.7" cy="293.1" r="10" fill="#94a3b8" />
    <circle cx="76.9" cy="316.9" r="10" fill="#fbbf24" />
    <circle cx="81.9" cy="330.4" r="10" fill="#94a3b8" />
    <circle cx="75.5" cy="351.9" r="10" fill="#94a3b8" />
    <circle cx="78.2" cy="363.7" r="10" fill="#64748b" />
    <circle cx="75.2" cy="375.3" r="10" fill="#fbbf24" />
    <circle cx="84.5" cy="414.3" r="10" fill="#fbbf24" />
    <circle cx="80.6" cy="438.6" r="10" fill="#fbbf24" />
    <circle cx="75.6" cy="466.9" r="10" fill="#64748b" />
    <circle cx="75.5" cy="489.1" r="10" fill="#64748b" />
    <circle cx="76.3" cy="500.6" r="10" fill="#fbbf24" />
    <circle cx="79.8" cy="529.3" r="10" fill="#94a3b8" />
    <circle cx="84.5" cy="548.8" r="10" fill="#64748b" />
    <circle cx="96.2" cy="47.9" r="10" fill="#94a3b8" />
    <circle cx="94.8" cy="65.6" r="10" fill="#64748b" />
    <circle cx="97.7" cy="83.8" r="10" fill="#64748b" />
    <circle cx="93.5" cy="90.3" r="10" fill="#64748b" />
    <circle cx="95.7" cy="105.7" r="10" fill="#64748b" />
    <circle cx="90.2" cy="126.9" r="10" fill="#64748b" />
    <circle cx="99.2" cy="144.5" r="10" fill="#fbbf24" />
    <circle cx="91.8" cy="158.6" r="10" fill="#64748b" />
    <circle cx="96.3" cy="170.9" r="10" fill="#fbbf24" />
    <circle cx="92.1" cy="182.7" r="10" fill="#fbbf24" />
    <circle cx="98.6" cy="202.6" r="10" fill="#64748b" />
    <circle cx="93.4" cy="228.3" r="10" fill="#94a3b8" />
    <circle cx="97.7" cy="248.4" r="10" fill="#94a3b8" />
    <circle cx="98.2" cy="276.2" r="10" fill="#fbbf24" />
    <circle cx="90.9" cy="291.3" r="10" fill="#94a3b8" />
    <circle cx="93.8" cy="303.2" r="10" fill="#64748b" />
    <circle cx="90.7" cy="364.6" r="10" fill="#94a3b8" />
    <circle cx="92.3" cy="383.8" r="10" fill="#fbbf24" />
    <circle cx="95.8" cy="395.1" r="10" fill="#94a3b8" />
    <circle cx="94.2" cy="423.1" r="10" fill="#fbbf24" />
    <circle cx="95.9" cy="436.3" r="10" fill="#94a3b8" />
    <circle cx="98.6" cy="455.8" r="10" fill="#64748b" />
    <circle cx="90.1" cy="468.9" r="10" fill="#fbbf24" />
    <circle cx="98.9" cy="481.7" r="10" fill="#fbbf24" />
    <circle cx="97.9" cy="530.5" r="10" fill="#64748b" />
    <circle cx="108.6" cy="8.8" r="10" fill="#94a3b8" />
    <circle cx="112.1" cy="24.4" r="10" fill="#64748b" />
    <circle cx="114.0" cy="38.5" r="10" fill="#94a3b8" />
    <circle cx="106.9" cy="50.3" r="10" fill="#64748b" />
    <circle cx="113.8" cy="65.1" r="10" fill="#64748b" />
    <circle cx="110.4" cy="76.2" r="10" fill="#94a3b8" />
    <circle cx="112.4" cy="155.6" r="10" fill="#fbbf24" />
    <circle cx="105.4" cy="181.0" r="10" fill="#fbbf24" />
    <circle cx="109.0" cy="228.4" r="10" fill="#64748b" />
    <circle cx="113.0" cy="262.8" r="10" fill="#64748b" />
    <circle cx="112.3" cy="271.6" r="10" fill="#64748b" />
    <circle cx="105.1" cy="289.2" r="10" fill="#94a3b8" />
    <circle cx="114.5" cy="304.1" r="10" fill="#94a3b8" />
    <circle cx="112.9" cy="321.7" r="10" fill="#fbbf24" />
    <circle cx="110.8" cy="339.0" r="10" fill="#64748b" />
    <circle cx="110.2" cy="354.2" r="10" fill="#94a3b8" />
    <circle cx="112.2" cy="360.3" r="10" fill="#94a3b8" />
    <circle cx="109.3" cy="380.6" r="10" fill="#94a3b8" />
    <circle cx="111.9" cy="397.9" r="10" fill="#fbbf24" />
    <circle cx="109.3" cy="410.0" r="10" fill="#64748b" />
    <circle cx="105.9" cy="424.9" r="10" fill="#fbbf24" />
    <circle cx="107.8" cy="468.7" r="10" fill="#fbbf24" />
    <circle cx="111.9" cy="484.0" r="10" fill="#94a3b8" />
    <circle cx="108.5" cy="497.9" r="10" fill="#fbbf24" />
    <circle cx="108.6" cy="531.1" r="10" fill="#fbbf24" />
    <circle cx="127.0" cy="51.2" r="10" fill="#64748b" />
    <circle cx="121.0" cy="62.8" r="10" fill="#fbbf24" />
    <circle cx="124.7" cy="79.5" r="10" fill="#64748b" />
    <circle cx="122.1" cy="96.5" r="10" fill="#64748b" />
    <circle cx="128.5" cy="114.0" r="10" fill="#fbbf24" />
    <circle cx="123.1" cy="129.8" r="10" fill="#fbbf24" />
    <circle cx="128.4" cy="141.7" r="10" fill="#94a3b8" />
    <circle cx="128.6" cy="156.2" r="10" fill="#94a3b8" />
    <circle cx="121.9" cy="167.9" r="10" fill="#94a3b8" />
    <circle cx="127.2" cy="180.9" r="10" fill="#64748b" />
    <circle cx="129.8" cy="201.1" r="10" fill="#94a3b8" />
    <circle cx="128.2" cy="228.7" r="10" fill="#94a3b8" />
    <circle cx="124.7" cy="241.8" r="10" fill="#94a3b8" />
    <circle cx="125.6" cy="275.0" r="10" fill="#64748b" />
    <circle cx="123.2" cy="301.1" r="10" fill="#94a3b8" />
    <circle cx="120.7" cy="316.5" r="10" fill="#64748b" />
    <circle cx="124.5" cy="333.5" r="10" fill="#64748b" />
    <circle cx="125.4" cy="345.9" r="10" fill="#94a3b8" />
    <circle cx="124.3" cy="360.4" r="10" fill="#fbbf24" />
    <circle cx="126.2" cy="381.1" r="10" fill="#fbbf24" />
    <circle cx="123.5" cy="393.1" r="10" fill="#94a3b8" />
    <circle cx="129.2" cy="413.4" r="10" fill="#94a3b8" />
    <circle cx="127.6" cy="454.1" r="10" fill="#fbbf24" />
    <circle cx="125.9" cy="470.8" r="10" fill="#fbbf24" />
    <circle cx="129.9" cy="495.7" r="10" fill="#64748b" />
    <circle cx="127.3" cy="540.8" r="10" fill="#fbbf24" />
    <circle cx="137.6" cy="0.4" r="10" fill="#fbbf24" />
    <circle cx="144.5" cy="17.7" r="10" fill="#fbbf24" />
    <circle cx="137.2" cy="37.8" r="10" fill="#64748b" />
    <circle cx="135.2" cy="46.4" r="10" fill="#94a3b8" />
    <circle cx="143.8" cy="63.1" r="10" fill="#64748b" />
    <circle cx="144.6" cy="93.5" r="10" fill="#fbbf24" />
    <circle cx="144.3" cy="126.1" r="10" fill="#fbbf24" />
    <circle cx="142.3" cy="139.4" r="10" fill="#94a3b8" />
    <circle cx="136.0" cy="158.4" r="10" fill="#64748b" />
    <circle cx="142.1" cy="174.1" r="10" fill="#fbbf24" />
    <circle cx="143.8" cy="187.0" r="10" fill="#fbbf24" />
    <circle cx="136.3" cy="204.0" r="10" fill="#64748b" />
    <circle cx="141.6" cy="218.3" r="10" fill="#94a3b8" />
    <circle cx="144.3" cy="228.2" r="10" fill="#64748b" />
    <circle cx="136.4" cy="247.3" r="10" fill="#fbbf24" />
    <circle cx="140.6" cy="258.3" r="10" fill="#fbbf24" />
    <circle cx="141.1" cy="279.9" r="10" fill="#64748b" />
    <circle cx="136.3" cy="305.4" r="10" fill="#fbbf24" />
    <circle cx="143.0" cy="336.4" r="10" fill="#94a3b8" />
    <circle cx="136.0" cy="364.4" r="10" fill="#fbbf24" />
    <circle cx="136.0" cy="383.9" r="10" fill="#64748b" />
    <circle cx="143.1" cy="390.9" r="10" fill="#94a3b8" />
    <circle cx="144.0" cy="407.8" r="10" fill="#64748b" />
    <circle cx="138.2" cy="437.5" r="10" fill="#64748b" />
    <circle cx="140.0" cy="450.4" r="10" fill="#fbbf24" />
    <circle cx="143.7" cy="483.8" r="10" fill="#64748b" />
    <circle cx="144.2" cy="504.1" r="10" fill="#94a3b8" />
    <circle cx="144.9" cy="514.6" r="10" fill="#fbbf24" />
    <circle cx="137.0" cy="531.2" r="10" fill="#fbbf24" />
    <circle cx="136.4" cy="549.8" r="10" fill="#64748b" />
    <circle cx="157.5" cy="15.4" r="10" fill="#64748b" />
    <circle cx="154.5" cy="32.9" r="10" fill="#fbbf24" />
    <circle cx="158.2" cy="54.1" r="10" fill="#94a3b8" />
    <circle cx="158.8" cy="64.7" r="10" fill="#64748b" />
    <circle cx="155.8" cy="92.8" r="10" fill="#64748b" />
    <circle cx="153.5" cy="110.5" r="10" fill="#94a3b8" />
    <circle cx="153.1" cy="120.8" r="10" fill="#64748b" />
    <circle cx="155.0" cy="153.7" r="10" fill="#fbbf24" />
    <circle cx="159.0" cy="172.3" r="10" fill="#64748b" />
    <circle cx="157.1" cy="189.1" r="10" fill="#94a3b8" />
    <circle cx="154.9" cy="204.7" r="10" fill="#94a3b8" />
    <circle cx="157.7" cy="247.0" r="10" fill="#64748b" />
    <circle cx="158.7" cy="316.4" r="10" fill="#64748b" />
    <circle cx="158.7" cy="347.5" r="10" fill="#64748b" />
    <circle cx="151.3" cy="366.8" r="10" fill="#94a3b8" />
    <circle cx="158.9" cy="378.7" r="10" fill="#94a3b8" />
    <circle cx="150.3" cy="398.9" r="10" fill="#64748b" />
    <circle cx="159.7" cy="414.3" r="10" fill="#64748b" />
    <circle cx="150.5" cy="422.3" r="10" fill="#94a3b8" />
    <circle cx="159.2" cy="437.3" r="10" fill="#64748b" />
    <circle cx="152.9" cy="459.1" r="10" fill="#fbbf24" />
    <circle cx="150.5" cy="471.8" r="10" fill="#fbbf24" />
    <circle cx="152.8" cy="484.3" r="10" fill="#fbbf24" />
    <circle cx="151.9" cy="517.0" r="10" fill="#64748b" />
    <circle cx="154.3" cy="526.8" r="10" fill="#fbbf24" />
    <circle cx="159.3" cy="540.3" r="10" fill="#64748b" />
    <circle cx="170.2" cy="0.4" r="10" fill="#fbbf24" />
    <circle cx="174.0" cy="24.7" r="10" fill="#64748b" />
    <circle cx="172.5" cy="30.8" r="10" fill="#94a3b8" />
    <circle cx="174.4" cy="61.3" r="10" fill="#94a3b8" />
    <circle cx="166.8" cy="77.5" r="10" fill="#fbbf24" />
    <circle cx="172.6" cy="99.8" r="10" fill="#fbbf24" />
    <circle cx="168.3" cy="107.8" r="10" fill="#94a3b8" />
    <circle cx="171.8" cy="124.8" r="10" fill="#fbbf24" />
    <circle cx="166.7" cy="140.1" r="10" fill="#64748b" />
    <circle cx="171.1" cy="151.4" r="10" fill="#94a3b8" />
    <circle cx="167.0" cy="165.5" r="10" fill="#fbbf24" />
    <circle cx="174.7" cy="229.0" r="10" fill="#64748b" />
    <circle cx="169.3" cy="246.8" r="10" fill="#64748b" />
    <circle cx="167.6" cy="257.7" r="10" fill="#64748b" />
    <circle cx="165.8" cy="279.9" r="10" fill="#fbbf24" />
    <circle cx="170.8" cy="286.1" r="10" fill="#fbbf24" />
    <circle cx="173.0" cy="306.5" r="10" fill="#64748b" />
    <circle cx="170.5" cy="336.6" r="10" fill="#64748b" />
    <circle cx="170.0" cy="354.6" r="10" fill="#fbbf24" />
    <circle cx="172.7" cy="381.7" r="10" fill="#64748b" />
    <circle cx="172.9" cy="398.1" r="10" fill="#94a3b8" />
    <circle cx="167.3" cy="409.7" r="10" fill="#fbbf24" />
    <circle cx="165.7" cy="426.2" r="10" fill="#94a3b8" />
    <circle cx="169.0" cy="435.5" r="10" fill="#64748b" />
    <circle cx="170.0" cy="458.5" r="10" fill="#fbbf24" />
    <circle cx="169.4" cy="465.5" r="10" fill="#64748b" />
    <circle cx="168.6" cy="489.2" r="10" fill="#94a3b8" />
    <circle cx="165.6" cy="500.8" r="10" fill="#64748b" />
    <circle cx="171.4" cy="513.3" r="10" fill="#fbbf24" />
    <circle cx="167.8" cy="530.9" r="10" fill="#94a3b8" />
    <circle cx="167.2" cy="547.8" r="10" fill="#94a3b8" />
    <circle cx="185.9" cy="32.9" r="10" fill="#fbbf24" />
    <circle cx="188.5" cy="47.0" r="10" fill="#94a3b8" />
    <circle cx="187.0" cy="76.2" r="10" fill="#fbbf24" />
    <circle cx="181.8" cy="95.8" r="10" fill="#fbbf24" />
    <circle cx="185.1" cy="144.0" r="10" fill="#64748b" />
    <circle cx="181.9" cy="156.6" r="10" fill="#94a3b8" />
    <circle cx="188.2" cy="166.8" r="10" fill="#94a3b8" />
    <circle cx="180.2" cy="183.3" r="10" fill="#64748b" />
    <circle cx="183.5" cy="225.8" r="10" fill="#64748b" />
    <circle cx="185.2" cy="248.1" r="10" fill="#94a3b8" />
    <circle cx="181.2" cy="259.7" r="10" fill="#fbbf24" />
    <circle cx="184.8" cy="272.0" r="10" fill="#fbbf24" />
    <circle cx="188.9" cy="290.5" r="10" fill="#94a3b8" />
    <circle cx="182.2" cy="320.8" r="10" fill="#64748b" />
    <circle cx="185.8" cy="379.0" r="10" fill="#64748b" />
    <circle cx="186.3" cy="413.0" r="10" fill="#64748b" />
    <circle cx="188.7" cy="423.9" r="10" fill="#64748b" />
    <circle cx="181.9" cy="453.5" r="10" fill="#64748b" />
    <circle cx="187.7" cy="474.3" r="10" fill="#64748b" />
    <circle cx="189.0" cy="485.1" r="10" fill="#fbbf24" />
    <circle cx="184.4" cy="497.1" r="10" fill="#fbbf24" />
    <circle cx="184.1" cy="527.6" r="10" fill="#64748b" />
    <circle cx="189.5" cy="541.9" r="10" fill="#fbbf24" />
    <circle cx="198.4" cy="19.3" r="10" fill="#64748b" />
    <circle cx="197.2" cy="47.1" r="10" fill="#fbbf24" />
    <circle cx="199.1" cy="68.2" r="10" fill="#fbbf24" />
    <circle cx="199.1" cy="78.8" r="10" fill="#64748b" />
    <circle cx="200.1" cy="97.6" r="10" fill="#fbbf24" />
    <circle cx="203.8" cy="105.4" r="10" fill="#fbbf24" />
    <circle cx="202.1" cy="122.6" r="10" fill="#94a3b8" />
    <circle cx="200.6" cy="156.8" r="10" fill="#94a3b8" />
    <circle cx="203.8" cy="188.2" r="10" fill="#64748b" />
    <circle cx="199.8" cy="195.1" r="10" fill="#94a3b8" />
    <circle cx="203.7" cy="214.7" r="10" fill="#fbbf24" />
    <circle cx="199.8" cy="229.8" r="10" fill="#64748b" />
    <circle cx="195.4" cy="242.6" r="10" fill="#64748b" />
    <circle cx="195.1" cy="259.8" r="10" fill="#64748b" />
    <circle cx="195.9" cy="271.9" r="10" fill="#fbbf24" />
    <circle cx="204.9" cy="291.2" r="10" fill="#fbbf24" />
    <circle cx="200.3" cy="320.7" r="10" fill="#64748b" />
    <circle cx="196.4" cy="338.2" r="10" fill="#fbbf24" />
    <circle cx="203.3" cy="384.6" r="10" fill="#fbbf24" />
    <circle cx="204.3" cy="413.8" r="10" fill="#94a3b8" />
    <circle cx="198.5" cy="427.7" r="10" fill="#fbbf24" />
    <circle cx="200.3" cy="486.9" r="10" fill="#64748b" />
    <circle cx="201.2" cy="495.6" r="10" fill="#fbbf24" />
    <circle cx="199.9" cy="517.3" r="10" fill="#64748b" />
    <circle cx="198.1" cy="530.2" r="10" fill="#fbbf24" />
    <circle cx="196.8" cy="547.2" r="10" fill="#94a3b8" />
    <circle cx="217.9" cy="7.9" r="10" fill="#fbbf24" />
    <circle cx="219.1" cy="18.7" r="10" fill="#fbbf24" />
    <circle cx="216.4" cy="62.4" r="10" fill="#94a3b8" />
    <circle cx="215.1" cy="78.3" r="10" fill="#64748b" />
    <circle cx="215.1" cy="96.0" r="10" fill="#64748b" />
    <circle cx="211.6" cy="114.3" r="10" fill="#64748b" />
    <circle cx="212.5" cy="168.9" r="10" fill="#64748b" />
    <circle cx="212.7" cy="188.8" r="10" fill="#fbbf24" />
    <circle cx="213.7" cy="235.0" r="10" fill="#94a3b8" />
    <circle cx="218.3" cy="293.1" r="10" fill="#64748b" />
    <circle cx="211.4" cy="303.8" r="10" fill="#64748b" />
    <circle cx="215.8" cy="318.6" r="10" fill="#64748b" />
    <circle cx="216.5" cy="338.6" r="10" fill="#64748b" />
    <circle cx="218.6" cy="345.5" r="10" fill="#fbbf24" />
    <circle cx="211.3" cy="365.2" r="10" fill="#94a3b8" />
    <circle cx="210.7" cy="384.3" r="10" fill="#64748b" />
    <circle cx="210.0" cy="397.5" r="10" fill="#94a3b8" />
    <circle cx="217.5" cy="413.9" r="10" fill="#64748b" />
    <circle cx="214.9" cy="423.9" r="10" fill="#fbbf24" />
    <circle cx="215.6" cy="456.2" r="10" fill="#fbbf24" />
    <circle cx="214.0" cy="473.6" r="10" fill="#64748b" />
    <circle cx="215.9" cy="485.4" r="10" fill="#fbbf24" />
    <circle cx="216.6" cy="498.1" r="10" fill="#fbbf24" />
    <circle cx="218.4" cy="513.4" r="10" fill="#94a3b8" />
    <circle cx="210.9" cy="546.5" r="10" fill="#fbbf24" />
    <circle cx="229.2" cy="6.8" r="10" fill="#94a3b8" />
    <circle cx="225.2" cy="37.7" r="10" fill="#94a3b8" />
    <circle cx="225.5" cy="47.6" r="10" fill="#94a3b8" />
    <circle cx="231.4" cy="78.1" r="10" fill="#fbbf24" />
    <circle cx="231.0" cy="108.7" r="10" fill="#64748b" />
    <circle cx="228.7" cy="125.8" r="10" fill="#94a3b8" />
    <circle cx="234.5" cy="135.6" r="10" fill="#64748b" />
    <circle cx="228.6" cy="151.0" r="10" fill="#64748b" />
    <circle cx="228.7" cy="202.7" r="10" fill="#fbbf24" />
    <circle cx="230.3" cy="228.2" r="10" fill="#94a3b8" />
    <circle cx="227.5" cy="277.7" r="10" fill="#64748b" />
    <circle cx="229.0" cy="285.4" r="10" fill="#fbbf24" />
    <circle cx="225.2" cy="304.4" r="10" fill="#fbbf24" />
    <circle cx="227.9" cy="318.1" r="10" fill="#64748b" />
    <circle cx="234.8" cy="336.7" r="10" fill="#fbbf24" />
    <circle cx="232.0" cy="349.4" r="10" fill="#64748b" />
    <circle cx="234.3" cy="365.3" r="10" fill="#94a3b8" />
    <circle cx="228.4" cy="378.4" r="10" fill="#64748b" />
    <circle cx="232.8" cy="391.6" r="10" fill="#64748b" />
    <circle cx="233.9" cy="410.3" r="10" fill="#64748b" />
    <circle cx="232.1" cy="444.0" r="10" fill="#94a3b8" />
    <circle cx="229.9" cy="453.0" r="10" fill="#64748b" />
    <circle cx="229.0" cy="467.9" r="10" fill="#94a3b8" />
    <circle cx="229.7" cy="501.5" r="10" fill="#64748b" />
    <circle cx="226.2" cy="514.5" r="10" fill="#fbbf24" />
    <circle cx="234.1" cy="529.6" r="10" fill="#64748b" />
    <circle cx="230.8" cy="541.2" r="10" fill="#94a3b8" />
    <circle cx="242.9" cy="20.3" r="10" fill="#64748b" />
    <circle cx="240.4" cy="31.6" r="10" fill="#94a3b8" />
    <circle cx="245.2" cy="54.8" r="10" fill="#94a3b8" />
    <circle cx="246.2" cy="75.4" r="10" fill="#94a3b8" />
    <circle cx="245.6" cy="98.5" r="10" fill="#64748b" />
    <circle cx="246.6" cy="109.9" r="10" fill="#94a3b8" />
    <circle cx="245.2" cy="127.1" r="10" fill="#fbbf24" />
    <circle cx="247.7" cy="140.7" r="10" fill="#94a3b8" />
    <circle cx="243.5" cy="157.5" r="10" fill="#64748b" />
    <circle cx="242.2" cy="173.2" r="10" fill="#fbbf24" />
    <circle cx="249.2" cy="231.1" r="10" fill="#94a3b8" />
    <circle cx="248.2" cy="291.2" r="10" fill="#64748b" />
    <circle cx="245.1" cy="320.3" r="10" fill="#64748b" />
    <circle cx="247.4" cy="355.0" r="10" fill="#64748b" />
    <circle cx="242.6" cy="413.4" r="10" fill="#94a3b8" />
    <circle cx="240.3" cy="443.6" r="10" fill="#64748b" />
    <circle cx="246.5" cy="473.0" r="10" fill="#fbbf24" />
    <circle cx="241.7" cy="480.5" r="10" fill="#94a3b8" />
    <circle cx="248.1" cy="503.1" r="10" fill="#fbbf24" />
    <circle cx="246.6" cy="514.9" r="10" fill="#fbbf24" />
    <circle cx="249.7" cy="533.9" r="10" fill="#fbbf24" />
    <circle cx="249.4" cy="543.0" r="10" fill="#fbbf24" />
    <circle cx="256.4" cy="6.1" r="10" fill="#fbbf24" />
    <circle cx="263.4" cy="18.6" r="10" fill="#94a3b8" />
    <circle cx="263.8" cy="38.8" r="10" fill="#64748b" />
    <circle cx="263.2" cy="51.8" r="10" fill="#64748b" />
    <circle cx="255.3" cy="62.5" r="10" fill="#64748b" />
    <circle cx="261.7" cy="96.1" r="10" fill="#94a3b8" />
    <circle cx="256.4" cy="114.6" r="10" fill="#fbbf24" />
    <circle cx="259.5" cy="122.2" r="10" fill="#64748b" />
    <circle cx="257.7" cy="141.6" r="10" fill="#94a3b8" />
    <circle cx="255.9" cy="152.5" r="10" fill="#fbbf24" />
    <circle cx="264.0" cy="167.6" r="10" fill="#64748b" />
    <circle cx="261.5" cy="184.4" r="10" fill="#fbbf24" />
    <circle cx="264.7" cy="198.2" r="10" fill="#64748b" />
    <circle cx="257.4" cy="260.9" r="10" fill="#fbbf24" />
    <circle cx="257.3" cy="278.8" r="10" fill="#94a3b8" />
    <circle cx="261.7" cy="318.3" r="10" fill="#94a3b8" />
    <circle cx="256.7" cy="339.4" r="10" fill="#94a3b8" />
    <circle cx="256.0" cy="361.3" r="10" fill="#94a3b8" />
    <circle cx="261.3" cy="376.8" r="10" fill="#94a3b8" />
    <circle cx="257.3" cy="411.0" r="10" fill="#fbbf24" />
    <circle cx="262.6" cy="465.9" r="10" fill="#94a3b8" />
    <circle cx="255.2" cy="486.4" r="10" fill="#94a3b8" />
    <circle cx="261.6" cy="512.1" r="10" fill="#94a3b8" />
    <circle cx="261.1" cy="547.8" r="10" fill="#fbbf24" />
    <circle cx="273.6" cy="16.2" r="10" fill="#64748b" />
    <circle cx="276.3" cy="52.5" r="10" fill="#94a3b8" />
    <circle cx="275.5" cy="63.4" r="10" fill="#fbbf24" />
    <circle cx="270.6" cy="81.0" r="10" fill="#94a3b8" />
    <circle cx="279.7" cy="94.0" r="10" fill="#fbbf24" />
    <circle cx="274.1" cy="110.3" r="10" fill="#64748b" />
    <circle cx="277.3" cy="127.4" r="10" fill="#fbbf24" />
    <circle cx="273.7" cy="159.7" r="10" fill="#64748b" />
    <circle cx="270.9" cy="174.2" r="10" fill="#94a3b8" />
    <circle cx="274.2" cy="182.9" r="10" fill="#fbbf24" />
    <circle cx="274.3" cy="201.5" r="10" fill="#94a3b8" />
    <circle cx="273.7" cy="210.8" r="10" fill="#94a3b8" />
    <circle cx="276.7" cy="230.0" r="10" fill="#64748b" />
    <circle cx="272.9" cy="244.9" r="10" fill="#fbbf24" />
    <circle cx="277.9" cy="257.3" r="10" fill="#64748b" />
    <circle cx="274.1" cy="279.2" r="10" fill="#64748b" />
    <circle cx="275.3" cy="291.6" r="10" fill="#94a3b8" />
    <circle cx="274.1" cy="307.1" r="10" fill="#64748b" />
    <circle cx="278.8" cy="317.5" r="10" fill="#fbbf24" />
    <circle cx="279.4" cy="333.9" r="10" fill="#fbbf24" />
    <circle cx="275.9" cy="351.4" r="10" fill="#64748b" />
    <circle cx="278.4" cy="397.2" r="10" fill="#fbbf24" />
    <circle cx="275.1" cy="457.8" r="10" fill="#fbbf24" />
    <circle cx="277.2" cy="473.1" r="10" fill="#fbbf24" />
    <circle cx="279.4" cy="496.9" r="10" fill="#fbbf24" />
    <circle cx="277.0" cy="532.0" r="10" fill="#94a3b8" />
    <circle cx="290.1" cy="9.3" r="10" fill="#94a3b8" />
    <circle cx="287.0" cy="82.3" r="10" fill="#94a3b8" />
    <circle cx="287.4" cy="95.5" r="10" fill="#fbbf24" />
    <circle cx="286.4" cy="106.0" r="10" fill="#fbbf24" />
    <circle cx="290.6" cy="124.4" r="10" fill="#fbbf24" />
    <circle cx="289.6" cy="153.7" r="10" fill="#94a3b8" />
    <circle cx="287.2" cy="189.3" r="10" fill="#64748b" />
    <circle cx="290.8" cy="199.6" r="10" fill="#94a3b8" />
    <circle cx="286.5" cy="218.9" r="10" fill="#fbbf24" />
    <circle cx="294.2" cy="255.5" r="10" fill="#64748b" />
    <circle cx="287.5" cy="273.8" r="10" fill="#64748b" />
    <circle cx="292.9" cy="291.1" r="10" fill="#64748b" />
    <circle cx="286.2" cy="301.6" r="10" fill="#64748b" />
    <circle cx="294.1" cy="320.0" r="10" fill="#64748b" />
    <circle cx="286.7" cy="332.3" r="10" fill="#fbbf24" />
    <circle cx="290.8" cy="345.5" r="10" fill="#fbbf24" />
    <circle cx="292.9" cy="369.6" r="10" fill="#64748b" />
    <circle cx="291.9" cy="378.9" r="10" fill="#64748b" />
    <circle cx="288.9" cy="391.0" r="10" fill="#64748b" />
    <circle cx="289.7" cy="444.3" r="10" fill="#94a3b8" />
    <circle cx="294.5" cy="471.8" r="10" fill="#64748b" />
    <circle cx="291.1" cy="512.1" r="10" fill="#94a3b8" />
    <circle cx="293.0" cy="525.8" r="10" fill="#64748b" />
    <circle cx="305.7" cy="18.7" r="10" fill="#94a3b8" />
    <circle cx="305.1" cy="30.6" r="10" fill="#94a3b8" />
    <circle cx="305.1" cy="53.5" r="10" fill="#94a3b8" />
    <circle cx="308.9" cy="68.5" r="10" fill="#94a3b8" />
    <circle cx="304.4" cy="75.2" r="10" fill="#64748b" />
    <circle cx="301.3" cy="92.7" r="10" fill="#fbbf24" />
    <circle cx="303.6" cy="108.4" r="10" fill="#94a3b8" />
    <circle cx="303.9" cy="122.7" r="10" fill="#94a3b8" />
    <circle cx="310.0" cy="142.3" r="10" fill="#64748b" />
    <circle cx="309.4" cy="153.2" r="10" fill="#64748b" />
    <circle cx="304.8" cy="170.2" r="10" fill="#fbbf24" />
    <circle cx="301.7" cy="183.2" r="10" fill="#fbbf24" />
    <circle cx="309.2" cy="214.9" r="10" fill="#94a3b8" />
    <circle cx="304.2" cy="226.7" r="10" fill="#fbbf24" />
    <circle cx="300.7" cy="244.4" r="10" fill="#64748b" />
    <circle cx="302.8" cy="277.1" r="10" fill="#fbbf24" />
    <circle cx="301.3" cy="304.1" r="10" fill="#64748b" />
    <circle cx="306.7" cy="319.0" r="10" fill="#94a3b8" />
    <circle cx="305.9" cy="349.8" r="10" fill="#64748b" />
    <circle cx="302.7" cy="366.7" r="10" fill="#94a3b8" />
    <circle cx="305.0" cy="379.5" r="10" fill="#fbbf24" />
    <circle cx="307.6" cy="394.1" r="10" fill="#64748b" />
    <circle cx="304.2" cy="406.5" r="10" fill="#94a3b8" />
    <circle cx="306.4" cy="437.5" r="10" fill="#94a3b8" />
    <circle cx="304.1" cy="450.4" r="10" fill="#fbbf24" />
    <circle cx="300.9" cy="488.9" r="10" fill="#94a3b8" />
    <circle cx="301.2" cy="502.3" r="10" fill="#64748b" />
    <circle cx="302.3" cy="519.8" r="10" fill="#64748b" />
    <circle cx="305.3" cy="529.2" r="10" fill="#fbbf24" />
    <circle cx="309.1" cy="546.8" r="10" fill="#94a3b8" />
    <circle cx="322.8" cy="7.8" r="10" fill="#64748b" />
    <circle cx="316.4" cy="16.0" r="10" fill="#64748b" />
    <circle cx="317.7" cy="38.5" r="10" fill="#94a3b8" />
    <circle cx="321.7" cy="63.4" r="10" fill="#64748b" />
    <circle cx="316.2" cy="97.9" r="10" fill="#94a3b8" />
    <circle cx="319.1" cy="110.1" r="10" fill="#fbbf24" />
    <circle cx="321.0" cy="128.1" r="10" fill="#94a3b8" />
    <circle cx="320.2" cy="155.2" r="10" fill="#64748b" />
    <circle cx="320.8" cy="175.0" r="10" fill="#94a3b8" />
    <circle cx="316.7" cy="182.0" r="10" fill="#64748b" />
    <circle cx="317.2" cy="197.9" r="10" fill="#fbbf24" />
    <circle cx="315.3" cy="232.3" r="10" fill="#fbbf24" />
    <circle cx="321.3" cy="241.0" r="10" fill="#fbbf24" />
    <circle cx="315.3" cy="255.6" r="10" fill="#94a3b8" />
    <circle cx="323.1" cy="275.3" r="10" fill="#94a3b8" />
    <circle cx="317.9" cy="289.6" r="10" fill="#94a3b8" />
    <circle cx="316.1" cy="308.7" r="10" fill="#fbbf24" />
    <circle cx="318.5" cy="335.6" r="10" fill="#fbbf24" />
    <circle cx="324.0" cy="351.4" r="10" fill="#fbbf24" />
    <circle cx="319.1" cy="382.5" r="10" fill="#64748b" />
    <circle cx="318.1" cy="394.5" r="10" fill="#64748b" />
    <circle cx="318.7" cy="409.9" r="10" fill="#94a3b8" />
    <circle cx="321.1" cy="425.6" r="10" fill="#fbbf24" />
    <circle cx="317.0" cy="452.5" r="10" fill="#64748b" />
    <circle cx="321.1" cy="466.6" r="10" fill="#94a3b8" />
    <circle cx="318.7" cy="499.4" r="10" fill="#fbbf24" />
    <circle cx="321.9" cy="515.6" r="10" fill="#94a3b8" />
    <circle cx="323.6" cy="546.7" r="10" fill="#fbbf24" />
    <circle cx="339.5" cy="4.6" r="10" fill="#94a3b8" />
    <circle cx="339.1" cy="39.5" r="10" fill="#94a3b8" />
    <circle cx="336.1" cy="68.4" r="10" fill="#64748b" />
    <circle cx="339.3" cy="93.9" r="10" fill="#94a3b8" />
    <circle cx="336.1" cy="106.0" r="10" fill="#64748b" />
    <circle cx="332.7" cy="127.9" r="10" fill="#64748b" />
    <circle cx="335.7" cy="159.0" r="10" fill="#94a3b8" />
    <circle cx="333.2" cy="188.9" r="10" fill="#fbbf24" />
    <circle cx="333.1" cy="219.1" r="10" fill="#64748b" />
    <circle cx="337.9" cy="226.4" r="10" fill="#94a3b8" />
    <circle cx="339.0" cy="259.7" r="10" fill="#64748b" />
    <circle cx="339.9" cy="277.7" r="10" fill="#fbbf24" />
    <circle cx="330.3" cy="324.1" r="10" fill="#64748b" />
    <circle cx="335.5" cy="354.3" r="10" fill="#94a3b8" />
    <circle cx="337.9" cy="382.9" r="10" fill="#94a3b8" />
    <circle cx="330.8" cy="407.8" r="10" fill="#fbbf24" />
    <circle cx="331.8" cy="421.0" r="10" fill="#94a3b8" />
    <circle cx="335.2" cy="444.2" r="10" fill="#fbbf24" />
    <circle cx="336.4" cy="456.7" r="10" fill="#64748b" />
    <circle cx="333.9" cy="470.8" r="10" fill="#94a3b8" />
    <circle cx="338.5" cy="502.9" r="10" fill="#fbbf24" />
    <circle cx="330.2" cy="541.7" r="10" fill="#64748b" />
    <circle cx="352.1" cy="6.8" r="10" fill="#64748b" />
    <circle cx="348.9" cy="30.5" r="10" fill="#fbbf24" />
    <circle cx="354.5" cy="54.6" r="10" fill="#94a3b8" />
    <circle cx="353.4" cy="60.5" r="10" fill="#94a3b8" />
    <circle cx="353.6" cy="75.9" r="10" fill="#94a3b8" />
    <circle cx="351.8" cy="95.0" r="10" fill="#94a3b8" />
    <circle cx="352.9" cy="111.6" r="10" fill="#64748b" />
    <circle cx="346.6" cy="143.6" r="10" fill="#94a3b8" />
    <circle cx="354.9" cy="166.5" r="10" fill="#94a3b8" />
    <circle cx="349.1" cy="181.0" r="10" fill="#64748b" />
    <circle cx="346.0" cy="219.6" r="10" fill="#64748b" />
    <circle cx="350.5" cy="233.3" r="10" fill="#94a3b8" />
    <circle cx="352.2" cy="248.7" r="10" fill="#fbbf24" />
    <circle cx="348.0" cy="264.1" r="10" fill="#64748b" />
    <circle cx="352.4" cy="278.6" r="10" fill="#94a3b8" />
    <circle cx="351.3" cy="301.4" r="10" fill="#94a3b8" />
    <circle cx="347.4" cy="364.6" r="10" fill="#94a3b8" />
    <circle cx="353.9" cy="377.8" r="10" fill="#94a3b8" />
    <circle cx="351.8" cy="410.5" r="10" fill="#fbbf24" />
    <circle cx="352.0" cy="423.3" r="10" fill="#64748b" />
    <circle cx="346.9" cy="455.2" r="10" fill="#fbbf24" />
    <circle cx="353.0" cy="472.9" r="10" fill="#94a3b8" />
    <circle cx="346.5" cy="487.1" r="10" fill="#94a3b8" />
    <circle cx="349.0" cy="515.7" r="10" fill="#fbbf24" />
    <circle cx="346.5" cy="542.5" r="10" fill="#fbbf24" />
    <circle cx="364.7" cy="21.7" r="10" fill="#fbbf24" />
    <circle cx="365.7" cy="36.9" r="10" fill="#94a3b8" />
    <circle cx="363.6" cy="52.4" r="10" fill="#94a3b8" />
    <circle cx="365.5" cy="62.3" r="10" fill="#64748b" />
    <circle cx="363.6" cy="77.2" r="10" fill="#64748b" />
    <circle cx="365.3" cy="94.7" r="10" fill="#fbbf24" />
    <circle cx="369.5" cy="123.0" r="10" fill="#fbbf24" />
    <circle cx="361.7" cy="143.0" r="10" fill="#fbbf24" />
    <circle cx="363.1" cy="155.0" r="10" fill="#94a3b8" />
    <circle cx="368.8" cy="181.3" r="10" fill="#fbbf24" />
    <circle cx="360.7" cy="198.4" r="10" fill="#fbbf24" />
    <circle cx="362.6" cy="234.5" r="10" fill="#64748b" />
    <circle cx="363.1" cy="247.9" r="10" fill="#fbbf24" />
    <circle cx="369.1" cy="255.1" r="10" fill="#fbbf24" />
    <circle cx="364.6" cy="275.6" r="10" fill="#94a3b8" />
    <circle cx="366.9" cy="289.9" r="10" fill="#94a3b8" />
    <circle cx="363.6" cy="302.0" r="10" fill="#94a3b8" />
    <circle cx="367.1" cy="321.4" r="10" fill="#64748b" />
    <circle cx="363.9" cy="337.7" r="10" fill="#94a3b8" />
    <circle cx="362.6" cy="360.2" r="10" fill="#94a3b8" />
    <circle cx="366.8" cy="397.0" r="10" fill="#fbbf24" />
    <circle cx="361.5" cy="411.6" r="10" fill="#fbbf24" />
    <circle cx="369.1" cy="423.5" r="10" fill="#94a3b8" />
    <circle cx="365.2" cy="442.6" r="10" fill="#94a3b8" />
    <circle cx="363.9" cy="457.6" r="10" fill="#fbbf24" />
    <circle cx="365.9" cy="467.8" r="10" fill="#94a3b8" />
    <circle cx="365.5" cy="489.1" r="10" fill="#fbbf24" />
    <circle cx="364.8" cy="498.7" r="10" fill="#fbbf24" />
    <circle cx="362.8" cy="513.6" r="10" fill="#64748b" />
    <circle cx="365.7" cy="528.1" r="10" fill="#64748b" />
    <circle cx="380.3" cy="3.2" r="10" fill="#64748b" />
    <circle cx="376.0" cy="36.2" r="10" fill="#94a3b8" />
    <circle cx="375.1" cy="50.3" r="10" fill="#94a3b8" />
    <circle cx="375.1" cy="62.8" r="10" fill="#fbbf24" />
    <circle cx="382.0" cy="81.3" r="10" fill="#64748b" />
    <circle cx="383.9" cy="99.2" r="10" fill="#94a3b8" />
    <circle cx="383.4" cy="126.5" r="10" fill="#fbbf24" />
    <circle cx="380.1" cy="136.1" r="10" fill="#64748b" />
    <circle cx="380.2" cy="150.9" r="10" fill="#fbbf24" />
    <circle cx="376.8" cy="166.4" r="10" fill="#94a3b8" />
    <circle cx="376.6" cy="187.2" r="10" fill="#64748b" />
    <circle cx="375.7" cy="197.4" r="10" fill="#64748b" />
    <circle cx="379.9" cy="226.3" r="10" fill="#64748b" />
    <circle cx="383.8" cy="246.6" r="10" fill="#94a3b8" />
    <circle cx="382.8" cy="300.9" r="10" fill="#94a3b8" />
    <circle cx="376.8" cy="320.4" r="10" fill="#94a3b8" />
    <circle cx="379.3" cy="367.9" r="10" fill="#64748b" />
    <circle cx="378.3" cy="390.0" r="10" fill="#94a3b8" />
    <circle cx="378.2" cy="409.5" r="10" fill="#94a3b8" />
    <circle cx="376.6" cy="439.7" r="10" fill="#fbbf24" />
    <circle cx="378.1" cy="451.1" r="10" fill="#64748b" />
    <circle cx="379.0" cy="474.4" r="10" fill="#94a3b8" />
    <circle cx="383.7" cy="485.7" r="10" fill="#94a3b8" />
    <circle cx="379.4" cy="504.9" r="10" fill="#94a3b8" />
    <circle cx="376.9" cy="532.6" r="10" fill="#94a3b8" />
    <circle cx="378.6" cy="540.7" r="10" fill="#64748b" />
    <circle cx="399.0" cy="8.0" r="10" fill="#94a3b8" />
    <circle cx="393.7" cy="16.7" r="10" fill="#fbbf24" />
    <circle cx="394.2" cy="37.6" r="10" fill="#64748b" />
    <circle cx="393.9" cy="51.2" r="10" fill="#fbbf24" />
    <circle cx="394.7" cy="76.8" r="10" fill="#64748b" />
    <circle cx="398.4" cy="120.1" r="10" fill="#fbbf24" />
    <circle cx="390.3" cy="141.8" r="10" fill="#94a3b8" />
    <circle cx="394.0" cy="154.3" r="10" fill="#94a3b8" />
    <circle cx="390.1" cy="184.0" r="10" fill="#94a3b8" />
    <circle cx="390.3" cy="201.4" r="10" fill="#fbbf24" />
    <circle cx="399.8" cy="256.9" r="10" fill="#94a3b8" />
    <circle cx="390.3" cy="275.8" r="10" fill="#64748b" />
    <circle cx="396.4" cy="292.0" r="10" fill="#fbbf24" />
    <circle cx="393.4" cy="335.8" r="10" fill="#64748b" />
    <circle cx="392.7" cy="345.4" r="10" fill="#94a3b8" />
    <circle cx="393.1" cy="379.7" r="10" fill="#94a3b8" />
    <circle cx="391.5" cy="406.0" r="10" fill="#fbbf24" />
    <circle cx="398.3" cy="420.8" r="10" fill="#94a3b8" />
    <circle cx="393.0" cy="441.7" r="10" fill="#fbbf24" />
    <circle cx="394.2" cy="472.3" r="10" fill="#fbbf24" />
    <circle cx="392.8" cy="485.6" r="10" fill="#64748b" />
    <circle cx="398.6" cy="496.5" r="10" fill="#64748b" />
    <circle cx="395.2" cy="510.1" r="10" fill="#fbbf24" />
    <circle cx="393.4" cy="534.7" r="10" fill="#fbbf24" />
    <circle cx="395.5" cy="541.5" r="10" fill="#fbbf24" /></g>
  <rect x="303.5" y="481.0" width="69.8" height="69.8" fill="#fbbf24" opacity="0.19" />
    <circle cx="149.7" cy="200.8" r="22.2" fill="#64748b" opacity="0.10" />
    <rect x="215.3" y="228.5" width="82.9" height="82.9" fill="#fbbf24" opacity="0.35" />
    <circle cx="2.4" cy="482.0" r="24.6" fill="#94a3b8" opacity="0.36" />
    <rect x="81.9" y="110.1" width="89.9" height="89.9" fill="#fbbf24" opacity="0.27" />
    <rect x="-8.4" y="159.9" width="73.5" height="73.5" fill="#64748b" opacity="0.22" />
    <rect x="338.9" y="17.8" width="51.4" height="51.4" fill="#94a3b8" opacity="0.15" />
    <polygon points="357.8,20.6 407.6,120.3 308.0,120.3" fill="#64748b" opacity="0.38" />
    <circle cx="333.6" cy="469.3" r="26.3" fill="#94a3b8" opacity="0.18" />
    <polygon points="50.7,174.7 96.3,265.9 5.1,265.9" fill="#fbbf24" opacity="0.33" />
    <rect x="63.1" y="55.2" width="53.3" height="53.3" fill="#fbbf24" opacity="0.33" />
    <rect x="380.5" y="427.0" width="25.0" height="25.0" fill="#94a3b8" opacity="0.19" />
    <polygon points="319.5,125.9 341.9,170.7 297.1,170.7" fill="#fbbf24" opacity="0.36" />
    <polygon points="32.6,425.9 68.4,497.5 -3.2,497.5" fill="#64748b" opacity="0.39" />
    <circle cx="143.2" cy="534.2" r="22.0" fill="#fbbf24" opacity="0.29" />
    <polygon points="7.3,435.5 26.0,454.2 7.3,472.8 -11.4,454.2" fill="#fbbf24" opacity="0.17" />
    <rect x="331.3" y="-1.3" width="31.9" height="31.9" fill="#fbbf24" opacity="0.13" />
  
  <!-- Text background banner -->
  <defs>
    <linearGradient id="text-bg-14" x1="0%" y1="0%" x2="100%" y2="0%">
      <stop offset="0%" style="stop-color:#000000;stop-opacity:0.7" />
      <stop offset="50%" style="stop-color:#64748b;stop-opacity:0.4" />
      <stop offset="100%" style="stop-color:#000000;stop-opacity:0.7" />
    </linearGradient>
  </defs>
  <rect x="0" y="494" width="400" height="56" fill="url(#text-bg-14)" />

  <!-- Text shadow -->
  <text x="200" y="522" font-family="system-ui, -apple-system, sans-serif" font-size="24" font-weight="bold" text-anchor="middle" fill="#000000" opacity="0.8">The Thermostat</text>

  <!-- Main text -->
  <text x="200" y="520" font-family="system-ui, -apple-system, sans-serif" font-size="24" font-weight="bold" text-anchor="middle" fill="#ffffff">The Thermostat</text>
  
  <!-- Rarity border -->
  <rect x="6" y="6" width="388" height="538"
        fill="none" stroke="#f97316" stroke-width="12" rx="8" ry="8" />
</svg>