<?xml version="1.0" encoding="UTF-8"?>
<svg xmlns="http://www.w3.org/2000/svg" viewBox="0 0 400 550" width="400" height="550">
  <defs>
    <linearGradient id="bg-gradient-031" x1="0%" y1="0%" x2="100%" y2="100%">
      <stop offset="0%" style="stop-color:#ef4444;stop-opacity:0.26" />
      <stop offset="50%" style="stop-color:#f97316;stop-opacity:0.4" />
      <stop offset="100%" style="stop-color:#ef4444;stop-opacity:0.26" />
    </linearGradient>
    
  <filter id="shadow-031">
    <feDropShadow dx="0" dy="2" stdDeviation="3" flood-opacity="0.8"/>
  </filter>
  </defs>
  <rect width="400" height="550" fill="url(#bg-gradient-0.4956232658587396)" />
  <g opacity="0.3"><line x1="0" y1="228.8" x2="400" y2="228.8" stroke="#fbbf24" stroke-width="2.9" opacity="0.15" />
    <line x1="0" y1="192.9" x2="400" y2="192.9" stroke="#f97316" stroke-width="3.9" opacity="0.32" />
    <line x1="32.8" y1="0" x2="32.8" y2="550" stroke="#fbbf24" stroke-width="1.6" opacity="0.31" />
    <line x1="0" y1="531.8" x2="400" y2="531.8" stroke="#fbbf24" stroke-width="2.1" opacity="0.10" />
    <line x1="323.8" y1="0" x2="323.8" y2="550" stroke="#ef4444" stroke-width="1.0" opacity="0.28" />
    <line x1="0" y1="501.8" x2="400" y2="501.8" stroke="#f97316" stroke-width="1.8" opacity="0.33" />
    <line x1="159.3" y1="0" x2="159.3" y2="550" stroke="#ef4444" stroke-width="2.3" opacity="0.16" />
    <line x1="0" y1="314.7" x2="400" y2="314.7" stroke="#fbbf24" stroke-width="1.5" opacity="0.18" />
    <line x1="222.2" y1="0" x2="222.2" y2="550" stroke="#fbbf24" stroke-width="3.0" opacity="0.16" />
    <line x1="130.2" y1="0" x2="130.2" y2="550" stroke="#f97316" stroke-width="2.3" opacity="0.35" /></g>
  <circle cx="186.4" cy="201.9" r="13.5" fill="#fbbf24" opacity="0.25" />
    <polygon points="328.7,424.4 353.0,448.7 328.7,473.0 304.3,448.7" fill="#f97316" opacity="0.10" />
    <circle cx="145.2" cy="536.2" r="39.3" fill="#ef4444" opacity="0.16" />
    <circle cx="172.7" cy="226.1" r="15.4" fill="#f97316" opacity="0.14" />
    <polygon points="378.2,-12.1 415.6,25.3 378.2,62.7 340.8,25.3" fill="#ef4444" opacity="0.37" />
  
  <!-- Text background banner -->
  <defs>
    <linearGradient id="text-bg-12" x1="0%" y1="0%" x2="100%" y2="0%">
      <stop offset="0%" style="stop-color:#000000;stop-opacity:0.7" />
      <stop offset="50%" style="stop-color:#ef4444;stop-opacity:0.4" />
      <stop offset="100%" style="stop-color:#000000;stop-opacity:0.7" />
    </linearGradient>
  </defs>
  <rect x="0" y="494" width="400" height="56" fill="url(#text-bg-12)" />

  <!-- Text shadow -->
  <text x="200" y="522" font-family="system-ui, -apple-system, sans-serif" font-size="24" font-weight="bold" text-anchor="middle" fill="#000000" opacity="0.8">Propane Paul</text>

  <!-- Main text -->
  <text x="200" y="520" font-family="system-ui, -apple-system, sans-serif" font-size="24" font-weight="bold" text-anchor="middle" fill="#ffffff">Propane Paul</text>
  
  <!-- Rarity border -->
  <rect x="2" y="2" width="396" height="546"
        fill="none" stroke="#9ca3af" stroke-width="4" rx="8" ry="8" />
</svg>