<?xml version="1.0" encoding="UTF-8"?>
<svg xmlns="http://www.w3.org/2000/svg" viewBox="0 0 400 550" width="400" height="550">
  <defs>
    <linearGradient id="bg-gradient-032" x1="0%" y1="0%" x2="100%" y2="100%">
      <stop offset="0%" style="stop-color:#6366f1;stop-opacity:0.26" />
      <stop offset="50%" style="stop-color:#8b5cf6;stop-opacity:0.4" />
      <stop offset="100%" style="stop-color:#6366f1;stop-opacity:0.26" />
    </linearGradient>
    
  <filter id="shadow-032">
    <feDropShadow dx="0" dy="2" stdDeviation="3" flood-opacity="0.8"/>
  </filter>
  </defs>
  <rect width="400" height="550" fill="url(#bg-gradient-0.38049845094792545)" />
  <g opacity="0.3"><line x1="0" y1="60.4" x2="400" y2="60.4" stroke="#8b5cf6" stroke-width="2.5" opacity="0.20" />
    <line x1="115.8" y1="0" x2="115.8" y2="550" stroke="#fbbf24" stroke-width="3.2" opacity="0.23" />
    <line x1="0" y1="268.4" x2="400" y2="268.4" stroke="#8b5cf6" stroke-width="1.8" opacity="0.35" />
    <line x1="64.7" y1="0" x2="64.7" y2="550" stroke="#fbbf24" stroke-width="3.3" opacity="0.17" />
    <line x1="210.8" y1="0" x2="210.8" y2="550" stroke="#8b5cf6" stroke-width="3.9" opacity="0.38" />
    <line x1="13.7" y1="0" x2="13.7" y2="550" stroke="#6366f1" stroke-width="3.5" opacity="0.16" />
    <line x1="276.0" y1="0" x2="276.0" y2="550" stroke="#fbbf24" stroke-width="1.6" opacity="0.15" />
    <line x1="0" y1="474.6" x2="400" y2="474.6" stroke="#8b5cf6" stroke-width="2.4" opacity="0.40" />
    <line x1="337.4" y1="0" x2="337.4" y2="550" stroke="#6366f1" stroke-width="1.1" opacity="0.14" />
    <line x1="0" y1="447.5" x2="400" y2="447.5" stroke="#fbbf24" stroke-width="3.2" opacity="0.15" /></g>
  <polygon points="284.5,523.0 303.2,541.8 284.5,560.5 265.7,541.8" fill="#6366f1" opacity="0.20" />
    <polygon points="272.0,161.1 315.8,204.9 272.0,248.7 228.3,204.9" fill="#fbbf24" opacity="0.36" />
    <polygon points="151.0,351.3 165.4,380.1 136.6,380.1" fill="#fbbf24" opacity="0.39" />
    <circle cx="365.3" cy="511.9" r="37.3" fill="#8b5cf6" opacity="0.28" />
    <polygon points="221.3,491.5 241.1,511.3 221.3,531.1 201.5,511.3" fill="#8b5cf6" opacity="0.11" />
  
  <!-- Text background banner -->
  <defs>
    <linearGradient id="text-bg-20" x1="0%" y1="0%" x2="100%" y2="0%">
      <stop offset="0%" style="stop-color:#000000;stop-opacity:0.7" />
      <stop offset="50%" style="stop-color:#6366f1;stop-opacity:0.4" />
      <stop offset="100%" style="stop-color:#000000;stop-opacity:0.7" />
    </linearGradient>
  </defs>
  <rect x="0" y="494" width="400" height="56" fill="url(#text-bg-20)" />

  <!-- Text shadow -->
  <text x="200" y="522" font-family="system-ui, -apple-system, sans-serif" font-size="24" font-weight="bold" text-anchor="middle" fill="#000000" opacity="0.8">YouTube Tutorial Tom</text>

  <!-- Main text -->
  <text x="200" y="520" font-family="system-ui, -apple-system, sans-serif" font-size="24" font-weight="bold" text-anchor="middle" fill="#ffffff">YouTube Tutorial Tom</text>
  
  <!-- Rarity border -->
  <rect x="2" y="2" width="396" height="546"
        fill="none" stroke="#9ca3af" stroke-width="4" rx="8" ry="8" />
</svg>