<?xml version="1.0" encoding="UTF-8"?>
<svg xmlns="http://www.w3.org/2000/svg" viewBox="0 0 400 550" width="400" height="550">
  <defs>
    <linearGradient id="bg-gradient-033" x1="0%" y1="0%" x2="100%" y2="100%">
      <stop offset="0%" style="stop-color:#22c55e;stop-opacity:0.26" />
      <stop offset="50%" style="stop-color:#84cc16;stop-opacity:0.4" />
      <stop offset="100%" style="stop-color:#22c55e;stop-opacity:0.26" />
    </linearGradient>
    
  <filter id="shadow-033">
    <feDropShadow dx="0" dy="2" stdDeviation="3" flood-opacity="0.8"/>
  </filter>
  </defs>
  <rect width="400" height="550" fill="url(#bg-gradient-0.7246178083587438)" />
  <g opacity="0.3"><rect x="203.3" y="16.5" width="50.4" height="50.4" fill="none" stroke="#84cc16" stroke-width="2.5" opacity="0.17" />
    <circle cx="241.1" cy="398.9" r="24.0" fill="none" stroke="#22c55e" stroke-width="2.6" opacity="0.16" />
    <rect x="-19.9" y="331.8" width="79.2" height="79.2" fill="none" stroke="#84cc16" stroke-width="1.8" opacity="0.12" />
    <circle cx="261.5" cy="158.4" r="18.9" fill="none" stroke="#22c55e" stroke-width="2.7" opacity="0.29" />
    <circle cx="119.2" cy="520.9" r="28.6" fill="none" stroke="#22c55e" stroke-width="2.5" opacity="0.19" />
    <rect x="-27.5" y="410.4" width="72.6" height="72.6" fill="none" stroke="#22c55e" stroke-width="1.1" opacity="0.24" />
    <circle cx="141.7" cy="224.4" r="22.8" fill="none" stroke="#22c55e" stroke-width="2.4" opacity="0.22" /></g>
  <polygon points="93.4,116.0 130.8,190.8 56.1,190.8" fill="#fbbf24" opacity="0.19" />
    <polygon points="169.3,483.6 198.7,542.3 140.0,542.3" fill="#22c55e" opacity="0.35" />
    <rect x="333.3" y="20.4" width="60.2" height="60.2" fill="#fbbf24" opacity="0.25" />
    <polygon points="203.4,163.9 237.7,232.6 169.1,232.6" fill="#84cc16" opacity="0.29" />
    <circle cx="84.6" cy="533.4" r="31.8" fill="#84cc16" opacity="0.24" />
    <polygon points="84.2,68.1 102.0,103.5 66.5,103.5" fill="#84cc16" opacity="0.21" />
    <rect x="104.3" y="21.9" width="39.1" height="39.1" fill="#22c55e" opacity="0.27" />
    <rect x="174.7" y="218.3" width="57.0" height="57.0" fill="#22c55e" opacity="0.34" />
  
  <!-- Text background banner -->
  <defs>
    <linearGradient id="text-bg-17" x1="0%" y1="0%" x2="100%" y2="0%">
      <stop offset="0%" style="stop-color:#000000;stop-opacity:0.7" />
      <stop offset="50%" style="stop-color:#22c55e;stop-opacity:0.4" />
      <stop offset="100%" style="stop-color:#000000;stop-opacity:0.7" />
    </linearGradient>
  </defs>
  <rect x="0" y="494" width="400" height="56" fill="url(#text-bg-17)" />

  <!-- Text shadow -->
  <text x="200" y="522" font-family="system-ui, -apple-system, sans-serif" font-size="24" font-weight="bold" text-anchor="middle" fill="#000000" opacity="0.8">Country Club Chad</text>

  <!-- Main text -->
  <text x="200" y="520" font-family="system-ui, -apple-system, sans-serif" font-size="24" font-weight="bold" text-anchor="middle" fill="#ffffff">Country Club Chad</text>
  
  <!-- Rarity border -->
  <rect x="3" y="3" width="394" height="544"
        fill="none" stroke="#3b82f6" stroke-width="6" rx="8" ry="8" />
</svg>