<?xml version="1.0" encoding="UTF-8"?>
<svg xmlns="http://www.w3.org/2000/svg" viewBox="0 0 400 550" width="400" height="550">
  <defs>
    <linearGradient id="bg-gradient-034" x1="0%" y1="0%" x2="100%" y2="100%">
      <stop offset="0%" style="stop-color:#f97316;stop-opacity:0.26" />
      <stop offset="50%" style="stop-color:#ef4444;stop-opacity:0.4" />
      <stop offset="100%" style="stop-color:#f97316;stop-opacity:0.26" />
    </linearGradient>
    
  <filter id="shadow-034">
    <feDropShadow dx="0" dy="2" stdDeviation="3" flood-opacity="0.8"/>
  </filter>
  </defs>
  <rect width="400" height="550" fill="url(#bg-gradient-0.893632487161085)" />
  <g opacity="0.3"><circle cx="5.3" cy="9.6" r="4" fill="#f97316" />
    <circle cx="0.6" cy="39.9" r="4" fill="#fbbf24" />
    <circle cx="4.5" cy="60.2" r="4" fill="#fbbf24" />
    <circle cx="4.1" cy="93.1" r="4" fill="#ef4444" />
    <circle cx="5.1" cy="184.1" r="4" fill="#f97316" />
    <circle cx="8.7" cy="210.4" r="4" fill="#ef4444" />
    <circle cx="5.9" cy="240.7" r="4" fill="#ef4444" />
    <circle cx="6.8" cy="277.2" r="4" fill="#fbbf24" />
    <circle cx="3.7" cy="332.5" r="4" fill="#f97316" />
    <circle cx="5.4" cy="391.8" r="4" fill="#fbbf24" />
    <circle cx="4.8" cy="420.8" r="4" fill="#ef4444" />
    <circle cx="0.9" cy="456.2" r="4" fill="#fbbf24" />
    <circle cx="7.2" cy="486.9" r="4" fill="#f97316" />
    <circle cx="3.2" cy="549.9" r="4" fill="#ef4444" />
    <circle cx="36.9" cy="8.1" r="4" fill="#fbbf24" />
    <circle cx="35.9" cy="35.7" r="4" fill="#fbbf24" />
    <circle cx="37.1" cy="67.8" r="4" fill="#fbbf24" />
    <circle cx="38.6" cy="92.8" r="4" fill="#ef4444" />
    <circle cx="31.4" cy="128.7" r="4" fill="#f97316" />
    <circle cx="31.0" cy="184.7" r="4" fill="#fbbf24" />
    <circle cx="32.3" cy="241.3" r="4" fill="#f97316" />
    <circle cx="30.4" cy="270.8" r="4" fill="#f97316" />
    <circle cx="36.5" cy="309.4" r="4" fill="#ef4444" />
    <circle cx="33.8" cy="336.7" r="4" fill="#ef4444" />
    <circle cx="30.7" cy="360.4" r="4" fill="#fbbf24" />
    <circle cx="30.4" cy="393.0" r="4" fill="#fbbf24" />
    <circle cx="37.6" cy="428.2" r="4" fill="#fbbf24" />
    <circle cx="34.5" cy="457.2" r="4" fill="#fbbf24" />
    <circle cx="38.5" cy="483.1" r="4" fill="#f97316" />
    <circle cx="31.6" cy="519.2" r="4" fill="#f97316" />
    <circle cx="30.2" cy="547.8" r="4" fill="#ef4444" />
    <circle cx="66.9" cy="1.8" r="4" fill="#ef4444" />
    <circle cx="62.0" cy="34.0" r="4" fill="#f97316" />
    <circle cx="61.3" cy="91.0" r="4" fill="#ef4444" />
    <circle cx="69.9" cy="123.5" r="4" fill="#f97316" />
    <circle cx="66.1" cy="150.5" r="4" fill="#ef4444" />
    <circle cx="65.6" cy="187.7" r="4" fill="#fbbf24" />
    <circle cx="66.9" cy="215.4" r="4" fill="#fbbf24" />
    <circle cx="62.2" cy="247.3" r="4" fill="#f97316" />
    <circle cx="63.3" cy="276.9" r="4" fill="#f97316" />
    <circle cx="67.6" cy="305.2" r="4" fill="#ef4444" />
    <circle cx="65.1" cy="330.0" r="4" fill="#ef4444" />
    <circle cx="69.0" cy="366.9" r="4" fill="#f97316" />
    <circle cx="62.4" cy="393.1" r="4" fill="#f97316" />
    <circle cx="69.0" cy="429.1" r="4" fill="#fbbf24" />
    <circle cx="63.5" cy="457.8" r="4" fill="#ef4444" />
    <circle cx="61.9" cy="488.0" r="4" fill="#ef4444" />
    <circle cx="61.2" cy="515.7" r="4" fill="#ef4444" />
    <circle cx="60.2" cy="545.0" r="4" fill="#f97316" />
    <circle cx="97.3" cy="3.9" r="4" fill="#fbbf24" />
    <circle cx="92.2" cy="39.2" r="4" fill="#fbbf24" />
    <circle cx="94.0" cy="95.9" r="4" fill="#ef4444" />
    <circle cx="93.9" cy="152.3" r="4" fill="#f97316" />
    <circle cx="90.9" cy="186.5" r="4" fill="#f97316" />
    <circle cx="94.7" cy="216.0" r="4" fill="#fbbf24" />
    <circle cx="93.2" cy="245.0" r="4" fill="#fbbf24" />
    <circle cx="93.9" cy="277.5" r="4" fill="#ef4444" />
    <circle cx="96.5" cy="309.4" r="4" fill="#ef4444" />
    <circle cx="91.3" cy="338.9" r="4" fill="#f97316" />
    <circle cx="93.9" cy="368.8" r="4" fill="#ef4444" />
    <circle cx="97.2" cy="392.9" r="4" fill="#fbbf24" />
    <circle cx="99.1" cy="425.1" r="4" fill="#f97316" />
    <circle cx="99.5" cy="458.7" r="4" fill="#fbbf24" />
    <circle cx="93.2" cy="519.7" r="4" fill="#f97316" />
    <circle cx="95.4" cy="549.2" r="4" fill="#f97316" />
    <circle cx="122.3" cy="38.6" r="4" fill="#f97316" />
    <circle cx="124.4" cy="63.1" r="4" fill="#fbbf24" />
    <circle cx="126.2" cy="92.3" r="4" fill="#f97316" />
    <circle cx="125.0" cy="121.3" r="4" fill="#f97316" />
    <circle cx="127.6" cy="187.9" r="4" fill="#ef4444" />
    <circle cx="125.2" cy="216.7" r="4" fill="#fbbf24" />
    <circle cx="126.1" cy="241.1" r="4" fill="#f97316" />
    <circle cx="129.7" cy="276.0" r="4" fill="#ef4444" />
    <circle cx="126.7" cy="337.4" r="4" fill="#ef4444" />
    <circle cx="120.3" cy="364.9" r="4" fill="#fbbf24" />
    <circle cx="128.2" cy="397.3" r="4" fill="#f97316" />
    <circle cx="127.0" cy="422.7" r="4" fill="#fbbf24" />
    <circle cx="121.6" cy="457.5" r="4" fill="#f97316" />
    <circle cx="120.7" cy="488.5" r="4" fill="#fbbf24" />
    <circle cx="122.6" cy="517.8" r="4" fill="#ef4444" />
    <circle cx="126.4" cy="549.8" r="4" fill="#fbbf24" />
    <circle cx="157.3" cy="36.9" r="4" fill="#fbbf24" />
    <circle cx="151.9" cy="60.5" r="4" fill="#f97316" />
    <circle cx="159.5" cy="95.7" r="4" fill="#fbbf24" />
    <circle cx="157.9" cy="122.4" r="4" fill="#fbbf24" />
    <circle cx="158.9" cy="182.8" r="4" fill="#f97316" />
    <circle cx="158.7" cy="217.8" r="4" fill="#f97316" />
    <circle cx="151.3" cy="302.6" r="4" fill="#ef4444" />
    <circle cx="152.5" cy="336.7" r="4" fill="#fbbf24" />
    <circle cx="158.9" cy="365.5" r="4" fill="#f97316" />
    <circle cx="152.4" cy="422.5" r="4" fill="#f97316" />
    <circle cx="156.2" cy="516.1" r="4" fill="#f97316" />
    <circle cx="151.2" cy="546.2" r="4" fill="#fbbf24" />
    <circle cx="180.6" cy="8.9" r="4" fill="#f97316" />
    <circle cx="183.3" cy="39.0" r="4" fill="#f97316" />
    <circle cx="189.4" cy="90.9" r="4" fill="#fbbf24" />
    <circle cx="183.6" cy="123.4" r="4" fill="#ef4444" />
    <circle cx="182.1" cy="186.3" r="4" fill="#f97316" />
    <circle cx="186.6" cy="212.5" r="4" fill="#f97316" />
    <circle cx="184.7" cy="243.4" r="4" fill="#ef4444" />
    <circle cx="185.0" cy="303.9" r="4" fill="#f97316" />
    <circle cx="187.0" cy="334.9" r="4" fill="#ef4444" />
    <circle cx="189.3" cy="361.3" r="4" fill="#f97316" />
    <circle cx="189.1" cy="393.9" r="4" fill="#fbbf24" />
    <circle cx="182.1" cy="424.6" r="4" fill="#f97316" />
    <circle cx="184.8" cy="459.0" r="4" fill="#f97316" />
    <circle cx="189.5" cy="489.2" r="4" fill="#ef4444" />
    <circle cx="186.9" cy="511.7" r="4" fill="#ef4444" />
    <circle cx="213.6" cy="4.4" r="4" fill="#ef4444" />
    <circle cx="218.5" cy="39.4" r="4" fill="#f97316" />
    <circle cx="215.4" cy="63.8" r="4" fill="#f97316" />
    <circle cx="214.9" cy="159.7" r="4" fill="#ef4444" />
    <circle cx="214.8" cy="184.3" r="4" fill="#fbbf24" />
    <circle cx="216.4" cy="271.3" r="4" fill="#ef4444" />
    <circle cx="215.5" cy="307.2" r="4" fill="#fbbf24" />
    <circle cx="210.0" cy="333.9" r="4" fill="#fbbf24" />
    <circle cx="216.4" cy="391.3" r="4" fill="#ef4444" />
    <circle cx="212.1" cy="421.6" r="4" fill="#ef4444" />
    <circle cx="217.6" cy="458.9" r="4" fill="#ef4444" />
    <circle cx="210.4" cy="482.2" r="4" fill="#fbbf24" />
    <circle cx="217.2" cy="512.3" r="4" fill="#fbbf24" />
    <circle cx="240.5" cy="39.4" r="4" fill="#ef4444" />
    <circle cx="242.1" cy="61.2" r="4" fill="#fbbf24" />
    <circle cx="248.7" cy="98.1" r="4" fill="#fbbf24" />
    <circle cx="244.0" cy="184.6" r="4" fill="#f97316" />
    <circle cx="243.8" cy="211.6" r="4" fill="#f97316" />
    <circle cx="249.5" cy="241.5" r="4" fill="#f97316" />
    <circle cx="245.5" cy="277.4" r="4" fill="#fbbf24" />
    <circle cx="248.4" cy="368.5" r="4" fill="#ef4444" />
    <circle cx="240.8" cy="392.4" r="4" fill="#ef4444" />
    <circle cx="245.0" cy="422.5" r="4" fill="#f97316" />
    <circle cx="247.8" cy="458.3" r="4" fill="#fbbf24" />
    <circle cx="246.9" cy="482.5" r="4" fill="#fbbf24" />
    <circle cx="243.7" cy="540.8" r="4" fill="#fbbf24" />
    <circle cx="275.0" cy="7.9" r="4" fill="#fbbf24" />
    <circle cx="271.8" cy="65.1" r="4" fill="#fbbf24" />
    <circle cx="273.2" cy="97.5" r="4" fill="#ef4444" />
    <circle cx="276.3" cy="121.7" r="4" fill="#ef4444" />
    <circle cx="277.4" cy="159.3" r="4" fill="#fbbf24" />
    <circle cx="275.5" cy="184.2" r="4" fill="#fbbf24" />
    <circle cx="279.1" cy="248.9" r="4" fill="#f97316" />
    <circle cx="271.7" cy="308.3" r="4" fill="#ef4444" />
    <circle cx="278.8" cy="337.9" r="4" fill="#fbbf24" />
    <circle cx="274.7" cy="392.6" r="4" fill="#ef4444" />
    <circle cx="273.5" cy="427.7" r="4" fill="#f97316" />
    <circle cx="273.6" cy="455.3" r="4" fill="#f97316" />
    <circle cx="277.6" cy="482.3" r="4" fill="#ef4444" />
    <circle cx="300.9" cy="1.3" r="4" fill="#f97316" />
    <circle cx="301.3" cy="91.2" r="4" fill="#fbbf24" />
    <circle cx="306.4" cy="154.4" r="4" fill="#ef4444" />
    <circle cx="309.6" cy="247.6" r="4" fill="#f97316" />
    <circle cx="309.8" cy="300.4" r="4" fill="#f97316" />
    <circle cx="303.5" cy="333.8" r="4" fill="#f97316" />
    <circle cx="301.3" cy="365.1" r="4" fill="#fbbf24" />
    <circle cx="300.3" cy="422.8" r="4" fill="#fbbf24" />
    <circle cx="307.6" cy="459.7" r="4" fill="#ef4444" />
    <circle cx="301.1" cy="488.0" r="4" fill="#ef4444" />
    <circle cx="335.0" cy="2.3" r="4" fill="#fbbf24" />
    <circle cx="336.3" cy="68.2" r="4" fill="#ef4444" />
    <circle cx="337.8" cy="94.2" r="4" fill="#ef4444" />
    <circle cx="330.1" cy="120.0" r="4" fill="#fbbf24" />
    <circle cx="335.6" cy="151.8" r="4" fill="#fbbf24" />
    <circle cx="333.5" cy="185.2" r="4" fill="#fbbf24" />
    <circle cx="337.6" cy="249.7" r="4" fill="#f97316" />
    <circle cx="338.8" cy="301.3" r="4" fill="#f97316" />
    <circle cx="332.4" cy="363.1" r="4" fill="#ef4444" />
    <circle cx="338.3" cy="395.0" r="4" fill="#ef4444" />
    <circle cx="336.8" cy="426.0" r="4" fill="#fbbf24" />
    <circle cx="337.4" cy="483.1" r="4" fill="#fbbf24" />
    <circle cx="333.1" cy="517.8" r="4" fill="#fbbf24" />
    <circle cx="330.2" cy="541.1" r="4" fill="#f97316" />
    <circle cx="365.7" cy="9.6" r="4" fill="#fbbf24" />
    <circle cx="366.6" cy="39.3" r="4" fill="#fbbf24" />
    <circle cx="365.3" cy="153.1" r="4" fill="#ef4444" />
    <circle cx="362.9" cy="219.7" r="4" fill="#f97316" />
    <circle cx="366.6" cy="243.2" r="4" fill="#fbbf24" />
    <circle cx="363.3" cy="302.4" r="4" fill="#ef4444" />
    <circle cx="368.9" cy="331.6" r="4" fill="#fbbf24" />
    <circle cx="369.7" cy="399.0" r="4" fill="#fbbf24" />
    <circle cx="369.2" cy="427.1" r="4" fill="#fbbf24" />
    <circle cx="364.0" cy="450.1" r="4" fill="#f97316" />
    <circle cx="364.2" cy="486.3" r="4" fill="#fbbf24" />
    <circle cx="390.9" cy="9.7" r="4" fill="#fbbf24" />
    <circle cx="398.9" cy="35.4" r="4" fill="#fbbf24" />
    <circle cx="394.7" cy="64.5" r="4" fill="#f97316" />
    <circle cx="395.1" cy="122.6" r="4" fill="#ef4444" />
    <circle cx="394.5" cy="150.4" r="4" fill="#f97316" />
    <circle cx="390.3" cy="181.4" r="4" fill="#fbbf24" />
    <circle cx="392.9" cy="211.6" r="4" fill="#fbbf24" />
    <circle cx="396.6" cy="244.1" r="4" fill="#fbbf24" />
    <circle cx="390.8" cy="273.3" r="4" fill="#f97316" />
    <circle cx="399.3" cy="305.2" r="4" fill="#f97316" />
    <circle cx="396.6" cy="337.0" r="4" fill="#fbbf24" />
    <circle cx="399.6" cy="369.5" r="4" fill="#fbbf24" />
    <circle cx="393.9" cy="395.0" r="4" fill="#ef4444" />
    <circle cx="399.4" cy="422.1" r="4" fill="#f97316" />
    <circle cx="399.0" cy="457.1" r="4" fill="#f97316" />
    <circle cx="396.1" cy="481.1" r="4" fill="#ef4444" />
    <circle cx="399.1" cy="517.2" r="4" fill="#ef4444" />
    <circle cx="394.0" cy="548.0" r="4" fill="#f97316" /></g>
  <polygon points="35.3,332.1 67.2,364.1 35.3,396.0 3.3,364.1" fill="#ef4444" opacity="0.36" />
    <circle cx="307.2" cy="253.2" r="49.7" fill="#fbbf24" opacity="0.12" />
    <rect x="272.7" y="402.2" width="89.0" height="89.0" fill="#f97316" opacity="0.35" />
    <polygon points="55.5,72.6 83.3,128.0 27.8,128.0" fill="#ef4444" opacity="0.36" />
    <polygon points="276.3,227.4 316.5,307.9 236.1,307.9" fill="#ef4444" opacity="0.14" />
    <polygon points="325.4,111.4 370.3,156.3 325.4,201.1 280.6,156.3" fill="#ef4444" opacity="0.16" />
    <polygon points="391.8,286.0 430.3,362.8 353.4,362.8" fill="#fbbf24" opacity="0.29" />
    <polygon points="367.8,89.0 378.8,100.0 367.8,111.0 356.8,100.0" fill="#f97316" opacity="0.19" />
  
  <!-- Text background banner -->
  <defs>
    <linearGradient id="text-bg-17" x1="0%" y1="0%" x2="100%" y2="0%">
      <stop offset="0%" style="stop-color:#000000;stop-opacity:0.7" />
      <stop offset="50%" style="stop-color:#f97316;stop-opacity:0.4" />
      <stop offset="100%" style="stop-color:#000000;stop-opacity:0.7" />
    </linearGradient>
  </defs>
  <rect x="0" y="494" width="400" height="56" fill="url(#text-bg-17)" />

  <!-- Text shadow -->
  <text x="200" y="522" font-family="system-ui, -apple-system, sans-serif" font-size="24" font-weight="bold" text-anchor="middle" fill="#000000" opacity="0.8">Little League Lou</text>

  <!-- Main text -->
  <text x="200" y="520" font-family="system-ui, -apple-system, sans-serif" font-size="24" font-weight="bold" text-anchor="middle" fill="#ffffff">Little League Lou</text>
  
  <!-- Rarity border -->
  <rect x="3" y="3" width="394" height="544"
        fill="none" stroke="#3b82f6" stroke-width="6" rx="8" ry="8" />
</svg>