<?xml version="1.0" encoding="UTF-8"?>
<svg xmlns="http://www.w3.org/2000/svg" viewBox="0 0 400 550" width="400" height="550">
  <defs>
    <linearGradient id="bg-gradient-035" x1="0%" y1="0%" x2="100%" y2="100%">
      <stop offset="0%" style="stop-color:#22c55e;stop-opacity:0.26" />
      <stop offset="50%" style="stop-color:#16a34a;stop-opacity:0.4" />
      <stop offset="100%" style="stop-color:#22c55e;stop-opacity:0.26" />
    </linearGradient>
    
  <filter id="shadow-035">
    <feDropShadow dx="0" dy="2" stdDeviation="3" flood-opacity="0.8"/>
  </filter>
  </defs>
  <rect width="400" height="550" fill="url(#bg-gradient-0.18929402600042522)" />
  <g opacity="0.3"><polyline points="0,6.0 5,9.1 10,12.2 15,15.5 20,18.8 25,22.0 30,25.2 35,28.3 40,31.2 45,34.0 50,36.5 55,38.8 60,40.8 65,42.5 70,43.9 75,44.9 80,45.6 85,45.8 90,45.8 95,45.3 100,44.5 105,43.3 110,41.8 115,40.0 120,37.8 125,35.4 130,32.8 135,30.0 140,26.9 145,23.8 150,20.6 155,17.3 160,14.0 165,10.8 170,7.7 175,4.6 180,1.8 185,-0.9 190,-3.3 195,-5.5 200,-7.4 205,-9.0 210,-10.2 215,-11.1 220,-11.6 225,-11.7 230,-11.5 235,-10.9 240,-9.9 245,-8.6 250,-6.9 255,-5.0 260,-2.7 265,-0.2 270,2.5 275,5.4 280,8.5 285,11.6 290,14.9 295,18.2 300,21.4 305,24.6 310,27.7 315,30.7 320,33.5 325,36.1 330,38.4 335,40.5 340,42.2 345,43.6 350,44.7 355,45.5 360,45.8 365,45.8 370,45.4 375,44.7 380,43.6 385,42.1 390,40.3 395,38.3 400,35.9" fill="none" stroke="#22c55e" stroke-width="1.2" opacity="0.24" />
    <polyline points="0,96.0 5,92.8 10,89.8 15,87.0 20,84.5 25,82.2 30,80.3 35,78.7 40,77.4 45,76.6 50,76.1 55,76.0 60,76.3 65,76.9 70,78.0 75,79.4 80,81.2 85,83.3 90,85.7 95,88.3 100,91.3 105,94.4 110,97.7 115,101.1 120,104.6 125,108.2 130,111.8 135,115.3 140,118.8 145,122.2 150,125.4 155,128.4 160,131.2 165,133.8 170,136.0 175,137.9 180,139.5 185,140.8 190,141.6 195,142.1 200,142.2 205,141.9 210,141.2 215,140.1 220,138.7 225,137.0 230,134.9 235,132.5 240,129.8 245,126.9 250,123.7 255,120.4 260,117.0 265,113.5 270,109.9 275,106.3 280,102.8 285,99.3 290,95.9 295,92.7 300,89.7 305,86.9 310,84.4 315,82.1 320,80.2 325,78.6 330,77.4 335,76.5 340,76.1 345,76.0 350,76.3 355,77.0 360,78.0 365,79.5 370,81.3 375,83.4 380,85.8 385,88.4 390,91.4 395,94.5 400,97.8" fill="none" stroke="#16a34a" stroke-width="1.9" opacity="0.24" />
    <polyline points="0,468.3 5,467.4 10,466.5 15,465.4 20,464.2 25,462.9 30,461.5 35,460.1 40,458.5 45,456.9 50,455.2 55,453.4 60,451.5 65,449.6 70,447.6 75,445.6 80,443.6 85,441.5 90,439.3 95,437.2 100,435.0 105,432.8 110,430.7 115,428.5 120,426.3 125,424.1 130,422.0 135,419.9 140,417.8 145,415.8 150,413.8 155,411.9 160,410.1 165,408.3 170,406.5 175,404.9 180,403.3 185,401.8 190,400.4 195,399.1 200,397.9 205,396.8 210,395.8 215,395.0 220,394.2 225,393.5 230,393.0 235,392.6 240,392.3 245,392.1 250,392.0 255,392.1 260,392.2 265,392.5 270,393.0 275,393.5 280,394.1 285,394.9 290,395.8 295,396.8 300,397.9 305,399.0 310,400.3 315,401.7 320,403.2 325,404.8 330,406.4 335,408.1 340,409.9 345,411.8 350,413.7 355,415.7 360,417.7 365,419.8 370,421.9 375,424.0 380,426.2 385,428.3 390,430.5 395,432.7 400,434.9" fill="none" stroke="#16a34a" stroke-width="1.5" opacity="0.25" />
    <polyline points="0,245.5 5,247.1 10,248.5 15,249.6 20,250.4 25,250.9 30,251.1 35,251.0 40,250.6 45,249.9 50,248.8 55,247.5 60,245.9 65,244.1 70,242.0 75,239.7 80,237.3 85,234.6 90,231.8 95,228.9 100,225.9 105,222.9 110,219.8 115,216.8 120,213.8 125,210.9 130,208.1 135,205.4 140,202.9 145,200.5 150,198.4 155,196.5 160,194.9 165,193.5 170,192.4 175,191.6 180,191.1 185,191.0 190,191.1 195,191.5 200,192.3 205,193.3 210,194.6 215,196.2 220,198.1 225,200.2 230,202.5 235,205.0 240,207.6 245,210.4 250,213.3 255,216.3 260,219.4 265,222.4 270,225.5 275,228.5 280,231.4 285,234.2 290,236.9 295,239.4 300,241.7 305,243.8 310,245.7 315,247.3 320,248.7 325,249.7 330,250.5 335,251.0 340,251.1 345,251.0 350,250.5 355,249.7 360,248.7 365,247.3 370,245.7 375,243.9 380,241.7 385,239.4 390,236.9 395,234.2 400,231.4" fill="none" stroke="#84cc16" stroke-width="2.6" opacity="0.15" />
    <polyline points="0,280.2 5,281.6 10,283.0 15,284.3 20,285.5 25,286.6 30,287.5 35,288.4 40,289.2 45,289.8 50,290.3 55,290.7 60,291.0 65,291.2 70,291.2 75,291.1 80,290.9 85,290.6 90,290.1 95,289.5 100,288.8 105,288.0 110,287.1 115,286.1 120,285.0 125,283.7 130,282.4 135,281.0 140,279.5 145,277.9 150,276.3 155,274.6 160,272.8 165,271.0 170,269.1 175,267.2 180,265.2 185,263.2 190,261.3 195,259.3 200,257.2 205,255.2 210,253.3 215,251.3 220,249.3 225,247.4 230,245.6 235,243.7 240,242.0 245,240.3 250,238.7 255,237.1 260,235.6 265,234.2 270,232.9 275,231.7 280,230.6 285,229.6 290,228.8 295,228.0 300,227.3 305,226.8 310,226.4 315,226.0 320,225.9 325,225.8 330,225.9 335,226.1 340,226.4 345,226.8 350,227.4 355,228.0 360,228.8 365,229.7 370,230.7 375,231.8 380,233.0 385,234.3 390,235.7 395,237.2 400,238.8" fill="none" stroke="#84cc16" stroke-width="1.5" opacity="0.12" />
    <polyline points="0,463.7 5,464.4 10,465.2 15,466.1 20,467.0 25,468.0 30,469.1 35,470.2 40,471.4 45,472.6 50,473.9 55,475.2 60,476.5 65,477.9 70,479.3 75,480.7 80,482.1 85,483.5 90,484.9 95,486.4 100,487.8 105,489.2 110,490.6 115,492.0 120,493.3 125,494.6 130,495.9 135,497.1 140,498.3 145,499.4 150,500.5 155,501.5 160,502.5 165,503.4 170,504.2 175,504.9 180,505.6 185,506.2 190,506.7 195,507.2 200,507.5 205,507.8 210,508.0 215,508.1 220,508.1 225,508.0 230,507.8 235,507.6 240,507.3 245,506.8 250,506.3 255,505.8 260,505.1 265,504.4 270,503.6 275,502.7 280,501.7 285,500.7 290,499.7 295,498.5 300,497.4 305,496.2 310,494.9 315,493.6 320,492.3 325,490.9 330,489.5 335,488.1 340,486.7 345,485.2 350,483.8 355,482.4 360,481.0 365,479.6 370,478.2 375,476.8 380,475.5 385,474.2 390,472.9 395,471.7 400,470.5" fill="none" stroke="#22c55e" stroke-width="2.7" opacity="0.20" />
    <polyline points="0,100.8 5,98.1 10,95.4 15,92.6 20,89.7 25,86.9 30,84.0 35,81.1 40,78.2 45,75.4 50,72.6 55,69.9 60,67.2 65,64.6 70,62.2 75,59.8 80,57.6 85,55.5 90,53.6 95,51.8 100,50.3 105,48.8 110,47.6 115,46.6 120,45.8 125,45.1 130,44.7 135,44.5 140,44.5 145,44.7 150,45.2 155,45.8 160,46.6 165,47.7 170,48.9 175,50.3 180,51.9 185,53.7 190,55.6 195,57.7 200,59.9 205,62.3 210,64.8 215,67.3 220,70.0 225,72.7 230,75.5 235,78.4 240,81.2 245,84.1 250,87.0 255,89.9 260,92.7 265,95.5 270,98.2 275,100.9 280,103.5 285,105.9 290,108.3 295,110.5 300,112.6 305,114.5 310,116.2 315,117.8 320,119.2 325,120.4 330,121.5 335,122.3 340,122.9 345,123.3 350,123.5 355,123.5 360,123.3 365,122.9 370,122.2 375,121.4 380,120.3 385,119.1 390,117.7 395,116.1 400,114.3" fill="none" stroke="#22c55e" stroke-width="2.1" opacity="0.18" />
    <polyline points="0,125.1 5,127.6 10,130.0 15,132.3 20,134.4 25,136.3 30,138.0 35,139.4 40,140.4 45,141.2 50,141.6 55,141.6 60,141.3 65,140.6 70,139.5 75,138.2 80,136.5 85,134.7 90,132.6 95,130.3 100,127.9 105,125.5 110,123.0 115,120.6 120,118.2 125,116.0 130,114.0 135,112.3 140,110.8 145,109.6 150,108.7 155,108.2 160,108.0 165,108.2 170,108.8 175,109.7 180,110.9 185,112.4 190,114.2 195,116.3 200,118.5 205,120.8 210,123.2 215,125.7 220,128.2 225,130.5 230,132.8 235,134.9 240,136.7 245,138.3 250,139.7 255,140.6 260,141.3 265,141.6 270,141.5 275,141.1 280,140.3 285,139.2 290,137.8 295,136.1 300,134.2 305,132.0 310,129.7 315,127.3 320,124.9 325,122.4 330,120.0 335,117.7 340,115.5 345,113.6 350,111.9 355,110.4 360,109.3 365,108.5 370,108.1 375,108.0 380,108.3 385,109.0 390,109.9 395,111.3 400,112.8" fill="none" stroke="#16a34a" stroke-width="1.9" opacity="0.27" /></g>
  <polygon points="299.8,261.5 320.6,282.3 299.8,303.2 279.0,282.3" fill="#84cc16" opacity="0.10" />
    <circle cx="357.0" cy="272.7" r="43.4" fill="#16a34a" opacity="0.30" />
    <polygon points="395.5,403.5 428.5,436.4 395.5,469.4 362.6,436.4" fill="#16a34a" opacity="0.24" />
    <polygon points="127.9,124.7 146.7,162.3 109.1,162.3" fill="#22c55e" opacity="0.22" />
    <polygon points="274.7,415.9 320.0,506.6 229.3,506.6" fill="#84cc16" opacity="0.37" />
    <polygon points="243.6,183.6 263.3,203.2 243.6,222.9 224.0,203.2" fill="#22c55e" opacity="0.27" />
    <polygon points="76.5,443.7 95.5,462.7 76.5,481.6 57.6,462.7" fill="#16a34a" opacity="0.28" />
    <polygon points="253.5,503.1 291.4,541.0 253.5,579.0 215.5,541.0" fill="#16a34a" opacity="0.33" />
    <polygon points="153.2,405.4 201.4,501.8 105.0,501.8" fill="#22c55e" opacity="0.22" />
    <polygon points="283.3,356.0 319.0,427.3 247.7,427.3" fill="#84cc16" opacity="0.22" />
    <polygon points="84.8,466.4 117.7,532.2 51.9,532.2" fill="#22c55e" opacity="0.15" />
  
  <!-- Text background banner -->
  <defs>
    <linearGradient id="text-bg-16" x1="0%" y1="0%" x2="100%" y2="0%">
      <stop offset="0%" style="stop-color:#000000;stop-opacity:0.7" />
      <stop offset="50%" style="stop-color:#22c55e;stop-opacity:0.4" />
      <stop offset="100%" style="stop-color:#000000;stop-opacity:0.7" />
    </linearGradient>
  </defs>
  <rect x="0" y="494" width="400" height="56" fill="url(#text-bg-16)" />

  <!-- Text shadow -->
  <text x="200" y="522" font-family="system-ui, -apple-system, sans-serif" font-size="24" font-weight="bold" text-anchor="middle" fill="#000000" opacity="0.8">Riding Mower Rex</text>

  <!-- Main text -->
  <text x="200" y="520" font-family="system-ui, -apple-system, sans-serif" font-size="24" font-weight="bold" text-anchor="middle" fill="#ffffff">Riding Mower Rex</text>
  
  <!-- Rarity border -->
  <rect x="4" y="4" width="392" height="542"
        fill="none" stroke="#eab308" stroke-width="8" rx="8" ry="8" />
</svg>