<?xml version="1.0" encoding="UTF-8"?>
<svg xmlns="http://www.w3.org/2000/svg" viewBox="0 0 400 550" width="400" height="550">
  <defs>
    <linearGradient id="bg-gradient-036" x1="0%" y1="0%" x2="100%" y2="100%">
      <stop offset="0%" style="stop-color:#64748b;stop-opacity:0.26" />
      <stop offset="50%" style="stop-color:#94a3b8;stop-opacity:0.4" />
      <stop offset="100%" style="stop-color:#64748b;stop-opacity:0.26" />
    </linearGradient>
    
  <filter id="shadow-036">
    <feDropShadow dx="0" dy="2" stdDeviation="3" flood-opacity="0.8"/>
  </filter>
  </defs>
  <rect width="400" height="550" fill="url(#bg-gradient-0.13843330298550427)" />
  <g opacity="0.3"><circle cx="298.7" cy="289.8" r="14.2" fill="none" stroke="#64748b" stroke-width="1.9" opacity="0.26" />
    <circle cx="198.7" cy="514.2" r="36.3" fill="none" stroke="#fbbf24" stroke-width="2.3" opacity="0.14" />
    <circle cx="70.3" cy="522.6" r="34.5" fill="none" stroke="#64748b" stroke-width="2.4" opacity="0.28" />
    <rect x="146.0" y="57.0" width="45.7" height="45.7" fill="none" stroke="#64748b" stroke-width="1.7" opacity="0.27" />
    <rect x="107.4" y="174.9" width="54.8" height="54.8" fill="none" stroke="#64748b" stroke-width="2.0" opacity="0.16" /></g>
  <rect x="167.6" y="122.1" width="23.0" height="23.0" fill="#94a3b8" opacity="0.27" />
    <polygon points="35.5,469.3 71.4,541.2 -0.5,541.2" fill="#fbbf24" opacity="0.23" />
    <rect x="115.9" y="445.5" width="85.6" height="85.6" fill="#64748b" opacity="0.27" />
    <circle cx="332.2" cy="363.6" r="41.0" fill="#94a3b8" opacity="0.11" />
    <polygon points="364.0,59.7 387.5,83.2 364.0,106.8 340.5,83.2" fill="#64748b" opacity="0.17" />
  
  <!-- Text background banner -->
  <defs>
    <linearGradient id="text-bg-20" x1="0%" y1="0%" x2="100%" y2="0%">
      <stop offset="0%" style="stop-color:#000000;stop-opacity:0.7" />
      <stop offset="50%" style="stop-color:#64748b;stop-opacity:0.4" />
      <stop offset="100%" style="stop-color:#000000;stop-opacity:0.7" />
    </linearGradient>
  </defs>
  <rect x="0" y="494" width="400" height="56" fill="url(#text-bg-20)" />

  <!-- Text shadow -->
  <text x="200" y="522" font-family="system-ui, -apple-system, sans-serif" font-size="24" font-weight="bold" text-anchor="middle" fill="#000000" opacity="0.8">World's Best Dad Mug</text>

  <!-- Main text -->
  <text x="200" y="520" font-family="system-ui, -apple-system, sans-serif" font-size="24" font-weight="bold" text-anchor="middle" fill="#ffffff">World's Best Dad Mug</text>
  
  <!-- Rarity border -->
  <rect x="2" y="2" width="396" height="546"
        fill="none" stroke="#9ca3af" stroke-width="4" rx="8" ry="8" />
</svg>