<?xml version="1.0" encoding="UTF-8"?>
<svg xmlns="http://www.w3.org/2000/svg" viewBox="0 0 400 550" width="400" height="550">
  <defs>
    <linearGradient id="bg-gradient-037" x1="0%" y1="0%" x2="100%" y2="100%">
      <stop offset="0%" style="stop-color:#64748b;stop-opacity:0.26" />
      <stop offset="50%" style="stop-color:#94a3b8;stop-opacity:0.4" />
      <stop offset="100%" style="stop-color:#64748b;stop-opacity:0.26" />
    </linearGradient>
    
  <filter id="shadow-037">
    <feDropShadow dx="0" dy="2" stdDeviation="3" flood-opacity="0.8"/>
  </filter>
  </defs>
  <rect width="400" height="550" fill="url(#bg-gradient-0.25798241305164993)" />
  <g opacity="0.3"><line x1="0" y1="57.1" x2="400" y2="57.1" stroke="#fbbf24" stroke-width="3.2" opacity="0.38" />
    <line x1="22.1" y1="0" x2="22.1" y2="550" stroke="#94a3b8" stroke-width="2.9" opacity="0.40" />
    <line x1="0" y1="1.6" x2="400" y2="1.6" stroke="#94a3b8" stroke-width="3.4" opacity="0.19" />
    <line x1="0" y1="203.7" x2="400" y2="203.7" stroke="#fbbf24" stroke-width="3.6" opacity="0.26" />
    <line x1="37.7" y1="0" x2="37.7" y2="550" stroke="#64748b" stroke-width="3.5" opacity="0.28" />
    <line x1="336.1" y1="0" x2="336.1" y2="550" stroke="#64748b" stroke-width="1.2" opacity="0.10" />
    <line x1="84.5" y1="0" x2="84.5" y2="550" stroke="#fbbf24" stroke-width="1.7" opacity="0.24" />
    <line x1="0" y1="393.3" x2="400" y2="393.3" stroke="#fbbf24" stroke-width="1.8" opacity="0.37" />
    <line x1="68.7" y1="0" x2="68.7" y2="550" stroke="#94a3b8" stroke-width="3.0" opacity="0.22" />
    <line x1="0" y1="58.8" x2="400" y2="58.8" stroke="#94a3b8" stroke-width="4.0" opacity="0.26" />
    <line x1="0" y1="123.6" x2="400" y2="123.6" stroke="#94a3b8" stroke-width="2.6" opacity="0.15" />
    <line x1="170.7" y1="0" x2="170.7" y2="550" stroke="#fbbf24" stroke-width="1.7" opacity="0.15" />
    <line x1="0" y1="131.6" x2="400" y2="131.6" stroke="#fbbf24" stroke-width="2.7" opacity="0.39" />
    <line x1="0" y1="35.1" x2="400" y2="35.1" stroke="#64748b" stroke-width="1.8" opacity="0.37" />
    <line x1="124.8" y1="0" x2="124.8" y2="550" stroke="#fbbf24" stroke-width="4.0" opacity="0.27" />
    <line x1="8.6" y1="0" x2="8.6" y2="550" stroke="#94a3b8" stroke-width="3.8" opacity="0.22" />
    <line x1="332.0" y1="0" x2="332.0" y2="550" stroke="#64748b" stroke-width="3.5" opacity="0.17" />
    <line x1="0" y1="364.6" x2="400" y2="364.6" stroke="#64748b" stroke-width="1.9" opacity="0.20" />
    <line x1="307.5" y1="0" x2="307.5" y2="550" stroke="#94a3b8" stroke-width="1.6" opacity="0.12" />
    <line x1="0" y1="414.5" x2="400" y2="414.5" stroke="#fbbf24" stroke-width="1.5" opacity="0.26" />
    <line x1="27.3" y1="0" x2="27.3" y2="550" stroke="#94a3b8" stroke-width="3.8" opacity="0.21" />
    <line x1="0" y1="241.3" x2="400" y2="241.3" stroke="#64748b" stroke-width="3.8" opacity="0.28" />
    <line x1="59.1" y1="0" x2="59.1" y2="550" stroke="#94a3b8" stroke-width="1.4" opacity="0.14" />
    <line x1="0" y1="110.9" x2="400" y2="110.9" stroke="#64748b" stroke-width="3.9" opacity="0.19" />
    <line x1="0" y1="429.0" x2="400" y2="429.0" stroke="#94a3b8" stroke-width="1.5" opacity="0.22" /></g>
  <rect x="304.4" y="117.6" width="95.8" height="95.8" fill="#64748b" opacity="0.40" />
    <polygon points="81.1,39.3 120.6,118.3 41.6,118.3" fill="#64748b" opacity="0.12" />
    <circle cx="39.9" cy="26.2" r="36.3" fill="#fbbf24" opacity="0.24" />
    <rect x="109.3" y="294.5" width="52.1" height="52.1" fill="#64748b" opacity="0.39" />
    <polygon points="318.3,247.3 337.3,285.2 299.3,285.2" fill="#64748b" opacity="0.12" />
    <polygon points="189.3,235.9 229.1,275.7 189.3,315.5 149.5,275.7" fill="#64748b" opacity="0.33" />
    <rect x="117.2" y="422.4" width="72.4" height="72.4" fill="#94a3b8" opacity="0.11" />
    <rect x="353.4" y="259.7" width="49.3" height="49.3" fill="#fbbf24" opacity="0.33" />
    <rect x="-43.5" y="54.5" width="93.9" height="93.9" fill="#fbbf24" opacity="0.36" />
    <circle cx="37.7" cy="9.4" r="35.1" fill="#94a3b8" opacity="0.23" />
    <polygon points="217.9,257.8 262.0,301.9 217.9,345.9 173.8,301.9" fill="#94a3b8" opacity="0.10" />
    <circle cx="110.0" cy="67.5" r="32.8" fill="#94a3b8" opacity="0.28" />
    <rect x="267.2" y="345.7" width="31.7" height="31.7" fill="#64748b" opacity="0.37" />
    <polygon points="11.8,328.0 54.5,413.4 -30.9,413.4" fill="#94a3b8" opacity="0.31" />
  
  <!-- Text background banner -->
  <defs>
    <linearGradient id="text-bg-18" x1="0%" y1="0%" x2="100%" y2="0%">
      <stop offset="0%" style="stop-color:#000000;stop-opacity:0.7" />
      <stop offset="50%" style="stop-color:#64748b;stop-opacity:0.4" />
      <stop offset="100%" style="stop-color:#000000;stop-opacity:0.7" />
    </linearGradient>
  </defs>
  <rect x="0" y="494" width="400" height="56" fill="url(#text-bg-18)" />

  <!-- Text shadow -->
  <text x="200" y="522" font-family="system-ui, -apple-system, sans-serif" font-size="24" font-weight="bold" text-anchor="middle" fill="#000000" opacity="0.8">Oakley Wraparounds</text>

  <!-- Main text -->
  <text x="200" y="520" font-family="system-ui, -apple-system, sans-serif" font-size="24" font-weight="bold" text-anchor="middle" fill="#ffffff">Oakley Wraparounds</text>
  
  <!-- Rarity border -->
  <rect x="5" y="5" width="390" height="540"
        fill="none" stroke="#a855f7" stroke-width="10" rx="8" ry="8" />
</svg>