<?xml version="1.0" encoding="UTF-8"?>
<svg xmlns="http://www.w3.org/2000/svg" viewBox="0 0 400 550" width="400" height="550">
  <defs>
    <linearGradient id="bg-gradient-038" x1="0%" y1="0%" x2="100%" y2="100%">
      <stop offset="0%" style="stop-color:#64748b;stop-opacity:0.26" />
      <stop offset="50%" style="stop-color:#94a3b8;stop-opacity:0.4" />
      <stop offset="100%" style="stop-color:#64748b;stop-opacity:0.26" />
    </linearGradient>
    
  <filter id="shadow-038">
    <feDropShadow dx="0" dy="2" stdDeviation="3" flood-opacity="0.8"/>
  </filter>
  </defs>
  <rect width="400" height="550" fill="url(#bg-gradient-0.8795918591786176)" />
  <g opacity="0.3"><line x1="248.6" y1="0" x2="248.6" y2="550" stroke="#64748b" stroke-width="3.1" opacity="0.32" />
    <line x1="202.4" y1="0" x2="202.4" y2="550" stroke="#fbbf24" stroke-width="2.7" opacity="0.25" />
    <line x1="64.8" y1="0" x2="64.8" y2="550" stroke="#94a3b8" stroke-width="2.7" opacity="0.23" />
    <line x1="307.4" y1="0" x2="307.4" y2="550" stroke="#64748b" stroke-width="3.0" opacity="0.39" />
    <line x1="330.0" y1="0" x2="330.0" y2="550" stroke="#fbbf24" stroke-width="3.2" opacity="0.32" />
    <line x1="0" y1="86.3" x2="400" y2="86.3" stroke="#fbbf24" stroke-width="3.0" opacity="0.14" />
    <line x1="0" y1="329.6" x2="400" y2="329.6" stroke="#fbbf24" stroke-width="3.4" opacity="0.32" />
    <line x1="110.2" y1="0" x2="110.2" y2="550" stroke="#94a3b8" stroke-width="1.6" opacity="0.21" />
    <line x1="344.2" y1="0" x2="344.2" y2="550" stroke="#64748b" stroke-width="1.8" opacity="0.23" />
    <line x1="0" y1="21.7" x2="400" y2="21.7" stroke="#94a3b8" stroke-width="2.2" opacity="0.24" /></g>
  <polygon points="59.7,496.9 76.5,513.7 59.7,530.5 42.9,513.7" fill="#fbbf24" opacity="0.30" />
    <polygon points="134.4,147.4 175.5,229.5 93.4,229.5" fill="#fbbf24" opacity="0.15" />
    <polygon points="355.1,508.8 383.9,566.3 326.4,566.3" fill="#fbbf24" opacity="0.35" />
    <polygon points="20.5,145.2 48.4,201.0 -7.3,201.0" fill="#fbbf24" opacity="0.20" />
    <polygon points="343.9,260.8 374.3,291.1 343.9,321.5 313.6,291.1" fill="#94a3b8" opacity="0.16" />
  
  <!-- Text background banner -->
  <defs>
    <linearGradient id="text-bg-18" x1="0%" y1="0%" x2="100%" y2="0%">
      <stop offset="0%" style="stop-color:#000000;stop-opacity:0.7" />
      <stop offset="50%" style="stop-color:#64748b;stop-opacity:0.4" />
      <stop offset="100%" style="stop-color:#000000;stop-opacity:0.7" />
    </linearGradient>
  </defs>
  <rect x="0" y="494" width="400" height="56" fill="url(#text-bg-18)" />

  <!-- Text shadow -->
  <text x="200" y="522" font-family="system-ui, -apple-system, sans-serif" font-size="24" font-weight="bold" text-anchor="middle" fill="#000000" opacity="0.8">Cell Phone Holster</text>

  <!-- Main text -->
  <text x="200" y="520" font-family="system-ui, -apple-system, sans-serif" font-size="24" font-weight="bold" text-anchor="middle" fill="#ffffff">Cell Phone Holster</text>
  
  <!-- Rarity border -->
  <rect x="2" y="2" width="396" height="546"
        fill="none" stroke="#9ca3af" stroke-width="4" rx="8" ry="8" />
</svg>