<?xml version="1.0" encoding="UTF-8"?>
<svg xmlns="http://www.w3.org/2000/svg" viewBox="0 0 400 550" width="400" height="550">
  <defs>
    <linearGradient id="bg-gradient-039" x1="0%" y1="0%" x2="100%" y2="100%">
      <stop offset="0%" style="stop-color:#ec4899;stop-opacity:0.26" />
      <stop offset="50%" style="stop-color:#f472b6;stop-opacity:0.4" />
      <stop offset="100%" style="stop-color:#ec4899;stop-opacity:0.26" />
    </linearGradient>
    
  <filter id="shadow-039">
    <feDropShadow dx="0" dy="2" stdDeviation="3" flood-opacity="0.8"/>
  </filter>
  </defs>
  <rect width="400" height="550" fill="url(#bg-gradient-0.8274994781240821)" />
  <g opacity="0.3"><line x1="341.3" y1="0" x2="341.3" y2="550" stroke="#8b5cf6" stroke-width="2.1" opacity="0.39" />
    <line x1="21.3" y1="0" x2="21.3" y2="550" stroke="#ec4899" stroke-width="1.8" opacity="0.19" />
    <line x1="17.1" y1="0" x2="17.1" y2="550" stroke="#8b5cf6" stroke-width="1.4" opacity="0.24" />
    <line x1="153.6" y1="0" x2="153.6" y2="550" stroke="#8b5cf6" stroke-width="3.6" opacity="0.21" />
    <line x1="0" y1="101.9" x2="400" y2="101.9" stroke="#8b5cf6" stroke-width="3.7" opacity="0.31" />
    <line x1="0" y1="309.8" x2="400" y2="309.8" stroke="#ec4899" stroke-width="3.3" opacity="0.39" />
    <line x1="181.7" y1="0" x2="181.7" y2="550" stroke="#ec4899" stroke-width="2.4" opacity="0.11" />
    <line x1="0" y1="339.3" x2="400" y2="339.3" stroke="#ec4899" stroke-width="2.6" opacity="0.23" />
    <line x1="156.8" y1="0" x2="156.8" y2="550" stroke="#f472b6" stroke-width="2.5" opacity="0.26" />
    <line x1="0" y1="501.8" x2="400" y2="501.8" stroke="#ec4899" stroke-width="1.5" opacity="0.14" /></g>
  <polygon points="390.5,341.2 411.4,382.9 369.7,382.9" fill="#f472b6" opacity="0.38" />
    <rect x="194.1" y="329.8" width="28.3" height="28.3" fill="#ec4899" opacity="0.22" />
    <circle cx="177.3" cy="238.5" r="49.5" fill="#8b5cf6" opacity="0.14" />
    <circle cx="139.5" cy="210.6" r="28.7" fill="#8b5cf6" opacity="0.20" />
    <rect x="291.0" y="-19.9" width="92.4" height="92.4" fill="#8b5cf6" opacity="0.23" />
  
  <!-- Text background banner -->
  <defs>
    <linearGradient id="text-bg-20" x1="0%" y1="0%" x2="100%" y2="0%">
      <stop offset="0%" style="stop-color:#000000;stop-opacity:0.7" />
      <stop offset="50%" style="stop-color:#ec4899;stop-opacity:0.4" />
      <stop offset="100%" style="stop-color:#000000;stop-opacity:0.7" />
    </linearGradient>
  </defs>
  <rect x="0" y="494" width="400" height="56" fill="url(#text-bg-20)" />

  <!-- Text shadow -->
  <text x="200" y="522" font-family="system-ui, -apple-system, sans-serif" font-size="24" font-weight="bold" text-anchor="middle" fill="#000000" opacity="0.8">Hawaiian Shirt Harry</text>

  <!-- Main text -->
  <text x="200" y="520" font-family="system-ui, -apple-system, sans-serif" font-size="24" font-weight="bold" text-anchor="middle" fill="#ffffff">Hawaiian Shirt Harry</text>
  
  <!-- Rarity border -->
  <rect x="2" y="2" width="396" height="546"
        fill="none" stroke="#9ca3af" stroke-width="4" rx="8" ry="8" />
</svg>