<?xml version="1.0" encoding="UTF-8"?>
<svg xmlns="http://www.w3.org/2000/svg" viewBox="0 0 400 550" width="400" height="550">
  <defs>
    <linearGradient id="bg-gradient-040" x1="0%" y1="0%" x2="100%" y2="100%">
      <stop offset="0%" style="stop-color:#64748b;stop-opacity:0.26" />
      <stop offset="50%" style="stop-color:#94a3b8;stop-opacity:0.4" />
      <stop offset="100%" style="stop-color:#64748b;stop-opacity:0.26" />
    </linearGradient>
    
  <filter id="shadow-040">
    <feDropShadow dx="0" dy="2" stdDeviation="3" flood-opacity="0.8"/>
  </filter>
  </defs>
  <rect width="400" height="550" fill="url(#bg-gradient-0.7151419392321259)" />
  <g opacity="0.3"><rect x="249.3" y="256.6" width="32.7" height="32.7" fill="none" stroke="#fbbf24" stroke-width="2.4" opacity="0.28" />
    <circle cx="14.3" cy="463.0" r="31.6" fill="none" stroke="#94a3b8" stroke-width="2.5" opacity="0.27" />
    <rect x="25.0" y="386.9" width="66.4" height="66.4" fill="none" stroke="#64748b" stroke-width="1.4" opacity="0.18" />
    <rect x="116.4" y="138.4" width="39.6" height="39.6" fill="none" stroke="#fbbf24" stroke-width="2.6" opacity="0.18" />
    <circle cx="244.5" cy="330.8" r="13.6" fill="none" stroke="#fbbf24" stroke-width="1.4" opacity="0.17" /></g>
  <polygon points="100.9,396.9 142.9,480.9 58.9,480.9" fill="#64748b" opacity="0.11" />
    <polygon points="176.2,157.0 221.4,247.5 131.0,247.5" fill="#fbbf24" opacity="0.29" />
    <polygon points="159.9,66.8 190.7,97.6 159.9,128.5 129.0,97.6" fill="#94a3b8" opacity="0.20" />
    <circle cx="234.6" cy="474.0" r="33.1" fill="#64748b" opacity="0.13" />
    <circle cx="67.9" cy="429.4" r="41.9" fill="#fbbf24" opacity="0.38" />
  
  <!-- Text background banner -->
  <defs>
    <linearGradient id="text-bg-14" x1="0%" y1="0%" x2="100%" y2="0%">
      <stop offset="0%" style="stop-color:#000000;stop-opacity:0.7" />
      <stop offset="50%" style="stop-color:#64748b;stop-opacity:0.4" />
      <stop offset="100%" style="stop-color:#000000;stop-opacity:0.7" />
    </linearGradient>
  </defs>
  <rect x="0" y="494" width="400" height="56" fill="url(#text-bg-14)" />

  <!-- Text shadow -->
  <text x="200" y="522" font-family="system-ui, -apple-system, sans-serif" font-size="24" font-weight="bold" text-anchor="middle" fill="#000000" opacity="0.8">Costco Hot Dog</text>

  <!-- Main text -->
  <text x="200" y="520" font-family="system-ui, -apple-system, sans-serif" font-size="24" font-weight="bold" text-anchor="middle" fill="#ffffff">Costco Hot Dog</text>
  
  <!-- Rarity border -->
  <rect x="2" y="2" width="396" height="546"
        fill="none" stroke="#9ca3af" stroke-width="4" rx="8" ry="8" />
</svg>