<?xml version="1.0" encoding="UTF-8"?>
<svg xmlns="http://www.w3.org/2000/svg" viewBox="0 0 400 550" width="400" height="550">
  <defs>
    <linearGradient id="bg-gradient-041" x1="0%" y1="0%" x2="100%" y2="100%">
      <stop offset="0%" style="stop-color:#6366f1;stop-opacity:0.26" />
      <stop offset="50%" style="stop-color:#8b5cf6;stop-opacity:0.4" />
      <stop offset="100%" style="stop-color:#6366f1;stop-opacity:0.26" />
    </linearGradient>
    
  <filter id="shadow-041">
    <feDropShadow dx="0" dy="2" stdDeviation="3" flood-opacity="0.8"/>
  </filter>
  </defs>
  <rect width="400" height="550" fill="url(#bg-gradient-0.21602612338028848)" />
  <g opacity="0.3"><polyline points="0,411.2 5,413.4 10,416.0 15,419.1 20,422.6 25,426.4 30,430.5 35,434.7 40,439.0 45,443.3 50,447.5 55,451.6 60,455.5 65,459.1 70,462.3 75,465.1 80,467.4 85,469.2 90,470.5 95,471.2 100,471.3 105,470.9 110,469.8 115,468.2 120,466.1 125,463.5 130,460.4 135,457.0 140,453.2 145,449.2 150,445.0 155,440.7 160,436.4 165,432.2 170,428.1 175,424.2 180,420.5 185,417.3 190,414.4 195,412.0 200,410.1 205,408.8 210,408.0 215,407.8 220,408.2 225,409.2 230,410.7 235,412.8 240,415.3 245,418.3 250,421.7 255,425.5 260,429.5 265,433.6 270,437.9 275,442.2 280,446.5 285,450.6 290,454.6 295,458.2 300,461.5 305,464.4 310,466.9 315,468.8 320,470.3 325,471.1 330,471.4 335,471.0 340,470.1 345,468.7 350,466.7 355,464.2 360,461.2 365,457.9 370,454.2 375,450.2 380,446.1 385,441.8 390,437.5 395,433.2 400,429.0" fill="none" stroke="#6366f1" stroke-width="1.2" opacity="0.26" />
    <polyline points="0,-23.7 5,-24.2 10,-24.2 15,-23.7 20,-22.7 25,-21.2 30,-19.2 35,-16.9 40,-14.1 45,-11.0 50,-7.5 55,-3.8 60,0.1 65,4.1 70,8.3 75,12.5 80,16.6 85,20.7 90,24.6 95,28.3 100,31.7 105,34.8 110,37.6 115,40.0 120,41.9 125,43.4 130,44.4 135,45.0 140,45.0 145,44.5 150,43.5 155,42.0 160,40.1 165,37.7 170,35.0 175,31.8 180,28.4 185,24.7 190,20.8 195,16.8 200,12.6 205,8.4 210,4.3 215,0.2 220,-3.7 225,-7.4 230,-10.8 235,-14.0 240,-16.8 245,-19.2 250,-21.1 255,-22.6 260,-23.6 265,-24.2 270,-24.2 275,-23.7 280,-22.7 285,-21.2 290,-19.3 295,-17.0 300,-14.2 305,-11.1 310,-7.7 315,-4.0 320,-0.1 325,3.9 330,8.1 335,12.3 340,16.4 345,20.5 350,24.4 355,28.1 360,31.6 365,34.7 370,37.5 375,39.9 380,41.9 385,43.4 390,44.4 395,44.9 400,45.0" fill="none" stroke="#8b5cf6" stroke-width="2.0" opacity="0.12" />
    <polyline points="0,539.7 5,538.0 10,536.3 15,534.6 20,532.9 25,531.2 30,529.4 35,527.7 40,525.9 45,524.2 50,522.5 55,520.9 60,519.2 65,517.7 70,516.1 75,514.6 80,513.2 85,511.9 90,510.6 95,509.4 100,508.3 105,507.3 110,506.3 115,505.5 120,504.8 125,504.1 130,503.6 135,503.2 140,502.9 145,502.7 150,502.6 155,502.6 160,502.8 165,503.0 170,503.4 175,503.9 180,504.4 185,505.1 190,505.9 195,506.8 200,507.8 205,508.8 210,510.0 215,511.2 220,512.5 225,513.9 230,515.4 235,516.9 240,518.4 245,520.0 250,521.7 255,523.4 260,525.1 265,526.8 270,528.5 275,530.3 280,532.0 285,533.8 290,535.5 295,537.2 300,538.8 305,540.4 310,542.0 315,543.6 320,545.0 325,546.4 330,547.8 335,549.1 340,550.2 345,551.3 350,552.4 355,553.3 360,554.1 365,554.8 370,555.5 375,556.0 380,556.4 385,556.7 390,556.9 395,556.9 400,556.9" fill="none" stroke="#ec4899" stroke-width="1.5" opacity="0.15" />
    <polyline points="0,294.5 5,296.7 10,298.9 15,301.0 20,303.1 25,305.2 30,307.1 35,308.9 40,310.5 45,312.0 50,313.4 55,314.5 60,315.5 65,316.3 70,316.9 75,317.2 80,317.4 85,317.3 90,317.0 95,316.5 100,315.8 105,314.9 110,313.8 115,312.5 120,311.0 125,309.4 130,307.7 135,305.8 140,303.8 145,301.7 150,299.6 155,297.4 160,295.2 165,292.9 170,290.7 175,288.6 180,286.5 185,284.4 190,282.5 195,280.6 200,279.0 205,277.4 210,276.0 215,274.8 220,273.8 225,273.0 230,272.3 235,271.9 240,271.7 245,271.8 250,272.0 255,272.4 260,273.1 265,274.0 270,275.0 275,276.3 280,277.7 285,279.3 290,281.0 295,282.8 300,284.8 305,286.9 310,289.0 315,291.2 320,293.4 325,295.6 330,297.8 335,300.0 340,302.1 345,304.2 350,306.2 355,308.0 360,309.7 365,311.3 370,312.7 375,314.0 380,315.1 385,315.9 390,316.6 395,317.1 400,317.3" fill="none" stroke="#6366f1" stroke-width="2.6" opacity="0.19" />
    <polyline points="0,141.4 5,145.5 10,149.8 15,154.1 20,158.5 25,162.7 30,166.8 35,170.7 40,174.3 45,177.6 50,180.6 55,183.1 60,185.2 65,186.7 70,187.8 75,188.3 80,188.3 85,187.8 90,186.7 95,185.2 100,183.1 105,180.6 110,177.6 115,174.3 120,170.7 125,166.8 130,162.7 135,158.4 140,154.1 145,149.8 150,145.5 155,141.4 160,137.4 165,133.7 170,130.3 175,127.3 180,124.6 185,122.4 190,120.7 195,119.5 200,118.8 205,118.7 210,119.1 215,120.0 220,121.5 225,123.4 230,125.8 235,128.6 240,131.9 245,135.4 250,139.2 255,143.3 260,147.5 265,151.8 270,156.1 275,160.4 280,164.6 285,168.6 290,172.4 295,175.9 300,179.0 305,181.8 310,184.1 315,186.0 320,187.3 325,188.1 330,188.4 335,188.2 340,187.4 345,186.1 350,184.3 355,182.0 360,179.3 365,176.1 370,172.7 375,168.9 380,164.9 385,160.7 390,156.4 395,152.1 400,147.8" fill="none" stroke="#8b5cf6" stroke-width="2.1" opacity="0.30" />
    <polyline points="0,428.1 5,429.2 10,430.0 15,430.6 20,430.9 25,430.8 30,430.4 35,429.7 40,428.8 45,427.5 50,426.0 55,424.3 60,422.5 65,420.5 70,418.4 75,416.3 80,414.2 85,412.1 90,410.2 95,408.4 100,406.7 105,405.3 110,404.2 115,403.3 120,402.7 125,402.5 130,402.5 135,402.9 140,403.6 145,404.5 150,405.8 155,407.2 160,408.9 165,410.8 170,412.8 175,414.8 180,417.0 185,419.1 190,421.1 195,423.1 200,424.9 205,426.5 210,427.9 215,429.1 220,430.0 225,430.6 230,430.8 235,430.8 240,430.5 245,429.8 250,428.8 255,427.6 260,426.2 265,424.5 270,422.6 275,420.7 280,418.6 285,416.5 290,414.4 295,412.3 300,410.3 305,408.5 310,406.9 315,405.5 320,404.3 325,403.4 330,402.8 335,402.5 340,402.5 345,402.9 350,403.5 355,404.4 360,405.6 365,407.1 370,408.8 375,410.6 380,412.6 385,414.7 390,416.8 395,418.9 400,420.9" fill="none" stroke="#ec4899" stroke-width="2.6" opacity="0.14" /></g>
  <rect x="136.8" y="188.6" width="74.5" height="74.5" fill="#6366f1" opacity="0.36" />
    <circle cx="196.3" cy="165.8" r="16.1" fill="#ec4899" opacity="0.33" />
    <circle cx="294.1" cy="43.0" r="26.2" fill="#ec4899" opacity="0.16" />
    <circle cx="199.0" cy="209.3" r="14.7" fill="#6366f1" opacity="0.23" />
    <polygon points="71.3,24.9 86.1,54.6 56.5,54.6" fill="#ec4899" opacity="0.21" />
    <rect x="134.1" y="390.3" width="27.9" height="27.9" fill="#ec4899" opacity="0.34" />
    <circle cx="284.5" cy="121.8" r="25.9" fill="#6366f1" opacity="0.21" />
    <rect x="-22.8" y="392.5" width="94.9" height="94.9" fill="#6366f1" opacity="0.17" />
  
  <!-- Text background banner -->
  <defs>
    <linearGradient id="text-bg-20" x1="0%" y1="0%" x2="100%" y2="0%">
      <stop offset="0%" style="stop-color:#000000;stop-opacity:0.7" />
      <stop offset="50%" style="stop-color:#6366f1;stop-opacity:0.4" />
      <stop offset="100%" style="stop-color:#000000;stop-opacity:0.7" />
    </linearGradient>
  </defs>
  <rect x="0" y="494" width="400" height="56" fill="url(#text-bg-20)" />

  <!-- Text shadow -->
  <text x="200" y="522" font-family="system-ui, -apple-system, sans-serif" font-size="24" font-weight="bold" text-anchor="middle" fill="#000000" opacity="0.8">Conference Call Carl</text>

  <!-- Main text -->
  <text x="200" y="520" font-family="system-ui, -apple-system, sans-serif" font-size="24" font-weight="bold" text-anchor="middle" fill="#ffffff">Conference Call Carl</text>
  
  <!-- Rarity border -->
  <rect x="3" y="3" width="394" height="544"
        fill="none" stroke="#3b82f6" stroke-width="6" rx="8" ry="8" />
</svg>