<?xml version="1.0" encoding="UTF-8"?>
<svg xmlns="http://www.w3.org/2000/svg" viewBox="0 0 400 550" width="400" height="550">
  <defs>
    <linearGradient id="bg-gradient-043" x1="0%" y1="0%" x2="100%" y2="100%">
      <stop offset="0%" style="stop-color:#8b5cf6;stop-opacity:0.26" />
      <stop offset="50%" style="stop-color:#ec4899;stop-opacity:0.4" />
      <stop offset="100%" style="stop-color:#8b5cf6;stop-opacity:0.26" />
    </linearGradient>
    
  <filter id="shadow-043">
    <feDropShadow dx="0" dy="2" stdDeviation="3" flood-opacity="0.8"/>
  </filter>
  </defs>
  <rect width="400" height="550" fill="url(#bg-gradient-0.283024339703843)" />
  <g opacity="0.3"><line x1="0" y1="280.2" x2="400" y2="280.2" stroke="#8b5cf6" stroke-width="1.4" opacity="0.23" />
    <line x1="164.2" y1="0" x2="164.2" y2="550" stroke="#8b5cf6" stroke-width="2.3" opacity="0.21" />
    <line x1="113.0" y1="0" x2="113.0" y2="550" stroke="#ec4899" stroke-width="2.3" opacity="0.26" />
    <line x1="0" y1="300.1" x2="400" y2="300.1" stroke="#f97316" stroke-width="1.7" opacity="0.30" />
    <line x1="0" y1="299.0" x2="400" y2="299.0" stroke="#8b5cf6" stroke-width="2.5" opacity="0.21" />
    <line x1="185.7" y1="0" x2="185.7" y2="550" stroke="#8b5cf6" stroke-width="1.7" opacity="0.31" />
    <line x1="65.1" y1="0" x2="65.1" y2="550" stroke="#ec4899" stroke-width="1.3" opacity="0.10" />
    <line x1="0" y1="120.5" x2="400" y2="120.5" stroke="#f97316" stroke-width="3.7" opacity="0.31" />
    <line x1="41.6" y1="0" x2="41.6" y2="550" stroke="#8b5cf6" stroke-width="2.2" opacity="0.32" />
    <line x1="202.6" y1="0" x2="202.6" y2="550" stroke="#8b5cf6" stroke-width="1.7" opacity="0.31" />
    <line x1="291.5" y1="0" x2="291.5" y2="550" stroke="#f97316" stroke-width="1.5" opacity="0.13" />
    <line x1="323.3" y1="0" x2="323.3" y2="550" stroke="#8b5cf6" stroke-width="2.7" opacity="0.11" />
    <line x1="0" y1="409.9" x2="400" y2="409.9" stroke="#f97316" stroke-width="1.4" opacity="0.25" />
    <line x1="84.4" y1="0" x2="84.4" y2="550" stroke="#8b5cf6" stroke-width="2.2" opacity="0.15" />
    <line x1="0" y1="390.2" x2="400" y2="390.2" stroke="#f97316" stroke-width="2.5" opacity="0.28" /></g>
  <circle cx="4.1" cy="267.2" r="42.8" fill="#ec4899" opacity="0.22" />
    <polygon points="185.8,262.1 202.1,278.3 185.8,294.5 169.6,278.3" fill="#f97316" opacity="0.12" />
    <rect x="344.7" y="147.5" width="90.6" height="90.6" fill="#f97316" opacity="0.14" />
    <polygon points="89.6,358.8 117.0,413.7 62.1,413.7" fill="#8b5cf6" opacity="0.21" />
    <rect x="129.5" y="427.9" width="96.7" height="96.7" fill="#ec4899" opacity="0.15" />
    <polygon points="107.7,450.2 128.8,492.3 86.7,492.3" fill="#ec4899" opacity="0.10" />
    <polygon points="200.6,497.3 220.7,537.4 180.6,537.4" fill="#8b5cf6" opacity="0.22" />
    <rect x="85.6" y="46.7" width="69.7" height="69.7" fill="#f97316" opacity="0.40" />
  
  <!-- Text background banner -->
  <defs>
    <linearGradient id="text-bg-7" x1="0%" y1="0%" x2="100%" y2="0%">
      <stop offset="0%" style="stop-color:#000000;stop-opacity:0.7" />
      <stop offset="50%" style="stop-color:#8b5cf6;stop-opacity:0.4" />
      <stop offset="100%" style="stop-color:#000000;stop-opacity:0.7" />
    </linearGradient>
  </defs>
  <rect x="0" y="494" width="400" height="56" fill="url(#text-bg-7)" />

  <!-- Text shadow -->
  <text x="200" y="522" font-family="system-ui, -apple-system, sans-serif" font-size="24" font-weight="bold" text-anchor="middle" fill="#000000" opacity="0.8">IPA Ian</text>

  <!-- Main text -->
  <text x="200" y="520" font-family="system-ui, -apple-system, sans-serif" font-size="24" font-weight="bold" text-anchor="middle" fill="#ffffff">IPA Ian</text>
  
  <!-- Rarity border -->
  <rect x="3" y="3" width="394" height="544"
        fill="none" stroke="#3b82f6" stroke-width="6" rx="8" ry="8" />
</svg>