<?xml version="1.0" encoding="UTF-8"?>
<svg xmlns="http://www.w3.org/2000/svg" viewBox="0 0 400 550" width="400" height="550">
  <defs>
    <linearGradient id="bg-gradient-044" x1="0%" y1="0%" x2="100%" y2="100%">
      <stop offset="0%" style="stop-color:#a8a29e;stop-opacity:0.26" />
      <stop offset="50%" style="stop-color:#78716c;stop-opacity:0.4" />
      <stop offset="100%" style="stop-color:#a8a29e;stop-opacity:0.26" />
    </linearGradient>
    
  <filter id="shadow-044">
    <feDropShadow dx="0" dy="2" stdDeviation="3" flood-opacity="0.8"/>
  </filter>
  </defs>
  <rect width="400" height="550" fill="url(#bg-gradient-0.8478192128241062)" />
  <g opacity="0.3"><polyline points="0,52.2 5,53.6 10,54.9 15,55.9 20,56.8 25,57.5 30,57.9 35,58.2 40,58.2 45,58.0 50,57.6 55,57.0 60,56.1 65,55.1 70,53.9 75,52.5 80,50.9 85,49.1 90,47.2 95,45.2 100,43.1 105,40.8 110,38.4 115,36.0 120,33.5 125,31.0 130,28.5 135,25.9 140,23.4 145,20.9 150,18.5 155,16.1 160,13.9 165,11.7 170,9.6 175,7.7 180,5.9 185,4.3 190,2.9 195,1.6 200,0.6 205,-0.3 210,-0.9 215,-1.4 220,-1.6 225,-1.6 230,-1.4 235,-1.0 240,-0.4 245,0.5 250,1.5 255,2.7 260,4.2 265,5.7 270,7.5 275,9.4 280,11.4 285,13.6 290,15.9 295,18.2 300,20.6 305,23.1 310,25.6 315,28.2 320,30.7 325,33.2 330,35.7 335,38.2 340,40.5 345,42.8 350,45.0 355,47.0 360,48.9 365,50.7 370,52.3 375,53.7 380,55.0 385,56.0 390,56.9 395,57.5 400,57.9" fill="none" stroke="#fbbf24" stroke-width="1.1" opacity="0.11" />
    <polyline points="0,128.3 5,124.8 10,121.7 15,118.9 20,116.6 25,114.9 30,113.6 35,112.9 40,112.7 45,113.1 50,114.0 55,115.5 60,117.5 65,120.0 70,122.9 75,126.2 80,129.8 85,133.6 90,137.7 95,141.9 100,146.2 105,150.5 110,154.7 115,158.7 120,162.5 125,166.1 130,169.2 135,172.0 140,174.3 145,176.2 150,177.5 155,178.3 160,178.5 165,178.2 170,177.3 175,175.9 180,173.9 185,171.5 190,168.7 195,165.4 200,161.8 205,158.0 210,153.9 215,149.7 220,145.4 225,141.2 230,137.0 235,132.9 240,129.1 245,125.5 250,122.3 255,119.5 260,117.1 265,115.2 270,113.8 275,113.0 280,112.7 285,113.0 290,113.8 295,115.2 300,117.0 305,119.4 310,122.2 315,125.4 320,129.0 325,132.8 330,136.8 335,141.0 340,145.3 345,149.6 350,153.8 355,157.9 360,161.7 365,165.3 370,168.6 375,171.4 380,173.9 385,175.8 390,177.3 395,178.2 400,178.5" fill="none" stroke="#a8a29e" stroke-width="2.8" opacity="0.14" />
    <polyline points="0,84.3 5,82.8 10,80.9 15,78.8 20,76.5 25,73.9 30,71.1 35,68.2 40,65.1 45,61.9 50,58.6 55,55.2 60,51.7 65,48.3 70,44.8 75,41.4 80,38.0 85,34.8 90,31.6 95,28.6 100,25.7 105,23.0 110,20.6 115,18.3 120,16.3 125,14.6 130,13.1 135,12.0 140,11.1 145,10.5 150,10.3 155,10.3 160,10.6 165,11.3 170,12.3 175,13.5 180,15.1 185,16.9 190,18.9 195,21.2 200,23.7 205,26.5 210,29.4 215,32.4 220,35.6 225,38.9 230,42.3 235,45.8 240,49.2 245,52.7 250,56.1 255,59.5 260,62.8 265,66.0 270,69.0 275,71.9 280,74.6 285,77.1 290,79.4 295,81.4 300,83.2 305,84.7 310,85.9 315,86.9 320,87.5 325,87.8 330,87.8 335,87.5 340,86.9 345,86.0 350,84.8 355,83.3 360,81.6 365,79.6 370,77.3 375,74.8 380,72.1 385,69.2 390,66.2 395,63.0 400,59.7" fill="none" stroke="#78716c" stroke-width="1.3" opacity="0.11" />
    <polyline points="0,282.4 5,277.0 10,271.8 15,267.0 20,262.8 25,259.1 30,256.1 35,253.9 40,252.5 45,251.9 50,252.1 55,253.1 60,255.0 65,257.7 70,261.0 75,265.0 80,269.5 85,274.5 90,279.8 95,285.4 100,291.0 105,296.6 110,302.1 115,307.3 120,312.1 125,316.4 130,320.1 135,323.1 140,325.5 145,327.0 150,327.7 155,327.5 160,326.5 165,324.7 170,322.1 175,318.8 180,314.9 185,310.4 190,305.5 195,300.2 200,294.6 205,289.0 210,283.4 215,277.9 220,272.7 225,267.8 230,263.5 235,259.7 240,256.6 245,254.2 250,252.7 255,251.9 260,252.0 265,252.9 270,254.6 275,257.1 280,260.4 285,264.3 290,268.7 295,273.6 300,278.9 305,284.4 310,290.0 315,295.7 320,301.2 325,306.4 330,311.3 335,315.7 340,319.5 345,322.7 350,325.1 355,326.8 360,327.6 365,327.6 370,326.7 375,325.1 380,322.6 385,319.5 390,315.6 395,311.2 400,306.3" fill="none" stroke="#78716c" stroke-width="1.1" opacity="0.16" />
    <polyline points="0,428.4 5,429.3 10,430.0 15,430.6 20,431.0 25,431.2 30,431.3 35,431.2 40,430.9 45,430.5 50,429.8 55,429.1 60,428.1 65,427.1 70,425.9 75,424.5 80,423.1 85,421.6 90,420.0 95,418.3 100,416.6 105,414.9 110,413.2 115,411.4 120,409.7 125,408.1 130,406.4 135,404.9 140,403.4 145,402.1 150,400.9 155,399.8 160,398.8 165,398.0 170,397.3 175,396.8 180,396.5 185,396.3 190,396.3 195,396.5 200,396.9 205,397.4 210,398.1 215,398.9 220,399.9 225,401.1 230,402.3 235,403.7 240,405.1 245,406.7 250,408.3 255,410.0 260,411.7 265,413.5 270,415.2 275,416.9 280,418.6 285,420.3 290,421.8 295,423.4 300,424.8 305,426.1 310,427.2 315,428.3 320,429.2 325,429.9 330,430.5 335,431.0 340,431.2 345,431.3 350,431.2 355,431.0 360,430.5 365,429.9 370,429.2 375,428.3 380,427.2 385,426.0 390,424.7 395,423.3 400,421.8" fill="none" stroke="#a8a29e" stroke-width="2.5" opacity="0.14" />
    <polyline points="0,269.0 5,269.0 10,268.8 15,268.6 20,268.2 25,267.7 30,267.1 35,266.4 40,265.6 45,264.7 50,263.7 55,262.6 60,261.4 65,260.2 70,258.9 75,257.5 80,256.0 85,254.5 90,252.9 95,251.4 100,249.7 105,248.1 110,246.5 115,244.8 120,243.1 125,241.5 130,239.9 135,238.3 140,236.7 145,235.2 150,233.7 155,232.3 160,231.0 165,229.7 170,228.5 175,227.4 180,226.4 185,225.5 190,224.6 195,223.9 200,223.3 205,222.8 210,222.4 215,222.1 220,221.9 225,221.9 230,221.9 235,222.1 240,222.4 245,222.8 250,223.3 255,224.0 260,224.7 265,225.5 270,226.5 275,227.5 280,228.6 285,229.8 290,231.1 295,232.5 300,233.9 305,235.3 310,236.9 315,238.4 320,240.0 325,241.7 330,243.3 335,244.9 340,246.6 345,248.3 350,249.9 355,251.5 360,253.1 365,254.6 370,256.1 375,257.6 380,259.0 385,260.3 390,261.5 395,262.7 400,263.8" fill="none" stroke="#a8a29e" stroke-width="1.9" opacity="0.23" /></g>
  <polygon points="120.0,269.8 155.4,305.1 120.0,340.5 84.7,305.1" fill="#fbbf24" opacity="0.20" />
    <circle cx="213.1" cy="222.4" r="15.0" fill="#78716c" opacity="0.31" />
    <polygon points="353.5,260.9 402.5,359.0 304.4,359.0" fill="#fbbf24" opacity="0.17" />
    <polygon points="252.1,191.4 298.3,283.8 205.9,283.8" fill="#a8a29e" opacity="0.24" />
    <polygon points="353.3,146.6 377.8,171.0 353.3,195.4 328.9,171.0" fill="#78716c" opacity="0.14" />
    <polygon points="318.3,243.9 365.0,337.3 271.6,337.3" fill="#fbbf24" opacity="0.24" />
    <rect x="-22.0" y="341.1" width="80.6" height="80.6" fill="#fbbf24" opacity="0.30" />
    <circle cx="279.0" cy="501.1" r="19.6" fill="#78716c" opacity="0.24" />
  
  <!-- Text background banner -->
  <defs>
    <linearGradient id="text-bg-19" x1="0%" y1="0%" x2="100%" y2="0%">
      <stop offset="0%" style="stop-color:#000000;stop-opacity:0.7" />
      <stop offset="50%" style="stop-color:#a8a29e;stop-opacity:0.4" />
      <stop offset="100%" style="stop-color:#000000;stop-opacity:0.7" />
    </linearGradient>
  </defs>
  <rect x="0" y="494" width="400" height="56" fill="url(#text-bg-19)" />

  <!-- Text shadow -->
  <text x="200" y="522" font-family="system-ui, -apple-system, sans-serif" font-size="24" font-weight="bold" text-anchor="middle" fill="#000000" opacity="0.8">Vintage Vinyl Vince</text>

  <!-- Main text -->
  <text x="200" y="520" font-family="system-ui, -apple-system, sans-serif" font-size="24" font-weight="bold" text-anchor="middle" fill="#ffffff">Vintage Vinyl Vince</text>
  
  <!-- Rarity border -->
  <rect x="3" y="3" width="394" height="544"
        fill="none" stroke="#3b82f6" stroke-width="6" rx="8" ry="8" />
</svg>