<?xml version="1.0" encoding="UTF-8"?>
<svg xmlns="http://www.w3.org/2000/svg" viewBox="0 0 400 550" width="400" height="550">
  <defs>
    <linearGradient id="bg-gradient-046" x1="0%" y1="0%" x2="100%" y2="100%">
      <stop offset="0%" style="stop-color:#ef4444;stop-opacity:0.26" />
      <stop offset="50%" style="stop-color:#22c55e;stop-opacity:0.4" />
      <stop offset="100%" style="stop-color:#ef4444;stop-opacity:0.26" />
    </linearGradient>
    
  <filter id="shadow-046">
    <feDropShadow dx="0" dy="2" stdDeviation="3" flood-opacity="0.8"/>
  </filter>
  </defs>
  <rect width="400" height="550" fill="url(#bg-gradient-0.0022728892508894205)" />
  <g opacity="0.3"><line x1="14.9" y1="0" x2="14.9" y2="550" stroke="#fbbf24" stroke-width="1.3" opacity="0.40" />
    <line x1="0" y1="417.7" x2="400" y2="417.7" stroke="#fbbf24" stroke-width="1.0" opacity="0.21" />
    <line x1="0" y1="145.2" x2="400" y2="145.2" stroke="#fbbf24" stroke-width="1.7" opacity="0.35" />
    <line x1="0" y1="450.5" x2="400" y2="450.5" stroke="#22c55e" stroke-width="1.9" opacity="0.12" />
    <line x1="0" y1="366.4" x2="400" y2="366.4" stroke="#22c55e" stroke-width="3.6" opacity="0.27" />
    <line x1="293.1" y1="0" x2="293.1" y2="550" stroke="#fbbf24" stroke-width="3.0" opacity="0.27" />
    <line x1="296.6" y1="0" x2="296.6" y2="550" stroke="#22c55e" stroke-width="3.9" opacity="0.39" />
    <line x1="0" y1="95.3" x2="400" y2="95.3" stroke="#ef4444" stroke-width="3.1" opacity="0.34" />
    <line x1="0" y1="492.3" x2="400" y2="492.3" stroke="#ef4444" stroke-width="3.6" opacity="0.18" />
    <line x1="0" y1="488.1" x2="400" y2="488.1" stroke="#ef4444" stroke-width="2.6" opacity="0.19" />
    <line x1="0" y1="482.0" x2="400" y2="482.0" stroke="#ef4444" stroke-width="2.8" opacity="0.26" />
    <line x1="280.3" y1="0" x2="280.3" y2="550" stroke="#22c55e" stroke-width="2.6" opacity="0.18" />
    <line x1="87.9" y1="0" x2="87.9" y2="550" stroke="#ef4444" stroke-width="3.4" opacity="0.14" />
    <line x1="287.8" y1="0" x2="287.8" y2="550" stroke="#fbbf24" stroke-width="2.0" opacity="0.31" />
    <line x1="0" y1="467.2" x2="400" y2="467.2" stroke="#fbbf24" stroke-width="2.1" opacity="0.28" /></g>
  <rect x="227.5" y="74.6" width="45.0" height="45.0" fill="#fbbf24" opacity="0.32" />
    <rect x="340.3" y="340.2" width="42.2" height="42.2" fill="#ef4444" opacity="0.34" />
    <circle cx="138.4" cy="51.5" r="29.8" fill="#22c55e" opacity="0.21" />
    <rect x="345.2" y="93.1" width="63.6" height="63.6" fill="#fbbf24" opacity="0.27" />
    <polygon points="245.7,131.7 263.0,149.0 245.7,166.3 228.4,149.0" fill="#fbbf24" opacity="0.40" />
    <rect x="-30.3" y="413.1" width="68.0" height="68.0" fill="#fbbf24" opacity="0.23" />
    <circle cx="138.3" cy="20.0" r="15.8" fill="#fbbf24" opacity="0.15" />
    <circle cx="93.4" cy="433.2" r="33.8" fill="#22c55e" opacity="0.22" />
  
  <!-- Text background banner -->
  <defs>
    <linearGradient id="text-bg-20" x1="0%" y1="0%" x2="100%" y2="0%">
      <stop offset="0%" style="stop-color:#000000;stop-opacity:0.7" />
      <stop offset="50%" style="stop-color:#ef4444;stop-opacity:0.4" />
      <stop offset="100%" style="stop-color:#000000;stop-opacity:0.7" />
    </linearGradient>
  </defs>
  <rect x="0" y="494" width="400" height="56" fill="url(#text-bg-20)" />

  <!-- Text shadow -->
  <text x="200" y="522" font-family="system-ui, -apple-system, sans-serif" font-size="24" font-weight="bold" text-anchor="middle" fill="#000000" opacity="0.8">Fourth of July Frank</text>

  <!-- Main text -->
  <text x="200" y="520" font-family="system-ui, -apple-system, sans-serif" font-size="24" font-weight="bold" text-anchor="middle" fill="#ffffff">Fourth of July Frank</text>
  
  <!-- Rarity border -->
  <rect x="3" y="3" width="394" height="544"
        fill="none" stroke="#3b82f6" stroke-width="6" rx="8" ry="8" />
</svg>