<?xml version="1.0" encoding="UTF-8"?>
<svg xmlns="http://www.w3.org/2000/svg" viewBox="0 0 400 550" width="400" height="550">
  <defs>
    <linearGradient id="bg-gradient-047" x1="0%" y1="0%" x2="100%" y2="100%">
      <stop offset="0%" style="stop-color:#f97316;stop-opacity:0.26" />
      <stop offset="50%" style="stop-color:#fbbf24;stop-opacity:0.4" />
      <stop offset="100%" style="stop-color:#f97316;stop-opacity:0.26" />
    </linearGradient>
    
  <filter id="shadow-047">
    <feDropShadow dx="0" dy="2" stdDeviation="3" flood-opacity="0.8"/>
  </filter>
  </defs>
  <rect width="400" height="550" fill="url(#bg-gradient-0.9731242745183408)" />
  <g opacity="0.3"><line x1="180.3" y1="0" x2="180.3" y2="550" stroke="#fbbf24" stroke-width="1.1" opacity="0.12" />
    <line x1="0" y1="30.3" x2="400" y2="30.3" stroke="#fbbf24" stroke-width="2.0" opacity="0.34" />
    <line x1="0" y1="527.6" x2="400" y2="527.6" stroke="#f97316" stroke-width="4.0" opacity="0.23" />
    <line x1="216.9" y1="0" x2="216.9" y2="550" stroke="#f97316" stroke-width="2.5" opacity="0.25" />
    <line x1="121.7" y1="0" x2="121.7" y2="550" stroke="#ef4444" stroke-width="3.6" opacity="0.27" />
    <line x1="0" y1="97.5" x2="400" y2="97.5" stroke="#f97316" stroke-width="1.0" opacity="0.25" />
    <line x1="170.6" y1="0" x2="170.6" y2="550" stroke="#ef4444" stroke-width="1.3" opacity="0.24" />
    <line x1="86.6" y1="0" x2="86.6" y2="550" stroke="#f97316" stroke-width="2.9" opacity="0.14" />
    <line x1="128.6" y1="0" x2="128.6" y2="550" stroke="#ef4444" stroke-width="1.7" opacity="0.38" />
    <line x1="0" y1="409.5" x2="400" y2="409.5" stroke="#f97316" stroke-width="3.7" opacity="0.16" /></g>
  <polygon points="317.9,3.1 350.5,35.7 317.9,68.3 285.4,35.7" fill="#f97316" opacity="0.24" />
    <polygon points="379.7,69.2 412.4,134.6 347.0,134.6" fill="#ef4444" opacity="0.23" />
    <rect x="279.5" y="207.6" width="99.8" height="99.8" fill="#f97316" opacity="0.32" />
    <polygon points="280.6,361.7 292.7,386.0 268.4,386.0" fill="#f97316" opacity="0.28" />
    <polygon points="267.3,161.8 297.4,222.0 237.2,222.0" fill="#ef4444" opacity="0.36" />
  
  <!-- Text background banner -->
  <defs>
    <linearGradient id="text-bg-15" x1="0%" y1="0%" x2="100%" y2="0%">
      <stop offset="0%" style="stop-color:#000000;stop-opacity:0.7" />
      <stop offset="50%" style="stop-color:#f97316;stop-opacity:0.4" />
      <stop offset="100%" style="stop-color:#000000;stop-opacity:0.7" />
    </linearGradient>
  </defs>
  <rect x="0" y="494" width="400" height="56" fill="url(#text-bg-15)" />

  <!-- Text shadow -->
  <text x="200" y="522" font-family="system-ui, -apple-system, sans-serif" font-size="24" font-weight="bold" text-anchor="middle" fill="#000000" opacity="0.8">Home Depot Hero</text>

  <!-- Main text -->
  <text x="200" y="520" font-family="system-ui, -apple-system, sans-serif" font-size="24" font-weight="bold" text-anchor="middle" fill="#ffffff">Home Depot Hero</text>
  
  <!-- Rarity border -->
  <rect x="2" y="2" width="396" height="546"
        fill="none" stroke="#9ca3af" stroke-width="4" rx="8" ry="8" />
</svg>