<?xml version="1.0" encoding="UTF-8"?>
<svg xmlns="http://www.w3.org/2000/svg" viewBox="0 0 400 550" width="400" height="550">
  <defs>
    <linearGradient id="bg-gradient-048" x1="0%" y1="0%" x2="100%" y2="100%">
      <stop offset="0%" style="stop-color:#06b6d4;stop-opacity:0.26" />
      <stop offset="50%" style="stop-color:#3b82f6;stop-opacity:0.4" />
      <stop offset="100%" style="stop-color:#06b6d4;stop-opacity:0.26" />
    </linearGradient>
    
  <filter id="shadow-048">
    <feDropShadow dx="0" dy="2" stdDeviation="3" flood-opacity="0.8"/>
  </filter>
  </defs>
  <rect width="400" height="550" fill="url(#bg-gradient-0.30955365183763206)" />
  <g opacity="0.3"><line x1="0" y1="367.5" x2="400" y2="367.5" stroke="#3b82f6" stroke-width="2.7" opacity="0.30" />
    <line x1="0" y1="37.2" x2="400" y2="37.2" stroke="#06b6d4" stroke-width="1.2" opacity="0.31" />
    <line x1="228.7" y1="0" x2="228.7" y2="550" stroke="#3b82f6" stroke-width="3.4" opacity="0.37" />
    <line x1="352.7" y1="0" x2="352.7" y2="550" stroke="#3b82f6" stroke-width="3.4" opacity="0.18" />
    <line x1="0" y1="10.0" x2="400" y2="10.0" stroke="#22d3ee" stroke-width="3.0" opacity="0.24" />
    <line x1="336.5" y1="0" x2="336.5" y2="550" stroke="#06b6d4" stroke-width="2.6" opacity="0.31" />
    <line x1="364.2" y1="0" x2="364.2" y2="550" stroke="#3b82f6" stroke-width="1.1" opacity="0.36" />
    <line x1="0" y1="308.8" x2="400" y2="308.8" stroke="#22d3ee" stroke-width="1.6" opacity="0.13" />
    <line x1="0" y1="343.5" x2="400" y2="343.5" stroke="#22d3ee" stroke-width="1.1" opacity="0.21" />
    <line x1="150.2" y1="0" x2="150.2" y2="550" stroke="#06b6d4" stroke-width="3.2" opacity="0.38" />
    <line x1="290.4" y1="0" x2="290.4" y2="550" stroke="#22d3ee" stroke-width="3.2" opacity="0.35" />
    <line x1="356.9" y1="0" x2="356.9" y2="550" stroke="#06b6d4" stroke-width="3.9" opacity="0.32" />
    <line x1="302.7" y1="0" x2="302.7" y2="550" stroke="#22d3ee" stroke-width="2.8" opacity="0.28" />
    <line x1="0" y1="427.9" x2="400" y2="427.9" stroke="#06b6d4" stroke-width="1.7" opacity="0.24" />
    <line x1="96.5" y1="0" x2="96.5" y2="550" stroke="#3b82f6" stroke-width="3.7" opacity="0.40" />
    <line x1="0" y1="230.4" x2="400" y2="230.4" stroke="#3b82f6" stroke-width="3.9" opacity="0.37" />
    <line x1="372.8" y1="0" x2="372.8" y2="550" stroke="#22d3ee" stroke-width="3.8" opacity="0.24" />
    <line x1="0" y1="170.4" x2="400" y2="170.4" stroke="#06b6d4" stroke-width="3.8" opacity="0.19" />
    <line x1="0" y1="534.1" x2="400" y2="534.1" stroke="#22d3ee" stroke-width="2.7" opacity="0.35" />
    <line x1="313.9" y1="0" x2="313.9" y2="550" stroke="#22d3ee" stroke-width="2.5" opacity="0.17" /></g>
  <polygon points="1.3,87.6 28.7,142.5 -26.1,142.5" fill="#3b82f6" opacity="0.32" />
    <rect x="322.2" y="120.2" width="87.2" height="87.2" fill="#22d3ee" opacity="0.10" />
    <polygon points="97.4,194.6 120.7,217.9 97.4,241.2 74.1,217.9" fill="#06b6d4" opacity="0.26" />
    <polygon points="220.3,486.0 240.5,506.2 220.3,526.3 200.2,506.2" fill="#22d3ee" opacity="0.37" />
    <polygon points="14.1,-12.3 30.6,20.8 -2.4,20.8" fill="#06b6d4" opacity="0.21" />
    <polygon points="352.7,419.7 396.7,463.8 352.7,507.9 308.6,463.8" fill="#3b82f6" opacity="0.31" />
    <circle cx="249.2" cy="185.7" r="31.0" fill="#06b6d4" opacity="0.36" />
    <polygon points="141.0,399.4 178.2,436.6 141.0,473.7 103.9,436.6" fill="#22d3ee" opacity="0.17" />
    <polygon points="79.7,206.2 119.5,285.9 39.8,285.9" fill="#3b82f6" opacity="0.11" />
    <rect x="250.6" y="85.7" width="30.5" height="30.5" fill="#22d3ee" opacity="0.30" />
    <polygon points="179.9,365.3 212.2,397.5 179.9,429.8 147.7,397.5" fill="#3b82f6" opacity="0.39" />
  
  <!-- Text background banner -->
  <defs>
    <linearGradient id="text-bg-16" x1="0%" y1="0%" x2="100%" y2="0%">
      <stop offset="0%" style="stop-color:#000000;stop-opacity:0.7" />
      <stop offset="50%" style="stop-color:#06b6d4;stop-opacity:0.4" />
      <stop offset="100%" style="stop-color:#000000;stop-opacity:0.7" />
    </linearGradient>
  </defs>
  <rect x="0" y="494" width="400" height="56" fill="url(#text-bg-16)" />

  <!-- Text shadow -->
  <text x="200" y="522" font-family="system-ui, -apple-system, sans-serif" font-size="24" font-weight="bold" text-anchor="middle" fill="#000000" opacity="0.8">Smart Home Steve</text>

  <!-- Main text -->
  <text x="200" y="520" font-family="system-ui, -apple-system, sans-serif" font-size="24" font-weight="bold" text-anchor="middle" fill="#ffffff">Smart Home Steve</text>
  
  <!-- Rarity border -->
  <rect x="4" y="4" width="392" height="542"
        fill="none" stroke="#eab308" stroke-width="8" rx="8" ry="8" />
</svg>