<?xml version="1.0" encoding="UTF-8"?>
<svg xmlns="http://www.w3.org/2000/svg" viewBox="0 0 400 550" width="400" height="550">
  <defs>
    <linearGradient id="bg-gradient-050" x1="0%" y1="0%" x2="100%" y2="100%">
      <stop offset="0%" style="stop-color:#64748b;stop-opacity:0.26" />
      <stop offset="50%" style="stop-color:#94a3b8;stop-opacity:0.4" />
      <stop offset="100%" style="stop-color:#64748b;stop-opacity:0.26" />
    </linearGradient>
    
  <filter id="shadow-050">
    <feDropShadow dx="0" dy="2" stdDeviation="3" flood-opacity="0.8"/>
  </filter>
  </defs>
  <rect width="400" height="550" fill="url(#bg-gradient-0.44165936671197414)" />
  <g opacity="0.3"><circle cx="53.2" cy="412.8" r="26.9" fill="none" stroke="#94a3b8" stroke-width="1.3" opacity="0.17" />
    <circle cx="374.6" cy="147.0" r="33.6" fill="none" stroke="#fbbf24" stroke-width="2.9" opacity="0.18" />
    <circle cx="294.4" cy="88.2" r="35.9" fill="none" stroke="#fbbf24" stroke-width="2.9" opacity="0.15" />
    <rect x="235.3" y="299.6" width="30.7" height="30.7" fill="none" stroke="#fbbf24" stroke-width="2.6" opacity="0.10" />
    <rect x="277.2" y="34.4" width="63.7" height="63.7" fill="none" stroke="#fbbf24" stroke-width="1.5" opacity="0.25" />
    <rect x="120.1" y="176.7" width="31.2" height="31.2" fill="none" stroke="#64748b" stroke-width="2.0" opacity="0.27" />
    <circle cx="288.6" cy="101.9" r="12.6" fill="none" stroke="#94a3b8" stroke-width="1.8" opacity="0.29" /></g>
  <rect x="106.1" y="433.2" width="43.9" height="43.9" fill="#94a3b8" opacity="0.24" />
    <circle cx="232.2" cy="85.2" r="34.8" fill="#fbbf24" opacity="0.17" />
    <circle cx="335.0" cy="49.8" r="33.8" fill="#64748b" opacity="0.36" />
    <polygon points="365.2,413.5 394.8,443.1 365.2,472.6 335.6,443.1" fill="#64748b" opacity="0.17" />
    <polygon points="137.1,231.1 176.3,270.3 137.1,309.5 97.9,270.3" fill="#fbbf24" opacity="0.16" />
    <polygon points="38.3,473.6 63.1,498.4 38.3,523.2 13.5,498.4" fill="#64748b" opacity="0.25" />
    <circle cx="298.7" cy="79.4" r="22.0" fill="#fbbf24" opacity="0.12" />
    <polygon points="13.9,344.9 49.3,380.3 13.9,415.7 -21.5,380.3" fill="#94a3b8" opacity="0.14" />
  
  <!-- Text background banner -->
  <defs>
    <linearGradient id="text-bg-16" x1="0%" y1="0%" x2="100%" y2="0%">
      <stop offset="0%" style="stop-color:#000000;stop-opacity:0.7" />
      <stop offset="50%" style="stop-color:#64748b;stop-opacity:0.4" />
      <stop offset="100%" style="stop-color:#000000;stop-opacity:0.7" />
    </linearGradient>
  </defs>
  <rect x="0" y="494" width="400" height="56" fill="url(#text-bg-16)" />

  <!-- Text shadow -->
  <text x="200" y="522" font-family="system-ui, -apple-system, sans-serif" font-size="24" font-weight="bold" text-anchor="middle" fill="#000000" opacity="0.8">New Balance 608s</text>

  <!-- Main text -->
  <text x="200" y="520" font-family="system-ui, -apple-system, sans-serif" font-size="24" font-weight="bold" text-anchor="middle" fill="#ffffff">New Balance 608s</text>
  
  <!-- Rarity border -->
  <rect x="3" y="3" width="394" height="544"
        fill="none" stroke="#3b82f6" stroke-width="6" rx="8" ry="8" />
</svg>