<?xml version="1.0" encoding="UTF-8"?>
<svg xmlns="http://www.w3.org/2000/svg" viewBox="0 0 400 550" width="400" height="550">
  <defs>
    <linearGradient id="bg-gradient-053" x1="0%" y1="0%" x2="100%" y2="100%">
      <stop offset="0%" style="stop-color:#ef4444;stop-opacity:0.26" />
      <stop offset="50%" style="stop-color:#f97316;stop-opacity:0.4" />
      <stop offset="100%" style="stop-color:#ef4444;stop-opacity:0.26" />
    </linearGradient>
    
  <filter id="shadow-053">
    <feDropShadow dx="0" dy="2" stdDeviation="3" flood-opacity="0.8"/>
  </filter>
  </defs>
  <rect width="400" height="550" fill="url(#bg-gradient-0.6762117214966565)" />
  <g opacity="0.3"><circle cx="9.2" cy="46.1" r="10" fill="#ef4444" />
    <circle cx="9.5" cy="63.6" r="10" fill="#ef4444" />
    <circle cx="6.1" cy="76.9" r="10" fill="#ef4444" />
    <circle cx="4.6" cy="91.2" r="10" fill="#ef4444" />
    <circle cx="6.0" cy="124.2" r="10" fill="#f97316" />
    <circle cx="3.7" cy="152.6" r="10" fill="#f97316" />
    <circle cx="3.2" cy="200.3" r="10" fill="#ef4444" />
    <circle cx="5.0" cy="227.4" r="10" fill="#fbbf24" />
    <circle cx="4.6" cy="243.3" r="10" fill="#ef4444" />
    <circle cx="9.8" cy="262.9" r="10" fill="#f97316" />
    <circle cx="9.0" cy="279.2" r="10" fill="#ef4444" />
    <circle cx="8.7" cy="288.7" r="10" fill="#fbbf24" />
    <circle cx="5.0" cy="316.8" r="10" fill="#f97316" />
    <circle cx="9.4" cy="333.3" r="10" fill="#ef4444" />
    <circle cx="8.5" cy="367.0" r="10" fill="#fbbf24" />
    <circle cx="2.3" cy="383.4" r="10" fill="#fbbf24" />
    <circle cx="2.4" cy="393.4" r="10" fill="#f97316" />
    <circle cx="8.6" cy="405.1" r="10" fill="#fbbf24" />
    <circle cx="2.8" cy="439.9" r="10" fill="#f97316" />
    <circle cx="9.3" cy="454.2" r="10" fill="#ef4444" />
    <circle cx="8.6" cy="532.5" r="10" fill="#f97316" />
    <circle cx="8.1" cy="549.4" r="10" fill="#fbbf24" />
    <circle cx="19.3" cy="1.3" r="10" fill="#fbbf24" />
    <circle cx="20.7" cy="23.8" r="10" fill="#f97316" />
    <circle cx="21.6" cy="52.2" r="10" fill="#fbbf24" />
    <circle cx="22.0" cy="65.6" r="10" fill="#f97316" />
    <circle cx="23.6" cy="109.3" r="10" fill="#ef4444" />
    <circle cx="17.0" cy="129.5" r="10" fill="#ef4444" />
    <circle cx="19.0" cy="169.6" r="10" fill="#f97316" />
    <circle cx="16.4" cy="215.0" r="10" fill="#f97316" />
    <circle cx="16.9" cy="232.9" r="10" fill="#f97316" />
    <circle cx="15.6" cy="246.3" r="10" fill="#ef4444" />
    <circle cx="16.7" cy="263.7" r="10" fill="#f97316" />
    <circle cx="18.9" cy="272.5" r="10" fill="#f97316" />
    <circle cx="24.8" cy="292.9" r="10" fill="#f97316" />
    <circle cx="17.3" cy="308.4" r="10" fill="#f97316" />
    <circle cx="22.0" cy="322.9" r="10" fill="#fbbf24" />
    <circle cx="23.5" cy="330.7" r="10" fill="#f97316" />
    <circle cx="20.1" cy="349.0" r="10" fill="#f97316" />
    <circle cx="20.4" cy="360.3" r="10" fill="#f97316" />
    <circle cx="17.4" cy="391.0" r="10" fill="#ef4444" />
    <circle cx="18.7" cy="412.8" r="10" fill="#ef4444" />
    <circle cx="19.6" cy="420.8" r="10" fill="#ef4444" />
    <circle cx="16.3" cy="457.2" r="10" fill="#f97316" />
    <circle cx="21.6" cy="510.9" r="10" fill="#ef4444" />
    <circle cx="18.9" cy="544.4" r="10" fill="#f97316" />
    <circle cx="31.3" cy="5.4" r="10" fill="#f97316" />
    <circle cx="34.4" cy="33.8" r="10" fill="#ef4444" />
    <circle cx="34.8" cy="69.7" r="10" fill="#ef4444" />
    <circle cx="38.3" cy="76.8" r="10" fill="#ef4444" />
    <circle cx="34.7" cy="105.5" r="10" fill="#ef4444" />
    <circle cx="34.2" cy="122.5" r="10" fill="#fbbf24" />
    <circle cx="33.3" cy="152.5" r="10" fill="#fbbf24" />
    <circle cx="30.8" cy="169.6" r="10" fill="#fbbf24" />
    <circle cx="37.7" cy="185.1" r="10" fill="#f97316" />
    <circle cx="37.1" cy="196.0" r="10" fill="#fbbf24" />
    <circle cx="36.2" cy="242.7" r="10" fill="#ef4444" />
    <circle cx="34.4" cy="257.4" r="10" fill="#f97316" />
    <circle cx="34.6" cy="308.1" r="10" fill="#fbbf24" />
    <circle cx="31.7" cy="315.3" r="10" fill="#fbbf24" />
    <circle cx="30.0" cy="339.8" r="10" fill="#f97316" />
    <circle cx="37.5" cy="354.0" r="10" fill="#fbbf24" />
    <circle cx="36.8" cy="368.4" r="10" fill="#ef4444" />
    <circle cx="33.2" cy="382.3" r="10" fill="#fbbf24" />
    <circle cx="30.4" cy="393.3" r="10" fill="#fbbf24" />
    <circle cx="35.1" cy="409.4" r="10" fill="#f97316" />
    <circle cx="32.3" cy="439.5" r="10" fill="#fbbf24" />
    <circle cx="30.8" cy="469.2" r="10" fill="#f97316" />
    <circle cx="34.7" cy="503.1" r="10" fill="#fbbf24" />
    <circle cx="31.3" cy="513.8" r="10" fill="#ef4444" />
    <circle cx="33.2" cy="549.4" r="10" fill="#fbbf24" />
    <circle cx="49.8" cy="3.3" r="10" fill="#ef4444" />
    <circle cx="54.0" cy="32.6" r="10" fill="#fbbf24" />
    <circle cx="52.8" cy="50.2" r="10" fill="#f97316" />
    <circle cx="46.7" cy="60.7" r="10" fill="#f97316" />
    <circle cx="54.8" cy="80.6" r="10" fill="#f97316" />
    <circle cx="48.3" cy="95.1" r="10" fill="#ef4444" />
    <circle cx="47.7" cy="128.5" r="10" fill="#ef4444" />
    <circle cx="46.4" cy="159.7" r="10" fill="#f97316" />
    <circle cx="53.1" cy="185.1" r="10" fill="#ef4444" />
    <circle cx="54.8" cy="200.6" r="10" fill="#ef4444" />
    <circle cx="50.6" cy="210.9" r="10" fill="#fbbf24" />
    <circle cx="50.7" cy="227.4" r="10" fill="#fbbf24" />
    <circle cx="53.6" cy="243.1" r="10" fill="#f97316" />
    <circle cx="49.5" cy="334.0" r="10" fill="#f97316" />
    <circle cx="52.0" cy="348.1" r="10" fill="#f97316" />
    <circle cx="50.2" cy="384.7" r="10" fill="#f97316" />
    <circle cx="53.6" cy="390.3" r="10" fill="#f97316" />
    <circle cx="50.0" cy="414.4" r="10" fill="#fbbf24" />
    <circle cx="54.6" cy="422.2" r="10" fill="#fbbf24" />
    <circle cx="52.3" cy="467.0" r="10" fill="#fbbf24" />
    <circle cx="49.9" cy="514.8" r="10" fill="#ef4444" />
    <circle cx="61.4" cy="18.0" r="10" fill="#fbbf24" />
    <circle cx="61.0" cy="32.1" r="10" fill="#f97316" />
    <circle cx="61.5" cy="53.2" r="10" fill="#f97316" />
    <circle cx="63.8" cy="64.0" r="10" fill="#f97316" />
    <circle cx="68.0" cy="82.2" r="10" fill="#f97316" />
    <circle cx="64.5" cy="114.5" r="10" fill="#ef4444" />
    <circle cx="69.2" cy="124.5" r="10" fill="#f97316" />
    <circle cx="69.5" cy="142.8" r="10" fill="#fbbf24" />
    <circle cx="66.5" cy="153.1" r="10" fill="#fbbf24" />
    <circle cx="60.6" cy="166.1" r="10" fill="#f97316" />
    <circle cx="61.2" cy="186.1" r="10" fill="#ef4444" />
    <circle cx="66.5" cy="195.7" r="10" fill="#ef4444" />
    <circle cx="69.9" cy="245.5" r="10" fill="#ef4444" />
    <circle cx="65.9" cy="263.1" r="10" fill="#fbbf24" />
    <circle cx="60.6" cy="306.3" r="10" fill="#f97316" />
    <circle cx="62.4" cy="339.6" r="10" fill="#f97316" />
    <circle cx="62.4" cy="383.6" r="10" fill="#ef4444" />
    <circle cx="64.1" cy="390.7" r="10" fill="#fbbf24" />
    <circle cx="60.9" cy="411.2" r="10" fill="#f97316" />
    <circle cx="61.4" cy="428.5" r="10" fill="#ef4444" />
    <circle cx="63.5" cy="443.1" r="10" fill="#f97316" />
    <circle cx="67.5" cy="453.0" r="10" fill="#f97316" />
    <circle cx="68.6" cy="472.5" r="10" fill="#ef4444" />
    <circle cx="65.7" cy="488.0" r="10" fill="#fbbf24" />
    <circle cx="69.9" cy="540.8" r="10" fill="#fbbf24" />
    <circle cx="77.7" cy="30.5" r="10" fill="#f97316" />
    <circle cx="81.2" cy="51.4" r="10" fill="#fbbf24" />
    <circle cx="79.0" cy="66.9" r="10" fill="#f97316" />
    <circle cx="75.9" cy="93.5" r="10" fill="#ef4444" />
    <circle cx="75.5" cy="114.4" r="10" fill="#f97316" />
    <circle cx="75.8" cy="121.0" r="10" fill="#f97316" />
    <circle cx="84.7" cy="140.8" r="10" fill="#f97316" />
    <circle cx="80.1" cy="172.9" r="10" fill="#ef4444" />
    <circle cx="78.8" cy="199.5" r="10" fill="#f97316" />
    <circle cx="75.4" cy="217.0" r="10" fill="#fbbf24" />
    <circle cx="75.3" cy="317.0" r="10" fill="#f97316" />
    <circle cx="75.9" cy="338.4" r="10" fill="#fbbf24" />
    <circle cx="77.0" cy="351.8" r="10" fill="#f97316" />
    <circle cx="78.7" cy="368.3" r="10" fill="#f97316" />
    <circle cx="80.8" cy="380.7" r="10" fill="#fbbf24" />
    <circle cx="76.6" cy="410.4" r="10" fill="#ef4444" />
    <circle cx="79.3" cy="421.2" r="10" fill="#ef4444" />
    <circle cx="84.8" cy="450.3" r="10" fill="#f97316" />
    <circle cx="80.6" cy="498.9" r="10" fill="#fbbf24" />
    <circle cx="85.0" cy="513.0" r="10" fill="#ef4444" />
    <circle cx="76.0" cy="543.9" r="10" fill="#fbbf24" />
    <circle cx="90.6" cy="1.1" r="10" fill="#fbbf24" />
    <circle cx="94.0" cy="15.8" r="10" fill="#fbbf24" />
    <circle cx="93.5" cy="49.7" r="10" fill="#ef4444" />
    <circle cx="91.8" cy="60.3" r="10" fill="#fbbf24" />
    <circle cx="95.0" cy="79.1" r="10" fill="#fbbf24" />
    <circle cx="92.6" cy="98.4" r="10" fill="#fbbf24" />
    <circle cx="94.5" cy="106.1" r="10" fill="#ef4444" />
    <circle cx="92.1" cy="140.3" r="10" fill="#ef4444" />
    <circle cx="95.4" cy="155.9" r="10" fill="#fbbf24" />
    <circle cx="95.2" cy="166.1" r="10" fill="#fbbf24" />
    <circle cx="95.0" cy="185.4" r="10" fill="#f97316" />
    <circle cx="95.4" cy="199.5" r="10" fill="#f97316" />
    <circle cx="97.8" cy="217.4" r="10" fill="#fbbf24" />
    <circle cx="98.7" cy="249.0" r="10" fill="#ef4444" />
    <circle cx="97.0" cy="265.0" r="10" fill="#ef4444" />
    <circle cx="97.9" cy="271.5" r="10" fill="#fbbf24" />
    <circle cx="91.2" cy="292.3" r="10" fill="#f97316" />
    <circle cx="91.0" cy="330.7" r="10" fill="#ef4444" />
    <circle cx="94.5" cy="354.3" r="10" fill="#fbbf24" />
    <circle cx="90.6" cy="367.5" r="10" fill="#ef4444" />
    <circle cx="92.4" cy="384.4" r="10" fill="#fbbf24" />
    <circle cx="90.8" cy="406.5" r="10" fill="#ef4444" />
    <circle cx="96.4" cy="421.9" r="10" fill="#fbbf24" />
    <circle cx="93.1" cy="473.5" r="10" fill="#f97316" />
    <circle cx="96.6" cy="489.9" r="10" fill="#fbbf24" />
    <circle cx="90.6" cy="499.6" r="10" fill="#ef4444" />
    <circle cx="99.4" cy="518.1" r="10" fill="#f97316" />
    <circle cx="100.0" cy="529.1" r="10" fill="#fbbf24" />
    <circle cx="97.4" cy="543.6" r="10" fill="#ef4444" />
    <circle cx="106.1" cy="15.5" r="10" fill="#f97316" />
    <circle cx="107.8" cy="31.2" r="10" fill="#f97316" />
    <circle cx="114.9" cy="52.4" r="10" fill="#f97316" />
    <circle cx="110.9" cy="80.2" r="10" fill="#fbbf24" />
    <circle cx="107.4" cy="126.7" r="10" fill="#f97316" />
    <circle cx="108.2" cy="136.6" r="10" fill="#ef4444" />
    <circle cx="113.5" cy="172.8" r="10" fill="#fbbf24" />
    <circle cx="113.6" cy="198.3" r="10" fill="#ef4444" />
    <circle cx="113.4" cy="217.7" r="10" fill="#ef4444" />
    <circle cx="113.1" cy="231.9" r="10" fill="#ef4444" />
    <circle cx="113.7" cy="244.5" r="10" fill="#ef4444" />
    <circle cx="105.0" cy="292.3" r="10" fill="#ef4444" />
    <circle cx="113.4" cy="304.7" r="10" fill="#fbbf24" />
    <circle cx="105.9" cy="323.1" r="10" fill="#fbbf24" />
    <circle cx="107.8" cy="334.1" r="10" fill="#fbbf24" />
    <circle cx="112.3" cy="363.5" r="10" fill="#ef4444" />
    <circle cx="108.4" cy="405.6" r="10" fill="#ef4444" />
    <circle cx="110.6" cy="438.4" r="10" fill="#f97316" />
    <circle cx="110.3" cy="483.2" r="10" fill="#fbbf24" />
    <circle cx="113.3" cy="502.0" r="10" fill="#ef4444" />
    <circle cx="112.4" cy="512.6" r="10" fill="#ef4444" />
    <circle cx="108.5" cy="528.8" r="10" fill="#f97316" />
    <circle cx="122.8" cy="4.0" r="10" fill="#ef4444" />
    <circle cx="123.6" cy="24.9" r="10" fill="#f97316" />
    <circle cx="122.8" cy="31.0" r="10" fill="#fbbf24" />
    <circle cx="124.0" cy="51.0" r="10" fill="#f97316" />
    <circle cx="121.3" cy="69.7" r="10" fill="#f97316" />
    <circle cx="122.0" cy="90.1" r="10" fill="#fbbf24" />
    <circle cx="127.4" cy="114.5" r="10" fill="#fbbf24" />
    <circle cx="128.0" cy="129.5" r="10" fill="#ef4444" />
    <circle cx="129.8" cy="155.8" r="10" fill="#fbbf24" />
    <circle cx="122.6" cy="174.0" r="10" fill="#fbbf24" />
    <circle cx="123.7" cy="201.6" r="10" fill="#f97316" />
    <circle cx="128.8" cy="214.3" r="10" fill="#ef4444" />
    <circle cx="122.5" cy="232.0" r="10" fill="#f97316" />
    <circle cx="128.1" cy="264.4" r="10" fill="#f97316" />
    <circle cx="127.2" cy="279.4" r="10" fill="#f97316" />
    <circle cx="128.8" cy="293.1" r="10" fill="#f97316" />
    <circle cx="122.8" cy="309.9" r="10" fill="#f97316" />
    <circle cx="122.1" cy="319.4" r="10" fill="#f97316" />
    <circle cx="123.6" cy="336.6" r="10" fill="#ef4444" />
    <circle cx="129.5" cy="346.6" r="10" fill="#ef4444" />
    <circle cx="128.9" cy="397.8" r="10" fill="#f97316" />
    <circle cx="129.9" cy="412.7" r="10" fill="#f97316" />
    <circle cx="128.4" cy="440.4" r="10" fill="#ef4444" />
    <circle cx="120.7" cy="469.7" r="10" fill="#fbbf24" />
    <circle cx="125.3" cy="504.1" r="10" fill="#f97316" />
    <circle cx="129.5" cy="516.8" r="10" fill="#ef4444" />
    <circle cx="140.9" cy="18.4" r="10" fill="#fbbf24" />
    <circle cx="140.4" cy="54.3" r="10" fill="#f97316" />
    <circle cx="139.0" cy="63.9" r="10" fill="#ef4444" />
    <circle cx="137.4" cy="80.9" r="10" fill="#f97316" />
    <circle cx="140.9" cy="94.7" r="10" fill="#ef4444" />
    <circle cx="143.3" cy="105.8" r="10" fill="#ef4444" />
    <circle cx="140.9" cy="123.8" r="10" fill="#f97316" />
    <circle cx="135.3" cy="141.8" r="10" fill="#ef4444" />
    <circle cx="140.5" cy="166.3" r="10" fill="#ef4444" />
    <circle cx="138.3" cy="181.3" r="10" fill="#f97316" />
    <circle cx="144.9" cy="202.0" r="10" fill="#f97316" />
    <circle cx="140.1" cy="217.1" r="10" fill="#f97316" />
    <circle cx="137.1" cy="226.8" r="10" fill="#ef4444" />
    <circle cx="136.0" cy="247.2" r="10" fill="#ef4444" />
    <circle cx="142.6" cy="294.1" r="10" fill="#ef4444" />
    <circle cx="140.3" cy="306.1" r="10" fill="#f97316" />
    <circle cx="137.5" cy="319.3" r="10" fill="#ef4444" />
    <circle cx="140.5" cy="339.6" r="10" fill="#fbbf24" />
    <circle cx="139.7" cy="348.4" r="10" fill="#ef4444" />
    <circle cx="144.5" cy="362.5" r="10" fill="#fbbf24" />
    <circle cx="138.4" cy="399.7" r="10" fill="#fbbf24" />
    <circle cx="141.6" cy="440.7" r="10" fill="#ef4444" />
    <circle cx="135.1" cy="454.2" r="10" fill="#f97316" />
    <circle cx="139.1" cy="489.5" r="10" fill="#fbbf24" />
    <circle cx="139.5" cy="542.2" r="10" fill="#f97316" />
    <circle cx="159.1" cy="32.3" r="10" fill="#ef4444" />
    <circle cx="152.3" cy="68.9" r="10" fill="#f97316" />
    <circle cx="153.0" cy="82.5" r="10" fill="#ef4444" />
    <circle cx="151.9" cy="90.7" r="10" fill="#ef4444" />
    <circle cx="156.8" cy="111.5" r="10" fill="#f97316" />
    <circle cx="158.7" cy="122.8" r="10" fill="#fbbf24" />
    <circle cx="153.1" cy="142.4" r="10" fill="#ef4444" />
    <circle cx="157.8" cy="155.4" r="10" fill="#fbbf24" />
    <circle cx="159.8" cy="202.8" r="10" fill="#fbbf24" />
    <circle cx="158.5" cy="219.8" r="10" fill="#fbbf24" />
    <circle cx="158.5" cy="233.7" r="10" fill="#fbbf24" />
    <circle cx="153.2" cy="249.0" r="10" fill="#fbbf24" />
    <circle cx="159.8" cy="257.5" r="10" fill="#fbbf24" />
    <circle cx="150.4" cy="275.6" r="10" fill="#fbbf24" />
    <circle cx="151.9" cy="293.4" r="10" fill="#f97316" />
    <circle cx="150.9" cy="309.4" r="10" fill="#ef4444" />
    <circle cx="159.0" cy="323.5" r="10" fill="#f97316" />
    <circle cx="150.9" cy="333.0" r="10" fill="#fbbf24" />
    <circle cx="153.8" cy="351.1" r="10" fill="#f97316" />
    <circle cx="151.5" cy="363.9" r="10" fill="#ef4444" />
    <circle cx="155.0" cy="382.6" r="10" fill="#f97316" />
    <circle cx="151.9" cy="394.7" r="10" fill="#f97316" />
    <circle cx="158.3" cy="406.6" r="10" fill="#fbbf24" />
    <circle cx="158.7" cy="428.0" r="10" fill="#f97316" />
    <circle cx="153.3" cy="441.8" r="10" fill="#ef4444" />
    <circle cx="152.5" cy="453.0" r="10" fill="#ef4444" />
    <circle cx="157.8" cy="474.5" r="10" fill="#ef4444" />
    <circle cx="151.6" cy="487.5" r="10" fill="#fbbf24" />
    <circle cx="154.8" cy="497.3" r="10" fill="#fbbf24" />
    <circle cx="154.9" cy="515.7" r="10" fill="#fbbf24" />
    <circle cx="154.7" cy="542.0" r="10" fill="#ef4444" />
    <circle cx="169.1" cy="5.7" r="10" fill="#ef4444" />
    <circle cx="165.3" cy="23.2" r="10" fill="#fbbf24" />
    <circle cx="167.4" cy="62.2" r="10" fill="#fbbf24" />
    <circle cx="173.7" cy="80.7" r="10" fill="#fbbf24" />
    <circle cx="171.6" cy="91.1" r="10" fill="#f97316" />
    <circle cx="172.2" cy="109.9" r="10" fill="#ef4444" />
    <circle cx="166.3" cy="126.9" r="10" fill="#ef4444" />
    <circle cx="174.6" cy="144.9" r="10" fill="#f97316" />
    <circle cx="170.9" cy="154.5" r="10" fill="#fbbf24" />
    <circle cx="165.8" cy="170.7" r="10" fill="#ef4444" />
    <circle cx="165.4" cy="196.0" r="10" fill="#fbbf24" />
    <circle cx="171.2" cy="210.5" r="10" fill="#fbbf24" />
    <circle cx="174.8" cy="262.2" r="10" fill="#f97316" />
    <circle cx="167.7" cy="277.7" r="10" fill="#fbbf24" />
    <circle cx="170.3" cy="322.7" r="10" fill="#f97316" />
    <circle cx="168.3" cy="339.2" r="10" fill="#f97316" />
    <circle cx="173.5" cy="366.5" r="10" fill="#fbbf24" />
    <circle cx="170.8" cy="378.8" r="10" fill="#ef4444" />
    <circle cx="167.6" cy="391.5" r="10" fill="#f97316" />
    <circle cx="171.8" cy="423.5" r="10" fill="#f97316" />
    <circle cx="171.1" cy="454.3" r="10" fill="#fbbf24" />
    <circle cx="166.9" cy="470.5" r="10" fill="#ef4444" />
    <circle cx="169.1" cy="488.0" r="10" fill="#fbbf24" />
    <circle cx="169.9" cy="504.4" r="10" fill="#ef4444" />
    <circle cx="168.1" cy="513.1" r="10" fill="#f97316" />
    <circle cx="173.2" cy="526.2" r="10" fill="#fbbf24" />
    <circle cx="169.5" cy="546.0" r="10" fill="#f97316" />
    <circle cx="182.1" cy="5.0" r="10" fill="#fbbf24" />
    <circle cx="188.5" cy="38.6" r="10" fill="#f97316" />
    <circle cx="182.7" cy="49.9" r="10" fill="#ef4444" />
    <circle cx="186.2" cy="61.8" r="10" fill="#ef4444" />
    <circle cx="182.0" cy="79.9" r="10" fill="#f97316" />
    <circle cx="184.4" cy="109.5" r="10" fill="#ef4444" />
    <circle cx="189.4" cy="142.5" r="10" fill="#ef4444" />
    <circle cx="181.8" cy="156.3" r="10" fill="#f97316" />
    <circle cx="187.5" cy="167.4" r="10" fill="#f97316" />
    <circle cx="184.9" cy="188.4" r="10" fill="#fbbf24" />
    <circle cx="187.2" cy="203.3" r="10" fill="#fbbf24" />
    <circle cx="185.1" cy="218.1" r="10" fill="#ef4444" />
    <circle cx="185.6" cy="227.3" r="10" fill="#fbbf24" />
    <circle cx="181.9" cy="242.4" r="10" fill="#f97316" />
    <circle cx="186.9" cy="279.1" r="10" fill="#ef4444" />
    <circle cx="185.2" cy="295.0" r="10" fill="#fbbf24" />
    <circle cx="184.4" cy="302.5" r="10" fill="#f97316" />
    <circle cx="182.1" cy="317.5" r="10" fill="#fbbf24" />
    <circle cx="182.2" cy="346.6" r="10" fill="#f97316" />
    <circle cx="184.2" cy="361.4" r="10" fill="#fbbf24" />
    <circle cx="181.1" cy="406.6" r="10" fill="#f97316" />
    <circle cx="188.8" cy="453.1" r="10" fill="#ef4444" />
    <circle cx="182.1" cy="471.1" r="10" fill="#ef4444" />
    <circle cx="182.1" cy="487.5" r="10" fill="#ef4444" />
    <circle cx="189.3" cy="547.8" r="10" fill="#f97316" />
    <circle cx="203.3" cy="5.0" r="10" fill="#ef4444" />
    <circle cx="202.0" cy="20.8" r="10" fill="#f97316" />
    <circle cx="204.3" cy="39.2" r="10" fill="#f97316" />
    <circle cx="198.0" cy="45.6" r="10" fill="#f97316" />
    <circle cx="201.1" cy="79.4" r="10" fill="#fbbf24" />
    <circle cx="195.4" cy="109.8" r="10" fill="#ef4444" />
    <circle cx="204.1" cy="129.3" r="10" fill="#ef4444" />
    <circle cx="199.7" cy="143.6" r="10" fill="#ef4444" />
    <circle cx="197.0" cy="150.5" r="10" fill="#f97316" />
    <circle cx="203.9" cy="170.8" r="10" fill="#f97316" />
    <circle cx="198.3" cy="187.6" r="10" fill="#f97316" />
    <circle cx="200.1" cy="203.0" r="10" fill="#f97316" />
    <circle cx="204.7" cy="214.7" r="10" fill="#fbbf24" />
    <circle cx="195.8" cy="234.0" r="10" fill="#fbbf24" />
    <circle cx="195.9" cy="243.0" r="10" fill="#fbbf24" />
    <circle cx="195.2" cy="300.7" r="10" fill="#ef4444" />
    <circle cx="199.2" cy="316.1" r="10" fill="#ef4444" />
    <circle cx="197.5" cy="332.1" r="10" fill="#ef4444" />
    <circle cx="195.1" cy="352.5" r="10" fill="#f97316" />
    <circle cx="199.9" cy="364.5" r="10" fill="#fbbf24" />
    <circle cx="195.3" cy="379.3" r="10" fill="#f97316" />
    <circle cx="204.2" cy="422.9" r="10" fill="#f97316" />
    <circle cx="199.1" cy="436.8" r="10" fill="#f97316" />
    <circle cx="201.3" cy="469.6" r="10" fill="#f97316" />
    <circle cx="195.9" cy="480.5" r="10" fill="#ef4444" />
    <circle cx="202.5" cy="533.9" r="10" fill="#f97316" />
    <circle cx="195.4" cy="547.2" r="10" fill="#ef4444" />
    <circle cx="217.6" cy="9.7" r="10" fill="#fbbf24" />
    <circle cx="211.0" cy="17.8" r="10" fill="#f97316" />
    <circle cx="218.0" cy="34.1" r="10" fill="#fbbf24" />
    <circle cx="215.9" cy="45.1" r="10" fill="#fbbf24" />
    <circle cx="217.3" cy="68.3" r="10" fill="#fbbf24" />
    <circle cx="219.7" cy="83.2" r="10" fill="#f97316" />
    <circle cx="214.0" cy="96.7" r="10" fill="#f97316" />
    <circle cx="213.6" cy="114.4" r="10" fill="#f97316" />
    <circle cx="211.4" cy="127.2" r="10" fill="#fbbf24" />
    <circle cx="214.3" cy="136.4" r="10" fill="#ef4444" />
    <circle cx="218.8" cy="152.1" r="10" fill="#fbbf24" />
    <circle cx="217.0" cy="214.3" r="10" fill="#fbbf24" />
    <circle cx="219.4" cy="227.7" r="10" fill="#ef4444" />
    <circle cx="216.5" cy="260.9" r="10" fill="#ef4444" />
    <circle cx="213.9" cy="278.4" r="10" fill="#fbbf24" />
    <circle cx="213.6" cy="301.6" r="10" fill="#fbbf24" />
    <circle cx="217.6" cy="316.4" r="10" fill="#ef4444" />
    <circle cx="216.7" cy="334.1" r="10" fill="#ef4444" />
    <circle cx="213.7" cy="349.9" r="10" fill="#f97316" />
    <circle cx="213.3" cy="365.6" r="10" fill="#fbbf24" />
    <circle cx="217.3" cy="379.4" r="10" fill="#fbbf24" />
    <circle cx="215.4" cy="412.6" r="10" fill="#ef4444" />
    <circle cx="213.9" cy="424.5" r="10" fill="#fbbf24" />
    <circle cx="213.7" cy="437.2" r="10" fill="#ef4444" />
    <circle cx="211.3" cy="451.1" r="10" fill="#ef4444" />
    <circle cx="219.2" cy="486.6" r="10" fill="#fbbf24" />
    <circle cx="216.8" cy="499.8" r="10" fill="#fbbf24" />
    <circle cx="214.0" cy="515.1" r="10" fill="#fbbf24" />
    <circle cx="215.8" cy="549.0" r="10" fill="#fbbf24" />
    <circle cx="227.8" cy="8.2" r="10" fill="#fbbf24" />
    <circle cx="234.9" cy="23.0" r="10" fill="#ef4444" />
    <circle cx="226.4" cy="35.5" r="10" fill="#fbbf24" />
    <circle cx="234.9" cy="49.5" r="10" fill="#f97316" />
    <circle cx="227.6" cy="62.6" r="10" fill="#ef4444" />
    <circle cx="230.1" cy="81.2" r="10" fill="#fbbf24" />
    <circle cx="231.3" cy="106.3" r="10" fill="#fbbf24" />
    <circle cx="227.8" cy="126.0" r="10" fill="#fbbf24" />
    <circle cx="233.2" cy="135.2" r="10" fill="#f97316" />
    <circle cx="232.5" cy="150.4" r="10" fill="#f97316" />
    <circle cx="229.4" cy="166.5" r="10" fill="#f97316" />
    <circle cx="225.4" cy="182.6" r="10" fill="#f97316" />
    <circle cx="230.9" cy="216.2" r="10" fill="#ef4444" />
    <circle cx="230.3" cy="226.2" r="10" fill="#f97316" />
    <circle cx="232.7" cy="245.3" r="10" fill="#f97316" />
    <circle cx="227.9" cy="279.0" r="10" fill="#ef4444" />
    <circle cx="228.4" cy="285.3" r="10" fill="#ef4444" />
    <circle cx="225.7" cy="305.9" r="10" fill="#fbbf24" />
    <circle cx="225.4" cy="320.9" r="10" fill="#f97316" />
    <circle cx="232.0" cy="330.8" r="10" fill="#ef4444" />
    <circle cx="225.6" cy="345.4" r="10" fill="#fbbf24" />
    <circle cx="225.3" cy="368.1" r="10" fill="#f97316" />
    <circle cx="225.2" cy="378.8" r="10" fill="#f97316" />
    <circle cx="233.6" cy="397.8" r="10" fill="#ef4444" />
    <circle cx="225.1" cy="426.2" r="10" fill="#f97316" />
    <circle cx="226.4" cy="438.3" r="10" fill="#f97316" />
    <circle cx="233.0" cy="457.0" r="10" fill="#fbbf24" />
    <circle cx="226.3" cy="468.4" r="10" fill="#f97316" />
    <circle cx="228.6" cy="487.6" r="10" fill="#f97316" />
    <circle cx="225.9" cy="527.0" r="10" fill="#fbbf24" />
    <circle cx="229.2" cy="541.6" r="10" fill="#ef4444" />
    <circle cx="244.5" cy="6.7" r="10" fill="#fbbf24" />
    <circle cx="243.2" cy="53.7" r="10" fill="#fbbf24" />
    <circle cx="245.1" cy="69.9" r="10" fill="#fbbf24" />
    <circle cx="242.5" cy="78.3" r="10" fill="#ef4444" />
    <circle cx="244.6" cy="110.9" r="10" fill="#f97316" />
    <circle cx="249.1" cy="127.4" r="10" fill="#ef4444" />
    <circle cx="244.1" cy="135.5" r="10" fill="#ef4444" />
    <circle cx="243.2" cy="151.7" r="10" fill="#f97316" />
    <circle cx="240.0" cy="171.0" r="10" fill="#fbbf24" />
    <circle cx="249.3" cy="204.7" r="10" fill="#f97316" />
    <circle cx="246.7" cy="215.5" r="10" fill="#f97316" />
    <circle cx="240.2" cy="230.6" r="10" fill="#fbbf24" />
    <circle cx="241.3" cy="246.9" r="10" fill="#fbbf24" />
    <circle cx="248.0" cy="256.3" r="10" fill="#ef4444" />
    <circle cx="244.4" cy="274.9" r="10" fill="#fbbf24" />
    <circle cx="244.6" cy="322.5" r="10" fill="#fbbf24" />
    <circle cx="242.2" cy="337.2" r="10" fill="#fbbf24" />
    <circle cx="247.2" cy="363.2" r="10" fill="#f97316" />
    <circle cx="246.2" cy="375.0" r="10" fill="#f97316" />
    <circle cx="240.8" cy="398.2" r="10" fill="#f97316" />
    <circle cx="249.4" cy="407.8" r="10" fill="#fbbf24" />
    <circle cx="244.6" cy="422.8" r="10" fill="#fbbf24" />
    <circle cx="243.3" cy="445.0" r="10" fill="#ef4444" />
    <circle cx="246.3" cy="457.8" r="10" fill="#f97316" />
    <circle cx="246.6" cy="498.1" r="10" fill="#f97316" />
    <circle cx="246.9" cy="510.7" r="10" fill="#ef4444" />
    <circle cx="249.7" cy="545.0" r="10" fill="#f97316" />
    <circle cx="261.0" cy="4.0" r="10" fill="#f97316" />
    <circle cx="264.7" cy="20.9" r="10" fill="#ef4444" />
    <circle cx="258.0" cy="33.1" r="10" fill="#fbbf24" />
    <circle cx="261.6" cy="47.1" r="10" fill="#f97316" />
    <circle cx="257.3" cy="60.9" r="10" fill="#f97316" />
    <circle cx="257.9" cy="83.2" r="10" fill="#f97316" />
    <circle cx="264.0" cy="90.6" r="10" fill="#ef4444" />
    <circle cx="263.0" cy="121.7" r="10" fill="#fbbf24" />
    <circle cx="257.2" cy="137.5" r="10" fill="#f97316" />
    <circle cx="256.1" cy="154.3" r="10" fill="#ef4444" />
    <circle cx="260.8" cy="189.6" r="10" fill="#f97316" />
    <circle cx="260.6" cy="199.1" r="10" fill="#fbbf24" />
    <circle cx="255.6" cy="213.0" r="10" fill="#ef4444" />
    <circle cx="257.2" cy="228.0" r="10" fill="#fbbf24" />
    <circle cx="263.9" cy="244.2" r="10" fill="#ef4444" />
    <circle cx="264.1" cy="264.7" r="10" fill="#f97316" />
    <circle cx="262.0" cy="270.7" r="10" fill="#ef4444" />
    <circle cx="261.4" cy="289.3" r="10" fill="#f97316" />
    <circle cx="261.5" cy="300.9" r="10" fill="#f97316" />
    <circle cx="258.3" cy="318.7" r="10" fill="#ef4444" />
    <circle cx="256.2" cy="350.6" r="10" fill="#f97316" />
    <circle cx="256.1" cy="379.2" r="10" fill="#ef4444" />
    <circle cx="257.0" cy="397.1" r="10" fill="#fbbf24" />
    <circle cx="255.8" cy="407.2" r="10" fill="#fbbf24" />
    <circle cx="263.7" cy="458.9" r="10" fill="#fbbf24" />
    <circle cx="260.8" cy="466.5" r="10" fill="#f97316" />
    <circle cx="256.2" cy="501.6" r="10" fill="#fbbf24" />
    <circle cx="255.4" cy="512.7" r="10" fill="#f97316" />
    <circle cx="258.7" cy="533.9" r="10" fill="#f97316" />
    <circle cx="278.1" cy="7.9" r="10" fill="#ef4444" />
    <circle cx="275.7" cy="21.9" r="10" fill="#ef4444" />
    <circle cx="275.7" cy="31.1" r="10" fill="#ef4444" />
    <circle cx="270.3" cy="65.8" r="10" fill="#fbbf24" />
    <circle cx="274.3" cy="83.0" r="10" fill="#f97316" />
    <circle cx="275.4" cy="108.9" r="10" fill="#fbbf24" />
    <circle cx="277.6" cy="136.0" r="10" fill="#fbbf24" />
    <circle cx="273.4" cy="172.3" r="10" fill="#f97316" />
    <circle cx="274.2" cy="197.7" r="10" fill="#fbbf24" />
    <circle cx="278.0" cy="216.1" r="10" fill="#f97316" />
    <circle cx="273.2" cy="229.7" r="10" fill="#fbbf24" />
    <circle cx="272.2" cy="244.9" r="10" fill="#f97316" />
    <circle cx="274.3" cy="258.2" r="10" fill="#fbbf24" />
    <circle cx="276.6" cy="278.2" r="10" fill="#ef4444" />
    <circle cx="278.7" cy="292.5" r="10" fill="#ef4444" />
    <circle cx="277.7" cy="318.3" r="10" fill="#fbbf24" />
    <circle cx="277.9" cy="333.9" r="10" fill="#f97316" />
    <circle cx="275.6" cy="352.0" r="10" fill="#fbbf24" />
    <circle cx="273.4" cy="368.7" r="10" fill="#fbbf24" />
    <circle cx="277.0" cy="399.2" r="10" fill="#fbbf24" />
    <circle cx="271.8" cy="405.0" r="10" fill="#fbbf24" />
    <circle cx="273.4" cy="428.9" r="10" fill="#fbbf24" />
    <circle cx="277.2" cy="468.5" r="10" fill="#f97316" />
    <circle cx="274.6" cy="482.4" r="10" fill="#ef4444" />
    <circle cx="276.7" cy="517.7" r="10" fill="#f97316" />
    <circle cx="277.4" cy="528.7" r="10" fill="#fbbf24" />
    <circle cx="272.8" cy="547.4" r="10" fill="#f97316" />
    <circle cx="285.8" cy="53.1" r="10" fill="#f97316" />
    <circle cx="288.0" cy="70.0" r="10" fill="#ef4444" />
    <circle cx="287.1" cy="80.1" r="10" fill="#ef4444" />
    <circle cx="294.8" cy="96.4" r="10" fill="#ef4444" />
    <circle cx="285.8" cy="110.5" r="10" fill="#fbbf24" />
    <circle cx="288.5" cy="124.3" r="10" fill="#ef4444" />
    <circle cx="289.2" cy="136.5" r="10" fill="#ef4444" />
    <circle cx="291.8" cy="150.6" r="10" fill="#ef4444" />
    <circle cx="292.1" cy="169.4" r="10" fill="#ef4444" />
    <circle cx="290.4" cy="185.4" r="10" fill="#fbbf24" />
    <circle cx="289.1" cy="204.4" r="10" fill="#ef4444" />
    <circle cx="286.4" cy="219.6" r="10" fill="#f97316" />
    <circle cx="286.7" cy="258.1" r="10" fill="#fbbf24" />
    <circle cx="289.2" cy="279.0" r="10" fill="#f97316" />
    <circle cx="287.5" cy="285.3" r="10" fill="#ef4444" />
    <circle cx="290.9" cy="307.6" r="10" fill="#fbbf24" />
    <circle cx="288.1" cy="323.3" r="10" fill="#ef4444" />
    <circle cx="289.2" cy="347.0" r="10" fill="#fbbf24" />
    <circle cx="286.7" cy="381.2" r="10" fill="#f97316" />
    <circle cx="288.5" cy="393.2" r="10" fill="#fbbf24" />
    <circle cx="293.7" cy="429.2" r="10" fill="#f97316" />
    <circle cx="294.7" cy="471.1" r="10" fill="#ef4444" />
    <circle cx="292.2" cy="489.6" r="10" fill="#fbbf24" />
    <circle cx="294.8" cy="497.3" r="10" fill="#fbbf24" />
    <circle cx="288.2" cy="514.4" r="10" fill="#ef4444" />
    <circle cx="293.3" cy="526.2" r="10" fill="#fbbf24" />
    <circle cx="290.1" cy="544.7" r="10" fill="#f97316" />
    <circle cx="301.7" cy="23.3" r="10" fill="#ef4444" />
    <circle cx="307.9" cy="31.2" r="10" fill="#ef4444" />
    <circle cx="301.5" cy="47.4" r="10" fill="#fbbf24" />
    <circle cx="302.1" cy="69.4" r="10" fill="#fbbf24" />
    <circle cx="305.1" cy="76.9" r="10" fill="#ef4444" />
    <circle cx="302.2" cy="90.2" r="10" fill="#f97316" />
    <circle cx="307.0" cy="108.4" r="10" fill="#ef4444" />
    <circle cx="305.2" cy="126.3" r="10" fill="#f97316" />
    <circle cx="307.3" cy="140.6" r="10" fill="#ef4444" />
    <circle cx="302.1" cy="155.4" r="10" fill="#f97316" />
    <circle cx="301.4" cy="172.0" r="10" fill="#f97316" />
    <circle cx="306.5" cy="182.3" r="10" fill="#fbbf24" />
    <circle cx="306.5" cy="200.1" r="10" fill="#ef4444" />
    <circle cx="305.6" cy="231.7" r="10" fill="#fbbf24" />
    <circle cx="302.3" cy="294.1" r="10" fill="#ef4444" />
    <circle cx="307.0" cy="300.7" r="10" fill="#ef4444" />
    <circle cx="306.6" cy="315.0" r="10" fill="#fbbf24" />
    <circle cx="307.1" cy="368.9" r="10" fill="#f97316" />
    <circle cx="302.9" cy="382.9" r="10" fill="#f97316" />
    <circle cx="305.7" cy="395.1" r="10" fill="#f97316" />
    <circle cx="306.3" cy="410.0" r="10" fill="#ef4444" />
    <circle cx="303.5" cy="427.8" r="10" fill="#f97316" />
    <circle cx="306.7" cy="457.5" r="10" fill="#ef4444" />
    <circle cx="305.9" cy="504.1" r="10" fill="#fbbf24" />
    <circle cx="308.9" cy="517.1" r="10" fill="#fbbf24" />
    <circle cx="307.7" cy="530.1" r="10" fill="#ef4444" />
    <circle cx="309.9" cy="547.9" r="10" fill="#fbbf24" />
    <circle cx="320.7" cy="20.6" r="10" fill="#f97316" />
    <circle cx="317.5" cy="35.7" r="10" fill="#f97316" />
    <circle cx="318.4" cy="67.7" r="10" fill="#fbbf24" />
    <circle cx="317.8" cy="109.4" r="10" fill="#f97316" />
    <circle cx="323.6" cy="126.8" r="10" fill="#fbbf24" />
    <circle cx="318.1" cy="142.8" r="10" fill="#fbbf24" />
    <circle cx="324.3" cy="174.1" r="10" fill="#fbbf24" />
    <circle cx="324.4" cy="183.7" r="10" fill="#ef4444" />
    <circle cx="315.0" cy="201.7" r="10" fill="#ef4444" />
    <circle cx="315.7" cy="216.6" r="10" fill="#ef4444" />
    <circle cx="317.5" cy="228.2" r="10" fill="#ef4444" />
    <circle cx="324.8" cy="247.8" r="10" fill="#ef4444" />
    <circle cx="320.4" cy="257.1" r="10" fill="#ef4444" />
    <circle cx="321.9" cy="287.9" r="10" fill="#f97316" />
    <circle cx="320.7" cy="308.0" r="10" fill="#fbbf24" />
    <circle cx="321.0" cy="320.5" r="10" fill="#fbbf24" />
    <circle cx="319.5" cy="338.5" r="10" fill="#fbbf24" />
    <circle cx="319.8" cy="354.7" r="10" fill="#ef4444" />
    <circle cx="324.7" cy="363.9" r="10" fill="#ef4444" />
    <circle cx="322.6" cy="420.6" r="10" fill="#ef4444" />
    <circle cx="316.2" cy="459.7" r="10" fill="#ef4444" />
    <circle cx="320.7" cy="466.1" r="10" fill="#f97316" />
    <circle cx="318.0" cy="486.9" r="10" fill="#ef4444" />
    <circle cx="316.4" cy="502.9" r="10" fill="#f97316" />
    <circle cx="316.6" cy="512.5" r="10" fill="#ef4444" />
    <circle cx="315.9" cy="540.0" r="10" fill="#fbbf24" />
    <circle cx="336.7" cy="7.3" r="10" fill="#ef4444" />
    <circle cx="339.1" cy="18.3" r="10" fill="#ef4444" />
    <circle cx="339.2" cy="37.9" r="10" fill="#f97316" />
    <circle cx="332.6" cy="53.2" r="10" fill="#f97316" />
    <circle cx="338.0" cy="61.6" r="10" fill="#fbbf24" />
    <circle cx="335.7" cy="98.3" r="10" fill="#f97316" />
    <circle cx="339.7" cy="107.1" r="10" fill="#ef4444" />
    <circle cx="339.2" cy="124.5" r="10" fill="#ef4444" />
    <circle cx="332.6" cy="144.0" r="10" fill="#ef4444" />
    <circle cx="336.1" cy="173.3" r="10" fill="#fbbf24" />
    <circle cx="332.0" cy="183.5" r="10" fill="#f97316" />
    <circle cx="332.7" cy="219.1" r="10" fill="#fbbf24" />
    <circle cx="336.9" cy="225.3" r="10" fill="#fbbf24" />
    <circle cx="339.1" cy="260.3" r="10" fill="#f97316" />
    <circle cx="330.1" cy="294.0" r="10" fill="#f97316" />
    <circle cx="330.2" cy="309.1" r="10" fill="#ef4444" />
    <circle cx="337.0" cy="320.7" r="10" fill="#fbbf24" />
    <circle cx="334.5" cy="339.5" r="10" fill="#f97316" />
    <circle cx="331.4" cy="354.5" r="10" fill="#ef4444" />
    <circle cx="338.4" cy="362.1" r="10" fill="#ef4444" />
    <circle cx="335.4" cy="378.4" r="10" fill="#fbbf24" />
    <circle cx="338.5" cy="394.7" r="10" fill="#ef4444" />
    <circle cx="335.7" cy="409.2" r="10" fill="#ef4444" />
    <circle cx="334.7" cy="438.7" r="10" fill="#fbbf24" />
    <circle cx="336.7" cy="453.6" r="10" fill="#fbbf24" />
    <circle cx="339.7" cy="485.4" r="10" fill="#ef4444" />
    <circle cx="331.3" cy="496.9" r="10" fill="#ef4444" />
    <circle cx="332.4" cy="518.7" r="10" fill="#fbbf24" />
    <circle cx="338.0" cy="541.6" r="10" fill="#fbbf24" />
    <circle cx="352.0" cy="0.8" r="10" fill="#f97316" />
    <circle cx="348.5" cy="18.4" r="10" fill="#fbbf24" />
    <circle cx="345.3" cy="35.7" r="10" fill="#f97316" />
    <circle cx="347.0" cy="53.5" r="10" fill="#fbbf24" />
    <circle cx="346.8" cy="62.5" r="10" fill="#f97316" />
    <circle cx="350.4" cy="75.9" r="10" fill="#ef4444" />
    <circle cx="345.3" cy="109.3" r="10" fill="#ef4444" />
    <circle cx="345.3" cy="125.8" r="10" fill="#ef4444" />
    <circle cx="350.4" cy="135.5" r="10" fill="#f97316" />
    <circle cx="347.4" cy="153.2" r="10" fill="#f97316" />
    <circle cx="352.3" cy="167.7" r="10" fill="#ef4444" />
    <circle cx="350.1" cy="197.2" r="10" fill="#f97316" />
    <circle cx="349.5" cy="218.2" r="10" fill="#ef4444" />
    <circle cx="350.8" cy="232.7" r="10" fill="#f97316" />
    <circle cx="349.7" cy="244.7" r="10" fill="#fbbf24" />
    <circle cx="345.3" cy="257.9" r="10" fill="#ef4444" />
    <circle cx="352.2" cy="271.2" r="10" fill="#f97316" />
    <circle cx="345.6" cy="288.6" r="10" fill="#ef4444" />
    <circle cx="353.5" cy="383.4" r="10" fill="#fbbf24" />
    <circle cx="353.6" cy="390.7" r="10" fill="#fbbf24" />
    <circle cx="346.0" cy="407.0" r="10" fill="#ef4444" />
    <circle cx="347.3" cy="421.8" r="10" fill="#ef4444" />
    <circle cx="345.3" cy="442.3" r="10" fill="#f97316" />
    <circle cx="347.3" cy="465.5" r="10" fill="#fbbf24" />
    <circle cx="354.8" cy="481.4" r="10" fill="#fbbf24" />
    <circle cx="354.0" cy="500.5" r="10" fill="#ef4444" />
    <circle cx="353.4" cy="513.2" r="10" fill="#f97316" />
    <circle cx="360.8" cy="4.5" r="10" fill="#ef4444" />
    <circle cx="361.6" cy="18.6" r="10" fill="#fbbf24" />
    <circle cx="363.6" cy="36.9" r="10" fill="#f97316" />
    <circle cx="362.5" cy="53.7" r="10" fill="#f97316" />
    <circle cx="363.3" cy="83.6" r="10" fill="#f97316" />
    <circle cx="360.8" cy="94.0" r="10" fill="#f97316" />
    <circle cx="364.6" cy="113.6" r="10" fill="#f97316" />
    <circle cx="362.2" cy="126.3" r="10" fill="#f97316" />
    <circle cx="363.0" cy="168.6" r="10" fill="#ef4444" />
    <circle cx="360.3" cy="185.1" r="10" fill="#fbbf24" />
    <circle cx="368.1" cy="198.8" r="10" fill="#ef4444" />
    <circle cx="361.5" cy="213.6" r="10" fill="#f97316" />
    <circle cx="366.5" cy="231.5" r="10" fill="#ef4444" />
    <circle cx="364.5" cy="246.3" r="10" fill="#fbbf24" />
    <circle cx="360.1" cy="262.4" r="10" fill="#ef4444" />
    <circle cx="366.1" cy="273.6" r="10" fill="#fbbf24" />
    <circle cx="369.3" cy="305.1" r="10" fill="#f97316" />
    <circle cx="369.9" cy="319.3" r="10" fill="#ef4444" />
    <circle cx="365.9" cy="354.8" r="10" fill="#f97316" />
    <circle cx="367.9" cy="362.4" r="10" fill="#fbbf24" />
    <circle cx="362.7" cy="381.6" r="10" fill="#ef4444" />
    <circle cx="369.8" cy="395.5" r="10" fill="#f97316" />
    <circle cx="362.1" cy="474.9" r="10" fill="#ef4444" />
    <circle cx="365.4" cy="486.2" r="10" fill="#ef4444" />
    <circle cx="366.3" cy="515.1" r="10" fill="#fbbf24" />
    <circle cx="365.8" cy="531.0" r="10" fill="#ef4444" />
    <circle cx="362.5" cy="546.0" r="10" fill="#f97316" />
    <circle cx="383.4" cy="21.9" r="10" fill="#fbbf24" />
    <circle cx="375.2" cy="40.0" r="10" fill="#ef4444" />
    <circle cx="377.5" cy="54.2" r="10" fill="#f97316" />
    <circle cx="378.3" cy="61.5" r="10" fill="#fbbf24" />
    <circle cx="375.0" cy="83.5" r="10" fill="#fbbf24" />
    <circle cx="381.6" cy="93.6" r="10" fill="#ef4444" />
    <circle cx="375.1" cy="108.0" r="10" fill="#f97316" />
    <circle cx="380.0" cy="140.0" r="10" fill="#ef4444" />
    <circle cx="383.1" cy="154.7" r="10" fill="#ef4444" />
    <circle cx="380.4" cy="188.3" r="10" fill="#ef4444" />
    <circle cx="375.1" cy="201.1" r="10" fill="#fbbf24" />
    <circle cx="375.8" cy="218.1" r="10" fill="#fbbf24" />
    <circle cx="378.1" cy="234.5" r="10" fill="#ef4444" />
    <circle cx="376.0" cy="240.3" r="10" fill="#ef4444" />
    <circle cx="383.6" cy="259.1" r="10" fill="#ef4444" />
    <circle cx="384.2" cy="274.0" r="10" fill="#f97316" />
    <circle cx="380.2" cy="301.7" r="10" fill="#ef4444" />
    <circle cx="375.6" cy="319.7" r="10" fill="#ef4444" />
    <circle cx="376.7" cy="332.0" r="10" fill="#fbbf24" />
    <circle cx="376.0" cy="354.3" r="10" fill="#fbbf24" />
    <circle cx="375.8" cy="361.4" r="10" fill="#fbbf24" />
    <circle cx="379.8" cy="381.7" r="10" fill="#ef4444" />
    <circle cx="380.0" cy="391.5" r="10" fill="#f97316" />
    <circle cx="375.3" cy="406.5" r="10" fill="#f97316" />
    <circle cx="380.8" cy="422.0" r="10" fill="#fbbf24" />
    <circle cx="376.4" cy="444.1" r="10" fill="#ef4444" />
    <circle cx="384.2" cy="450.4" r="10" fill="#fbbf24" />
    <circle cx="379.4" cy="485.0" r="10" fill="#ef4444" />
    <circle cx="377.6" cy="499.4" r="10" fill="#ef4444" />
    <circle cx="381.4" cy="517.6" r="10" fill="#f97316" />
    <circle cx="384.3" cy="542.5" r="10" fill="#ef4444" />
    <circle cx="390.6" cy="6.0" r="10" fill="#f97316" />
    <circle cx="394.1" cy="22.8" r="10" fill="#fbbf24" />
    <circle cx="399.0" cy="32.6" r="10" fill="#ef4444" />
    <circle cx="397.2" cy="52.4" r="10" fill="#f97316" />
    <circle cx="390.3" cy="61.9" r="10" fill="#ef4444" />
    <circle cx="394.0" cy="96.5" r="10" fill="#fbbf24" />
    <circle cx="396.8" cy="113.7" r="10" fill="#fbbf24" />
    <circle cx="392.1" cy="127.8" r="10" fill="#f97316" />
    <circle cx="393.1" cy="139.9" r="10" fill="#fbbf24" />
    <circle cx="394.9" cy="157.8" r="10" fill="#ef4444" />
    <circle cx="391.2" cy="168.8" r="10" fill="#fbbf24" />
    <circle cx="392.5" cy="188.2" r="10" fill="#ef4444" />
    <circle cx="396.0" cy="203.1" r="10" fill="#fbbf24" />
    <circle cx="397.3" cy="211.4" r="10" fill="#ef4444" />
    <circle cx="392.3" cy="233.6" r="10" fill="#fbbf24" />
    <circle cx="390.5" cy="261.2" r="10" fill="#f97316" />
    <circle cx="397.5" cy="277.1" r="10" fill="#ef4444" />
    <circle cx="397.9" cy="288.4" r="10" fill="#fbbf24" />
    <circle cx="397.6" cy="315.8" r="10" fill="#fbbf24" />
    <circle cx="395.2" cy="330.4" r="10" fill="#f97316" />
    <circle cx="391.0" cy="352.2" r="10" fill="#f97316" />
    <circle cx="393.7" cy="368.1" r="10" fill="#fbbf24" />
    <circle cx="394.7" cy="383.6" r="10" fill="#fbbf24" />
    <circle cx="392.1" cy="397.4" r="10" fill="#fbbf24" />
    <circle cx="398.7" cy="413.0" r="10" fill="#fbbf24" />
    <circle cx="395.5" cy="422.5" r="10" fill="#f97316" />
    <circle cx="394.7" cy="442.2" r="10" fill="#f97316" />
    <circle cx="396.8" cy="451.2" r="10" fill="#fbbf24" />
    <circle cx="398.6" cy="516.0" r="10" fill="#ef4444" />
    <circle cx="397.3" cy="527.3" r="10" fill="#ef4444" />
    <circle cx="399.5" cy="544.3" r="10" fill="#fbbf24" /></g>
  <polygon points="372.5,150.6 407.3,220.0 337.8,220.0" fill="#fbbf24" opacity="0.11" />
    <rect x="177.9" y="243.1" width="21.7" height="21.7" fill="#ef4444" opacity="0.29" />
    <polygon points="290.5,495.5 330.3,535.3 290.5,575.1 250.7,535.3" fill="#f97316" opacity="0.33" />
    <polygon points="340.6,510.3 365.2,559.3 316.1,559.3" fill="#fbbf24" opacity="0.29" />
    <circle cx="314.8" cy="91.8" r="12.0" fill="#fbbf24" opacity="0.38" />
    <circle cx="357.1" cy="71.4" r="39.8" fill="#f97316" opacity="0.38" />
    <polygon points="33.2,226.1 61.6,254.5 33.2,282.9 4.7,254.5" fill="#fbbf24" opacity="0.36" />
    <polygon points="183.8,27.8 225.0,110.2 142.6,110.2" fill="#fbbf24" opacity="0.21" />
    <rect x="317.9" y="393.9" width="72.0" height="72.0" fill="#ef4444" opacity="0.23" />
    <rect x="264.0" y="381.4" width="40.7" height="40.7" fill="#f97316" opacity="0.30" />
    <rect x="341.1" y="115.9" width="42.0" height="42.0" fill="#ef4444" opacity="0.21" />
    <rect x="44.5" y="448.4" width="92.6" height="92.6" fill="#ef4444" opacity="0.19" />
    <circle cx="345.8" cy="426.6" r="27.9" fill="#f97316" opacity="0.26" />
    <polygon points="292.2,76.2 305.0,89.0 292.2,101.8 279.4,89.0" fill="#f97316" opacity="0.36" />
    <polygon points="277.7,303.5 298.7,345.5 256.7,345.5" fill="#ef4444" opacity="0.35" />
    <polygon points="157.5,53.5 174.0,86.6 140.9,86.6" fill="#fbbf24" opacity="0.34" />
    <polygon points="395.9,382.2 444.9,431.1 395.9,480.1 347.0,431.1" fill="#ef4444" opacity="0.24" />
  
  <!-- Text background banner -->
  <defs>
    <linearGradient id="text-bg-16" x1="0%" y1="0%" x2="100%" y2="0%">
      <stop offset="0%" style="stop-color:#000000;stop-opacity:0.7" />
      <stop offset="50%" style="stop-color:#ef4444;stop-opacity:0.4" />
      <stop offset="100%" style="stop-color:#000000;stop-opacity:0.7" />
    </linearGradient>
  </defs>
  <rect x="0" y="494" width="400" height="56" fill="url(#text-bg-16)" />

  <!-- Text shadow -->
  <text x="200" y="522" font-family="system-ui, -apple-system, sans-serif" font-size="24" font-weight="bold" text-anchor="middle" fill="#000000" opacity="0.8">Smoke Master Sam</text>

  <!-- Main text -->
  <text x="200" y="520" font-family="system-ui, -apple-system, sans-serif" font-size="24" font-weight="bold" text-anchor="middle" fill="#ffffff">Smoke Master Sam</text>
  
  <!-- Rarity border -->
  <rect x="6" y="6" width="388" height="538"
        fill="none" stroke="#f97316" stroke-width="12" rx="8" ry="8" />
</svg>