<?xml version="1.0" encoding="UTF-8"?>
<svg xmlns="http://www.w3.org/2000/svg" viewBox="0 0 400 550" width="400" height="550">
  <defs>
    <linearGradient id="bg-gradient-054" x1="0%" y1="0%" x2="100%" y2="100%">
      <stop offset="0%" style="stop-color:#8b5cf6;stop-opacity:0.26" />
      <stop offset="50%" style="stop-color:#ec4899;stop-opacity:0.4" />
      <stop offset="100%" style="stop-color:#8b5cf6;stop-opacity:0.26" />
    </linearGradient>
    
  <filter id="shadow-054">
    <feDropShadow dx="0" dy="2" stdDeviation="3" flood-opacity="0.8"/>
  </filter>
  </defs>
  <rect width="400" height="550" fill="url(#bg-gradient-0.40131786023266613)" />
  <g opacity="0.3"><polyline points="0,557.7 5,558.4 10,558.7 15,558.9 20,558.7 25,558.3 30,557.7 35,556.8 40,555.7 45,554.3 50,552.8 55,551.0 60,549.1 65,547.0 70,544.8 75,542.5 80,540.2 85,537.8 90,535.3 95,532.9 100,530.5 105,528.2 110,525.9 115,523.8 120,521.8 125,520.0 130,518.3 135,516.9 140,515.7 145,514.7 150,513.9 155,513.4 160,513.1 165,513.2 170,513.4 175,513.9 180,514.7 185,515.7 190,517.0 195,518.4 200,520.1 205,521.9 210,523.9 215,526.1 220,528.3 225,530.7 230,533.1 235,535.5 240,537.9 245,540.3 250,542.7 255,545.0 260,547.2 265,549.2 270,551.1 275,552.9 280,554.4 285,555.8 290,556.9 295,557.7 300,558.4 305,558.7 310,558.9 315,558.7 320,558.3 325,557.7 330,556.8 335,555.6 340,554.3 345,552.7 350,551.0 355,549.0 360,547.0 365,544.8 370,542.5 375,540.1 380,537.7 385,535.2 390,532.8 395,530.4 400,528.1" fill="none" stroke="#f97316" stroke-width="2.1" opacity="0.13" />
    <polyline points="0,54.0 5,55.7 10,57.6 15,59.6 20,61.7 25,63.8 30,66.1 35,68.5 40,70.9 45,73.4 50,75.9 55,78.4 60,81.0 65,83.6 70,86.1 75,88.7 80,91.2 85,93.7 90,96.1 95,98.4 100,100.7 105,102.9 110,105.0 115,106.9 120,108.8 125,110.5 130,112.1 135,113.6 140,114.9 145,116.0 150,117.0 155,117.8 160,118.5 165,119.0 170,119.3 175,119.4 180,119.3 185,119.1 190,118.7 195,118.1 200,117.4 205,116.4 210,115.4 215,114.1 220,112.7 225,111.2 230,109.5 235,107.7 240,105.8 245,103.7 250,101.6 255,99.3 260,97.0 265,94.6 270,92.2 275,89.7 280,87.1 285,84.6 290,82.0 295,79.5 300,76.9 305,74.4 310,71.9 315,69.4 320,67.1 325,64.7 330,62.5 335,60.4 340,58.4 345,56.4 350,54.7 355,53.0 360,51.5 365,50.1 370,48.9 375,47.8 380,46.9 385,46.2 390,45.6 395,45.3 400,45.1" fill="none" stroke="#f97316" stroke-width="1.3" opacity="0.25" />
    <polyline points="0,483.5 5,485.3 10,487.1 15,489.1 20,491.2 25,493.3 30,495.5 35,497.7 40,499.8 45,501.8 50,503.7 55,505.5 60,507.2 65,508.6 70,509.9 75,510.9 80,511.7 85,512.2 90,512.4 95,512.4 100,512.1 105,511.6 110,510.8 115,509.7 120,508.5 125,507.0 130,505.3 135,503.5 140,501.5 145,499.5 150,497.4 155,495.2 160,493.1 165,490.9 170,488.9 175,486.9 180,485.0 185,483.3 190,481.8 195,480.5 200,479.4 205,478.5 210,477.9 215,477.5 220,477.4 225,477.6 230,478.1 235,478.8 240,479.7 245,480.9 250,482.3 255,483.9 260,485.7 265,487.6 270,489.6 275,491.7 280,493.8 285,496.0 290,498.1 295,500.2 300,502.3 305,504.2 310,505.9 315,507.5 320,508.9 325,510.1 330,511.1 335,511.8 340,512.2 345,512.4 350,512.4 355,512.0 360,511.4 365,510.6 370,509.5 375,508.1 380,506.6 385,504.9 390,503.1 395,501.1 400,499.0" fill="none" stroke="#ec4899" stroke-width="2.1" opacity="0.13" />
    <polyline points="0,160.4 5,161.7 10,163.0 15,164.3 20,165.6 25,166.9 30,168.2 35,169.4 40,170.7 45,171.9 50,173.0 55,174.1 60,175.2 65,176.2 70,177.2 75,178.0 80,178.8 85,179.5 90,180.2 95,180.7 100,181.2 105,181.6 110,181.8 115,182.0 120,182.1 125,182.1 130,182.0 135,181.8 140,181.5 145,181.1 150,180.6 155,180.0 160,179.4 165,178.6 170,177.8 175,176.9 180,176.0 185,174.9 190,173.9 195,172.7 200,171.6 205,170.3 210,169.1 215,167.8 220,166.5 225,165.2 230,163.9 235,162.6 240,161.3 245,160.1 250,158.8 255,157.6 260,156.4 265,155.3 270,154.2 275,153.2 280,152.2 285,151.3 290,150.5 295,149.7 300,149.1 305,148.5 310,148.0 315,147.6 320,147.3 325,147.0 330,146.9 335,146.9 340,147.0 345,147.1 350,147.4 355,147.7 360,148.2 365,148.7 370,149.4 375,150.1 380,150.9 385,151.7 390,152.6 395,153.6 400,154.7" fill="none" stroke="#ec4899" stroke-width="1.4" opacity="0.22" />
    <polyline points="0,156.9 5,157.7 10,158.5 15,159.5 20,160.5 25,161.5 30,162.6 35,163.7 40,164.9 45,166.1 50,167.3 55,168.6 60,169.9 65,171.2 70,172.5 75,173.9 80,175.2 85,176.6 90,177.9 95,179.3 100,180.6 105,182.0 110,183.3 115,184.6 120,185.8 125,187.1 130,188.3 135,189.4 140,190.6 145,191.6 150,192.7 155,193.7 160,194.6 165,195.4 170,196.2 175,197.0 180,197.7 185,198.3 190,198.8 195,199.3 200,199.7 205,200.0 210,200.2 215,200.4 220,200.5 225,200.5 230,200.4 235,200.3 240,200.1 245,199.8 250,199.4 255,199.0 260,198.5 265,197.9 270,197.3 275,196.5 280,195.8 285,194.9 290,194.0 295,193.1 300,192.0 305,191.0 310,189.9 315,188.7 320,187.5 325,186.3 330,185.1 335,183.8 340,182.5 345,181.1 350,179.8 355,178.5 360,177.1 365,175.7 370,174.4 375,173.0 380,171.7 385,170.4 390,169.1 395,167.8 400,166.5" fill="none" stroke="#ec4899" stroke-width="1.7" opacity="0.12" />
    <polyline points="0,61.1 5,62.4 10,64.0 15,65.7 20,67.5 25,69.5 30,71.6 35,73.7 40,75.9 45,78.0 50,80.2 55,82.2 60,84.2 65,86.0 70,87.7 75,89.1 80,90.4 85,91.5 90,92.3 95,92.9 100,93.2 105,93.2 110,93.0 115,92.6 120,91.8 125,90.9 130,89.7 135,88.3 140,86.7 145,84.9 150,83.0 155,81.0 160,78.9 165,76.7 170,74.6 175,72.4 180,70.3 185,68.3 190,66.4 195,64.6 200,63.0 205,61.6 210,60.4 215,59.4 220,58.6 225,58.1 230,57.9 235,57.9 240,58.2 245,58.8 250,59.6 255,60.6 260,61.9 265,63.3 270,65.0 275,66.8 280,68.7 285,70.8 290,72.9 295,75.0 300,77.2 305,79.3 310,81.4 315,83.4 320,85.3 325,87.0 330,88.6 335,89.9 340,91.1 345,92.0 350,92.7 355,93.1 360,93.3 365,93.1 370,92.8 375,92.2 380,91.3 385,90.2 390,88.8 395,87.3 400,85.6" fill="none" stroke="#ec4899" stroke-width="1.0" opacity="0.25" />
    <polyline points="0,204.2 5,202.5 10,201.3 15,200.6 20,200.4 25,200.6 30,201.4 35,202.6 40,204.3 45,206.4 50,208.9 55,211.7 60,214.9 65,218.3 70,221.9 75,225.6 80,229.4 85,233.2 90,237.0 95,240.6 100,244.1 105,247.3 110,250.2 115,252.8 120,255.0 125,256.8 130,258.2 135,259.0 140,259.4 145,259.3 150,258.7 155,257.7 160,256.1 165,254.2 170,251.8 175,249.0 180,246.0 185,242.6 190,239.1 195,235.4 200,231.6 205,227.8 210,224.0 215,220.3 220,216.8 225,213.5 230,210.5 235,207.8 240,205.4 245,203.5 250,202.0 255,201.0 260,200.5 265,200.4 270,200.8 275,201.8 280,203.2 285,205.0 290,207.3 295,209.9 300,212.9 305,216.1 310,219.6 315,223.3 320,227.0 325,230.8 330,234.6 335,238.4 340,241.9 345,245.3 350,248.4 355,251.3 360,253.7 365,255.8 370,257.4 375,258.6 380,259.3 385,259.5 390,259.2 395,258.4 400,257.1" fill="none" stroke="#f97316" stroke-width="1.4" opacity="0.22" />
    <polyline points="0,420.8 5,421.1 10,421.3 15,421.7 20,422.1 25,422.5 30,423.0 35,423.5 40,424.1 45,424.8 50,425.5 55,426.2 60,427.0 65,427.8 70,428.6 75,429.5 80,430.4 85,431.4 90,432.4 95,433.4 100,434.4 105,435.4 110,436.5 115,437.5 120,438.6 125,439.7 130,440.8 135,441.9 140,443.0 145,444.1 150,445.2 155,446.2 160,447.3 165,448.3 170,449.3 175,450.3 180,451.3 185,452.3 190,453.2 195,454.1 200,454.9 205,455.7 210,456.5 215,457.2 220,457.9 225,458.5 230,459.1 235,459.7 240,460.2 245,460.6 250,461.0 255,461.3 260,461.6 265,461.8 270,462.0 275,462.1 280,462.1 285,462.1 290,462.0 295,461.9 300,461.7 305,461.5 310,461.2 315,460.9 320,460.5 325,460.0 330,459.5 335,458.9 340,458.3 345,457.7 350,457.0 355,456.2 360,455.4 365,454.6 370,453.8 375,452.9 380,452.0 385,451.0 390,450.0 395,449.0 400,448.0" fill="none" stroke="#ec4899" stroke-width="2.2" opacity="0.15" /></g>
  <circle cx="67.6" cy="461.4" r="26.4" fill="#ec4899" opacity="0.19" />
    <circle cx="203.6" cy="295.3" r="29.1" fill="#8b5cf6" opacity="0.26" />
    <circle cx="213.8" cy="225.6" r="44.9" fill="#8b5cf6" opacity="0.33" />
    <polygon points="48.8,476.0 64.6,507.6 33.1,507.6" fill="#ec4899" opacity="0.27" />
    <circle cx="8.4" cy="22.9" r="47.3" fill="#8b5cf6" opacity="0.12" />
    <polygon points="345.1,-16.1 376.1,14.9 345.1,46.0 314.1,14.9" fill="#f97316" opacity="0.11" />
    <polygon points="250.9,22.2 282.2,53.6 250.9,85.0 219.5,53.6" fill="#f97316" opacity="0.33" />
    <rect x="53.7" y="261.2" width="59.8" height="59.8" fill="#f97316" opacity="0.14" />
    <rect x="335.5" y="45.7" width="65.8" height="65.8" fill="#f97316" opacity="0.18" />
    <polygon points="354.4,538.1 364.7,548.4 354.4,558.7 344.0,548.4" fill="#ec4899" opacity="0.15" />
    <rect x="-22.9" y="105.1" width="74.5" height="74.5" fill="#8b5cf6" opacity="0.22" />
  
  <!-- Text background banner -->
  <defs>
    <linearGradient id="text-bg-14" x1="0%" y1="0%" x2="100%" y2="0%">
      <stop offset="0%" style="stop-color:#000000;stop-opacity:0.7" />
      <stop offset="50%" style="stop-color:#8b5cf6;stop-opacity:0.4" />
      <stop offset="100%" style="stop-color:#000000;stop-opacity:0.7" />
    </linearGradient>
  </defs>
  <rect x="0" y="494" width="400" height="56" fill="url(#text-bg-14)" />

  <!-- Text shadow -->
  <text x="200" y="522" font-family="system-ui, -apple-system, sans-serif" font-size="24" font-weight="bold" text-anchor="middle" fill="#000000" opacity="0.8">Pool Side Paul</text>

  <!-- Main text -->
  <text x="200" y="520" font-family="system-ui, -apple-system, sans-serif" font-size="24" font-weight="bold" text-anchor="middle" fill="#ffffff">Pool Side Paul</text>
  
  <!-- Rarity border -->
  <rect x="4" y="4" width="392" height="542"
        fill="none" stroke="#eab308" stroke-width="8" rx="8" ry="8" />
</svg>