<?xml version="1.0" encoding="UTF-8"?>
<svg xmlns="http://www.w3.org/2000/svg" viewBox="0 0 400 550" width="400" height="550">
  <defs>
    <linearGradient id="bg-gradient-055" x1="0%" y1="0%" x2="100%" y2="100%">
      <stop offset="0%" style="stop-color:#22c55e;stop-opacity:0.26" />
      <stop offset="50%" style="stop-color:#16a34a;stop-opacity:0.4" />
      <stop offset="100%" style="stop-color:#22c55e;stop-opacity:0.26" />
    </linearGradient>
    
  <filter id="shadow-055">
    <feDropShadow dx="0" dy="2" stdDeviation="3" flood-opacity="0.8"/>
  </filter>
  </defs>
  <rect width="400" height="550" fill="url(#bg-gradient-0.027207378763705492)" />
  <g opacity="0.3"><polyline points="0,238.5 5,236.8 10,234.9 15,232.9 20,230.8 25,228.6 30,226.4 35,224.1 40,221.8 45,219.5 50,217.2 55,215.0 60,212.7 65,210.6 70,208.6 75,206.6 80,204.8 85,203.1 90,201.6 95,200.2 100,199.0 105,198.0 110,197.2 115,196.6 120,196.2 125,196.0 130,196.0 135,196.2 140,196.7 145,197.3 150,198.1 155,199.2 160,200.4 165,201.8 170,203.3 175,205.1 180,206.9 185,208.9 190,210.9 195,213.1 200,215.3 205,217.6 210,219.9 215,222.2 220,224.5 225,226.7 230,229.0 235,231.1 240,233.2 245,235.2 250,237.0 255,238.8 260,240.3 265,241.8 270,243.0 275,244.1 280,244.9 285,245.6 290,246.1 295,246.3 300,246.4 305,246.2 310,245.8 315,245.2 320,244.4 325,243.5 330,242.3 335,240.9 340,239.4 345,237.8 350,236.0 355,234.0 360,232.0 365,229.9 370,227.7 375,225.4 380,223.1 385,220.8 390,218.5 395,216.2 400,214.0" fill="none" stroke="#16a34a" stroke-width="2.0" opacity="0.29" />
    <polyline points="0,501.4 5,505.1 10,508.7 15,512.0 20,515.2 25,517.9 30,520.3 35,522.3 40,523.9 45,524.9 50,525.4 55,525.5 60,525.0 65,524.0 70,522.5 75,520.6 80,518.2 85,515.5 90,512.4 95,509.1 100,505.5 105,501.8 110,498.0 115,494.2 120,490.5 125,486.9 130,483.5 135,480.3 140,477.5 145,475.1 150,473.0 155,471.4 160,470.3 165,469.7 170,469.6 175,470.1 180,471.0 185,472.4 190,474.3 195,476.6 200,479.3 205,482.3 210,485.6 215,489.2 220,492.9 225,496.6 230,500.4 235,504.2 240,507.8 245,511.2 250,514.4 255,517.3 260,519.8 265,521.9 270,523.5 275,524.7 280,525.4 285,525.5 290,525.2 295,524.3 300,522.9 305,521.1 310,518.8 315,516.2 320,513.2 325,509.9 330,506.4 335,502.7 340,499.0 345,495.2 350,491.4 355,487.8 360,484.3 365,481.1 370,478.2 375,475.6 380,473.5 385,471.8 390,470.6 395,469.8 400,469.6" fill="none" stroke="#84cc16" stroke-width="1.9" opacity="0.10" />
    <polyline points="0,89.7 5,90.1 10,90.2 15,89.9 20,89.2 25,88.2 30,86.8 35,85.2 40,83.2 45,80.9 50,78.4 55,75.7 60,72.8 65,69.8 70,66.7 75,63.5 80,60.3 85,57.2 90,54.1 95,51.1 100,48.2 105,45.6 110,43.1 115,40.9 120,39.0 125,37.4 130,36.1 135,35.1 140,34.6 145,34.3 150,34.5 155,35.0 160,35.8 165,37.0 170,38.5 175,40.4 180,42.5 185,44.9 190,47.5 195,50.3 200,53.2 205,56.3 210,59.5 215,62.7 220,65.9 225,69.0 230,72.0 235,75.0 240,77.7 245,80.3 250,82.6 255,84.7 260,86.4 265,87.9 270,89.0 275,89.7 280,90.1 285,90.2 290,89.9 295,89.2 300,88.2 305,86.8 310,85.1 315,83.1 320,80.8 325,78.3 330,75.6 335,72.7 340,69.7 345,66.6 350,63.4 355,60.2 360,57.1 365,54.0 370,51.0 375,48.1 380,45.5 385,43.0 390,40.8 395,38.9 400,37.3" fill="none" stroke="#16a34a" stroke-width="1.8" opacity="0.13" />
    <polyline points="0,541.5 5,539.0 10,536.4 15,533.9 20,531.4 25,528.9 30,526.6 35,524.3 40,522.0 45,519.9 50,517.9 55,516.0 60,514.2 65,512.5 70,511.0 75,509.7 80,508.5 85,507.5 90,506.6 95,505.9 100,505.4 105,505.0 110,504.9 115,504.9 120,505.1 125,505.5 130,506.1 135,506.8 140,507.7 145,508.8 150,510.0 155,511.4 160,513.0 165,514.6 170,516.5 175,518.4 180,520.4 185,522.6 190,524.8 195,527.2 200,529.6 205,532.0 210,534.5 215,537.1 220,539.6 225,542.2 230,544.7 235,547.3 240,549.8 245,552.3 250,554.7 255,557.0 260,559.3 265,561.4 270,563.5 275,565.5 280,567.3 285,569.0 290,570.6 295,572.0 300,573.3 305,574.4 310,575.3 315,576.1 320,576.7 325,577.1 330,577.3 335,577.4 340,577.3 345,576.9 350,576.5 355,575.8 360,575.0 365,574.0 370,572.8 375,571.5 380,570.0 385,568.4 390,566.6 395,564.7 400,562.7" fill="none" stroke="#16a34a" stroke-width="2.7" opacity="0.24" /></g>
  <rect x="58.0" y="387.8" width="70.1" height="70.1" fill="#16a34a" opacity="0.21" />
    <polygon points="389.6,479.8 407.2,497.4 389.6,515.0 372.0,497.4" fill="#16a34a" opacity="0.15" />
    <rect x="97.3" y="-15.1" width="69.4" height="69.4" fill="#84cc16" opacity="0.11" />
    <circle cx="154.5" cy="24.1" r="46.8" fill="#22c55e" opacity="0.33" />
    <polygon points="144.2,417.0 165.2,459.1 123.1,459.1" fill="#16a34a" opacity="0.20" />
  
  <!-- Text background banner -->
  <defs>
    <linearGradient id="text-bg-20" x1="0%" y1="0%" x2="100%" y2="0%">
      <stop offset="0%" style="stop-color:#000000;stop-opacity:0.7" />
      <stop offset="50%" style="stop-color:#22c55e;stop-opacity:0.4" />
      <stop offset="100%" style="stop-color:#000000;stop-opacity:0.7" />
    </linearGradient>
  </defs>
  <rect x="0" y="494" width="400" height="56" fill="url(#text-bg-20)" />

  <!-- Text shadow -->
  <text x="200" y="522" font-family="system-ui, -apple-system, sans-serif" font-size="24" font-weight="bold" text-anchor="middle" fill="#000000" opacity="0.8">Mosquito Magnet Mike</text>

  <!-- Main text -->
  <text x="200" y="520" font-family="system-ui, -apple-system, sans-serif" font-size="24" font-weight="bold" text-anchor="middle" fill="#ffffff">Mosquito Magnet Mike</text>
  
  <!-- Rarity border -->
  <rect x="2" y="2" width="396" height="546"
        fill="none" stroke="#9ca3af" stroke-width="4" rx="8" ry="8" />
</svg>