<?xml version="1.0" encoding="UTF-8"?>
<svg xmlns="http://www.w3.org/2000/svg" viewBox="0 0 400 550" width="400" height="550">
  <defs>
    <linearGradient id="bg-gradient-056" x1="0%" y1="0%" x2="100%" y2="100%">
      <stop offset="0%" style="stop-color:#8b5cf6;stop-opacity:0.26" />
      <stop offset="50%" style="stop-color:#ec4899;stop-opacity:0.4" />
      <stop offset="100%" style="stop-color:#8b5cf6;stop-opacity:0.26" />
    </linearGradient>
    
  <filter id="shadow-056">
    <feDropShadow dx="0" dy="2" stdDeviation="3" flood-opacity="0.8"/>
  </filter>
  </defs>
  <rect width="400" height="550" fill="url(#bg-gradient-0.5159059655852616)" />
  <g opacity="0.3"><polyline points="0,307.9 5,304.3 10,300.6 15,296.9 20,293.2 25,289.5 30,286.0 35,282.7 40,279.5 45,276.6 50,274.0 55,271.8 60,269.9 65,268.3 70,267.2 75,266.5 80,266.2 85,266.4 90,267.0 95,268.0 100,269.4 105,271.2 110,273.3 115,275.8 120,278.6 125,281.7 130,285.0 135,288.5 140,292.1 145,295.8 150,299.5 155,303.2 160,306.9 165,310.4 170,313.8 175,317.0 180,319.9 185,322.5 190,324.9 195,326.8 200,328.4 205,329.6 210,330.3 215,330.7 220,330.6 225,330.1 230,329.1 235,327.8 240,326.0 245,323.9 250,321.4 255,318.7 260,315.6 265,312.4 270,308.9 275,305.3 280,301.6 285,297.9 290,294.2 295,290.5 300,287.0 305,283.6 310,280.4 315,277.4 320,274.7 325,272.4 330,270.3 335,268.7 340,267.5 345,266.7 350,266.3 355,266.3 360,266.8 365,267.6 370,268.9 375,270.6 380,272.7 385,275.1 390,277.9 395,280.9 400,284.1" fill="none" stroke="#f97316" stroke-width="2.2" opacity="0.10" />
    <polyline points="0,207.0 5,208.8 10,210.7 15,212.8 20,215.0 25,217.2 30,219.5 35,221.9 40,224.2 45,226.6 50,228.9 55,231.1 60,233.3 65,235.3 70,237.2 75,239.0 80,240.6 85,242.0 90,243.3 95,244.3 100,245.1 105,245.7 110,246.0 115,246.1 120,246.0 125,245.6 130,245.0 135,244.2 140,243.1 145,241.9 150,240.4 155,238.8 160,237.0 165,235.0 170,233.0 175,230.8 180,228.6 185,226.2 190,223.9 195,221.5 200,219.2 205,216.9 210,214.7 215,212.5 220,210.5 225,208.5 230,206.8 235,205.2 240,203.7 245,202.5 250,201.5 255,200.7 260,200.1 265,199.8 270,199.7 275,199.8 280,200.2 285,200.8 290,201.6 295,202.7 300,203.9 305,205.4 310,207.0 315,208.8 320,210.8 325,212.8 330,215.0 335,217.2 340,219.6 345,221.9 350,224.2 355,226.6 360,228.9 365,231.1 370,233.3 375,235.3 380,237.3 385,239.0 390,240.6 395,242.1 400,243.3" fill="none" stroke="#ec4899" stroke-width="1.8" opacity="0.21" />
    <polyline points="0,60.5 5,62.2 10,63.8 15,65.4 20,66.8 25,68.1 30,69.3 35,70.3 40,71.2 45,72.0 50,72.6 55,73.0 60,73.3 65,73.4 70,73.4 75,73.1 80,72.8 85,72.2 90,71.6 95,70.7 100,69.7 105,68.6 110,67.4 115,66.0 120,64.5 125,62.9 130,61.2 135,59.4 140,57.6 145,55.7 150,53.7 155,51.7 160,49.7 165,47.7 170,45.7 175,43.7 180,41.8 185,39.9 190,38.0 195,36.2 200,34.5 205,32.9 210,31.4 215,30.0 220,28.7 225,27.6 230,26.6 235,25.7 240,25.0 245,24.5 250,24.1 255,23.8 260,23.8 265,23.9 270,24.1 275,24.5 280,25.1 285,25.9 290,26.7 295,27.8 300,28.9 305,30.2 310,31.6 315,33.1 320,34.8 325,36.5 330,38.3 335,40.1 340,42.1 345,44.0 350,46.0 355,48.0 360,50.0 365,52.0 370,54.0 375,56.0 380,57.9 385,59.7 390,61.5 395,63.1 400,64.7" fill="none" stroke="#8b5cf6" stroke-width="2.7" opacity="0.29" />
    <polyline points="0,331.7 5,329.9 10,327.8 15,325.4 20,322.7 25,319.8 30,316.6 35,313.3 40,309.9 45,306.4 50,302.8 55,299.2 60,295.7 65,292.2 70,288.9 75,285.7 80,282.7 85,279.9 90,277.4 95,275.2 100,273.3 105,271.7 110,270.5 115,269.7 120,269.2 125,269.2 130,269.5 135,270.2 140,271.3 145,272.8 150,274.6 155,276.7 160,279.1 165,281.8 170,284.7 175,287.9 180,291.2 185,294.6 190,298.1 195,301.7 200,305.3 205,308.8 210,312.3 215,315.6 220,318.8 225,321.8 230,324.6 235,327.1 240,329.3 245,331.2 250,332.7 255,333.9 260,334.7 265,335.2 270,335.2 275,334.9 280,334.2 285,333.1 290,331.6 295,329.8 300,327.7 305,325.2 310,322.5 315,319.6 320,316.4 325,313.1 330,309.7 335,306.2 340,302.6 345,299.0 350,295.5 355,292.0 360,288.7 365,285.5 370,282.5 375,279.7 380,277.3 385,275.1 390,273.2 395,271.6 400,270.5" fill="none" stroke="#f97316" stroke-width="1.6" opacity="0.21" />
    <polyline points="0,57.3 5,54.2 10,50.8 15,47.3 20,43.7 25,40.0 30,36.3 35,32.5 40,28.8 45,25.2 50,21.7 55,18.4 60,15.3 65,12.4 70,9.8 75,7.5 80,5.5 85,3.9 90,2.6 95,1.8 100,1.3 105,1.2 110,1.5 115,2.2 120,3.3 125,4.8 130,6.7 135,8.8 140,11.3 145,14.1 150,17.1 155,20.3 160,23.8 165,27.3 170,31.0 175,34.7 180,38.5 185,42.2 190,45.9 195,49.4 200,52.8 205,56.1 210,59.1 215,61.8 220,64.2 225,66.4 230,68.2 235,69.6 240,70.7 245,71.3 250,71.6 255,71.5 260,71.0 265,70.0 270,68.7 275,67.1 280,65.1 285,62.7 290,60.1 295,57.2 300,54.0 305,50.7 310,47.2 315,43.6 320,39.8 325,36.1 330,32.4 335,28.7 340,25.0 345,21.6 350,18.3 355,15.1 360,12.3 365,9.7 370,7.4 375,5.4 380,3.8 385,2.6 390,1.7 395,1.3 400,1.2" fill="none" stroke="#ec4899" stroke-width="2.9" opacity="0.18" />
    <polyline points="0,466.4 5,465.1 10,463.5 15,461.6 20,459.3 25,456.7 30,453.9 35,450.9 40,447.8 45,444.5 50,441.2 55,437.9 60,434.7 65,431.6 70,428.6 75,425.9 80,423.4 85,421.2 90,419.3 95,417.8 100,416.7 105,416.0 110,415.7 115,415.8 120,416.3 125,417.2 130,418.6 135,420.3 140,422.3 145,424.7 150,427.3 155,430.2 160,433.2 165,436.4 170,439.7 175,443.0 180,446.3 185,449.5 190,452.6 195,455.5 200,458.1 205,460.6 210,462.7 215,464.4 220,465.8 225,466.9 230,467.5 235,467.6 240,467.4 245,466.8 250,465.7 255,464.3 260,462.5 265,460.3 270,457.9 275,455.2 280,452.2 285,449.1 290,445.9 295,442.6 300,439.3 305,436.1 310,432.9 315,429.9 320,427.0 325,424.4 330,422.1 335,420.1 340,418.4 345,417.1 350,416.2 355,415.7 360,415.7 365,416.0 370,416.8 375,418.0 380,419.5 385,421.4 390,423.6 395,426.2 400,428.9" fill="none" stroke="#8b5cf6" stroke-width="2.2" opacity="0.12" /></g>
  <rect x="326.8" y="307.0" width="80.5" height="80.5" fill="#f97316" opacity="0.16" />
    <polygon points="159.1,-19.6 205.1,26.4 159.1,72.4 113.1,26.4" fill="#8b5cf6" opacity="0.19" />
    <circle cx="196.9" cy="163.3" r="17.2" fill="#8b5cf6" opacity="0.38" />
    <rect x="114.3" y="346.1" width="38.3" height="38.3" fill="#ec4899" opacity="0.12" />
    <polygon points="360.8,226.0 378.3,260.9 343.3,260.9" fill="#f97316" opacity="0.20" />
    <rect x="146.1" y="104.1" width="70.4" height="70.4" fill="#8b5cf6" opacity="0.10" />
    <circle cx="139.1" cy="191.3" r="43.3" fill="#ec4899" opacity="0.39" />
    <circle cx="39.9" cy="215.4" r="38.3" fill="#f97316" opacity="0.33" />
  
  <!-- Text background banner -->
  <defs>
    <linearGradient id="text-bg-12" x1="0%" y1="0%" x2="100%" y2="0%">
      <stop offset="0%" style="stop-color:#000000;stop-opacity:0.7" />
      <stop offset="50%" style="stop-color:#8b5cf6;stop-opacity:0.4" />
      <stop offset="100%" style="stop-color:#000000;stop-opacity:0.7" />
    </linearGradient>
  </defs>
  <rect x="0" y="494" width="400" height="56" fill="url(#text-bg-12)" />

  <!-- Text shadow -->
  <text x="200" y="522" font-family="system-ui, -apple-system, sans-serif" font-size="24" font-weight="bold" text-anchor="middle" fill="#000000" opacity="0.8">Sunburn Stan</text>

  <!-- Main text -->
  <text x="200" y="520" font-family="system-ui, -apple-system, sans-serif" font-size="24" font-weight="bold" text-anchor="middle" fill="#ffffff">Sunburn Stan</text>
  
  <!-- Rarity border -->
  <rect x="3" y="3" width="394" height="544"
        fill="none" stroke="#3b82f6" stroke-width="6" rx="8" ry="8" />
</svg>