<?xml version="1.0" encoding="UTF-8"?>
<svg xmlns="http://www.w3.org/2000/svg" viewBox="0 0 400 550" width="400" height="550">
  <defs>
    <linearGradient id="bg-gradient-057" x1="0%" y1="0%" x2="100%" y2="100%">
      <stop offset="0%" style="stop-color:#ec4899;stop-opacity:0.26" />
      <stop offset="50%" style="stop-color:#f472b6;stop-opacity:0.4" />
      <stop offset="100%" style="stop-color:#ec4899;stop-opacity:0.26" />
    </linearGradient>
    
  <filter id="shadow-057">
    <feDropShadow dx="0" dy="2" stdDeviation="3" flood-opacity="0.8"/>
  </filter>
  </defs>
  <rect width="400" height="550" fill="url(#bg-gradient-0.5263896079268306)" />
  <g opacity="0.3"><rect x="114.4" y="93.7" width="44.2" height="44.2" fill="none" stroke="#ec4899" stroke-width="1.7" opacity="0.28" />
    <circle cx="45.1" cy="245.5" r="34.2" fill="none" stroke="#f472b6" stroke-width="1.6" opacity="0.14" />
    <circle cx="22.5" cy="299.1" r="16.7" fill="none" stroke="#ec4899" stroke-width="2.8" opacity="0.30" />
    <rect x="309.8" y="18.5" width="58.5" height="58.5" fill="none" stroke="#ec4899" stroke-width="2.3" opacity="0.19" />
    <rect x="85.3" y="184.1" width="64.5" height="64.5" fill="none" stroke="#ec4899" stroke-width="1.6" opacity="0.11" /></g>
  <polygon points="125.3,407.8 142.3,441.7 108.4,441.7" fill="#ec4899" opacity="0.32" />
    <circle cx="292.8" cy="258.3" r="11.4" fill="#f472b6" opacity="0.21" />
    <circle cx="392.0" cy="22.7" r="11.4" fill="#f472b6" opacity="0.17" />
    <polygon points="397.3,403.0 427.7,463.9 366.8,463.9" fill="#f472b6" opacity="0.12" />
    <polygon points="229.9,93.0 262.4,125.5 229.9,158.0 197.4,125.5" fill="#f472b6" opacity="0.34" />
  
  <!-- Text background banner -->
  <defs>
    <linearGradient id="text-bg-15" x1="0%" y1="0%" x2="100%" y2="0%">
      <stop offset="0%" style="stop-color:#000000;stop-opacity:0.7" />
      <stop offset="50%" style="stop-color:#ec4899;stop-opacity:0.4" />
      <stop offset="100%" style="stop-color:#000000;stop-opacity:0.7" />
    </linearGradient>
  </defs>
  <rect x="0" y="494" width="400" height="56" fill="url(#text-bg-15)" />

  <!-- Text shadow -->
  <text x="200" y="522" font-family="system-ui, -apple-system, sans-serif" font-size="24" font-weight="bold" text-anchor="middle" fill="#000000" opacity="0.8">Flip Flop Floyd</text>

  <!-- Main text -->
  <text x="200" y="520" font-family="system-ui, -apple-system, sans-serif" font-size="24" font-weight="bold" text-anchor="middle" fill="#ffffff">Flip Flop Floyd</text>
  
  <!-- Rarity border -->
  <rect x="2" y="2" width="396" height="546"
        fill="none" stroke="#9ca3af" stroke-width="4" rx="8" ry="8" />
</svg>