<?xml version="1.0" encoding="UTF-8"?>
<svg xmlns="http://www.w3.org/2000/svg" viewBox="0 0 400 550" width="400" height="550">
  <defs>
    <linearGradient id="bg-gradient-059" x1="0%" y1="0%" x2="100%" y2="100%">
      <stop offset="0%" style="stop-color:#3b82f6;stop-opacity:0.26" />
      <stop offset="50%" style="stop-color:#6366f1;stop-opacity:0.4" />
      <stop offset="100%" style="stop-color:#3b82f6;stop-opacity:0.26" />
    </linearGradient>
    
  <filter id="shadow-059">
    <feDropShadow dx="0" dy="2" stdDeviation="3" flood-opacity="0.8"/>
  </filter>
  </defs>
  <rect width="400" height="550" fill="url(#bg-gradient-0.06396453687921166)" />
  <g opacity="0.3"><circle cx="7.3" cy="66.8" r="4" fill="#6366f1" />
    <circle cx="3.2" cy="90.5" r="4" fill="#6366f1" />
    <circle cx="4.4" cy="121.7" r="4" fill="#6366f1" />
    <circle cx="6.9" cy="158.1" r="4" fill="#6366f1" />
    <circle cx="4.5" cy="275.6" r="4" fill="#6366f1" />
    <circle cx="1.8" cy="301.5" r="4" fill="#6366f1" />
    <circle cx="2.8" cy="333.5" r="4" fill="#8b5cf6" />
    <circle cx="9.6" cy="362.9" r="4" fill="#8b5cf6" />
    <circle cx="7.6" cy="514.7" r="4" fill="#3b82f6" />
    <circle cx="4.8" cy="547.9" r="4" fill="#8b5cf6" />
    <circle cx="38.6" cy="5.9" r="4" fill="#8b5cf6" />
    <circle cx="38.0" cy="36.7" r="4" fill="#8b5cf6" />
    <circle cx="31.2" cy="184.7" r="4" fill="#8b5cf6" />
    <circle cx="39.3" cy="213.7" r="4" fill="#8b5cf6" />
    <circle cx="35.7" cy="242.6" r="4" fill="#8b5cf6" />
    <circle cx="32.9" cy="364.6" r="4" fill="#3b82f6" />
    <circle cx="34.0" cy="397.5" r="4" fill="#6366f1" />
    <circle cx="34.8" cy="424.4" r="4" fill="#3b82f6" />
    <circle cx="31.2" cy="453.0" r="4" fill="#6366f1" />
    <circle cx="34.0" cy="482.9" r="4" fill="#6366f1" />
    <circle cx="30.7" cy="517.6" r="4" fill="#6366f1" />
    <circle cx="33.3" cy="546.3" r="4" fill="#3b82f6" />
    <circle cx="64.0" cy="1.6" r="4" fill="#8b5cf6" />
    <circle cx="68.8" cy="34.9" r="4" fill="#3b82f6" />
    <circle cx="64.1" cy="97.8" r="4" fill="#3b82f6" />
    <circle cx="65.3" cy="124.6" r="4" fill="#3b82f6" />
    <circle cx="69.2" cy="151.3" r="4" fill="#8b5cf6" />
    <circle cx="63.4" cy="212.7" r="4" fill="#8b5cf6" />
    <circle cx="64.5" cy="272.9" r="4" fill="#6366f1" />
    <circle cx="68.9" cy="336.5" r="4" fill="#8b5cf6" />
    <circle cx="65.8" cy="368.7" r="4" fill="#6366f1" />
    <circle cx="66.5" cy="452.6" r="4" fill="#8b5cf6" />
    <circle cx="63.9" cy="485.3" r="4" fill="#6366f1" />
    <circle cx="61.1" cy="510.6" r="4" fill="#3b82f6" />
    <circle cx="61.6" cy="544.4" r="4" fill="#8b5cf6" />
    <circle cx="90.4" cy="0.1" r="4" fill="#3b82f6" />
    <circle cx="94.9" cy="31.6" r="4" fill="#6366f1" />
    <circle cx="94.9" cy="60.2" r="4" fill="#6366f1" />
    <circle cx="90.4" cy="94.7" r="4" fill="#8b5cf6" />
    <circle cx="95.7" cy="122.0" r="4" fill="#3b82f6" />
    <circle cx="98.9" cy="187.0" r="4" fill="#8b5cf6" />
    <circle cx="98.6" cy="216.9" r="4" fill="#3b82f6" />
    <circle cx="91.2" cy="244.6" r="4" fill="#8b5cf6" />
    <circle cx="99.9" cy="273.7" r="4" fill="#8b5cf6" />
    <circle cx="97.3" cy="308.1" r="4" fill="#8b5cf6" />
    <circle cx="90.6" cy="339.4" r="4" fill="#3b82f6" />
    <circle cx="98.6" cy="390.3" r="4" fill="#3b82f6" />
    <circle cx="93.5" cy="488.7" r="4" fill="#6366f1" />
    <circle cx="95.4" cy="540.5" r="4" fill="#8b5cf6" />
    <circle cx="125.8" cy="2.4" r="4" fill="#6366f1" />
    <circle cx="129.2" cy="30.2" r="4" fill="#3b82f6" />
    <circle cx="127.6" cy="97.2" r="4" fill="#6366f1" />
    <circle cx="128.1" cy="125.7" r="4" fill="#3b82f6" />
    <circle cx="127.2" cy="185.4" r="4" fill="#3b82f6" />
    <circle cx="123.6" cy="216.1" r="4" fill="#3b82f6" />
    <circle cx="120.4" cy="277.3" r="4" fill="#8b5cf6" />
    <circle cx="127.5" cy="332.2" r="4" fill="#8b5cf6" />
    <circle cx="122.6" cy="362.7" r="4" fill="#3b82f6" />
    <circle cx="123.8" cy="423.8" r="4" fill="#8b5cf6" />
    <circle cx="128.1" cy="489.0" r="4" fill="#6366f1" />
    <circle cx="124.1" cy="510.7" r="4" fill="#6366f1" />
    <circle cx="126.6" cy="543.6" r="4" fill="#8b5cf6" />
    <circle cx="156.5" cy="2.4" r="4" fill="#3b82f6" />
    <circle cx="157.2" cy="36.1" r="4" fill="#3b82f6" />
    <circle cx="153.5" cy="92.3" r="4" fill="#3b82f6" />
    <circle cx="156.0" cy="127.5" r="4" fill="#8b5cf6" />
    <circle cx="152.2" cy="157.2" r="4" fill="#8b5cf6" />
    <circle cx="155.0" cy="219.0" r="4" fill="#6366f1" />
    <circle cx="156.9" cy="243.9" r="4" fill="#6366f1" />
    <circle cx="157.0" cy="276.1" r="4" fill="#6366f1" />
    <circle cx="157.1" cy="306.9" r="4" fill="#8b5cf6" />
    <circle cx="159.8" cy="337.7" r="4" fill="#6366f1" />
    <circle cx="156.5" cy="363.2" r="4" fill="#3b82f6" />
    <circle cx="153.9" cy="459.3" r="4" fill="#8b5cf6" />
    <circle cx="153.2" cy="515.0" r="4" fill="#8b5cf6" />
    <circle cx="183.6" cy="153.4" r="4" fill="#3b82f6" />
    <circle cx="180.5" cy="185.0" r="4" fill="#6366f1" />
    <circle cx="184.2" cy="212.2" r="4" fill="#3b82f6" />
    <circle cx="186.9" cy="245.4" r="4" fill="#8b5cf6" />
    <circle cx="181.7" cy="276.8" r="4" fill="#8b5cf6" />
    <circle cx="185.5" cy="304.1" r="4" fill="#3b82f6" />
    <circle cx="180.3" cy="333.8" r="4" fill="#3b82f6" />
    <circle cx="183.7" cy="369.5" r="4" fill="#3b82f6" />
    <circle cx="184.1" cy="397.9" r="4" fill="#6366f1" />
    <circle cx="183.1" cy="423.4" r="4" fill="#6366f1" />
    <circle cx="180.0" cy="450.2" r="4" fill="#6366f1" />
    <circle cx="185.6" cy="549.9" r="4" fill="#6366f1" />
    <circle cx="213.8" cy="0.9" r="4" fill="#3b82f6" />
    <circle cx="219.9" cy="39.8" r="4" fill="#3b82f6" />
    <circle cx="215.6" cy="66.2" r="4" fill="#3b82f6" />
    <circle cx="213.2" cy="126.9" r="4" fill="#8b5cf6" />
    <circle cx="217.6" cy="152.7" r="4" fill="#8b5cf6" />
    <circle cx="213.6" cy="217.3" r="4" fill="#8b5cf6" />
    <circle cx="217.4" cy="277.7" r="4" fill="#6366f1" />
    <circle cx="211.5" cy="300.3" r="4" fill="#6366f1" />
    <circle cx="215.8" cy="333.8" r="4" fill="#6366f1" />
    <circle cx="211.3" cy="369.9" r="4" fill="#6366f1" />
    <circle cx="215.1" cy="428.4" r="4" fill="#8b5cf6" />
    <circle cx="219.1" cy="450.8" r="4" fill="#6366f1" />
    <circle cx="218.0" cy="482.8" r="4" fill="#8b5cf6" />
    <circle cx="219.6" cy="519.5" r="4" fill="#6366f1" />
    <circle cx="211.4" cy="547.4" r="4" fill="#3b82f6" />
    <circle cx="244.9" cy="0.0" r="4" fill="#8b5cf6" />
    <circle cx="248.8" cy="67.7" r="4" fill="#3b82f6" />
    <circle cx="247.3" cy="96.8" r="4" fill="#6366f1" />
    <circle cx="247.5" cy="129.6" r="4" fill="#3b82f6" />
    <circle cx="240.0" cy="150.6" r="4" fill="#6366f1" />
    <circle cx="245.7" cy="187.3" r="4" fill="#8b5cf6" />
    <circle cx="248.3" cy="215.7" r="4" fill="#8b5cf6" />
    <circle cx="243.2" cy="243.1" r="4" fill="#3b82f6" />
    <circle cx="249.6" cy="301.7" r="4" fill="#8b5cf6" />
    <circle cx="245.1" cy="332.3" r="4" fill="#3b82f6" />
    <circle cx="241.4" cy="366.1" r="4" fill="#3b82f6" />
    <circle cx="245.0" cy="396.6" r="4" fill="#6366f1" />
    <circle cx="246.0" cy="422.6" r="4" fill="#6366f1" />
    <circle cx="249.2" cy="480.5" r="4" fill="#6366f1" />
    <circle cx="242.4" cy="512.7" r="4" fill="#8b5cf6" />
    <circle cx="274.5" cy="3.5" r="4" fill="#6366f1" />
    <circle cx="272.8" cy="60.3" r="4" fill="#3b82f6" />
    <circle cx="277.4" cy="90.5" r="4" fill="#6366f1" />
    <circle cx="279.2" cy="121.4" r="4" fill="#3b82f6" />
    <circle cx="271.6" cy="156.3" r="4" fill="#6366f1" />
    <circle cx="279.2" cy="186.4" r="4" fill="#3b82f6" />
    <circle cx="273.7" cy="215.2" r="4" fill="#3b82f6" />
    <circle cx="277.3" cy="244.3" r="4" fill="#3b82f6" />
    <circle cx="272.1" cy="272.4" r="4" fill="#6366f1" />
    <circle cx="272.4" cy="330.1" r="4" fill="#6366f1" />
    <circle cx="273.6" cy="362.7" r="4" fill="#8b5cf6" />
    <circle cx="279.4" cy="397.9" r="4" fill="#6366f1" />
    <circle cx="276.4" cy="423.5" r="4" fill="#3b82f6" />
    <circle cx="279.4" cy="487.7" r="4" fill="#3b82f6" />
    <circle cx="309.5" cy="3.9" r="4" fill="#3b82f6" />
    <circle cx="302.9" cy="38.0" r="4" fill="#8b5cf6" />
    <circle cx="309.7" cy="127.5" r="4" fill="#3b82f6" />
    <circle cx="305.6" cy="213.9" r="4" fill="#3b82f6" />
    <circle cx="307.5" cy="245.5" r="4" fill="#8b5cf6" />
    <circle cx="309.2" cy="276.5" r="4" fill="#8b5cf6" />
    <circle cx="307.0" cy="334.6" r="4" fill="#6366f1" />
    <circle cx="306.0" cy="363.1" r="4" fill="#6366f1" />
    <circle cx="304.6" cy="455.1" r="4" fill="#8b5cf6" />
    <circle cx="304.9" cy="512.6" r="4" fill="#6366f1" />
    <circle cx="335.9" cy="7.5" r="4" fill="#8b5cf6" />
    <circle cx="338.9" cy="37.0" r="4" fill="#8b5cf6" />
    <circle cx="331.4" cy="99.5" r="4" fill="#8b5cf6" />
    <circle cx="334.5" cy="125.9" r="4" fill="#3b82f6" />
    <circle cx="333.9" cy="150.9" r="4" fill="#3b82f6" />
    <circle cx="339.7" cy="187.6" r="4" fill="#6366f1" />
    <circle cx="335.6" cy="249.2" r="4" fill="#8b5cf6" />
    <circle cx="330.6" cy="338.3" r="4" fill="#8b5cf6" />
    <circle cx="337.1" cy="361.7" r="4" fill="#8b5cf6" />
    <circle cx="337.0" cy="390.1" r="4" fill="#8b5cf6" />
    <circle cx="337.4" cy="458.7" r="4" fill="#8b5cf6" />
    <circle cx="335.9" cy="485.0" r="4" fill="#6366f1" />
    <circle cx="339.4" cy="546.3" r="4" fill="#8b5cf6" />
    <circle cx="368.9" cy="1.1" r="4" fill="#6366f1" />
    <circle cx="361.7" cy="65.4" r="4" fill="#8b5cf6" />
    <circle cx="366.1" cy="91.8" r="4" fill="#6366f1" />
    <circle cx="366.4" cy="127.2" r="4" fill="#3b82f6" />
    <circle cx="361.5" cy="187.3" r="4" fill="#6366f1" />
    <circle cx="361.0" cy="241.4" r="4" fill="#8b5cf6" />
    <circle cx="363.0" cy="273.2" r="4" fill="#8b5cf6" />
    <circle cx="367.1" cy="305.6" r="4" fill="#3b82f6" />
    <circle cx="360.9" cy="365.2" r="4" fill="#3b82f6" />
    <circle cx="362.8" cy="423.5" r="4" fill="#3b82f6" />
    <circle cx="367.0" cy="455.2" r="4" fill="#3b82f6" />
    <circle cx="364.6" cy="484.1" r="4" fill="#6366f1" />
    <circle cx="369.3" cy="510.6" r="4" fill="#3b82f6" />
    <circle cx="368.7" cy="548.8" r="4" fill="#6366f1" />
    <circle cx="392.2" cy="3.3" r="4" fill="#8b5cf6" />
    <circle cx="397.0" cy="32.8" r="4" fill="#3b82f6" />
    <circle cx="390.2" cy="151.3" r="4" fill="#6366f1" />
    <circle cx="391.6" cy="185.5" r="4" fill="#6366f1" />
    <circle cx="396.9" cy="212.3" r="4" fill="#8b5cf6" />
    <circle cx="390.3" cy="275.7" r="4" fill="#8b5cf6" />
    <circle cx="398.6" cy="301.3" r="4" fill="#8b5cf6" />
    <circle cx="396.2" cy="334.4" r="4" fill="#6366f1" />
    <circle cx="398.8" cy="365.1" r="4" fill="#6366f1" />
    <circle cx="394.1" cy="392.7" r="4" fill="#3b82f6" />
    <circle cx="396.6" cy="429.6" r="4" fill="#3b82f6" />
    <circle cx="398.9" cy="482.3" r="4" fill="#6366f1" />
    <circle cx="396.6" cy="519.8" r="4" fill="#3b82f6" />
    <circle cx="399.4" cy="540.7" r="4" fill="#8b5cf6" /></g>
  <polygon points="271.7,78.1 304.8,111.2 271.7,144.3 238.6,111.2" fill="#6366f1" opacity="0.26" />
    <polygon points="169.1,58.0 216.8,105.7 169.1,153.4 121.4,105.7" fill="#3b82f6" opacity="0.19" />
    <polygon points="206.2,508.4 247.0,549.2 206.2,590.0 165.4,549.2" fill="#8b5cf6" opacity="0.39" />
    <circle cx="288.5" cy="413.2" r="16.8" fill="#6366f1" opacity="0.25" />
    <rect x="172.9" y="136.4" width="98.3" height="98.3" fill="#8b5cf6" opacity="0.24" />
    <circle cx="361.0" cy="330.6" r="43.2" fill="#8b5cf6" opacity="0.21" />
    <polygon points="87.2,411.4 119.5,443.7 87.2,476.1 54.8,443.7" fill="#6366f1" opacity="0.11" />
    <circle cx="85.9" cy="110.8" r="41.5" fill="#6366f1" opacity="0.39" />
  
  <!-- Text background banner -->
  <defs>
    <linearGradient id="text-bg-15" x1="0%" y1="0%" x2="100%" y2="0%">
      <stop offset="0%" style="stop-color:#000000;stop-opacity:0.7" />
      <stop offset="50%" style="stop-color:#3b82f6;stop-opacity:0.4" />
      <stop offset="100%" style="stop-color:#000000;stop-opacity:0.7" />
    </linearGradient>
  </defs>
  <rect x="0" y="494" width="400" height="56" fill="url(#text-bg-15)" />

  <!-- Text shadow -->
  <text x="200" y="522" font-family="system-ui, -apple-system, sans-serif" font-size="24" font-weight="bold" text-anchor="middle" fill="#000000" opacity="0.8">Back Deck Barry</text>

  <!-- Main text -->
  <text x="200" y="520" font-family="system-ui, -apple-system, sans-serif" font-size="24" font-weight="bold" text-anchor="middle" fill="#ffffff">Back Deck Barry</text>
  
  <!-- Rarity border -->
  <rect x="3" y="3" width="394" height="544"
        fill="none" stroke="#3b82f6" stroke-width="6" rx="8" ry="8" />
</svg>