<?xml version="1.0" encoding="UTF-8"?>
<svg xmlns="http://www.w3.org/2000/svg" viewBox="0 0 400 550" width="400" height="550">
  <defs>
    <linearGradient id="bg-gradient-060" x1="0%" y1="0%" x2="100%" y2="100%">
      <stop offset="0%" style="stop-color:#ef4444;stop-opacity:0.26" />
      <stop offset="50%" style="stop-color:#f97316;stop-opacity:0.4" />
      <stop offset="100%" style="stop-color:#ef4444;stop-opacity:0.26" />
    </linearGradient>
    
  <filter id="shadow-060">
    <feDropShadow dx="0" dy="2" stdDeviation="3" flood-opacity="0.8"/>
  </filter>
  </defs>
  <rect width="400" height="550" fill="url(#bg-gradient-0.19272686843760312)" />
  <g opacity="0.3"><polyline points="0,216.7 5,216.6 10,216.6 15,216.7 20,216.8 25,217.1 30,217.5 35,218.0 40,218.5 45,219.1 50,219.9 55,220.7 60,221.5 65,222.5 70,223.5 75,224.6 80,225.7 85,226.9 90,228.1 95,229.4 100,230.7 105,232.0 110,233.4 115,234.8 120,236.1 125,237.5 130,238.9 135,240.2 140,241.6 145,242.9 150,244.2 155,245.4 160,246.6 165,247.8 170,248.9 175,249.9 180,250.9 185,251.8 190,252.6 195,253.3 200,254.0 205,254.6 210,255.1 215,255.5 220,255.8 225,256.0 230,256.1 235,256.2 240,256.1 245,255.9 250,255.7 255,255.3 260,254.9 265,254.4 270,253.7 275,253.0 280,252.3 285,251.4 290,250.5 295,249.5 300,248.4 305,247.3 310,246.1 315,244.9 320,243.6 325,242.3 330,241.0 335,239.7 340,238.3 345,236.9 350,235.6 355,234.2 360,232.8 365,231.5 370,230.2 375,228.9 380,227.6 385,226.4 390,225.2 395,224.1 400,223.1" fill="none" stroke="#f97316" stroke-width="2.3" opacity="0.16" />
    <polyline points="0,279.1 5,276.5 10,274.0 15,271.8 20,269.8 25,268.2 30,266.9 35,265.9 40,265.3 45,265.1 50,265.3 55,265.8 60,266.7 65,267.9 70,269.5 75,271.4 80,273.6 85,276.0 90,278.7 95,281.4 100,284.4 105,287.4 110,290.4 115,293.4 120,296.3 125,299.2 130,301.9 135,304.3 140,306.6 145,308.6 150,310.3 155,311.6 160,312.6 165,313.2 170,313.5 175,313.4 180,312.9 185,312.0 190,310.8 195,309.3 200,307.4 205,305.3 210,302.9 215,300.2 220,297.5 225,294.6 230,291.6 235,288.5 240,285.5 245,282.6 250,279.7 255,277.0 260,274.5 265,272.2 270,270.2 275,268.5 280,267.1 285,266.1 290,265.4 295,265.1 300,265.2 305,265.6 310,266.5 315,267.6 320,269.2 325,271.0 330,273.1 335,275.5 340,278.1 345,280.8 350,283.7 355,286.7 360,289.8 365,292.8 370,295.7 375,298.6 380,301.3 385,303.8 390,306.1 395,308.2 400,309.9" fill="none" stroke="#f97316" stroke-width="2.1" opacity="0.12" />
    <polyline points="0,81.7 5,80.8 10,79.7 15,78.6 20,77.3 25,75.9 30,74.5 35,72.9 40,71.3 45,69.6 50,67.8 55,66.1 60,64.3 65,62.5 70,60.7 75,58.9 80,57.2 85,55.5 90,53.9 95,52.3 100,50.9 105,49.5 110,48.3 115,47.2 120,46.2 125,45.3 130,44.6 135,44.1 140,43.6 145,43.4 150,43.3 155,43.4 160,43.6 165,44.0 170,44.5 175,45.2 180,46.0 185,47.0 190,48.1 195,49.3 200,50.7 205,52.1 210,53.7 215,55.3 220,56.9 225,58.7 230,60.4 235,62.2 240,64.0 245,65.8 250,67.6 255,69.3 260,71.0 265,72.7 270,74.2 275,75.7 280,77.1 285,78.4 290,79.6 295,80.6 300,81.5 305,82.3 310,82.9 315,83.4 320,83.7 325,83.8 330,83.8 335,83.7 340,83.3 345,82.9 350,82.2 355,81.4 360,80.5 365,79.5 370,78.3 375,77.0 380,75.6 385,74.1 390,72.5 395,70.9 400,69.1" fill="none" stroke="#f97316" stroke-width="2.2" opacity="0.22" />
    <polyline points="0,387.6 5,385.4 10,383.0 15,380.5 20,377.9 25,375.3 30,372.6 35,369.9 40,367.2 45,364.6 50,362.1 55,359.7 60,357.4 65,355.3 70,353.5 75,351.8 80,350.3 85,349.1 90,348.2 95,347.5 100,347.1 105,347.0 110,347.2 115,347.7 120,348.4 125,349.5 130,350.7 135,352.3 140,354.0 145,356.0 150,358.1 155,360.4 160,362.9 165,365.4 170,368.0 175,370.7 180,373.4 185,376.1 190,378.7 195,381.3 200,383.8 205,386.1 210,388.3 215,390.3 220,392.1 225,393.7 230,395.0 235,396.1 240,396.9 245,397.4 250,397.7 255,397.6 260,397.3 265,396.7 270,395.8 275,394.7 280,393.3 285,391.6 290,389.8 295,387.7 300,385.5 305,383.1 310,380.6 315,378.0 320,375.4 325,372.7 330,370.0 335,367.3 340,364.7 345,362.2 350,359.8 355,357.5 360,355.4 365,353.5 370,351.8 375,350.4 380,349.2 385,348.2 390,347.5 395,347.1 400,347.0" fill="none" stroke="#ef4444" stroke-width="2.6" opacity="0.17" /></g>
  <rect x="149.3" y="467.8" width="52.7" height="52.7" fill="#f97316" opacity="0.26" />
    <rect x="32.2" y="340.7" width="61.6" height="61.6" fill="#fbbf24" opacity="0.34" />
    <polygon points="283.5,136.5 322.0,175.0 283.5,213.5 245.0,175.0" fill="#f97316" opacity="0.40" />
    <circle cx="108.8" cy="67.0" r="43.2" fill="#fbbf24" opacity="0.28" />
    <polygon points="305.3,468.2 324.1,487.1 305.3,506.0 286.4,487.1" fill="#fbbf24" opacity="0.34" />
  
  <!-- Text background banner -->
  <defs>
    <linearGradient id="text-bg-18" x1="0%" y1="0%" x2="100%" y2="0%">
      <stop offset="0%" style="stop-color:#000000;stop-opacity:0.7" />
      <stop offset="50%" style="stop-color:#ef4444;stop-opacity:0.4" />
      <stop offset="100%" style="stop-color:#000000;stop-opacity:0.7" />
    </linearGradient>
  </defs>
  <rect x="0" y="494" width="400" height="56" fill="url(#text-bg-18)" />

  <!-- Text shadow -->
  <text x="200" y="522" font-family="system-ui, -apple-system, sans-serif" font-size="24" font-weight="bold" text-anchor="middle" fill="#000000" opacity="0.8">Tongs-Clicking Tim</text>

  <!-- Main text -->
  <text x="200" y="520" font-family="system-ui, -apple-system, sans-serif" font-size="24" font-weight="bold" text-anchor="middle" fill="#ffffff">Tongs-Clicking Tim</text>
  
  <!-- Rarity border -->
  <rect x="2" y="2" width="396" height="546"
        fill="none" stroke="#9ca3af" stroke-width="4" rx="8" ry="8" />
</svg>