<?xml version="1.0" encoding="UTF-8"?>
<svg xmlns="http://www.w3.org/2000/svg" viewBox="0 0 400 550" width="400" height="550">
  <defs>
    <linearGradient id="bg-gradient-062" x1="0%" y1="0%" x2="100%" y2="100%">
      <stop offset="0%" style="stop-color:#ef4444;stop-opacity:0.26" />
      <stop offset="50%" style="stop-color:#f97316;stop-opacity:0.4" />
      <stop offset="100%" style="stop-color:#ef4444;stop-opacity:0.26" />
    </linearGradient>
    
  <filter id="shadow-062">
    <feDropShadow dx="0" dy="2" stdDeviation="3" flood-opacity="0.8"/>
  </filter>
  </defs>
  <rect width="400" height="550" fill="url(#bg-gradient-0.22263982496224344)" />
  <g opacity="0.3"><line x1="0" y1="463.5" x2="400" y2="463.5" stroke="#fbbf24" stroke-width="1.7" opacity="0.29" />
    <line x1="0" y1="421.6" x2="400" y2="421.6" stroke="#ef4444" stroke-width="2.7" opacity="0.13" />
    <line x1="192.0" y1="0" x2="192.0" y2="550" stroke="#fbbf24" stroke-width="1.6" opacity="0.29" />
    <line x1="0" y1="318.9" x2="400" y2="318.9" stroke="#ef4444" stroke-width="4.0" opacity="0.25" />
    <line x1="338.7" y1="0" x2="338.7" y2="550" stroke="#f97316" stroke-width="2.8" opacity="0.35" />
    <line x1="42.3" y1="0" x2="42.3" y2="550" stroke="#fbbf24" stroke-width="3.7" opacity="0.24" />
    <line x1="77.1" y1="0" x2="77.1" y2="550" stroke="#fbbf24" stroke-width="2.3" opacity="0.13" />
    <line x1="47.1" y1="0" x2="47.1" y2="550" stroke="#fbbf24" stroke-width="1.6" opacity="0.39" />
    <line x1="163.6" y1="0" x2="163.6" y2="550" stroke="#f97316" stroke-width="2.6" opacity="0.12" />
    <line x1="0" y1="152.3" x2="400" y2="152.3" stroke="#fbbf24" stroke-width="3.7" opacity="0.31" />
    <line x1="0" y1="538.9" x2="400" y2="538.9" stroke="#ef4444" stroke-width="3.3" opacity="0.39" />
    <line x1="0" y1="115.9" x2="400" y2="115.9" stroke="#ef4444" stroke-width="3.9" opacity="0.39" />
    <line x1="0" y1="475.8" x2="400" y2="475.8" stroke="#fbbf24" stroke-width="1.7" opacity="0.34" />
    <line x1="0" y1="259.4" x2="400" y2="259.4" stroke="#fbbf24" stroke-width="2.2" opacity="0.35" />
    <line x1="383.7" y1="0" x2="383.7" y2="550" stroke="#fbbf24" stroke-width="2.9" opacity="0.25" /></g>
  <polygon points="70.5,391.3 94.5,439.4 46.4,439.4" fill="#f97316" opacity="0.31" />
    <rect x="120.6" y="517.1" width="34.7" height="34.7" fill="#ef4444" opacity="0.21" />
    <rect x="150.2" y="63.5" width="73.7" height="73.7" fill="#ef4444" opacity="0.28" />
    <rect x="13.6" y="-4.3" width="66.4" height="66.4" fill="#f97316" opacity="0.38" />
    <rect x="242.2" y="200.4" width="59.1" height="59.1" fill="#fbbf24" opacity="0.13" />
    <polygon points="209.5,88.9 242.2,121.6 209.5,154.4 176.7,121.6" fill="#fbbf24" opacity="0.17" />
    <circle cx="174.6" cy="430.5" r="42.2" fill="#ef4444" opacity="0.28" />
    <polygon points="267.7,114.8 285.5,132.6 267.7,150.3 250.0,132.6" fill="#f97316" opacity="0.34" />
  
  <!-- Text background banner -->
  <defs>
    <linearGradient id="text-bg-16" x1="0%" y1="0%" x2="100%" y2="0%">
      <stop offset="0%" style="stop-color:#000000;stop-opacity:0.7" />
      <stop offset="50%" style="stop-color:#ef4444;stop-opacity:0.4" />
      <stop offset="100%" style="stop-color:#000000;stop-opacity:0.7" />
    </linearGradient>
  </defs>
  <rect x="0" y="494" width="400" height="56" fill="url(#text-bg-16)" />

  <!-- Text shadow -->
  <text x="200" y="522" font-family="system-ui, -apple-system, sans-serif" font-size="24" font-weight="bold" text-anchor="middle" fill="#000000" opacity="0.8">Charcoal Charlie</text>

  <!-- Main text -->
  <text x="200" y="520" font-family="system-ui, -apple-system, sans-serif" font-size="24" font-weight="bold" text-anchor="middle" fill="#ffffff">Charcoal Charlie</text>
  
  <!-- Rarity border -->
  <rect x="3" y="3" width="394" height="544"
        fill="none" stroke="#3b82f6" stroke-width="6" rx="8" ry="8" />
</svg>