<?xml version="1.0" encoding="UTF-8"?>
<svg xmlns="http://www.w3.org/2000/svg" viewBox="0 0 400 550" width="400" height="550">
  <defs>
    <linearGradient id="bg-gradient-063" x1="0%" y1="0%" x2="100%" y2="100%">
      <stop offset="0%" style="stop-color:#8b5cf6;stop-opacity:0.26" />
      <stop offset="50%" style="stop-color:#ec4899;stop-opacity:0.4" />
      <stop offset="100%" style="stop-color:#8b5cf6;stop-opacity:0.26" />
    </linearGradient>
    
  <filter id="shadow-063">
    <feDropShadow dx="0" dy="2" stdDeviation="3" flood-opacity="0.8"/>
  </filter>
  </defs>
  <rect width="400" height="550" fill="url(#bg-gradient-0.2326630325987935)" />
  <g opacity="0.3"><polyline points="0,357.4 5,358.9 10,360.5 15,362.1 20,363.6 25,365.0 30,366.4 35,367.7 40,368.8 45,369.8 50,370.7 55,371.4 60,372.0 65,372.4 70,372.6 75,372.6 80,372.4 85,372.1 90,371.6 95,370.9 100,370.1 105,369.1 110,368.0 115,366.8 120,365.4 125,364.0 130,362.5 135,361.0 140,359.4 145,357.9 150,356.3 155,354.8 160,353.3 165,351.9 170,350.6 175,349.4 180,348.4 185,347.4 190,346.7 195,346.0 200,345.6 205,345.3 210,345.3 215,345.3 220,345.6 225,346.1 230,346.7 235,347.5 240,348.4 245,349.5 250,350.7 255,352.0 260,353.4 265,354.8 270,356.4 275,357.9 280,359.5 285,361.1 290,362.6 295,364.1 300,365.5 305,366.8 310,368.1 315,369.2 320,370.2 325,371.0 330,371.6 335,372.1 340,372.5 345,372.6 350,372.6 355,372.4 360,372.0 365,371.4 370,370.7 375,369.8 380,368.8 385,367.6 390,366.3 395,365.0 400,363.5" fill="none" stroke="#8b5cf6" stroke-width="2.3" opacity="0.26" />
    <polyline points="0,119.5 5,116.8 10,114.0 15,111.2 20,108.5 25,105.8 30,103.1 35,100.5 40,98.0 45,95.6 50,93.4 55,91.2 60,89.2 65,87.3 70,85.6 75,84.1 80,82.7 85,81.6 90,80.6 95,79.8 100,79.2 105,78.9 110,78.7 115,78.8 120,79.1 125,79.6 130,80.3 135,81.1 140,82.2 145,83.5 150,85.0 155,86.6 160,88.4 165,90.4 170,92.5 175,94.7 180,97.1 185,99.5 190,102.1 195,104.7 200,107.4 205,110.1 210,112.9 215,115.7 220,118.4 225,121.2 230,123.9 235,126.6 240,129.2 245,131.7 250,134.1 255,136.4 260,138.6 265,140.7 270,142.6 275,144.3 280,145.9 285,147.3 290,148.5 295,149.5 300,150.3 305,151.0 310,151.4 315,151.6 320,151.5 325,151.3 330,150.9 335,150.2 340,149.4 345,148.3 350,147.1 355,145.7 360,144.1 365,142.3 370,140.4 375,138.3 380,136.1 385,133.8 390,131.4 395,128.8 400,126.2" fill="none" stroke="#f97316" stroke-width="2.7" opacity="0.12" />
    <polyline points="0,424.2 5,425.4 10,426.5 15,427.7 20,428.7 25,429.8 30,430.8 35,431.8 40,432.7 45,433.5 50,434.4 55,435.1 60,435.8 65,436.5 70,437.0 75,437.5 80,438.0 85,438.4 90,438.7 95,438.9 100,439.1 105,439.2 110,439.2 115,439.2 120,439.1 125,438.9 130,438.7 135,438.4 140,438.0 145,437.5 150,437.0 155,436.4 160,435.8 165,435.1 170,434.3 175,433.5 180,432.6 185,431.7 190,430.7 195,429.7 200,428.7 205,427.6 210,426.5 215,425.3 220,424.2 225,423.0 230,421.7 235,420.5 240,419.3 245,418.0 250,416.8 255,415.5 260,414.3 265,413.1 270,411.9 275,410.7 280,409.5 285,408.3 290,407.2 295,406.1 300,405.1 305,404.0 310,403.1 315,402.1 320,401.3 325,400.4 330,399.7 335,399.0 340,398.3 345,397.7 350,397.2 355,396.7 360,396.3 365,396.0 370,395.7 375,395.6 380,395.4 385,395.4 390,395.4 395,395.5 400,395.7" fill="none" stroke="#ec4899" stroke-width="2.1" opacity="0.18" />
    <polyline points="0,335.1 5,335.7 10,336.8 15,338.4 20,340.5 25,343.0 30,345.8 35,349.0 40,352.4 45,356.0 50,359.7 55,363.4 60,367.1 65,370.7 70,374.0 75,377.1 80,379.9 85,382.4 90,384.4 95,385.9 100,386.9 105,387.4 110,387.4 115,386.9 120,385.8 125,384.2 130,382.2 135,379.8 140,377.0 145,373.8 150,370.4 155,366.9 160,363.2 165,359.4 170,355.8 175,352.2 180,348.8 185,345.6 190,342.8 195,340.3 200,338.3 205,336.7 210,335.7 215,335.1 220,335.1 225,335.5 230,336.6 235,338.1 240,340.0 245,342.5 250,345.2 255,348.3 260,351.7 265,355.3 270,359.0 275,362.7 280,366.4 285,370.0 290,373.4 295,376.6 300,379.4 305,381.9 310,384.0 315,385.6 320,386.8 325,387.4 330,387.5 335,387.0 340,386.0 345,384.6 350,382.7 355,380.3 360,377.5 365,374.5 370,371.1 375,367.6 380,363.9 385,360.2 390,356.5 395,352.9 400,349.4" fill="none" stroke="#f97316" stroke-width="2.1" opacity="0.24" />
    <polyline points="0,493.3 5,492.0 10,490.6 15,489.1 20,487.7 25,486.3 30,484.9 35,483.5 40,482.2 45,481.0 50,479.8 55,478.6 60,477.6 65,476.7 70,475.8 75,475.1 80,474.5 85,474.0 90,473.7 95,473.4 100,473.4 105,473.4 110,473.6 115,473.9 120,474.3 125,474.9 130,475.6 135,476.4 140,477.3 145,478.3 150,479.4 155,480.6 160,481.8 165,483.1 170,484.5 175,485.9 180,487.3 185,488.7 190,490.1 195,491.5 200,492.9 205,494.3 210,495.5 215,496.8 220,497.9 225,499.0 230,500.0 235,500.8 240,501.6 245,502.2 250,502.8 255,503.2 260,503.4 265,503.6 270,503.6 275,503.4 280,503.2 285,502.8 290,502.2 295,501.6 300,500.8 305,499.9 310,499.0 315,497.9 320,496.8 325,495.5 330,494.2 335,492.9 340,491.5 345,490.1 350,488.7 355,487.3 360,485.9 365,484.5 370,483.1 375,481.8 380,480.6 385,479.4 390,478.3 395,477.3 400,476.4" fill="none" stroke="#8b5cf6" stroke-width="1.4" opacity="0.23" />
    <polyline points="0,257.0 5,256.5 10,255.8 15,255.0 20,254.0 25,252.9 30,251.7 35,250.4 40,249.0 45,247.5 50,245.9 55,244.3 60,242.6 65,240.9 70,239.1 75,237.4 80,235.7 85,233.9 90,232.3 95,230.7 100,229.1 105,227.6 110,226.2 115,225.0 120,223.8 125,222.7 130,221.8 135,221.0 140,220.4 145,219.9 150,219.6 155,219.4 160,219.4 165,219.6 170,219.9 175,220.3 180,220.9 185,221.7 190,222.6 195,223.6 200,224.8 205,226.0 210,227.4 215,228.9 220,230.4 225,232.0 230,233.7 235,235.4 240,237.1 245,238.9 250,240.6 255,242.3 260,244.0 265,245.7 270,247.3 275,248.8 280,250.2 285,251.5 290,252.8 295,253.9 300,254.8 305,255.7 310,256.4 315,256.9 320,257.3 325,257.6 330,257.6 335,257.6 340,257.3 345,256.9 350,256.4 355,255.7 360,254.9 365,253.9 370,252.8 375,251.6 380,250.3 385,248.8 390,247.3 395,245.7 400,244.1" fill="none" stroke="#ec4899" stroke-width="2.1" opacity="0.27" />
    <polyline points="0,456.9 5,455.6 10,454.6 15,454.1 20,454.0 25,454.4 30,455.1 35,456.3 40,457.9 45,459.8 50,462.2 55,464.8 60,467.8 65,471.0 70,474.4 75,478.0 80,481.8 85,485.6 90,489.5 95,493.4 100,497.2 105,501.0 110,504.6 115,508.0 120,511.2 125,514.1 130,516.7 135,519.0 140,520.9 145,522.4 150,523.6 155,524.3 160,524.6 165,524.4 170,523.9 175,522.9 180,521.5 185,519.7 190,517.5 195,515.0 200,512.2 205,509.1 210,505.8 215,502.3 220,498.6 225,494.8 230,490.9 235,487.0 240,483.1 245,479.3 250,475.7 255,472.2 260,468.9 265,465.8 270,463.1 275,460.6 280,458.5 285,456.8 290,455.5 295,454.6 300,454.1 305,454.0 310,454.4 315,455.2 320,456.4 325,458.0 330,460.0 335,462.4 340,465.0 345,468.0 350,471.2 355,474.7 360,478.3 365,482.1 370,485.9 375,489.8 380,493.7 385,497.5 390,501.3 395,504.9 400,508.3" fill="none" stroke="#ec4899" stroke-width="1.6" opacity="0.22" />
    <polyline points="0,425.9 5,426.2 10,426.6 15,427.2 20,428.0 25,429.0 30,430.1 35,431.4 40,432.8 45,434.3 50,436.0 55,437.8 60,439.6 65,441.6 70,443.6 75,445.7 80,447.8 85,449.9 90,452.0 95,454.1 100,456.2 105,458.2 110,460.2 115,462.1 120,463.9 125,465.6 130,467.1 135,468.6 140,469.9 145,471.0 150,472.0 155,472.9 160,473.5 165,474.0 170,474.3 175,474.4 180,474.3 185,474.0 190,473.6 195,473.0 200,472.2 205,471.2 210,470.0 215,468.8 220,467.3 225,465.8 230,464.1 235,462.3 240,460.4 245,458.5 250,456.4 255,454.4 260,452.3 265,450.2 270,448.0 275,445.9 280,443.9 285,441.8 290,439.9 295,438.0 300,436.2 305,434.5 310,433.0 315,431.5 320,430.2 325,429.1 330,428.1 335,427.3 340,426.7 345,426.2 350,426.0 355,425.9 360,426.0 365,426.3 370,426.7 375,427.4 380,428.2 385,429.2 390,430.3 395,431.6 400,433.1" fill="none" stroke="#8b5cf6" stroke-width="2.9" opacity="0.27" /></g>
  <polygon points="227.1,166.4 273.3,258.8 181.0,258.8" fill="#8b5cf6" opacity="0.25" />
    <circle cx="168.9" cy="446.2" r="26.3" fill="#f97316" opacity="0.25" />
    <rect x="19.8" y="287.3" width="23.6" height="23.6" fill="#8b5cf6" opacity="0.13" />
    <rect x="67.3" y="109.8" width="88.1" height="88.1" fill="#8b5cf6" opacity="0.20" />
    <rect x="322.8" y="408.5" width="91.1" height="91.1" fill="#ec4899" opacity="0.33" />
    <rect x="346.9" y="101.0" width="57.4" height="57.4" fill="#f97316" opacity="0.29" />
    <polygon points="104.4,386.0 145.4,427.0 104.4,467.9 63.4,427.0" fill="#ec4899" opacity="0.23" />
    <polygon points="1.4,388.2 17.9,421.1 -15.0,421.1" fill="#f97316" opacity="0.36" />
    <rect x="108.5" y="54.8" width="55.2" height="55.2" fill="#ec4899" opacity="0.29" />
    <circle cx="148.8" cy="512.1" r="42.6" fill="#ec4899" opacity="0.25" />
    <rect x="152.5" y="457.2" width="51.7" height="51.7" fill="#8b5cf6" opacity="0.23" />
  
  <!-- Text background banner -->
  <defs>
    <linearGradient id="text-bg-14" x1="0%" y1="0%" x2="100%" y2="0%">
      <stop offset="0%" style="stop-color:#000000;stop-opacity:0.7" />
      <stop offset="50%" style="stop-color:#8b5cf6;stop-opacity:0.4" />
      <stop offset="100%" style="stop-color:#000000;stop-opacity:0.7" />
    </linearGradient>
  </defs>
  <rect x="0" y="494" width="400" height="56" fill="url(#text-bg-14)" />

  <!-- Text shadow -->
  <text x="200" y="522" font-family="system-ui, -apple-system, sans-serif" font-size="24" font-weight="bold" text-anchor="middle" fill="#000000" opacity="0.8">Cornhole Chris</text>

  <!-- Main text -->
  <text x="200" y="520" font-family="system-ui, -apple-system, sans-serif" font-size="24" font-weight="bold" text-anchor="middle" fill="#ffffff">Cornhole Chris</text>
  
  <!-- Rarity border -->
  <rect x="4" y="4" width="392" height="542"
        fill="none" stroke="#eab308" stroke-width="8" rx="8" ry="8" />
</svg>