<?xml version="1.0" encoding="UTF-8"?>
<svg xmlns="http://www.w3.org/2000/svg" viewBox="0 0 400 550" width="400" height="550">
  <defs>
    <linearGradient id="bg-gradient-064" x1="0%" y1="0%" x2="100%" y2="100%">
      <stop offset="0%" style="stop-color:#8b5cf6;stop-opacity:0.26" />
      <stop offset="50%" style="stop-color:#ec4899;stop-opacity:0.4" />
      <stop offset="100%" style="stop-color:#8b5cf6;stop-opacity:0.26" />
    </linearGradient>
    
  <filter id="shadow-064">
    <feDropShadow dx="0" dy="2" stdDeviation="3" flood-opacity="0.8"/>
  </filter>
  </defs>
  <rect width="400" height="550" fill="url(#bg-gradient-0.35133182001300156)" />
  <g opacity="0.3"><polyline points="0,197.8 5,201.2 10,204.4 15,207.3 20,209.8 25,211.9 30,213.6 35,214.9 40,215.6 45,215.9 50,215.6 55,214.9 60,213.6 65,211.9 70,209.8 75,207.2 80,204.4 85,201.2 90,197.8 95,194.2 100,190.5 105,186.7 110,183.0 115,179.4 120,175.9 125,172.6 130,169.7 135,167.0 140,164.8 145,162.9 150,161.5 155,160.6 160,160.2 165,160.3 170,161.0 175,162.0 180,163.6 185,165.6 190,168.0 195,170.8 200,173.9 205,177.3 210,180.8 215,184.5 220,188.2 225,192.0 230,195.6 235,199.2 240,202.5 245,205.6 250,208.3 255,210.7 260,212.7 265,214.2 270,215.2 275,215.8 280,215.8 285,215.4 290,214.4 295,213.0 300,211.1 305,208.8 310,206.2 315,203.2 320,199.9 325,196.4 330,192.7 335,189.0 340,185.3 345,181.6 350,178.0 355,174.6 360,171.4 365,168.6 370,166.1 375,164.0 380,162.3 385,161.1 390,160.4 395,160.2 400,160.5" fill="none" stroke="#8b5cf6" stroke-width="1.5" opacity="0.13" />
    <polyline points="0,496.3 5,498.2 10,500.3 15,502.4 20,504.7 25,507.1 30,509.5 35,511.9 40,514.3 45,516.8 50,519.1 55,521.4 60,523.6 65,525.6 70,527.5 75,529.2 80,530.7 85,532.0 90,533.1 95,533.9 100,534.5 105,534.9 110,535.0 115,534.8 120,534.4 125,533.7 130,532.8 135,531.6 140,530.2 145,528.6 150,526.9 155,524.9 160,522.9 165,520.6 170,518.3 175,516.0 180,513.5 185,511.1 190,508.7 195,506.3 200,503.9 205,501.7 210,499.6 215,497.6 220,495.7 225,494.1 230,492.7 235,491.4 240,490.4 245,489.6 250,489.1 255,488.9 260,488.9 265,489.1 270,489.6 275,490.4 280,491.4 285,492.6 290,494.1 295,495.7 300,497.6 305,499.5 310,501.7 315,503.9 320,506.2 325,508.6 330,511.1 335,513.5 340,515.9 345,518.3 350,520.6 355,522.8 360,524.9 365,526.8 370,528.6 375,530.2 380,531.6 385,532.7 390,533.7 395,534.4 400,534.8" fill="none" stroke="#ec4899" stroke-width="2.0" opacity="0.17" />
    <polyline points="0,142.0 5,141.0 10,139.9 15,138.9 20,137.8 25,136.8 30,135.8 35,134.8 40,133.9 45,132.9 50,132.0 55,131.2 60,130.3 65,129.5 70,128.7 75,128.0 80,127.3 85,126.7 90,126.1 95,125.5 100,125.0 105,124.6 110,124.2 115,123.8 120,123.5 125,123.3 130,123.1 135,122.9 140,122.9 145,122.8 150,122.9 155,122.9 160,123.1 165,123.3 170,123.5 175,123.8 180,124.2 185,124.6 190,125.0 195,125.5 200,126.1 205,126.7 210,127.3 215,128.0 220,128.8 225,129.5 230,130.3 235,131.2 240,132.0 245,132.9 250,133.9 255,134.8 260,135.8 265,136.8 270,137.9 275,138.9 280,139.9 285,141.0 290,142.1 295,143.1 300,144.2 305,145.3 310,146.3 315,147.4 320,148.5 325,149.5 330,150.5 335,151.5 340,152.5 345,153.4 350,154.4 355,155.3 360,156.1 365,157.0 370,157.8 375,158.5 380,159.3 385,160.0 390,160.6 395,161.2 400,161.7" fill="none" stroke="#f97316" stroke-width="1.5" opacity="0.12" />
    <polyline points="0,226.5 5,228.7 10,230.9 15,233.0 20,235.2 25,237.4 30,239.5 35,241.6 40,243.6 45,245.6 50,247.4 55,249.1 60,250.7 65,252.2 70,253.5 75,254.7 80,255.7 85,256.5 90,257.2 95,257.7 100,258.0 105,258.1 110,258.0 115,257.7 120,257.2 125,256.6 130,255.8 135,254.8 140,253.6 145,252.3 150,250.8 155,249.2 160,247.5 165,245.7 170,243.8 175,241.8 180,239.7 185,237.5 190,235.4 195,233.2 200,231.0 205,228.8 210,226.7 215,224.6 220,222.6 225,220.6 230,218.7 235,216.9 240,215.3 245,213.8 250,212.4 255,211.2 260,210.1 265,209.2 270,208.5 275,207.9 280,207.6 285,207.4 290,207.4 295,207.6 300,208.0 305,208.6 310,209.4 315,210.3 320,211.4 325,212.7 330,214.1 335,215.6 340,217.3 345,219.1 350,221.0 355,223.0 360,225.0 365,227.1 370,229.3 375,231.5 380,233.6 385,235.8 390,238.0 395,240.1 400,242.2" fill="none" stroke="#ec4899" stroke-width="1.3" opacity="0.12" />
    <polyline points="0,65.6 5,66.0 10,66.7 15,67.6 20,68.7 25,70.0 30,71.4 35,73.1 40,74.8 45,76.7 50,78.7 55,80.8 60,82.9 65,85.1 70,87.3 75,89.4 80,91.5 85,93.6 90,95.5 95,97.4 100,99.1 105,100.7 110,102.0 115,103.3 120,104.3 125,105.1 130,105.7 135,106.0 140,106.1 145,106.0 150,105.7 155,105.2 160,104.4 165,103.4 170,102.2 175,100.8 180,99.3 185,97.6 190,95.8 195,93.8 200,91.8 205,89.7 210,87.5 215,85.4 220,83.2 225,81.1 230,79.0 235,77.0 240,75.1 245,73.3 250,71.6 255,70.2 260,68.8 265,67.7 270,66.8 275,66.1 280,65.6 285,65.4 290,65.3 295,65.6 300,66.0 305,66.6 310,67.5 315,68.6 320,69.9 325,71.3 330,72.9 335,74.7 340,76.6 345,78.6 350,80.6 355,82.8 360,84.9 365,87.1 370,89.2 375,91.4 380,93.4 385,95.4 390,97.2 395,99.0 400,100.5" fill="none" stroke="#f97316" stroke-width="1.0" opacity="0.29" />
    <polyline points="0,55.5 5,56.4 10,57.9 15,59.8 20,62.3 25,65.1 30,68.2 35,71.7 40,75.4 45,79.2 50,83.1 55,87.1 60,90.9 65,94.6 70,98.0 75,101.2 80,104.0 85,106.4 90,108.3 95,109.8 100,110.7 105,111.1 110,110.9 115,110.2 120,109.0 125,107.2 130,105.0 135,102.4 140,99.3 145,96.0 150,92.4 155,88.6 160,84.7 165,80.8 170,76.9 175,73.2 180,69.6 185,66.3 190,63.3 195,60.8 200,58.6 205,57.0 210,55.8 215,55.2 220,55.1 225,55.6 230,56.6 235,58.1 240,60.2 245,62.6 250,65.5 255,68.7 260,72.2 265,75.9 270,79.8 275,83.7 280,87.6 285,91.4 290,95.1 295,98.5 300,101.6 305,104.4 310,106.7 315,108.6 320,109.9 325,110.8 330,111.1 335,110.9 340,110.1 345,108.7 350,106.9 355,104.6 360,101.9 365,98.9 370,95.5 375,91.8 380,88.0 385,84.1 390,80.2 395,76.4 400,72.6" fill="none" stroke="#ec4899" stroke-width="1.0" opacity="0.17" /></g>
  <rect x="287.2" y="495.7" width="33.1" height="33.1" fill="#8b5cf6" opacity="0.21" />
    <polygon points="350.0,68.1 389.8,107.9 350.0,147.7 310.2,107.9" fill="#8b5cf6" opacity="0.19" />
    <rect x="371.1" y="512.6" width="29.6" height="29.6" fill="#ec4899" opacity="0.30" />
    <rect x="337.6" y="160.5" width="25.5" height="25.5" fill="#8b5cf6" opacity="0.26" />
    <polygon points="141.2,-5.6 170.5,52.9 111.9,52.9" fill="#ec4899" opacity="0.37" />
    <rect x="244.5" y="292.8" width="50.4" height="50.4" fill="#f97316" opacity="0.24" />
    <polygon points="146.0,-2.2 187.5,80.6 104.6,80.6" fill="#f97316" opacity="0.15" />
    <rect x="60.6" y="477.7" width="89.4" height="89.4" fill="#ec4899" opacity="0.35" />
  
  <!-- Text background banner -->
  <defs>
    <linearGradient id="text-bg-17" x1="0%" y1="0%" x2="100%" y2="0%">
      <stop offset="0%" style="stop-color:#000000;stop-opacity:0.7" />
      <stop offset="50%" style="stop-color:#8b5cf6;stop-opacity:0.4" />
      <stop offset="100%" style="stop-color:#000000;stop-opacity:0.7" />
    </linearGradient>
  </defs>
  <rect x="0" y="494" width="400" height="56" fill="url(#text-bg-17)" />

  <!-- Text shadow -->
  <text x="200" y="522" font-family="system-ui, -apple-system, sans-serif" font-size="24" font-weight="bold" text-anchor="middle" fill="#000000" opacity="0.8">Ladder Ball Larry</text>

  <!-- Main text -->
  <text x="200" y="520" font-family="system-ui, -apple-system, sans-serif" font-size="24" font-weight="bold" text-anchor="middle" fill="#ffffff">Ladder Ball Larry</text>
  
  <!-- Rarity border -->
  <rect x="3" y="3" width="394" height="544"
        fill="none" stroke="#3b82f6" stroke-width="6" rx="8" ry="8" />
</svg>