<?xml version="1.0" encoding="UTF-8"?>
<svg xmlns="http://www.w3.org/2000/svg" viewBox="0 0 400 550" width="400" height="550">
  <defs>
    <linearGradient id="bg-gradient-066" x1="0%" y1="0%" x2="100%" y2="100%">
      <stop offset="0%" style="stop-color:#f97316;stop-opacity:0.26" />
      <stop offset="50%" style="stop-color:#ef4444;stop-opacity:0.4" />
      <stop offset="100%" style="stop-color:#f97316;stop-opacity:0.26" />
    </linearGradient>
    
  <filter id="shadow-066">
    <feDropShadow dx="0" dy="2" stdDeviation="3" flood-opacity="0.8"/>
  </filter>
  </defs>
  <rect width="400" height="550" fill="url(#bg-gradient-0.4752543675713241)" />
  <g opacity="0.3"><polyline points="0,223.9 5,224.9 10,226.0 15,227.0 20,228.1 25,229.2 30,230.3 35,231.4 40,232.4 45,233.5 50,234.5 55,235.6 60,236.6 65,237.5 70,238.5 75,239.3 80,240.2 85,241.0 90,241.7 95,242.4 100,243.0 105,243.6 110,244.1 115,244.6 120,244.9 125,245.2 130,245.5 135,245.6 140,245.7 145,245.7 150,245.6 155,245.5 160,245.3 165,245.0 170,244.7 175,244.2 180,243.7 185,243.2 190,242.6 195,241.9 200,241.2 205,240.4 210,239.5 215,238.7 220,237.7 225,236.8 230,235.8 235,234.8 240,233.7 245,232.7 250,231.6 255,230.5 260,229.4 265,228.3 270,227.3 275,226.2 280,225.2 285,224.1 290,223.1 295,222.2 300,221.2 305,220.3 310,219.5 315,218.7 320,217.9 325,217.2 330,216.6 335,216.0 340,215.5 345,215.1 350,214.7 355,214.4 360,214.2 365,214.0 370,213.9 375,213.9 380,214.0 385,214.1 390,214.3 395,214.6 400,214.9" fill="none" stroke="#fbbf24" stroke-width="2.7" opacity="0.10" />
    <polyline points="0,417.8 5,419.0 10,420.3 15,421.6 20,423.1 25,424.5 30,426.0 35,427.4 40,428.8 45,430.2 50,431.4 55,432.5 60,433.5 65,434.4 70,435.1 75,435.6 80,435.9 85,436.1 90,436.0 95,435.8 100,435.4 105,434.8 110,434.1 115,433.2 120,432.1 125,430.9 130,429.6 135,428.3 140,426.9 145,425.4 150,424.0 155,422.5 160,421.1 165,419.7 170,418.5 175,417.3 180,416.3 185,415.4 190,414.6 195,414.1 200,413.7 205,413.5 210,413.4 215,413.6 220,414.0 225,414.5 230,415.2 235,416.1 240,417.1 245,418.2 250,419.5 255,420.8 260,422.2 265,423.7 270,425.1 275,426.6 280,428.0 285,429.4 290,430.7 295,431.9 300,432.9 305,433.9 310,434.7 315,435.3 320,435.7 325,436.0 330,436.1 335,436.0 340,435.7 345,435.2 350,434.5 355,433.7 360,432.7 365,431.6 370,430.4 375,429.1 380,427.7 385,426.3 390,424.8 395,423.4 400,421.9" fill="none" stroke="#fbbf24" stroke-width="1.7" opacity="0.25" />
    <polyline points="0,370.5 5,369.3 10,368.2 15,367.2 20,366.2 25,365.3 30,364.5 35,363.8 40,363.2 45,362.7 50,362.3 55,362.1 60,361.9 65,361.9 70,362.0 75,362.2 80,362.5 85,363.0 90,363.5 95,364.2 100,365.0 105,365.8 110,366.7 115,367.8 120,368.8 125,370.0 130,371.2 135,372.4 140,373.7 145,375.0 150,376.3 155,377.6 160,378.9 165,380.1 170,381.4 175,382.6 180,383.7 185,384.8 190,385.8 195,386.7 200,387.5 205,388.2 210,388.9 215,389.4 220,389.8 225,390.1 230,390.3 235,390.4 240,390.3 245,390.1 250,389.8 255,389.4 260,388.9 265,388.3 270,387.6 275,386.7 280,385.8 285,384.8 290,383.8 295,382.6 300,381.5 305,380.2 310,379.0 315,377.7 320,376.4 325,375.1 330,373.8 335,372.5 340,371.3 345,370.1 350,368.9 355,367.8 360,366.8 365,365.9 370,365.0 375,364.2 380,363.6 385,363.0 390,362.6 395,362.2 400,362.0" fill="none" stroke="#ef4444" stroke-width="1.7" opacity="0.10" />
    <polyline points="0,488.4 5,487.9 10,487.0 15,485.6 20,483.8 25,481.7 30,479.2 35,476.4 40,473.4 45,470.1 50,466.8 55,463.4 60,459.9 65,456.5 70,453.2 75,450.1 80,447.2 85,444.6 90,442.3 95,440.3 100,438.8 105,437.7 110,437.0 115,436.8 120,437.0 125,437.8 130,438.9 135,440.5 140,442.4 145,444.8 150,447.4 155,450.3 160,453.5 165,456.8 170,460.2 175,463.6 180,467.0 185,470.4 190,473.6 195,476.6 200,479.4 205,481.8 210,484.0 215,485.7 220,487.0 225,487.9 230,488.4 235,488.4 240,487.9 245,486.9 250,485.6 255,483.8 260,481.7 265,479.2 270,476.4 275,473.4 280,470.1 285,466.8 290,463.3 295,459.9 300,456.5 305,453.2 310,450.1 315,447.2 320,444.6 325,442.3 330,440.3 335,438.8 340,437.7 345,437.0 350,436.8 355,437.1 360,437.8 365,438.9 370,440.5 375,442.4 380,444.8 385,447.4 390,450.3 395,453.5 400,456.8" fill="none" stroke="#fbbf24" stroke-width="2.3" opacity="0.19" /></g>
  <circle cx="140.6" cy="267.4" r="34.8" fill="#f97316" opacity="0.11" />
    <polygon points="118.4,9.8 138.0,29.3 118.4,48.9 98.9,29.3" fill="#f97316" opacity="0.20" />
    <circle cx="147.4" cy="524.1" r="34.3" fill="#ef4444" opacity="0.14" />
    <rect x="295.8" y="322.8" width="98.4" height="98.4" fill="#fbbf24" opacity="0.23" />
    <rect x="312.6" y="199.1" width="81.8" height="81.8" fill="#f97316" opacity="0.18" />
  
  <!-- Text background banner -->
  <defs>
    <linearGradient id="text-bg-20" x1="0%" y1="0%" x2="100%" y2="0%">
      <stop offset="0%" style="stop-color:#000000;stop-opacity:0.7" />
      <stop offset="50%" style="stop-color:#f97316;stop-opacity:0.4" />
      <stop offset="100%" style="stop-color:#000000;stop-opacity:0.7" />
    </linearGradient>
  </defs>
  <rect x="0" y="494" width="400" height="56" fill="url(#text-bg-20)" />

  <!-- Text shadow -->
  <text x="200" y="522" font-family="system-ui, -apple-system, sans-serif" font-size="24" font-weight="bold" text-anchor="middle" fill="#000000" opacity="0.8">Water Balloon Walter</text>

  <!-- Main text -->
  <text x="200" y="520" font-family="system-ui, -apple-system, sans-serif" font-size="24" font-weight="bold" text-anchor="middle" fill="#ffffff">Water Balloon Walter</text>
  
  <!-- Rarity border -->
  <rect x="2" y="2" width="396" height="546"
        fill="none" stroke="#9ca3af" stroke-width="4" rx="8" ry="8" />
</svg>