<?xml version="1.0" encoding="UTF-8"?>
<svg xmlns="http://www.w3.org/2000/svg" viewBox="0 0 400 550" width="400" height="550">
  <defs>
    <linearGradient id="bg-gradient-068" x1="0%" y1="0%" x2="100%" y2="100%">
      <stop offset="0%" style="stop-color:#64748b;stop-opacity:0.26" />
      <stop offset="50%" style="stop-color:#94a3b8;stop-opacity:0.4" />
      <stop offset="100%" style="stop-color:#64748b;stop-opacity:0.26" />
    </linearGradient>
    
  <filter id="shadow-068">
    <feDropShadow dx="0" dy="2" stdDeviation="3" flood-opacity="0.8"/>
  </filter>
  </defs>
  <rect width="400" height="550" fill="url(#bg-gradient-0.32842677761800587)" />
  <g opacity="0.3"><rect x="339.4" y="180.0" width="68.3" height="68.3" fill="none" stroke="#fbbf24" stroke-width="2.6" opacity="0.20" />
    <rect x="-10.4" y="378.8" width="60.2" height="60.2" fill="none" stroke="#94a3b8" stroke-width="1.5" opacity="0.21" />
    <rect x="314.4" y="102.2" width="65.6" height="65.6" fill="none" stroke="#64748b" stroke-width="2.8" opacity="0.24" />
    <circle cx="188.3" cy="7.9" r="38.0" fill="none" stroke="#64748b" stroke-width="1.0" opacity="0.17" />
    <circle cx="160.5" cy="163.9" r="19.6" fill="none" stroke="#fbbf24" stroke-width="2.7" opacity="0.26" /></g>
  <polygon points="41.3,508.5 75.0,576.1 7.5,576.1" fill="#94a3b8" opacity="0.22" />
    <circle cx="11.4" cy="44.9" r="38.9" fill="#fbbf24" opacity="0.23" />
    <rect x="274.0" y="173.8" width="64.2" height="64.2" fill="#fbbf24" opacity="0.16" />
    <polygon points="375.0,117.6 416.8,159.4 375.0,201.3 333.1,159.4" fill="#64748b" opacity="0.24" />
    <circle cx="372.9" cy="263.0" r="13.7" fill="#94a3b8" opacity="0.39" />
  
  <!-- Text background banner -->
  <defs>
    <linearGradient id="text-bg-13" x1="0%" y1="0%" x2="100%" y2="0%">
      <stop offset="0%" style="stop-color:#000000;stop-opacity:0.7" />
      <stop offset="50%" style="stop-color:#64748b;stop-opacity:0.4" />
      <stop offset="100%" style="stop-color:#000000;stop-opacity:0.7" />
    </linearGradient>
  </defs>
  <rect x="0" y="494" width="400" height="56" fill="url(#text-bg-13)" />

  <!-- Text shadow -->
  <text x="200" y="522" font-family="system-ui, -apple-system, sans-serif" font-size="24" font-weight="bold" text-anchor="middle" fill="#000000" opacity="0.8">Citronella Cy</text>

  <!-- Main text -->
  <text x="200" y="520" font-family="system-ui, -apple-system, sans-serif" font-size="24" font-weight="bold" text-anchor="middle" fill="#ffffff">Citronella Cy</text>
  
  <!-- Rarity border -->
  <rect x="2" y="2" width="396" height="546"
        fill="none" stroke="#9ca3af" stroke-width="4" rx="8" ry="8" />
</svg>