<?xml version="1.0" encoding="UTF-8"?>
<svg xmlns="http://www.w3.org/2000/svg" viewBox="0 0 400 550" width="400" height="550">
  <defs>
    <linearGradient id="bg-gradient-069" x1="0%" y1="0%" x2="100%" y2="100%">
      <stop offset="0%" style="stop-color:#22c55e;stop-opacity:0.26" />
      <stop offset="50%" style="stop-color:#16a34a;stop-opacity:0.4" />
      <stop offset="100%" style="stop-color:#22c55e;stop-opacity:0.26" />
    </linearGradient>
    
  <filter id="shadow-069">
    <feDropShadow dx="0" dy="2" stdDeviation="3" flood-opacity="0.8"/>
  </filter>
  </defs>
  <rect width="400" height="550" fill="url(#bg-gradient-0.380560046993196)" />
  <g opacity="0.3"><circle cx="3.3" cy="4.7" r="4" fill="#22c55e" />
    <circle cx="2.7" cy="32.4" r="4" fill="#22c55e" />
    <circle cx="9.0" cy="90.3" r="4" fill="#22c55e" />
    <circle cx="1.2" cy="120.6" r="4" fill="#84cc16" />
    <circle cx="8.7" cy="184.3" r="4" fill="#84cc16" />
    <circle cx="1.4" cy="212.3" r="4" fill="#22c55e" />
    <circle cx="6.3" cy="240.2" r="4" fill="#22c55e" />
    <circle cx="4.1" cy="279.9" r="4" fill="#16a34a" />
    <circle cx="5.5" cy="334.4" r="4" fill="#16a34a" />
    <circle cx="0.5" cy="368.8" r="4" fill="#16a34a" />
    <circle cx="9.2" cy="390.5" r="4" fill="#84cc16" />
    <circle cx="8.9" cy="423.5" r="4" fill="#16a34a" />
    <circle cx="2.6" cy="456.2" r="4" fill="#22c55e" />
    <circle cx="3.0" cy="486.1" r="4" fill="#16a34a" />
    <circle cx="2.2" cy="515.7" r="4" fill="#16a34a" />
    <circle cx="4.1" cy="541.8" r="4" fill="#22c55e" />
    <circle cx="37.4" cy="2.4" r="4" fill="#22c55e" />
    <circle cx="35.5" cy="38.1" r="4" fill="#22c55e" />
    <circle cx="38.3" cy="92.2" r="4" fill="#16a34a" />
    <circle cx="30.9" cy="185.3" r="4" fill="#22c55e" />
    <circle cx="31.1" cy="213.4" r="4" fill="#16a34a" />
    <circle cx="39.0" cy="272.6" r="4" fill="#22c55e" />
    <circle cx="34.0" cy="367.2" r="4" fill="#84cc16" />
    <circle cx="35.0" cy="390.5" r="4" fill="#22c55e" />
    <circle cx="37.4" cy="455.0" r="4" fill="#84cc16" />
    <circle cx="34.5" cy="511.1" r="4" fill="#84cc16" />
    <circle cx="65.7" cy="32.1" r="4" fill="#84cc16" />
    <circle cx="62.8" cy="66.3" r="4" fill="#16a34a" />
    <circle cx="62.5" cy="97.0" r="4" fill="#84cc16" />
    <circle cx="63.2" cy="130.0" r="4" fill="#22c55e" />
    <circle cx="67.9" cy="157.4" r="4" fill="#16a34a" />
    <circle cx="62.7" cy="187.2" r="4" fill="#16a34a" />
    <circle cx="61.3" cy="394.4" r="4" fill="#16a34a" />
    <circle cx="64.5" cy="427.2" r="4" fill="#84cc16" />
    <circle cx="65.1" cy="458.6" r="4" fill="#16a34a" />
    <circle cx="60.8" cy="486.3" r="4" fill="#16a34a" />
    <circle cx="65.9" cy="518.0" r="4" fill="#22c55e" />
    <circle cx="68.2" cy="545.2" r="4" fill="#84cc16" />
    <circle cx="99.4" cy="8.1" r="4" fill="#84cc16" />
    <circle cx="91.8" cy="36.6" r="4" fill="#84cc16" />
    <circle cx="96.2" cy="69.9" r="4" fill="#84cc16" />
    <circle cx="97.6" cy="98.6" r="4" fill="#16a34a" />
    <circle cx="94.4" cy="125.7" r="4" fill="#22c55e" />
    <circle cx="90.4" cy="187.2" r="4" fill="#16a34a" />
    <circle cx="91.1" cy="216.9" r="4" fill="#84cc16" />
    <circle cx="99.3" cy="272.8" r="4" fill="#16a34a" />
    <circle cx="95.3" cy="338.2" r="4" fill="#16a34a" />
    <circle cx="94.3" cy="363.6" r="4" fill="#22c55e" />
    <circle cx="95.0" cy="452.7" r="4" fill="#84cc16" />
    <circle cx="125.2" cy="5.9" r="4" fill="#16a34a" />
    <circle cx="125.2" cy="34.2" r="4" fill="#16a34a" />
    <circle cx="122.8" cy="62.7" r="4" fill="#84cc16" />
    <circle cx="125.8" cy="99.3" r="4" fill="#22c55e" />
    <circle cx="120.9" cy="122.2" r="4" fill="#84cc16" />
    <circle cx="126.0" cy="247.4" r="4" fill="#22c55e" />
    <circle cx="120.2" cy="274.9" r="4" fill="#16a34a" />
    <circle cx="124.7" cy="301.9" r="4" fill="#22c55e" />
    <circle cx="128.2" cy="338.5" r="4" fill="#84cc16" />
    <circle cx="129.5" cy="360.7" r="4" fill="#84cc16" />
    <circle cx="127.5" cy="425.1" r="4" fill="#84cc16" />
    <circle cx="125.8" cy="458.4" r="4" fill="#84cc16" />
    <circle cx="157.0" cy="6.7" r="4" fill="#84cc16" />
    <circle cx="153.6" cy="38.5" r="4" fill="#22c55e" />
    <circle cx="157.2" cy="61.4" r="4" fill="#16a34a" />
    <circle cx="154.6" cy="97.6" r="4" fill="#16a34a" />
    <circle cx="152.7" cy="157.0" r="4" fill="#16a34a" />
    <circle cx="153.6" cy="188.5" r="4" fill="#16a34a" />
    <circle cx="155.8" cy="217.2" r="4" fill="#16a34a" />
    <circle cx="156.0" cy="244.4" r="4" fill="#16a34a" />
    <circle cx="156.4" cy="307.5" r="4" fill="#16a34a" />
    <circle cx="154.2" cy="336.6" r="4" fill="#16a34a" />
    <circle cx="158.7" cy="362.3" r="4" fill="#22c55e" />
    <circle cx="150.7" cy="395.0" r="4" fill="#22c55e" />
    <circle cx="159.0" cy="428.7" r="4" fill="#16a34a" />
    <circle cx="155.8" cy="453.8" r="4" fill="#22c55e" />
    <circle cx="152.4" cy="519.3" r="4" fill="#16a34a" />
    <circle cx="156.7" cy="542.1" r="4" fill="#16a34a" />
    <circle cx="184.5" cy="1.0" r="4" fill="#22c55e" />
    <circle cx="186.3" cy="98.5" r="4" fill="#84cc16" />
    <circle cx="184.0" cy="121.3" r="4" fill="#84cc16" />
    <circle cx="182.6" cy="159.6" r="4" fill="#16a34a" />
    <circle cx="188.5" cy="187.4" r="4" fill="#16a34a" />
    <circle cx="184.6" cy="243.3" r="4" fill="#22c55e" />
    <circle cx="185.7" cy="279.4" r="4" fill="#16a34a" />
    <circle cx="183.8" cy="333.2" r="4" fill="#84cc16" />
    <circle cx="185.5" cy="427.0" r="4" fill="#22c55e" />
    <circle cx="182.1" cy="458.9" r="4" fill="#16a34a" />
    <circle cx="183.7" cy="485.3" r="4" fill="#84cc16" />
    <circle cx="184.4" cy="516.6" r="4" fill="#16a34a" />
    <circle cx="211.8" cy="7.5" r="4" fill="#84cc16" />
    <circle cx="212.9" cy="38.1" r="4" fill="#84cc16" />
    <circle cx="213.1" cy="61.1" r="4" fill="#84cc16" />
    <circle cx="218.1" cy="96.3" r="4" fill="#22c55e" />
    <circle cx="215.7" cy="180.2" r="4" fill="#84cc16" />
    <circle cx="217.8" cy="210.9" r="4" fill="#84cc16" />
    <circle cx="210.8" cy="279.3" r="4" fill="#84cc16" />
    <circle cx="219.6" cy="306.7" r="4" fill="#22c55e" />
    <circle cx="214.7" cy="330.3" r="4" fill="#22c55e" />
    <circle cx="214.9" cy="368.6" r="4" fill="#22c55e" />
    <circle cx="217.1" cy="395.1" r="4" fill="#16a34a" />
    <circle cx="210.1" cy="425.2" r="4" fill="#84cc16" />
    <circle cx="217.8" cy="459.7" r="4" fill="#84cc16" />
    <circle cx="211.7" cy="483.3" r="4" fill="#16a34a" />
    <circle cx="247.1" cy="9.4" r="4" fill="#22c55e" />
    <circle cx="240.6" cy="38.8" r="4" fill="#16a34a" />
    <circle cx="243.4" cy="64.0" r="4" fill="#16a34a" />
    <circle cx="244.8" cy="93.4" r="4" fill="#84cc16" />
    <circle cx="240.7" cy="128.0" r="4" fill="#84cc16" />
    <circle cx="246.5" cy="189.8" r="4" fill="#84cc16" />
    <circle cx="242.5" cy="248.6" r="4" fill="#16a34a" />
    <circle cx="245.9" cy="277.7" r="4" fill="#84cc16" />
    <circle cx="244.2" cy="308.4" r="4" fill="#22c55e" />
    <circle cx="248.2" cy="336.2" r="4" fill="#16a34a" />
    <circle cx="244.0" cy="361.8" r="4" fill="#16a34a" />
    <circle cx="246.8" cy="390.4" r="4" fill="#22c55e" />
    <circle cx="245.8" cy="421.2" r="4" fill="#84cc16" />
    <circle cx="247.6" cy="485.5" r="4" fill="#84cc16" />
    <circle cx="243.6" cy="510.2" r="4" fill="#22c55e" />
    <circle cx="275.6" cy="4.8" r="4" fill="#22c55e" />
    <circle cx="275.6" cy="65.3" r="4" fill="#22c55e" />
    <circle cx="276.3" cy="126.7" r="4" fill="#16a34a" />
    <circle cx="272.1" cy="159.7" r="4" fill="#84cc16" />
    <circle cx="278.5" cy="189.0" r="4" fill="#22c55e" />
    <circle cx="276.2" cy="271.6" r="4" fill="#16a34a" />
    <circle cx="279.2" cy="307.8" r="4" fill="#22c55e" />
    <circle cx="273.5" cy="337.0" r="4" fill="#84cc16" />
    <circle cx="276.5" cy="360.9" r="4" fill="#16a34a" />
    <circle cx="273.7" cy="428.9" r="4" fill="#84cc16" />
    <circle cx="272.4" cy="510.7" r="4" fill="#84cc16" />
    <circle cx="272.3" cy="546.3" r="4" fill="#22c55e" />
    <circle cx="302.0" cy="33.8" r="4" fill="#22c55e" />
    <circle cx="302.9" cy="91.4" r="4" fill="#22c55e" />
    <circle cx="305.5" cy="123.4" r="4" fill="#22c55e" />
    <circle cx="302.8" cy="185.9" r="4" fill="#84cc16" />
    <circle cx="308.9" cy="300.4" r="4" fill="#84cc16" />
    <circle cx="304.5" cy="332.7" r="4" fill="#16a34a" />
    <circle cx="308.1" cy="360.2" r="4" fill="#84cc16" />
    <circle cx="309.4" cy="428.9" r="4" fill="#16a34a" />
    <circle cx="308.3" cy="488.3" r="4" fill="#84cc16" />
    <circle cx="308.7" cy="548.4" r="4" fill="#22c55e" />
    <circle cx="331.1" cy="4.3" r="4" fill="#22c55e" />
    <circle cx="335.1" cy="97.6" r="4" fill="#16a34a" />
    <circle cx="336.0" cy="214.0" r="4" fill="#22c55e" />
    <circle cx="334.0" cy="242.7" r="4" fill="#22c55e" />
    <circle cx="331.5" cy="307.2" r="4" fill="#84cc16" />
    <circle cx="336.3" cy="338.8" r="4" fill="#16a34a" />
    <circle cx="330.8" cy="399.9" r="4" fill="#84cc16" />
    <circle cx="334.3" cy="456.3" r="4" fill="#16a34a" />
    <circle cx="331.7" cy="482.8" r="4" fill="#22c55e" />
    <circle cx="334.2" cy="516.6" r="4" fill="#16a34a" />
    <circle cx="339.8" cy="546.9" r="4" fill="#84cc16" />
    <circle cx="364.5" cy="39.4" r="4" fill="#22c55e" />
    <circle cx="367.1" cy="99.4" r="4" fill="#84cc16" />
    <circle cx="366.7" cy="121.8" r="4" fill="#16a34a" />
    <circle cx="362.6" cy="154.1" r="4" fill="#84cc16" />
    <circle cx="365.3" cy="184.1" r="4" fill="#22c55e" />
    <circle cx="360.8" cy="213.3" r="4" fill="#16a34a" />
    <circle cx="361.6" cy="249.2" r="4" fill="#84cc16" />
    <circle cx="366.0" cy="272.2" r="4" fill="#22c55e" />
    <circle cx="369.8" cy="361.4" r="4" fill="#22c55e" />
    <circle cx="363.9" cy="457.0" r="4" fill="#22c55e" />
    <circle cx="361.9" cy="482.9" r="4" fill="#16a34a" />
    <circle cx="361.5" cy="515.8" r="4" fill="#16a34a" />
    <circle cx="390.4" cy="1.9" r="4" fill="#22c55e" />
    <circle cx="393.8" cy="33.9" r="4" fill="#16a34a" />
    <circle cx="394.8" cy="94.6" r="4" fill="#22c55e" />
    <circle cx="391.3" cy="124.0" r="4" fill="#22c55e" />
    <circle cx="397.2" cy="150.8" r="4" fill="#22c55e" />
    <circle cx="395.4" cy="183.0" r="4" fill="#16a34a" />
    <circle cx="396.7" cy="214.5" r="4" fill="#16a34a" />
    <circle cx="394.1" cy="246.8" r="4" fill="#16a34a" />
    <circle cx="398.9" cy="276.5" r="4" fill="#16a34a" />
    <circle cx="390.2" cy="339.3" r="4" fill="#16a34a" />
    <circle cx="396.3" cy="367.2" r="4" fill="#84cc16" />
    <circle cx="394.7" cy="393.6" r="4" fill="#22c55e" />
    <circle cx="392.8" cy="421.5" r="4" fill="#84cc16" />
    <circle cx="397.8" cy="450.0" r="4" fill="#22c55e" />
    <circle cx="396.4" cy="481.6" r="4" fill="#22c55e" />
    <circle cx="391.9" cy="518.5" r="4" fill="#16a34a" />
    <circle cx="397.1" cy="542.9" r="4" fill="#16a34a" /></g>
  <rect x="81.0" y="107.8" width="62.2" height="62.2" fill="#22c55e" opacity="0.17" />
    <polygon points="125.6,69.7 171.4,161.2 79.9,161.2" fill="#84cc16" opacity="0.17" />
    <rect x="43.3" y="55.2" width="89.3" height="89.3" fill="#22c55e" opacity="0.23" />
    <polygon points="349.8,173.2 374.8,198.1 349.8,223.1 324.9,198.1" fill="#84cc16" opacity="0.24" />
    <rect x="268.6" y="313.6" width="31.2" height="31.2" fill="#16a34a" opacity="0.36" />
    <rect x="104.4" y="517.2" width="29.2" height="29.2" fill="#84cc16" opacity="0.32" />
    <rect x="158.4" y="-0.7" width="57.8" height="57.8" fill="#16a34a" opacity="0.17" />
    <polygon points="140.0,-48.1 189.3,50.6 90.6,50.6" fill="#16a34a" opacity="0.28" />
  
  <!-- Text background banner -->
  <defs>
    <linearGradient id="text-bg-14" x1="0%" y1="0%" x2="100%" y2="0%">
      <stop offset="0%" style="stop-color:#000000;stop-opacity:0.7" />
      <stop offset="50%" style="stop-color:#22c55e;stop-opacity:0.4" />
      <stop offset="100%" style="stop-color:#000000;stop-opacity:0.7" />
    </linearGradient>
  </defs>
  <rect x="0" y="494" width="400" height="56" fill="url(#text-bg-14)" />

  <!-- Text shadow -->
  <text x="200" y="522" font-family="system-ui, -apple-system, sans-serif" font-size="24" font-weight="bold" text-anchor="middle" fill="#000000" opacity="0.8">Tiki Torch Tom</text>

  <!-- Main text -->
  <text x="200" y="520" font-family="system-ui, -apple-system, sans-serif" font-size="24" font-weight="bold" text-anchor="middle" fill="#ffffff">Tiki Torch Tom</text>
  
  <!-- Rarity border -->
  <rect x="3" y="3" width="394" height="544"
        fill="none" stroke="#3b82f6" stroke-width="6" rx="8" ry="8" />
</svg>