<?xml version="1.0" encoding="UTF-8"?>
<svg xmlns="http://www.w3.org/2000/svg" viewBox="0 0 400 550" width="400" height="550">
  <defs>
    <linearGradient id="bg-gradient-070" x1="0%" y1="0%" x2="100%" y2="100%">
      <stop offset="0%" style="stop-color:#ef4444;stop-opacity:0.26" />
      <stop offset="50%" style="stop-color:#f97316;stop-opacity:0.4" />
      <stop offset="100%" style="stop-color:#ef4444;stop-opacity:0.26" />
    </linearGradient>
    
  <filter id="shadow-070">
    <feDropShadow dx="0" dy="2" stdDeviation="3" flood-opacity="0.8"/>
  </filter>
  </defs>
  <rect width="400" height="550" fill="url(#bg-gradient-0.4733005715534091)" />
  <g opacity="0.3"><rect x="1.4" y="237.0" width="20.9" height="20.9" fill="none" stroke="#fbbf24" stroke-width="2.9" opacity="0.12" />
    <rect x="68.3" y="367.4" width="32.2" height="32.2" fill="none" stroke="#f97316" stroke-width="2.4" opacity="0.14" />
    <rect x="247.9" y="526.6" width="35.1" height="35.1" fill="none" stroke="#ef4444" stroke-width="2.6" opacity="0.20" />
    <rect x="96.4" y="91.1" width="25.6" height="25.6" fill="none" stroke="#fbbf24" stroke-width="2.1" opacity="0.26" />
    <rect x="30.6" y="471.5" width="57.3" height="57.3" fill="none" stroke="#fbbf24" stroke-width="2.1" opacity="0.11" /></g>
  <rect x="218.0" y="79.6" width="70.3" height="70.3" fill="#f97316" opacity="0.28" />
    <polygon points="259.1,228.5 288.7,287.6 229.6,287.6" fill="#f97316" opacity="0.14" />
    <rect x="53.3" y="-41.4" width="100.0" height="100.0" fill="#ef4444" opacity="0.31" />
    <polygon points="107.6,87.6 145.4,163.4 69.7,163.4" fill="#ef4444" opacity="0.34" />
    <polygon points="279.8,3.5 317.7,79.3 241.9,79.3" fill="#fbbf24" opacity="0.22" />
  
  <!-- Text background banner -->
  <defs>
    <linearGradient id="text-bg-15" x1="0%" y1="0%" x2="100%" y2="0%">
      <stop offset="0%" style="stop-color:#000000;stop-opacity:0.7" />
      <stop offset="50%" style="stop-color:#ef4444;stop-opacity:0.4" />
      <stop offset="100%" style="stop-color:#000000;stop-opacity:0.7" />
    </linearGradient>
  </defs>
  <rect x="0" y="494" width="400" height="56" fill="url(#text-bg-15)" />

  <!-- Text shadow -->
  <text x="200" y="522" font-family="system-ui, -apple-system, sans-serif" font-size="24" font-weight="bold" text-anchor="middle" fill="#000000" opacity="0.8">Light Beer Bill</text>

  <!-- Main text -->
  <text x="200" y="520" font-family="system-ui, -apple-system, sans-serif" font-size="24" font-weight="bold" text-anchor="middle" fill="#ffffff">Light Beer Bill</text>
  
  <!-- Rarity border -->
  <rect x="2" y="2" width="396" height="546"
        fill="none" stroke="#9ca3af" stroke-width="4" rx="8" ry="8" />
</svg>