<?xml version="1.0" encoding="UTF-8"?>
<svg xmlns="http://www.w3.org/2000/svg" viewBox="0 0 400 550" width="400" height="550">
  <defs>
    <linearGradient id="bg-gradient-071" x1="0%" y1="0%" x2="100%" y2="100%">
      <stop offset="0%" style="stop-color:#22c55e;stop-opacity:0.26" />
      <stop offset="50%" style="stop-color:#16a34a;stop-opacity:0.4" />
      <stop offset="100%" style="stop-color:#22c55e;stop-opacity:0.26" />
    </linearGradient>
    
  <filter id="shadow-071">
    <feDropShadow dx="0" dy="2" stdDeviation="3" flood-opacity="0.8"/>
  </filter>
  </defs>
  <rect width="400" height="550" fill="url(#bg-gradient-0.045138556277379394)" />
  <g opacity="0.3"><circle cx="9.5" cy="8.2" r="6" fill="#84cc16" />
    <circle cx="0.6" cy="26.2" r="6" fill="#16a34a" />
    <circle cx="0.2" cy="79.0" r="6" fill="#84cc16" />
    <circle cx="8.7" cy="108.8" r="6" fill="#84cc16" />
    <circle cx="1.2" cy="176.9" r="6" fill="#16a34a" />
    <circle cx="6.5" cy="203.6" r="6" fill="#16a34a" />
    <circle cx="1.6" cy="230.2" r="6" fill="#16a34a" />
    <circle cx="8.8" cy="259.5" r="6" fill="#22c55e" />
    <circle cx="4.8" cy="278.7" r="6" fill="#16a34a" />
    <circle cx="5.9" cy="303.4" r="6" fill="#16a34a" />
    <circle cx="3.8" cy="333.8" r="6" fill="#22c55e" />
    <circle cx="6.3" cy="358.7" r="6" fill="#84cc16" />
    <circle cx="5.6" cy="385.0" r="6" fill="#84cc16" />
    <circle cx="7.6" cy="400.2" r="6" fill="#16a34a" />
    <circle cx="8.6" cy="430.7" r="6" fill="#84cc16" />
    <circle cx="2.6" cy="456.5" r="6" fill="#22c55e" />
    <circle cx="3.3" cy="480.9" r="6" fill="#84cc16" />
    <circle cx="4.5" cy="530.8" r="6" fill="#84cc16" />
    <circle cx="32.4" cy="0.2" r="6" fill="#84cc16" />
    <circle cx="32.0" cy="56.2" r="6" fill="#22c55e" />
    <circle cx="25.1" cy="104.1" r="6" fill="#22c55e" />
    <circle cx="33.0" cy="150.7" r="6" fill="#16a34a" />
    <circle cx="29.0" cy="252.4" r="6" fill="#22c55e" />
    <circle cx="33.1" cy="281.3" r="6" fill="#84cc16" />
    <circle cx="33.0" cy="309.4" r="6" fill="#22c55e" />
    <circle cx="31.8" cy="359.0" r="6" fill="#84cc16" />
    <circle cx="34.4" cy="376.6" r="6" fill="#16a34a" />
    <circle cx="34.7" cy="404.6" r="6" fill="#16a34a" />
    <circle cx="29.3" cy="426.6" r="6" fill="#22c55e" />
    <circle cx="30.2" cy="453.3" r="6" fill="#84cc16" />
    <circle cx="27.6" cy="504.3" r="6" fill="#84cc16" />
    <circle cx="30.6" cy="533.7" r="6" fill="#22c55e" />
    <circle cx="57.8" cy="26.7" r="6" fill="#16a34a" />
    <circle cx="54.5" cy="51.5" r="6" fill="#22c55e" />
    <circle cx="58.9" cy="79.1" r="6" fill="#16a34a" />
    <circle cx="53.5" cy="104.1" r="6" fill="#16a34a" />
    <circle cx="59.2" cy="159.2" r="6" fill="#84cc16" />
    <circle cx="59.6" cy="175.2" r="6" fill="#22c55e" />
    <circle cx="50.8" cy="200.1" r="6" fill="#22c55e" />
    <circle cx="54.4" cy="233.3" r="6" fill="#16a34a" />
    <circle cx="51.6" cy="254.5" r="6" fill="#16a34a" />
    <circle cx="58.1" cy="278.5" r="6" fill="#16a34a" />
    <circle cx="55.7" cy="306.9" r="6" fill="#22c55e" />
    <circle cx="59.8" cy="332.7" r="6" fill="#16a34a" />
    <circle cx="54.1" cy="357.1" r="6" fill="#84cc16" />
    <circle cx="58.0" cy="379.1" r="6" fill="#22c55e" />
    <circle cx="56.9" cy="406.1" r="6" fill="#16a34a" />
    <circle cx="53.3" cy="425.4" r="6" fill="#16a34a" />
    <circle cx="55.9" cy="457.4" r="6" fill="#22c55e" />
    <circle cx="56.5" cy="482.2" r="6" fill="#22c55e" />
    <circle cx="52.0" cy="505.2" r="6" fill="#16a34a" />
    <circle cx="75.2" cy="5.2" r="6" fill="#84cc16" />
    <circle cx="77.2" cy="83.6" r="6" fill="#16a34a" />
    <circle cx="76.8" cy="132.1" r="6" fill="#16a34a" />
    <circle cx="84.6" cy="151.8" r="6" fill="#16a34a" />
    <circle cx="77.6" cy="203.3" r="6" fill="#84cc16" />
    <circle cx="84.5" cy="226.2" r="6" fill="#16a34a" />
    <circle cx="79.3" cy="281.5" r="6" fill="#84cc16" />
    <circle cx="83.6" cy="307.7" r="6" fill="#22c55e" />
    <circle cx="80.3" cy="329.2" r="6" fill="#84cc16" />
    <circle cx="81.4" cy="357.6" r="6" fill="#16a34a" />
    <circle cx="80.6" cy="380.3" r="6" fill="#22c55e" />
    <circle cx="84.5" cy="400.4" r="6" fill="#84cc16" />
    <circle cx="79.1" cy="455.0" r="6" fill="#16a34a" />
    <circle cx="76.5" cy="479.2" r="6" fill="#16a34a" />
    <circle cx="75.2" cy="505.7" r="6" fill="#22c55e" />
    <circle cx="103.2" cy="7.4" r="6" fill="#16a34a" />
    <circle cx="100.4" cy="30.1" r="6" fill="#84cc16" />
    <circle cx="104.6" cy="77.5" r="6" fill="#84cc16" />
    <circle cx="103.7" cy="101.5" r="6" fill="#22c55e" />
    <circle cx="108.4" cy="133.0" r="6" fill="#84cc16" />
    <circle cx="107.0" cy="175.8" r="6" fill="#84cc16" />
    <circle cx="109.9" cy="202.6" r="6" fill="#22c55e" />
    <circle cx="109.2" cy="230.4" r="6" fill="#22c55e" />
    <circle cx="100.9" cy="283.1" r="6" fill="#84cc16" />
    <circle cx="101.0" cy="307.5" r="6" fill="#22c55e" />
    <circle cx="106.9" cy="382.9" r="6" fill="#84cc16" />
    <circle cx="109.8" cy="425.9" r="6" fill="#22c55e" />
    <circle cx="107.1" cy="500.4" r="6" fill="#84cc16" />
    <circle cx="103.5" cy="528.2" r="6" fill="#22c55e" />
    <circle cx="131.5" cy="3.4" r="6" fill="#22c55e" />
    <circle cx="134.4" cy="32.2" r="6" fill="#16a34a" />
    <circle cx="128.9" cy="56.6" r="6" fill="#22c55e" />
    <circle cx="125.5" cy="79.8" r="6" fill="#16a34a" />
    <circle cx="125.6" cy="100.7" r="6" fill="#16a34a" />
    <circle cx="133.9" cy="132.3" r="6" fill="#22c55e" />
    <circle cx="133.8" cy="150.7" r="6" fill="#22c55e" />
    <circle cx="129.5" cy="177.0" r="6" fill="#84cc16" />
    <circle cx="129.3" cy="207.1" r="6" fill="#16a34a" />
    <circle cx="133.2" cy="225.5" r="6" fill="#16a34a" />
    <circle cx="133.2" cy="252.6" r="6" fill="#16a34a" />
    <circle cx="131.6" cy="277.1" r="6" fill="#22c55e" />
    <circle cx="129.6" cy="302.3" r="6" fill="#84cc16" />
    <circle cx="129.0" cy="378.8" r="6" fill="#22c55e" />
    <circle cx="126.9" cy="432.9" r="6" fill="#16a34a" />
    <circle cx="128.2" cy="458.8" r="6" fill="#16a34a" />
    <circle cx="127.2" cy="504.4" r="6" fill="#84cc16" />
    <circle cx="133.8" cy="532.6" r="6" fill="#84cc16" />
    <circle cx="158.3" cy="26.4" r="6" fill="#84cc16" />
    <circle cx="159.2" cy="53.9" r="6" fill="#16a34a" />
    <circle cx="151.0" cy="76.7" r="6" fill="#16a34a" />
    <circle cx="152.0" cy="102.2" r="6" fill="#22c55e" />
    <circle cx="156.4" cy="126.3" r="6" fill="#84cc16" />
    <circle cx="154.5" cy="182.0" r="6" fill="#22c55e" />
    <circle cx="154.4" cy="229.7" r="6" fill="#22c55e" />
    <circle cx="153.9" cy="280.1" r="6" fill="#84cc16" />
    <circle cx="159.9" cy="334.3" r="6" fill="#84cc16" />
    <circle cx="155.4" cy="352.7" r="6" fill="#16a34a" />
    <circle cx="155.3" cy="380.5" r="6" fill="#22c55e" />
    <circle cx="152.2" cy="408.9" r="6" fill="#84cc16" />
    <circle cx="154.6" cy="427.1" r="6" fill="#22c55e" />
    <circle cx="153.1" cy="451.6" r="6" fill="#16a34a" />
    <circle cx="157.0" cy="484.8" r="6" fill="#22c55e" />
    <circle cx="151.7" cy="503.0" r="6" fill="#84cc16" />
    <circle cx="179.9" cy="56.1" r="6" fill="#22c55e" />
    <circle cx="181.9" cy="79.8" r="6" fill="#22c55e" />
    <circle cx="181.2" cy="153.3" r="6" fill="#22c55e" />
    <circle cx="181.1" cy="207.1" r="6" fill="#16a34a" />
    <circle cx="183.5" cy="232.6" r="6" fill="#22c55e" />
    <circle cx="181.7" cy="256.5" r="6" fill="#16a34a" />
    <circle cx="180.4" cy="283.8" r="6" fill="#22c55e" />
    <circle cx="183.9" cy="304.0" r="6" fill="#16a34a" />
    <circle cx="182.4" cy="330.5" r="6" fill="#22c55e" />
    <circle cx="175.9" cy="383.3" r="6" fill="#16a34a" />
    <circle cx="178.5" cy="406.0" r="6" fill="#84cc16" />
    <circle cx="175.4" cy="428.4" r="6" fill="#84cc16" />
    <circle cx="181.2" cy="458.2" r="6" fill="#84cc16" />
    <circle cx="179.1" cy="483.4" r="6" fill="#84cc16" />
    <circle cx="178.7" cy="502.0" r="6" fill="#16a34a" />
    <circle cx="179.0" cy="525.5" r="6" fill="#22c55e" />
    <circle cx="202.9" cy="2.5" r="6" fill="#16a34a" />
    <circle cx="207.1" cy="27.3" r="6" fill="#84cc16" />
    <circle cx="204.3" cy="51.7" r="6" fill="#84cc16" />
    <circle cx="206.6" cy="75.7" r="6" fill="#22c55e" />
    <circle cx="205.9" cy="105.0" r="6" fill="#22c55e" />
    <circle cx="202.3" cy="159.3" r="6" fill="#84cc16" />
    <circle cx="205.3" cy="177.1" r="6" fill="#16a34a" />
    <circle cx="208.6" cy="232.1" r="6" fill="#16a34a" />
    <circle cx="206.7" cy="300.6" r="6" fill="#84cc16" />
    <circle cx="204.4" cy="326.1" r="6" fill="#16a34a" />
    <circle cx="209.3" cy="355.2" r="6" fill="#84cc16" />
    <circle cx="205.4" cy="377.8" r="6" fill="#84cc16" />
    <circle cx="203.4" cy="434.6" r="6" fill="#22c55e" />
    <circle cx="202.2" cy="455.6" r="6" fill="#84cc16" />
    <circle cx="209.3" cy="479.0" r="6" fill="#84cc16" />
    <circle cx="204.7" cy="501.2" r="6" fill="#84cc16" />
    <circle cx="201.9" cy="528.2" r="6" fill="#22c55e" />
    <circle cx="225.6" cy="5.9" r="6" fill="#84cc16" />
    <circle cx="226.6" cy="75.3" r="6" fill="#16a34a" />
    <circle cx="232.9" cy="104.3" r="6" fill="#16a34a" />
    <circle cx="230.5" cy="131.2" r="6" fill="#22c55e" />
    <circle cx="226.0" cy="156.9" r="6" fill="#22c55e" />
    <circle cx="229.2" cy="175.8" r="6" fill="#84cc16" />
    <circle cx="225.7" cy="208.6" r="6" fill="#16a34a" />
    <circle cx="232.1" cy="225.5" r="6" fill="#22c55e" />
    <circle cx="234.4" cy="253.4" r="6" fill="#22c55e" />
    <circle cx="226.4" cy="281.7" r="6" fill="#22c55e" />
    <circle cx="225.6" cy="307.5" r="6" fill="#16a34a" />
    <circle cx="230.3" cy="350.5" r="6" fill="#84cc16" />
    <circle cx="226.6" cy="377.5" r="6" fill="#22c55e" />
    <circle cx="233.7" cy="452.8" r="6" fill="#84cc16" />
    <circle cx="231.8" cy="506.9" r="6" fill="#16a34a" />
    <circle cx="234.0" cy="531.3" r="6" fill="#84cc16" />
    <circle cx="250.4" cy="2.2" r="6" fill="#16a34a" />
    <circle cx="258.3" cy="32.6" r="6" fill="#16a34a" />
    <circle cx="250.6" cy="82.6" r="6" fill="#16a34a" />
    <circle cx="252.6" cy="101.1" r="6" fill="#22c55e" />
    <circle cx="259.2" cy="130.0" r="6" fill="#22c55e" />
    <circle cx="257.9" cy="156.9" r="6" fill="#84cc16" />
    <circle cx="256.3" cy="178.3" r="6" fill="#22c55e" />
    <circle cx="251.2" cy="232.9" r="6" fill="#22c55e" />
    <circle cx="254.9" cy="250.0" r="6" fill="#22c55e" />
    <circle cx="252.5" cy="281.5" r="6" fill="#22c55e" />
    <circle cx="256.2" cy="306.8" r="6" fill="#16a34a" />
    <circle cx="258.0" cy="326.2" r="6" fill="#84cc16" />
    <circle cx="251.8" cy="357.7" r="6" fill="#84cc16" />
    <circle cx="250.3" cy="403.0" r="6" fill="#84cc16" />
    <circle cx="250.1" cy="429.0" r="6" fill="#22c55e" />
    <circle cx="258.2" cy="457.1" r="6" fill="#84cc16" />
    <circle cx="258.4" cy="479.9" r="6" fill="#84cc16" />
    <circle cx="253.6" cy="509.8" r="6" fill="#84cc16" />
    <circle cx="259.3" cy="533.1" r="6" fill="#84cc16" />
    <circle cx="282.8" cy="2.3" r="6" fill="#16a34a" />
    <circle cx="283.6" cy="29.9" r="6" fill="#16a34a" />
    <circle cx="282.0" cy="59.1" r="6" fill="#84cc16" />
    <circle cx="275.4" cy="78.2" r="6" fill="#84cc16" />
    <circle cx="283.4" cy="102.2" r="6" fill="#22c55e" />
    <circle cx="279.6" cy="126.9" r="6" fill="#16a34a" />
    <circle cx="282.5" cy="209.1" r="6" fill="#84cc16" />
    <circle cx="284.6" cy="226.2" r="6" fill="#22c55e" />
    <circle cx="277.9" cy="250.6" r="6" fill="#16a34a" />
    <circle cx="279.2" cy="308.6" r="6" fill="#22c55e" />
    <circle cx="281.2" cy="332.7" r="6" fill="#16a34a" />
    <circle cx="282.9" cy="350.3" r="6" fill="#16a34a" />
    <circle cx="275.3" cy="381.7" r="6" fill="#84cc16" />
    <circle cx="279.2" cy="429.7" r="6" fill="#22c55e" />
    <circle cx="278.0" cy="475.4" r="6" fill="#22c55e" />
    <circle cx="283.1" cy="500.4" r="6" fill="#22c55e" />
    <circle cx="277.1" cy="525.1" r="6" fill="#84cc16" />
    <circle cx="300.6" cy="0.7" r="6" fill="#16a34a" />
    <circle cx="309.5" cy="28.6" r="6" fill="#22c55e" />
    <circle cx="308.6" cy="54.1" r="6" fill="#16a34a" />
    <circle cx="306.7" cy="103.7" r="6" fill="#16a34a" />
    <circle cx="307.0" cy="153.8" r="6" fill="#84cc16" />
    <circle cx="305.5" cy="175.6" r="6" fill="#84cc16" />
    <circle cx="303.8" cy="231.9" r="6" fill="#22c55e" />
    <circle cx="302.4" cy="255.4" r="6" fill="#22c55e" />
    <circle cx="307.5" cy="279.4" r="6" fill="#84cc16" />
    <circle cx="308.4" cy="304.2" r="6" fill="#16a34a" />
    <circle cx="301.8" cy="326.5" r="6" fill="#16a34a" />
    <circle cx="305.6" cy="354.7" r="6" fill="#16a34a" />
    <circle cx="306.8" cy="429.3" r="6" fill="#22c55e" />
    <circle cx="302.6" cy="458.5" r="6" fill="#16a34a" />
    <circle cx="309.5" cy="505.9" r="6" fill="#22c55e" />
    <circle cx="309.7" cy="534.2" r="6" fill="#16a34a" />
    <circle cx="331.0" cy="5.4" r="6" fill="#22c55e" />
    <circle cx="332.6" cy="27.7" r="6" fill="#84cc16" />
    <circle cx="334.2" cy="53.1" r="6" fill="#16a34a" />
    <circle cx="330.6" cy="80.3" r="6" fill="#84cc16" />
    <circle cx="327.9" cy="130.1" r="6" fill="#16a34a" />
    <circle cx="334.4" cy="159.0" r="6" fill="#16a34a" />
    <circle cx="328.1" cy="180.5" r="6" fill="#22c55e" />
    <circle cx="325.6" cy="200.2" r="6" fill="#84cc16" />
    <circle cx="332.1" cy="231.0" r="6" fill="#16a34a" />
    <circle cx="330.9" cy="252.9" r="6" fill="#84cc16" />
    <circle cx="328.9" cy="283.5" r="6" fill="#84cc16" />
    <circle cx="334.8" cy="331.6" r="6" fill="#84cc16" />
    <circle cx="327.6" cy="377.6" r="6" fill="#16a34a" />
    <circle cx="334.7" cy="428.1" r="6" fill="#22c55e" />
    <circle cx="331.4" cy="453.6" r="6" fill="#84cc16" />
    <circle cx="333.0" cy="476.8" r="6" fill="#16a34a" />
    <circle cx="329.5" cy="529.6" r="6" fill="#84cc16" />
    <circle cx="355.9" cy="5.1" r="6" fill="#84cc16" />
    <circle cx="359.0" cy="34.5" r="6" fill="#22c55e" />
    <circle cx="353.0" cy="75.2" r="6" fill="#16a34a" />
    <circle cx="358.6" cy="105.3" r="6" fill="#16a34a" />
    <circle cx="354.8" cy="204.9" r="6" fill="#22c55e" />
    <circle cx="359.8" cy="227.7" r="6" fill="#84cc16" />
    <circle cx="358.1" cy="252.3" r="6" fill="#84cc16" />
    <circle cx="351.8" cy="282.7" r="6" fill="#22c55e" />
    <circle cx="356.2" cy="300.9" r="6" fill="#16a34a" />
    <circle cx="355.3" cy="353.0" r="6" fill="#84cc16" />
    <circle cx="357.8" cy="380.9" r="6" fill="#22c55e" />
    <circle cx="353.3" cy="408.9" r="6" fill="#22c55e" />
    <circle cx="357.1" cy="431.6" r="6" fill="#22c55e" />
    <circle cx="352.0" cy="453.0" r="6" fill="#84cc16" />
    <circle cx="352.6" cy="483.1" r="6" fill="#16a34a" />
    <circle cx="350.9" cy="507.2" r="6" fill="#84cc16" />
    <circle cx="384.6" cy="6.7" r="6" fill="#16a34a" />
    <circle cx="382.8" cy="28.5" r="6" fill="#84cc16" />
    <circle cx="382.8" cy="75.5" r="6" fill="#22c55e" />
    <circle cx="377.6" cy="101.0" r="6" fill="#84cc16" />
    <circle cx="380.3" cy="132.8" r="6" fill="#22c55e" />
    <circle cx="380.5" cy="159.1" r="6" fill="#22c55e" />
    <circle cx="380.1" cy="179.6" r="6" fill="#84cc16" />
    <circle cx="375.9" cy="203.8" r="6" fill="#84cc16" />
    <circle cx="383.2" cy="234.7" r="6" fill="#16a34a" />
    <circle cx="375.5" cy="258.0" r="6" fill="#22c55e" />
    <circle cx="380.5" cy="284.3" r="6" fill="#16a34a" />
    <circle cx="384.4" cy="302.5" r="6" fill="#16a34a" />
    <circle cx="377.4" cy="326.7" r="6" fill="#16a34a" />
    <circle cx="375.8" cy="351.9" r="6" fill="#22c55e" />
    <circle cx="381.6" cy="379.5" r="6" fill="#22c55e" />
    <circle cx="382.6" cy="400.8" r="6" fill="#22c55e" />
    <circle cx="377.7" cy="431.7" r="6" fill="#16a34a" />
    <circle cx="377.5" cy="451.3" r="6" fill="#16a34a" />
    <circle cx="384.9" cy="480.2" r="6" fill="#22c55e" />
    <circle cx="375.7" cy="501.9" r="6" fill="#84cc16" />
    <circle cx="377.0" cy="527.9" r="6" fill="#16a34a" /></g>
  <circle cx="255.4" cy="393.2" r="35.4" fill="#16a34a" opacity="0.22" />
    <circle cx="208.4" cy="503.4" r="16.7" fill="#16a34a" opacity="0.30" />
    <circle cx="201.1" cy="104.6" r="28.3" fill="#22c55e" opacity="0.24" />
    <polygon points="239.4,477.8 263.1,501.5 239.4,525.1 215.7,501.5" fill="#16a34a" opacity="0.29" />
    <polygon points="58.1,350.3 78.6,391.5 37.5,391.5" fill="#16a34a" opacity="0.31" />
    <circle cx="298.7" cy="151.2" r="21.9" fill="#84cc16" opacity="0.35" />
    <rect x="239.2" y="60.3" width="67.6" height="67.6" fill="#22c55e" opacity="0.20" />
    <polygon points="240.4,46.8 278.8,123.6 202.0,123.6" fill="#22c55e" opacity="0.14" />
    <polygon points="252.4,470.0 289.6,544.3 215.2,544.3" fill="#16a34a" opacity="0.17" />
    <polygon points="244.8,348.0 281.9,385.2 244.8,422.3 207.7,385.2" fill="#22c55e" opacity="0.26" />
    <polygon points="261.2,146.1 303.5,188.4 261.2,230.7 218.9,188.4" fill="#84cc16" opacity="0.30" />
  
  <!-- Text background banner -->
  <defs>
    <linearGradient id="text-bg-13" x1="0%" y1="0%" x2="100%" y2="0%">
      <stop offset="0%" style="stop-color:#000000;stop-opacity:0.7" />
      <stop offset="50%" style="stop-color:#22c55e;stop-opacity:0.4" />
      <stop offset="100%" style="stop-color:#000000;stop-opacity:0.7" />
    </linearGradient>
  </defs>
  <rect x="0" y="494" width="400" height="56" fill="url(#text-bg-13)" />

  <!-- Text shadow -->
  <text x="200" y="522" font-family="system-ui, -apple-system, sans-serif" font-size="24" font-weight="bold" text-anchor="middle" fill="#000000" opacity="0.8">Zucchini Zeus</text>

  <!-- Main text -->
  <text x="200" y="520" font-family="system-ui, -apple-system, sans-serif" font-size="24" font-weight="bold" text-anchor="middle" fill="#ffffff">Zucchini Zeus</text>
  
  <!-- Rarity border -->
  <rect x="4" y="4" width="392" height="542"
        fill="none" stroke="#eab308" stroke-width="8" rx="8" ry="8" />
</svg>