<?xml version="1.0" encoding="UTF-8"?>
<svg xmlns="http://www.w3.org/2000/svg" viewBox="0 0 400 550" width="400" height="550">
  <defs>
    <linearGradient id="bg-gradient-072" x1="0%" y1="0%" x2="100%" y2="100%">
      <stop offset="0%" style="stop-color:#ffffff;stop-opacity:0.26" />
      <stop offset="50%" style="stop-color:#fbbf24;stop-opacity:0.4" />
      <stop offset="100%" style="stop-color:#ffffff;stop-opacity:0.26" />
    </linearGradient>
    
  <filter id="shadow-072">
    <feDropShadow dx="0" dy="2" stdDeviation="3" flood-opacity="0.8"/>
  </filter>
  </defs>
  <rect width="400" height="550" fill="url(#bg-gradient-0.12060493067838252)" />
  <g opacity="0.3"><circle cx="8.8" cy="69.6" r="4" fill="#ffffff" />
    <circle cx="8.4" cy="95.7" r="4" fill="#ffffff" />
    <circle cx="1.6" cy="129.0" r="4" fill="#ffffff" />
    <circle cx="7.4" cy="159.4" r="4" fill="#fbbf24" />
    <circle cx="1.2" cy="211.9" r="4" fill="#ef4444" />
    <circle cx="2.2" cy="279.4" r="4" fill="#ffffff" />
    <circle cx="8.1" cy="333.0" r="4" fill="#ffffff" />
    <circle cx="9.3" cy="390.6" r="4" fill="#ef4444" />
    <circle cx="8.7" cy="420.6" r="4" fill="#ffffff" />
    <circle cx="6.4" cy="488.2" r="4" fill="#fbbf24" />
    <circle cx="7.9" cy="517.9" r="4" fill="#ffffff" />
    <circle cx="31.7" cy="4.2" r="4" fill="#ef4444" />
    <circle cx="36.2" cy="61.7" r="4" fill="#ef4444" />
    <circle cx="40.0" cy="153.0" r="4" fill="#ef4444" />
    <circle cx="38.6" cy="183.4" r="4" fill="#fbbf24" />
    <circle cx="32.6" cy="244.0" r="4" fill="#ffffff" />
    <circle cx="36.9" cy="274.0" r="4" fill="#ffffff" />
    <circle cx="38.9" cy="304.0" r="4" fill="#fbbf24" />
    <circle cx="35.0" cy="336.4" r="4" fill="#fbbf24" />
    <circle cx="36.8" cy="391.1" r="4" fill="#ffffff" />
    <circle cx="39.6" cy="420.7" r="4" fill="#ffffff" />
    <circle cx="33.2" cy="452.3" r="4" fill="#ef4444" />
    <circle cx="39.2" cy="512.5" r="4" fill="#ffffff" />
    <circle cx="33.8" cy="546.1" r="4" fill="#fbbf24" />
    <circle cx="64.5" cy="38.6" r="4" fill="#ef4444" />
    <circle cx="68.2" cy="65.7" r="4" fill="#fbbf24" />
    <circle cx="62.8" cy="128.8" r="4" fill="#fbbf24" />
    <circle cx="68.6" cy="180.5" r="4" fill="#fbbf24" />
    <circle cx="62.6" cy="218.9" r="4" fill="#ffffff" />
    <circle cx="61.8" cy="248.1" r="4" fill="#ef4444" />
    <circle cx="65.1" cy="270.2" r="4" fill="#fbbf24" />
    <circle cx="66.1" cy="306.3" r="4" fill="#fbbf24" />
    <circle cx="64.6" cy="421.8" r="4" fill="#ef4444" />
    <circle cx="63.6" cy="550.0" r="4" fill="#ef4444" />
    <circle cx="91.8" cy="5.2" r="4" fill="#ffffff" />
    <circle cx="97.1" cy="31.0" r="4" fill="#ef4444" />
    <circle cx="97.1" cy="91.4" r="4" fill="#fbbf24" />
    <circle cx="91.6" cy="159.5" r="4" fill="#ef4444" />
    <circle cx="90.3" cy="186.6" r="4" fill="#ffffff" />
    <circle cx="97.4" cy="246.5" r="4" fill="#fbbf24" />
    <circle cx="99.6" cy="276.9" r="4" fill="#fbbf24" />
    <circle cx="92.0" cy="337.2" r="4" fill="#ffffff" />
    <circle cx="93.5" cy="366.0" r="4" fill="#ffffff" />
    <circle cx="96.0" cy="429.6" r="4" fill="#ffffff" />
    <circle cx="90.5" cy="453.9" r="4" fill="#ffffff" />
    <circle cx="91.3" cy="511.5" r="4" fill="#fbbf24" />
    <circle cx="96.6" cy="544.4" r="4" fill="#ffffff" />
    <circle cx="128.2" cy="61.3" r="4" fill="#ffffff" />
    <circle cx="122.8" cy="93.2" r="4" fill="#fbbf24" />
    <circle cx="127.3" cy="159.4" r="4" fill="#fbbf24" />
    <circle cx="121.9" cy="189.4" r="4" fill="#ef4444" />
    <circle cx="121.4" cy="214.2" r="4" fill="#fbbf24" />
    <circle cx="124.4" cy="246.2" r="4" fill="#ffffff" />
    <circle cx="120.4" cy="271.8" r="4" fill="#ef4444" />
    <circle cx="120.1" cy="307.0" r="4" fill="#fbbf24" />
    <circle cx="127.6" cy="338.6" r="4" fill="#ffffff" />
    <circle cx="126.7" cy="364.0" r="4" fill="#fbbf24" />
    <circle cx="120.5" cy="396.5" r="4" fill="#ffffff" />
    <circle cx="124.1" cy="420.4" r="4" fill="#fbbf24" />
    <circle cx="124.9" cy="488.0" r="4" fill="#ef4444" />
    <circle cx="129.2" cy="518.9" r="4" fill="#fbbf24" />
    <circle cx="129.8" cy="541.1" r="4" fill="#ef4444" />
    <circle cx="150.6" cy="8.8" r="4" fill="#ffffff" />
    <circle cx="157.3" cy="32.2" r="4" fill="#fbbf24" />
    <circle cx="156.6" cy="60.3" r="4" fill="#fbbf24" />
    <circle cx="152.5" cy="97.7" r="4" fill="#ef4444" />
    <circle cx="152.9" cy="126.1" r="4" fill="#ffffff" />
    <circle cx="153.2" cy="159.2" r="4" fill="#fbbf24" />
    <circle cx="151.2" cy="214.6" r="4" fill="#fbbf24" />
    <circle cx="156.7" cy="240.1" r="4" fill="#fbbf24" />
    <circle cx="154.4" cy="270.4" r="4" fill="#ffffff" />
    <circle cx="155.7" cy="308.4" r="4" fill="#fbbf24" />
    <circle cx="155.3" cy="330.3" r="4" fill="#fbbf24" />
    <circle cx="156.3" cy="367.7" r="4" fill="#ef4444" />
    <circle cx="153.5" cy="396.5" r="4" fill="#ef4444" />
    <circle cx="150.7" cy="423.7" r="4" fill="#fbbf24" />
    <circle cx="153.0" cy="454.3" r="4" fill="#fbbf24" />
    <circle cx="151.4" cy="517.4" r="4" fill="#ffffff" />
    <circle cx="155.9" cy="546.9" r="4" fill="#ef4444" />
    <circle cx="183.8" cy="36.9" r="4" fill="#ffffff" />
    <circle cx="188.4" cy="127.6" r="4" fill="#ef4444" />
    <circle cx="180.8" cy="150.4" r="4" fill="#fbbf24" />
    <circle cx="186.6" cy="188.2" r="4" fill="#fbbf24" />
    <circle cx="184.6" cy="211.8" r="4" fill="#ffffff" />
    <circle cx="188.0" cy="249.8" r="4" fill="#ef4444" />
    <circle cx="187.1" cy="304.9" r="4" fill="#ffffff" />
    <circle cx="184.8" cy="369.5" r="4" fill="#ef4444" />
    <circle cx="187.1" cy="422.3" r="4" fill="#ef4444" />
    <circle cx="182.5" cy="514.6" r="4" fill="#ffffff" />
    <circle cx="183.5" cy="543.1" r="4" fill="#ef4444" />
    <circle cx="215.4" cy="33.7" r="4" fill="#ffffff" />
    <circle cx="219.3" cy="69.6" r="4" fill="#ef4444" />
    <circle cx="212.8" cy="92.9" r="4" fill="#ef4444" />
    <circle cx="214.0" cy="159.6" r="4" fill="#ef4444" />
    <circle cx="216.6" cy="181.9" r="4" fill="#fbbf24" />
    <circle cx="216.8" cy="219.4" r="4" fill="#ffffff" />
    <circle cx="213.4" cy="307.4" r="4" fill="#ef4444" />
    <circle cx="219.0" cy="336.8" r="4" fill="#ef4444" />
    <circle cx="216.6" cy="365.6" r="4" fill="#fbbf24" />
    <circle cx="217.7" cy="392.8" r="4" fill="#fbbf24" />
    <circle cx="217.7" cy="424.8" r="4" fill="#ef4444" />
    <circle cx="210.8" cy="458.0" r="4" fill="#fbbf24" />
    <circle cx="216.7" cy="488.7" r="4" fill="#ef4444" />
    <circle cx="217.2" cy="515.7" r="4" fill="#fbbf24" />
    <circle cx="212.4" cy="545.9" r="4" fill="#ffffff" />
    <circle cx="248.8" cy="3.6" r="4" fill="#fbbf24" />
    <circle cx="243.2" cy="39.3" r="4" fill="#ef4444" />
    <circle cx="248.3" cy="64.5" r="4" fill="#ffffff" />
    <circle cx="248.1" cy="97.2" r="4" fill="#fbbf24" />
    <circle cx="243.4" cy="125.9" r="4" fill="#ef4444" />
    <circle cx="247.9" cy="189.1" r="4" fill="#ef4444" />
    <circle cx="246.2" cy="215.7" r="4" fill="#fbbf24" />
    <circle cx="247.5" cy="244.2" r="4" fill="#ffffff" />
    <circle cx="244.2" cy="274.8" r="4" fill="#ef4444" />
    <circle cx="249.1" cy="300.8" r="4" fill="#fbbf24" />
    <circle cx="246.3" cy="360.7" r="4" fill="#ef4444" />
    <circle cx="249.0" cy="455.0" r="4" fill="#fbbf24" />
    <circle cx="271.7" cy="7.9" r="4" fill="#ffffff" />
    <circle cx="273.8" cy="30.1" r="4" fill="#ffffff" />
    <circle cx="278.8" cy="69.3" r="4" fill="#ef4444" />
    <circle cx="272.7" cy="99.1" r="4" fill="#fbbf24" />
    <circle cx="279.0" cy="153.1" r="4" fill="#ef4444" />
    <circle cx="270.0" cy="187.9" r="4" fill="#ffffff" />
    <circle cx="279.2" cy="275.1" r="4" fill="#fbbf24" />
    <circle cx="271.8" cy="307.4" r="4" fill="#ef4444" />
    <circle cx="270.4" cy="333.3" r="4" fill="#ffffff" />
    <circle cx="275.8" cy="366.5" r="4" fill="#ffffff" />
    <circle cx="270.3" cy="393.6" r="4" fill="#fbbf24" />
    <circle cx="277.4" cy="453.4" r="4" fill="#fbbf24" />
    <circle cx="279.9" cy="489.0" r="4" fill="#ffffff" />
    <circle cx="278.0" cy="540.2" r="4" fill="#ffffff" />
    <circle cx="305.5" cy="37.9" r="4" fill="#fbbf24" />
    <circle cx="308.5" cy="96.8" r="4" fill="#ffffff" />
    <circle cx="305.3" cy="125.3" r="4" fill="#ffffff" />
    <circle cx="305.4" cy="182.0" r="4" fill="#ffffff" />
    <circle cx="300.8" cy="218.7" r="4" fill="#ef4444" />
    <circle cx="305.4" cy="241.6" r="4" fill="#fbbf24" />
    <circle cx="306.5" cy="275.2" r="4" fill="#fbbf24" />
    <circle cx="305.4" cy="301.7" r="4" fill="#fbbf24" />
    <circle cx="303.2" cy="427.9" r="4" fill="#fbbf24" />
    <circle cx="308.0" cy="451.2" r="4" fill="#fbbf24" />
    <circle cx="307.5" cy="489.4" r="4" fill="#ffffff" />
    <circle cx="307.2" cy="516.5" r="4" fill="#ffffff" />
    <circle cx="308.1" cy="549.4" r="4" fill="#ef4444" />
    <circle cx="339.9" cy="7.1" r="4" fill="#fbbf24" />
    <circle cx="332.2" cy="66.5" r="4" fill="#ffffff" />
    <circle cx="331.5" cy="92.0" r="4" fill="#ef4444" />
    <circle cx="334.7" cy="158.6" r="4" fill="#fbbf24" />
    <circle cx="332.8" cy="181.6" r="4" fill="#ffffff" />
    <circle cx="332.6" cy="218.5" r="4" fill="#fbbf24" />
    <circle cx="333.6" cy="247.8" r="4" fill="#ffffff" />
    <circle cx="330.8" cy="270.2" r="4" fill="#fbbf24" />
    <circle cx="338.3" cy="308.5" r="4" fill="#fbbf24" />
    <circle cx="333.6" cy="336.4" r="4" fill="#ef4444" />
    <circle cx="330.3" cy="396.9" r="4" fill="#ffffff" />
    <circle cx="337.0" cy="423.9" r="4" fill="#ffffff" />
    <circle cx="331.5" cy="450.2" r="4" fill="#ef4444" />
    <circle cx="333.2" cy="487.0" r="4" fill="#ef4444" />
    <circle cx="337.2" cy="514.2" r="4" fill="#fbbf24" />
    <circle cx="334.6" cy="545.6" r="4" fill="#ef4444" />
    <circle cx="360.4" cy="4.2" r="4" fill="#ef4444" />
    <circle cx="368.0" cy="39.4" r="4" fill="#ef4444" />
    <circle cx="367.0" cy="91.0" r="4" fill="#ef4444" />
    <circle cx="364.5" cy="126.2" r="4" fill="#ffffff" />
    <circle cx="368.4" cy="150.2" r="4" fill="#fbbf24" />
    <circle cx="368.8" cy="215.0" r="4" fill="#ef4444" />
    <circle cx="366.5" cy="242.2" r="4" fill="#ffffff" />
    <circle cx="361.3" cy="273.3" r="4" fill="#ffffff" />
    <circle cx="364.6" cy="335.0" r="4" fill="#fbbf24" />
    <circle cx="363.8" cy="364.0" r="4" fill="#fbbf24" />
    <circle cx="369.5" cy="393.2" r="4" fill="#ffffff" />
    <circle cx="365.5" cy="453.9" r="4" fill="#ffffff" />
    <circle cx="368.4" cy="487.6" r="4" fill="#ef4444" />
    <circle cx="363.5" cy="511.3" r="4" fill="#ffffff" />
    <circle cx="393.4" cy="1.0" r="4" fill="#ffffff" />
    <circle cx="391.6" cy="39.4" r="4" fill="#ffffff" />
    <circle cx="395.5" cy="66.2" r="4" fill="#ffffff" />
    <circle cx="390.3" cy="97.4" r="4" fill="#ef4444" />
    <circle cx="394.9" cy="126.6" r="4" fill="#ffffff" />
    <circle cx="394.3" cy="187.1" r="4" fill="#ffffff" />
    <circle cx="391.0" cy="211.5" r="4" fill="#ffffff" />
    <circle cx="390.8" cy="245.1" r="4" fill="#fbbf24" />
    <circle cx="397.5" cy="274.7" r="4" fill="#ef4444" />
    <circle cx="397.9" cy="304.4" r="4" fill="#fbbf24" />
    <circle cx="392.0" cy="338.3" r="4" fill="#ffffff" />
    <circle cx="399.3" cy="366.9" r="4" fill="#ef4444" />
    <circle cx="391.6" cy="398.7" r="4" fill="#fbbf24" />
    <circle cx="392.4" cy="424.1" r="4" fill="#fbbf24" />
    <circle cx="394.8" cy="454.9" r="4" fill="#ffffff" />
    <circle cx="392.3" cy="517.7" r="4" fill="#ffffff" /></g>
  <polygon points="272.6,189.4 283.8,211.8 261.4,211.8" fill="#ffffff" opacity="0.39" />
    <circle cx="36.4" cy="316.8" r="42.8" fill="#ef4444" opacity="0.29" />
    <polygon points="122.3,180.8 155.1,213.5 122.3,246.2 89.6,213.5" fill="#ffffff" opacity="0.40" />
    <circle cx="137.6" cy="399.3" r="27.5" fill="#ef4444" opacity="0.16" />
    <rect x="3.8" y="156.2" width="77.2" height="77.2" fill="#ffffff" opacity="0.12" />
    <polygon points="88.1,332.0 124.5,368.4 88.1,404.9 51.6,368.4" fill="#ffffff" opacity="0.39" />
    <circle cx="213.6" cy="119.4" r="46.1" fill="#ef4444" opacity="0.31" />
    <circle cx="387.1" cy="35.3" r="28.1" fill="#ffffff" opacity="0.14" />
  
  <!-- Text background banner -->
  <defs>
    <linearGradient id="text-bg-18" x1="0%" y1="0%" x2="100%" y2="0%">
      <stop offset="0%" style="stop-color:#000000;stop-opacity:0.7" />
      <stop offset="50%" style="stop-color:#ffffff;stop-opacity:0.4" />
      <stop offset="100%" style="stop-color:#000000;stop-opacity:0.7" />
    </linearGradient>
  </defs>
  <rect x="0" y="494" width="400" height="56" fill="url(#text-bg-18)" />

  <!-- Text shadow -->
  <text x="200" y="522" font-family="system-ui, -apple-system, sans-serif" font-size="24" font-weight="bold" text-anchor="middle" fill="#000000" opacity="0.8">Burger Builder Bob</text>

  <!-- Main text -->
  <text x="200" y="520" font-family="system-ui, -apple-system, sans-serif" font-size="24" font-weight="bold" text-anchor="middle" fill="#ffffff">Burger Builder Bob</text>
  
  <!-- Rarity border -->
  <rect x="3" y="3" width="394" height="544"
        fill="none" stroke="#3b82f6" stroke-width="6" rx="8" ry="8" />
</svg>