<?xml version="1.0" encoding="UTF-8"?>
<svg xmlns="http://www.w3.org/2000/svg" viewBox="0 0 400 550" width="400" height="550">
  <defs>
    <linearGradient id="bg-gradient-073" x1="0%" y1="0%" x2="100%" y2="100%">
      <stop offset="0%" style="stop-color:#ffffff;stop-opacity:0.26" />
      <stop offset="50%" style="stop-color:#fbbf24;stop-opacity:0.4" />
      <stop offset="100%" style="stop-color:#ffffff;stop-opacity:0.26" />
    </linearGradient>
    
  <filter id="shadow-073">
    <feDropShadow dx="0" dy="2" stdDeviation="3" flood-opacity="0.8"/>
  </filter>
  </defs>
  <rect width="400" height="550" fill="url(#bg-gradient-0.8749192850664258)" />
  <g opacity="0.3"><rect x="277.4" y="511.5" width="69.3" height="69.3" fill="none" stroke="#fbbf24" stroke-width="1.5" opacity="0.28" />
    <rect x="30.5" y="313.4" width="37.2" height="37.2" fill="none" stroke="#ffffff" stroke-width="2.8" opacity="0.27" />
    <rect x="12.4" y="186.8" width="26.0" height="26.0" fill="none" stroke="#ffffff" stroke-width="2.5" opacity="0.18" />
    <circle cx="31.7" cy="318.6" r="34.7" fill="none" stroke="#ffffff" stroke-width="2.4" opacity="0.26" />
    <rect x="346.2" y="160.1" width="51.8" height="51.8" fill="none" stroke="#ef4444" stroke-width="2.7" opacity="0.28" /></g>
  <circle cx="142.9" cy="362.2" r="47.9" fill="#ef4444" opacity="0.26" />
    <polygon points="71.8,254.9 118.0,301.1 71.8,347.2 25.7,301.1" fill="#ffffff" opacity="0.21" />
    <polygon points="271.1,248.3 315.3,292.5 271.1,336.6 227.0,292.5" fill="#fbbf24" opacity="0.28" />
    <polygon points="152.8,-7.6 177.7,17.3 152.8,42.2 127.9,17.3" fill="#fbbf24" opacity="0.36" />
    <circle cx="306.6" cy="244.4" r="29.7" fill="#ef4444" opacity="0.29" />
  
  <!-- Text background banner -->
  <defs>
    <linearGradient id="text-bg-13" x1="0%" y1="0%" x2="100%" y2="0%">
      <stop offset="0%" style="stop-color:#000000;stop-opacity:0.7" />
      <stop offset="50%" style="stop-color:#ffffff;stop-opacity:0.4" />
      <stop offset="100%" style="stop-color:#000000;stop-opacity:0.7" />
    </linearGradient>
  </defs>
  <rect x="0" y="494" width="400" height="56" fill="url(#text-bg-13)" />

  <!-- Text shadow -->
  <text x="200" y="522" font-family="system-ui, -apple-system, sans-serif" font-size="24" font-weight="bold" text-anchor="middle" fill="#000000" opacity="0.8">Hot Dog Harry</text>

  <!-- Main text -->
  <text x="200" y="520" font-family="system-ui, -apple-system, sans-serif" font-size="24" font-weight="bold" text-anchor="middle" fill="#ffffff">Hot Dog Harry</text>
  
  <!-- Rarity border -->
  <rect x="2" y="2" width="396" height="546"
        fill="none" stroke="#9ca3af" stroke-width="4" rx="8" ry="8" />
</svg>