<?xml version="1.0" encoding="UTF-8"?>
<svg xmlns="http://www.w3.org/2000/svg" viewBox="0 0 400 550" width="400" height="550">
  <defs>
    <linearGradient id="bg-gradient-075" x1="0%" y1="0%" x2="100%" y2="100%">
      <stop offset="0%" style="stop-color:#64748b;stop-opacity:0.26" />
      <stop offset="50%" style="stop-color:#94a3b8;stop-opacity:0.4" />
      <stop offset="100%" style="stop-color:#64748b;stop-opacity:0.26" />
    </linearGradient>
    
  <filter id="shadow-075">
    <feDropShadow dx="0" dy="2" stdDeviation="3" flood-opacity="0.8"/>
  </filter>
  </defs>
  <rect width="400" height="550" fill="url(#bg-gradient-0.6933732810430229)" />
  <g opacity="0.3"><line x1="0" y1="403.5" x2="400" y2="403.5" stroke="#94a3b8" stroke-width="1.6" opacity="0.18" />
    <line x1="0" y1="185.5" x2="400" y2="185.5" stroke="#64748b" stroke-width="2.0" opacity="0.16" />
    <line x1="0" y1="227.5" x2="400" y2="227.5" stroke="#64748b" stroke-width="3.9" opacity="0.10" />
    <line x1="62.3" y1="0" x2="62.3" y2="550" stroke="#94a3b8" stroke-width="3.7" opacity="0.25" />
    <line x1="195.4" y1="0" x2="195.4" y2="550" stroke="#94a3b8" stroke-width="2.5" opacity="0.25" />
    <line x1="0" y1="137.5" x2="400" y2="137.5" stroke="#64748b" stroke-width="2.8" opacity="0.18" />
    <line x1="315.9" y1="0" x2="315.9" y2="550" stroke="#94a3b8" stroke-width="3.2" opacity="0.36" />
    <line x1="0" y1="14.5" x2="400" y2="14.5" stroke="#64748b" stroke-width="2.8" opacity="0.38" />
    <line x1="0" y1="471.1" x2="400" y2="471.1" stroke="#64748b" stroke-width="2.9" opacity="0.12" />
    <line x1="0" y1="223.5" x2="400" y2="223.5" stroke="#ef4444" stroke-width="3.6" opacity="0.27" /></g>
  <rect x="202.9" y="434.0" width="89.3" height="89.3" fill="#ef4444" opacity="0.34" />
    <polygon points="223.6,483.0 250.2,536.2 197.0,536.2" fill="#64748b" opacity="0.38" />
    <rect x="211.9" y="477.6" width="39.1" height="39.1" fill="#ef4444" opacity="0.35" />
    <polygon points="337.4,227.6 370.9,261.1 337.4,294.6 303.9,261.1" fill="#ef4444" opacity="0.26" />
    <polygon points="162.2,-24.9 202.5,15.4 162.2,55.7 122.0,15.4" fill="#94a3b8" opacity="0.28" />
  
  <!-- Text background banner -->
  <defs>
    <linearGradient id="text-bg-11" x1="0%" y1="0%" x2="100%" y2="0%">
      <stop offset="0%" style="stop-color:#000000;stop-opacity:0.7" />
      <stop offset="50%" style="stop-color:#64748b;stop-opacity:0.4" />
      <stop offset="100%" style="stop-color:#000000;stop-opacity:0.7" />
    </linearGradient>
  </defs>
  <rect x="0" y="494" width="400" height="56" fill="url(#text-bg-11)" />

  <!-- Text shadow -->
  <text x="200" y="522" font-family="system-ui, -apple-system, sans-serif" font-size="24" font-weight="bold" text-anchor="middle" fill="#000000" opacity="0.8">Ice Run Ian</text>

  <!-- Main text -->
  <text x="200" y="520" font-family="system-ui, -apple-system, sans-serif" font-size="24" font-weight="bold" text-anchor="middle" fill="#ffffff">Ice Run Ian</text>
  
  <!-- Rarity border -->
  <rect x="2" y="2" width="396" height="546"
        fill="none" stroke="#9ca3af" stroke-width="4" rx="8" ry="8" />
</svg>