<?xml version="1.0" encoding="UTF-8"?>
<svg xmlns="http://www.w3.org/2000/svg" viewBox="0 0 400 550" width="400" height="550">
  <defs>
    <linearGradient id="bg-gradient-076" x1="0%" y1="0%" x2="100%" y2="100%">
      <stop offset="0%" style="stop-color:#3b82f6;stop-opacity:0.26" />
      <stop offset="50%" style="stop-color:#6366f1;stop-opacity:0.4" />
      <stop offset="100%" style="stop-color:#3b82f6;stop-opacity:0.26" />
    </linearGradient>
    
  <filter id="shadow-076">
    <feDropShadow dx="0" dy="2" stdDeviation="3" flood-opacity="0.8"/>
  </filter>
  </defs>
  <rect width="400" height="550" fill="url(#bg-gradient-0.7609175352845341)" />
  <g opacity="0.3"><circle cx="54.5" cy="486.4" r="37.9" fill="none" stroke="#3b82f6" stroke-width="3.0" opacity="0.29" />
    <rect x="171.9" y="89.8" width="77.0" height="77.0" fill="none" stroke="#8b5cf6" stroke-width="1.4" opacity="0.19" />
    <rect x="123.9" y="406.8" width="49.3" height="49.3" fill="none" stroke="#3b82f6" stroke-width="2.7" opacity="0.21" />
    <circle cx="155.1" cy="285.3" r="32.7" fill="none" stroke="#3b82f6" stroke-width="2.3" opacity="0.24" />
    <circle cx="217.8" cy="28.2" r="36.0" fill="none" stroke="#3b82f6" stroke-width="2.3" opacity="0.13" />
    <circle cx="307.0" cy="489.7" r="29.3" fill="none" stroke="#3b82f6" stroke-width="2.9" opacity="0.21" />
    <rect x="19.7" y="163.8" width="55.0" height="55.0" fill="none" stroke="#8b5cf6" stroke-width="1.6" opacity="0.24" /></g>
  <rect x="84.8" y="271.2" width="83.0" height="83.0" fill="#8b5cf6" opacity="0.27" />
    <polygon points="233.2,299.7 250.8,335.0 215.6,335.0" fill="#6366f1" opacity="0.17" />
    <polygon points="341.9,-19.6 375.8,48.2 308.0,48.2" fill="#3b82f6" opacity="0.33" />
    <polygon points="142.2,110.9 154.4,123.1 142.2,135.3 130.1,123.1" fill="#8b5cf6" opacity="0.15" />
    <polygon points="105.2,27.4 153.2,123.3 57.2,123.3" fill="#3b82f6" opacity="0.35" />
    <polygon points="111.6,333.4 122.9,344.7 111.6,356.0 100.4,344.7" fill="#8b5cf6" opacity="0.17" />
    <circle cx="239.0" cy="281.9" r="36.9" fill="#8b5cf6" opacity="0.21" />
    <polygon points="81.1,211.0 98.8,228.8 81.1,246.5 63.3,228.8" fill="#6366f1" opacity="0.31" />
  
  <!-- Text background banner -->
  <defs>
    <linearGradient id="text-bg-18" x1="0%" y1="0%" x2="100%" y2="0%">
      <stop offset="0%" style="stop-color:#000000;stop-opacity:0.7" />
      <stop offset="50%" style="stop-color:#3b82f6;stop-opacity:0.4" />
      <stop offset="100%" style="stop-color:#000000;stop-opacity:0.7" />
    </linearGradient>
  </defs>
  <rect x="0" y="494" width="400" height="56" fill="url(#text-bg-18)" />

  <!-- Text shadow -->
  <text x="200" y="522" font-family="system-ui, -apple-system, sans-serif" font-size="24" font-weight="bold" text-anchor="middle" fill="#000000" opacity="0.8">Shade Seeker Steve</text>

  <!-- Main text -->
  <text x="200" y="520" font-family="system-ui, -apple-system, sans-serif" font-size="24" font-weight="bold" text-anchor="middle" fill="#ffffff">Shade Seeker Steve</text>
  
  <!-- Rarity border -->
  <rect x="3" y="3" width="394" height="544"
        fill="none" stroke="#3b82f6" stroke-width="6" rx="8" ry="8" />
</svg>