<?xml version="1.0" encoding="UTF-8"?>
<svg xmlns="http://www.w3.org/2000/svg" viewBox="0 0 400 550" width="400" height="550">
  <defs>
    <linearGradient id="bg-gradient-077" x1="0%" y1="0%" x2="100%" y2="100%">
      <stop offset="0%" style="stop-color:#22c55e;stop-opacity:0.26" />
      <stop offset="50%" style="stop-color:#16a34a;stop-opacity:0.4" />
      <stop offset="100%" style="stop-color:#22c55e;stop-opacity:0.26" />
    </linearGradient>
    
  <filter id="shadow-077">
    <feDropShadow dx="0" dy="2" stdDeviation="3" flood-opacity="0.8"/>
  </filter>
  </defs>
  <rect width="400" height="550" fill="url(#bg-gradient-0.0993931784760207)" />
  <g opacity="0.3"><line x1="0" y1="95.0" x2="400" y2="95.0" stroke="#16a34a" stroke-width="2.7" opacity="0.20" />
    <line x1="53.8" y1="0" x2="53.8" y2="550" stroke="#22c55e" stroke-width="1.5" opacity="0.37" />
    <line x1="0" y1="173.1" x2="400" y2="173.1" stroke="#22c55e" stroke-width="3.4" opacity="0.32" />
    <line x1="60.3" y1="0" x2="60.3" y2="550" stroke="#84cc16" stroke-width="2.0" opacity="0.29" />
    <line x1="171.4" y1="0" x2="171.4" y2="550" stroke="#16a34a" stroke-width="1.7" opacity="0.29" />
    <line x1="0" y1="188.8" x2="400" y2="188.8" stroke="#84cc16" stroke-width="2.0" opacity="0.22" />
    <line x1="0" y1="509.7" x2="400" y2="509.7" stroke="#22c55e" stroke-width="2.1" opacity="0.25" />
    <line x1="24.1" y1="0" x2="24.1" y2="550" stroke="#84cc16" stroke-width="1.9" opacity="0.35" />
    <line x1="172.9" y1="0" x2="172.9" y2="550" stroke="#84cc16" stroke-width="3.7" opacity="0.12" />
    <line x1="255.4" y1="0" x2="255.4" y2="550" stroke="#16a34a" stroke-width="1.2" opacity="0.28" /></g>
  <rect x="243.4" y="165.6" width="71.3" height="71.3" fill="#84cc16" opacity="0.23" />
    <rect x="302.7" y="130.0" width="73.9" height="73.9" fill="#22c55e" opacity="0.19" />
    <circle cx="135.3" cy="434.4" r="28.5" fill="#84cc16" opacity="0.18" />
    <polygon points="127.7,452.8 138.1,473.5 117.4,473.5" fill="#22c55e" opacity="0.26" />
    <rect x="236.0" y="514.8" width="52.4" height="52.4" fill="#16a34a" opacity="0.26" />
  
  <!-- Text background banner -->
  <defs>
    <linearGradient id="text-bg-17" x1="0%" y1="0%" x2="100%" y2="0%">
      <stop offset="0%" style="stop-color:#000000;stop-opacity:0.7" />
      <stop offset="50%" style="stop-color:#22c55e;stop-opacity:0.4" />
      <stop offset="100%" style="stop-color:#000000;stop-opacity:0.7" />
    </linearGradient>
  </defs>
  <rect x="0" y="494" width="400" height="56" fill="url(#text-bg-17)" />

  <!-- Text shadow -->
  <text x="200" y="522" font-family="system-ui, -apple-system, sans-serif" font-size="24" font-weight="bold" text-anchor="middle" fill="#000000" opacity="0.8">Sprinkler Spencer</text>

  <!-- Main text -->
  <text x="200" y="520" font-family="system-ui, -apple-system, sans-serif" font-size="24" font-weight="bold" text-anchor="middle" fill="#ffffff">Sprinkler Spencer</text>
  
  <!-- Rarity border -->
  <rect x="2" y="2" width="396" height="546"
        fill="none" stroke="#9ca3af" stroke-width="4" rx="8" ry="8" />
</svg>