<?xml version="1.0" encoding="UTF-8"?>
<svg xmlns="http://www.w3.org/2000/svg" viewBox="0 0 400 550" width="400" height="550">
  <defs>
    <linearGradient id="bg-gradient-079" x1="0%" y1="0%" x2="100%" y2="100%">
      <stop offset="0%" style="stop-color:#ef4444;stop-opacity:0.26" />
      <stop offset="50%" style="stop-color:#22c55e;stop-opacity:0.4" />
      <stop offset="100%" style="stop-color:#ef4444;stop-opacity:0.26" />
    </linearGradient>
    
  <filter id="shadow-079">
    <feDropShadow dx="0" dy="2" stdDeviation="3" flood-opacity="0.8"/>
  </filter>
  </defs>
  <rect width="400" height="550" fill="url(#bg-gradient-0.12099953973665833)" />
  <g opacity="0.3"><polyline points="0,6.2 5,5.4 10,5.0 15,5.0 20,5.4 25,6.3 30,7.5 35,9.1 40,11.1 45,13.3 50,15.8 55,18.6 60,21.6 65,24.7 70,27.8 75,31.0 80,34.2 85,37.3 90,40.3 95,43.1 100,45.7 105,48.1 110,50.1 115,51.8 120,53.1 125,54.0 130,54.6 135,54.7 140,54.4 145,53.7 150,52.6 155,51.1 160,49.3 165,47.1 170,44.7 175,42.0 180,39.1 185,36.0 190,32.9 195,29.7 200,26.5 205,23.3 210,20.3 215,17.4 220,14.7 225,12.3 230,10.2 235,8.4 240,6.9 245,5.9 250,5.2 255,5.0 260,5.1 265,5.7 270,6.7 275,8.0 280,9.7 285,11.8 290,14.1 295,16.8 300,19.6 305,22.6 310,25.7 315,28.9 320,32.1 325,35.3 330,38.4 335,41.3 340,44.1 345,46.6 350,48.8 355,50.7 360,52.3 365,53.5 370,54.3 375,54.7 380,54.6 385,54.2 390,53.4 395,52.1 400,50.5" fill="none" stroke="#fbbf24" stroke-width="1.7" opacity="0.24" />
    <polyline points="0,535.8 5,536.8 10,537.7 15,538.4 20,539.0 25,539.4 30,539.7 35,539.8 40,539.7 45,539.4 50,539.0 55,538.4 60,537.7 65,536.8 70,535.7 75,534.6 80,533.3 85,532.0 90,530.6 95,529.1 100,527.6 105,526.1 110,524.6 115,523.1 120,521.7 125,520.3 130,519.0 135,517.8 140,516.7 145,515.7 150,514.9 155,514.2 160,513.7 165,513.3 170,513.2 175,513.2 180,513.3 185,513.7 190,514.2 195,514.8 200,515.6 205,516.6 210,517.7 215,518.9 220,520.2 225,521.5 230,523.0 235,524.5 240,526.0 245,527.5 250,529.0 255,530.5 260,531.9 265,533.2 270,534.5 275,535.6 280,536.7 285,537.6 290,538.3 295,538.9 300,539.4 305,539.7 310,539.8 315,539.7 320,539.5 325,539.0 330,538.5 335,537.7 340,536.9 345,535.9 350,534.7 355,533.5 360,532.2 365,530.7 370,529.3 375,527.8 380,526.3 385,524.8 390,523.3 395,521.8 400,520.4" fill="none" stroke="#22c55e" stroke-width="1.7" opacity="0.26" />
    <polyline points="0,345.0 5,346.8 10,348.6 15,350.4 20,352.2 25,353.9 30,355.7 35,357.3 40,359.0 45,360.6 50,362.1 55,363.6 60,364.9 65,366.2 70,367.4 75,368.5 80,369.5 85,370.4 90,371.2 95,371.9 100,372.4 105,372.9 110,373.2 115,373.3 120,373.4 125,373.3 130,373.1 135,372.8 140,372.4 145,371.8 150,371.2 155,370.4 160,369.5 165,368.5 170,367.3 175,366.1 180,364.8 185,363.5 190,362.0 195,360.5 200,358.9 205,357.2 210,355.5 215,353.8 220,352.0 225,350.3 230,348.5 235,346.7 240,344.9 245,343.1 250,341.3 255,339.6 260,337.8 265,336.2 270,334.6 275,333.1 280,331.6 285,330.2 290,328.9 295,327.7 300,326.5 305,325.5 310,324.6 315,323.8 320,323.1 325,322.5 330,322.0 335,321.7 340,321.5 345,321.4 350,321.4 355,321.6 360,321.9 365,322.3 370,322.8 375,323.4 380,324.2 385,325.1 390,326.1 395,327.2 400,328.3" fill="none" stroke="#fbbf24" stroke-width="2.4" opacity="0.14" />
    <polyline points="0,5.5 5,4.3 10,3.7 15,3.5 20,3.7 25,4.5 30,5.6 35,7.2 40,9.2 45,11.6 50,14.2 55,17.1 60,20.2 65,23.4 70,26.7 75,30.0 80,33.2 85,36.3 90,39.2 95,41.8 100,44.1 105,46.1 110,47.7 115,48.9 120,49.6 125,49.8 130,49.6 135,48.9 140,47.8 145,46.3 150,44.3 155,42.0 160,39.4 165,36.5 170,33.5 175,30.2 180,27.0 185,23.7 190,20.5 195,17.4 200,14.4 205,11.8 210,9.4 215,7.4 220,5.8 225,4.5 230,3.8 235,3.5 240,3.6 245,4.3 250,5.3 255,6.9 260,8.8 265,11.0 270,13.6 275,16.5 280,19.5 285,22.7 290,26.0 295,29.3 300,32.5 305,35.6 310,38.5 315,41.2 320,43.6 325,45.7 330,47.4 335,48.6 340,49.5 345,49.8 350,49.7 355,49.1 360,48.1 365,46.6 370,44.8 375,42.5 380,40.0 385,37.2 390,34.1 395,31.0 400,27.7" fill="none" stroke="#ef4444" stroke-width="2.2" opacity="0.28" />
    <polyline points="0,549.7 5,549.1 10,548.1 15,546.7 20,545.0 25,542.9 30,540.6 35,537.9 40,535.0 45,531.8 50,528.5 55,525.0 60,521.4 65,517.8 70,514.1 75,510.4 80,506.8 85,503.3 90,500.0 95,496.8 100,493.8 105,491.1 110,488.7 115,486.6 120,484.8 125,483.4 130,482.4 135,481.7 140,481.5 145,481.6 150,482.1 155,483.1 160,484.3 165,486.0 170,488.0 175,490.3 180,492.9 185,495.8 190,498.9 195,502.2 200,505.7 205,509.3 210,512.9 215,516.6 220,520.3 225,523.9 230,527.4 235,530.8 240,534.0 245,537.0 250,539.8 255,542.2 260,544.4 265,546.2 270,547.7 275,548.8 280,549.6 285,549.9 290,549.8 295,549.4 300,548.5 305,547.3 310,545.7 315,543.8 320,541.5 325,539.0 330,536.1 335,533.1 340,529.8 345,526.4 350,522.8 355,519.2 360,515.5 365,511.8 370,508.2 375,504.7 380,501.2 385,498.0 390,495.0 395,492.1 400,489.6" fill="none" stroke="#fbbf24" stroke-width="1.6" opacity="0.19" />
    <polyline points="0,486.2 5,486.5 10,487.0 15,487.4 20,487.9 25,488.4 30,488.9 35,489.5 40,490.0 45,490.6 50,491.3 55,491.9 60,492.5 65,493.2 70,493.9 75,494.5 80,495.2 85,495.9 90,496.6 95,497.2 100,497.9 105,498.6 110,499.2 115,499.8 120,500.4 125,501.0 130,501.6 135,502.1 140,502.6 145,503.1 150,503.6 155,504.0 160,504.4 165,504.7 170,505.0 175,505.3 180,505.6 185,505.8 190,505.9 195,506.0 200,506.1 205,506.1 210,506.1 215,506.0 220,505.9 225,505.8 230,505.6 235,505.4 240,505.1 245,504.8 250,504.5 255,504.1 260,503.7 265,503.3 270,502.8 275,502.3 280,501.8 285,501.2 290,500.6 295,500.0 300,499.4 305,498.8 310,498.1 315,497.5 320,496.8 325,496.1 330,495.4 335,494.8 340,494.1 345,493.4 350,492.7 355,492.1 360,491.5 365,490.8 370,490.2 375,489.6 380,489.1 385,488.5 390,488.0 395,487.5 400,487.1" fill="none" stroke="#fbbf24" stroke-width="1.2" opacity="0.15" />
    <polyline points="0,181.8 5,183.6 10,185.3 15,186.9 20,188.5 25,190.0 30,191.4 35,192.7 40,194.0 45,195.1 50,196.1 55,197.0 60,197.8 65,198.5 70,199.0 75,199.5 80,199.8 85,200.0 90,200.0 95,200.0 100,199.8 105,199.4 110,199.0 115,198.4 120,197.7 125,196.9 130,196.0 135,195.0 140,193.9 145,192.6 150,191.3 155,189.9 160,188.4 165,186.8 170,185.1 175,183.4 180,181.6 185,179.8 190,177.9 195,176.0 200,174.0 205,172.1 210,170.1 215,168.1 220,166.2 225,164.2 230,162.3 235,160.3 240,158.5 245,156.6 250,154.8 255,153.1 260,151.5 265,149.9 270,148.4 275,146.9 280,145.6 285,144.4 290,143.2 295,142.2 300,141.3 305,140.5 310,139.8 315,139.2 320,138.8 325,138.4 330,138.2 335,138.2 340,138.2 345,138.4 350,138.7 355,139.2 360,139.7 365,140.4 370,141.2 375,142.1 380,143.1 385,144.2 390,145.4 395,146.8 400,148.2" fill="none" stroke="#fbbf24" stroke-width="1.5" opacity="0.30" />
    <polyline points="0,9.5 5,12.5 10,15.5 15,18.4 20,21.3 25,24.0 30,26.5 35,28.8 40,30.9 45,32.7 50,34.3 55,35.5 60,36.4 65,37.0 70,37.3 75,37.2 80,36.7 85,36.0 90,34.9 95,33.5 100,31.8 105,29.8 110,27.6 115,25.2 120,22.5 125,19.8 130,16.9 135,13.9 140,10.8 145,7.8 150,4.8 155,1.9 160,-1.0 165,-3.6 170,-6.2 175,-8.5 180,-10.5 185,-12.3 190,-13.9 195,-15.1 200,-16.0 205,-16.5 210,-16.8 215,-16.7 220,-16.2 225,-15.4 230,-14.3 235,-12.9 240,-11.2 245,-9.2 250,-7.0 255,-4.5 260,-1.9 265,0.9 270,3.8 275,6.8 280,9.8 285,12.8 290,15.8 295,18.8 300,21.6 305,24.3 310,26.8 315,29.1 320,31.1 325,32.9 330,34.4 335,35.6 340,36.5 345,37.0 350,37.3 355,37.1 360,36.7 365,35.9 370,34.7 375,33.3 380,31.6 385,29.6 390,27.3 395,24.9 400,22.2" fill="none" stroke="#ef4444" stroke-width="2.0" opacity="0.13" /></g>
  <rect x="62.4" y="533.6" width="25.0" height="25.0" fill="#ef4444" opacity="0.24" />
    <polygon points="156.4,235.9 174.0,253.4 156.4,271.0 138.9,253.4" fill="#ef4444" opacity="0.18" />
    <polygon points="57.0,123.3 75.0,141.3 57.0,159.3 39.0,141.3" fill="#22c55e" opacity="0.10" />
    <polygon points="300.0,278.2 331.7,309.9 300.0,341.6 268.3,309.9" fill="#ef4444" opacity="0.31" />
    <rect x="160.9" y="396.1" width="32.2" height="32.2" fill="#ef4444" opacity="0.24" />
    <rect x="305.4" y="309.4" width="24.9" height="24.9" fill="#fbbf24" opacity="0.36" />
    <polygon points="388.8,407.7 419.9,469.9 357.7,469.9" fill="#fbbf24" opacity="0.29" />
    <circle cx="101.5" cy="512.8" r="30.2" fill="#ef4444" opacity="0.13" />
    <polygon points="256.1,43.1 300.4,131.7 211.8,131.7" fill="#22c55e" opacity="0.23" />
    <circle cx="22.2" cy="469.2" r="16.5" fill="#22c55e" opacity="0.11" />
    <polygon points="367.5,24.9 389.9,47.3 367.5,69.6 345.2,47.3" fill="#22c55e" opacity="0.14" />
  
  <!-- Text background banner -->
  <defs>
    <linearGradient id="text-bg-14" x1="0%" y1="0%" x2="100%" y2="0%">
      <stop offset="0%" style="stop-color:#000000;stop-opacity:0.7" />
      <stop offset="50%" style="stop-color:#ef4444;stop-opacity:0.4" />
      <stop offset="100%" style="stop-color:#000000;stop-opacity:0.7" />
    </linearGradient>
  </defs>
  <rect x="0" y="494" width="400" height="56" fill="url(#text-bg-14)" />

  <!-- Text shadow -->
  <text x="200" y="522" font-family="system-ui, -apple-system, sans-serif" font-size="24" font-weight="bold" text-anchor="middle" fill="#000000" opacity="0.8">Patriotic Pete</text>

  <!-- Main text -->
  <text x="200" y="520" font-family="system-ui, -apple-system, sans-serif" font-size="24" font-weight="bold" text-anchor="middle" fill="#ffffff">Patriotic Pete</text>
  
  <!-- Rarity border -->
  <rect x="4" y="4" width="392" height="542"
        fill="none" stroke="#eab308" stroke-width="8" rx="8" ry="8" />
</svg>