<?xml version="1.0" encoding="UTF-8"?>
<svg xmlns="http://www.w3.org/2000/svg" viewBox="0 0 400 550" width="400" height="550">
  <defs>
    <linearGradient id="bg-gradient-082" x1="0%" y1="0%" x2="100%" y2="100%">
      <stop offset="0%" style="stop-color:#64748b;stop-opacity:0.26" />
      <stop offset="50%" style="stop-color:#94a3b8;stop-opacity:0.4" />
      <stop offset="100%" style="stop-color:#64748b;stop-opacity:0.26" />
    </linearGradient>
    
  <filter id="shadow-082">
    <feDropShadow dx="0" dy="2" stdDeviation="3" flood-opacity="0.8"/>
  </filter>
  </defs>
  <rect width="400" height="550" fill="url(#bg-gradient-0.06552457646466792)" />
  <g opacity="0.3"><rect x="122.5" y="-9.2" width="26.5" height="26.5" fill="none" stroke="#94a3b8" stroke-width="2.3" opacity="0.19" />
    <circle cx="250.7" cy="138.0" r="33.4" fill="none" stroke="#64748b" stroke-width="1.1" opacity="0.14" />
    <circle cx="56.8" cy="388.7" r="19.0" fill="none" stroke="#94a3b8" stroke-width="2.0" opacity="0.25" />
    <circle cx="106.5" cy="484.1" r="17.4" fill="none" stroke="#94a3b8" stroke-width="1.7" opacity="0.20" />
    <circle cx="214.8" cy="363.4" r="34.9" fill="none" stroke="#64748b" stroke-width="2.8" opacity="0.22" />
    <circle cx="332.6" cy="66.4" r="31.7" fill="none" stroke="#94a3b8" stroke-width="1.3" opacity="0.12" />
    <circle cx="381.1" cy="166.3" r="31.9" fill="none" stroke="#94a3b8" stroke-width="1.3" opacity="0.16" />
    <rect x="259.9" y="159.6" width="77.5" height="77.5" fill="none" stroke="#fbbf24" stroke-width="2.9" opacity="0.24" />
    <rect x="36.7" y="387.8" width="71.4" height="71.4" fill="none" stroke="#94a3b8" stroke-width="1.7" opacity="0.21" />
    <circle cx="393.3" cy="491.9" r="33.2" fill="none" stroke="#94a3b8" stroke-width="1.4" opacity="0.18" />
    <rect x="17.8" y="103.9" width="24.5" height="24.5" fill="none" stroke="#64748b" stroke-width="1.8" opacity="0.12" /></g>
  <polygon points="154.2,450.8 173.6,470.2 154.2,489.7 134.7,470.2" fill="#94a3b8" opacity="0.36" />
    <rect x="29.9" y="393.0" width="69.7" height="69.7" fill="#94a3b8" opacity="0.17" />
    <polygon points="145.2,266.0 157.0,289.6 133.4,289.6" fill="#fbbf24" opacity="0.24" />
    <circle cx="207.2" cy="291.3" r="47.9" fill="#64748b" opacity="0.22" />
    <rect x="338.9" y="373.9" width="94.3" height="94.3" fill="#94a3b8" opacity="0.39" />
    <circle cx="309.1" cy="507.5" r="43.9" fill="#fbbf24" opacity="0.35" />
    <circle cx="233.2" cy="138.4" r="46.2" fill="#94a3b8" opacity="0.15" />
    <rect x="356.9" y="417.6" width="44.2" height="44.2" fill="#fbbf24" opacity="0.39" />
    <polygon points="300.5,515.9 311.8,527.2 300.5,538.4 289.3,527.2" fill="#94a3b8" opacity="0.40" />
    <polygon points="263.3,-1.4 312.9,97.8 213.8,97.8" fill="#fbbf24" opacity="0.31" />
    <polygon points="382.7,347.1 429.2,393.6 382.7,440.1 336.1,393.6" fill="#fbbf24" opacity="0.24" />
    <polygon points="180.9,235.8 213.8,301.4 148.1,301.4" fill="#94a3b8" opacity="0.14" />
    <rect x="-7.6" y="-13.5" width="59.3" height="59.3" fill="#94a3b8" opacity="0.23" />
    <rect x="288.5" y="479.1" width="88.7" height="88.7" fill="#64748b" opacity="0.30" />
  
  <!-- Text background banner -->
  <defs>
    <linearGradient id="text-bg-22" x1="0%" y1="0%" x2="100%" y2="0%">
      <stop offset="0%" style="stop-color:#000000;stop-opacity:0.7" />
      <stop offset="50%" style="stop-color:#64748b;stop-opacity:0.4" />
      <stop offset="100%" style="stop-color:#000000;stop-opacity:0.7" />
    </linearGradient>
  </defs>
  <rect x="0" y="494" width="400" height="56" fill="url(#text-bg-22)" />

  <!-- Text shadow -->
  <text x="200" y="522" font-family="system-ui, -apple-system, sans-serif" font-size="24" font-weight="bold" text-anchor="middle" fill="#000000" opacity="0.8">Inflatable Island Ivan</text>

  <!-- Main text -->
  <text x="200" y="520" font-family="system-ui, -apple-system, sans-serif" font-size="24" font-weight="bold" text-anchor="middle" fill="#ffffff">Inflatable Island Ivan</text>
  
  <!-- Rarity border -->
  <rect x="5" y="5" width="390" height="540"
        fill="none" stroke="#a855f7" stroke-width="10" rx="8" ry="8" />
</svg>