<?xml version="1.0" encoding="UTF-8"?>
<svg xmlns="http://www.w3.org/2000/svg" viewBox="0 0 400 550" width="400" height="550">
  <defs>
    <linearGradient id="bg-gradient-083" x1="0%" y1="0%" x2="100%" y2="100%">
      <stop offset="0%" style="stop-color:#06b6d4;stop-opacity:0.26" />
      <stop offset="50%" style="stop-color:#3b82f6;stop-opacity:0.4" />
      <stop offset="100%" style="stop-color:#06b6d4;stop-opacity:0.26" />
    </linearGradient>
    
  <filter id="shadow-083">
    <feDropShadow dx="0" dy="2" stdDeviation="3" flood-opacity="0.8"/>
  </filter>
  </defs>
  <rect width="400" height="550" fill="url(#bg-gradient-0.9112843417096883)" />
  <g opacity="0.3"><line x1="0" y1="457.6" x2="400" y2="457.6" stroke="#22d3ee" stroke-width="2.6" opacity="0.24" />
    <line x1="336.6" y1="0" x2="336.6" y2="550" stroke="#06b6d4" stroke-width="1.9" opacity="0.13" />
    <line x1="0" y1="220.4" x2="400" y2="220.4" stroke="#3b82f6" stroke-width="2.8" opacity="0.33" />
    <line x1="0" y1="192.7" x2="400" y2="192.7" stroke="#06b6d4" stroke-width="1.8" opacity="0.20" />
    <line x1="0" y1="86.8" x2="400" y2="86.8" stroke="#22d3ee" stroke-width="3.6" opacity="0.20" />
    <line x1="0" y1="169.8" x2="400" y2="169.8" stroke="#22d3ee" stroke-width="2.6" opacity="0.13" />
    <line x1="191.4" y1="0" x2="191.4" y2="550" stroke="#06b6d4" stroke-width="2.7" opacity="0.32" />
    <line x1="0" y1="135.8" x2="400" y2="135.8" stroke="#22d3ee" stroke-width="2.2" opacity="0.23" />
    <line x1="0" y1="24.8" x2="400" y2="24.8" stroke="#22d3ee" stroke-width="2.5" opacity="0.29" />
    <line x1="204.3" y1="0" x2="204.3" y2="550" stroke="#22d3ee" stroke-width="1.3" opacity="0.33" />
    <line x1="348.9" y1="0" x2="348.9" y2="550" stroke="#3b82f6" stroke-width="3.6" opacity="0.28" />
    <line x1="156.9" y1="0" x2="156.9" y2="550" stroke="#3b82f6" stroke-width="2.9" opacity="0.13" />
    <line x1="207.1" y1="0" x2="207.1" y2="550" stroke="#06b6d4" stroke-width="3.9" opacity="0.30" />
    <line x1="377.7" y1="0" x2="377.7" y2="550" stroke="#06b6d4" stroke-width="3.7" opacity="0.29" />
    <line x1="0" y1="450.4" x2="400" y2="450.4" stroke="#22d3ee" stroke-width="3.8" opacity="0.39" />
    <line x1="225.5" y1="0" x2="225.5" y2="550" stroke="#3b82f6" stroke-width="1.7" opacity="0.40" />
    <line x1="319.4" y1="0" x2="319.4" y2="550" stroke="#22d3ee" stroke-width="3.5" opacity="0.24" />
    <line x1="0" y1="231.2" x2="400" y2="231.2" stroke="#3b82f6" stroke-width="3.9" opacity="0.22" />
    <line x1="0" y1="212.9" x2="400" y2="212.9" stroke="#06b6d4" stroke-width="2.8" opacity="0.26" />
    <line x1="0" y1="496.0" x2="400" y2="496.0" stroke="#22d3ee" stroke-width="1.0" opacity="0.40" />
    <line x1="341.2" y1="0" x2="341.2" y2="550" stroke="#3b82f6" stroke-width="1.7" opacity="0.18" />
    <line x1="0" y1="446.7" x2="400" y2="446.7" stroke="#06b6d4" stroke-width="3.9" opacity="0.23" />
    <line x1="0" y1="150.2" x2="400" y2="150.2" stroke="#06b6d4" stroke-width="3.9" opacity="0.32" />
    <line x1="0" y1="55.6" x2="400" y2="55.6" stroke="#3b82f6" stroke-width="2.1" opacity="0.17" />
    <line x1="0" y1="454.7" x2="400" y2="454.7" stroke="#3b82f6" stroke-width="4.0" opacity="0.39" />
    <line x1="89.3" y1="0" x2="89.3" y2="550" stroke="#3b82f6" stroke-width="1.5" opacity="0.28" />
    <line x1="226.6" y1="0" x2="226.6" y2="550" stroke="#06b6d4" stroke-width="1.4" opacity="0.14" />
    <line x1="271.0" y1="0" x2="271.0" y2="550" stroke="#06b6d4" stroke-width="2.2" opacity="0.19" />
    <line x1="0" y1="464.0" x2="400" y2="464.0" stroke="#06b6d4" stroke-width="2.4" opacity="0.20" />
    <line x1="326.7" y1="0" x2="326.7" y2="550" stroke="#22d3ee" stroke-width="1.1" opacity="0.29" /></g>
  <rect x="281.4" y="262.9" width="37.2" height="37.2" fill="#22d3ee" opacity="0.36" />
    <polygon points="180.9,157.1 205.6,206.3 156.3,206.3" fill="#06b6d4" opacity="0.12" />
    <circle cx="219.1" cy="492.4" r="48.4" fill="#3b82f6" opacity="0.36" />
    <polygon points="357.2,320.1 388.1,381.9 326.4,381.9" fill="#3b82f6" opacity="0.20" />
    <polygon points="127.6,324.1 149.8,346.2 127.6,368.3 105.5,346.2" fill="#3b82f6" opacity="0.35" />
    <polygon points="107.3,341.5 136.6,400.1 78.0,400.1" fill="#06b6d4" opacity="0.31" />
    <polygon points="6.2,287.6 31.5,312.9 6.2,338.2 -19.1,312.9" fill="#22d3ee" opacity="0.24" />
    <rect x="155.9" y="-9.0" width="71.4" height="71.4" fill="#06b6d4" opacity="0.30" />
    <polygon points="90.0,-2.7 118.2,25.6 90.0,53.8 61.8,25.6" fill="#22d3ee" opacity="0.22" />
    <rect x="234.5" y="200.6" width="90.8" height="90.8" fill="#3b82f6" opacity="0.39" />
    <rect x="30.9" y="30.6" width="95.6" height="95.6" fill="#3b82f6" opacity="0.40" />
    <polygon points="3.6,67.4 20.0,100.3 -12.9,100.3" fill="#22d3ee" opacity="0.26" />
    <polygon points="315.5,117.2 329.2,130.8 315.5,144.5 301.9,130.8" fill="#06b6d4" opacity="0.13" />
    <polygon points="31.8,124.4 49.3,141.9 31.8,159.4 14.3,141.9" fill="#3b82f6" opacity="0.40" />
    <polygon points="47.7,131.2 63.6,147.1 47.7,163.1 31.7,147.1" fill="#06b6d4" opacity="0.36" />
    <polygon points="123.2,489.6 143.4,509.8 123.2,529.9 103.1,509.8" fill="#22d3ee" opacity="0.31" />
    <polygon points="258.0,260.7 278.6,301.8 237.4,301.8" fill="#06b6d4" opacity="0.26" />
  
  <!-- Text background banner -->
  <defs>
    <linearGradient id="text-bg-19" x1="0%" y1="0%" x2="100%" y2="0%">
      <stop offset="0%" style="stop-color:#000000;stop-opacity:0.7" />
      <stop offset="50%" style="stop-color:#06b6d4;stop-opacity:0.4" />
      <stop offset="100%" style="stop-color:#000000;stop-opacity:0.7" />
    </linearGradient>
  </defs>
  <rect x="0" y="494" width="400" height="56" fill="url(#text-bg-19)" />

  <!-- Text shadow -->
  <text x="200" y="522" font-family="system-ui, -apple-system, sans-serif" font-size="24" font-weight="bold" text-anchor="middle" fill="#000000" opacity="0.8">Iron Dad Tony Stark</text>

  <!-- Main text -->
  <text x="200" y="520" font-family="system-ui, -apple-system, sans-serif" font-size="24" font-weight="bold" text-anchor="middle" fill="#ffffff">Iron Dad Tony Stark</text>
  
  <!-- Rarity border -->
  <rect x="6" y="6" width="388" height="538"
        fill="none" stroke="#f97316" stroke-width="12" rx="8" ry="8" />
</svg>