<?xml version="1.0" encoding="UTF-8"?>
<svg xmlns="http://www.w3.org/2000/svg" viewBox="0 0 400 550" width="400" height="550">
  <defs>
    <linearGradient id="bg-gradient-084" x1="0%" y1="0%" x2="100%" y2="100%">
      <stop offset="0%" style="stop-color:#3b82f6;stop-opacity:0.26" />
      <stop offset="50%" style="stop-color:#6366f1;stop-opacity:0.4" />
      <stop offset="100%" style="stop-color:#3b82f6;stop-opacity:0.26" />
    </linearGradient>
    
  <filter id="shadow-084">
    <feDropShadow dx="0" dy="2" stdDeviation="3" flood-opacity="0.8"/>
  </filter>
  </defs>
  <rect width="400" height="550" fill="url(#bg-gradient-0.807541592977941)" />
  <g opacity="0.3"><polyline points="0,178.5 5,174.5 10,170.5 15,166.4 20,162.3 25,158.3 30,154.5 35,151.0 40,147.7 45,144.7 50,142.1 55,139.9 60,138.2 65,136.9 70,136.1 75,135.9 80,136.1 85,136.9 90,138.1 95,139.8 100,142.0 105,144.6 110,147.5 115,150.8 120,154.4 125,158.2 130,162.2 135,166.2 140,170.3 145,174.4 150,178.4 155,182.2 160,185.8 165,189.2 170,192.2 175,194.9 180,197.1 185,199.0 190,200.3 195,201.2 200,201.5 205,201.4 210,200.7 215,199.5 220,197.9 225,195.8 230,193.3 235,190.4 240,187.1 245,183.6 250,179.8 255,175.9 260,171.9 265,167.8 270,163.7 275,159.7 280,155.8 285,152.2 290,148.8 295,145.7 300,142.9 305,140.6 310,138.7 315,137.3 320,136.3 325,135.9 330,136.0 335,136.5 340,137.6 345,139.2 350,141.2 355,143.6 360,146.5 365,149.7 370,153.1 375,156.9 380,160.8 385,164.8 390,168.9 395,173.0 400,177.0" fill="none" stroke="#6366f1" stroke-width="1.9" opacity="0.11" />
    <polyline points="0,251.9 5,251.0 10,250.6 15,250.6 20,251.0 25,251.9 30,253.2 35,254.9 40,257.0 45,259.4 50,262.1 55,265.1 60,268.3 65,271.6 70,275.1 75,278.5 80,282.0 85,285.4 90,288.7 95,291.8 100,294.7 105,297.3 110,299.6 115,301.5 120,303.0 125,304.2 130,304.9 135,305.1 140,305.0 145,304.3 150,303.3 155,301.8 160,299.9 165,297.7 170,295.1 175,292.3 180,289.2 185,286.0 190,282.6 195,279.1 200,275.6 205,272.2 210,268.8 215,265.6 220,262.6 225,259.8 230,257.4 235,255.2 240,253.4 245,252.1 250,251.1 255,250.6 260,250.5 265,250.9 270,251.7 275,253.0 280,254.6 285,256.6 290,259.0 295,261.7 300,264.6 305,267.8 310,271.1 315,274.5 320,278.0 325,281.5 330,284.9 335,288.2 340,291.3 345,294.3 350,296.9 355,299.2 360,301.2 365,302.8 370,304.0 375,304.8 380,305.1 385,305.0 390,304.5 395,303.5 400,302.0" fill="none" stroke="#3b82f6" stroke-width="2.1" opacity="0.30" />
    <polyline points="0,132.6 5,129.9 10,127.0 15,124.1 20,121.1 25,118.1 30,115.1 35,112.3 40,109.7 45,107.2 50,105.1 55,103.2 60,101.7 65,100.6 70,99.8 75,99.4 80,99.5 85,99.9 90,100.8 95,102.0 100,103.6 105,105.5 110,107.7 115,110.2 120,112.9 125,115.7 130,118.7 135,121.7 140,124.7 145,127.6 150,130.5 155,133.2 160,135.7 165,137.9 170,139.8 175,141.4 180,142.7 185,143.5 190,144.0 195,144.0 200,143.7 205,142.9 210,141.8 215,140.3 220,138.4 225,136.3 230,133.9 235,131.2 240,128.4 245,125.5 250,122.5 255,119.5 260,116.5 265,113.6 270,110.9 275,108.4 280,106.1 285,104.1 290,102.4 295,101.1 300,100.1 305,99.5 310,99.4 315,99.6 320,100.3 325,101.3 330,102.8 335,104.5 340,106.6 345,109.0 350,111.6 355,114.3 360,117.2 365,120.2 370,123.2 375,126.2 380,129.1 385,131.9 390,134.5 395,136.9 400,138.9" fill="none" stroke="#8b5cf6" stroke-width="1.3" opacity="0.10" />
    <polyline points="0,319.0 5,319.9 10,321.0 15,322.4 20,323.9 25,325.7 30,327.7 35,329.8 40,332.1 45,334.6 50,337.2 55,339.9 60,342.7 65,345.6 70,348.6 75,351.6 80,354.7 85,357.7 90,360.7 95,363.7 100,366.6 105,369.5 110,372.3 115,374.9 120,377.4 125,379.8 130,382.0 135,384.1 140,385.9 145,387.6 150,389.0 155,390.2 160,391.2 165,391.9 170,392.4 175,392.7 180,392.7 185,392.4 190,392.0 195,391.2 200,390.3 205,389.1 210,387.7 215,386.0 220,384.2 225,382.2 230,380.0 235,377.6 240,375.1 245,372.5 250,369.7 255,366.9 260,363.9 265,361.0 270,357.9 275,354.9 280,351.9 285,348.8 290,345.9 295,343.0 300,340.1 305,337.4 310,334.8 315,332.3 320,330.0 325,327.8 330,325.8 335,324.1 340,322.5 345,321.1 350,320.0 355,319.1 360,318.4 365,318.0 370,317.8 375,317.9 380,318.2 385,318.7 390,319.5 395,320.6 400,321.8" fill="none" stroke="#8b5cf6" stroke-width="1.6" opacity="0.12" />
    <polyline points="0,190.9 5,188.8 10,186.9 15,185.2 20,183.6 25,182.2 30,181.0 35,180.1 40,179.4 45,178.9 50,178.6 55,178.7 60,178.9 65,179.5 70,180.2 75,181.2 80,182.4 85,183.9 90,185.5 95,187.3 100,189.2 105,191.2 110,193.4 115,195.6 120,197.9 125,200.1 130,202.4 135,204.6 140,206.8 145,208.9 150,210.8 155,212.6 160,214.3 165,215.7 170,217.0 175,218.1 180,218.9 185,219.4 190,219.8 195,219.8 200,219.7 205,219.2 210,218.6 215,217.6 220,216.5 225,215.2 230,213.6 235,211.9 240,210.0 245,208.0 250,205.9 255,203.7 260,201.5 265,199.2 270,196.9 275,194.7 280,192.5 285,190.4 290,188.4 295,186.5 300,184.8 305,183.2 310,181.9 315,180.8 320,179.9 325,179.2 330,178.8 335,178.6 340,178.7 345,179.0 350,179.6 355,180.4 360,181.5 365,182.8 370,184.2 375,185.9 380,187.7 385,189.7 390,191.7 395,193.9 400,196.1" fill="none" stroke="#3b82f6" stroke-width="2.4" opacity="0.15" />
    <polyline points="0,55.6 5,56.9 10,58.3 15,59.7 20,61.1 25,62.5 30,64.0 35,65.4 40,66.9 45,68.4 50,69.8 55,71.2 60,72.6 65,73.9 70,75.2 75,76.4 80,77.6 85,78.7 90,79.7 95,80.7 100,81.6 105,82.4 110,83.1 115,83.7 120,84.2 125,84.6 130,85.0 135,85.2 140,85.3 145,85.3 150,85.2 155,85.0 160,84.7 165,84.3 170,83.8 175,83.2 180,82.5 185,81.7 190,80.8 195,79.9 200,78.9 205,77.8 210,76.6 215,75.4 220,74.1 225,72.8 230,71.4 235,70.0 240,68.6 245,67.1 250,65.7 255,64.2 260,62.7 265,61.3 270,59.9 275,58.5 280,57.1 285,55.8 290,54.5 295,53.2 300,52.1 305,51.0 310,49.9 315,49.0 320,48.1 325,47.3 330,46.6 335,46.0 340,45.5 345,45.0 350,44.7 355,44.5 360,44.4 365,44.4 370,44.5 375,44.7 380,45.0 385,45.4 390,45.9 395,46.5 400,47.2" fill="none" stroke="#8b5cf6" stroke-width="2.4" opacity="0.15" />
    <polyline points="0,264.5 5,268.8 10,273.0 15,277.0 20,280.7 25,284.0 30,286.9 35,289.4 40,291.3 45,292.6 50,293.4 55,293.6 60,293.1 65,292.1 70,290.5 75,288.4 80,285.8 85,282.7 90,279.2 95,275.4 100,271.3 105,267.1 110,262.7 115,258.3 120,253.9 125,249.7 130,245.6 135,241.9 140,238.5 145,235.5 150,233.0 155,231.0 160,229.6 165,228.7 170,228.5 175,228.8 180,229.7 185,231.2 190,233.3 195,235.8 200,238.8 205,242.2 210,246.0 215,250.1 220,254.3 225,258.7 230,263.1 235,267.5 240,271.7 245,275.8 250,279.6 255,283.0 260,286.1 265,288.6 270,290.7 275,292.3 280,293.2 285,293.6 290,293.3 295,292.5 300,291.1 305,289.2 310,286.7 315,283.7 320,280.4 325,276.7 330,272.7 335,268.4 340,264.1 345,259.7 350,255.3 355,251.0 360,246.9 365,243.1 370,239.6 375,236.4 380,233.8 385,231.6 390,230.0 395,228.9 400,228.5" fill="none" stroke="#8b5cf6" stroke-width="2.0" opacity="0.30" />
    <polyline points="0,237.6 5,236.6 10,235.8 15,234.9 20,234.1 25,233.4 30,232.6 35,232.0 40,231.4 45,230.8 50,230.3 55,229.9 60,229.5 65,229.2 70,229.0 75,228.8 80,228.7 85,228.6 90,228.6 95,228.7 100,228.8 105,229.0 110,229.3 115,229.6 120,230.0 125,230.4 130,230.9 135,231.5 140,232.1 145,232.7 150,233.4 155,234.2 160,235.0 165,235.9 170,236.8 175,237.7 180,238.6 185,239.6 190,240.7 195,241.7 200,242.8 205,243.9 210,245.0 215,246.1 220,247.2 225,248.3 230,249.4 235,250.5 240,251.7 245,252.8 250,253.8 255,254.9 260,255.9 265,257.0 270,257.9 275,258.9 280,259.8 285,260.7 290,261.5 295,262.3 300,263.1 305,263.8 310,264.4 315,265.0 320,265.6 325,266.1 330,266.5 335,266.9 340,267.2 345,267.4 350,267.6 355,267.7 360,267.8 365,267.7 370,267.7 375,267.5 380,267.3 385,267.1 390,266.7 395,266.3 400,265.9" fill="none" stroke="#6366f1" stroke-width="2.3" opacity="0.12" />
    <polyline points="0,56.0 5,58.1 10,60.4 15,63.0 20,65.7 25,68.5 30,71.5 35,74.5 40,77.6 45,80.8 50,83.9 55,87.0 60,90.1 65,93.1 70,95.9 75,98.6 80,101.1 85,103.4 90,105.5 95,107.4 100,109.0 105,110.3 110,111.4 115,112.1 120,112.5 125,112.6 130,112.5 135,112.0 140,111.2 145,110.1 150,108.7 155,107.0 160,105.1 165,103.0 170,100.6 175,98.0 180,95.3 185,92.4 190,89.5 195,86.4 200,83.3 205,80.1 210,77.0 215,73.9 220,70.8 225,67.9 230,65.1 235,62.4 240,59.9 245,57.6 250,55.6 255,53.8 260,52.2 265,50.9 270,50.0 275,49.3 280,48.9 285,48.8 290,49.1 295,49.6 300,50.5 305,51.6 310,53.1 315,54.8 320,56.7 325,58.9 330,61.3 335,63.9 340,66.7 345,69.6 350,72.6 355,75.6 360,78.8 365,81.9 370,85.1 375,88.1 380,91.2 385,94.1 390,96.9 395,99.5 400,102.0" fill="none" stroke="#3b82f6" stroke-width="1.8" opacity="0.26" />
    <polyline points="0,260.2 5,261.9 10,263.5 15,265.1 20,266.5 25,267.8 30,268.9 35,269.8 40,270.6 45,271.2 50,271.6 55,271.8 60,271.8 65,271.6 70,271.2 75,270.6 80,269.9 85,268.9 90,267.8 95,266.5 100,265.1 105,263.6 110,261.9 115,260.2 120,258.4 125,256.6 130,254.7 135,252.9 140,251.1 145,249.3 150,247.6 155,245.9 160,244.4 165,243.0 170,241.7 175,240.6 180,239.7 185,238.9 190,238.3 195,237.9 200,237.7 205,237.7 210,237.9 215,238.3 220,238.9 225,239.7 230,240.7 235,241.8 240,243.1 245,244.5 250,246.0 255,247.7 260,249.4 265,251.2 270,253.0 275,254.9 280,256.7 285,258.6 290,260.3 295,262.0 300,263.7 305,265.2 310,266.6 315,267.9 320,269.0 325,269.9 330,270.7 335,271.3 340,271.6 345,271.8 350,271.8 355,271.6 360,271.2 365,270.6 370,269.8 375,268.8 380,267.7 385,266.4 390,265.0 395,263.4 400,261.8" fill="none" stroke="#8b5cf6" stroke-width="2.0" opacity="0.27" /></g>
  <polygon points="210.0,152.1 245.9,188.0 210.0,223.9 174.1,188.0" fill="#8b5cf6" opacity="0.30" />
    <rect x="236.3" y="449.5" width="49.3" height="49.3" fill="#6366f1" opacity="0.19" />
    <rect x="253.6" y="290.8" width="90.4" height="90.4" fill="#3b82f6" opacity="0.18" />
    <rect x="280.4" y="205.7" width="23.3" height="23.3" fill="#3b82f6" opacity="0.22" />
    <polygon points="113.5,218.1 157.0,261.6 113.5,305.1 70.0,261.6" fill="#6366f1" opacity="0.17" />
    <circle cx="318.8" cy="393.5" r="42.5" fill="#8b5cf6" opacity="0.31" />
    <circle cx="161.5" cy="480.5" r="35.8" fill="#6366f1" opacity="0.35" />
    <polygon points="291.0,464.6 314.6,488.2 291.0,511.8 267.4,488.2" fill="#3b82f6" opacity="0.30" />
    <polygon points="20.1,71.7 32.9,84.5 20.1,97.4 7.3,84.5" fill="#6366f1" opacity="0.29" />
    <polygon points="43.3,489.5 90.2,583.2 -3.6,583.2" fill="#8b5cf6" opacity="0.36" />
    <polygon points="168.8,199.0 191.3,221.6 168.8,244.1 146.2,221.6" fill="#8b5cf6" opacity="0.16" />
    <circle cx="297.4" cy="297.0" r="24.2" fill="#3b82f6" opacity="0.36" />
    <polygon points="398.8,-14.6 431.4,50.6 366.3,50.6" fill="#3b82f6" opacity="0.25" />
    <polygon points="18.1,343.7 63.9,435.3 -27.7,435.3" fill="#8b5cf6" opacity="0.26" />
  
  <!-- Text background banner -->
  <defs>
    <linearGradient id="text-bg-22" x1="0%" y1="0%" x2="100%" y2="0%">
      <stop offset="0%" style="stop-color:#000000;stop-opacity:0.7" />
      <stop offset="50%" style="stop-color:#3b82f6;stop-opacity:0.4" />
      <stop offset="100%" style="stop-color:#000000;stop-opacity:0.7" />
    </linearGradient>
  </defs>
  <rect x="0" y="494" width="400" height="56" fill="url(#text-bg-22)" />

  <!-- Text shadow -->
  <text x="200" y="522" font-family="system-ui, -apple-system, sans-serif" font-size="24" font-weight="bold" text-anchor="middle" fill="#000000" opacity="0.8">Hulk Hump Bruce Banner</text>

  <!-- Main text -->
  <text x="200" y="520" font-family="system-ui, -apple-system, sans-serif" font-size="24" font-weight="bold" text-anchor="middle" fill="#ffffff">Hulk Hump Bruce Banner</text>
  
  <!-- Rarity border -->
  <rect x="5" y="5" width="390" height="540"
        fill="none" stroke="#a855f7" stroke-width="10" rx="8" ry="8" />
</svg>