<?xml version="1.0" encoding="UTF-8"?>
<svg xmlns="http://www.w3.org/2000/svg" viewBox="0 0 400 550" width="400" height="550">
  <defs>
    <linearGradient id="bg-gradient-085" x1="0%" y1="0%" x2="100%" y2="100%">
      <stop offset="0%" style="stop-color:#8b5cf6;stop-opacity:0.26" />
      <stop offset="50%" style="stop-color:#ec4899;stop-opacity:0.4" />
      <stop offset="100%" style="stop-color:#8b5cf6;stop-opacity:0.26" />
    </linearGradient>
    
  <filter id="shadow-085">
    <feDropShadow dx="0" dy="2" stdDeviation="3" flood-opacity="0.8"/>
  </filter>
  </defs>
  <rect width="400" height="550" fill="url(#bg-gradient-0.05791665706783533)" />
  <g opacity="0.3"><line x1="313.8" y1="0" x2="313.8" y2="550" stroke="#ec4899" stroke-width="1.6" opacity="0.21" />
    <line x1="0" y1="138.3" x2="400" y2="138.3" stroke="#8b5cf6" stroke-width="2.1" opacity="0.19" />
    <line x1="0" y1="5.5" x2="400" y2="5.5" stroke="#f97316" stroke-width="2.5" opacity="0.35" />
    <line x1="0" y1="459.1" x2="400" y2="459.1" stroke="#8b5cf6" stroke-width="2.0" opacity="0.32" />
    <line x1="0" y1="55.2" x2="400" y2="55.2" stroke="#f97316" stroke-width="2.4" opacity="0.19" />
    <line x1="23.8" y1="0" x2="23.8" y2="550" stroke="#ec4899" stroke-width="1.9" opacity="0.18" />
    <line x1="0" y1="216.2" x2="400" y2="216.2" stroke="#ec4899" stroke-width="2.4" opacity="0.40" />
    <line x1="0" y1="298.9" x2="400" y2="298.9" stroke="#8b5cf6" stroke-width="1.1" opacity="0.12" />
    <line x1="0" y1="247.4" x2="400" y2="247.4" stroke="#f97316" stroke-width="1.1" opacity="0.32" />
    <line x1="0" y1="334.7" x2="400" y2="334.7" stroke="#ec4899" stroke-width="3.2" opacity="0.22" />
    <line x1="82.0" y1="0" x2="82.0" y2="550" stroke="#8b5cf6" stroke-width="1.2" opacity="0.18" />
    <line x1="0" y1="16.2" x2="400" y2="16.2" stroke="#f97316" stroke-width="1.2" opacity="0.18" />
    <line x1="6.4" y1="0" x2="6.4" y2="550" stroke="#ec4899" stroke-width="2.9" opacity="0.25" />
    <line x1="266.6" y1="0" x2="266.6" y2="550" stroke="#8b5cf6" stroke-width="2.0" opacity="0.34" />
    <line x1="322.7" y1="0" x2="322.7" y2="550" stroke="#8b5cf6" stroke-width="3.4" opacity="0.16" />
    <line x1="0" y1="547.5" x2="400" y2="547.5" stroke="#ec4899" stroke-width="2.3" opacity="0.22" />
    <line x1="104.9" y1="0" x2="104.9" y2="550" stroke="#8b5cf6" stroke-width="2.0" opacity="0.32" />
    <line x1="0" y1="413.1" x2="400" y2="413.1" stroke="#8b5cf6" stroke-width="1.2" opacity="0.28" />
    <line x1="0" y1="222.5" x2="400" y2="222.5" stroke="#f97316" stroke-width="1.2" opacity="0.35" />
    <line x1="87.9" y1="0" x2="87.9" y2="550" stroke="#ec4899" stroke-width="2.3" opacity="0.10" /></g>
  <circle cx="387.0" cy="89.8" r="36.2" fill="#f97316" opacity="0.35" />
    <rect x="282.9" y="93.2" width="44.2" height="44.2" fill="#f97316" opacity="0.32" />
    <polygon points="188.8,201.9 219.9,264.0 157.7,264.0" fill="#ec4899" opacity="0.24" />
    <polygon points="391.3,230.1 412.9,251.7 391.3,273.2 369.8,251.7" fill="#f97316" opacity="0.22" />
    <polygon points="215.4,403.6 227.3,415.5 215.4,427.3 203.5,415.5" fill="#ec4899" opacity="0.34" />
    <polygon points="140.8,305.5 154.0,331.9 127.6,331.9" fill="#f97316" opacity="0.17" />
    <polygon points="185.2,132.4 227.2,174.4 185.2,216.4 143.2,174.4" fill="#f97316" opacity="0.23" />
    <polygon points="65.5,132.9 102.0,169.5 65.5,206.1 28.9,169.5" fill="#f97316" opacity="0.20" />
    <circle cx="17.7" cy="538.7" r="41.3" fill="#ec4899" opacity="0.30" />
    <rect x="121.9" y="18.3" width="28.9" height="28.9" fill="#ec4899" opacity="0.27" />
    <polygon points="395.9,-3.8 414.7,33.7 377.2,33.7" fill="#f97316" opacity="0.18" />
  
  <!-- Text background banner -->
  <defs>
    <linearGradient id="text-bg-23" x1="0%" y1="0%" x2="100%" y2="0%">
      <stop offset="0%" style="stop-color:#000000;stop-opacity:0.7" />
      <stop offset="50%" style="stop-color:#8b5cf6;stop-opacity:0.4" />
      <stop offset="100%" style="stop-color:#000000;stop-opacity:0.7" />
    </linearGradient>
  </defs>
  <rect x="0" y="494" width="400" height="56" fill="url(#text-bg-23)" />

  <!-- Text shadow -->
  <text x="200" y="522" font-family="system-ui, -apple-system, sans-serif" font-size="24" font-weight="bold" text-anchor="middle" fill="#000000" opacity="0.8">Spider-Dad Peter Parker</text>

  <!-- Main text -->
  <text x="200" y="520" font-family="system-ui, -apple-system, sans-serif" font-size="24" font-weight="bold" text-anchor="middle" fill="#ffffff">Spider-Dad Peter Parker</text>
  
  <!-- Rarity border -->
  <rect x="4" y="4" width="392" height="542"
        fill="none" stroke="#eab308" stroke-width="8" rx="8" ry="8" />
</svg>