<?xml version="1.0" encoding="UTF-8"?>
<svg xmlns="http://www.w3.org/2000/svg" viewBox="0 0 400 550" width="400" height="550">
  <defs>
    <linearGradient id="bg-gradient-086" x1="0%" y1="0%" x2="100%" y2="100%">
      <stop offset="0%" style="stop-color:#6366f1;stop-opacity:0.26" />
      <stop offset="50%" style="stop-color:#8b5cf6;stop-opacity:0.4" />
      <stop offset="100%" style="stop-color:#6366f1;stop-opacity:0.26" />
    </linearGradient>
    
  <filter id="shadow-086">
    <feDropShadow dx="0" dy="2" stdDeviation="3" flood-opacity="0.8"/>
  </filter>
  </defs>
  <rect width="400" height="550" fill="url(#bg-gradient-0.34082450065761805)" />
  <g opacity="0.3"><polyline points="0,316.2 5,314.7 10,313.3 15,312.0 20,310.8 25,309.7 30,308.7 35,307.8 40,307.0 45,306.3 50,305.7 55,305.3 60,305.0 65,304.8 70,304.7 75,304.8 80,304.9 85,305.2 90,305.6 95,306.2 100,306.8 105,307.6 110,308.5 115,309.5 120,310.6 125,311.8 130,313.1 135,314.5 140,315.9 145,317.5 150,319.1 155,320.8 160,322.6 165,324.4 170,326.2 175,328.2 180,330.1 185,332.1 190,334.1 195,336.1 200,338.1 205,340.1 210,342.1 215,344.0 220,346.0 225,347.9 230,349.8 235,351.6 240,353.4 245,355.1 250,356.8 255,358.4 260,359.9 265,361.3 270,362.6 275,363.8 280,365.0 285,366.0 290,366.9 295,367.7 300,368.4 305,369.0 310,369.5 315,369.8 320,370.0 325,370.1 330,370.1 335,369.9 340,369.6 345,369.2 350,368.7 355,368.1 360,367.3 365,366.5 370,365.5 375,364.4 380,363.2 385,362.0 390,360.6 395,359.1 400,357.6" fill="none" stroke="#ec4899" stroke-width="2.3" opacity="0.23" />
    <polyline points="0,427.2 5,427.4 10,427.6 15,427.7 20,427.7 25,427.6 30,427.5 35,427.3 40,427.0 45,426.6 50,426.1 55,425.6 60,425.0 65,424.3 70,423.6 75,422.8 80,421.9 85,421.0 90,420.0 95,418.9 100,417.8 105,416.6 110,415.4 115,414.1 120,412.8 125,411.5 130,410.1 135,408.7 140,407.3 145,405.9 150,404.4 155,402.9 160,401.4 165,399.9 170,398.4 175,396.9 180,395.5 185,394.0 190,392.5 195,391.1 200,389.7 205,388.3 210,387.0 215,385.7 220,384.4 225,383.2 230,382.0 235,380.8 240,379.8 245,378.7 250,377.8 255,376.9 260,376.0 265,375.3 270,374.6 275,374.0 280,373.4 285,372.9 290,372.5 295,372.2 300,371.9 305,371.8 310,371.7 315,371.7 320,371.7 325,371.9 330,372.1 335,372.4 340,372.8 345,373.3 350,373.8 355,374.4 360,375.1 365,375.8 370,376.7 375,377.6 380,378.5 385,379.5 390,380.6 395,381.7 400,382.9" fill="none" stroke="#6366f1" stroke-width="1.5" opacity="0.21" />
    <polyline points="0,410.8 5,408.8 10,406.9 15,404.8 20,402.8 25,400.8 30,398.8 35,396.9 40,395.1 45,393.5 50,392.0 55,390.7 60,389.5 65,388.6 70,387.9 75,387.4 80,387.2 85,387.2 90,387.5 95,388.0 100,388.7 105,389.7 110,390.9 115,392.2 120,393.8 125,395.4 130,397.2 135,399.1 140,401.1 145,403.1 150,405.2 155,407.2 160,409.2 165,411.1 170,412.9 175,414.5 180,416.0 185,417.4 190,418.5 195,419.5 200,420.2 205,420.7 210,420.9 215,420.9 220,420.7 225,420.2 230,419.5 235,418.6 240,417.4 245,416.1 250,414.5 255,412.9 260,411.1 265,409.2 270,407.2 275,405.2 280,403.2 285,401.1 290,399.2 295,397.3 300,395.4 305,393.8 310,392.2 315,390.9 320,389.7 325,388.7 330,388.0 335,387.5 340,387.2 345,387.2 350,387.4 355,387.9 360,388.6 365,389.5 370,390.6 375,392.0 380,393.5 385,395.1 390,396.9 395,398.8 400,400.8" fill="none" stroke="#6366f1" stroke-width="2.4" opacity="0.17" />
    <polyline points="0,393.7 5,393.5 10,393.5 15,393.5 20,393.7 25,394.0 30,394.4 35,394.9 40,395.5 45,396.3 50,397.1 55,398.1 60,399.1 65,400.3 70,401.5 75,402.8 80,404.1 85,405.6 90,407.0 95,408.6 100,410.1 105,411.7 110,413.3 115,414.9 120,416.4 125,418.0 130,419.6 135,421.1 140,422.6 145,424.0 150,425.4 155,426.7 160,428.0 165,429.1 170,430.2 175,431.2 180,432.1 185,432.9 190,433.6 195,434.1 200,434.6 205,434.9 210,435.1 215,435.2 220,435.2 225,435.0 230,434.7 235,434.3 240,433.8 245,433.2 250,432.5 255,431.6 260,430.7 265,429.7 270,428.5 275,427.3 280,426.0 285,424.7 290,423.3 295,421.8 300,420.3 305,418.8 310,417.2 315,415.6 320,414.0 325,412.4 330,410.8 335,409.3 340,407.7 345,406.2 350,404.8 355,403.4 360,402.1 365,400.8 370,399.7 375,398.6 380,397.6 385,396.7 390,395.9 395,395.2 400,394.6" fill="none" stroke="#8b5cf6" stroke-width="1.4" opacity="0.18" />
    <polyline points="0,322.0 5,317.4 10,313.1 15,309.0 20,305.2 25,301.8 30,298.8 35,296.3 40,294.4 45,292.9 50,292.1 55,291.9 60,292.2 65,293.1 70,294.6 75,296.6 80,299.2 85,302.2 90,305.7 95,309.5 100,313.7 105,318.0 110,322.6 115,327.3 120,332.0 125,336.6 130,341.2 135,345.5 140,349.6 145,353.3 150,356.7 155,359.7 160,362.1 165,364.1 170,365.4 175,366.2 180,366.5 185,366.1 190,365.1 195,363.6 200,361.5 205,358.9 210,355.9 215,352.4 220,348.6 225,344.4 230,340.0 235,335.4 240,330.8 245,326.1 250,321.4 255,316.9 260,312.6 265,308.5 270,304.8 275,301.4 280,298.5 285,296.1 290,294.2 295,292.8 300,292.0 305,291.9 310,292.3 315,293.3 320,294.8 325,296.9 330,299.5 335,302.6 340,306.1 345,310.0 350,314.2 355,318.6 360,323.2 365,327.8 370,332.5 375,337.2 380,341.7 385,346.0 390,350.1 395,353.8 400,357.1" fill="none" stroke="#ec4899" stroke-width="1.6" opacity="0.15" />
    <polyline points="0,359.0 5,356.4 10,354.2 15,352.3 20,350.9 25,349.8 30,349.1 35,348.8 40,349.0 45,349.6 50,350.6 55,352.0 60,353.9 65,356.0 70,358.5 75,361.3 80,364.3 85,367.5 90,370.8 95,374.3 100,377.8 105,381.3 110,384.7 115,388.0 120,391.2 125,394.1 130,396.8 135,399.2 140,401.2 145,402.9 150,404.2 155,405.1 160,405.6 165,405.7 170,405.3 175,404.5 180,403.2 185,401.6 190,399.6 195,397.3 200,394.7 205,391.8 210,388.7 215,385.4 220,382.0 225,378.5 230,375.0 235,371.5 240,368.1 245,364.9 250,361.9 255,359.0 260,356.5 265,354.3 270,352.4 275,350.9 280,349.8 285,349.1 290,348.8 295,349.0 300,349.6 305,350.6 310,352.0 315,353.8 320,356.0 325,358.5 330,361.2 335,364.2 340,367.4 345,370.8 350,374.2 355,377.7 360,381.2 365,384.7 370,388.0 375,391.1 380,394.1 385,396.8 390,399.2 395,401.2 400,402.9" fill="none" stroke="#6366f1" stroke-width="1.5" opacity="0.17" />
    <polyline points="0,204.0 5,203.4 10,202.7 15,202.0 20,201.3 25,200.7 30,200.0 35,199.3 40,198.7 45,198.0 50,197.4 55,196.8 60,196.2 65,195.6 70,195.0 75,194.5 80,194.0 85,193.5 90,193.0 95,192.6 100,192.2 105,191.9 110,191.6 115,191.3 120,191.0 125,190.8 130,190.7 135,190.5 140,190.4 145,190.4 150,190.4 155,190.4 160,190.5 165,190.6 170,190.8 175,191.0 180,191.2 185,191.5 190,191.8 195,192.2 200,192.5 205,192.9 210,193.4 215,193.9 220,194.4 225,194.9 230,195.5 235,196.0 240,196.6 245,197.3 250,197.9 255,198.5 260,199.2 265,199.9 270,200.5 275,201.2 280,201.9 285,202.6 290,203.2 295,203.9 300,204.6 305,205.2 310,205.8 315,206.5 320,207.1 325,207.6 330,208.2 335,208.7 340,209.2 345,209.7 350,210.2 355,210.6 360,211.0 365,211.3 370,211.7 375,211.9 380,212.2 385,212.4 390,212.6 395,212.7 400,212.8" fill="none" stroke="#6366f1" stroke-width="2.4" opacity="0.14" />
    <polyline points="0,6.3 5,5.3 10,4.7 15,4.5 20,4.7 25,5.3 30,6.4 35,7.9 40,9.7 45,12.0 50,14.5 55,17.3 60,20.4 65,23.7 70,27.2 75,30.8 80,34.5 85,38.2 90,41.9 95,45.6 100,49.1 105,52.4 110,55.6 115,58.5 120,61.1 125,63.4 130,65.3 135,66.9 140,68.0 145,68.8 150,69.1 155,69.0 160,68.4 165,67.5 170,66.1 175,64.4 180,62.3 185,59.8 190,57.1 195,54.0 200,50.8 205,47.3 210,43.8 215,40.1 220,36.4 225,32.7 230,29.0 235,25.5 240,22.0 245,18.8 250,15.9 255,13.2 260,10.8 265,8.8 270,7.1 275,5.8 280,5.0 285,4.5 290,4.5 295,4.9 300,5.8 305,7.0 310,8.6 315,10.7 320,13.0 325,15.7 330,18.7 335,21.8 340,25.2 345,28.8 350,32.4 355,36.1 360,39.9 365,43.5 370,47.1 375,50.6 380,53.8 385,56.9 390,59.7 395,62.1 400,64.3" fill="none" stroke="#8b5cf6" stroke-width="2.5" opacity="0.25" />
    <polyline points="0,282.8 5,284.4 10,285.8 15,286.8 20,287.6 25,288.0 30,288.1 35,288.0 40,287.5 45,286.7 50,285.6 55,284.3 60,282.6 65,280.7 70,278.6 75,276.2 80,273.7 85,270.9 90,268.0 95,265.0 100,261.9 105,258.7 110,255.4 115,252.2 120,249.0 125,245.8 130,242.6 135,239.6 140,236.7 145,234.0 150,231.4 155,229.1 160,227.0 165,225.1 170,223.4 175,222.1 180,221.0 185,220.3 190,219.8 195,219.6 200,219.8 205,220.3 210,221.0 215,222.1 220,223.4 225,225.1 230,227.0 235,229.1 240,231.4 245,234.0 250,236.7 255,239.6 260,242.6 265,245.8 270,249.0 275,252.2 280,255.5 285,258.7 290,261.9 295,265.0 300,268.0 305,270.9 310,273.7 315,276.2 320,278.6 325,280.7 330,282.6 335,284.3 340,285.6 345,286.7 350,287.5 355,288.0 360,288.1 365,288.0 370,287.6 375,286.8 380,285.7 385,284.4 390,282.8 395,280.9 400,278.8" fill="none" stroke="#6366f1" stroke-width="2.7" opacity="0.16" />
    <polyline points="0,119.1 5,120.4 10,121.9 15,123.6 20,125.5 25,127.4 30,129.4 35,131.5 40,133.5 45,135.4 50,137.3 55,139.0 60,140.5 65,141.8 70,142.9 75,143.7 80,144.2 85,144.5 90,144.5 95,144.1 100,143.5 105,142.7 110,141.5 115,140.2 120,138.6 125,136.9 130,135.0 135,133.1 140,131.0 145,129.0 150,127.0 155,125.1 160,123.3 165,121.6 170,120.1 175,118.8 180,117.8 185,117.0 190,116.5 195,116.2 200,116.3 205,116.7 210,117.3 215,118.2 220,119.4 225,120.7 230,122.3 235,124.1 240,126.0 245,127.9 250,129.9 255,132.0 260,134.0 265,135.9 270,137.7 275,139.4 280,140.8 285,142.1 290,143.1 295,143.9 300,144.3 305,144.5 310,144.4 315,144.0 320,143.3 325,142.4 330,141.2 335,139.8 340,138.2 345,136.4 350,134.5 355,132.6 360,130.5 365,128.5 370,126.5 375,124.6 380,122.8 385,121.2 390,119.7 395,118.5 400,117.5" fill="none" stroke="#8b5cf6" stroke-width="2.7" opacity="0.24" />
    <polyline points="0,410.2 5,410.4 10,410.8 15,411.4 20,412.1 25,413.1 30,414.2 35,415.4 40,416.9 45,418.4 50,420.1 55,421.9 60,423.7 65,425.7 70,427.7 75,429.7 80,431.8 85,433.8 90,435.9 95,437.9 100,439.8 105,441.7 110,443.4 115,445.1 120,446.6 125,448.0 130,449.3 135,450.4 140,451.3 145,452.0 150,452.6 155,452.9 160,453.1 165,453.1 170,452.8 175,452.4 180,451.8 185,451.0 190,450.0 195,448.9 200,447.6 205,446.1 210,444.5 215,442.8 220,441.0 225,439.1 230,437.2 235,435.1 240,433.1 245,431.0 250,429.0 255,427.0 260,425.0 265,423.1 270,421.2 275,419.5 280,417.8 285,416.3 290,415.0 295,413.8 300,412.7 305,411.8 310,411.1 315,410.6 320,410.3 325,410.2 330,410.3 335,410.6 340,411.0 345,411.7 350,412.5 355,413.6 360,414.7 365,416.1 370,417.6 375,419.2 380,420.9 385,422.7 390,424.6 395,426.6 400,428.6" fill="none" stroke="#8b5cf6" stroke-width="2.3" opacity="0.16" />
    <polyline points="0,411.2 5,411.2 10,411.1 15,410.7 20,410.2 25,409.5 30,408.6 35,407.6 40,406.4 45,405.1 50,403.7 55,402.2 60,400.6 65,399.0 70,397.4 75,395.8 80,394.2 85,392.7 90,391.2 95,389.8 100,388.6 105,387.5 110,386.5 115,385.7 120,385.1 125,384.6 130,384.4 135,384.3 140,384.5 145,384.8 150,385.3 155,386.0 160,386.9 165,387.9 170,389.1 175,390.4 180,391.8 185,393.3 190,394.9 195,396.5 200,398.1 205,399.7 210,401.3 215,402.8 220,404.3 225,405.7 230,406.9 235,408.0 240,409.0 245,409.8 250,410.5 255,410.9 260,411.2 265,411.2 270,411.1 275,410.8 280,410.3 285,409.6 290,408.7 295,407.7 300,406.5 305,405.2 310,403.8 315,402.3 320,400.8 325,399.2 330,397.5 335,395.9 340,394.3 345,392.8 350,391.3 355,390.0 360,388.7 365,387.6 370,386.6 375,385.8 380,385.1 385,384.7 390,384.4 395,384.3 400,384.5" fill="none" stroke="#ec4899" stroke-width="2.3" opacity="0.11" /></g>
  <rect x="329.4" y="78.1" width="69.5" height="69.5" fill="#6366f1" opacity="0.10" />
    <polygon points="91.8,296.5 128.2,369.4 55.3,369.4" fill="#6366f1" opacity="0.39" />
    <circle cx="48.0" cy="395.2" r="47.4" fill="#ec4899" opacity="0.24" />
    <rect x="116.4" y="340.3" width="28.4" height="28.4" fill="#8b5cf6" opacity="0.40" />
    <circle cx="46.8" cy="88.1" r="18.5" fill="#6366f1" opacity="0.17" />
    <rect x="46.3" y="157.0" width="57.3" height="57.3" fill="#8b5cf6" opacity="0.27" />
    <polygon points="296.6,101.5 308.6,125.6 284.5,125.6" fill="#6366f1" opacity="0.18" />
    <polygon points="304.5,395.2 337.9,428.7 304.5,462.1 271.1,428.7" fill="#8b5cf6" opacity="0.28" />
    <rect x="102.0" y="402.7" width="72.2" height="72.2" fill="#8b5cf6" opacity="0.33" />
    <circle cx="310.9" cy="139.8" r="24.1" fill="#8b5cf6" opacity="0.24" />
    <rect x="63.9" y="15.8" width="80.2" height="80.2" fill="#6366f1" opacity="0.23" />
    <rect x="74.2" y="434.8" width="57.2" height="57.2" fill="#ec4899" opacity="0.35" />
    <polygon points="33.3,23.2 83.2,73.1 33.3,123.1 -16.7,73.1" fill="#8b5cf6" opacity="0.28" />
    <polygon points="367.3,433.8 389.7,456.2 367.3,478.6 345.0,456.2" fill="#8b5cf6" opacity="0.16" />
    <rect x="157.2" y="366.0" width="69.2" height="69.2" fill="#8b5cf6" opacity="0.13" />
    <polygon points="0.2,51.2 11.2,62.2 0.2,73.2 -10.8,62.2" fill="#ec4899" opacity="0.28" />
    <rect x="342.2" y="514.9" width="45.1" height="45.1" fill="#ec4899" opacity="0.38" />
  
  <!-- Text background banner -->
  <defs>
    <linearGradient id="text-bg-15" x1="0%" y1="0%" x2="100%" y2="0%">
      <stop offset="0%" style="stop-color:#000000;stop-opacity:0.7" />
      <stop offset="50%" style="stop-color:#6366f1;stop-opacity:0.4" />
      <stop offset="100%" style="stop-color:#000000;stop-opacity:0.7" />
    </linearGradient>
  </defs>
  <rect x="0" y="494" width="400" height="56" fill="url(#text-bg-15)" />

  <!-- Text shadow -->
  <text x="200" y="522" font-family="system-ui, -apple-system, sans-serif" font-size="24" font-weight="bold" text-anchor="middle" fill="#000000" opacity="0.8">Darth Dad Vader</text>

  <!-- Main text -->
  <text x="200" y="520" font-family="system-ui, -apple-system, sans-serif" font-size="24" font-weight="bold" text-anchor="middle" fill="#ffffff">Darth Dad Vader</text>
  
  <!-- Rarity border -->
  <rect x="6" y="6" width="388" height="538"
        fill="none" stroke="#f97316" stroke-width="12" rx="8" ry="8" />
</svg>