<?xml version="1.0" encoding="UTF-8"?>
<svg xmlns="http://www.w3.org/2000/svg" viewBox="0 0 400 550" width="400" height="550">
  <defs>
    <linearGradient id="bg-gradient-087" x1="0%" y1="0%" x2="100%" y2="100%">
      <stop offset="0%" style="stop-color:#22c55e;stop-opacity:0.26" />
      <stop offset="50%" style="stop-color:#16a34a;stop-opacity:0.4" />
      <stop offset="100%" style="stop-color:#22c55e;stop-opacity:0.26" />
    </linearGradient>
    
  <filter id="shadow-087">
    <feDropShadow dx="0" dy="2" stdDeviation="3" flood-opacity="0.8"/>
  </filter>
  </defs>
  <rect width="400" height="550" fill="url(#bg-gradient-0.10494599095545709)" />
  <g opacity="0.3"><line x1="379.9" y1="0" x2="379.9" y2="550" stroke="#16a34a" stroke-width="3.0" opacity="0.13" />
    <line x1="176.1" y1="0" x2="176.1" y2="550" stroke="#22c55e" stroke-width="2.1" opacity="0.34" />
    <line x1="0" y1="95.7" x2="400" y2="95.7" stroke="#84cc16" stroke-width="1.2" opacity="0.18" />
    <line x1="275.6" y1="0" x2="275.6" y2="550" stroke="#84cc16" stroke-width="1.1" opacity="0.17" />
    <line x1="287.7" y1="0" x2="287.7" y2="550" stroke="#84cc16" stroke-width="1.3" opacity="0.22" />
    <line x1="0" y1="540.1" x2="400" y2="540.1" stroke="#84cc16" stroke-width="3.3" opacity="0.21" />
    <line x1="222.0" y1="0" x2="222.0" y2="550" stroke="#22c55e" stroke-width="3.3" opacity="0.23" />
    <line x1="0" y1="326.2" x2="400" y2="326.2" stroke="#84cc16" stroke-width="2.2" opacity="0.35" />
    <line x1="65.6" y1="0" x2="65.6" y2="550" stroke="#22c55e" stroke-width="1.7" opacity="0.35" />
    <line x1="244.2" y1="0" x2="244.2" y2="550" stroke="#16a34a" stroke-width="1.2" opacity="0.34" />
    <line x1="213.9" y1="0" x2="213.9" y2="550" stroke="#16a34a" stroke-width="3.2" opacity="0.18" />
    <line x1="0" y1="282.7" x2="400" y2="282.7" stroke="#22c55e" stroke-width="2.9" opacity="0.30" />
    <line x1="0" y1="191.1" x2="400" y2="191.1" stroke="#16a34a" stroke-width="2.8" opacity="0.31" />
    <line x1="0" y1="540.6" x2="400" y2="540.6" stroke="#84cc16" stroke-width="2.8" opacity="0.24" />
    <line x1="0" y1="42.6" x2="400" y2="42.6" stroke="#84cc16" stroke-width="2.1" opacity="0.22" />
    <line x1="0" y1="430.4" x2="400" y2="430.4" stroke="#84cc16" stroke-width="1.9" opacity="0.14" />
    <line x1="339.1" y1="0" x2="339.1" y2="550" stroke="#84cc16" stroke-width="3.9" opacity="0.17" />
    <line x1="0" y1="195.3" x2="400" y2="195.3" stroke="#84cc16" stroke-width="1.4" opacity="0.26" />
    <line x1="0" y1="224.9" x2="400" y2="224.9" stroke="#22c55e" stroke-width="2.7" opacity="0.18" />
    <line x1="0" y1="213.9" x2="400" y2="213.9" stroke="#16a34a" stroke-width="3.6" opacity="0.19" />
    <line x1="0" y1="316.6" x2="400" y2="316.6" stroke="#22c55e" stroke-width="1.4" opacity="0.24" />
    <line x1="0" y1="202.3" x2="400" y2="202.3" stroke="#16a34a" stroke-width="2.6" opacity="0.16" />
    <line x1="38.1" y1="0" x2="38.1" y2="550" stroke="#16a34a" stroke-width="1.1" opacity="0.38" />
    <line x1="132.1" y1="0" x2="132.1" y2="550" stroke="#84cc16" stroke-width="3.4" opacity="0.13" />
    <line x1="0" y1="475.4" x2="400" y2="475.4" stroke="#22c55e" stroke-width="3.9" opacity="0.19" /></g>
  <rect x="40.0" y="83.6" width="86.7" height="86.7" fill="#84cc16" opacity="0.32" />
    <rect x="40.6" y="472.4" width="99.2" height="99.2" fill="#16a34a" opacity="0.38" />
    <rect x="88.9" y="89.1" width="77.5" height="77.5" fill="#22c55e" opacity="0.21" />
    <circle cx="186.4" cy="86.8" r="19.1" fill="#84cc16" opacity="0.15" />
    <rect x="23.2" y="130.6" width="27.3" height="27.3" fill="#84cc16" opacity="0.23" />
    <circle cx="36.0" cy="22.0" r="40.3" fill="#16a34a" opacity="0.28" />
    <polygon points="12.8,103.0 23.5,124.4 2.1,124.4" fill="#22c55e" opacity="0.31" />
    <rect x="282.4" y="451.8" width="52.8" height="52.8" fill="#22c55e" opacity="0.27" />
    <circle cx="288.2" cy="520.4" r="11.6" fill="#16a34a" opacity="0.22" />
    <circle cx="57.0" cy="211.0" r="42.2" fill="#16a34a" opacity="0.39" />
    <circle cx="315.5" cy="494.4" r="44.3" fill="#22c55e" opacity="0.29" />
    <polygon points="119.3,197.7 160.4,279.9 78.2,279.9" fill="#22c55e" opacity="0.22" />
    <polygon points="197.9,497.4 227.9,557.3 168.0,557.3" fill="#84cc16" opacity="0.17" />
    <circle cx="21.9" cy="139.5" r="37.5" fill="#16a34a" opacity="0.35" />
  
  <!-- Text background banner -->
  <defs>
    <linearGradient id="text-bg-15" x1="0%" y1="0%" x2="100%" y2="0%">
      <stop offset="0%" style="stop-color:#000000;stop-opacity:0.7" />
      <stop offset="50%" style="stop-color:#22c55e;stop-opacity:0.4" />
      <stop offset="100%" style="stop-color:#000000;stop-opacity:0.7" />
    </linearGradient>
  </defs>
  <rect x="0" y="494" width="400" height="56" fill="url(#text-bg-15)" />

  <!-- Text shadow -->
  <text x="200" y="522" font-family="system-ui, -apple-system, sans-serif" font-size="24" font-weight="bold" text-anchor="middle" fill="#000000" opacity="0.8">Luke Lawnwalker</text>

  <!-- Main text -->
  <text x="200" y="520" font-family="system-ui, -apple-system, sans-serif" font-size="24" font-weight="bold" text-anchor="middle" fill="#ffffff">Luke Lawnwalker</text>
  
  <!-- Rarity border -->
  <rect x="5" y="5" width="390" height="540"
        fill="none" stroke="#a855f7" stroke-width="10" rx="8" ry="8" />
</svg>