<?xml version="1.0" encoding="UTF-8"?>
<svg xmlns="http://www.w3.org/2000/svg" viewBox="0 0 400 550" width="400" height="550">
  <defs>
    <linearGradient id="bg-gradient-088" x1="0%" y1="0%" x2="100%" y2="100%">
      <stop offset="0%" style="stop-color:#ef4444;stop-opacity:0.26" />
      <stop offset="50%" style="stop-color:#f97316;stop-opacity:0.4" />
      <stop offset="100%" style="stop-color:#ef4444;stop-opacity:0.26" />
    </linearGradient>
    
  <filter id="shadow-088">
    <feDropShadow dx="0" dy="2" stdDeviation="3" flood-opacity="0.8"/>
  </filter>
  </defs>
  <rect width="400" height="550" fill="url(#bg-gradient-0.6900734875816852)" />
  <g opacity="0.3"><polyline points="0,79.1 5,79.5 10,79.8 15,80.0 20,80.0 25,79.9 30,79.7 35,79.3 40,78.8 45,78.2 50,77.5 55,76.6 60,75.6 65,74.6 70,73.4 75,72.1 80,70.7 85,69.3 90,67.8 95,66.2 100,64.5 105,62.8 110,61.0 115,59.2 120,57.3 125,55.5 130,53.6 135,51.7 140,49.9 145,48.0 150,46.2 155,44.4 160,42.7 165,41.0 170,39.3 175,37.8 180,36.3 185,34.9 190,33.5 195,32.3 200,31.2 205,30.2 210,29.2 215,28.4 220,27.8 225,27.2 230,26.8 235,26.5 240,26.3 245,26.3 250,26.4 255,26.6 260,27.0 265,27.4 270,28.0 275,28.8 280,29.6 285,30.6 290,31.6 295,32.8 300,34.1 305,35.4 310,36.9 315,38.4 320,40.0 325,41.7 330,43.4 335,45.2 340,47.0 345,48.8 350,50.7 355,52.5 360,54.4 365,56.3 370,58.1 375,59.9 380,61.7 385,63.5 390,65.2 395,66.8 400,68.4" fill="none" stroke="#f97316" stroke-width="1.3" opacity="0.12" />
    <polyline points="0,222.9 5,219.6 10,216.1 15,212.4 20,208.6 25,204.7 30,200.8 35,196.9 40,193.0 45,189.2 50,185.6 55,182.1 60,178.9 65,175.9 70,173.2 75,170.9 80,168.9 85,167.2 90,166.0 95,165.2 100,164.8 105,164.9 110,165.3 115,166.2 120,167.5 125,169.2 130,171.3 135,173.7 140,176.4 145,179.4 150,182.7 155,186.2 160,189.9 165,193.7 170,197.6 175,201.5 180,205.5 185,209.3 190,213.1 195,216.8 200,220.2 205,223.4 210,226.4 215,229.1 220,231.4 225,233.4 230,235.0 235,236.2 240,237.0 245,237.3 250,237.3 255,236.8 260,235.9 265,234.6 270,232.9 275,230.8 280,228.3 285,225.6 290,222.5 295,219.3 300,215.7 305,212.1 310,208.2 315,204.4 320,200.4 325,196.5 330,192.6 335,188.8 340,185.2 345,181.8 350,178.6 355,175.6 360,173.0 365,170.6 370,168.7 375,167.1 380,165.9 385,165.1 390,164.8 395,164.9 400,165.4" fill="none" stroke="#ef4444" stroke-width="2.6" opacity="0.12" />
    <polyline points="0,433.8 5,432.6 10,431.5 15,430.7 20,430.1 25,429.6 30,429.5 35,429.5 40,429.8 45,430.3 50,431.0 55,431.9 60,433.0 65,434.3 70,435.8 75,437.4 80,439.1 85,440.9 90,442.7 95,444.6 100,446.5 105,448.4 110,450.2 115,452.0 120,453.7 125,455.2 130,456.6 135,457.9 140,458.9 145,459.8 150,460.4 155,460.8 160,461.0 165,461.0 170,460.7 175,460.2 180,459.5 185,458.6 190,457.5 195,456.2 200,454.7 205,453.1 210,451.4 215,449.6 220,447.8 225,445.9 230,444.0 235,442.1 240,440.3 245,438.5 250,436.8 255,435.3 260,433.9 265,432.6 270,431.6 275,430.7 280,430.1 285,429.7 290,429.5 295,429.5 300,429.8 305,430.2 310,430.9 315,431.9 320,433.0 325,434.2 330,435.7 335,437.3 340,439.0 345,440.8 350,442.6 355,444.5 360,446.4 365,448.3 370,450.1 375,451.9 380,453.6 385,455.1 390,456.5 395,457.8 400,458.8" fill="none" stroke="#f97316" stroke-width="1.2" opacity="0.11" />
    <polyline points="0,431.6 5,426.7 10,422.0 15,417.4 20,413.1 25,409.1 30,405.5 35,402.4 40,399.9 45,397.9 50,396.5 55,395.7 60,395.6 65,396.2 70,397.4 75,399.2 80,401.6 85,404.5 90,408.0 95,411.8 100,416.0 105,420.5 110,425.3 115,430.1 120,434.9 125,439.7 130,444.4 135,448.8 140,453.0 145,456.7 150,460.0 155,462.8 160,465.0 165,466.7 170,467.7 175,468.0 180,467.8 185,466.8 190,465.3 195,463.1 200,460.4 205,457.1 210,453.4 215,449.4 220,445.0 225,440.3 230,435.5 235,430.7 240,425.8 245,421.1 250,416.6 255,412.3 260,408.4 265,404.9 270,401.9 275,399.4 280,397.6 285,396.3 290,395.7 295,395.7 300,396.4 305,397.7 310,399.6 315,402.1 320,405.1 325,408.7 330,412.6 335,416.9 340,421.4 345,426.2 350,431.0 355,435.9 360,440.6 365,445.3 370,449.6 375,453.7 380,457.4 385,460.6 390,463.3 395,465.4 400,466.9" fill="none" stroke="#fbbf24" stroke-width="2.2" opacity="0.13" />
    <polyline points="0,545.5 5,544.4 10,543.1 15,541.7 20,540.2 25,538.4 30,536.6 35,534.7 40,532.8 45,530.8 50,528.8 55,526.8 60,524.9 65,523.0 70,521.2 75,519.6 80,518.0 85,516.6 90,515.4 95,514.4 100,513.6 105,513.0 110,512.6 115,512.5 120,512.5 125,512.8 130,513.3 135,514.1 140,515.0 145,516.1 150,517.4 155,518.9 160,520.5 165,522.3 170,524.1 175,526.0 180,528.0 185,530.0 190,532.0 195,534.0 200,535.9 205,537.7 210,539.5 215,541.1 220,542.6 225,543.9 230,545.1 235,546.0 240,546.8 245,547.3 250,547.6 255,547.7 260,547.5 265,547.2 270,546.6 275,545.8 280,544.8 285,543.6 290,542.2 295,540.7 300,539.0 305,537.3 310,535.4 315,533.5 320,531.5 325,529.5 330,527.5 335,525.5 340,523.6 345,521.8 350,520.1 355,518.5 360,517.1 365,515.8 370,514.8 375,513.9 380,513.2 385,512.7 390,512.5 395,512.5 400,512.7" fill="none" stroke="#ef4444" stroke-width="1.6" opacity="0.21" />
    <polyline points="0,318.8 5,318.2 10,317.6 15,317.0 20,316.3 25,315.6 30,314.9 35,314.2 40,313.4 45,312.6 50,311.8 55,311.0 60,310.2 65,309.4 70,308.6 75,307.8 80,307.0 85,306.2 90,305.4 95,304.6 100,303.8 105,303.1 110,302.4 115,301.7 120,301.0 125,300.3 130,299.7 135,299.1 140,298.6 145,298.1 150,297.6 155,297.1 160,296.7 165,296.4 170,296.1 175,295.8 180,295.6 185,295.5 190,295.3 195,295.3 200,295.3 205,295.3 210,295.4 215,295.5 220,295.7 225,295.9 230,296.2 235,296.5 240,296.9 245,297.3 250,297.7 255,298.2 260,298.7 265,299.3 270,299.9 275,300.5 280,301.2 285,301.8 290,302.6 295,303.3 300,304.0 305,304.8 310,305.6 315,306.4 320,307.2 325,308.0 330,308.8 335,309.6 340,310.5 345,311.3 350,312.1 355,312.8 360,313.6 365,314.4 370,315.1 375,315.8 380,316.5 385,317.2 390,317.8 395,318.4 400,318.9" fill="none" stroke="#fbbf24" stroke-width="1.7" opacity="0.20" />
    <polyline points="0,37.0 5,41.1 10,45.3 15,49.4 20,53.5 25,57.4 30,61.1 35,64.5 40,67.7 45,70.6 50,73.1 55,75.2 60,76.9 65,78.2 70,79.1 75,79.4 80,79.3 85,78.8 90,77.8 95,76.4 100,74.5 105,72.2 110,69.6 115,66.6 120,63.3 125,59.7 130,56.0 135,52.0 140,47.9 145,43.8 150,39.6 155,35.4 160,31.3 165,27.4 170,23.6 175,20.0 180,16.7 185,13.7 190,11.1 195,8.8 200,6.9 205,5.4 210,4.4 215,3.9 220,3.7 225,4.1 230,4.9 235,6.2 240,7.9 245,10.0 250,12.5 255,15.3 260,18.5 265,22.0 270,25.7 275,29.5 280,33.6 285,37.7 290,41.9 295,46.1 300,50.2 305,54.2 310,58.1 315,61.7 320,65.1 325,68.3 330,71.1 335,73.5 340,75.6 345,77.2 350,78.4 355,79.2 360,79.5 365,79.3 370,78.7 375,77.6 380,76.0 385,74.1 390,71.8 395,69.1 400,66.0" fill="none" stroke="#fbbf24" stroke-width="1.5" opacity="0.30" />
    <polyline points="0,68.4 5,70.9 10,73.8 15,77.2 20,80.9 25,85.0 30,89.3 35,93.8 40,98.4 45,103.0 50,107.6 55,112.2 60,116.5 65,120.6 70,124.5 75,127.9 80,131.0 85,133.6 90,135.7 95,137.3 100,138.3 105,138.8 110,138.6 115,137.9 120,136.7 125,134.9 130,132.6 135,129.8 140,126.5 145,122.9 150,118.9 155,114.7 160,110.3 165,105.7 170,101.0 175,96.4 180,91.9 185,87.4 190,83.2 195,79.3 200,75.7 205,72.5 210,69.8 215,67.5 220,65.8 225,64.6 230,64.0 235,63.9 240,64.4 245,65.5 250,67.1 255,69.3 260,72.0 265,75.1 270,78.6 275,82.5 280,86.6 285,91.0 290,95.5 295,100.2 300,104.8 305,109.4 310,113.9 315,118.1 320,122.2 325,125.9 330,129.2 335,132.1 340,134.5 345,136.4 350,137.8 355,138.6 360,138.8 365,138.4 370,137.5 375,136.1 380,134.0 385,131.5 390,128.6 395,125.2 400,121.4" fill="none" stroke="#ef4444" stroke-width="3.0" opacity="0.25" /></g>
  <rect x="356.4" y="468.0" width="73.1" height="73.1" fill="#fbbf24" opacity="0.16" />
    <polygon points="77.1,261.6 118.2,302.8 77.1,343.9 35.9,302.8" fill="#ef4444" opacity="0.22" />
    <circle cx="116.1" cy="425.4" r="31.8" fill="#fbbf24" opacity="0.33" />
    <polygon points="206.4,135.9 242.9,172.4 206.4,208.8 170.0,172.4" fill="#f97316" opacity="0.31" />
    <polygon points="184.7,394.4 219.5,464.0 149.9,464.0" fill="#fbbf24" opacity="0.13" />
    <circle cx="150.9" cy="299.9" r="27.8" fill="#fbbf24" opacity="0.35" />
    <polygon points="276.5,277.5 289.7,290.6 276.5,303.8 263.4,290.6" fill="#fbbf24" opacity="0.21" />
    <circle cx="120.6" cy="472.6" r="41.0" fill="#fbbf24" opacity="0.26" />
    <circle cx="325.4" cy="548.3" r="42.4" fill="#fbbf24" opacity="0.26" />
    <polygon points="385.1,233.0 398.4,259.6 371.8,259.6" fill="#f97316" opacity="0.31" />
    <polygon points="214.4,147.3 257.6,233.6 171.3,233.6" fill="#ef4444" opacity="0.13" />
  
  <!-- Text background banner -->
  <defs>
    <linearGradient id="text-bg-20" x1="0%" y1="0%" x2="100%" y2="0%">
      <stop offset="0%" style="stop-color:#000000;stop-opacity:0.7" />
      <stop offset="50%" style="stop-color:#ef4444;stop-opacity:0.4" />
      <stop offset="100%" style="stop-color:#000000;stop-opacity:0.7" />
    </linearGradient>
  </defs>
  <rect x="0" y="494" width="400" height="56" fill="url(#text-bg-20)" />

  <!-- Text shadow -->
  <text x="200" y="522" font-family="system-ui, -apple-system, sans-serif" font-size="24" font-weight="bold" text-anchor="middle" fill="#000000" opacity="0.8">Big Mac Boner-Burger</text>

  <!-- Main text -->
  <text x="200" y="520" font-family="system-ui, -apple-system, sans-serif" font-size="24" font-weight="bold" text-anchor="middle" fill="#ffffff">Big Mac Boner-Burger</text>
  
  <!-- Rarity border -->
  <rect x="4" y="4" width="392" height="542"
        fill="none" stroke="#eab308" stroke-width="8" rx="8" ry="8" />
</svg>