<?xml version="1.0" encoding="UTF-8"?>
<svg xmlns="http://www.w3.org/2000/svg" viewBox="0 0 400 550" width="400" height="550">
  <defs>
    <linearGradient id="bg-gradient-089" x1="0%" y1="0%" x2="100%" y2="100%">
      <stop offset="0%" style="stop-color:#ffffff;stop-opacity:0.26" />
      <stop offset="50%" style="stop-color:#fbbf24;stop-opacity:0.4" />
      <stop offset="100%" style="stop-color:#ffffff;stop-opacity:0.26" />
    </linearGradient>
    
  <filter id="shadow-089">
    <feDropShadow dx="0" dy="2" stdDeviation="3" flood-opacity="0.8"/>
  </filter>
  </defs>
  <rect width="400" height="550" fill="url(#bg-gradient-0.22486741794273257)" />
  <g opacity="0.3"><rect x="100.9" y="384.1" width="65.6" height="65.6" fill="none" stroke="#fbbf24" stroke-width="2.9" opacity="0.21" />
    <circle cx="354.3" cy="308.3" r="24.3" fill="none" stroke="#ef4444" stroke-width="2.9" opacity="0.16" />
    <rect x="259.8" y="381.0" width="28.6" height="28.6" fill="none" stroke="#ffffff" stroke-width="2.3" opacity="0.15" />
    <rect x="115.3" y="450.4" width="63.0" height="63.0" fill="none" stroke="#fbbf24" stroke-width="1.5" opacity="0.16" />
    <rect x="43.8" y="300.4" width="39.0" height="39.0" fill="none" stroke="#ffffff" stroke-width="1.2" opacity="0.19" />
    <rect x="2.4" y="273.5" width="53.8" height="53.8" fill="none" stroke="#ef4444" stroke-width="1.7" opacity="0.27" />
    <rect x="76.3" y="199.3" width="69.9" height="69.9" fill="none" stroke="#fbbf24" stroke-width="1.6" opacity="0.16" />
    <circle cx="326.0" cy="520.2" r="26.9" fill="none" stroke="#fbbf24" stroke-width="1.3" opacity="0.23" />
    <rect x="193.3" y="517.9" width="47.3" height="47.3" fill="none" stroke="#ffffff" stroke-width="2.8" opacity="0.14" />
    <rect x="271.3" y="491.8" width="42.5" height="42.5" fill="none" stroke="#fbbf24" stroke-width="2.5" opacity="0.26" />
    <circle cx="227.3" cy="167.2" r="28.0" fill="none" stroke="#ef4444" stroke-width="1.9" opacity="0.27" /></g>
  <circle cx="220.4" cy="396.0" r="32.6" fill="#ffffff" opacity="0.12" />
    <rect x="164.2" y="506.9" width="79.9" height="79.9" fill="#fbbf24" opacity="0.16" />
    <polygon points="326.2,50.0 360.3,84.1 326.2,118.1 292.2,84.1" fill="#ffffff" opacity="0.22" />
    <polygon points="198.3,485.2 220.2,529.1 176.4,529.1" fill="#ef4444" opacity="0.19" />
    <polygon points="67.2,193.1 111.6,237.6 67.2,282.0 22.8,237.6" fill="#fbbf24" opacity="0.33" />
    <polygon points="394.6,-12.5 442.5,35.4 394.6,83.2 346.7,35.4" fill="#fbbf24" opacity="0.12" />
    <rect x="318.5" y="342.5" width="78.3" height="78.3" fill="#fbbf24" opacity="0.34" />
    <polygon points="204.1,42.1 242.9,80.9 204.1,119.7 165.3,80.9" fill="#fbbf24" opacity="0.27" />
    <rect x="269.1" y="19.4" width="99.7" height="99.7" fill="#ffffff" opacity="0.40" />
    <polygon points="105.1,362.9 151.0,408.8 105.1,454.8 59.1,408.8" fill="#fbbf24" opacity="0.12" />
    <circle cx="2.3" cy="12.8" r="34.0" fill="#fbbf24" opacity="0.15" />
    <polygon points="55.5,125.1 72.5,142.0 55.5,158.9 38.6,142.0" fill="#fbbf24" opacity="0.18" />
    <polygon points="58.2,429.0 68.8,439.7 58.2,450.3 47.5,439.7" fill="#fbbf24" opacity="0.19" />
    <polygon points="24.3,31.5 62.5,69.7 24.3,107.8 -13.8,69.7" fill="#ef4444" opacity="0.27" />
  
  <!-- Text background banner -->
  <defs>
    <linearGradient id="text-bg-20" x1="0%" y1="0%" x2="100%" y2="0%">
      <stop offset="0%" style="stop-color:#000000;stop-opacity:0.7" />
      <stop offset="50%" style="stop-color:#ffffff;stop-opacity:0.4" />
      <stop offset="100%" style="stop-color:#000000;stop-opacity:0.7" />
    </linearGradient>
  </defs>
  <rect x="0" y="494" width="400" height="56" fill="url(#text-bg-20)" />

  <!-- Text shadow -->
  <text x="200" y="522" font-family="system-ui, -apple-system, sans-serif" font-size="24" font-weight="bold" text-anchor="middle" fill="#000000" opacity="0.8">McNugget Nut-Nibbler</text>

  <!-- Main text -->
  <text x="200" y="520" font-family="system-ui, -apple-system, sans-serif" font-size="24" font-weight="bold" text-anchor="middle" fill="#ffffff">McNugget Nut-Nibbler</text>
  
  <!-- Rarity border -->
  <rect x="5" y="5" width="390" height="540"
        fill="none" stroke="#a855f7" stroke-width="10" rx="8" ry="8" />
</svg>