<?xml version="1.0" encoding="UTF-8"?>
<svg xmlns="http://www.w3.org/2000/svg" viewBox="0 0 400 550" width="400" height="550">
  <defs>
    <linearGradient id="bg-gradient-093" x1="0%" y1="0%" x2="100%" y2="100%">
      <stop offset="0%" style="stop-color:#22c55e;stop-opacity:0.26" />
      <stop offset="50%" style="stop-color:#16a34a;stop-opacity:0.4" />
      <stop offset="100%" style="stop-color:#22c55e;stop-opacity:0.26" />
    </linearGradient>
    
  <filter id="shadow-093">
    <feDropShadow dx="0" dy="2" stdDeviation="3" flood-opacity="0.8"/>
  </filter>
  </defs>
  <rect width="400" height="550" fill="url(#bg-gradient-0.9288600003346801)" />
  <g opacity="0.3"><line x1="0" y1="384.9" x2="400" y2="384.9" stroke="#22c55e" stroke-width="1.7" opacity="0.15" />
    <line x1="0" y1="547.2" x2="400" y2="547.2" stroke="#16a34a" stroke-width="3.6" opacity="0.23" />
    <line x1="351.3" y1="0" x2="351.3" y2="550" stroke="#84cc16" stroke-width="3.0" opacity="0.33" />
    <line x1="0" y1="75.5" x2="400" y2="75.5" stroke="#16a34a" stroke-width="1.7" opacity="0.32" />
    <line x1="0" y1="257.2" x2="400" y2="257.2" stroke="#16a34a" stroke-width="2.9" opacity="0.16" />
    <line x1="0" y1="365.9" x2="400" y2="365.9" stroke="#84cc16" stroke-width="2.7" opacity="0.34" />
    <line x1="0" y1="258.3" x2="400" y2="258.3" stroke="#22c55e" stroke-width="3.1" opacity="0.35" />
    <line x1="0" y1="496.0" x2="400" y2="496.0" stroke="#16a34a" stroke-width="3.2" opacity="0.27" />
    <line x1="173.7" y1="0" x2="173.7" y2="550" stroke="#16a34a" stroke-width="3.4" opacity="0.20" />
    <line x1="0" y1="92.6" x2="400" y2="92.6" stroke="#22c55e" stroke-width="1.1" opacity="0.23" />
    <line x1="0" y1="190.7" x2="400" y2="190.7" stroke="#16a34a" stroke-width="3.5" opacity="0.36" />
    <line x1="373.7" y1="0" x2="373.7" y2="550" stroke="#16a34a" stroke-width="1.1" opacity="0.29" />
    <line x1="321.1" y1="0" x2="321.1" y2="550" stroke="#84cc16" stroke-width="3.0" opacity="0.39" />
    <line x1="223.1" y1="0" x2="223.1" y2="550" stroke="#22c55e" stroke-width="1.1" opacity="0.35" />
    <line x1="0" y1="473.8" x2="400" y2="473.8" stroke="#16a34a" stroke-width="1.8" opacity="0.39" />
    <line x1="341.5" y1="0" x2="341.5" y2="550" stroke="#84cc16" stroke-width="1.6" opacity="0.12" />
    <line x1="0" y1="396.6" x2="400" y2="396.6" stroke="#22c55e" stroke-width="3.3" opacity="0.26" />
    <line x1="203.1" y1="0" x2="203.1" y2="550" stroke="#16a34a" stroke-width="2.0" opacity="0.10" />
    <line x1="132.9" y1="0" x2="132.9" y2="550" stroke="#84cc16" stroke-width="3.7" opacity="0.32" />
    <line x1="156.3" y1="0" x2="156.3" y2="550" stroke="#16a34a" stroke-width="3.3" opacity="0.26" />
    <line x1="47.6" y1="0" x2="47.6" y2="550" stroke="#16a34a" stroke-width="1.6" opacity="0.26" />
    <line x1="0" y1="165.6" x2="400" y2="165.6" stroke="#16a34a" stroke-width="3.4" opacity="0.14" />
    <line x1="367.4" y1="0" x2="367.4" y2="550" stroke="#22c55e" stroke-width="1.1" opacity="0.34" />
    <line x1="31.8" y1="0" x2="31.8" y2="550" stroke="#16a34a" stroke-width="1.2" opacity="0.14" />
    <line x1="265.7" y1="0" x2="265.7" y2="550" stroke="#22c55e" stroke-width="3.4" opacity="0.19" />
    <line x1="206.4" y1="0" x2="206.4" y2="550" stroke="#84cc16" stroke-width="1.8" opacity="0.14" />
    <line x1="17.4" y1="0" x2="17.4" y2="550" stroke="#16a34a" stroke-width="3.6" opacity="0.23" />
    <line x1="19.7" y1="0" x2="19.7" y2="550" stroke="#84cc16" stroke-width="1.7" opacity="0.30" />
    <line x1="85.8" y1="0" x2="85.8" y2="550" stroke="#16a34a" stroke-width="3.5" opacity="0.18" />
    <line x1="121.2" y1="0" x2="121.2" y2="550" stroke="#16a34a" stroke-width="3.4" opacity="0.11" />
    <line x1="166.9" y1="0" x2="166.9" y2="550" stroke="#16a34a" stroke-width="3.4" opacity="0.39" />
    <line x1="209.5" y1="0" x2="209.5" y2="550" stroke="#22c55e" stroke-width="1.7" opacity="0.36" />
    <line x1="266.7" y1="0" x2="266.7" y2="550" stroke="#16a34a" stroke-width="3.5" opacity="0.10" />
    <line x1="0" y1="179.3" x2="400" y2="179.3" stroke="#16a34a" stroke-width="1.0" opacity="0.36" />
    <line x1="0" y1="294.4" x2="400" y2="294.4" stroke="#22c55e" stroke-width="2.0" opacity="0.33" /></g>
  <polygon points="253.3,-15.2 274.0,5.5 253.3,26.3 232.6,5.5" fill="#22c55e" opacity="0.38" />
    <rect x="-33.5" y="267.3" width="97.2" height="97.2" fill="#84cc16" opacity="0.35" />
    <circle cx="131.1" cy="139.0" r="46.8" fill="#16a34a" opacity="0.26" />
    <polygon points="105.6,-48.2 155.4,51.5 55.7,51.5" fill="#84cc16" opacity="0.20" />
    <rect x="27.9" y="239.9" width="31.0" height="31.0" fill="#16a34a" opacity="0.31" />
    <polygon points="161.4,3.9 189.6,60.3 133.1,60.3" fill="#16a34a" opacity="0.23" />
    <rect x="331.7" y="140.2" width="90.3" height="90.3" fill="#16a34a" opacity="0.27" />
    <polygon points="94.3,308.9 135.6,391.5 53.0,391.5" fill="#22c55e" opacity="0.23" />
    <circle cx="123.9" cy="437.1" r="42.7" fill="#22c55e" opacity="0.30" />
    <circle cx="96.5" cy="462.9" r="46.8" fill="#84cc16" opacity="0.30" />
    <circle cx="195.9" cy="12.5" r="37.2" fill="#84cc16" opacity="0.16" />
    <circle cx="173.7" cy="316.2" r="15.1" fill="#22c55e" opacity="0.14" />
    <polygon points="218.6,130.4 240.1,173.3 197.2,173.3" fill="#84cc16" opacity="0.31" />
    <polygon points="208.7,450.3 249.6,491.2 208.7,532.1 167.8,491.2" fill="#16a34a" opacity="0.15" />
    <polygon points="272.4,17.7 321.4,66.8 272.4,115.9 223.3,66.8" fill="#84cc16" opacity="0.31" />
    <rect x="40.0" y="110.8" width="95.6" height="95.6" fill="#16a34a" opacity="0.14" />
    <circle cx="120.5" cy="272.7" r="26.7" fill="#22c55e" opacity="0.32" />
    <polygon points="372.3,60.2 402.7,90.7 372.3,121.1 341.8,90.7" fill="#22c55e" opacity="0.32" />
    <polygon points="317.5,462.1 339.2,505.4 295.8,505.4" fill="#84cc16" opacity="0.27" />
    <rect x="7.6" y="263.7" width="41.0" height="41.0" fill="#84cc16" opacity="0.17" />
  
  <!-- Text background banner -->
  <defs>
    <linearGradient id="text-bg-18" x1="0%" y1="0%" x2="100%" y2="0%">
      <stop offset="0%" style="stop-color:#000000;stop-opacity:0.7" />
      <stop offset="50%" style="stop-color:#22c55e;stop-opacity:0.4" />
      <stop offset="100%" style="stop-color:#000000;stop-opacity:0.7" />
    </linearGradient>
  </defs>
  <rect x="0" y="494" width="400" height="56" fill="url(#text-bg-18)" />

  <!-- Text shadow -->
  <text x="200" y="522" font-family="system-ui, -apple-system, sans-serif" font-size="24" font-weight="bold" text-anchor="middle" fill="#000000" opacity="0.8">Leto Lawnreides II</text>

  <!-- Main text -->
  <text x="200" y="520" font-family="system-ui, -apple-system, sans-serif" font-size="24" font-weight="bold" text-anchor="middle" fill="#ffffff">Leto Lawnreides II</text>
  
  <!-- Rarity border -->
  <rect x="8" y="8" width="384" height="534"
        fill="none" stroke="#ec4899" stroke-width="16" rx="8" ry="8" />
</svg>