<?xml version="1.0" encoding="UTF-8"?>
<svg xmlns="http://www.w3.org/2000/svg" viewBox="0 0 400 550" width="400" height="550">
  <defs>
    <linearGradient id="bg-gradient-094" x1="0%" y1="0%" x2="100%" y2="100%">
      <stop offset="0%" style="stop-color:#6366f1;stop-opacity:0.26" />
      <stop offset="50%" style="stop-color:#8b5cf6;stop-opacity:0.4" />
      <stop offset="100%" style="stop-color:#6366f1;stop-opacity:0.26" />
    </linearGradient>
    
  <filter id="shadow-094">
    <feDropShadow dx="0" dy="2" stdDeviation="3" flood-opacity="0.8"/>
  </filter>
  </defs>
  <rect width="400" height="550" fill="url(#bg-gradient-0.8836439200676978)" />
  <g opacity="0.3"><polyline points="0,157.0 5,160.5 10,163.8 15,166.8 20,169.6 25,171.9 30,173.9 35,175.5 40,176.7 45,177.4 50,177.6 55,177.4 60,176.6 65,175.5 70,173.9 75,171.8 80,169.4 85,166.7 90,163.7 95,160.4 100,156.9 105,153.3 110,149.5 115,145.8 120,142.1 125,138.5 130,135.0 135,131.8 140,128.8 145,126.1 150,123.7 155,121.8 160,120.2 165,119.1 170,118.5 175,118.3 180,118.6 185,119.4 190,120.6 195,122.2 200,124.3 205,126.7 210,129.5 215,132.6 220,135.9 225,139.4 230,143.1 235,146.8 240,150.5 245,154.2 250,157.8 255,161.2 260,164.5 265,167.4 270,170.1 275,172.4 280,174.3 285,175.8 290,176.9 295,177.5 300,177.6 305,177.2 310,176.4 315,175.2 320,173.5 325,171.4 330,168.9 335,166.1 340,163.0 345,159.6 350,156.1 355,152.5 360,148.7 365,145.0 370,141.3 375,137.7 380,134.3 385,131.1 390,128.2 395,125.5 400,123.3" fill="none" stroke="#8b5cf6" stroke-width="2.8" opacity="0.29" />
    <polyline points="0,103.7 5,105.1 10,106.6 15,108.1 20,109.6 25,111.1 30,112.5 35,113.9 40,115.3 45,116.7 50,117.9 55,119.1 60,120.3 65,121.3 70,122.2 75,123.0 80,123.7 85,124.3 90,124.8 95,125.1 100,125.3 105,125.4 110,125.3 115,125.1 120,124.8 125,124.3 130,123.8 135,123.1 140,122.3 145,121.3 150,120.3 155,119.2 160,118.0 165,116.7 170,115.4 175,114.0 180,112.6 185,111.1 190,109.7 195,108.2 200,106.7 205,105.2 210,103.8 215,102.4 220,101.0 225,99.7 230,98.5 235,97.4 240,96.3 245,95.4 250,94.5 255,93.8 260,93.2 265,92.7 270,92.3 275,92.1 280,92.0 285,92.0 290,92.2 295,92.5 300,92.9 305,93.5 310,94.1 315,94.9 320,95.8 325,96.8 330,97.9 335,99.1 340,100.3 345,101.6 350,103.0 355,104.4 360,105.9 365,107.4 370,108.9 375,110.3 380,111.8 385,113.3 390,114.7 395,116.0 400,117.3" fill="none" stroke="#8b5cf6" stroke-width="1.5" opacity="0.23" />
    <polyline points="0,32.5 5,30.2 10,27.7 15,25.0 20,22.1 25,19.0 30,15.9 35,12.7 40,9.6 45,6.5 50,3.6 55,0.8 60,-1.7 65,-3.9 70,-5.9 75,-7.5 80,-8.7 85,-9.6 90,-10.0 95,-10.1 100,-9.7 105,-8.9 110,-7.7 115,-6.2 120,-4.3 125,-2.0 130,0.5 135,3.2 140,6.1 145,9.1 150,12.3 155,15.4 160,18.6 165,21.6 170,24.6 175,27.3 180,29.9 185,32.1 190,34.1 195,35.7 200,37.0 205,37.8 210,38.3 215,38.3 220,37.9 225,37.2 230,36.0 235,34.4 240,32.6 245,30.3 250,27.9 255,25.1 260,22.2 265,19.2 270,16.1 275,12.9 280,9.7 285,6.7 290,3.7 295,1.0 300,-1.6 305,-3.8 310,-5.8 315,-7.4 320,-8.7 325,-9.6 330,-10.0 335,-10.1 340,-9.7 345,-8.9 350,-7.8 355,-6.2 360,-4.4 365,-2.2 370,0.3 375,3.0 380,5.9 385,9.0 390,12.1 395,15.3 400,18.4" fill="none" stroke="#6366f1" stroke-width="2.9" opacity="0.16" />
    <polyline points="0,266.2 5,267.3 10,268.1 15,268.7 20,268.9 25,268.8 30,268.5 35,267.8 40,266.8 45,265.6 50,264.1 55,262.4 60,260.4 65,258.3 70,256.0 75,253.7 80,251.2 85,248.7 90,246.1 95,243.6 100,241.2 105,238.8 110,236.6 115,234.6 120,232.7 125,231.1 130,229.7 135,228.6 140,227.7 145,227.2 150,226.9 155,227.0 160,227.4 165,228.0 170,229.0 175,230.2 180,231.7 185,233.4 190,235.3 195,237.4 200,239.7 205,242.1 210,244.6 215,247.1 220,249.6 225,252.1 230,254.6 235,256.9 240,259.1 245,261.2 250,263.0 255,264.7 260,266.1 265,267.2 270,268.1 275,268.6 280,268.9 285,268.8 290,268.5 295,267.9 300,266.9 305,265.7 310,264.2 315,262.5 320,260.6 325,258.5 330,256.2 335,253.8 340,251.4 345,248.9 350,246.3 355,243.8 360,241.4 365,239.0 370,236.8 375,234.7 380,232.9 385,231.2 390,229.8 395,228.7 400,227.8" fill="none" stroke="#8b5cf6" stroke-width="1.8" opacity="0.14" />
    <polyline points="0,263.4 5,264.8 10,266.0 15,267.0 20,267.8 25,268.4 30,268.7 35,268.8 40,268.6 45,268.2 50,267.5 55,266.6 60,265.5 65,264.2 70,262.7 75,261.1 80,259.4 85,257.6 90,255.8 95,254.0 100,252.2 105,250.5 110,248.8 115,247.3 120,246.0 125,244.8 130,243.8 135,243.1 140,242.6 145,242.4 150,242.4 155,242.6 160,243.1 165,243.9 170,244.9 175,246.0 180,247.4 185,248.9 190,250.5 195,252.3 200,254.1 205,255.9 210,257.7 215,259.5 220,261.2 225,262.8 230,264.3 235,265.6 240,266.7 245,267.5 250,268.2 255,268.6 260,268.8 265,268.7 270,268.4 275,267.8 280,267.0 285,266.0 290,264.7 295,263.3 300,261.8 305,260.1 310,258.3 315,256.5 320,254.7 325,252.9 330,251.1 335,249.4 340,247.9 345,246.5 350,245.2 355,244.2 360,243.4 365,242.8 370,242.4 375,242.3 380,242.5 385,242.9 390,243.6 395,244.5 400,245.5" fill="none" stroke="#6366f1" stroke-width="1.8" opacity="0.15" />
    <polyline points="0,308.0 5,307.5 10,306.9 15,306.1 20,305.1 25,304.0 30,302.8 35,301.4 40,299.9 45,298.2 50,296.5 55,294.7 60,292.7 65,290.7 70,288.6 75,286.5 80,284.3 85,282.0 90,279.8 95,277.5 100,275.2 105,272.9 110,270.6 115,268.4 120,266.2 125,264.1 130,262.0 135,260.0 140,258.1 145,256.3 150,254.6 155,253.0 160,251.5 165,250.1 170,248.9 175,247.8 180,246.9 185,246.1 190,245.5 195,245.0 200,244.7 205,244.6 210,244.6 215,244.8 220,245.2 225,245.7 230,246.3 235,247.2 240,248.1 245,249.3 250,250.5 255,251.9 260,253.4 265,255.1 270,256.8 275,258.7 280,260.6 285,262.7 290,264.7 295,266.9 300,269.1 305,271.4 310,273.6 315,275.9 320,278.2 325,280.5 330,282.7 335,285.0 340,287.2 345,289.3 350,291.3 355,293.3 360,295.2 365,297.1 370,298.8 375,300.4 380,301.8 385,303.2 390,304.4 395,305.4 400,306.3" fill="none" stroke="#fbbf24" stroke-width="2.0" opacity="0.17" />
    <polyline points="0,32.8 5,34.4 10,36.1 15,37.6 20,39.2 25,40.6 30,42.0 35,43.3 40,44.5 45,45.5 50,46.5 55,47.3 60,47.9 65,48.5 70,48.9 75,49.1 80,49.2 85,49.1 90,48.9 95,48.5 100,48.0 105,47.4 110,46.6 115,45.6 120,44.6 125,43.4 130,42.2 135,40.8 140,39.4 145,37.9 150,36.3 155,34.7 160,33.0 165,31.3 170,29.6 175,28.0 180,26.3 185,24.7 190,23.1 195,21.6 200,20.2 205,18.8 210,17.6 215,16.4 220,15.4 225,14.5 230,13.7 235,13.0 240,12.5 245,12.2 250,12.0 255,11.9 260,12.0 265,12.3 270,12.7 275,13.2 280,13.9 285,14.7 290,15.7 295,16.7 300,17.9 305,19.2 310,20.6 315,22.1 320,23.6 325,25.2 330,26.8 335,28.5 340,30.1 345,31.8 350,33.5 355,35.1 360,36.7 365,38.3 370,39.8 375,41.2 380,42.6 385,43.8 390,44.9 395,45.9 400,46.8" fill="none" stroke="#fbbf24" stroke-width="2.1" opacity="0.15" />
    <polyline points="0,173.8 5,172.9 10,171.9 15,170.7 20,169.5 25,168.3 30,166.9 35,165.4 40,163.9 45,162.3 50,160.7 55,159.0 60,157.2 65,155.4 70,153.6 75,151.7 80,149.8 85,147.8 90,145.9 95,143.9 100,142.0 105,140.0 110,138.0 115,136.1 120,134.2 125,132.3 130,130.4 135,128.6 140,126.8 145,125.1 150,123.4 155,121.8 160,120.2 165,118.7 170,117.3 175,116.0 180,114.8 185,113.6 190,112.5 195,111.5 200,110.7 205,109.9 210,109.2 215,108.7 220,108.2 225,107.8 230,107.6 235,107.4 240,107.4 245,107.5 250,107.7 255,108.0 260,108.4 265,108.9 270,109.6 275,110.3 280,111.1 285,112.0 290,113.1 295,114.2 300,115.4 305,116.7 310,118.0 315,119.5 320,121.0 325,122.6 330,124.2 335,125.9 340,127.7 345,129.5 350,131.4 355,133.2 360,135.2 365,137.1 370,139.0 375,141.0 380,143.0 385,144.9 390,146.9 395,148.8 400,150.7" fill="none" stroke="#fbbf24" stroke-width="1.6" opacity="0.24" />
    <polyline points="0,213.6 5,213.1 10,212.3 15,211.2 20,209.9 25,208.2 30,206.4 35,204.3 40,202.0 45,199.6 50,196.9 55,194.2 60,191.4 65,188.5 70,185.7 75,182.8 80,179.9 85,177.2 90,174.5 95,172.0 100,169.6 105,167.4 110,165.4 115,163.7 120,162.2 125,161.0 130,160.0 135,159.4 140,159.1 145,159.0 150,159.3 155,159.9 160,160.7 165,161.9 170,163.3 175,165.0 180,166.9 185,169.0 190,171.4 195,173.9 200,176.5 205,179.2 210,182.1 215,184.9 220,187.8 225,190.7 230,193.5 235,196.3 240,198.9 245,201.4 250,203.7 255,205.9 260,207.8 265,209.5 270,210.9 275,212.1 280,212.9 285,213.5 290,213.8 295,213.7 300,213.4 305,212.8 310,211.8 315,210.6 320,209.1 325,207.4 330,205.4 335,203.2 340,200.8 345,198.3 350,195.6 355,192.9 360,190.0 365,187.2 370,184.3 375,181.4 380,178.6 385,175.9 390,173.3 395,170.8 400,168.5" fill="none" stroke="#8b5cf6" stroke-width="2.9" opacity="0.11" />
    <polyline points="0,224.2 5,224.9 10,225.6 15,226.4 20,227.1 25,227.9 30,228.7 35,229.5 40,230.3 45,231.1 50,232.0 55,232.8 60,233.6 65,234.4 70,235.2 75,235.9 80,236.7 85,237.4 90,238.1 95,238.8 100,239.5 105,240.1 110,240.7 115,241.3 120,241.8 125,242.3 130,242.7 135,243.1 140,243.5 145,243.8 150,244.1 155,244.3 160,244.5 165,244.6 170,244.7 175,244.8 180,244.8 185,244.7 190,244.6 195,244.4 200,244.2 205,244.0 210,243.7 215,243.3 220,243.0 225,242.5 230,242.1 235,241.6 240,241.0 245,240.4 250,239.8 255,239.2 260,238.5 265,237.8 270,237.1 275,236.3 280,235.6 285,234.8 290,234.0 295,233.2 300,232.4 305,231.6 310,230.8 315,230.0 320,229.2 325,228.4 330,227.6 335,226.8 340,226.0 345,225.3 350,224.6 355,223.9 360,223.2 365,222.6 370,222.0 375,221.4 380,220.9 385,220.4 390,219.9 395,219.5 400,219.1" fill="none" stroke="#fbbf24" stroke-width="2.4" opacity="0.24" /></g>
  <polygon points="83.1,293.7 130.3,340.9 83.1,388.1 35.8,340.9" fill="#8b5cf6" opacity="0.21" />
    <polygon points="246.2,251.2 293.4,298.4 246.2,345.6 199.0,298.4" fill="#8b5cf6" opacity="0.11" />
    <polygon points="168.6,202.2 210.4,285.9 126.7,285.9" fill="#fbbf24" opacity="0.37" />
    <polygon points="49.2,152.1 71.2,196.0 27.3,196.0" fill="#fbbf24" opacity="0.30" />
    <circle cx="118.6" cy="157.5" r="27.1" fill="#fbbf24" opacity="0.15" />
    <rect x="337.3" y="198.2" width="72.3" height="72.3" fill="#6366f1" opacity="0.28" />
    <rect x="73.4" y="363.4" width="51.3" height="51.3" fill="#6366f1" opacity="0.11" />
    <polygon points="352.7,515.4 373.0,556.1 332.3,556.1" fill="#fbbf24" opacity="0.12" />
    <polygon points="393.6,423.0 404.0,443.8 383.2,443.8" fill="#fbbf24" opacity="0.31" />
    <rect x="331.0" y="174.6" width="42.0" height="42.0" fill="#6366f1" opacity="0.39" />
    <polygon points="234.7,306.4 259.7,356.3 209.8,356.3" fill="#6366f1" opacity="0.17" />
    <polygon points="297.3,159.4 340.8,246.4 253.8,246.4" fill="#fbbf24" opacity="0.19" />
    <polygon points="349.0,216.9 383.6,251.5 349.0,286.0 314.4,251.5" fill="#6366f1" opacity="0.18" />
    <circle cx="156.4" cy="66.5" r="18.4" fill="#8b5cf6" opacity="0.24" />
  
  <!-- Text background banner -->
  <defs>
    <linearGradient id="text-bg-21" x1="0%" y1="0%" x2="100%" y2="0%">
      <stop offset="0%" style="stop-color:#000000;stop-opacity:0.7" />
      <stop offset="50%" style="stop-color:#6366f1;stop-opacity:0.4" />
      <stop offset="100%" style="stop-color:#000000;stop-opacity:0.7" />
    </linearGradient>
  </defs>
  <rect x="0" y="494" width="400" height="56" fill="url(#text-bg-21)" />

  <!-- Text shadow -->
  <text x="200" y="522" font-family="system-ui, -apple-system, sans-serif" font-size="24" font-weight="bold" text-anchor="middle" fill="#000000" opacity="0.8">Duncan Idaho Dick-Hoe</text>

  <!-- Main text -->
  <text x="200" y="520" font-family="system-ui, -apple-system, sans-serif" font-size="24" font-weight="bold" text-anchor="middle" fill="#ffffff">Duncan Idaho Dick-Hoe</text>
  
  <!-- Rarity border -->
  <rect x="5" y="5" width="390" height="540"
        fill="none" stroke="#a855f7" stroke-width="10" rx="8" ry="8" />
</svg>