<?xml version="1.0" encoding="UTF-8"?>
<svg xmlns="http://www.w3.org/2000/svg" viewBox="0 0 400 550" width="400" height="550">
  <defs>
    <linearGradient id="bg-gradient-096" x1="0%" y1="0%" x2="100%" y2="100%">
      <stop offset="0%" style="stop-color:#8b5cf6;stop-opacity:0.26" />
      <stop offset="50%" style="stop-color:#ec4899;stop-opacity:0.4" />
      <stop offset="100%" style="stop-color:#8b5cf6;stop-opacity:0.26" />
    </linearGradient>
    
  <filter id="shadow-096">
    <feDropShadow dx="0" dy="2" stdDeviation="3" flood-opacity="0.8"/>
  </filter>
  </defs>
  <rect width="400" height="550" fill="url(#bg-gradient-0.6815939163789153)" />
  <g opacity="0.3"><line x1="0" y1="368.7" x2="400" y2="368.7" stroke="#8b5cf6" stroke-width="2.9" opacity="0.22" />
    <line x1="0" y1="114.0" x2="400" y2="114.0" stroke="#8b5cf6" stroke-width="3.0" opacity="0.11" />
    <line x1="0" y1="498.3" x2="400" y2="498.3" stroke="#8b5cf6" stroke-width="2.7" opacity="0.39" />
    <line x1="0" y1="268.2" x2="400" y2="268.2" stroke="#8b5cf6" stroke-width="3.5" opacity="0.39" />
    <line x1="0" y1="319.1" x2="400" y2="319.1" stroke="#f97316" stroke-width="1.5" opacity="0.23" />
    <line x1="0" y1="25.9" x2="400" y2="25.9" stroke="#f97316" stroke-width="2.0" opacity="0.32" />
    <line x1="0" y1="548.9" x2="400" y2="548.9" stroke="#ec4899" stroke-width="2.8" opacity="0.18" />
    <line x1="0" y1="59.2" x2="400" y2="59.2" stroke="#ec4899" stroke-width="3.5" opacity="0.40" />
    <line x1="360.6" y1="0" x2="360.6" y2="550" stroke="#f97316" stroke-width="3.2" opacity="0.26" />
    <line x1="141.3" y1="0" x2="141.3" y2="550" stroke="#ec4899" stroke-width="1.5" opacity="0.35" />
    <line x1="224.0" y1="0" x2="224.0" y2="550" stroke="#f97316" stroke-width="2.7" opacity="0.19" />
    <line x1="0" y1="10.8" x2="400" y2="10.8" stroke="#f97316" stroke-width="1.9" opacity="0.29" />
    <line x1="74.5" y1="0" x2="74.5" y2="550" stroke="#8b5cf6" stroke-width="1.5" opacity="0.17" />
    <line x1="40.9" y1="0" x2="40.9" y2="550" stroke="#f97316" stroke-width="1.1" opacity="0.17" />
    <line x1="0" y1="10.5" x2="400" y2="10.5" stroke="#ec4899" stroke-width="2.7" opacity="0.27" />
    <line x1="0" y1="479.7" x2="400" y2="479.7" stroke="#8b5cf6" stroke-width="1.6" opacity="0.13" />
    <line x1="0" y1="485.3" x2="400" y2="485.3" stroke="#ec4899" stroke-width="1.2" opacity="0.33" />
    <line x1="69.9" y1="0" x2="69.9" y2="550" stroke="#f97316" stroke-width="2.8" opacity="0.13" />
    <line x1="0" y1="260.2" x2="400" y2="260.2" stroke="#ec4899" stroke-width="1.4" opacity="0.10" />
    <line x1="0" y1="263.6" x2="400" y2="263.6" stroke="#8b5cf6" stroke-width="2.2" opacity="0.22" />
    <line x1="0" y1="58.0" x2="400" y2="58.0" stroke="#8b5cf6" stroke-width="2.3" opacity="0.39" />
    <line x1="273.5" y1="0" x2="273.5" y2="550" stroke="#f97316" stroke-width="4.0" opacity="0.32" />
    <line x1="0" y1="72.7" x2="400" y2="72.7" stroke="#ec4899" stroke-width="2.4" opacity="0.40" />
    <line x1="84.2" y1="0" x2="84.2" y2="550" stroke="#f97316" stroke-width="3.3" opacity="0.13" />
    <line x1="0" y1="525.5" x2="400" y2="525.5" stroke="#8b5cf6" stroke-width="2.0" opacity="0.35" /></g>
  <polygon points="365.8,470.7 394.1,498.9 365.8,527.2 337.6,498.9" fill="#f97316" opacity="0.23" />
    <polygon points="313.2,237.7 345.9,303.1 280.5,303.1" fill="#f97316" opacity="0.23" />
    <rect x="227.4" y="126.0" width="92.3" height="92.3" fill="#8b5cf6" opacity="0.32" />
    <polygon points="387.3,267.6 435.1,363.2 339.5,363.2" fill="#f97316" opacity="0.22" />
    <circle cx="273.6" cy="200.7" r="38.5" fill="#8b5cf6" opacity="0.27" />
    <polygon points="363.5,252.8 411.8,349.4 315.2,349.4" fill="#8b5cf6" opacity="0.27" />
    <circle cx="15.6" cy="200.9" r="19.9" fill="#8b5cf6" opacity="0.30" />
    <circle cx="166.9" cy="215.3" r="13.0" fill="#8b5cf6" opacity="0.28" />
    <circle cx="180.5" cy="535.9" r="37.7" fill="#8b5cf6" opacity="0.30" />
    <rect x="348.4" y="85.4" width="42.4" height="42.4" fill="#8b5cf6" opacity="0.13" />
    <circle cx="171.5" cy="130.7" r="43.6" fill="#8b5cf6" opacity="0.36" />
    <polygon points="44.3,152.4 85.7,193.8 44.3,235.2 2.9,193.8" fill="#f97316" opacity="0.26" />
    <polygon points="96.4,-28.1 136.9,12.5 96.4,53.0 55.8,12.5" fill="#ec4899" opacity="0.15" />
    <rect x="151.7" y="226.9" width="30.0" height="30.0" fill="#ec4899" opacity="0.11" />
  
  <!-- Text background banner -->
  <defs>
    <linearGradient id="text-bg-13" x1="0%" y1="0%" x2="100%" y2="0%">
      <stop offset="0%" style="stop-color:#000000;stop-opacity:0.7" />
      <stop offset="50%" style="stop-color:#8b5cf6;stop-opacity:0.4" />
      <stop offset="100%" style="stop-color:#000000;stop-opacity:0.7" />
    </linearGradient>
  </defs>
  <rect x="0" y="494" width="400" height="56" fill="url(#text-bg-13)" />

  <!-- Text shadow -->
  <text x="200" y="522" font-family="system-ui, -apple-system, sans-serif" font-size="24" font-weight="bold" text-anchor="middle" fill="#000000" opacity="0.8">Diet Dad Cola</text>

  <!-- Main text -->
  <text x="200" y="520" font-family="system-ui, -apple-system, sans-serif" font-size="24" font-weight="bold" text-anchor="middle" fill="#ffffff">Diet Dad Cola</text>
  
  <!-- Rarity border -->
  <rect x="5" y="5" width="390" height="540"
        fill="none" stroke="#a855f7" stroke-width="10" rx="8" ry="8" />
</svg>