<?xml version="1.0" encoding="UTF-8"?>
<svg xmlns="http://www.w3.org/2000/svg" viewBox="0 0 400 550" width="400" height="550">
  <defs>
    <linearGradient id="bg-gradient-099" x1="0%" y1="0%" x2="100%" y2="100%">
      <stop offset="0%" style="stop-color:#ef4444;stop-opacity:0.26" />
      <stop offset="50%" style="stop-color:#dc2626;stop-opacity:0.4" />
      <stop offset="100%" style="stop-color:#ef4444;stop-opacity:0.26" />
    </linearGradient>
    
  <filter id="shadow-099">
    <feDropShadow dx="0" dy="2" stdDeviation="3" flood-opacity="0.8"/>
  </filter>
  </defs>
  <rect width="400" height="550" fill="url(#bg-gradient-0.047456889878958464)" />
  <g opacity="0.3"><polyline points="0,543.0 5,544.7 10,546.3 15,547.9 20,549.2 25,550.5 30,551.6 35,552.5 40,553.3 45,553.9 50,554.4 55,554.7 60,554.8 65,554.8 70,554.6 75,554.3 80,553.8 85,553.1 90,552.3 95,551.3 100,550.2 105,548.9 110,547.5 115,546.0 120,544.3 125,542.5 130,540.7 135,538.7 140,536.6 145,534.5 150,532.3 155,530.0 160,527.7 165,525.3 170,522.9 175,520.5 180,518.1 185,515.8 190,513.4 195,511.0 200,508.7 205,506.5 210,504.3 215,502.2 220,500.2 225,498.3 230,496.4 235,494.7 240,493.1 245,491.6 250,490.3 255,489.1 260,488.0 265,487.1 270,486.4 275,485.8 280,485.4 285,485.1 290,485.0 295,485.0 300,485.3 305,485.7 310,486.2 315,486.9 320,487.8 325,488.8 330,490.0 335,491.3 340,492.7 345,494.3 350,496.0 355,497.8 360,499.7 365,501.7 370,503.7 375,505.9 380,508.1 385,510.4 390,512.8 395,515.1 400,517.5" fill="none" stroke="#ef4444" stroke-width="2.4" opacity="0.28" />
    <polyline points="0,544.3 5,543.8 10,542.5 15,540.5 20,537.7 25,534.4 30,530.4 35,526.0 40,521.2 45,516.1 50,510.9 55,505.5 60,500.2 65,495.1 70,490.2 75,485.7 80,481.7 85,478.2 90,475.3 95,473.1 100,471.6 105,470.9 110,471.0 115,471.8 120,473.4 125,475.7 130,478.7 135,482.3 140,486.4 145,491.0 150,495.9 155,501.1 160,506.4 165,511.7 170,517.0 175,522.0 180,526.8 185,531.1 190,535.0 195,538.2 200,540.8 205,542.8 210,543.9 215,544.3 220,543.9 225,542.8 230,540.9 235,538.3 240,535.1 245,531.3 250,527.0 255,522.2 260,517.2 265,511.9 270,506.6 275,501.3 280,496.1 285,491.2 290,486.6 295,482.4 300,478.8 305,475.8 310,473.5 315,471.8 320,471.0 325,470.9 330,471.6 335,473.0 340,475.2 345,478.0 350,481.5 355,485.6 360,490.0 365,494.9 370,500.0 375,505.3 380,510.7 385,516.0 390,521.1 395,525.9 400,530.3" fill="none" stroke="#dc2626" stroke-width="3.0" opacity="0.26" />
    <polyline points="0,529.2 5,525.6 10,522.3 15,519.3 20,516.6 25,514.3 30,512.4 35,511.0 40,510.0 45,509.4 50,509.4 55,509.8 60,510.7 65,512.0 70,513.8 75,516.0 80,518.6 85,521.6 90,524.8 95,528.3 100,532.1 105,535.9 110,539.9 115,544.0 120,548.0 125,551.9 130,555.8 135,559.4 140,562.9 145,566.0 150,568.9 155,571.3 160,573.4 165,575.1 170,576.3 175,577.0 180,577.3 185,577.1 190,576.4 195,575.3 200,573.7 205,571.6 210,569.2 215,566.4 220,563.3 225,559.9 230,556.2 235,552.4 240,548.5 245,544.5 250,540.4 255,536.4 260,532.6 265,528.8 270,525.3 275,522.0 280,519.0 285,516.4 290,514.1 295,512.2 300,510.8 305,509.9 310,509.4 315,509.4 320,509.9 325,510.8 330,512.2 335,514.0 340,516.3 345,518.9 350,521.9 355,525.2 360,528.7 365,532.5 370,536.4 375,540.4 380,544.4 385,548.4 390,552.4 395,556.2 400,559.8" fill="none" stroke="#ef4444" stroke-width="2.4" opacity="0.24" />
    <polyline points="0,53.2 5,53.4 10,53.4 15,53.4 20,53.1 25,52.8 30,52.3 35,51.7 40,51.0 45,50.2 50,49.3 55,48.3 60,47.2 65,46.1 70,44.9 75,43.7 80,42.5 85,41.2 90,40.0 95,38.8 100,37.7 105,36.6 110,35.6 115,34.7 120,33.9 125,33.2 130,32.6 135,32.1 140,31.7 145,31.5 150,31.4 155,31.5 160,31.6 165,32.0 170,32.4 175,33.0 180,33.7 185,34.5 190,35.4 195,36.3 200,37.4 205,38.5 210,39.7 215,40.9 220,42.1 225,43.3 230,44.5 235,45.7 240,46.9 245,48.0 250,49.0 255,49.9 260,50.8 265,51.5 270,52.2 275,52.7 280,53.1 285,53.3 290,53.4 295,53.4 300,53.3 305,53.0 310,52.5 315,52.0 320,51.3 325,50.6 330,49.7 335,48.7 340,47.7 345,46.6 350,45.4 355,44.2 360,43.0 365,41.8 370,40.6 375,39.4 380,38.2 385,37.1 390,36.1 395,35.1 400,34.2" fill="none" stroke="#f97316" stroke-width="3.0" opacity="0.11" />
    <polyline points="0,181.9 5,182.5 10,183.2 15,184.0 20,184.9 25,185.9 30,186.9 35,187.9 40,189.0 45,190.2 50,191.3 55,192.4 60,193.5 65,194.5 70,195.6 75,196.5 80,197.4 85,198.2 90,198.9 95,199.5 100,200.0 105,200.4 110,200.6 115,200.8 120,200.8 125,200.7 130,200.4 135,200.1 140,199.6 145,199.0 150,198.3 155,197.5 160,196.7 165,195.7 170,194.7 175,193.7 180,192.6 185,191.5 190,190.4 195,189.2 200,188.1 205,187.1 210,186.0 215,185.1 220,184.2 225,183.3 230,182.6 235,182.0 240,181.4 245,181.0 250,180.7 255,180.6 260,180.5 265,180.6 270,180.8 275,181.1 280,181.5 285,182.1 290,182.7 295,183.5 300,184.3 305,185.3 310,186.2 315,187.3 320,188.4 325,189.5 330,190.6 335,191.7 340,192.8 345,193.9 350,194.9 355,195.9 360,196.9 365,197.7 370,198.5 375,199.1 380,199.7 385,200.1 390,200.5 395,200.7 400,200.8" fill="none" stroke="#f97316" stroke-width="1.6" opacity="0.22" />
    <polyline points="0,285.3 5,284.3 10,283.2 15,281.9 20,280.6 25,279.1 30,277.5 35,275.8 40,274.1 45,272.3 50,270.4 55,268.4 60,266.4 65,264.4 70,262.4 75,260.3 80,258.3 85,256.3 90,254.3 95,252.4 100,250.5 105,248.7 110,247.0 115,245.3 120,243.8 125,242.4 130,241.0 135,239.8 140,238.8 145,237.8 150,237.1 155,236.4 160,235.9 165,235.6 170,235.4 175,235.4 180,235.6 185,235.9 190,236.3 195,236.9 200,237.7 205,238.6 210,239.6 215,240.8 220,242.1 225,243.5 230,245.0 235,246.6 240,248.3 245,250.1 250,252.0 255,253.9 260,255.9 265,257.9 270,259.9 275,261.9 280,264.0 285,266.0 290,268.0 295,269.9 300,271.9 305,273.7 310,275.5 315,277.2 320,278.8 325,280.3 330,281.7 335,282.9 340,284.1 345,285.1 350,286.0 355,286.7 360,287.3 365,287.7 370,288.0 375,288.1 380,288.0 385,287.8 390,287.5 395,286.9 400,286.3" fill="none" stroke="#f97316" stroke-width="2.1" opacity="0.14" />
    <polyline points="0,324.3 5,323.5 10,322.7 15,321.9 20,321.2 25,320.5 30,320.0 35,319.4 40,319.0 45,318.6 50,318.3 55,318.1 60,317.9 65,317.8 70,317.8 75,317.9 80,318.0 85,318.2 90,318.5 95,318.8 100,319.3 105,319.8 110,320.3 115,320.9 120,321.6 125,322.3 130,323.1 135,324.0 140,324.9 145,325.8 150,326.8 155,327.8 160,328.8 165,329.8 170,330.9 175,332.0 180,333.1 185,334.2 190,335.3 195,336.4 200,337.4 205,338.5 210,339.5 215,340.5 220,341.5 225,342.5 230,343.4 235,344.2 240,345.0 245,345.8 250,346.5 255,347.1 260,347.7 265,348.2 270,348.7 275,349.0 280,349.3 285,349.6 290,349.7 295,349.8 300,349.8 305,349.8 310,349.6 315,349.4 320,349.1 325,348.8 330,348.4 335,347.9 340,347.3 345,346.7 350,346.0 355,345.3 360,344.5 365,343.6 370,342.7 375,341.8 380,340.8 385,339.8 390,338.8 395,337.8 400,336.7" fill="none" stroke="#dc2626" stroke-width="2.3" opacity="0.23" />
    <polyline points="0,253.5 5,256.7 10,260.1 15,263.4 20,266.7 25,269.8 30,272.8 35,275.6 40,278.0 45,280.2 50,282.0 55,283.4 60,284.4 65,284.9 70,285.1 75,284.7 80,283.9 85,282.7 90,281.1 95,279.1 100,276.8 105,274.2 110,271.3 115,268.2 120,265.0 125,261.7 130,258.4 135,255.0 140,251.8 145,248.8 150,245.9 155,243.3 160,241.0 165,239.0 170,237.4 175,236.3 180,235.5 185,235.2 190,235.3 195,235.9 200,236.9 205,238.4 210,240.2 215,242.3 220,244.8 225,247.6 230,250.6 235,253.8 240,257.1 245,260.4 250,263.7 255,267.0 260,270.1 265,273.1 270,275.8 275,278.3 280,280.4 285,282.2 290,283.5 295,284.5 300,285.0 305,285.0 310,284.7 315,283.8 320,282.6 325,281.0 330,278.9 335,276.6 340,273.9 345,271.0 350,267.9 355,264.7 360,261.4 365,258.0 370,254.7 375,251.5 380,248.5 385,245.6 390,243.1 395,240.8 400,238.8" fill="none" stroke="#f97316" stroke-width="1.5" opacity="0.12" /></g>
  <circle cx="354.9" cy="40.5" r="38.6" fill="#f97316" opacity="0.39" />
    <circle cx="375.0" cy="515.5" r="33.9" fill="#dc2626" opacity="0.10" />
    <rect x="308.4" y="378.2" width="26.3" height="26.3" fill="#ef4444" opacity="0.37" />
    <polygon points="95.5,55.6 137.4,139.4 53.6,139.4" fill="#ef4444" opacity="0.17" />
    <rect x="52.9" y="203.9" width="41.0" height="41.0" fill="#dc2626" opacity="0.16" />
    <circle cx="252.3" cy="183.2" r="47.7" fill="#ef4444" opacity="0.31" />
    <polygon points="119.4,144.3 143.4,168.3 119.4,192.4 95.3,168.3" fill="#ef4444" opacity="0.18" />
    <circle cx="93.6" cy="70.2" r="28.6" fill="#ef4444" opacity="0.25" />
    <circle cx="220.0" cy="475.6" r="34.7" fill="#f97316" opacity="0.21" />
    <polygon points="263.0,472.6 309.0,564.7 217.0,564.7" fill="#ef4444" opacity="0.29" />
    <rect x="208.0" y="45.7" width="39.5" height="39.5" fill="#f97316" opacity="0.35" />
  
  <!-- Text background banner -->
  <defs>
    <linearGradient id="text-bg-20" x1="0%" y1="0%" x2="100%" y2="0%">
      <stop offset="0%" style="stop-color:#000000;stop-opacity:0.7" />
      <stop offset="50%" style="stop-color:#ef4444;stop-opacity:0.4" />
      <stop offset="100%" style="stop-color:#000000;stop-opacity:0.7" />
    </linearGradient>
  </defs>
  <rect x="0" y="494" width="400" height="56" fill="url(#text-bg-20)" />

  <!-- Text shadow -->
  <text x="200" y="522" font-family="system-ui, -apple-system, sans-serif" font-size="24" font-weight="bold" text-anchor="middle" fill="#000000" opacity="0.8">Tailgate Tit-Tackler</text>

  <!-- Main text -->
  <text x="200" y="520" font-family="system-ui, -apple-system, sans-serif" font-size="24" font-weight="bold" text-anchor="middle" fill="#ffffff">Tailgate Tit-Tackler</text>
  
  <!-- Rarity border -->
  <rect x="4" y="4" width="392" height="542"
        fill="none" stroke="#eab308" stroke-width="8" rx="8" ry="8" />
</svg>