<?xml version="1.0" encoding="UTF-8"?>
<svg xmlns="http://www.w3.org/2000/svg" viewBox="0 0 400 550" width="400" height="550">
  <defs>
    <linearGradient id="bg-gradient-100" x1="0%" y1="0%" x2="100%" y2="100%">
      <stop offset="0%" style="stop-color:#ec4899;stop-opacity:0.26" />
      <stop offset="50%" style="stop-color:#f472b6;stop-opacity:0.4" />
      <stop offset="100%" style="stop-color:#ec4899;stop-opacity:0.26" />
    </linearGradient>
    
  <filter id="shadow-100">
    <feDropShadow dx="0" dy="2" stdDeviation="3" flood-opacity="0.8"/>
  </filter>
  </defs>
  <rect width="400" height="550" fill="url(#bg-gradient-0.5236445055343211)" />
  <g opacity="0.3"><line x1="0" y1="536.6" x2="400" y2="536.6" stroke="#ec4899" stroke-width="1.0" opacity="0.14" />
    <line x1="116.2" y1="0" x2="116.2" y2="550" stroke="#f472b6" stroke-width="1.1" opacity="0.14" />
    <line x1="0" y1="462.1" x2="400" y2="462.1" stroke="#fbbf24" stroke-width="2.2" opacity="0.38" />
    <line x1="0" y1="194.5" x2="400" y2="194.5" stroke="#fbbf24" stroke-width="2.2" opacity="0.13" />
    <line x1="381.0" y1="0" x2="381.0" y2="550" stroke="#fbbf24" stroke-width="3.4" opacity="0.31" />
    <line x1="38.7" y1="0" x2="38.7" y2="550" stroke="#f472b6" stroke-width="1.4" opacity="0.35" />
    <line x1="332.3" y1="0" x2="332.3" y2="550" stroke="#f472b6" stroke-width="2.8" opacity="0.31" />
    <line x1="0" y1="54.3" x2="400" y2="54.3" stroke="#ec4899" stroke-width="3.3" opacity="0.28" />
    <line x1="0" y1="265.9" x2="400" y2="265.9" stroke="#f472b6" stroke-width="3.1" opacity="0.29" />
    <line x1="0" y1="0.2" x2="400" y2="0.2" stroke="#fbbf24" stroke-width="3.1" opacity="0.17" />
    <line x1="0" y1="316.9" x2="400" y2="316.9" stroke="#fbbf24" stroke-width="2.5" opacity="0.13" />
    <line x1="0" y1="32.7" x2="400" y2="32.7" stroke="#f472b6" stroke-width="2.0" opacity="0.23" />
    <line x1="62.5" y1="0" x2="62.5" y2="550" stroke="#fbbf24" stroke-width="3.1" opacity="0.25" />
    <line x1="354.9" y1="0" x2="354.9" y2="550" stroke="#ec4899" stroke-width="3.2" opacity="0.18" />
    <line x1="0" y1="166.7" x2="400" y2="166.7" stroke="#ec4899" stroke-width="2.6" opacity="0.21" />
    <line x1="34.4" y1="0" x2="34.4" y2="550" stroke="#ec4899" stroke-width="2.7" opacity="0.24" />
    <line x1="278.8" y1="0" x2="278.8" y2="550" stroke="#fbbf24" stroke-width="2.2" opacity="0.15" />
    <line x1="0" y1="339.2" x2="400" y2="339.2" stroke="#f472b6" stroke-width="3.3" opacity="0.24" />
    <line x1="126.6" y1="0" x2="126.6" y2="550" stroke="#ec4899" stroke-width="1.1" opacity="0.24" />
    <line x1="123.9" y1="0" x2="123.9" y2="550" stroke="#ec4899" stroke-width="3.2" opacity="0.13" /></g>
  <polygon points="227.8,392.4 263.1,463.1 192.4,463.1" fill="#ec4899" opacity="0.29" />
    <circle cx="19.0" cy="103.3" r="11.4" fill="#ec4899" opacity="0.25" />
    <polygon points="129.0,154.2 163.0,188.3 129.0,222.4 94.9,188.3" fill="#f472b6" opacity="0.22" />
    <rect x="93.8" y="70.2" width="31.0" height="31.0" fill="#f472b6" opacity="0.22" />
    <polygon points="211.9,261.5 250.3,338.3 173.5,338.3" fill="#f472b6" opacity="0.26" />
    <polygon points="355.8,288.1 386.2,349.0 325.4,349.0" fill="#ec4899" opacity="0.20" />
    <polygon points="308.8,288.2 347.1,326.5 308.8,364.7 270.6,326.5" fill="#ec4899" opacity="0.28" />
    <rect x="56.4" y="286.2" width="85.1" height="85.1" fill="#ec4899" opacity="0.26" />
    <rect x="279.7" y="299.9" width="98.0" height="98.0" fill="#fbbf24" opacity="0.12" />
    <polygon points="238.6,125.6 278.4,205.2 198.8,205.2" fill="#f472b6" opacity="0.21" />
    <circle cx="376.3" cy="380.0" r="22.3" fill="#fbbf24" opacity="0.17" />
  
  <!-- Text background banner -->
  <defs>
    <linearGradient id="text-bg-18" x1="0%" y1="0%" x2="100%" y2="0%">
      <stop offset="0%" style="stop-color:#000000;stop-opacity:0.7" />
      <stop offset="50%" style="stop-color:#ec4899;stop-opacity:0.4" />
      <stop offset="100%" style="stop-color:#000000;stop-opacity:0.7" />
    </linearGradient>
  </defs>
  <rect x="0" y="494" width="400" height="56" fill="url(#text-bg-18)" />

  <!-- Text shadow -->
  <text x="200" y="522" font-family="system-ui, -apple-system, sans-serif" font-size="24" font-weight="bold" text-anchor="middle" fill="#000000" opacity="0.8">Martini Meat-Mixer</text>

  <!-- Main text -->
  <text x="200" y="520" font-family="system-ui, -apple-system, sans-serif" font-size="24" font-weight="bold" text-anchor="middle" fill="#ffffff">Martini Meat-Mixer</text>
  
  <!-- Rarity border -->
  <rect x="4" y="4" width="392" height="542"
        fill="none" stroke="#eab308" stroke-width="8" rx="8" ry="8" />
</svg>