<?xml version="1.0" encoding="UTF-8"?>
<svg xmlns="http://www.w3.org/2000/svg" viewBox="0 0 400 550" width="400" height="550">
  <defs>
    <linearGradient id="bg-gradient-101" x1="0%" y1="0%" x2="100%" y2="100%">
      <stop offset="0%" style="stop-color:#3b82f6;stop-opacity:0.26" />
      <stop offset="50%" style="stop-color:#60a5fa;stop-opacity:0.4" />
      <stop offset="100%" style="stop-color:#3b82f6;stop-opacity:0.26" />
    </linearGradient>
    
  <filter id="shadow-101">
    <feDropShadow dx="0" dy="2" stdDeviation="3" flood-opacity="0.8"/>
  </filter>
  </defs>
  <rect width="400" height="550" fill="url(#bg-gradient-0.9492151245940477)" />
  <g opacity="0.3"><circle cx="8.5" cy="9.8" r="6" fill="#3b82f6" />
    <circle cx="5.7" cy="32.7" r="6" fill="#3b82f6" />
    <circle cx="7.1" cy="55.8" r="6" fill="#60a5fa" />
    <circle cx="5.1" cy="77.3" r="6" fill="#fbbf24" />
    <circle cx="0.3" cy="108.4" r="6" fill="#60a5fa" />
    <circle cx="7.1" cy="135.0" r="6" fill="#3b82f6" />
    <circle cx="2.0" cy="151.4" r="6" fill="#fbbf24" />
    <circle cx="1.4" cy="201.5" r="6" fill="#fbbf24" />
    <circle cx="8.1" cy="253.1" r="6" fill="#3b82f6" />
    <circle cx="6.2" cy="358.3" r="6" fill="#60a5fa" />
    <circle cx="4.1" cy="380.7" r="6" fill="#fbbf24" />
    <circle cx="7.0" cy="403.0" r="6" fill="#fbbf24" />
    <circle cx="2.1" cy="507.8" r="6" fill="#fbbf24" />
    <circle cx="5.5" cy="528.2" r="6" fill="#fbbf24" />
    <circle cx="32.5" cy="9.7" r="6" fill="#60a5fa" />
    <circle cx="28.6" cy="30.3" r="6" fill="#3b82f6" />
    <circle cx="30.2" cy="56.9" r="6" fill="#fbbf24" />
    <circle cx="29.5" cy="79.1" r="6" fill="#fbbf24" />
    <circle cx="33.3" cy="133.4" r="6" fill="#60a5fa" />
    <circle cx="27.9" cy="159.3" r="6" fill="#3b82f6" />
    <circle cx="33.3" cy="232.8" r="6" fill="#3b82f6" />
    <circle cx="31.3" cy="277.0" r="6" fill="#3b82f6" />
    <circle cx="32.7" cy="328.9" r="6" fill="#fbbf24" />
    <circle cx="26.6" cy="351.7" r="6" fill="#3b82f6" />
    <circle cx="33.9" cy="375.7" r="6" fill="#3b82f6" />
    <circle cx="26.8" cy="426.4" r="6" fill="#fbbf24" />
    <circle cx="29.9" cy="456.0" r="6" fill="#60a5fa" />
    <circle cx="26.0" cy="476.3" r="6" fill="#fbbf24" />
    <circle cx="28.9" cy="508.6" r="6" fill="#3b82f6" />
    <circle cx="28.6" cy="531.4" r="6" fill="#60a5fa" />
    <circle cx="59.6" cy="25.9" r="6" fill="#fbbf24" />
    <circle cx="55.2" cy="100.4" r="6" fill="#3b82f6" />
    <circle cx="51.2" cy="176.1" r="6" fill="#fbbf24" />
    <circle cx="52.4" cy="210.0" r="6" fill="#60a5fa" />
    <circle cx="57.9" cy="229.8" r="6" fill="#60a5fa" />
    <circle cx="56.1" cy="251.8" r="6" fill="#3b82f6" />
    <circle cx="59.0" cy="353.7" r="6" fill="#60a5fa" />
    <circle cx="56.7" cy="384.1" r="6" fill="#fbbf24" />
    <circle cx="54.2" cy="404.4" r="6" fill="#60a5fa" />
    <circle cx="59.2" cy="428.5" r="6" fill="#60a5fa" />
    <circle cx="54.3" cy="452.9" r="6" fill="#60a5fa" />
    <circle cx="56.0" cy="477.2" r="6" fill="#60a5fa" />
    <circle cx="51.0" cy="508.7" r="6" fill="#3b82f6" />
    <circle cx="53.4" cy="534.8" r="6" fill="#60a5fa" />
    <circle cx="84.1" cy="1.2" r="6" fill="#60a5fa" />
    <circle cx="75.5" cy="25.1" r="6" fill="#60a5fa" />
    <circle cx="76.5" cy="75.8" r="6" fill="#3b82f6" />
    <circle cx="75.9" cy="106.2" r="6" fill="#3b82f6" />
    <circle cx="75.1" cy="126.2" r="6" fill="#fbbf24" />
    <circle cx="77.9" cy="179.7" r="6" fill="#60a5fa" />
    <circle cx="78.2" cy="200.5" r="6" fill="#3b82f6" />
    <circle cx="82.3" cy="232.1" r="6" fill="#60a5fa" />
    <circle cx="79.8" cy="255.8" r="6" fill="#3b82f6" />
    <circle cx="77.2" cy="301.3" r="6" fill="#3b82f6" />
    <circle cx="76.6" cy="352.7" r="6" fill="#fbbf24" />
    <circle cx="82.4" cy="379.8" r="6" fill="#60a5fa" />
    <circle cx="79.8" cy="425.8" r="6" fill="#60a5fa" />
    <circle cx="79.6" cy="451.2" r="6" fill="#60a5fa" />
    <circle cx="84.8" cy="479.9" r="6" fill="#3b82f6" />
    <circle cx="82.2" cy="506.5" r="6" fill="#3b82f6" />
    <circle cx="76.0" cy="528.2" r="6" fill="#3b82f6" />
    <circle cx="107.2" cy="5.3" r="6" fill="#3b82f6" />
    <circle cx="101.4" cy="55.7" r="6" fill="#60a5fa" />
    <circle cx="109.8" cy="75.0" r="6" fill="#60a5fa" />
    <circle cx="101.5" cy="104.5" r="6" fill="#3b82f6" />
    <circle cx="109.2" cy="125.0" r="6" fill="#3b82f6" />
    <circle cx="106.1" cy="158.9" r="6" fill="#60a5fa" />
    <circle cx="106.3" cy="181.3" r="6" fill="#fbbf24" />
    <circle cx="105.4" cy="200.0" r="6" fill="#60a5fa" />
    <circle cx="107.0" cy="255.5" r="6" fill="#60a5fa" />
    <circle cx="108.8" cy="280.7" r="6" fill="#60a5fa" />
    <circle cx="104.1" cy="325.1" r="6" fill="#fbbf24" />
    <circle cx="101.6" cy="357.0" r="6" fill="#60a5fa" />
    <circle cx="105.3" cy="380.0" r="6" fill="#60a5fa" />
    <circle cx="105.3" cy="405.1" r="6" fill="#60a5fa" />
    <circle cx="108.7" cy="428.2" r="6" fill="#60a5fa" />
    <circle cx="102.2" cy="453.8" r="6" fill="#fbbf24" />
    <circle cx="104.1" cy="526.5" r="6" fill="#60a5fa" />
    <circle cx="134.7" cy="56.7" r="6" fill="#60a5fa" />
    <circle cx="132.9" cy="108.8" r="6" fill="#3b82f6" />
    <circle cx="130.4" cy="157.7" r="6" fill="#fbbf24" />
    <circle cx="133.8" cy="200.1" r="6" fill="#fbbf24" />
    <circle cx="133.8" cy="227.4" r="6" fill="#3b82f6" />
    <circle cx="132.2" cy="260.0" r="6" fill="#3b82f6" />
    <circle cx="130.4" cy="284.1" r="6" fill="#3b82f6" />
    <circle cx="127.5" cy="302.1" r="6" fill="#60a5fa" />
    <circle cx="133.7" cy="330.0" r="6" fill="#60a5fa" />
    <circle cx="126.8" cy="356.1" r="6" fill="#3b82f6" />
    <circle cx="128.4" cy="380.1" r="6" fill="#60a5fa" />
    <circle cx="126.6" cy="430.9" r="6" fill="#fbbf24" />
    <circle cx="126.4" cy="459.8" r="6" fill="#3b82f6" />
    <circle cx="130.4" cy="481.8" r="6" fill="#3b82f6" />
    <circle cx="130.6" cy="501.2" r="6" fill="#fbbf24" />
    <circle cx="133.2" cy="528.7" r="6" fill="#3b82f6" />
    <circle cx="158.5" cy="0.8" r="6" fill="#3b82f6" />
    <circle cx="154.4" cy="30.3" r="6" fill="#60a5fa" />
    <circle cx="155.4" cy="55.4" r="6" fill="#fbbf24" />
    <circle cx="154.4" cy="132.1" r="6" fill="#60a5fa" />
    <circle cx="152.5" cy="153.0" r="6" fill="#3b82f6" />
    <circle cx="159.7" cy="184.4" r="6" fill="#60a5fa" />
    <circle cx="154.3" cy="256.6" r="6" fill="#fbbf24" />
    <circle cx="152.7" cy="282.2" r="6" fill="#3b82f6" />
    <circle cx="153.0" cy="307.9" r="6" fill="#3b82f6" />
    <circle cx="158.3" cy="353.8" r="6" fill="#fbbf24" />
    <circle cx="158.1" cy="379.7" r="6" fill="#60a5fa" />
    <circle cx="152.3" cy="402.3" r="6" fill="#3b82f6" />
    <circle cx="158.8" cy="454.9" r="6" fill="#fbbf24" />
    <circle cx="181.6" cy="7.4" r="6" fill="#60a5fa" />
    <circle cx="183.8" cy="80.7" r="6" fill="#3b82f6" />
    <circle cx="178.0" cy="125.4" r="6" fill="#3b82f6" />
    <circle cx="184.7" cy="159.2" r="6" fill="#3b82f6" />
    <circle cx="180.2" cy="185.0" r="6" fill="#60a5fa" />
    <circle cx="177.8" cy="202.0" r="6" fill="#3b82f6" />
    <circle cx="179.5" cy="234.9" r="6" fill="#60a5fa" />
    <circle cx="175.1" cy="284.4" r="6" fill="#60a5fa" />
    <circle cx="177.1" cy="301.8" r="6" fill="#3b82f6" />
    <circle cx="182.2" cy="359.2" r="6" fill="#60a5fa" />
    <circle cx="183.8" cy="426.6" r="6" fill="#fbbf24" />
    <circle cx="181.1" cy="452.3" r="6" fill="#fbbf24" />
    <circle cx="180.7" cy="484.3" r="6" fill="#fbbf24" />
    <circle cx="176.8" cy="526.7" r="6" fill="#60a5fa" />
    <circle cx="205.6" cy="9.9" r="6" fill="#60a5fa" />
    <circle cx="207.9" cy="26.9" r="6" fill="#3b82f6" />
    <circle cx="201.6" cy="52.4" r="6" fill="#3b82f6" />
    <circle cx="206.8" cy="81.5" r="6" fill="#3b82f6" />
    <circle cx="208.9" cy="104.3" r="6" fill="#60a5fa" />
    <circle cx="203.4" cy="128.2" r="6" fill="#fbbf24" />
    <circle cx="201.9" cy="176.7" r="6" fill="#60a5fa" />
    <circle cx="206.9" cy="226.9" r="6" fill="#3b82f6" />
    <circle cx="209.2" cy="251.0" r="6" fill="#3b82f6" />
    <circle cx="203.3" cy="330.8" r="6" fill="#fbbf24" />
    <circle cx="201.6" cy="355.5" r="6" fill="#fbbf24" />
    <circle cx="201.4" cy="381.9" r="6" fill="#60a5fa" />
    <circle cx="203.2" cy="408.1" r="6" fill="#3b82f6" />
    <circle cx="202.1" cy="429.4" r="6" fill="#60a5fa" />
    <circle cx="202.1" cy="477.7" r="6" fill="#3b82f6" />
    <circle cx="201.9" cy="500.5" r="6" fill="#fbbf24" />
    <circle cx="206.2" cy="533.3" r="6" fill="#60a5fa" />
    <circle cx="232.4" cy="25.9" r="6" fill="#fbbf24" />
    <circle cx="226.3" cy="81.8" r="6" fill="#fbbf24" />
    <circle cx="225.2" cy="102.1" r="6" fill="#fbbf24" />
    <circle cx="225.3" cy="127.9" r="6" fill="#3b82f6" />
    <circle cx="226.0" cy="158.1" r="6" fill="#fbbf24" />
    <circle cx="226.8" cy="180.6" r="6" fill="#fbbf24" />
    <circle cx="232.4" cy="206.4" r="6" fill="#fbbf24" />
    <circle cx="226.0" cy="227.3" r="6" fill="#fbbf24" />
    <circle cx="234.9" cy="253.1" r="6" fill="#3b82f6" />
    <circle cx="228.7" cy="280.5" r="6" fill="#fbbf24" />
    <circle cx="234.6" cy="326.1" r="6" fill="#60a5fa" />
    <circle cx="227.1" cy="355.4" r="6" fill="#60a5fa" />
    <circle cx="231.0" cy="426.0" r="6" fill="#fbbf24" />
    <circle cx="225.1" cy="503.3" r="6" fill="#60a5fa" />
    <circle cx="231.1" cy="529.6" r="6" fill="#fbbf24" />
    <circle cx="257.3" cy="9.9" r="6" fill="#60a5fa" />
    <circle cx="251.4" cy="52.2" r="6" fill="#60a5fa" />
    <circle cx="259.9" cy="81.3" r="6" fill="#3b82f6" />
    <circle cx="250.6" cy="102.0" r="6" fill="#60a5fa" />
    <circle cx="259.1" cy="159.9" r="6" fill="#fbbf24" />
    <circle cx="259.1" cy="279.4" r="6" fill="#60a5fa" />
    <circle cx="253.8" cy="307.2" r="6" fill="#3b82f6" />
    <circle cx="250.4" cy="330.4" r="6" fill="#60a5fa" />
    <circle cx="253.9" cy="357.2" r="6" fill="#fbbf24" />
    <circle cx="252.1" cy="409.6" r="6" fill="#60a5fa" />
    <circle cx="252.5" cy="427.3" r="6" fill="#fbbf24" />
    <circle cx="253.6" cy="457.3" r="6" fill="#60a5fa" />
    <circle cx="258.7" cy="483.6" r="6" fill="#3b82f6" />
    <circle cx="251.5" cy="507.4" r="6" fill="#fbbf24" />
    <circle cx="282.3" cy="4.4" r="6" fill="#60a5fa" />
    <circle cx="278.4" cy="52.1" r="6" fill="#3b82f6" />
    <circle cx="275.5" cy="81.1" r="6" fill="#60a5fa" />
    <circle cx="284.4" cy="109.2" r="6" fill="#fbbf24" />
    <circle cx="281.8" cy="129.3" r="6" fill="#3b82f6" />
    <circle cx="284.4" cy="181.8" r="6" fill="#60a5fa" />
    <circle cx="277.5" cy="234.9" r="6" fill="#3b82f6" />
    <circle cx="280.4" cy="250.8" r="6" fill="#60a5fa" />
    <circle cx="282.6" cy="307.3" r="6" fill="#3b82f6" />
    <circle cx="279.5" cy="328.3" r="6" fill="#3b82f6" />
    <circle cx="283.4" cy="384.4" r="6" fill="#fbbf24" />
    <circle cx="283.6" cy="431.2" r="6" fill="#60a5fa" />
    <circle cx="278.6" cy="453.1" r="6" fill="#60a5fa" />
    <circle cx="282.8" cy="477.9" r="6" fill="#fbbf24" />
    <circle cx="279.0" cy="500.9" r="6" fill="#3b82f6" />
    <circle cx="283.0" cy="531.6" r="6" fill="#60a5fa" />
    <circle cx="302.1" cy="9.1" r="6" fill="#fbbf24" />
    <circle cx="302.5" cy="33.8" r="6" fill="#fbbf24" />
    <circle cx="308.1" cy="57.9" r="6" fill="#3b82f6" />
    <circle cx="301.6" cy="105.6" r="6" fill="#60a5fa" />
    <circle cx="305.4" cy="130.0" r="6" fill="#3b82f6" />
    <circle cx="304.7" cy="152.9" r="6" fill="#3b82f6" />
    <circle cx="305.9" cy="175.0" r="6" fill="#fbbf24" />
    <circle cx="306.3" cy="209.9" r="6" fill="#fbbf24" />
    <circle cx="307.6" cy="228.3" r="6" fill="#3b82f6" />
    <circle cx="307.0" cy="257.6" r="6" fill="#3b82f6" />
    <circle cx="304.8" cy="330.5" r="6" fill="#3b82f6" />
    <circle cx="308.5" cy="377.2" r="6" fill="#60a5fa" />
    <circle cx="301.9" cy="409.7" r="6" fill="#60a5fa" />
    <circle cx="306.9" cy="434.2" r="6" fill="#3b82f6" />
    <circle cx="300.2" cy="454.0" r="6" fill="#60a5fa" />
    <circle cx="309.8" cy="475.7" r="6" fill="#3b82f6" />
    <circle cx="306.4" cy="527.5" r="6" fill="#3b82f6" />
    <circle cx="329.5" cy="2.8" r="6" fill="#3b82f6" />
    <circle cx="333.5" cy="30.9" r="6" fill="#3b82f6" />
    <circle cx="325.7" cy="59.1" r="6" fill="#3b82f6" />
    <circle cx="331.6" cy="109.4" r="6" fill="#3b82f6" />
    <circle cx="329.8" cy="134.9" r="6" fill="#60a5fa" />
    <circle cx="327.1" cy="154.7" r="6" fill="#3b82f6" />
    <circle cx="328.4" cy="178.1" r="6" fill="#3b82f6" />
    <circle cx="327.9" cy="229.7" r="6" fill="#60a5fa" />
    <circle cx="332.4" cy="259.7" r="6" fill="#fbbf24" />
    <circle cx="329.8" cy="283.8" r="6" fill="#60a5fa" />
    <circle cx="332.1" cy="334.1" r="6" fill="#60a5fa" />
    <circle cx="332.9" cy="354.7" r="6" fill="#3b82f6" />
    <circle cx="334.4" cy="408.9" r="6" fill="#60a5fa" />
    <circle cx="327.9" cy="427.0" r="6" fill="#3b82f6" />
    <circle cx="329.7" cy="484.5" r="6" fill="#60a5fa" />
    <circle cx="332.6" cy="502.5" r="6" fill="#60a5fa" />
    <circle cx="328.4" cy="534.4" r="6" fill="#3b82f6" />
    <circle cx="351.6" cy="8.7" r="6" fill="#fbbf24" />
    <circle cx="355.1" cy="29.2" r="6" fill="#60a5fa" />
    <circle cx="355.5" cy="56.3" r="6" fill="#60a5fa" />
    <circle cx="355.4" cy="78.6" r="6" fill="#60a5fa" />
    <circle cx="353.4" cy="127.6" r="6" fill="#3b82f6" />
    <circle cx="359.3" cy="153.1" r="6" fill="#3b82f6" />
    <circle cx="352.8" cy="179.5" r="6" fill="#60a5fa" />
    <circle cx="355.5" cy="259.5" r="6" fill="#60a5fa" />
    <circle cx="353.2" cy="281.0" r="6" fill="#fbbf24" />
    <circle cx="359.3" cy="305.2" r="6" fill="#3b82f6" />
    <circle cx="350.7" cy="329.4" r="6" fill="#fbbf24" />
    <circle cx="354.8" cy="352.6" r="6" fill="#3b82f6" />
    <circle cx="355.7" cy="426.1" r="6" fill="#3b82f6" />
    <circle cx="354.6" cy="478.1" r="6" fill="#fbbf24" />
    <circle cx="383.3" cy="4.6" r="6" fill="#fbbf24" />
    <circle cx="377.7" cy="30.5" r="6" fill="#60a5fa" />
    <circle cx="384.4" cy="58.9" r="6" fill="#60a5fa" />
    <circle cx="378.8" cy="84.1" r="6" fill="#fbbf24" />
    <circle cx="378.6" cy="102.0" r="6" fill="#3b82f6" />
    <circle cx="378.2" cy="133.4" r="6" fill="#3b82f6" />
    <circle cx="377.9" cy="181.2" r="6" fill="#60a5fa" />
    <circle cx="380.7" cy="256.2" r="6" fill="#fbbf24" />
    <circle cx="382.2" cy="278.9" r="6" fill="#3b82f6" />
    <circle cx="379.2" cy="306.9" r="6" fill="#60a5fa" />
    <circle cx="381.4" cy="330.9" r="6" fill="#fbbf24" />
    <circle cx="375.3" cy="353.3" r="6" fill="#60a5fa" />
    <circle cx="383.8" cy="380.6" r="6" fill="#fbbf24" />
    <circle cx="375.3" cy="431.8" r="6" fill="#3b82f6" />
    <circle cx="382.8" cy="457.9" r="6" fill="#fbbf24" />
    <circle cx="379.9" cy="482.4" r="6" fill="#60a5fa" />
    <circle cx="376.3" cy="505.8" r="6" fill="#3b82f6" />
    <circle cx="382.9" cy="528.3" r="6" fill="#3b82f6" /></g>
  <rect x="226.9" y="31.7" width="84.8" height="84.8" fill="#60a5fa" opacity="0.23" />
    <polygon points="215.5,448.9 262.3,542.4 168.8,542.4" fill="#fbbf24" opacity="0.12" />
    <polygon points="58.2,127.7 101.1,213.5 15.3,213.5" fill="#fbbf24" opacity="0.26" />
    <polygon points="195.4,82.1 213.0,99.8 195.4,117.4 177.7,99.8" fill="#fbbf24" opacity="0.36" />
    <polygon points="397.8,140.8 424.7,194.8 370.8,194.8" fill="#60a5fa" opacity="0.16" />
    <rect x="260.1" y="439.4" width="64.1" height="64.1" fill="#fbbf24" opacity="0.32" />
    <polygon points="80.7,252.8 103.4,275.6 80.7,298.3 58.0,275.6" fill="#3b82f6" opacity="0.35" />
    <polygon points="160.9,320.9 184.3,367.9 137.4,367.9" fill="#3b82f6" opacity="0.14" />
    <polygon points="70.3,193.5 96.3,245.5 44.3,245.5" fill="#60a5fa" opacity="0.10" />
    <polygon points="250.6,401.4 269.1,438.4 232.1,438.4" fill="#fbbf24" opacity="0.19" />
    <polygon points="381.3,170.2 418.7,245.0 344.0,245.0" fill="#60a5fa" opacity="0.21" />
  
  <!-- Text background banner -->
  <defs>
    <linearGradient id="text-bg-15" x1="0%" y1="0%" x2="100%" y2="0%">
      <stop offset="0%" style="stop-color:#000000;stop-opacity:0.7" />
      <stop offset="50%" style="stop-color:#3b82f6;stop-opacity:0.4" />
      <stop offset="100%" style="stop-color:#000000;stop-opacity:0.7" />
    </linearGradient>
  </defs>
  <rect x="0" y="494" width="400" height="56" fill="url(#text-bg-15)" />

  <!-- Text shadow -->
  <text x="200" y="522" font-family="system-ui, -apple-system, sans-serif" font-size="24" font-weight="bold" text-anchor="middle" fill="#000000" opacity="0.8">Fence Fuck-Face</text>

  <!-- Main text -->
  <text x="200" y="520" font-family="system-ui, -apple-system, sans-serif" font-size="24" font-weight="bold" text-anchor="middle" fill="#ffffff">Fence Fuck-Face</text>
  
  <!-- Rarity border -->
  <rect x="4" y="4" width="392" height="542"
        fill="none" stroke="#eab308" stroke-width="8" rx="8" ry="8" />
</svg>