<?xml version="1.0" encoding="UTF-8"?>
<svg xmlns="http://www.w3.org/2000/svg" viewBox="0 0 400 550" width="400" height="550">
  <defs>
    <linearGradient id="bg-gradient-102" x1="0%" y1="0%" x2="100%" y2="100%">
      <stop offset="0%" style="stop-color:#22c55e;stop-opacity:0.26" />
      <stop offset="50%" style="stop-color:#16a34a;stop-opacity:0.4" />
      <stop offset="100%" style="stop-color:#22c55e;stop-opacity:0.26" />
    </linearGradient>
    
  <filter id="shadow-102">
    <feDropShadow dx="0" dy="2" stdDeviation="3" flood-opacity="0.8"/>
  </filter>
  </defs>
  <rect width="400" height="550" fill="url(#bg-gradient-0.5327949882484972)" />
  <g opacity="0.3"><polyline points="0,242.8 5,247.4 10,252.3 15,257.5 20,262.9 25,268.4 30,273.8 35,279.1 40,284.1 45,288.8 50,293.0 55,296.6 60,299.6 65,302.0 70,303.6 75,304.4 80,304.4 85,303.7 90,302.2 95,300.0 100,297.0 105,293.5 110,289.3 115,284.7 120,279.8 125,274.5 130,269.1 135,263.6 140,258.2 145,253.0 150,248.0 155,243.4 160,239.3 165,235.7 170,232.8 175,230.5 180,229.0 185,228.3 190,228.4 195,229.2 200,230.8 205,233.1 210,236.1 215,239.8 220,244.0 225,248.6 230,253.6 235,258.9 240,264.4 245,269.8 250,275.2 255,280.4 260,285.4 265,289.9 270,294.0 275,297.5 280,300.3 285,302.4 290,303.8 295,304.5 300,304.3 305,303.4 310,301.7 315,299.3 320,296.2 325,292.4 330,288.2 335,283.5 340,278.4 345,273.1 350,267.7 355,262.2 360,256.8 365,251.6 370,246.7 375,242.3 380,238.3 385,234.9 390,232.1 395,230.1 400,228.8" fill="none" stroke="#fbbf24" stroke-width="2.5" opacity="0.19" />
    <polyline points="0,53.8 5,52.3 10,50.4 15,48.0 20,45.4 25,42.4 30,39.1 35,35.6 40,32.0 45,28.3 50,24.6 55,20.8 60,17.2 65,13.7 70,10.3 75,7.3 80,4.5 85,2.0 90,-0.0 95,-1.7 100,-2.9 105,-3.7 110,-3.9 115,-3.8 120,-3.1 125,-2.0 130,-0.4 135,1.5 140,3.9 145,6.6 150,9.6 155,12.9 160,16.4 165,20.0 170,23.7 175,27.5 180,31.2 185,34.9 190,38.4 195,41.7 200,44.7 205,47.5 210,49.9 215,51.9 220,53.5 225,54.7 230,55.4 235,55.7 240,55.4 245,54.7 250,53.6 255,52.0 260,50.0 265,47.6 270,44.8 275,41.8 280,38.5 285,35.0 290,31.4 295,27.6 300,23.9 305,20.1 310,16.5 315,13.0 320,9.7 325,6.7 330,4.0 335,1.6 340,-0.4 345,-1.9 350,-3.1 355,-3.7 360,-3.9 365,-3.7 370,-2.9 375,-1.7 380,-0.1 385,2.0 390,4.4 395,7.1 400,10.2" fill="none" stroke="#16a34a" stroke-width="1.9" opacity="0.19" />
    <polyline points="0,66.4 5,62.0 10,57.3 15,52.3 20,47.1 25,41.8 30,36.6 35,31.6 40,26.9 45,22.5 50,18.6 55,15.3 60,12.6 65,10.6 70,9.3 75,8.8 80,9.0 85,10.0 90,11.7 95,14.1 100,17.2 105,20.9 110,25.0 115,29.6 120,34.5 125,39.7 130,44.9 135,50.1 140,55.2 145,60.1 150,64.7 155,68.8 160,72.4 165,75.4 170,77.7 175,79.4 180,80.3 185,80.4 190,79.8 195,78.4 200,76.3 205,73.5 210,70.1 215,66.1 220,61.7 225,57.0 230,51.9 235,46.7 240,41.5 245,36.3 250,31.3 255,26.6 260,22.3 265,18.4 270,15.1 275,12.5 280,10.5 285,9.2 290,8.7 295,9.0 300,10.1 305,11.8 310,14.3 315,17.4 320,21.1 325,25.3 330,29.9 335,34.9 340,40.0 345,45.2 350,50.5 355,55.6 360,60.4 365,64.9 370,69.0 375,72.6 380,75.6 385,77.9 390,79.4 395,80.3 400,80.4" fill="none" stroke="#16a34a" stroke-width="1.2" opacity="0.19" />
    <polyline points="0,499.2 5,499.2 10,499.4 15,499.7 20,500.1 25,500.7 30,501.3 35,502.0 40,502.8 45,503.7 50,504.7 55,505.8 60,507.0 65,508.3 70,509.6 75,511.0 80,512.5 85,514.0 90,515.6 95,517.2 100,518.9 105,520.6 110,522.3 115,524.1 120,525.9 125,527.7 130,529.5 135,531.2 140,533.0 145,534.8 150,536.5 155,538.2 160,539.9 165,541.5 170,543.1 175,544.6 180,546.1 185,547.4 190,548.8 195,550.0 200,551.2 205,552.3 210,553.2 215,554.1 220,554.9 225,555.6 230,556.2 235,556.7 240,557.1 245,557.4 250,557.6 255,557.6 260,557.6 265,557.4 270,557.2 275,556.8 280,556.3 285,555.7 290,555.1 295,554.3 300,553.4 305,552.4 310,551.4 315,550.2 320,549.0 325,547.7 330,546.3 335,544.8 340,543.3 345,541.7 350,540.1 355,538.5 360,536.8 365,535.0 370,533.3 375,531.5 380,529.7 385,527.9 390,526.1 395,524.4 400,522.6" fill="none" stroke="#16a34a" stroke-width="1.1" opacity="0.18" />
    <polyline points="0,430.9 5,428.6 10,426.1 15,423.6 20,421.0 25,418.5 30,416.0 35,413.6 40,411.3 45,409.3 50,407.4 55,405.9 60,404.6 65,403.6 70,403.0 75,402.7 80,402.8 85,403.2 90,403.9 95,405.0 100,406.4 105,408.0 110,409.9 115,412.1 120,414.4 125,416.8 130,419.3 135,421.9 140,424.5 145,427.0 150,429.4 155,431.7 160,433.8 165,435.6 170,437.2 175,438.6 180,439.6 185,440.3 190,440.6 195,440.6 200,440.2 205,439.6 210,438.5 215,437.2 220,435.6 225,433.7 230,431.6 235,429.3 240,426.9 245,424.4 250,421.9 255,419.3 260,416.8 265,414.3 270,412.0 275,409.9 280,408.0 285,406.3 290,405.0 295,403.9 300,403.2 305,402.8 310,402.7 315,403.0 320,403.6 325,404.6 330,405.9 335,407.5 340,409.3 345,411.4 350,413.6 355,416.0 360,418.5 365,421.1 370,423.6 375,426.2 380,428.6 385,430.9 390,433.1 395,435.0 400,436.7" fill="none" stroke="#fbbf24" stroke-width="2.9" opacity="0.14" />
    <polyline points="0,127.4 5,126.6 10,125.7 15,124.7 20,123.7 25,122.6 30,121.4 35,120.1 40,118.8 45,117.5 50,116.1 55,114.7 60,113.3 65,111.8 70,110.3 75,108.8 80,107.3 85,105.9 90,104.4 95,102.9 100,101.4 105,100.0 110,98.6 115,97.3 120,96.0 125,94.7 130,93.5 135,92.4 140,91.3 145,90.3 150,89.3 155,88.5 160,87.7 165,87.0 170,86.4 175,85.9 180,85.5 185,85.2 190,85.0 195,84.8 200,84.8 205,84.9 210,85.1 215,85.3 220,85.7 225,86.1 230,86.7 235,87.3 240,88.0 245,88.8 250,89.7 255,90.7 260,91.7 265,92.8 270,94.0 275,95.2 280,96.5 285,97.8 290,99.2 295,100.6 300,102.0 305,103.5 310,104.9 315,106.4 320,107.9 325,109.4 330,110.9 335,112.4 340,113.9 345,115.3 350,116.7 355,118.0 360,119.4 365,120.6 370,121.8 375,123.0 380,124.1 385,125.1 390,126.1 395,126.9 400,127.7" fill="none" stroke="#16a34a" stroke-width="2.8" opacity="0.28" />
    <polyline points="0,456.3 5,452.7 10,449.2 15,445.7 20,442.3 25,439.0 30,435.9 35,433.0 40,430.2 45,427.7 50,425.5 55,423.5 60,421.8 65,420.4 70,419.3 75,418.5 80,418.0 85,417.9 90,418.1 95,418.6 100,419.5 105,420.7 110,422.1 115,423.9 120,425.9 125,428.3 130,430.8 135,433.6 140,436.6 145,439.7 150,443.0 155,446.4 160,449.9 165,453.5 170,457.1 175,460.7 180,464.3 185,467.8 190,471.2 195,474.5 200,477.7 205,480.7 210,483.5 215,486.1 220,488.5 225,490.5 230,492.4 235,493.9 240,495.1 245,496.0 250,496.6 255,496.8 260,496.7 265,496.3 270,495.6 275,494.5 280,493.1 285,491.5 290,489.5 295,487.3 300,484.8 305,482.1 310,479.2 315,476.1 320,472.9 325,469.5 330,466.0 335,462.5 340,458.9 345,455.3 350,451.7 355,448.2 360,444.7 365,441.3 370,438.1 375,435.0 380,432.2 385,429.5 390,427.1 395,424.9 400,423.0" fill="none" stroke="#fbbf24" stroke-width="1.5" opacity="0.17" />
    <polyline points="0,341.4 5,342.2 10,342.9 15,343.6 20,344.3 25,344.9 30,345.4 35,345.9 40,346.3 45,346.6 50,346.8 55,347.0 60,347.0 65,347.0 70,346.9 75,346.8 80,346.5 85,346.2 90,345.8 95,345.3 100,344.7 105,344.1 110,343.4 115,342.7 120,341.9 125,341.1 130,340.3 135,339.4 140,338.5 145,337.6 150,336.7 155,335.8 160,334.9 165,334.0 170,333.1 175,332.3 180,331.5 185,330.7 190,330.0 195,329.4 200,328.8 205,328.3 210,327.8 215,327.5 220,327.2 225,326.9 230,326.8 235,326.8 240,326.8 245,326.9 250,327.1 255,327.4 260,327.7 265,328.1 270,328.6 275,329.2 280,329.8 285,330.5 290,331.2 295,332.0 300,332.8 305,333.7 310,334.6 315,335.5 320,336.4 325,337.3 330,338.2 335,339.1 340,340.0 345,340.9 350,341.7 355,342.5 360,343.2 365,343.9 370,344.5 375,345.1 380,345.6 385,346.0 390,346.4 395,346.7 400,346.9" fill="none" stroke="#16a34a" stroke-width="1.9" opacity="0.24" /></g>
  <rect x="363.3" y="387.7" width="43.2" height="43.2" fill="#16a34a" opacity="0.35" />
    <circle cx="399.0" cy="11.4" r="21.7" fill="#22c55e" opacity="0.18" />
    <circle cx="245.1" cy="484.3" r="44.5" fill="#16a34a" opacity="0.22" />
    <polygon points="371.4,259.8 414.0,302.4 371.4,345.1 328.7,302.4" fill="#22c55e" opacity="0.27" />
    <polygon points="68.9,374.3 111.2,458.7 26.7,458.7" fill="#fbbf24" opacity="0.19" />
    <circle cx="304.8" cy="182.0" r="16.8" fill="#16a34a" opacity="0.29" />
    <rect x="-7.2" y="243.2" width="95.3" height="95.3" fill="#22c55e" opacity="0.33" />
    <polygon points="241.1,109.7 259.9,128.5 241.1,147.3 222.3,128.5" fill="#16a34a" opacity="0.19" />
    <rect x="112.6" y="383.5" width="63.2" height="63.2" fill="#22c55e" opacity="0.22" />
    <polygon points="217.8,93.9 246.0,150.2 189.7,150.2" fill="#16a34a" opacity="0.24" />
    <polygon points="195.2,201.5 244.1,250.4 195.2,299.3 146.3,250.4" fill="#16a34a" opacity="0.24" />
  
  <!-- Text background banner -->
  <defs>
    <linearGradient id="text-bg-18" x1="0%" y1="0%" x2="100%" y2="0%">
      <stop offset="0%" style="stop-color:#000000;stop-opacity:0.7" />
      <stop offset="50%" style="stop-color:#22c55e;stop-opacity:0.4" />
      <stop offset="100%" style="stop-color:#000000;stop-opacity:0.7" />
    </linearGradient>
  </defs>
  <rect x="0" y="494" width="400" height="56" fill="url(#text-bg-18)" />

  <!-- Text shadow -->
  <text x="200" y="522" font-family="system-ui, -apple-system, sans-serif" font-size="24" font-weight="bold" text-anchor="middle" fill="#000000" opacity="0.8">Skater Spawn Shawn</text>

  <!-- Main text -->
  <text x="200" y="520" font-family="system-ui, -apple-system, sans-serif" font-size="24" font-weight="bold" text-anchor="middle" fill="#ffffff">Skater Spawn Shawn</text>
  
  <!-- Rarity border -->
  <rect x="4" y="4" width="392" height="542"
        fill="none" stroke="#eab308" stroke-width="8" rx="8" ry="8" />
</svg>