<?xml version="1.0" encoding="UTF-8"?>
<svg xmlns="http://www.w3.org/2000/svg" viewBox="0 0 400 550" width="400" height="550">
  <defs>
    <linearGradient id="bg-gradient-103" x1="0%" y1="0%" x2="100%" y2="100%">
      <stop offset="0%" style="stop-color:#ec4899;stop-opacity:0.26" />
      <stop offset="50%" style="stop-color:#f472b6;stop-opacity:0.4" />
      <stop offset="100%" style="stop-color:#ec4899;stop-opacity:0.26" />
    </linearGradient>
    
  <filter id="shadow-103">
    <feDropShadow dx="0" dy="2" stdDeviation="3" flood-opacity="0.8"/>
  </filter>
  </defs>
  <rect width="400" height="550" fill="url(#bg-gradient-0.8013497684150934)" />
  <g opacity="0.3"><polyline points="0,277.2 5,277.8 10,278.3 15,278.5 20,278.5 25,278.3 30,277.9 35,277.3 40,276.5 45,275.5 50,274.3 55,272.9 60,271.3 65,269.6 70,267.7 75,265.7 80,263.5 85,261.2 90,258.8 95,256.3 100,253.7 105,251.1 110,248.4 115,245.6 120,242.9 125,240.2 130,237.4 135,234.7 140,232.0 145,229.4 150,226.9 155,224.5 160,222.2 165,219.9 170,217.9 175,215.9 180,214.1 185,212.5 190,211.0 195,209.8 200,208.7 205,207.8 210,207.1 215,206.7 220,206.4 225,206.3 230,206.5 235,206.8 240,207.4 245,208.2 250,209.1 255,210.3 260,211.6 265,213.2 270,214.9 275,216.7 280,218.7 285,220.9 290,223.1 295,225.5 300,228.0 305,230.6 310,233.2 315,235.9 320,238.6 325,241.3 330,244.1 335,246.8 340,249.5 345,252.2 350,254.8 355,257.4 360,259.8 365,262.2 370,264.4 375,266.5 380,268.5 385,270.3 390,272.0 395,273.5 400,274.8" fill="none" stroke="#a855f7" stroke-width="2.1" opacity="0.19" />
    <polyline points="0,510.0 5,510.8 10,511.9 15,513.2 20,514.7 25,516.4 30,518.3 35,520.4 40,522.6 45,524.9 50,527.4 55,529.9 60,532.4 65,535.0 70,537.5 75,540.0 80,542.5 85,544.9 90,547.1 95,549.3 100,551.2 105,553.0 110,554.7 115,556.1 120,557.2 125,558.2 130,558.9 135,559.3 140,559.5 145,559.4 150,559.1 155,558.5 160,557.6 165,556.5 170,555.2 175,553.7 180,552.0 185,550.1 190,548.0 195,545.8 200,543.4 205,541.0 210,538.5 215,536.0 220,533.4 225,530.8 230,528.3 235,525.9 240,523.5 245,521.3 250,519.1 255,517.2 260,515.4 265,513.8 270,512.4 275,511.2 280,510.3 285,509.6 290,509.2 295,509.0 300,509.1 305,509.5 310,510.1 315,511.0 320,512.1 325,513.4 330,514.9 335,516.7 340,518.6 345,520.7 350,522.9 355,525.3 360,527.7 365,530.2 370,532.8 375,535.3 380,537.9 385,540.4 390,542.8 395,545.2 400,547.4" fill="none" stroke="#ec4899" stroke-width="1.1" opacity="0.28" />
    <polyline points="0,186.8 5,186.1 10,185.2 15,184.2 20,183.1 25,181.9 30,180.5 35,179.1 40,177.6 45,176.0 50,174.4 55,172.8 60,171.1 65,169.4 70,167.8 75,166.1 80,164.6 85,163.0 90,161.6 95,160.2 100,159.0 105,157.8 110,156.8 115,155.9 120,155.1 125,154.5 130,154.1 135,153.8 140,153.6 145,153.6 150,153.8 155,154.2 160,154.7 165,155.3 170,156.1 175,157.0 180,158.1 185,159.3 190,160.6 195,162.0 200,163.4 205,165.0 210,166.6 215,168.2 220,169.9 225,171.5 230,173.2 235,174.8 240,176.4 245,178.0 250,179.5 255,180.9 260,182.2 265,183.4 270,184.5 275,185.4 280,186.3 285,186.9 290,187.5 295,187.9 300,188.1 305,188.1 310,188.0 315,187.8 320,187.3 325,186.8 330,186.0 335,185.2 340,184.2 345,183.0 350,181.8 355,180.5 360,179.0 365,177.5 370,176.0 375,174.3 380,172.7 385,171.0 390,169.4 395,167.7 400,166.1" fill="none" stroke="#ec4899" stroke-width="1.5" opacity="0.29" />
    <polyline points="0,302.4 5,303.0 10,304.2 15,305.9 20,308.1 25,310.7 30,313.8 35,317.2 40,320.9 45,324.9 50,329.0 55,333.3 60,337.6 65,341.8 70,346.0 75,349.9 80,353.7 85,357.1 90,360.1 95,362.7 100,364.9 105,366.6 110,367.7 115,368.3 120,368.3 125,367.8 130,366.7 135,365.1 140,363.0 145,360.4 150,357.4 155,354.1 160,350.4 165,346.4 170,342.3 175,338.1 180,333.8 185,329.5 190,325.3 195,321.3 200,317.6 205,314.1 210,311.0 215,308.3 220,306.1 225,304.4 230,303.1 235,302.5 240,302.4 245,302.8 250,303.8 255,305.3 260,307.4 265,309.9 270,312.8 275,316.1 280,319.8 285,323.7 290,327.8 295,332.0 300,336.3 305,340.6 310,344.8 315,348.8 320,352.6 325,356.1 330,359.3 335,362.0 340,364.3 345,366.1 350,367.4 355,368.2 360,368.4 365,368.0 370,367.1 375,365.6 380,363.7 385,361.2 390,358.4 395,355.1 400,351.5" fill="none" stroke="#a855f7" stroke-width="2.9" opacity="0.16" />
    <polyline points="0,29.8 5,30.6 10,31.3 15,32.0 20,32.5 25,33.0 30,33.4 35,33.7 40,33.8 45,33.9 50,33.9 55,33.8 60,33.6 65,33.3 70,32.8 75,32.3 80,31.8 85,31.1 90,30.3 95,29.5 100,28.5 105,27.5 110,26.5 115,25.3 120,24.1 125,22.9 130,21.6 135,20.3 140,18.9 145,17.5 150,16.1 155,14.7 160,13.2 165,11.8 170,10.3 175,8.9 180,7.5 185,6.1 190,4.7 195,3.4 200,2.1 205,0.9 210,-0.3 215,-1.4 220,-2.4 225,-3.4 230,-4.3 235,-5.2 240,-5.9 245,-6.6 250,-7.1 255,-7.6 260,-8.0 265,-8.3 270,-8.5 275,-8.5 280,-8.5 285,-8.4 290,-8.2 295,-7.9 300,-7.5 305,-7.0 310,-6.4 315,-5.8 320,-5.0 325,-4.2 330,-3.3 335,-2.3 340,-1.2 345,-0.1 350,1.1 355,2.4 360,3.6 365,5.0 370,6.3 375,7.7 380,9.2 385,10.6 390,12.0 395,13.5 400,14.9" fill="none" stroke="#ec4899" stroke-width="1.1" opacity="0.17" />
    <polyline points="0,149.7 5,147.9 10,145.9 15,143.6 20,141.2 25,138.6 30,135.8 35,132.9 40,130.0 45,127.0 50,123.9 55,120.9 60,117.9 65,115.0 70,112.2 75,109.5 80,107.0 85,104.7 90,102.6 95,100.7 100,99.1 105,97.8 110,96.8 115,96.0 120,95.6 125,95.5 130,95.6 135,96.1 140,97.0 145,98.1 150,99.5 155,101.1 160,103.0 165,105.2 170,107.5 175,110.1 180,112.8 185,115.6 190,118.5 195,121.5 200,124.6 205,127.6 210,130.6 215,133.6 220,136.4 225,139.1 230,141.7 235,144.1 240,146.3 245,148.3 250,150.0 255,151.4 260,152.6 265,153.5 270,154.0 275,154.3 280,154.2 285,153.9 290,153.2 295,152.2 300,150.9 305,149.4 310,147.6 315,145.5 320,143.3 325,140.8 330,138.1 335,135.4 340,132.5 345,129.5 350,126.5 355,123.4 360,120.4 365,117.4 370,114.6 375,111.8 380,109.1 385,106.6 390,104.4 395,102.3 400,100.5" fill="none" stroke="#f472b6" stroke-width="2.3" opacity="0.30" />
    <polyline points="0,23.6 5,21.0 10,18.6 15,16.2 20,13.9 25,11.7 30,9.7 35,7.9 40,6.3 45,4.9 50,3.8 55,2.9 60,2.2 65,1.9 70,1.8 75,1.9 80,2.4 85,3.1 90,4.0 95,5.3 100,6.7 105,8.4 110,10.2 115,12.3 120,14.5 125,16.8 130,19.2 135,21.7 140,24.3 145,26.8 150,29.4 155,31.9 160,34.4 165,36.7 170,39.0 175,41.1 180,43.0 185,44.8 190,46.3 195,47.6 200,48.7 205,49.5 210,50.0 215,50.3 220,50.3 225,50.0 230,49.5 235,48.7 240,47.6 245,46.3 250,44.8 255,43.1 260,41.2 265,39.1 270,36.8 275,34.5 280,32.0 285,29.5 290,26.9 295,24.4 300,21.8 305,19.3 310,16.9 315,14.5 320,12.3 325,10.3 330,8.4 335,6.8 340,5.3 345,4.1 350,3.1 355,2.4 360,1.9 365,1.8 370,1.8 375,2.2 380,2.8 385,3.7 390,4.9 395,6.2 400,7.8" fill="none" stroke="#ec4899" stroke-width="1.2" opacity="0.23" />
    <polyline points="0,168.4 5,166.9 10,165.3 15,163.6 20,161.9 25,160.1 30,158.3 35,156.5 40,154.6 45,152.7 50,150.8 55,148.9 60,147.0 65,145.1 70,143.2 75,141.4 80,139.6 85,137.8 90,136.1 95,134.4 100,132.8 105,131.2 110,129.7 115,128.3 120,127.0 125,125.8 130,124.6 135,123.6 140,122.6 145,121.7 150,121.0 155,120.4 160,119.8 165,119.4 170,119.1 175,118.9 180,118.9 185,118.9 190,119.1 195,119.4 200,119.8 205,120.3 210,120.9 215,121.7 220,122.5 225,123.5 230,124.5 235,125.6 240,126.9 245,128.2 250,129.6 255,131.1 260,132.6 265,134.2 270,135.9 275,137.6 280,139.4 285,141.2 290,143.1 295,144.9 300,146.8 305,148.7 310,150.6 315,152.5 320,154.4 325,156.3 330,158.1 335,159.9 340,161.7 345,163.4 350,165.1 355,166.7 360,168.3 365,169.8 370,171.2 375,172.5 380,173.8 385,174.9 390,176.0 395,176.9 400,177.8" fill="none" stroke="#f472b6" stroke-width="2.2" opacity="0.13" /></g>
  <rect x="46.0" y="437.3" width="71.1" height="71.1" fill="#f472b6" opacity="0.19" />
    <rect x="111.4" y="364.1" width="67.5" height="67.5" fill="#f472b6" opacity="0.33" />
    <polygon points="46.2,181.1 89.4,224.2 46.2,267.4 3.1,224.2" fill="#f472b6" opacity="0.33" />
    <circle cx="320.7" cy="311.8" r="28.7" fill="#ec4899" opacity="0.10" />
    <circle cx="212.9" cy="257.3" r="47.9" fill="#a855f7" opacity="0.33" />
    <rect x="15.5" y="372.3" width="54.2" height="54.2" fill="#a855f7" opacity="0.11" />
    <rect x="70.7" y="219.2" width="28.0" height="28.0" fill="#a855f7" opacity="0.28" />
    <polygon points="258.3,85.9 274.0,101.6 258.3,117.3 242.6,101.6" fill="#ec4899" opacity="0.10" />
    <polygon points="16.4,44.2 59.6,87.4 16.4,130.7 -26.9,87.4" fill="#f472b6" opacity="0.20" />
    <circle cx="328.3" cy="263.3" r="24.9" fill="#ec4899" opacity="0.16" />
    <polygon points="271.1,170.4 287.7,203.6 254.5,203.6" fill="#f472b6" opacity="0.23" />
  
  <!-- Text background banner -->
  <defs>
    <linearGradient id="text-bg-17" x1="0%" y1="0%" x2="100%" y2="0%">
      <stop offset="0%" style="stop-color:#000000;stop-opacity:0.7" />
      <stop offset="50%" style="stop-color:#ec4899;stop-opacity:0.4" />
      <stop offset="100%" style="stop-color:#000000;stop-opacity:0.7" />
    </linearGradient>
  </defs>
  <rect x="0" y="494" width="400" height="56" fill="url(#text-bg-17)" />

  <!-- Text shadow -->
  <text x="200" y="522" font-family="system-ui, -apple-system, sans-serif" font-size="24" font-weight="bold" text-anchor="middle" fill="#000000" opacity="0.8">Selfie Slut Sarah</text>

  <!-- Main text -->
  <text x="200" y="520" font-family="system-ui, -apple-system, sans-serif" font-size="24" font-weight="bold" text-anchor="middle" fill="#ffffff">Selfie Slut Sarah</text>
  
  <!-- Rarity border -->
  <rect x="4" y="4" width="392" height="542"
        fill="none" stroke="#eab308" stroke-width="8" rx="8" ry="8" />
</svg>