<?xml version="1.0" encoding="UTF-8"?>
<svg xmlns="http://www.w3.org/2000/svg" viewBox="0 0 400 550" width="400" height="550">
  <defs>
    <linearGradient id="bg-gradient-104" x1="0%" y1="0%" x2="100%" y2="100%">
      <stop offset="0%" style="stop-color:#f97316;stop-opacity:0.26" />
      <stop offset="50%" style="stop-color:#ef4444;stop-opacity:0.4" />
      <stop offset="100%" style="stop-color:#f97316;stop-opacity:0.26" />
    </linearGradient>
    
  <filter id="shadow-104">
    <feDropShadow dx="0" dy="2" stdDeviation="3" flood-opacity="0.8"/>
  </filter>
  </defs>
  <rect width="400" height="550" fill="url(#bg-gradient-0.5450739515945315)" />
  <g opacity="0.3"><rect x="11.2" y="384.2" width="48.7" height="48.7" fill="none" stroke="#fbbf24" stroke-width="1.2" opacity="0.12" />
    <circle cx="205.4" cy="282.5" r="31.2" fill="none" stroke="#ef4444" stroke-width="1.5" opacity="0.19" />
    <rect x="162.6" y="4.9" width="69.7" height="69.7" fill="none" stroke="#fbbf24" stroke-width="1.9" opacity="0.22" />
    <circle cx="249.4" cy="549.4" r="30.6" fill="none" stroke="#f97316" stroke-width="1.1" opacity="0.29" />
    <rect x="62.3" y="131.9" width="42.6" height="42.6" fill="none" stroke="#ef4444" stroke-width="2.1" opacity="0.18" />
    <circle cx="188.1" cy="395.8" r="22.7" fill="none" stroke="#ef4444" stroke-width="2.1" opacity="0.20" />
    <rect x="345.0" y="63.1" width="35.8" height="35.8" fill="none" stroke="#fbbf24" stroke-width="2.5" opacity="0.29" />
    <circle cx="72.9" cy="449.2" r="23.1" fill="none" stroke="#fbbf24" stroke-width="1.5" opacity="0.24" />
    <rect x="-9.2" y="433.7" width="23.4" height="23.4" fill="none" stroke="#ef4444" stroke-width="1.0" opacity="0.11" /></g>
  <polygon points="115.3,291.0 141.2,342.8 89.4,342.8" fill="#f97316" opacity="0.24" />
    <polygon points="43.4,-0.2 58.3,14.7 43.4,29.6 28.5,14.7" fill="#f97316" opacity="0.18" />
    <polygon points="11.7,511.0 45.5,544.9 11.7,578.7 -22.2,544.9" fill="#ef4444" opacity="0.39" />
    <rect x="175.2" y="242.4" width="94.7" height="94.7" fill="#f97316" opacity="0.36" />
    <circle cx="51.2" cy="95.1" r="13.3" fill="#fbbf24" opacity="0.37" />
    <polygon points="59.4,205.9 85.6,258.3 33.2,258.3" fill="#f97316" opacity="0.27" />
    <rect x="19.7" y="385.2" width="62.9" height="62.9" fill="#f97316" opacity="0.16" />
    <polygon points="236.4,-7.0 250.1,20.4 222.8,20.4" fill="#ef4444" opacity="0.34" />
    <rect x="115.4" y="449.2" width="99.8" height="99.8" fill="#fbbf24" opacity="0.16" />
    <circle cx="339.0" cy="419.8" r="12.1" fill="#ef4444" opacity="0.20" />
    <polygon points="199.3,262.7 228.4,291.8 199.3,320.8 170.3,291.8" fill="#f97316" opacity="0.15" />
  
  <!-- Text background banner -->
  <defs>
    <linearGradient id="text-bg-21" x1="0%" y1="0%" x2="100%" y2="0%">
      <stop offset="0%" style="stop-color:#000000;stop-opacity:0.7" />
      <stop offset="50%" style="stop-color:#f97316;stop-opacity:0.4" />
      <stop offset="100%" style="stop-color:#000000;stop-opacity:0.7" />
    </linearGradient>
  </defs>
  <rect x="0" y="494" width="400" height="56" fill="url(#text-bg-21)" />

  <!-- Text shadow -->
  <text x="200" y="522" font-family="system-ui, -apple-system, sans-serif" font-size="24" font-weight="bold" text-anchor="middle" fill="#000000" opacity="0.8">Uncle Useless Ulysses</text>

  <!-- Main text -->
  <text x="200" y="520" font-family="system-ui, -apple-system, sans-serif" font-size="24" font-weight="bold" text-anchor="middle" fill="#ffffff">Uncle Useless Ulysses</text>
  
  <!-- Rarity border -->
  <rect x="4" y="4" width="392" height="542"
        fill="none" stroke="#eab308" stroke-width="8" rx="8" ry="8" />
</svg>