<?xml version="1.0" encoding="UTF-8"?>
<svg xmlns="http://www.w3.org/2000/svg" viewBox="0 0 400 550" width="400" height="550">
  <defs>
    <linearGradient id="bg-gradient-105" x1="0%" y1="0%" x2="100%" y2="100%">
      <stop offset="0%" style="stop-color:#64748b;stop-opacity:0.26" />
      <stop offset="50%" style="stop-color:#94a3b8;stop-opacity:0.4" />
      <stop offset="100%" style="stop-color:#64748b;stop-opacity:0.26" />
    </linearGradient>
    
  <filter id="shadow-105">
    <feDropShadow dx="0" dy="2" stdDeviation="3" flood-opacity="0.8"/>
  </filter>
  </defs>
  <rect width="400" height="550" fill="url(#bg-gradient-0.20866876211948693)" />
  <g opacity="0.3"><line x1="0" y1="127.0" x2="400" y2="127.0" stroke="#94a3b8" stroke-width="2.6" opacity="0.35" />
    <line x1="0" y1="92.7" x2="400" y2="92.7" stroke="#22c55e" stroke-width="2.0" opacity="0.16" />
    <line x1="232.4" y1="0" x2="232.4" y2="550" stroke="#64748b" stroke-width="1.8" opacity="0.28" />
    <line x1="13.1" y1="0" x2="13.1" y2="550" stroke="#94a3b8" stroke-width="2.1" opacity="0.26" />
    <line x1="0" y1="401.2" x2="400" y2="401.2" stroke="#94a3b8" stroke-width="2.1" opacity="0.22" />
    <line x1="186.3" y1="0" x2="186.3" y2="550" stroke="#64748b" stroke-width="2.5" opacity="0.22" />
    <line x1="0" y1="268.3" x2="400" y2="268.3" stroke="#94a3b8" stroke-width="3.9" opacity="0.37" />
    <line x1="0" y1="313.0" x2="400" y2="313.0" stroke="#22c55e" stroke-width="3.5" opacity="0.25" />
    <line x1="350.6" y1="0" x2="350.6" y2="550" stroke="#94a3b8" stroke-width="4.0" opacity="0.16" />
    <line x1="0" y1="274.0" x2="400" y2="274.0" stroke="#94a3b8" stroke-width="1.0" opacity="0.31" />
    <line x1="75.4" y1="0" x2="75.4" y2="550" stroke="#64748b" stroke-width="2.5" opacity="0.12" />
    <line x1="386.8" y1="0" x2="386.8" y2="550" stroke="#64748b" stroke-width="3.1" opacity="0.18" />
    <line x1="157.8" y1="0" x2="157.8" y2="550" stroke="#64748b" stroke-width="3.4" opacity="0.25" />
    <line x1="11.9" y1="0" x2="11.9" y2="550" stroke="#22c55e" stroke-width="3.7" opacity="0.31" />
    <line x1="355.9" y1="0" x2="355.9" y2="550" stroke="#94a3b8" stroke-width="2.2" opacity="0.13" />
    <line x1="11.1" y1="0" x2="11.1" y2="550" stroke="#94a3b8" stroke-width="1.7" opacity="0.21" />
    <line x1="0" y1="140.9" x2="400" y2="140.9" stroke="#22c55e" stroke-width="2.6" opacity="0.22" />
    <line x1="0" y1="418.3" x2="400" y2="418.3" stroke="#64748b" stroke-width="2.8" opacity="0.38" />
    <line x1="89.5" y1="0" x2="89.5" y2="550" stroke="#22c55e" stroke-width="3.0" opacity="0.31" />
    <line x1="0" y1="404.3" x2="400" y2="404.3" stroke="#22c55e" stroke-width="3.1" opacity="0.39" /></g>
  <rect x="233.7" y="73.8" width="45.2" height="45.2" fill="#22c55e" opacity="0.36" />
    <rect x="357.2" y="283.6" width="56.5" height="56.5" fill="#22c55e" opacity="0.35" />
    <rect x="0.2" y="119.7" width="61.7" height="61.7" fill="#64748b" opacity="0.12" />
    <polygon points="253.4,87.6 271.3,105.6 253.4,123.5 235.4,105.6" fill="#64748b" opacity="0.28" />
    <polygon points="237.0,434.2 264.1,488.2 210.0,488.2" fill="#94a3b8" opacity="0.15" />
    <polygon points="125.4,139.7 136.6,151.0 125.4,162.2 114.1,151.0" fill="#64748b" opacity="0.29" />
    <circle cx="284.2" cy="533.1" r="37.4" fill="#22c55e" opacity="0.17" />
    <polygon points="205.0,35.0 221.3,67.6 188.7,67.6" fill="#64748b" opacity="0.33" />
    <rect x="24.4" y="33.1" width="33.2" height="33.2" fill="#64748b" opacity="0.28" />
    <rect x="331.3" y="196.9" width="48.3" height="48.3" fill="#22c55e" opacity="0.25" />
    <polygon points="9.6,205.5 52.5,248.4 9.6,291.3 -33.3,248.4" fill="#94a3b8" opacity="0.36" />
  
  <!-- Text background banner -->
  <defs>
    <linearGradient id="text-bg-21" x1="0%" y1="0%" x2="100%" y2="0%">
      <stop offset="0%" style="stop-color:#000000;stop-opacity:0.7" />
      <stop offset="50%" style="stop-color:#64748b;stop-opacity:0.4" />
      <stop offset="100%" style="stop-color:#000000;stop-opacity:0.7" />
    </linearGradient>
  </defs>
  <rect x="0" y="494" width="400" height="56" fill="url(#text-bg-21)" />

  <!-- Text shadow -->
  <text x="200" y="522" font-family="system-ui, -apple-system, sans-serif" font-size="24" font-weight="bold" text-anchor="middle" fill="#000000" opacity="0.8">Mailman Meat-Molester</text>

  <!-- Main text -->
  <text x="200" y="520" font-family="system-ui, -apple-system, sans-serif" font-size="24" font-weight="bold" text-anchor="middle" fill="#ffffff">Mailman Meat-Molester</text>
  
  <!-- Rarity border -->
  <rect x="4" y="4" width="392" height="542"
        fill="none" stroke="#eab308" stroke-width="8" rx="8" ry="8" />
</svg>