<?xml version="1.0" encoding="UTF-8"?>
<svg xmlns="http://www.w3.org/2000/svg" viewBox="0 0 400 550" width="400" height="550">
  <defs>
    <linearGradient id="bg-gradient-107" x1="0%" y1="0%" x2="100%" y2="100%">
      <stop offset="0%" style="stop-color:#ef4444;stop-opacity:0.26" />
      <stop offset="50%" style="stop-color:#f97316;stop-opacity:0.4" />
      <stop offset="100%" style="stop-color:#ef4444;stop-opacity:0.26" />
    </linearGradient>
    
  <filter id="shadow-107">
    <feDropShadow dx="0" dy="2" stdDeviation="3" flood-opacity="0.8"/>
  </filter>
  </defs>
  <rect width="400" height="550" fill="url(#bg-gradient-0.18652350129559636)" />
  <g opacity="0.3"><line x1="300.1" y1="0" x2="300.1" y2="550" stroke="#fbbf24" stroke-width="2.1" opacity="0.20" />
    <line x1="86.7" y1="0" x2="86.7" y2="550" stroke="#fbbf24" stroke-width="2.9" opacity="0.24" />
    <line x1="0" y1="272.5" x2="400" y2="272.5" stroke="#f97316" stroke-width="1.5" opacity="0.24" />
    <line x1="0" y1="465.6" x2="400" y2="465.6" stroke="#ef4444" stroke-width="2.9" opacity="0.18" />
    <line x1="151.1" y1="0" x2="151.1" y2="550" stroke="#fbbf24" stroke-width="3.2" opacity="0.27" />
    <line x1="205.3" y1="0" x2="205.3" y2="550" stroke="#f97316" stroke-width="3.4" opacity="0.29" />
    <line x1="0" y1="153.0" x2="400" y2="153.0" stroke="#fbbf24" stroke-width="3.9" opacity="0.17" />
    <line x1="126.9" y1="0" x2="126.9" y2="550" stroke="#ef4444" stroke-width="3.9" opacity="0.30" />
    <line x1="118.1" y1="0" x2="118.1" y2="550" stroke="#f97316" stroke-width="2.2" opacity="0.32" />
    <line x1="165.1" y1="0" x2="165.1" y2="550" stroke="#ef4444" stroke-width="2.3" opacity="0.17" />
    <line x1="0" y1="249.4" x2="400" y2="249.4" stroke="#fbbf24" stroke-width="3.4" opacity="0.30" />
    <line x1="143.1" y1="0" x2="143.1" y2="550" stroke="#f97316" stroke-width="1.8" opacity="0.17" />
    <line x1="0" y1="512.9" x2="400" y2="512.9" stroke="#ef4444" stroke-width="3.5" opacity="0.20" />
    <line x1="0" y1="257.9" x2="400" y2="257.9" stroke="#f97316" stroke-width="1.6" opacity="0.20" />
    <line x1="217.2" y1="0" x2="217.2" y2="550" stroke="#ef4444" stroke-width="1.4" opacity="0.31" /></g>
  <circle cx="92.0" cy="193.6" r="41.5" fill="#fbbf24" opacity="0.20" />
    <polygon points="277.6,421.1 304.7,448.2 277.6,475.2 250.5,448.2" fill="#fbbf24" opacity="0.12" />
    <circle cx="209.7" cy="390.1" r="48.2" fill="#f97316" opacity="0.31" />
    <polygon points="307.9,321.1 357.1,419.5 258.7,419.5" fill="#f97316" opacity="0.26" />
    <circle cx="126.6" cy="32.8" r="10.5" fill="#f97316" opacity="0.13" />
    <rect x="52.9" y="123.4" width="29.6" height="29.6" fill="#fbbf24" opacity="0.19" />
    <polygon points="302.2,431.1 326.5,479.8 277.8,479.8" fill="#f97316" opacity="0.34" />
    <rect x="216.8" y="397.1" width="51.5" height="51.5" fill="#fbbf24" opacity="0.36" />
  
  <!-- Text background banner -->
  <defs>
    <linearGradient id="text-bg-16" x1="0%" y1="0%" x2="100%" y2="0%">
      <stop offset="0%" style="stop-color:#000000;stop-opacity:0.7" />
      <stop offset="50%" style="stop-color:#ef4444;stop-opacity:0.4" />
      <stop offset="100%" style="stop-color:#000000;stop-opacity:0.7" />
    </linearGradient>
  </defs>
  <rect x="0" y="494" width="400" height="56" fill="url(#text-bg-16)" />

  <!-- Text shadow -->
  <text x="200" y="522" font-family="system-ui, -apple-system, sans-serif" font-size="24" font-weight="bold" text-anchor="middle" fill="#000000" opacity="0.8">Rib Rack Randall</text>

  <!-- Main text -->
  <text x="200" y="520" font-family="system-ui, -apple-system, sans-serif" font-size="24" font-weight="bold" text-anchor="middle" fill="#ffffff">Rib Rack Randall</text>
  
  <!-- Rarity border -->
  <rect x="3" y="3" width="394" height="544"
        fill="none" stroke="#3b82f6" stroke-width="6" rx="8" ry="8" />
</svg>