<?xml version="1.0" encoding="UTF-8"?>
<svg xmlns="http://www.w3.org/2000/svg" viewBox="0 0 400 550" width="400" height="550">
  <defs>
    <linearGradient id="bg-gradient-108" x1="0%" y1="0%" x2="100%" y2="100%">
      <stop offset="0%" style="stop-color:#ef4444;stop-opacity:0.26" />
      <stop offset="50%" style="stop-color:#f97316;stop-opacity:0.4" />
      <stop offset="100%" style="stop-color:#ef4444;stop-opacity:0.26" />
    </linearGradient>
    
  <filter id="shadow-108">
    <feDropShadow dx="0" dy="2" stdDeviation="3" flood-opacity="0.8"/>
  </filter>
  </defs>
  <rect width="400" height="550" fill="url(#bg-gradient-0.1650126816239208)" />
  <g opacity="0.3"><circle cx="4.6" cy="1.3" r="6" fill="#f97316" />
    <circle cx="7.9" cy="30.7" r="6" fill="#ef4444" />
    <circle cx="4.4" cy="52.3" r="6" fill="#ef4444" />
    <circle cx="4.2" cy="81.0" r="6" fill="#fbbf24" />
    <circle cx="3.6" cy="159.7" r="6" fill="#fbbf24" />
    <circle cx="4.4" cy="175.3" r="6" fill="#fbbf24" />
    <circle cx="8.6" cy="207.4" r="6" fill="#f97316" />
    <circle cx="3.9" cy="228.4" r="6" fill="#f97316" />
    <circle cx="4.0" cy="254.0" r="6" fill="#ef4444" />
    <circle cx="1.8" cy="334.1" r="6" fill="#ef4444" />
    <circle cx="1.9" cy="350.4" r="6" fill="#ef4444" />
    <circle cx="4.9" cy="400.6" r="6" fill="#ef4444" />
    <circle cx="2.2" cy="426.2" r="6" fill="#ef4444" />
    <circle cx="2.7" cy="484.1" r="6" fill="#ef4444" />
    <circle cx="8.5" cy="504.8" r="6" fill="#f97316" />
    <circle cx="4.3" cy="532.5" r="6" fill="#f97316" />
    <circle cx="26.9" cy="29.0" r="6" fill="#ef4444" />
    <circle cx="31.4" cy="57.4" r="6" fill="#fbbf24" />
    <circle cx="32.7" cy="106.5" r="6" fill="#fbbf24" />
    <circle cx="27.2" cy="129.7" r="6" fill="#f97316" />
    <circle cx="31.9" cy="175.6" r="6" fill="#fbbf24" />
    <circle cx="30.5" cy="208.4" r="6" fill="#ef4444" />
    <circle cx="28.1" cy="225.4" r="6" fill="#ef4444" />
    <circle cx="35.0" cy="252.6" r="6" fill="#f97316" />
    <circle cx="33.9" cy="278.6" r="6" fill="#f97316" />
    <circle cx="30.2" cy="327.5" r="6" fill="#ef4444" />
    <circle cx="30.3" cy="352.8" r="6" fill="#f97316" />
    <circle cx="34.8" cy="377.5" r="6" fill="#ef4444" />
    <circle cx="32.1" cy="430.1" r="6" fill="#ef4444" />
    <circle cx="25.4" cy="456.0" r="6" fill="#ef4444" />
    <circle cx="29.0" cy="483.1" r="6" fill="#f97316" />
    <circle cx="34.6" cy="500.3" r="6" fill="#fbbf24" />
    <circle cx="27.5" cy="526.1" r="6" fill="#ef4444" />
    <circle cx="52.0" cy="6.5" r="6" fill="#fbbf24" />
    <circle cx="52.6" cy="26.0" r="6" fill="#fbbf24" />
    <circle cx="58.9" cy="50.0" r="6" fill="#ef4444" />
    <circle cx="59.5" cy="75.7" r="6" fill="#ef4444" />
    <circle cx="50.6" cy="101.8" r="6" fill="#fbbf24" />
    <circle cx="50.3" cy="155.8" r="6" fill="#ef4444" />
    <circle cx="50.0" cy="183.4" r="6" fill="#f97316" />
    <circle cx="53.6" cy="202.5" r="6" fill="#f97316" />
    <circle cx="59.9" cy="226.7" r="6" fill="#fbbf24" />
    <circle cx="53.6" cy="259.0" r="6" fill="#fbbf24" />
    <circle cx="57.9" cy="284.7" r="6" fill="#ef4444" />
    <circle cx="57.3" cy="301.5" r="6" fill="#ef4444" />
    <circle cx="58.7" cy="354.4" r="6" fill="#ef4444" />
    <circle cx="58.3" cy="402.6" r="6" fill="#f97316" />
    <circle cx="54.8" cy="452.6" r="6" fill="#ef4444" />
    <circle cx="58.7" cy="529.5" r="6" fill="#ef4444" />
    <circle cx="85.0" cy="32.3" r="6" fill="#fbbf24" />
    <circle cx="83.1" cy="55.5" r="6" fill="#ef4444" />
    <circle cx="82.3" cy="132.4" r="6" fill="#f97316" />
    <circle cx="83.1" cy="151.8" r="6" fill="#fbbf24" />
    <circle cx="82.7" cy="184.8" r="6" fill="#f97316" />
    <circle cx="77.3" cy="250.5" r="6" fill="#f97316" />
    <circle cx="77.6" cy="280.3" r="6" fill="#fbbf24" />
    <circle cx="80.6" cy="308.4" r="6" fill="#fbbf24" />
    <circle cx="76.9" cy="326.6" r="6" fill="#ef4444" />
    <circle cx="77.5" cy="350.8" r="6" fill="#f97316" />
    <circle cx="83.4" cy="377.6" r="6" fill="#f97316" />
    <circle cx="81.8" cy="483.9" r="6" fill="#f97316" />
    <circle cx="78.7" cy="503.0" r="6" fill="#ef4444" />
    <circle cx="76.1" cy="529.0" r="6" fill="#fbbf24" />
    <circle cx="106.6" cy="8.6" r="6" fill="#f97316" />
    <circle cx="100.8" cy="28.1" r="6" fill="#ef4444" />
    <circle cx="103.1" cy="59.3" r="6" fill="#fbbf24" />
    <circle cx="102.4" cy="82.5" r="6" fill="#f97316" />
    <circle cx="104.4" cy="133.3" r="6" fill="#ef4444" />
    <circle cx="108.4" cy="179.2" r="6" fill="#f97316" />
    <circle cx="106.0" cy="207.5" r="6" fill="#f97316" />
    <circle cx="106.3" cy="226.9" r="6" fill="#fbbf24" />
    <circle cx="100.5" cy="258.4" r="6" fill="#fbbf24" />
    <circle cx="104.9" cy="276.9" r="6" fill="#fbbf24" />
    <circle cx="101.5" cy="303.9" r="6" fill="#f97316" />
    <circle cx="100.8" cy="325.7" r="6" fill="#f97316" />
    <circle cx="108.6" cy="354.7" r="6" fill="#f97316" />
    <circle cx="109.2" cy="375.9" r="6" fill="#f97316" />
    <circle cx="102.6" cy="406.6" r="6" fill="#ef4444" />
    <circle cx="100.9" cy="429.0" r="6" fill="#f97316" />
    <circle cx="106.4" cy="454.7" r="6" fill="#ef4444" />
    <circle cx="101.9" cy="480.9" r="6" fill="#f97316" />
    <circle cx="109.0" cy="508.8" r="6" fill="#f97316" />
    <circle cx="130.0" cy="34.3" r="6" fill="#ef4444" />
    <circle cx="129.1" cy="59.1" r="6" fill="#ef4444" />
    <circle cx="127.8" cy="103.8" r="6" fill="#fbbf24" />
    <circle cx="129.7" cy="130.4" r="6" fill="#f97316" />
    <circle cx="130.3" cy="184.1" r="6" fill="#fbbf24" />
    <circle cx="126.4" cy="233.2" r="6" fill="#ef4444" />
    <circle cx="131.6" cy="257.1" r="6" fill="#fbbf24" />
    <circle cx="127.6" cy="284.6" r="6" fill="#f97316" />
    <circle cx="132.6" cy="304.4" r="6" fill="#f97316" />
    <circle cx="125.1" cy="327.5" r="6" fill="#fbbf24" />
    <circle cx="128.2" cy="401.1" r="6" fill="#fbbf24" />
    <circle cx="133.8" cy="455.2" r="6" fill="#f97316" />
    <circle cx="125.9" cy="482.2" r="6" fill="#ef4444" />
    <circle cx="129.7" cy="525.5" r="6" fill="#f97316" />
    <circle cx="150.8" cy="26.3" r="6" fill="#ef4444" />
    <circle cx="152.0" cy="55.8" r="6" fill="#fbbf24" />
    <circle cx="158.9" cy="128.8" r="6" fill="#ef4444" />
    <circle cx="151.4" cy="175.5" r="6" fill="#f97316" />
    <circle cx="156.7" cy="202.5" r="6" fill="#f97316" />
    <circle cx="154.4" cy="231.9" r="6" fill="#fbbf24" />
    <circle cx="158.8" cy="254.7" r="6" fill="#fbbf24" />
    <circle cx="151.7" cy="277.0" r="6" fill="#f97316" />
    <circle cx="158.2" cy="327.4" r="6" fill="#f97316" />
    <circle cx="152.5" cy="355.0" r="6" fill="#ef4444" />
    <circle cx="157.5" cy="406.5" r="6" fill="#fbbf24" />
    <circle cx="153.6" cy="431.4" r="6" fill="#fbbf24" />
    <circle cx="154.9" cy="459.5" r="6" fill="#f97316" />
    <circle cx="157.6" cy="475.4" r="6" fill="#f97316" />
    <circle cx="155.5" cy="500.9" r="6" fill="#f97316" />
    <circle cx="153.4" cy="525.7" r="6" fill="#fbbf24" />
    <circle cx="175.3" cy="27.8" r="6" fill="#fbbf24" />
    <circle cx="175.1" cy="107.6" r="6" fill="#fbbf24" />
    <circle cx="184.9" cy="127.7" r="6" fill="#fbbf24" />
    <circle cx="181.9" cy="184.4" r="6" fill="#f97316" />
    <circle cx="184.6" cy="230.0" r="6" fill="#f97316" />
    <circle cx="183.5" cy="258.7" r="6" fill="#f97316" />
    <circle cx="179.3" cy="277.2" r="6" fill="#fbbf24" />
    <circle cx="179.6" cy="305.4" r="6" fill="#fbbf24" />
    <circle cx="175.6" cy="356.8" r="6" fill="#f97316" />
    <circle cx="177.5" cy="378.6" r="6" fill="#f97316" />
    <circle cx="180.3" cy="407.7" r="6" fill="#fbbf24" />
    <circle cx="179.4" cy="428.6" r="6" fill="#ef4444" />
    <circle cx="182.4" cy="477.3" r="6" fill="#f97316" />
    <circle cx="181.3" cy="504.8" r="6" fill="#fbbf24" />
    <circle cx="183.5" cy="525.6" r="6" fill="#fbbf24" />
    <circle cx="206.4" cy="28.9" r="6" fill="#ef4444" />
    <circle cx="206.6" cy="59.6" r="6" fill="#ef4444" />
    <circle cx="202.0" cy="78.6" r="6" fill="#f97316" />
    <circle cx="206.5" cy="102.9" r="6" fill="#f97316" />
    <circle cx="203.2" cy="134.6" r="6" fill="#ef4444" />
    <circle cx="209.4" cy="202.5" r="6" fill="#f97316" />
    <circle cx="204.8" cy="228.1" r="6" fill="#f97316" />
    <circle cx="206.5" cy="258.2" r="6" fill="#fbbf24" />
    <circle cx="206.3" cy="280.4" r="6" fill="#f97316" />
    <circle cx="205.0" cy="327.2" r="6" fill="#fbbf24" />
    <circle cx="209.4" cy="384.9" r="6" fill="#ef4444" />
    <circle cx="201.4" cy="409.4" r="6" fill="#ef4444" />
    <circle cx="207.7" cy="455.6" r="6" fill="#fbbf24" />
    <circle cx="208.2" cy="475.0" r="6" fill="#f97316" />
    <circle cx="202.5" cy="501.0" r="6" fill="#fbbf24" />
    <circle cx="207.0" cy="525.4" r="6" fill="#f97316" />
    <circle cx="233.5" cy="1.6" r="6" fill="#f97316" />
    <circle cx="232.2" cy="33.6" r="6" fill="#ef4444" />
    <circle cx="233.0" cy="53.0" r="6" fill="#ef4444" />
    <circle cx="230.0" cy="82.9" r="6" fill="#ef4444" />
    <circle cx="233.7" cy="108.7" r="6" fill="#f97316" />
    <circle cx="225.2" cy="129.8" r="6" fill="#ef4444" />
    <circle cx="232.1" cy="153.6" r="6" fill="#fbbf24" />
    <circle cx="233.3" cy="176.9" r="6" fill="#ef4444" />
    <circle cx="229.3" cy="208.5" r="6" fill="#f97316" />
    <circle cx="226.7" cy="227.9" r="6" fill="#fbbf24" />
    <circle cx="233.1" cy="278.1" r="6" fill="#f97316" />
    <circle cx="230.7" cy="304.0" r="6" fill="#fbbf24" />
    <circle cx="234.8" cy="327.9" r="6" fill="#ef4444" />
    <circle cx="232.2" cy="357.1" r="6" fill="#ef4444" />
    <circle cx="228.0" cy="428.0" r="6" fill="#ef4444" />
    <circle cx="231.1" cy="454.0" r="6" fill="#f97316" />
    <circle cx="233.4" cy="484.1" r="6" fill="#fbbf24" />
    <circle cx="233.2" cy="530.2" r="6" fill="#f97316" />
    <circle cx="251.2" cy="7.0" r="6" fill="#ef4444" />
    <circle cx="254.5" cy="27.1" r="6" fill="#ef4444" />
    <circle cx="259.2" cy="58.7" r="6" fill="#f97316" />
    <circle cx="257.0" cy="78.5" r="6" fill="#ef4444" />
    <circle cx="254.5" cy="104.2" r="6" fill="#ef4444" />
    <circle cx="258.6" cy="180.2" r="6" fill="#ef4444" />
    <circle cx="253.9" cy="200.4" r="6" fill="#f97316" />
    <circle cx="253.8" cy="234.5" r="6" fill="#ef4444" />
    <circle cx="255.8" cy="280.8" r="6" fill="#ef4444" />
    <circle cx="257.2" cy="325.2" r="6" fill="#ef4444" />
    <circle cx="255.3" cy="383.4" r="6" fill="#fbbf24" />
    <circle cx="253.0" cy="409.0" r="6" fill="#ef4444" />
    <circle cx="253.8" cy="455.4" r="6" fill="#f97316" />
    <circle cx="252.4" cy="478.9" r="6" fill="#ef4444" />
    <circle cx="251.4" cy="501.5" r="6" fill="#fbbf24" />
    <circle cx="252.2" cy="534.8" r="6" fill="#ef4444" />
    <circle cx="278.3" cy="35.0" r="6" fill="#fbbf24" />
    <circle cx="279.2" cy="54.0" r="6" fill="#f97316" />
    <circle cx="276.9" cy="79.2" r="6" fill="#f97316" />
    <circle cx="276.0" cy="101.9" r="6" fill="#f97316" />
    <circle cx="282.1" cy="151.0" r="6" fill="#fbbf24" />
    <circle cx="281.4" cy="204.5" r="6" fill="#ef4444" />
    <circle cx="283.9" cy="231.4" r="6" fill="#ef4444" />
    <circle cx="284.2" cy="257.3" r="6" fill="#fbbf24" />
    <circle cx="281.9" cy="278.2" r="6" fill="#ef4444" />
    <circle cx="283.8" cy="307.9" r="6" fill="#f97316" />
    <circle cx="282.6" cy="334.3" r="6" fill="#ef4444" />
    <circle cx="278.5" cy="357.3" r="6" fill="#fbbf24" />
    <circle cx="282.8" cy="377.9" r="6" fill="#f97316" />
    <circle cx="275.3" cy="409.5" r="6" fill="#ef4444" />
    <circle cx="277.0" cy="429.1" r="6" fill="#ef4444" />
    <circle cx="282.5" cy="478.8" r="6" fill="#f97316" />
    <circle cx="279.1" cy="506.1" r="6" fill="#fbbf24" />
    <circle cx="283.7" cy="528.6" r="6" fill="#ef4444" />
    <circle cx="309.0" cy="1.0" r="6" fill="#f97316" />
    <circle cx="308.5" cy="26.4" r="6" fill="#f97316" />
    <circle cx="303.9" cy="56.9" r="6" fill="#fbbf24" />
    <circle cx="300.6" cy="82.7" r="6" fill="#ef4444" />
    <circle cx="306.5" cy="106.1" r="6" fill="#f97316" />
    <circle cx="305.6" cy="134.9" r="6" fill="#fbbf24" />
    <circle cx="305.5" cy="155.5" r="6" fill="#f97316" />
    <circle cx="300.2" cy="227.6" r="6" fill="#fbbf24" />
    <circle cx="304.2" cy="257.0" r="6" fill="#fbbf24" />
    <circle cx="307.1" cy="282.3" r="6" fill="#f97316" />
    <circle cx="302.1" cy="306.6" r="6" fill="#ef4444" />
    <circle cx="307.5" cy="381.6" r="6" fill="#fbbf24" />
    <circle cx="309.2" cy="429.5" r="6" fill="#ef4444" />
    <circle cx="301.1" cy="453.1" r="6" fill="#f97316" />
    <circle cx="327.7" cy="28.8" r="6" fill="#fbbf24" />
    <circle cx="333.2" cy="52.6" r="6" fill="#fbbf24" />
    <circle cx="332.9" cy="82.8" r="6" fill="#fbbf24" />
    <circle cx="328.3" cy="109.6" r="6" fill="#fbbf24" />
    <circle cx="332.5" cy="133.7" r="6" fill="#ef4444" />
    <circle cx="332.6" cy="155.7" r="6" fill="#fbbf24" />
    <circle cx="331.7" cy="201.3" r="6" fill="#f97316" />
    <circle cx="334.5" cy="227.8" r="6" fill="#ef4444" />
    <circle cx="325.3" cy="256.2" r="6" fill="#ef4444" />
    <circle cx="332.2" cy="326.9" r="6" fill="#fbbf24" />
    <circle cx="326.7" cy="358.3" r="6" fill="#f97316" />
    <circle cx="326.2" cy="382.7" r="6" fill="#f97316" />
    <circle cx="333.6" cy="407.1" r="6" fill="#f97316" />
    <circle cx="329.3" cy="430.8" r="6" fill="#fbbf24" />
    <circle cx="326.1" cy="504.6" r="6" fill="#fbbf24" />
    <circle cx="354.3" cy="8.9" r="6" fill="#f97316" />
    <circle cx="359.9" cy="33.6" r="6" fill="#fbbf24" />
    <circle cx="359.4" cy="53.1" r="6" fill="#ef4444" />
    <circle cx="354.9" cy="100.4" r="6" fill="#f97316" />
    <circle cx="354.9" cy="156.0" r="6" fill="#f97316" />
    <circle cx="355.9" cy="179.2" r="6" fill="#f97316" />
    <circle cx="356.6" cy="206.5" r="6" fill="#ef4444" />
    <circle cx="350.6" cy="227.2" r="6" fill="#ef4444" />
    <circle cx="350.9" cy="258.5" r="6" fill="#ef4444" />
    <circle cx="351.9" cy="284.6" r="6" fill="#ef4444" />
    <circle cx="351.8" cy="300.0" r="6" fill="#fbbf24" />
    <circle cx="352.0" cy="328.0" r="6" fill="#fbbf24" />
    <circle cx="354.5" cy="354.6" r="6" fill="#ef4444" />
    <circle cx="353.5" cy="384.8" r="6" fill="#ef4444" />
    <circle cx="353.4" cy="410.0" r="6" fill="#fbbf24" />
    <circle cx="359.7" cy="425.3" r="6" fill="#f97316" />
    <circle cx="354.4" cy="475.5" r="6" fill="#fbbf24" />
    <circle cx="351.3" cy="500.2" r="6" fill="#f97316" />
    <circle cx="351.8" cy="533.8" r="6" fill="#f97316" />
    <circle cx="382.8" cy="1.0" r="6" fill="#f97316" />
    <circle cx="381.5" cy="33.1" r="6" fill="#f97316" />
    <circle cx="384.8" cy="79.5" r="6" fill="#ef4444" />
    <circle cx="376.8" cy="103.0" r="6" fill="#ef4444" />
    <circle cx="381.8" cy="133.3" r="6" fill="#fbbf24" />
    <circle cx="383.8" cy="178.0" r="6" fill="#fbbf24" />
    <circle cx="379.6" cy="207.0" r="6" fill="#fbbf24" />
    <circle cx="375.2" cy="234.8" r="6" fill="#f97316" />
    <circle cx="383.1" cy="256.9" r="6" fill="#fbbf24" />
    <circle cx="378.5" cy="280.1" r="6" fill="#fbbf24" />
    <circle cx="384.4" cy="333.2" r="6" fill="#f97316" />
    <circle cx="376.3" cy="351.7" r="6" fill="#f97316" />
    <circle cx="377.7" cy="379.7" r="6" fill="#fbbf24" />
    <circle cx="383.3" cy="427.2" r="6" fill="#f97316" />
    <circle cx="379.8" cy="457.2" r="6" fill="#fbbf24" />
    <circle cx="380.8" cy="482.8" r="6" fill="#fbbf24" />
    <circle cx="384.4" cy="531.9" r="6" fill="#ef4444" /></g>
  <polygon points="23.2,323.4 72.5,422.0 -26.1,422.0" fill="#f97316" opacity="0.11" />
    <polygon points="165.3,283.5 211.1,329.3 165.3,375.1 119.5,329.3" fill="#fbbf24" opacity="0.11" />
    <polygon points="244.2,53.7 262.0,89.2 226.5,89.2" fill="#fbbf24" opacity="0.16" />
    <circle cx="260.9" cy="415.1" r="10.5" fill="#fbbf24" opacity="0.22" />
    <circle cx="51.7" cy="164.6" r="13.7" fill="#ef4444" opacity="0.33" />
    <circle cx="237.7" cy="293.8" r="19.6" fill="#ef4444" opacity="0.26" />
    <circle cx="109.8" cy="189.1" r="30.4" fill="#f97316" opacity="0.14" />
    <polygon points="95.8,-24.8 137.1,16.5 95.8,57.8 54.5,16.5" fill="#fbbf24" opacity="0.18" />
    <circle cx="28.2" cy="27.4" r="21.1" fill="#ef4444" opacity="0.38" />
    <polygon points="59.1,311.5 82.2,334.6 59.1,357.7 36.0,334.6" fill="#f97316" opacity="0.28" />
    <polygon points="81.3,363.0 121.2,442.8 41.4,442.8" fill="#f97316" opacity="0.19" />
  
  <!-- Text background banner -->
  <defs>
    <linearGradient id="text-bg-12" x1="0%" y1="0%" x2="100%" y2="0%">
      <stop offset="0%" style="stop-color:#000000;stop-opacity:0.7" />
      <stop offset="50%" style="stop-color:#ef4444;stop-opacity:0.4" />
      <stop offset="100%" style="stop-color:#000000;stop-opacity:0.7" />
    </linearGradient>
  </defs>
  <rect x="0" y="494" width="400" height="56" fill="url(#text-bg-12)" />

  <!-- Text shadow -->
  <text x="200" y="522" font-family="system-ui, -apple-system, sans-serif" font-size="24" font-weight="bold" text-anchor="middle" fill="#000000" opacity="0.8">Smoker Steve</text>

  <!-- Main text -->
  <text x="200" y="520" font-family="system-ui, -apple-system, sans-serif" font-size="24" font-weight="bold" text-anchor="middle" fill="#ffffff">Smoker Steve</text>
  
  <!-- Rarity border -->
  <rect x="4" y="4" width="392" height="542"
        fill="none" stroke="#eab308" stroke-width="8" rx="8" ry="8" />
</svg>