<?xml version="1.0" encoding="UTF-8"?>
<svg xmlns="http://www.w3.org/2000/svg" viewBox="0 0 400 550" width="400" height="550">
  <defs>
    <linearGradient id="bg-gradient-109" x1="0%" y1="0%" x2="100%" y2="100%">
      <stop offset="0%" style="stop-color:#ef4444;stop-opacity:0.26" />
      <stop offset="50%" style="stop-color:#f97316;stop-opacity:0.4" />
      <stop offset="100%" style="stop-color:#ef4444;stop-opacity:0.26" />
    </linearGradient>
    
  <filter id="shadow-109">
    <feDropShadow dx="0" dy="2" stdDeviation="3" flood-opacity="0.8"/>
  </filter>
  </defs>
  <rect width="400" height="550" fill="url(#bg-gradient-0.12181231728754938)" />
  <g opacity="0.3"><line x1="295.2" y1="0" x2="295.2" y2="550" stroke="#f97316" stroke-width="3.5" opacity="0.26" />
    <line x1="326.9" y1="0" x2="326.9" y2="550" stroke="#ef4444" stroke-width="2.2" opacity="0.11" />
    <line x1="0" y1="314.6" x2="400" y2="314.6" stroke="#f97316" stroke-width="2.1" opacity="0.31" />
    <line x1="166.2" y1="0" x2="166.2" y2="550" stroke="#fbbf24" stroke-width="2.8" opacity="0.30" />
    <line x1="0" y1="259.2" x2="400" y2="259.2" stroke="#f97316" stroke-width="3.5" opacity="0.14" />
    <line x1="156.8" y1="0" x2="156.8" y2="550" stroke="#ef4444" stroke-width="2.4" opacity="0.23" />
    <line x1="81.0" y1="0" x2="81.0" y2="550" stroke="#ef4444" stroke-width="2.0" opacity="0.14" />
    <line x1="118.1" y1="0" x2="118.1" y2="550" stroke="#f97316" stroke-width="3.3" opacity="0.18" />
    <line x1="0" y1="455.6" x2="400" y2="455.6" stroke="#ef4444" stroke-width="4.0" opacity="0.22" />
    <line x1="340.8" y1="0" x2="340.8" y2="550" stroke="#ef4444" stroke-width="2.4" opacity="0.17" />
    <line x1="0" y1="73.5" x2="400" y2="73.5" stroke="#ef4444" stroke-width="1.8" opacity="0.27" />
    <line x1="0" y1="246.5" x2="400" y2="246.5" stroke="#f97316" stroke-width="1.3" opacity="0.38" />
    <line x1="389.0" y1="0" x2="389.0" y2="550" stroke="#ef4444" stroke-width="3.0" opacity="0.29" />
    <line x1="0" y1="417.7" x2="400" y2="417.7" stroke="#f97316" stroke-width="2.6" opacity="0.26" />
    <line x1="0" y1="165.1" x2="400" y2="165.1" stroke="#f97316" stroke-width="1.2" opacity="0.34" />
    <line x1="45.8" y1="0" x2="45.8" y2="550" stroke="#ef4444" stroke-width="1.6" opacity="0.18" />
    <line x1="84.2" y1="0" x2="84.2" y2="550" stroke="#f97316" stroke-width="2.2" opacity="0.27" />
    <line x1="0" y1="108.6" x2="400" y2="108.6" stroke="#ef4444" stroke-width="2.4" opacity="0.16" />
    <line x1="0" y1="523.5" x2="400" y2="523.5" stroke="#f97316" stroke-width="2.5" opacity="0.33" />
    <line x1="225.8" y1="0" x2="225.8" y2="550" stroke="#fbbf24" stroke-width="3.7" opacity="0.30" />
    <line x1="0" y1="152.5" x2="400" y2="152.5" stroke="#fbbf24" stroke-width="3.1" opacity="0.24" />
    <line x1="0" y1="421.2" x2="400" y2="421.2" stroke="#ef4444" stroke-width="3.6" opacity="0.18" />
    <line x1="0" y1="345.8" x2="400" y2="345.8" stroke="#fbbf24" stroke-width="1.3" opacity="0.16" />
    <line x1="0" y1="457.6" x2="400" y2="457.6" stroke="#f97316" stroke-width="1.4" opacity="0.38" />
    <line x1="153.2" y1="0" x2="153.2" y2="550" stroke="#fbbf24" stroke-width="3.0" opacity="0.32" /></g>
  <rect x="135.1" y="31.3" width="55.4" height="55.4" fill="#f97316" opacity="0.30" />
    <polygon points="276.3,453.6 312.3,525.6 240.3,525.6" fill="#f97316" opacity="0.39" />
    <polygon points="336.2,496.8 377.5,538.2 336.2,579.5 294.9,538.2" fill="#fbbf24" opacity="0.16" />
    <polygon points="392.5,388.4 405.0,401.0 392.5,413.5 380.0,401.0" fill="#f97316" opacity="0.24" />
    <circle cx="115.1" cy="338.0" r="47.2" fill="#fbbf24" opacity="0.37" />
    <circle cx="251.5" cy="513.9" r="48.3" fill="#ef4444" opacity="0.22" />
    <rect x="228.5" y="91.7" width="75.5" height="75.5" fill="#ef4444" opacity="0.24" />
    <circle cx="335.6" cy="319.4" r="15.2" fill="#f97316" opacity="0.12" />
    <polygon points="308.1,276.7 340.1,340.6 276.2,340.6" fill="#fbbf24" opacity="0.37" />
    <polygon points="310.7,13.3 352.9,55.5 310.7,97.7 268.5,55.5" fill="#f97316" opacity="0.34" />
    <circle cx="169.6" cy="535.7" r="41.1" fill="#fbbf24" opacity="0.28" />
    <circle cx="98.6" cy="497.8" r="15.4" fill="#fbbf24" opacity="0.36" />
    <polygon points="16.8,182.1 60.2,225.4 16.8,268.8 -26.5,225.4" fill="#ef4444" opacity="0.14" />
    <circle cx="245.3" cy="519.3" r="29.6" fill="#ef4444" opacity="0.33" />
  
  <!-- Text background banner -->
  <defs>
    <linearGradient id="text-bg-12" x1="0%" y1="0%" x2="100%" y2="0%">
      <stop offset="0%" style="stop-color:#000000;stop-opacity:0.7" />
      <stop offset="50%" style="stop-color:#ef4444;stop-opacity:0.4" />
      <stop offset="100%" style="stop-color:#000000;stop-opacity:0.7" />
    </linearGradient>
  </defs>
  <rect x="0" y="494" width="400" height="56" fill="url(#text-bg-12)" />

  <!-- Text shadow -->
  <text x="200" y="522" font-family="system-ui, -apple-system, sans-serif" font-size="24" font-weight="bold" text-anchor="middle" fill="#000000" opacity="0.8">Propane Pete</text>

  <!-- Main text -->
  <text x="200" y="520" font-family="system-ui, -apple-system, sans-serif" font-size="24" font-weight="bold" text-anchor="middle" fill="#ffffff">Propane Pete</text>
  
  <!-- Rarity border -->
  <rect x="5" y="5" width="390" height="540"
        fill="none" stroke="#a855f7" stroke-width="10" rx="8" ry="8" />
</svg>