<?xml version="1.0" encoding="UTF-8"?>
<svg xmlns="http://www.w3.org/2000/svg" viewBox="0 0 400 550" width="400" height="550">
  <defs>
    <linearGradient id="bg-gradient-110" x1="0%" y1="0%" x2="100%" y2="100%">
      <stop offset="0%" style="stop-color:#ef4444;stop-opacity:0.26" />
      <stop offset="50%" style="stop-color:#f97316;stop-opacity:0.4" />
      <stop offset="100%" style="stop-color:#ef4444;stop-opacity:0.26" />
    </linearGradient>
    
  <filter id="shadow-110">
    <feDropShadow dx="0" dy="2" stdDeviation="3" flood-opacity="0.8"/>
  </filter>
  </defs>
  <rect width="400" height="550" fill="url(#bg-gradient-0.8724202709272504)" />
  <g opacity="0.3"><circle cx="212.7" cy="115.4" r="12.7" fill="none" stroke="#fbbf24" stroke-width="2.0" opacity="0.12" />
    <rect x="225.3" y="183.1" width="44.4" height="44.4" fill="none" stroke="#ef4444" stroke-width="1.7" opacity="0.24" />
    <rect x="32.3" y="346.2" width="28.2" height="28.2" fill="none" stroke="#ef4444" stroke-width="1.1" opacity="0.12" />
    <circle cx="12.7" cy="359.3" r="12.9" fill="none" stroke="#f97316" stroke-width="2.4" opacity="0.22" />
    <rect x="150.9" y="332.6" width="68.7" height="68.7" fill="none" stroke="#f97316" stroke-width="1.5" opacity="0.29" />
    <circle cx="207.4" cy="44.8" r="28.4" fill="none" stroke="#f97316" stroke-width="2.6" opacity="0.26" />
    <rect x="38.4" y="381.7" width="66.2" height="66.2" fill="none" stroke="#fbbf24" stroke-width="1.8" opacity="0.26" />
    <circle cx="393.7" cy="219.0" r="15.1" fill="none" stroke="#f97316" stroke-width="2.0" opacity="0.16" />
    <rect x="203.8" y="394.1" width="63.7" height="63.7" fill="none" stroke="#f97316" stroke-width="1.7" opacity="0.14" />
    <rect x="218.6" y="513.7" width="42.5" height="42.5" fill="none" stroke="#ef4444" stroke-width="2.2" opacity="0.29" />
    <rect x="140.3" y="438.1" width="25.0" height="25.0" fill="none" stroke="#ef4444" stroke-width="1.0" opacity="0.15" />
    <circle cx="237.6" cy="268.1" r="21.0" fill="none" stroke="#f97316" stroke-width="1.6" opacity="0.22" />
    <rect x="171.2" y="192.0" width="20.6" height="20.6" fill="none" stroke="#ef4444" stroke-width="1.8" opacity="0.16" /></g>
  <rect x="317.3" y="427.6" width="30.9" height="30.9" fill="#fbbf24" opacity="0.20" />
    <circle cx="257.1" cy="77.7" r="32.1" fill="#f97316" opacity="0.12" />
    <polygon points="298.5,-26.0 348.2,23.7 298.5,73.5 248.7,23.7" fill="#f97316" opacity="0.15" />
    <circle cx="70.8" cy="487.2" r="46.9" fill="#f97316" opacity="0.27" />
    <rect x="52.3" y="435.9" width="29.6" height="29.6" fill="#fbbf24" opacity="0.23" />
    <polygon points="294.2,452.0 318.0,499.6 270.4,499.6" fill="#ef4444" opacity="0.29" />
    <circle cx="166.6" cy="56.1" r="10.7" fill="#fbbf24" opacity="0.22" />
    <polygon points="62.4,151.2 103.6,192.4 62.4,233.5 21.3,192.4" fill="#ef4444" opacity="0.38" />
    <polygon points="243.0,22.3 257.8,51.9 228.2,51.9" fill="#f97316" opacity="0.11" />
    <polygon points="351.5,536.4 363.1,559.7 339.8,559.7" fill="#ef4444" opacity="0.13" />
    <polygon points="330.2,368.9 357.0,395.7 330.2,422.5 303.4,395.7" fill="#f97316" opacity="0.19" />
    <polygon points="126.4,133.4 146.6,173.8 106.2,173.8" fill="#f97316" opacity="0.12" />
    <polygon points="196.2,434.8 215.2,453.8 196.2,472.8 177.2,453.8" fill="#f97316" opacity="0.20" />
    <polygon points="147.2,506.0 186.9,545.7 147.2,585.4 107.4,545.7" fill="#ef4444" opacity="0.10" />
    <polygon points="242.2,-20.3 276.7,14.2 242.2,48.7 207.6,14.2" fill="#f97316" opacity="0.32" />
    <circle cx="334.6" cy="300.2" r="42.2" fill="#f97316" opacity="0.33" />
    <circle cx="297.4" cy="20.4" r="26.3" fill="#f97316" opacity="0.13" />
  
  <!-- Text background banner -->
  <defs>
    <linearGradient id="text-bg-14" x1="0%" y1="0%" x2="100%" y2="0%">
      <stop offset="0%" style="stop-color:#000000;stop-opacity:0.7" />
      <stop offset="50%" style="stop-color:#ef4444;stop-opacity:0.4" />
      <stop offset="100%" style="stop-color:#000000;stop-opacity:0.7" />
    </linearGradient>
  </defs>
  <rect x="0" y="494" width="400" height="56" fill="url(#text-bg-14)" />

  <!-- Text shadow -->
  <text x="200" y="522" font-family="system-ui, -apple-system, sans-serif" font-size="24" font-weight="bold" text-anchor="middle" fill="#000000" opacity="0.8">Sauce Boss Sam</text>

  <!-- Main text -->
  <text x="200" y="520" font-family="system-ui, -apple-system, sans-serif" font-size="24" font-weight="bold" text-anchor="middle" fill="#ffffff">Sauce Boss Sam</text>
  
  <!-- Rarity border -->
  <rect x="6" y="6" width="388" height="538"
        fill="none" stroke="#f97316" stroke-width="12" rx="8" ry="8" />
</svg>