<?xml version="1.0" encoding="UTF-8"?>
<svg xmlns="http://www.w3.org/2000/svg" viewBox="0 0 400 550" width="400" height="550">
  <defs>
    <linearGradient id="bg-gradient-111" x1="0%" y1="0%" x2="100%" y2="100%">
      <stop offset="0%" style="stop-color:#06b6d4;stop-opacity:0.26" />
      <stop offset="50%" style="stop-color:#3b82f6;stop-opacity:0.4" />
      <stop offset="100%" style="stop-color:#06b6d4;stop-opacity:0.26" />
    </linearGradient>
    
  <filter id="shadow-111">
    <feDropShadow dx="0" dy="2" stdDeviation="3" flood-opacity="0.8"/>
  </filter>
  </defs>
  <rect width="400" height="550" fill="url(#bg-gradient-0.08408506656996906)" />
  <g opacity="0.3"><polyline points="0,294.0 5,291.2 10,288.0 15,284.5 20,280.7 25,276.7 30,272.6 35,268.4 40,264.2 45,260.1 50,256.1 55,252.3 60,248.8 65,245.6 70,242.8 75,240.4 80,238.5 85,237.0 90,236.1 95,235.7 100,235.9 105,236.6 110,237.8 115,239.5 120,241.7 125,244.3 130,247.4 135,250.8 140,254.4 145,258.3 150,262.4 155,266.6 160,270.8 165,274.9 170,279.0 175,282.9 180,286.5 185,289.9 190,292.9 195,295.4 200,297.6 205,299.3 210,300.4 215,301.1 220,301.2 225,300.7 230,299.7 235,298.3 240,296.3 245,293.8 250,291.0 255,287.8 260,284.2 265,280.4 270,276.4 275,272.3 280,268.1 285,263.9 290,259.8 295,255.8 300,252.1 305,248.6 310,245.4 315,242.6 320,240.3 325,238.4 330,237.0 335,236.1 340,235.7 345,235.9 350,236.6 355,237.9 360,239.7 365,241.9 370,244.5 375,247.6 380,251.0 385,254.7 390,258.6 395,262.7 400,266.9" fill="none" stroke="#22d3ee" stroke-width="1.3" opacity="0.10" />
    <polyline points="0,325.1 5,325.8 10,326.6 15,327.6 20,328.6 25,329.7 30,330.8 35,332.0 40,333.2 45,334.5 50,335.7 55,336.9 60,338.1 65,339.1 70,340.2 75,341.1 80,341.9 85,342.6 90,343.2 95,343.6 100,343.9 105,344.1 110,344.1 115,343.9 120,343.6 125,343.2 130,342.6 135,341.9 140,341.1 145,340.2 150,339.2 155,338.1 160,336.9 165,335.7 170,334.5 175,333.3 180,332.0 185,330.8 190,329.7 195,328.6 200,327.6 205,326.6 210,325.8 215,325.1 220,324.5 225,324.1 230,323.8 235,323.6 240,323.6 245,323.7 250,324.0 255,324.5 260,325.0 265,325.7 270,326.5 275,327.4 280,328.4 285,329.5 290,330.7 295,331.9 300,333.1 305,334.3 310,335.5 315,336.7 320,337.9 325,339.0 330,340.0 335,341.0 340,341.8 345,342.5 350,343.1 355,343.6 360,343.9 365,344.0 370,344.1 375,343.9 380,343.7 385,343.3 390,342.7 395,342.0 400,341.2" fill="none" stroke="#06b6d4" stroke-width="1.4" opacity="0.17" />
    <polyline points="0,141.6 5,142.0 10,142.7 15,143.6 20,144.8 25,146.1 30,147.7 35,149.4 40,151.2 45,153.2 50,155.2 55,157.3 60,159.4 65,161.5 70,163.5 75,165.5 80,167.3 85,169.1 90,170.6 95,172.0 100,173.2 105,174.1 110,174.9 115,175.3 120,175.6 125,175.5 130,175.2 135,174.7 140,173.9 145,172.8 150,171.6 155,170.1 160,168.5 165,166.8 170,164.9 175,162.9 180,160.8 185,158.7 190,156.6 195,154.5 200,152.5 205,150.6 210,148.8 215,147.2 220,145.7 225,144.4 230,143.3 235,142.5 240,141.9 245,141.5 250,141.4 255,141.6 260,142.0 265,142.7 270,143.6 275,144.7 280,146.1 285,147.6 290,149.3 295,151.1 300,153.1 305,155.1 310,157.2 315,159.3 320,161.4 325,163.4 330,165.4 335,167.3 340,169.0 345,170.6 350,172.0 355,173.1 360,174.1 365,174.8 370,175.3 375,175.6 380,175.5 385,175.2 390,174.7 395,173.9 400,172.9" fill="none" stroke="#06b6d4" stroke-width="2.7" opacity="0.15" />
    <polyline points="0,374.4 5,370.1 10,365.5 15,360.6 20,355.7 25,350.7 30,345.7 35,341.0 40,336.6 45,332.6 50,329.1 55,326.1 60,323.7 65,322.0 70,321.1 75,320.8 80,321.3 85,322.5 90,324.5 95,327.0 100,330.2 105,333.9 110,338.1 115,342.6 120,347.4 125,352.4 130,357.4 135,362.3 140,367.1 145,371.6 150,375.8 155,379.5 160,382.7 165,385.2 170,387.2 175,388.4 180,388.9 185,388.6 190,387.6 195,385.9 200,383.6 205,380.6 210,377.0 215,373.0 220,368.6 225,363.9 230,359.0 235,354.0 240,349.0 245,344.1 250,339.5 255,335.2 260,331.4 265,328.0 270,325.2 275,323.1 280,321.6 285,320.9 290,320.9 295,321.7 300,323.1 305,325.3 310,328.0 315,331.4 320,335.3 325,339.6 330,344.2 335,349.1 340,354.1 345,359.1 350,364.0 355,368.7 360,373.1 365,377.1 370,380.6 375,383.6 380,386.0 385,387.6 390,388.6 395,388.8 400,388.4" fill="none" stroke="#22d3ee" stroke-width="1.8" opacity="0.18" /></g>
  <polygon points="217.5,-25.3 248.2,36.0 186.9,36.0" fill="#3b82f6" opacity="0.24" />
    <polygon points="105.3,340.3 149.3,384.3 105.3,428.3 61.2,384.3" fill="#3b82f6" opacity="0.11" />
    <circle cx="270.1" cy="547.8" r="42.0" fill="#22d3ee" opacity="0.30" />
    <rect x="76.5" y="275.6" width="76.7" height="76.7" fill="#06b6d4" opacity="0.14" />
    <polygon points="147.2,132.4 183.1,168.3 147.2,204.1 111.3,168.3" fill="#22d3ee" opacity="0.12" />
  
  <!-- Text background banner -->
  <defs>
    <linearGradient id="text-bg-11" x1="0%" y1="0%" x2="100%" y2="0%">
      <stop offset="0%" style="stop-color:#000000;stop-opacity:0.7" />
      <stop offset="50%" style="stop-color:#06b6d4;stop-opacity:0.4" />
      <stop offset="100%" style="stop-color:#000000;stop-opacity:0.7" />
    </linearGradient>
  </defs>
  <rect x="0" y="494" width="400" height="56" fill="url(#text-bg-11)" />

  <!-- Text shadow -->
  <text x="200" y="522" font-family="system-ui, -apple-system, sans-serif" font-size="24" font-weight="bold" text-anchor="middle" fill="#000000" opacity="0.8">Router Rick</text>

  <!-- Main text -->
  <text x="200" y="520" font-family="system-ui, -apple-system, sans-serif" font-size="24" font-weight="bold" text-anchor="middle" fill="#ffffff">Router Rick</text>
  
  <!-- Rarity border -->
  <rect x="2" y="2" width="396" height="546"
        fill="none" stroke="#9ca3af" stroke-width="4" rx="8" ry="8" />
</svg>