<?xml version="1.0" encoding="UTF-8"?>
<svg xmlns="http://www.w3.org/2000/svg" viewBox="0 0 400 550" width="400" height="550">
  <defs>
    <linearGradient id="bg-gradient-112" x1="0%" y1="0%" x2="100%" y2="100%">
      <stop offset="0%" style="stop-color:#06b6d4;stop-opacity:0.26" />
      <stop offset="50%" style="stop-color:#3b82f6;stop-opacity:0.4" />
      <stop offset="100%" style="stop-color:#06b6d4;stop-opacity:0.26" />
    </linearGradient>
    
  <filter id="shadow-112">
    <feDropShadow dx="0" dy="2" stdDeviation="3" flood-opacity="0.8"/>
  </filter>
  </defs>
  <rect width="400" height="550" fill="url(#bg-gradient-0.3830058954190463)" />
  <g opacity="0.3"><polyline points="0,178.8 5,183.6 10,188.5 15,193.2 20,197.9 25,202.3 30,206.5 35,210.3 40,213.8 45,216.7 50,219.1 55,221.0 60,222.3 65,223.0 70,223.0 75,222.5 80,221.3 85,219.5 90,217.2 95,214.4 100,211.1 105,207.3 110,203.2 115,198.8 120,194.2 125,189.4 130,184.6 135,179.8 140,175.0 145,170.4 150,166.1 155,162.1 160,158.5 165,155.3 170,152.5 175,150.4 180,148.8 185,147.8 190,147.4 195,147.6 200,148.4 205,149.9 210,151.9 215,154.5 220,157.5 225,161.1 230,165.0 235,169.2 240,173.7 245,178.4 250,183.3 255,188.1 260,192.9 265,197.6 270,202.0 275,206.2 280,210.1 285,213.5 290,216.5 295,219.0 300,220.9 305,222.2 310,222.9 315,223.0 320,222.5 325,221.4 330,219.7 335,217.4 340,214.6 345,211.3 350,207.6 355,203.5 360,199.1 365,194.5 370,189.8 375,184.9 380,180.1 385,175.4 390,170.8 395,166.4 400,162.4" fill="none" stroke="#22d3ee" stroke-width="1.4" opacity="0.18" />
    <polyline points="0,469.5 5,470.9 10,472.3 15,473.4 20,474.3 25,475.0 30,475.4 35,475.7 40,475.8 45,475.6 50,475.2 55,474.6 60,473.8 65,472.7 70,471.5 75,470.1 80,468.5 85,466.7 90,464.7 95,462.7 100,460.4 105,458.1 110,455.6 115,453.0 120,450.4 125,447.6 130,444.9 135,442.1 140,439.3 145,436.5 150,433.7 155,431.0 160,428.3 165,425.6 170,423.1 175,420.7 180,418.4 185,416.2 190,414.1 195,412.2 200,410.5 205,409.0 210,407.6 215,406.5 220,405.5 225,404.8 230,404.2 235,403.9 240,403.8 245,403.9 250,404.3 255,404.8 260,405.6 265,406.6 270,407.8 275,409.2 280,410.7 285,412.5 290,414.4 295,416.4 300,418.6 305,421.0 310,423.4 315,426.0 320,428.6 325,431.3 330,434.0 335,436.8 340,439.6 345,442.4 350,445.2 355,448.0 360,450.7 365,453.3 370,455.9 375,458.3 380,460.7 385,462.9 390,465.0 395,466.9 400,468.7" fill="none" stroke="#3b82f6" stroke-width="2.1" opacity="0.15" />
    <polyline points="0,332.7 5,330.9 10,329.8 15,329.3 20,329.4 25,330.2 30,331.7 35,333.7 40,336.3 45,339.4 50,343.0 55,347.0 60,351.3 65,355.9 70,360.7 75,365.6 80,370.4 85,375.2 90,379.8 95,384.2 100,388.3 105,392.0 110,395.2 115,397.9 120,400.0 125,401.6 130,402.5 135,402.8 140,402.4 145,401.4 150,399.8 155,397.5 160,394.7 165,391.4 170,387.7 175,383.6 180,379.2 185,374.5 190,369.7 195,364.8 200,360.0 205,355.2 210,350.7 215,346.4 220,342.4 225,338.9 230,335.9 235,333.3 240,331.4 245,330.1 250,329.4 255,329.3 260,329.9 265,331.2 270,333.0 275,335.4 280,338.4 285,341.9 290,345.7 295,350.0 300,354.5 305,359.2 310,364.1 315,368.9 320,373.8 325,378.5 330,382.9 335,387.1 340,390.9 345,394.3 350,397.1 355,399.5 360,401.2 365,402.3 370,402.8 375,402.6 380,401.8 385,400.3 390,398.3 395,395.6 400,392.5" fill="none" stroke="#3b82f6" stroke-width="2.1" opacity="0.10" />
    <polyline points="0,299.5 5,298.6 10,297.7 15,296.7 20,295.7 25,294.6 30,293.4 35,292.2 40,290.9 45,289.6 50,288.2 55,286.8 60,285.4 65,284.0 70,282.5 75,281.1 80,279.6 85,278.1 90,276.7 95,275.2 100,273.7 105,272.3 110,270.9 115,269.5 120,268.2 125,266.9 130,265.6 135,264.4 140,263.3 145,262.2 150,261.1 155,260.1 160,259.2 165,258.4 170,257.6 175,257.0 180,256.3 185,255.8 190,255.4 195,255.0 200,254.8 205,254.6 210,254.5 215,254.5 220,254.6 225,254.7 230,255.0 235,255.4 240,255.8 245,256.3 250,256.9 255,257.6 260,258.3 265,259.2 270,260.1 275,261.1 280,262.1 285,263.2 290,264.3 295,265.5 300,266.8 305,268.1 310,269.4 315,270.8 320,272.2 325,273.7 330,275.1 335,276.6 340,278.0 345,279.5 350,281.0 355,282.4 360,283.9 365,285.3 370,286.7 375,288.1 380,289.5 385,290.8 390,292.1 395,293.3 400,294.5" fill="none" stroke="#22d3ee" stroke-width="1.8" opacity="0.30" />
    <polyline points="0,179.4 5,176.0 10,172.2 15,168.0 20,163.6 25,159.0 30,154.4 35,149.7 40,145.2 45,141.0 50,137.0 55,133.4 60,130.2 65,127.6 70,125.6 75,124.1 80,123.3 85,123.2 90,123.7 95,124.9 100,126.8 105,129.2 110,132.1 115,135.6 120,139.4 125,143.6 130,148.0 135,152.6 140,157.3 145,161.9 150,166.4 155,170.7 160,174.6 165,178.2 170,181.3 175,183.9 180,185.9 185,187.3 190,188.0 195,188.1 200,187.5 205,186.3 210,184.4 215,182.0 220,179.0 225,175.5 230,171.6 235,167.4 240,163.0 245,158.4 250,153.7 255,149.1 260,144.6 265,140.4 270,136.5 275,132.9 280,129.8 285,127.3 290,125.3 295,124.0 300,123.3 305,123.2 310,123.9 315,125.2 320,127.1 325,129.6 330,132.6 335,136.1 340,140.0 345,144.2 350,148.7 355,153.3 360,157.9 365,162.5 370,167.0 375,171.2 380,175.1 385,178.6 390,181.7 395,184.2 400,186.1" fill="none" stroke="#06b6d4" stroke-width="1.4" opacity="0.12" />
    <polyline points="0,208.0 5,205.7 10,203.3 15,200.7 20,198.1 25,195.3 30,192.6 35,189.8 40,187.1 45,184.4 50,181.9 55,179.4 60,177.1 65,175.0 70,173.1 75,171.4 80,169.9 85,168.7 90,167.8 95,167.2 100,166.8 105,166.8 110,167.0 115,167.6 120,168.4 125,169.5 130,170.9 135,172.5 140,174.4 145,176.4 150,178.7 155,181.1 160,183.6 165,186.2 170,189.0 175,191.7 180,194.5 185,197.2 190,199.9 195,202.5 200,205.0 205,207.3 210,209.4 215,211.4 220,213.1 225,214.7 230,215.9 235,216.9 240,217.6 245,218.0 250,218.1 255,217.9 260,217.4 265,216.6 270,215.6 275,214.3 280,212.7 285,210.9 290,208.8 295,206.6 300,204.3 305,201.7 310,199.1 315,196.4 320,193.7 325,190.9 330,188.2 335,185.5 340,182.9 345,180.4 350,178.0 355,175.8 360,173.8 365,172.0 370,170.5 375,169.2 380,168.1 385,167.4 390,166.9 395,166.8 400,166.9" fill="none" stroke="#22d3ee" stroke-width="2.0" opacity="0.15" /></g>
  <polygon points="396.0,200.2 441.6,245.8 396.0,291.4 350.4,245.8" fill="#06b6d4" opacity="0.37" />
    <rect x="-23.9" y="88.5" width="68.8" height="68.8" fill="#06b6d4" opacity="0.37" />
    <polygon points="171.3,282.5 214.0,325.2 171.3,367.8 128.7,325.2" fill="#22d3ee" opacity="0.39" />
    <polygon points="385.0,300.0 407.8,322.9 385.0,345.8 362.1,322.9" fill="#22d3ee" opacity="0.34" />
    <circle cx="27.8" cy="102.7" r="12.2" fill="#06b6d4" opacity="0.35" />
    <circle cx="171.6" cy="205.3" r="45.8" fill="#22d3ee" opacity="0.23" />
    <polygon points="234.3,409.6 278.7,453.9 234.3,498.3 190.0,453.9" fill="#22d3ee" opacity="0.27" />
    <polygon points="238.7,42.8 266.2,70.2 238.7,97.7 211.3,70.2" fill="#22d3ee" opacity="0.24" />
  
  <!-- Text background banner -->
  <defs>
    <linearGradient id="text-bg-13" x1="0%" y1="0%" x2="100%" y2="0%">
      <stop offset="0%" style="stop-color:#000000;stop-opacity:0.7" />
      <stop offset="50%" style="stop-color:#06b6d4;stop-opacity:0.4" />
      <stop offset="100%" style="stop-color:#000000;stop-opacity:0.7" />
    </linearGradient>
  </defs>
  <rect x="0" y="494" width="400" height="56" fill="url(#text-bg-13)" />

  <!-- Text shadow -->
  <text x="200" y="522" font-family="system-ui, -apple-system, sans-serif" font-size="24" font-weight="bold" text-anchor="middle" fill="#000000" opacity="0.8">Password Pete</text>

  <!-- Main text -->
  <text x="200" y="520" font-family="system-ui, -apple-system, sans-serif" font-size="24" font-weight="bold" text-anchor="middle" fill="#ffffff">Password Pete</text>
  
  <!-- Rarity border -->
  <rect x="3" y="3" width="394" height="544"
        fill="none" stroke="#3b82f6" stroke-width="6" rx="8" ry="8" />
</svg>