<?xml version="1.0" encoding="UTF-8"?>
<svg xmlns="http://www.w3.org/2000/svg" viewBox="0 0 400 550" width="400" height="550">
  <defs>
    <linearGradient id="bg-gradient-115" x1="0%" y1="0%" x2="100%" y2="100%">
      <stop offset="0%" style="stop-color:#06b6d4;stop-opacity:0.26" />
      <stop offset="50%" style="stop-color:#3b82f6;stop-opacity:0.4" />
      <stop offset="100%" style="stop-color:#06b6d4;stop-opacity:0.26" />
    </linearGradient>
    
  <filter id="shadow-115">
    <feDropShadow dx="0" dy="2" stdDeviation="3" flood-opacity="0.8"/>
  </filter>
  </defs>
  <rect width="400" height="550" fill="url(#bg-gradient-0.6676288328599185)" />
  <g opacity="0.3"><polyline points="0,513.9 5,515.4 10,516.7 15,517.8 20,518.6 25,519.1 30,519.4 35,519.5 40,519.2 45,518.7 50,518.0 55,517.0 60,515.7 65,514.3 70,512.6 75,510.8 80,508.8 85,506.6 90,504.3 95,502.0 100,499.6 105,497.1 110,494.6 115,492.2 120,489.8 125,487.5 130,485.3 135,483.2 140,481.3 145,479.5 150,478.0 155,476.6 160,475.5 165,474.6 170,474.0 175,473.7 180,473.6 185,473.8 190,474.2 195,474.9 200,475.9 205,477.0 210,478.5 215,480.1 220,481.9 225,483.9 230,486.0 235,488.2 240,490.6 245,493.0 250,495.5 255,497.9 260,500.4 265,502.8 270,505.1 275,507.3 280,509.5 285,511.4 290,513.2 295,514.8 300,516.2 305,517.3 310,518.3 315,518.9 320,519.3 325,519.5 330,519.4 335,519.0 340,518.3 345,517.4 350,516.3 355,514.9 360,513.4 365,511.6 370,509.6 375,507.5 380,505.3 385,503.0 390,500.6 395,498.1 400,495.7" fill="none" stroke="#22d3ee" stroke-width="2.5" opacity="0.27" />
    <polyline points="0,576.6 5,575.2 10,573.4 15,571.2 20,568.7 25,565.9 30,562.8 35,559.5 40,556.0 45,552.4 50,548.6 55,544.8 60,540.9 65,537.1 70,533.4 75,529.7 80,526.3 85,523.0 90,520.0 95,517.3 100,514.9 105,512.9 110,511.2 115,509.9 120,509.0 125,508.5 130,508.4 135,508.8 140,509.6 145,510.8 150,512.4 155,514.3 160,516.6 165,519.3 170,522.2 175,525.4 180,528.8 185,532.4 190,536.1 195,539.9 200,543.7 205,547.6 210,551.3 215,555.0 220,558.6 225,562.0 230,565.1 235,568.0 240,570.6 245,572.8 250,574.7 255,576.3 260,577.4 265,578.1 270,578.4 275,578.3 280,577.7 285,576.7 290,575.4 295,573.6 300,571.5 305,569.1 310,566.3 315,563.2 320,560.0 325,556.5 330,552.8 335,549.1 340,545.3 345,541.4 350,537.6 355,533.8 360,530.2 365,526.7 370,523.4 375,520.4 380,517.7 385,515.2 390,513.1 395,511.4 400,510.0" fill="none" stroke="#22d3ee" stroke-width="1.3" opacity="0.24" />
    <polyline points="0,178.2 5,175.6 10,173.0 15,170.2 20,167.5 25,164.8 30,162.2 35,159.8 40,157.6 45,155.7 50,154.0 55,152.6 60,151.6 65,151.0 70,150.8 75,150.9 80,151.4 85,152.3 90,153.5 95,155.1 100,156.9 105,159.1 110,161.4 115,163.9 120,166.6 125,169.3 130,172.1 135,174.8 140,177.4 145,179.9 150,182.1 155,184.2 160,186.0 165,187.5 170,188.6 175,189.4 180,189.8 185,189.8 190,189.4 195,188.7 200,187.6 205,186.2 210,184.4 215,182.4 220,180.1 225,177.7 230,175.0 235,172.3 240,169.6 245,166.9 250,164.2 255,161.7 260,159.3 265,157.2 270,155.3 275,153.7 280,152.4 285,151.5 290,150.9 295,150.8 300,151.0 305,151.6 310,152.5 315,153.8 320,155.5 325,157.4 330,159.6 335,162.0 340,164.5 345,167.2 350,169.9 355,172.7 360,175.3 365,177.9 370,180.4 375,182.6 380,184.6 385,186.3 390,187.7 395,188.8 400,189.5" fill="none" stroke="#3b82f6" stroke-width="2.3" opacity="0.29" />
    <polyline points="0,248.4 5,251.0 10,253.9 15,257.1 20,260.4 25,263.9 30,267.4 35,271.1 40,274.7 45,278.3 50,281.8 55,285.2 60,288.4 65,291.3 70,294.1 75,296.5 80,298.7 85,300.5 90,301.9 95,302.9 100,303.6 105,303.8 110,303.6 115,303.1 120,302.1 125,300.7 130,299.0 135,296.9 140,294.5 145,291.8 150,288.8 155,285.7 160,282.3 165,278.8 170,275.2 175,271.6 180,268.0 185,264.4 190,260.9 195,257.6 200,254.4 205,251.5 210,248.8 215,246.4 220,244.3 225,242.5 230,241.2 235,240.2 240,239.6 245,239.4 250,239.7 255,240.3 260,241.3 265,242.8 270,244.5 275,246.7 280,249.1 285,251.9 290,254.9 295,258.1 300,261.4 305,264.9 310,268.5 315,272.1 320,275.8 325,279.3 330,282.8 335,286.1 340,289.3 345,292.2 350,294.8 355,297.2 360,299.2 365,300.9 370,302.2 375,303.2 380,303.7 385,303.8 390,303.5 395,302.8 400,301.7" fill="none" stroke="#22d3ee" stroke-width="2.0" opacity="0.10" />
    <polyline points="0,184.0 5,185.3 10,186.6 15,187.8 20,188.9 25,189.9 30,190.9 35,191.8 40,192.6 45,193.2 50,193.8 55,194.3 60,194.7 65,195.0 70,195.2 75,195.2 80,195.2 85,195.1 90,194.8 95,194.5 100,194.0 105,193.5 110,192.8 115,192.1 120,191.3 125,190.3 130,189.3 135,188.2 140,187.1 145,185.8 150,184.5 155,183.2 160,181.7 165,180.3 170,178.8 175,177.2 180,175.6 185,174.0 190,172.4 195,170.8 200,169.1 205,167.5 210,165.8 215,164.2 220,162.6 225,161.1 230,159.5 235,158.1 240,156.6 245,155.2 250,153.9 255,152.7 260,151.5 265,150.3 270,149.3 275,148.4 280,147.5 285,146.7 290,146.0 295,145.5 300,145.0 305,144.6 310,144.3 315,144.1 320,144.1 325,144.1 330,144.3 335,144.5 340,144.9 345,145.3 350,145.9 355,146.5 360,147.3 365,148.1 370,149.0 375,150.0 380,151.1 385,152.3 390,153.5 395,154.8 400,156.2" fill="none" stroke="#06b6d4" stroke-width="2.8" opacity="0.14" />
    <polyline points="0,373.5 5,376.7 10,379.8 15,382.7 20,385.5 25,388.0 30,390.3 35,392.4 40,394.2 45,395.7 50,396.9 55,397.8 60,398.4 65,398.6 70,398.5 75,398.1 80,397.4 85,396.4 90,395.0 95,393.4 100,391.4 105,389.2 110,386.8 115,384.2 120,381.3 125,378.3 130,375.2 135,371.9 140,368.6 145,365.2 150,361.9 155,358.5 160,355.2 165,352.0 170,348.8 175,345.9 180,343.1 185,340.4 190,338.1 195,335.9 200,334.0 205,332.4 210,331.1 215,330.1 220,329.5 225,329.1 230,329.1 235,329.4 240,330.0 245,331.0 250,332.2 255,333.8 260,335.6 265,337.7 270,340.1 275,342.7 280,345.4 285,348.4 290,351.5 295,354.7 300,358.0 305,361.4 310,364.7 315,368.1 320,371.4 325,374.7 330,377.9 335,380.9 340,383.8 345,386.4 350,388.9 355,391.1 360,393.1 365,394.8 370,396.2 375,397.3 380,398.1 385,398.5 390,398.6 395,398.4 400,397.9" fill="none" stroke="#3b82f6" stroke-width="2.9" opacity="0.29" />
    <polyline points="0,505.4 5,509.2 10,513.0 15,516.8 20,520.5 25,524.1 30,527.5 35,530.7 40,533.7 45,536.3 50,538.7 55,540.6 60,542.2 65,543.4 70,544.2 75,544.5 80,544.4 85,543.8 90,542.9 95,541.5 100,539.7 105,537.6 110,535.1 115,532.3 120,529.2 125,525.9 130,522.4 135,518.7 140,514.9 145,511.1 150,507.3 155,503.6 160,499.9 165,496.4 170,493.1 175,490.0 180,487.2 185,484.7 190,482.6 195,480.8 200,479.4 205,478.5 210,477.9 215,477.8 220,478.2 225,479.0 230,480.1 235,481.7 240,483.7 245,486.1 250,488.7 255,491.7 260,494.9 265,498.3 270,501.9 275,505.6 280,509.4 285,513.2 290,517.0 295,520.7 300,524.3 305,527.7 310,530.9 315,533.8 320,536.5 325,538.8 330,540.7 335,542.3 340,543.5 345,544.2 350,544.5 355,544.4 360,543.8 365,542.8 370,541.4 375,539.6 380,537.4 385,534.9 390,532.1 395,529.0 400,525.6" fill="none" stroke="#3b82f6" stroke-width="1.2" opacity="0.13" />
    <polyline points="0,464.3 5,464.3 10,464.0 15,463.5 20,462.8 25,461.8 30,460.7 35,459.3 40,457.7 45,456.0 50,454.0 55,452.0 60,449.8 65,447.5 70,445.1 75,442.7 80,440.2 85,437.7 90,435.2 95,432.7 100,430.3 105,427.9 110,425.7 115,423.5 120,421.5 125,419.7 130,418.0 135,416.5 140,415.2 145,414.2 150,413.3 155,412.7 160,412.3 165,412.1 170,412.2 175,412.5 180,413.1 185,413.9 190,414.9 195,416.1 200,417.6 205,419.2 210,421.0 215,423.0 220,425.1 225,427.3 230,429.6 235,432.0 240,434.5 245,437.0 250,439.5 255,442.0 260,444.4 265,446.8 270,449.1 275,451.4 280,453.5 285,455.4 290,457.2 295,458.8 300,460.3 305,461.5 310,462.5 315,463.3 320,463.9 325,464.2 330,464.3 335,464.1 340,463.7 345,463.1 350,462.2 355,461.2 360,459.9 365,458.4 370,456.7 375,454.8 380,452.8 385,450.7 390,448.5 395,446.1 400,443.7" fill="none" stroke="#06b6d4" stroke-width="1.2" opacity="0.23" />
    <polyline points="0,515.6 5,515.8 10,515.7 15,515.4 20,514.8 25,514.1 30,513.0 35,511.8 40,510.3 45,508.6 50,506.7 55,504.7 60,502.5 65,500.1 70,497.6 75,494.9 80,492.2 85,489.4 90,486.5 95,483.6 100,480.7 105,477.8 110,474.9 115,472.1 120,469.3 125,466.7 130,464.1 135,461.7 140,459.4 145,457.2 150,455.3 155,453.5 160,452.0 165,450.6 170,449.5 175,448.6 180,448.0 185,447.6 190,447.4 195,447.5 200,447.8 205,448.4 210,449.2 215,450.3 220,451.6 225,453.1 230,454.8 235,456.7 240,458.8 245,461.0 250,463.5 255,466.0 260,468.6 265,471.4 270,474.2 275,477.1 280,480.0 285,482.9 290,485.8 295,488.7 300,491.5 305,494.2 310,496.9 315,499.4 320,501.8 325,504.1 330,506.2 335,508.2 340,509.9 345,511.4 350,512.7 355,513.8 360,514.7 365,515.3 370,515.6 375,515.8 380,515.6 385,515.3 390,514.6 395,513.8 400,512.7" fill="none" stroke="#3b82f6" stroke-width="2.2" opacity="0.27" />
    <polyline points="0,221.6 5,222.6 10,223.5 15,224.3 20,225.1 25,225.9 30,226.6 35,227.3 40,227.9 45,228.4 50,228.9 55,229.3 60,229.7 65,230.0 70,230.2 75,230.4 80,230.5 85,230.6 90,230.5 95,230.5 100,230.3 105,230.1 110,229.8 115,229.5 120,229.1 125,228.7 130,228.2 135,227.6 140,227.0 145,226.3 150,225.5 155,224.8 160,223.9 165,223.1 170,222.1 175,221.2 180,220.2 185,219.2 190,218.1 195,217.0 200,215.9 205,214.7 210,213.6 215,212.4 220,211.2 225,210.0 230,208.8 235,207.6 240,206.4 245,205.2 250,204.0 255,202.8 260,201.6 265,200.4 270,199.3 275,198.2 280,197.1 285,196.0 290,195.0 295,194.0 300,193.1 305,192.2 310,191.3 315,190.5 320,189.7 325,189.0 330,188.3 335,187.7 340,187.2 345,186.7 350,186.2 355,185.8 360,185.5 365,185.3 370,185.1 375,185.0 380,184.9 385,184.9 390,185.0 395,185.1 400,185.3" fill="none" stroke="#06b6d4" stroke-width="2.6" opacity="0.26" />
    <polyline points="0,180.1 5,182.4 10,184.5 15,186.4 20,188.2 25,189.7 30,191.0 35,192.1 40,193.0 45,193.6 50,194.0 55,194.2 60,194.1 65,193.7 70,193.2 75,192.3 80,191.3 85,190.0 90,188.5 95,186.8 100,184.9 105,182.8 110,180.6 115,178.2 120,175.7 125,173.1 130,170.4 135,167.6 140,164.8 145,162.0 150,159.1 155,156.3 160,153.5 165,150.8 170,148.2 175,145.6 180,143.2 185,140.9 190,138.8 195,136.9 200,135.1 205,133.5 210,132.2 215,131.0 220,130.1 225,129.5 230,129.0 235,128.9 240,128.9 245,129.3 250,129.8 255,130.6 260,131.6 265,132.9 270,134.4 275,136.1 280,137.9 285,140.0 290,142.2 295,144.6 300,147.0 305,149.6 310,152.3 315,155.1 320,157.9 325,160.7 330,163.6 335,166.4 340,169.2 345,171.9 350,174.6 355,177.1 360,179.5 365,181.8 370,184.0 375,186.0 380,187.8 385,189.3 390,190.7 395,191.9 400,192.8" fill="none" stroke="#22d3ee" stroke-width="2.1" opacity="0.22" />
    <polyline points="0,308.0 5,305.1 10,302.3 15,299.7 20,297.3 25,295.0 30,292.9 35,291.1 40,289.4 45,288.0 50,286.8 55,286.0 60,285.3 65,285.0 70,284.9 75,285.1 80,285.5 85,286.2 90,287.2 95,288.5 100,290.0 105,291.7 110,293.6 115,295.8 120,298.1 125,300.6 130,303.3 135,306.1 140,309.0 145,312.0 150,315.1 155,318.1 160,321.3 165,324.4 170,327.4 175,330.4 180,333.4 185,336.2 190,338.9 195,341.5 200,343.9 205,346.1 210,348.1 215,349.9 220,351.4 225,352.8 230,353.8 235,354.6 240,355.2 245,355.4 250,355.4 255,355.1 260,354.6 265,353.8 270,352.7 275,351.4 280,349.8 285,348.0 290,346.0 295,343.7 300,341.3 305,338.8 310,336.0 315,333.2 320,330.3 325,327.3 330,324.2 335,321.1 340,318.0 345,314.9 350,311.8 355,308.8 360,306.0 365,303.2 370,300.5 375,298.0 380,295.7 385,293.5 390,291.6 395,289.9 400,288.4" fill="none" stroke="#22d3ee" stroke-width="2.3" opacity="0.17" /></g>
  <polygon points="290.5,437.1 320.8,467.4 290.5,497.8 260.2,467.4" fill="#3b82f6" opacity="0.17" />
    <rect x="-20.8" y="54.2" width="82.3" height="82.3" fill="#22d3ee" opacity="0.36" />
    <rect x="233.3" y="309.1" width="94.2" height="94.2" fill="#3b82f6" opacity="0.18" />
    <circle cx="227.9" cy="166.8" r="27.7" fill="#06b6d4" opacity="0.32" />
    <polygon points="48.8,478.1 69.8,520.1 27.8,520.1" fill="#3b82f6" opacity="0.15" />
    <rect x="324.1" y="410.4" width="78.8" height="78.8" fill="#22d3ee" opacity="0.25" />
    <polygon points="6.4,323.9 30.0,371.2 -17.2,371.2" fill="#22d3ee" opacity="0.17" />
    <circle cx="218.5" cy="275.9" r="14.1" fill="#22d3ee" opacity="0.37" />
    <rect x="97.7" y="459.2" width="20.4" height="20.4" fill="#06b6d4" opacity="0.31" />
    <polygon points="218.2,533.1 234.1,565.1 202.2,565.1" fill="#3b82f6" opacity="0.10" />
    <circle cx="88.1" cy="310.0" r="46.1" fill="#06b6d4" opacity="0.34" />
    <polygon points="58.8,273.0 89.5,334.5 28.1,334.5" fill="#3b82f6" opacity="0.29" />
    <rect x="167.3" y="265.2" width="54.4" height="54.4" fill="#22d3ee" opacity="0.23" />
    <rect x="-3.0" y="246.3" width="27.9" height="27.9" fill="#06b6d4" opacity="0.20" />
    <rect x="76.9" y="468.9" width="20.3" height="20.3" fill="#22d3ee" opacity="0.15" />
    <rect x="187.7" y="345.8" width="96.2" height="96.2" fill="#06b6d4" opacity="0.15" />
    <circle cx="345.8" cy="210.0" r="18.9" fill="#22d3ee" opacity="0.24" />
  
  <!-- Text background banner -->
  <defs>
    <linearGradient id="text-bg-18" x1="0%" y1="0%" x2="100%" y2="0%">
      <stop offset="0%" style="stop-color:#000000;stop-opacity:0.7" />
      <stop offset="50%" style="stop-color:#06b6d4;stop-opacity:0.4" />
      <stop offset="100%" style="stop-color:#000000;stop-opacity:0.7" />
    </linearGradient>
  </defs>
  <rect x="0" y="494" width="400" height="56" fill="url(#text-bg-18)" />

  <!-- Text shadow -->
  <text x="200" y="522" font-family="system-ui, -apple-system, sans-serif" font-size="24" font-weight="bold" text-anchor="middle" fill="#000000" opacity="0.8">Update Avoider Dan</text>

  <!-- Main text -->
  <text x="200" y="520" font-family="system-ui, -apple-system, sans-serif" font-size="24" font-weight="bold" text-anchor="middle" fill="#ffffff">Update Avoider Dan</text>
  
  <!-- Rarity border -->
  <rect x="6" y="6" width="388" height="538"
        fill="none" stroke="#f97316" stroke-width="12" rx="8" ry="8" />
</svg>