<?xml version="1.0" encoding="UTF-8"?>
<svg xmlns="http://www.w3.org/2000/svg" viewBox="0 0 400 550" width="400" height="550">
  <defs>
    <linearGradient id="bg-gradient-117" x1="0%" y1="0%" x2="100%" y2="100%">
      <stop offset="0%" style="stop-color:#f97316;stop-opacity:0.26" />
      <stop offset="50%" style="stop-color:#ef4444;stop-opacity:0.4" />
      <stop offset="100%" style="stop-color:#f97316;stop-opacity:0.26" />
    </linearGradient>
    
  <filter id="shadow-117">
    <feDropShadow dx="0" dy="2" stdDeviation="3" flood-opacity="0.8"/>
  </filter>
  </defs>
  <rect width="400" height="550" fill="url(#bg-gradient-0.054283249424770474)" />
  <g opacity="0.3"><circle cx="5.7" cy="2.5" r="4" fill="#ef4444" />
    <circle cx="8.5" cy="98.4" r="4" fill="#f97316" />
    <circle cx="3.4" cy="123.4" r="4" fill="#f97316" />
    <circle cx="3.1" cy="156.0" r="4" fill="#ef4444" />
    <circle cx="4.4" cy="187.5" r="4" fill="#fbbf24" />
    <circle cx="3.1" cy="247.4" r="4" fill="#fbbf24" />
    <circle cx="8.0" cy="309.8" r="4" fill="#fbbf24" />
    <circle cx="5.4" cy="330.5" r="4" fill="#fbbf24" />
    <circle cx="2.7" cy="363.4" r="4" fill="#ef4444" />
    <circle cx="9.2" cy="397.6" r="4" fill="#ef4444" />
    <circle cx="1.6" cy="429.4" r="4" fill="#fbbf24" />
    <circle cx="8.3" cy="451.8" r="4" fill="#ef4444" />
    <circle cx="7.8" cy="517.7" r="4" fill="#ef4444" />
    <circle cx="2.0" cy="548.0" r="4" fill="#f97316" />
    <circle cx="36.2" cy="2.0" r="4" fill="#ef4444" />
    <circle cx="39.2" cy="32.2" r="4" fill="#ef4444" />
    <circle cx="35.4" cy="66.9" r="4" fill="#ef4444" />
    <circle cx="34.0" cy="183.6" r="4" fill="#fbbf24" />
    <circle cx="37.7" cy="215.7" r="4" fill="#fbbf24" />
    <circle cx="32.9" cy="301.1" r="4" fill="#fbbf24" />
    <circle cx="36.0" cy="337.0" r="4" fill="#f97316" />
    <circle cx="34.8" cy="398.7" r="4" fill="#ef4444" />
    <circle cx="34.4" cy="422.1" r="4" fill="#fbbf24" />
    <circle cx="31.4" cy="450.7" r="4" fill="#f97316" />
    <circle cx="33.8" cy="486.8" r="4" fill="#ef4444" />
    <circle cx="37.6" cy="512.1" r="4" fill="#f97316" />
    <circle cx="38.2" cy="542.8" r="4" fill="#ef4444" />
    <circle cx="66.3" cy="37.9" r="4" fill="#ef4444" />
    <circle cx="67.2" cy="67.1" r="4" fill="#f97316" />
    <circle cx="67.2" cy="92.5" r="4" fill="#f97316" />
    <circle cx="67.6" cy="127.9" r="4" fill="#ef4444" />
    <circle cx="65.1" cy="151.1" r="4" fill="#fbbf24" />
    <circle cx="63.1" cy="246.7" r="4" fill="#fbbf24" />
    <circle cx="67.3" cy="361.1" r="4" fill="#fbbf24" />
    <circle cx="63.1" cy="395.2" r="4" fill="#f97316" />
    <circle cx="64.7" cy="420.4" r="4" fill="#f97316" />
    <circle cx="66.2" cy="452.3" r="4" fill="#ef4444" />
    <circle cx="67.9" cy="483.4" r="4" fill="#f97316" />
    <circle cx="61.8" cy="516.9" r="4" fill="#ef4444" />
    <circle cx="68.2" cy="547.0" r="4" fill="#fbbf24" />
    <circle cx="94.5" cy="1.4" r="4" fill="#f97316" />
    <circle cx="94.0" cy="31.3" r="4" fill="#f97316" />
    <circle cx="97.4" cy="92.8" r="4" fill="#ef4444" />
    <circle cx="98.6" cy="121.0" r="4" fill="#fbbf24" />
    <circle cx="96.3" cy="153.7" r="4" fill="#f97316" />
    <circle cx="97.3" cy="211.8" r="4" fill="#fbbf24" />
    <circle cx="99.6" cy="246.1" r="4" fill="#fbbf24" />
    <circle cx="96.4" cy="301.8" r="4" fill="#fbbf24" />
    <circle cx="97.6" cy="365.1" r="4" fill="#ef4444" />
    <circle cx="100.0" cy="397.7" r="4" fill="#ef4444" />
    <circle cx="98.8" cy="428.7" r="4" fill="#ef4444" />
    <circle cx="90.9" cy="480.1" r="4" fill="#ef4444" />
    <circle cx="90.8" cy="510.7" r="4" fill="#fbbf24" />
    <circle cx="96.8" cy="549.6" r="4" fill="#ef4444" />
    <circle cx="126.0" cy="5.8" r="4" fill="#ef4444" />
    <circle cx="126.9" cy="65.2" r="4" fill="#f97316" />
    <circle cx="125.9" cy="303.9" r="4" fill="#f97316" />
    <circle cx="122.3" cy="361.6" r="4" fill="#f97316" />
    <circle cx="125.4" cy="421.3" r="4" fill="#f97316" />
    <circle cx="128.8" cy="457.7" r="4" fill="#ef4444" />
    <circle cx="123.1" cy="485.0" r="4" fill="#f97316" />
    <circle cx="122.8" cy="511.8" r="4" fill="#f97316" />
    <circle cx="125.5" cy="547.6" r="4" fill="#fbbf24" />
    <circle cx="156.1" cy="69.5" r="4" fill="#fbbf24" />
    <circle cx="153.9" cy="122.7" r="4" fill="#f97316" />
    <circle cx="155.8" cy="151.4" r="4" fill="#fbbf24" />
    <circle cx="158.0" cy="180.5" r="4" fill="#ef4444" />
    <circle cx="153.9" cy="213.2" r="4" fill="#fbbf24" />
    <circle cx="156.2" cy="276.1" r="4" fill="#fbbf24" />
    <circle cx="158.7" cy="304.1" r="4" fill="#f97316" />
    <circle cx="155.5" cy="365.2" r="4" fill="#fbbf24" />
    <circle cx="151.6" cy="429.9" r="4" fill="#fbbf24" />
    <circle cx="152.4" cy="452.4" r="4" fill="#ef4444" />
    <circle cx="153.0" cy="483.2" r="4" fill="#f97316" />
    <circle cx="156.7" cy="511.8" r="4" fill="#ef4444" />
    <circle cx="158.2" cy="544.1" r="4" fill="#fbbf24" />
    <circle cx="183.0" cy="2.0" r="4" fill="#fbbf24" />
    <circle cx="183.2" cy="32.6" r="4" fill="#fbbf24" />
    <circle cx="181.7" cy="67.7" r="4" fill="#f97316" />
    <circle cx="180.3" cy="92.3" r="4" fill="#fbbf24" />
    <circle cx="188.5" cy="126.6" r="4" fill="#f97316" />
    <circle cx="182.3" cy="189.6" r="4" fill="#fbbf24" />
    <circle cx="188.6" cy="211.3" r="4" fill="#f97316" />
    <circle cx="185.2" cy="276.0" r="4" fill="#ef4444" />
    <circle cx="186.7" cy="305.1" r="4" fill="#f97316" />
    <circle cx="182.9" cy="339.3" r="4" fill="#f97316" />
    <circle cx="188.2" cy="363.6" r="4" fill="#f97316" />
    <circle cx="187.5" cy="426.8" r="4" fill="#f97316" />
    <circle cx="189.3" cy="484.7" r="4" fill="#ef4444" />
    <circle cx="185.1" cy="543.6" r="4" fill="#ef4444" />
    <circle cx="218.1" cy="1.7" r="4" fill="#f97316" />
    <circle cx="214.6" cy="69.8" r="4" fill="#fbbf24" />
    <circle cx="214.6" cy="93.1" r="4" fill="#fbbf24" />
    <circle cx="211.7" cy="155.3" r="4" fill="#f97316" />
    <circle cx="210.9" cy="187.8" r="4" fill="#ef4444" />
    <circle cx="212.1" cy="275.9" r="4" fill="#ef4444" />
    <circle cx="215.0" cy="302.5" r="4" fill="#f97316" />
    <circle cx="214.1" cy="361.8" r="4" fill="#f97316" />
    <circle cx="218.6" cy="485.2" r="4" fill="#f97316" />
    <circle cx="218.9" cy="514.1" r="4" fill="#ef4444" />
    <circle cx="241.6" cy="1.3" r="4" fill="#fbbf24" />
    <circle cx="242.9" cy="37.8" r="4" fill="#fbbf24" />
    <circle cx="240.9" cy="128.2" r="4" fill="#ef4444" />
    <circle cx="249.3" cy="182.0" r="4" fill="#ef4444" />
    <circle cx="241.3" cy="216.9" r="4" fill="#ef4444" />
    <circle cx="248.8" cy="243.2" r="4" fill="#ef4444" />
    <circle cx="241.6" cy="279.6" r="4" fill="#ef4444" />
    <circle cx="244.2" cy="309.6" r="4" fill="#f97316" />
    <circle cx="248.9" cy="332.2" r="4" fill="#ef4444" />
    <circle cx="247.8" cy="367.8" r="4" fill="#f97316" />
    <circle cx="242.2" cy="393.5" r="4" fill="#f97316" />
    <circle cx="240.0" cy="429.3" r="4" fill="#fbbf24" />
    <circle cx="242.0" cy="451.3" r="4" fill="#fbbf24" />
    <circle cx="241.5" cy="480.9" r="4" fill="#ef4444" />
    <circle cx="244.6" cy="511.5" r="4" fill="#f97316" />
    <circle cx="241.3" cy="544.4" r="4" fill="#ef4444" />
    <circle cx="273.0" cy="4.2" r="4" fill="#fbbf24" />
    <circle cx="279.4" cy="66.2" r="4" fill="#f97316" />
    <circle cx="277.5" cy="125.0" r="4" fill="#ef4444" />
    <circle cx="279.8" cy="155.2" r="4" fill="#ef4444" />
    <circle cx="275.8" cy="218.0" r="4" fill="#ef4444" />
    <circle cx="272.5" cy="240.5" r="4" fill="#f97316" />
    <circle cx="278.1" cy="301.5" r="4" fill="#ef4444" />
    <circle cx="277.6" cy="338.3" r="4" fill="#f97316" />
    <circle cx="272.7" cy="362.3" r="4" fill="#ef4444" />
    <circle cx="276.2" cy="390.8" r="4" fill="#ef4444" />
    <circle cx="272.5" cy="427.3" r="4" fill="#fbbf24" />
    <circle cx="275.3" cy="484.7" r="4" fill="#fbbf24" />
    <circle cx="279.4" cy="519.0" r="4" fill="#f97316" />
    <circle cx="305.5" cy="7.8" r="4" fill="#ef4444" />
    <circle cx="306.9" cy="30.4" r="4" fill="#ef4444" />
    <circle cx="306.7" cy="63.8" r="4" fill="#f97316" />
    <circle cx="300.0" cy="93.7" r="4" fill="#f97316" />
    <circle cx="305.8" cy="150.5" r="4" fill="#fbbf24" />
    <circle cx="306.8" cy="187.4" r="4" fill="#fbbf24" />
    <circle cx="309.2" cy="240.4" r="4" fill="#fbbf24" />
    <circle cx="302.5" cy="305.1" r="4" fill="#ef4444" />
    <circle cx="309.1" cy="331.8" r="4" fill="#fbbf24" />
    <circle cx="306.1" cy="368.6" r="4" fill="#fbbf24" />
    <circle cx="308.0" cy="396.9" r="4" fill="#f97316" />
    <circle cx="305.3" cy="420.0" r="4" fill="#f97316" />
    <circle cx="303.7" cy="458.4" r="4" fill="#ef4444" />
    <circle cx="309.5" cy="489.5" r="4" fill="#ef4444" />
    <circle cx="305.9" cy="547.1" r="4" fill="#f97316" />
    <circle cx="330.4" cy="4.1" r="4" fill="#ef4444" />
    <circle cx="337.7" cy="61.2" r="4" fill="#fbbf24" />
    <circle cx="334.4" cy="126.5" r="4" fill="#f97316" />
    <circle cx="337.2" cy="153.6" r="4" fill="#f97316" />
    <circle cx="338.1" cy="212.3" r="4" fill="#ef4444" />
    <circle cx="337.4" cy="247.8" r="4" fill="#ef4444" />
    <circle cx="337.2" cy="306.3" r="4" fill="#ef4444" />
    <circle cx="335.2" cy="364.5" r="4" fill="#f97316" />
    <circle cx="332.5" cy="398.3" r="4" fill="#ef4444" />
    <circle cx="333.6" cy="458.5" r="4" fill="#ef4444" />
    <circle cx="336.3" cy="487.6" r="4" fill="#ef4444" />
    <circle cx="337.8" cy="517.3" r="4" fill="#ef4444" />
    <circle cx="368.4" cy="9.3" r="4" fill="#fbbf24" />
    <circle cx="365.6" cy="30.9" r="4" fill="#ef4444" />
    <circle cx="360.7" cy="94.2" r="4" fill="#ef4444" />
    <circle cx="364.2" cy="127.0" r="4" fill="#ef4444" />
    <circle cx="362.6" cy="158.7" r="4" fill="#fbbf24" />
    <circle cx="363.3" cy="219.6" r="4" fill="#ef4444" />
    <circle cx="364.7" cy="247.1" r="4" fill="#ef4444" />
    <circle cx="365.8" cy="308.0" r="4" fill="#ef4444" />
    <circle cx="362.5" cy="339.3" r="4" fill="#f97316" />
    <circle cx="361.5" cy="392.3" r="4" fill="#fbbf24" />
    <circle cx="362.3" cy="420.2" r="4" fill="#fbbf24" />
    <circle cx="363.9" cy="455.4" r="4" fill="#fbbf24" />
    <circle cx="362.5" cy="488.0" r="4" fill="#f97316" />
    <circle cx="368.0" cy="548.9" r="4" fill="#fbbf24" />
    <circle cx="397.2" cy="0.0" r="4" fill="#fbbf24" />
    <circle cx="396.1" cy="37.1" r="4" fill="#f97316" />
    <circle cx="394.5" cy="93.4" r="4" fill="#f97316" />
    <circle cx="396.9" cy="126.6" r="4" fill="#fbbf24" />
    <circle cx="392.8" cy="181.2" r="4" fill="#f97316" />
    <circle cx="399.7" cy="219.3" r="4" fill="#f97316" />
    <circle cx="396.5" cy="278.5" r="4" fill="#f97316" />
    <circle cx="394.6" cy="307.0" r="4" fill="#ef4444" />
    <circle cx="398.4" cy="333.5" r="4" fill="#f97316" />
    <circle cx="397.4" cy="364.0" r="4" fill="#ef4444" />
    <circle cx="397.9" cy="422.3" r="4" fill="#fbbf24" />
    <circle cx="391.6" cy="453.0" r="4" fill="#f97316" />
    <circle cx="394.6" cy="488.9" r="4" fill="#fbbf24" />
    <circle cx="394.6" cy="515.0" r="4" fill="#ef4444" />
    <circle cx="391.6" cy="542.0" r="4" fill="#fbbf24" /></g>
  <polygon points="38.8,183.9 49.7,194.9 38.8,205.8 27.8,194.9" fill="#fbbf24" opacity="0.11" />
    <polygon points="108.4,473.5 144.1,545.0 72.6,545.0" fill="#fbbf24" opacity="0.25" />
    <rect x="2.1" y="61.7" width="26.1" height="26.1" fill="#ef4444" opacity="0.40" />
    <rect x="259.8" y="222.0" width="92.6" height="92.6" fill="#ef4444" opacity="0.34" />
    <polygon points="60.5,280.1 71.0,290.6 60.5,301.2 49.9,290.6" fill="#fbbf24" opacity="0.28" />
    <polygon points="257.3,53.3 301.7,142.2 212.8,142.2" fill="#f97316" opacity="0.18" />
    <polygon points="97.8,301.0 134.8,375.1 60.8,375.1" fill="#ef4444" opacity="0.39" />
    <polygon points="196.8,231.1 213.8,265.1 179.7,265.1" fill="#ef4444" opacity="0.35" />
  
  <!-- Text background banner -->
  <defs>
    <linearGradient id="text-bg-13" x1="0%" y1="0%" x2="100%" y2="0%">
      <stop offset="0%" style="stop-color:#000000;stop-opacity:0.7" />
      <stop offset="50%" style="stop-color:#f97316;stop-opacity:0.4" />
      <stop offset="100%" style="stop-color:#000000;stop-opacity:0.7" />
    </linearGradient>
  </defs>
  <rect x="0" y="494" width="400" height="56" fill="url(#text-bg-13)" />

  <!-- Text shadow -->
  <text x="200" y="522" font-family="system-ui, -apple-system, sans-serif" font-size="24" font-weight="bold" text-anchor="middle" fill="#000000" opacity="0.8">Gatorade Greg</text>

  <!-- Main text -->
  <text x="200" y="520" font-family="system-ui, -apple-system, sans-serif" font-size="24" font-weight="bold" text-anchor="middle" fill="#ffffff">Gatorade Greg</text>
  
  <!-- Rarity border -->
  <rect x="3" y="3" width="394" height="544"
        fill="none" stroke="#3b82f6" stroke-width="6" rx="8" ry="8" />
</svg>