<?xml version="1.0" encoding="UTF-8"?>
<svg xmlns="http://www.w3.org/2000/svg" viewBox="0 0 400 550" width="400" height="550">
  <defs>
    <linearGradient id="bg-gradient-118" x1="0%" y1="0%" x2="100%" y2="100%">
      <stop offset="0%" style="stop-color:#f97316;stop-opacity:0.26" />
      <stop offset="50%" style="stop-color:#ef4444;stop-opacity:0.4" />
      <stop offset="100%" style="stop-color:#f97316;stop-opacity:0.26" />
    </linearGradient>
    
  <filter id="shadow-118">
    <feDropShadow dx="0" dy="2" stdDeviation="3" flood-opacity="0.8"/>
  </filter>
  </defs>
  <rect width="400" height="550" fill="url(#bg-gradient-0.6136125803459436)" />
  <g opacity="0.3"><rect x="175.8" y="415.0" width="68.3" height="68.3" fill="none" stroke="#ef4444" stroke-width="2.8" opacity="0.18" />
    <circle cx="206.9" cy="527.4" r="39.0" fill="none" stroke="#ef4444" stroke-width="3.0" opacity="0.13" />
    <circle cx="385.1" cy="388.8" r="18.7" fill="none" stroke="#ef4444" stroke-width="2.5" opacity="0.23" />
    <rect x="100.8" y="367.8" width="24.6" height="24.6" fill="none" stroke="#ef4444" stroke-width="2.1" opacity="0.15" />
    <circle cx="351.9" cy="514.6" r="27.5" fill="none" stroke="#f97316" stroke-width="1.3" opacity="0.27" />
    <rect x="212.8" y="117.8" width="68.6" height="68.6" fill="none" stroke="#fbbf24" stroke-width="2.7" opacity="0.12" />
    <circle cx="169.2" cy="167.5" r="34.4" fill="none" stroke="#fbbf24" stroke-width="1.1" opacity="0.29" />
    <circle cx="86.1" cy="128.1" r="27.1" fill="none" stroke="#ef4444" stroke-width="1.5" opacity="0.14" />
    <rect x="205.0" y="432.3" width="28.5" height="28.5" fill="none" stroke="#f97316" stroke-width="1.4" opacity="0.12" /></g>
  <polygon points="204.5,463.3 250.1,509.0 204.5,554.6 158.9,509.0" fill="#f97316" opacity="0.11" />
    <polygon points="185.9,185.8 231.8,277.6 139.9,277.6" fill="#f97316" opacity="0.29" />
    <polygon points="303.4,314.1 341.7,390.8 265.0,390.8" fill="#ef4444" opacity="0.35" />
    <circle cx="265.2" cy="12.2" r="36.1" fill="#fbbf24" opacity="0.20" />
    <circle cx="22.5" cy="475.2" r="22.1" fill="#ef4444" opacity="0.39" />
    <polygon points="269.1,23.0 297.3,51.2 269.1,79.3 241.0,51.2" fill="#fbbf24" opacity="0.12" />
    <rect x="270.4" y="41.9" width="44.5" height="44.5" fill="#f97316" opacity="0.15" />
    <rect x="29.4" y="202.3" width="73.8" height="73.8" fill="#f97316" opacity="0.39" />
    <polygon points="284.6,113.1 322.8,151.3 284.6,189.5 246.4,151.3" fill="#ef4444" opacity="0.38" />
    <circle cx="74.6" cy="317.2" r="23.0" fill="#ef4444" opacity="0.12" />
    <polygon points="338.0,378.0 355.1,395.1 338.0,412.3 320.9,395.1" fill="#f97316" opacity="0.14" />
  
  <!-- Text background banner -->
  <defs>
    <linearGradient id="text-bg-16" x1="0%" y1="0%" x2="100%" y2="0%">
      <stop offset="0%" style="stop-color:#000000;stop-opacity:0.7" />
      <stop offset="50%" style="stop-color:#f97316;stop-opacity:0.4" />
      <stop offset="100%" style="stop-color:#000000;stop-opacity:0.7" />
    </linearGradient>
  </defs>
  <rect x="0" y="494" width="400" height="56" fill="url(#text-bg-16)" />

  <!-- Text shadow -->
  <text x="200" y="522" font-family="system-ui, -apple-system, sans-serif" font-size="24" font-weight="bold" text-anchor="middle" fill="#000000" opacity="0.8">Bench Boss Barry</text>

  <!-- Main text -->
  <text x="200" y="520" font-family="system-ui, -apple-system, sans-serif" font-size="24" font-weight="bold" text-anchor="middle" fill="#ffffff">Bench Boss Barry</text>
  
  <!-- Rarity border -->
  <rect x="4" y="4" width="392" height="542"
        fill="none" stroke="#eab308" stroke-width="8" rx="8" ry="8" />
</svg>