<?xml version="1.0" encoding="UTF-8"?>
<svg xmlns="http://www.w3.org/2000/svg" viewBox="0 0 400 550" width="400" height="550">
  <defs>
    <linearGradient id="bg-gradient-120" x1="0%" y1="0%" x2="100%" y2="100%">
      <stop offset="0%" style="stop-color:#f97316;stop-opacity:0.26" />
      <stop offset="50%" style="stop-color:#ef4444;stop-opacity:0.4" />
      <stop offset="100%" style="stop-color:#f97316;stop-opacity:0.26" />
    </linearGradient>
    
  <filter id="shadow-120">
    <feDropShadow dx="0" dy="2" stdDeviation="3" flood-opacity="0.8"/>
  </filter>
  </defs>
  <rect width="400" height="550" fill="url(#bg-gradient-0.485866284230724)" />
  <g opacity="0.3"><circle cx="81.2" cy="520.9" r="20.9" fill="none" stroke="#f97316" stroke-width="2.5" opacity="0.17" />
    <rect x="381.0" y="94.6" width="24.5" height="24.5" fill="none" stroke="#fbbf24" stroke-width="1.5" opacity="0.28" />
    <circle cx="81.5" cy="137.2" r="37.0" fill="none" stroke="#fbbf24" stroke-width="2.3" opacity="0.22" />
    <rect x="17.4" y="235.1" width="28.5" height="28.5" fill="none" stroke="#f97316" stroke-width="1.4" opacity="0.19" />
    <circle cx="53.2" cy="516.6" r="14.3" fill="none" stroke="#ef4444" stroke-width="1.6" opacity="0.27" />
    <rect x="163.4" y="240.0" width="62.3" height="62.3" fill="none" stroke="#ef4444" stroke-width="2.9" opacity="0.20" />
    <circle cx="311.2" cy="419.2" r="30.0" fill="none" stroke="#ef4444" stroke-width="2.6" opacity="0.28" />
    <rect x="3.9" y="335.1" width="59.3" height="59.3" fill="none" stroke="#ef4444" stroke-width="1.1" opacity="0.20" />
    <circle cx="234.1" cy="191.1" r="16.1" fill="none" stroke="#ef4444" stroke-width="1.6" opacity="0.30" />
    <circle cx="382.0" cy="59.5" r="12.8" fill="none" stroke="#ef4444" stroke-width="2.9" opacity="0.13" />
    <rect x="313.5" y="232.5" width="52.8" height="52.8" fill="none" stroke="#ef4444" stroke-width="1.0" opacity="0.11" />
    <circle cx="322.6" cy="337.5" r="28.1" fill="none" stroke="#ef4444" stroke-width="1.9" opacity="0.19" />
    <rect x="287.8" y="328.6" width="58.8" height="58.8" fill="none" stroke="#ef4444" stroke-width="2.4" opacity="0.18" /></g>
  <polygon points="60.5,335.0 81.3,355.8 60.5,376.6 39.7,355.8" fill="#fbbf24" opacity="0.33" />
    <polygon points="227.6,87.7 243.5,119.5 211.7,119.5" fill="#fbbf24" opacity="0.18" />
    <polygon points="327.2,125.4 368.2,207.6 286.1,207.6" fill="#ef4444" opacity="0.37" />
    <circle cx="117.2" cy="89.8" r="13.2" fill="#fbbf24" opacity="0.24" />
    <circle cx="146.7" cy="247.6" r="24.6" fill="#f97316" opacity="0.14" />
    <rect x="211.1" y="386.3" width="71.9" height="71.9" fill="#ef4444" opacity="0.31" />
    <polygon points="114.3,368.8 143.5,427.2 85.0,427.2" fill="#f97316" opacity="0.31" />
    <rect x="-5.2" y="84.3" width="27.3" height="27.3" fill="#f97316" opacity="0.28" />
    <polygon points="189.5,-43.7 238.3,54.0 140.7,54.0" fill="#fbbf24" opacity="0.36" />
    <rect x="259.3" y="66.4" width="36.4" height="36.4" fill="#f97316" opacity="0.31" />
    <rect x="134.2" y="-25.9" width="53.8" height="53.8" fill="#fbbf24" opacity="0.39" />
    <rect x="306.9" y="513.2" width="51.6" height="51.6" fill="#ef4444" opacity="0.16" />
    <circle cx="235.8" cy="5.8" r="15.2" fill="#ef4444" opacity="0.22" />
    <polygon points="160.4,245.2 174.2,259.1 160.4,273.0 146.5,259.1" fill="#f97316" opacity="0.36" />
    <rect x="90.5" y="262.7" width="77.9" height="77.9" fill="#fbbf24" opacity="0.40" />
    <polygon points="397.5,9.9 407.8,30.4 387.3,30.4" fill="#ef4444" opacity="0.10" />
    <rect x="120.3" y="473.2" width="21.4" height="21.4" fill="#fbbf24" opacity="0.18" />
  
  <!-- Text background banner -->
  <defs>
    <linearGradient id="text-bg-13" x1="0%" y1="0%" x2="100%" y2="0%">
      <stop offset="0%" style="stop-color:#000000;stop-opacity:0.7" />
      <stop offset="50%" style="stop-color:#f97316;stop-opacity:0.4" />
      <stop offset="100%" style="stop-color:#000000;stop-opacity:0.7" />
    </linearGradient>
  </defs>
  <rect x="0" y="494" width="400" height="56" fill="url(#text-bg-13)" />

  <!-- Text shadow -->
  <text x="200" y="522" font-family="system-ui, -apple-system, sans-serif" font-size="24" font-weight="bold" text-anchor="middle" fill="#000000" opacity="0.8">Halftime Hank</text>

  <!-- Main text -->
  <text x="200" y="520" font-family="system-ui, -apple-system, sans-serif" font-size="24" font-weight="bold" text-anchor="middle" fill="#ffffff">Halftime Hank</text>
  
  <!-- Rarity border -->
  <rect x="6" y="6" width="388" height="538"
        fill="none" stroke="#f97316" stroke-width="12" rx="8" ry="8" />
</svg>