<?xml version="1.0" encoding="UTF-8"?>
<svg xmlns="http://www.w3.org/2000/svg" viewBox="0 0 400 550" width="400" height="550">
  <defs>
    <linearGradient id="bg-gradient-121" x1="0%" y1="0%" x2="100%" y2="100%">
      <stop offset="0%" style="stop-color:#ef4444;stop-opacity:0.26" />
      <stop offset="50%" style="stop-color:#22c55e;stop-opacity:0.4" />
      <stop offset="100%" style="stop-color:#ef4444;stop-opacity:0.26" />
    </linearGradient>
    
  <filter id="shadow-121">
    <feDropShadow dx="0" dy="2" stdDeviation="3" flood-opacity="0.8"/>
  </filter>
  </defs>
  <rect width="400" height="550" fill="url(#bg-gradient-0.565512582892552)" />
  <g opacity="0.3"><rect x="258.8" y="319.5" width="28.8" height="28.8" fill="none" stroke="#ef4444" stroke-width="1.3" opacity="0.12" />
    <rect x="272.2" y="450.4" width="60.5" height="60.5" fill="none" stroke="#ef4444" stroke-width="2.6" opacity="0.16" />
    <circle cx="57.4" cy="197.6" r="14.4" fill="none" stroke="#22c55e" stroke-width="1.9" opacity="0.18" />
    <circle cx="262.3" cy="115.4" r="10.4" fill="none" stroke="#ef4444" stroke-width="1.0" opacity="0.16" />
    <circle cx="191.1" cy="130.2" r="32.4" fill="none" stroke="#fbbf24" stroke-width="2.1" opacity="0.19" /></g>
  <rect x="-10.1" y="58.4" width="85.7" height="85.7" fill="#ef4444" opacity="0.34" />
    <circle cx="263.6" cy="71.4" r="47.0" fill="#fbbf24" opacity="0.29" />
    <rect x="123.6" y="366.2" width="35.6" height="35.6" fill="#22c55e" opacity="0.16" />
    <polygon points="209.5,528.2 228.3,565.7 190.8,565.7" fill="#22c55e" opacity="0.29" />
    <polygon points="393.3,284.3 414.6,305.6 393.3,326.9 371.9,305.6" fill="#22c55e" opacity="0.11" />
  
  <!-- Text background banner -->
  <defs>
    <linearGradient id="text-bg-15" x1="0%" y1="0%" x2="100%" y2="0%">
      <stop offset="0%" style="stop-color:#000000;stop-opacity:0.7" />
      <stop offset="50%" style="stop-color:#ef4444;stop-opacity:0.4" />
      <stop offset="100%" style="stop-color:#000000;stop-opacity:0.7" />
    </linearGradient>
  </defs>
  <rect x="0" y="494" width="400" height="56" fill="url(#text-bg-15)" />

  <!-- Text shadow -->
  <text x="200" y="522" font-family="system-ui, -apple-system, sans-serif" font-size="24" font-weight="bold" text-anchor="middle" fill="#000000" opacity="0.8">Halloween Harry</text>

  <!-- Main text -->
  <text x="200" y="520" font-family="system-ui, -apple-system, sans-serif" font-size="24" font-weight="bold" text-anchor="middle" fill="#ffffff">Halloween Harry</text>
  
  <!-- Rarity border -->
  <rect x="2" y="2" width="396" height="546"
        fill="none" stroke="#9ca3af" stroke-width="4" rx="8" ry="8" />
</svg>