<?xml version="1.0" encoding="UTF-8"?>
<svg xmlns="http://www.w3.org/2000/svg" viewBox="0 0 400 550" width="400" height="550">
  <defs>
    <linearGradient id="bg-gradient-122" x1="0%" y1="0%" x2="100%" y2="100%">
      <stop offset="0%" style="stop-color:#ef4444;stop-opacity:0.26" />
      <stop offset="50%" style="stop-color:#22c55e;stop-opacity:0.4" />
      <stop offset="100%" style="stop-color:#ef4444;stop-opacity:0.26" />
    </linearGradient>
    
  <filter id="shadow-122">
    <feDropShadow dx="0" dy="2" stdDeviation="3" flood-opacity="0.8"/>
  </filter>
  </defs>
  <rect width="400" height="550" fill="url(#bg-gradient-0.31180324289016426)" />
  <g opacity="0.3"><circle cx="285.2" cy="378.0" r="25.2" fill="none" stroke="#fbbf24" stroke-width="2.3" opacity="0.17" />
    <circle cx="225.8" cy="71.6" r="25.5" fill="none" stroke="#fbbf24" stroke-width="1.6" opacity="0.25" />
    <circle cx="132.6" cy="121.0" r="31.8" fill="none" stroke="#fbbf24" stroke-width="1.5" opacity="0.30" />
    <rect x="227.5" y="192.9" width="22.4" height="22.4" fill="none" stroke="#fbbf24" stroke-width="1.4" opacity="0.28" />
    <circle cx="383.1" cy="435.7" r="12.5" fill="none" stroke="#22c55e" stroke-width="2.6" opacity="0.13" />
    <rect x="85.2" y="170.3" width="24.7" height="24.7" fill="none" stroke="#22c55e" stroke-width="2.5" opacity="0.17" />
    <rect x="57.3" y="496.1" width="39.9" height="39.9" fill="none" stroke="#ef4444" stroke-width="1.1" opacity="0.16" /></g>
  <circle cx="194.7" cy="16.1" r="38.0" fill="#22c55e" opacity="0.31" />
    <polygon points="140.4,447.0 172.5,511.1 108.4,511.1" fill="#ef4444" opacity="0.37" />
    <polygon points="356.8,61.5 372.6,93.0 341.1,93.0" fill="#fbbf24" opacity="0.30" />
    <polygon points="67.7,149.6 105.7,225.7 29.6,225.7" fill="#ef4444" opacity="0.27" />
    <circle cx="215.2" cy="140.2" r="44.2" fill="#fbbf24" opacity="0.18" />
    <polygon points="363.4,149.7 392.4,207.8 334.4,207.8" fill="#ef4444" opacity="0.40" />
    <rect x="42.9" y="239.8" width="45.4" height="45.4" fill="#fbbf24" opacity="0.15" />
    <polygon points="81.3,36.8 98.3,70.8 64.2,70.8" fill="#22c55e" opacity="0.35" />
  
  <!-- Text background banner -->
  <defs>
    <linearGradient id="text-bg-16" x1="0%" y1="0%" x2="100%" y2="0%">
      <stop offset="0%" style="stop-color:#000000;stop-opacity:0.7" />
      <stop offset="50%" style="stop-color:#ef4444;stop-opacity:0.4" />
      <stop offset="100%" style="stop-color:#000000;stop-opacity:0.7" />
    </linearGradient>
  </defs>
  <rect x="0" y="494" width="400" height="56" fill="url(#text-bg-16)" />

  <!-- Text shadow -->
  <text x="200" y="522" font-family="system-ui, -apple-system, sans-serif" font-size="24" font-weight="bold" text-anchor="middle" fill="#000000" opacity="0.8">Thanksgiving Ted</text>

  <!-- Main text -->
  <text x="200" y="520" font-family="system-ui, -apple-system, sans-serif" font-size="24" font-weight="bold" text-anchor="middle" fill="#ffffff">Thanksgiving Ted</text>
  
  <!-- Rarity border -->
  <rect x="3" y="3" width="394" height="544"
        fill="none" stroke="#3b82f6" stroke-width="6" rx="8" ry="8" />
</svg>