<?xml version="1.0" encoding="UTF-8"?>
<svg xmlns="http://www.w3.org/2000/svg" viewBox="0 0 400 550" width="400" height="550">
  <defs>
    <linearGradient id="bg-gradient-123" x1="0%" y1="0%" x2="100%" y2="100%">
      <stop offset="0%" style="stop-color:#ef4444;stop-opacity:0.26" />
      <stop offset="50%" style="stop-color:#22c55e;stop-opacity:0.4" />
      <stop offset="100%" style="stop-color:#ef4444;stop-opacity:0.26" />
    </linearGradient>
    
  <filter id="shadow-123">
    <feDropShadow dx="0" dy="2" stdDeviation="3" flood-opacity="0.8"/>
  </filter>
  </defs>
  <rect width="400" height="550" fill="url(#bg-gradient-0.40976026142016053)" />
  <g opacity="0.3"><circle cx="2.2" cy="4.5" r="6" fill="#fbbf24" />
    <circle cx="8.4" cy="34.7" r="6" fill="#ef4444" />
    <circle cx="1.9" cy="100.4" r="6" fill="#fbbf24" />
    <circle cx="3.2" cy="150.5" r="6" fill="#fbbf24" />
    <circle cx="1.2" cy="184.9" r="6" fill="#ef4444" />
    <circle cx="9.8" cy="205.5" r="6" fill="#22c55e" />
    <circle cx="7.6" cy="232.6" r="6" fill="#fbbf24" />
    <circle cx="6.0" cy="253.8" r="6" fill="#22c55e" />
    <circle cx="7.2" cy="283.5" r="6" fill="#ef4444" />
    <circle cx="6.4" cy="305.9" r="6" fill="#22c55e" />
    <circle cx="6.9" cy="333.6" r="6" fill="#fbbf24" />
    <circle cx="3.5" cy="379.6" r="6" fill="#fbbf24" />
    <circle cx="6.6" cy="406.8" r="6" fill="#ef4444" />
    <circle cx="0.0" cy="434.1" r="6" fill="#22c55e" />
    <circle cx="7.2" cy="457.7" r="6" fill="#22c55e" />
    <circle cx="0.9" cy="479.9" r="6" fill="#22c55e" />
    <circle cx="6.2" cy="505.7" r="6" fill="#fbbf24" />
    <circle cx="0.5" cy="531.8" r="6" fill="#fbbf24" />
    <circle cx="33.9" cy="1.2" r="6" fill="#22c55e" />
    <circle cx="26.8" cy="27.2" r="6" fill="#ef4444" />
    <circle cx="34.4" cy="54.9" r="6" fill="#ef4444" />
    <circle cx="26.5" cy="107.4" r="6" fill="#22c55e" />
    <circle cx="27.6" cy="134.5" r="6" fill="#ef4444" />
    <circle cx="25.5" cy="151.5" r="6" fill="#fbbf24" />
    <circle cx="26.0" cy="176.0" r="6" fill="#ef4444" />
    <circle cx="30.4" cy="208.0" r="6" fill="#ef4444" />
    <circle cx="26.3" cy="234.3" r="6" fill="#fbbf24" />
    <circle cx="29.3" cy="302.7" r="6" fill="#fbbf24" />
    <circle cx="32.6" cy="332.0" r="6" fill="#fbbf24" />
    <circle cx="31.7" cy="358.2" r="6" fill="#ef4444" />
    <circle cx="31.2" cy="381.3" r="6" fill="#22c55e" />
    <circle cx="31.4" cy="425.2" r="6" fill="#fbbf24" />
    <circle cx="34.4" cy="459.9" r="6" fill="#fbbf24" />
    <circle cx="25.2" cy="500.8" r="6" fill="#ef4444" />
    <circle cx="27.9" cy="532.4" r="6" fill="#22c55e" />
    <circle cx="59.6" cy="1.8" r="6" fill="#ef4444" />
    <circle cx="55.2" cy="33.7" r="6" fill="#fbbf24" />
    <circle cx="53.0" cy="58.2" r="6" fill="#22c55e" />
    <circle cx="59.2" cy="101.4" r="6" fill="#fbbf24" />
    <circle cx="51.6" cy="179.8" r="6" fill="#fbbf24" />
    <circle cx="57.9" cy="202.0" r="6" fill="#22c55e" />
    <circle cx="50.4" cy="251.3" r="6" fill="#ef4444" />
    <circle cx="57.2" cy="301.4" r="6" fill="#fbbf24" />
    <circle cx="57.4" cy="329.9" r="6" fill="#fbbf24" />
    <circle cx="58.1" cy="359.1" r="6" fill="#ef4444" />
    <circle cx="51.2" cy="384.6" r="6" fill="#22c55e" />
    <circle cx="54.6" cy="408.4" r="6" fill="#fbbf24" />
    <circle cx="50.5" cy="434.6" r="6" fill="#22c55e" />
    <circle cx="53.1" cy="456.6" r="6" fill="#fbbf24" />
    <circle cx="59.3" cy="478.6" r="6" fill="#22c55e" />
    <circle cx="59.3" cy="503.9" r="6" fill="#22c55e" />
    <circle cx="59.8" cy="529.0" r="6" fill="#fbbf24" />
    <circle cx="83.0" cy="1.2" r="6" fill="#fbbf24" />
    <circle cx="83.5" cy="30.3" r="6" fill="#22c55e" />
    <circle cx="85.0" cy="55.7" r="6" fill="#22c55e" />
    <circle cx="83.6" cy="76.0" r="6" fill="#ef4444" />
    <circle cx="79.7" cy="126.1" r="6" fill="#22c55e" />
    <circle cx="84.8" cy="159.1" r="6" fill="#fbbf24" />
    <circle cx="78.7" cy="182.7" r="6" fill="#ef4444" />
    <circle cx="78.7" cy="209.9" r="6" fill="#fbbf24" />
    <circle cx="84.0" cy="234.2" r="6" fill="#fbbf24" />
    <circle cx="82.6" cy="253.0" r="6" fill="#ef4444" />
    <circle cx="77.4" cy="284.5" r="6" fill="#22c55e" />
    <circle cx="83.3" cy="300.2" r="6" fill="#22c55e" />
    <circle cx="82.0" cy="327.0" r="6" fill="#ef4444" />
    <circle cx="79.5" cy="377.3" r="6" fill="#22c55e" />
    <circle cx="83.6" cy="404.2" r="6" fill="#22c55e" />
    <circle cx="76.1" cy="459.6" r="6" fill="#22c55e" />
    <circle cx="80.3" cy="480.7" r="6" fill="#22c55e" />
    <circle cx="81.3" cy="533.4" r="6" fill="#22c55e" />
    <circle cx="102.3" cy="7.5" r="6" fill="#22c55e" />
    <circle cx="100.4" cy="53.0" r="6" fill="#fbbf24" />
    <circle cx="102.7" cy="107.1" r="6" fill="#22c55e" />
    <circle cx="108.0" cy="134.3" r="6" fill="#ef4444" />
    <circle cx="107.1" cy="181.2" r="6" fill="#22c55e" />
    <circle cx="107.7" cy="206.6" r="6" fill="#fbbf24" />
    <circle cx="104.4" cy="279.8" r="6" fill="#ef4444" />
    <circle cx="104.5" cy="302.0" r="6" fill="#ef4444" />
    <circle cx="108.9" cy="333.8" r="6" fill="#22c55e" />
    <circle cx="101.4" cy="356.6" r="6" fill="#ef4444" />
    <circle cx="106.9" cy="378.7" r="6" fill="#fbbf24" />
    <circle cx="100.8" cy="402.1" r="6" fill="#ef4444" />
    <circle cx="104.0" cy="428.0" r="6" fill="#fbbf24" />
    <circle cx="103.6" cy="457.7" r="6" fill="#22c55e" />
    <circle cx="107.6" cy="531.1" r="6" fill="#ef4444" />
    <circle cx="126.2" cy="5.8" r="6" fill="#22c55e" />
    <circle cx="133.8" cy="31.2" r="6" fill="#ef4444" />
    <circle cx="132.3" cy="55.4" r="6" fill="#ef4444" />
    <circle cx="134.9" cy="80.5" r="6" fill="#ef4444" />
    <circle cx="128.2" cy="100.0" r="6" fill="#ef4444" />
    <circle cx="127.5" cy="159.7" r="6" fill="#ef4444" />
    <circle cx="129.4" cy="181.6" r="6" fill="#ef4444" />
    <circle cx="129.2" cy="208.9" r="6" fill="#22c55e" />
    <circle cx="131.6" cy="227.3" r="6" fill="#ef4444" />
    <circle cx="126.2" cy="257.4" r="6" fill="#22c55e" />
    <circle cx="128.9" cy="280.7" r="6" fill="#22c55e" />
    <circle cx="127.7" cy="304.4" r="6" fill="#22c55e" />
    <circle cx="129.4" cy="328.7" r="6" fill="#fbbf24" />
    <circle cx="127.1" cy="356.7" r="6" fill="#ef4444" />
    <circle cx="125.4" cy="378.9" r="6" fill="#ef4444" />
    <circle cx="131.7" cy="409.6" r="6" fill="#ef4444" />
    <circle cx="133.1" cy="428.0" r="6" fill="#fbbf24" />
    <circle cx="125.3" cy="456.2" r="6" fill="#22c55e" />
    <circle cx="134.2" cy="484.1" r="6" fill="#22c55e" />
    <circle cx="129.1" cy="504.1" r="6" fill="#ef4444" />
    <circle cx="131.3" cy="529.2" r="6" fill="#fbbf24" />
    <circle cx="155.9" cy="5.9" r="6" fill="#fbbf24" />
    <circle cx="152.5" cy="56.9" r="6" fill="#fbbf24" />
    <circle cx="159.1" cy="104.8" r="6" fill="#fbbf24" />
    <circle cx="159.8" cy="152.0" r="6" fill="#ef4444" />
    <circle cx="153.3" cy="207.2" r="6" fill="#22c55e" />
    <circle cx="154.9" cy="229.1" r="6" fill="#ef4444" />
    <circle cx="153.4" cy="251.9" r="6" fill="#22c55e" />
    <circle cx="155.5" cy="278.5" r="6" fill="#ef4444" />
    <circle cx="152.8" cy="304.7" r="6" fill="#22c55e" />
    <circle cx="158.9" cy="334.0" r="6" fill="#ef4444" />
    <circle cx="155.7" cy="351.6" r="6" fill="#ef4444" />
    <circle cx="152.0" cy="383.4" r="6" fill="#fbbf24" />
    <circle cx="153.9" cy="482.6" r="6" fill="#ef4444" />
    <circle cx="151.5" cy="501.1" r="6" fill="#fbbf24" />
    <circle cx="153.9" cy="530.7" r="6" fill="#22c55e" />
    <circle cx="177.0" cy="52.8" r="6" fill="#fbbf24" />
    <circle cx="181.9" cy="79.9" r="6" fill="#ef4444" />
    <circle cx="183.5" cy="134.4" r="6" fill="#fbbf24" />
    <circle cx="178.0" cy="153.7" r="6" fill="#ef4444" />
    <circle cx="176.7" cy="180.6" r="6" fill="#22c55e" />
    <circle cx="178.6" cy="202.5" r="6" fill="#ef4444" />
    <circle cx="177.2" cy="233.4" r="6" fill="#fbbf24" />
    <circle cx="180.7" cy="259.7" r="6" fill="#ef4444" />
    <circle cx="183.0" cy="308.6" r="6" fill="#ef4444" />
    <circle cx="182.1" cy="375.7" r="6" fill="#22c55e" />
    <circle cx="180.8" cy="426.1" r="6" fill="#22c55e" />
    <circle cx="175.9" cy="504.5" r="6" fill="#22c55e" />
    <circle cx="175.3" cy="531.7" r="6" fill="#22c55e" />
    <circle cx="203.0" cy="31.8" r="6" fill="#22c55e" />
    <circle cx="204.5" cy="80.1" r="6" fill="#fbbf24" />
    <circle cx="205.1" cy="101.4" r="6" fill="#fbbf24" />
    <circle cx="209.9" cy="175.5" r="6" fill="#ef4444" />
    <circle cx="203.0" cy="200.9" r="6" fill="#22c55e" />
    <circle cx="205.5" cy="227.7" r="6" fill="#ef4444" />
    <circle cx="201.7" cy="332.4" r="6" fill="#22c55e" />
    <circle cx="209.2" cy="352.8" r="6" fill="#fbbf24" />
    <circle cx="201.3" cy="380.1" r="6" fill="#fbbf24" />
    <circle cx="207.1" cy="404.2" r="6" fill="#22c55e" />
    <circle cx="206.7" cy="456.7" r="6" fill="#22c55e" />
    <circle cx="202.7" cy="481.4" r="6" fill="#22c55e" />
    <circle cx="229.3" cy="29.4" r="6" fill="#ef4444" />
    <circle cx="230.6" cy="50.9" r="6" fill="#22c55e" />
    <circle cx="234.3" cy="84.2" r="6" fill="#ef4444" />
    <circle cx="233.2" cy="135.0" r="6" fill="#22c55e" />
    <circle cx="230.5" cy="181.5" r="6" fill="#ef4444" />
    <circle cx="233.8" cy="202.8" r="6" fill="#fbbf24" />
    <circle cx="228.4" cy="227.8" r="6" fill="#22c55e" />
    <circle cx="232.0" cy="252.7" r="6" fill="#ef4444" />
    <circle cx="232.2" cy="276.4" r="6" fill="#ef4444" />
    <circle cx="231.4" cy="301.0" r="6" fill="#ef4444" />
    <circle cx="225.8" cy="329.7" r="6" fill="#ef4444" />
    <circle cx="232.2" cy="356.2" r="6" fill="#22c55e" />
    <circle cx="232.8" cy="383.0" r="6" fill="#fbbf24" />
    <circle cx="233.0" cy="404.3" r="6" fill="#ef4444" />
    <circle cx="226.5" cy="459.0" r="6" fill="#ef4444" />
    <circle cx="227.4" cy="500.5" r="6" fill="#22c55e" />
    <circle cx="232.6" cy="531.7" r="6" fill="#fbbf24" />
    <circle cx="252.8" cy="0.5" r="6" fill="#ef4444" />
    <circle cx="252.2" cy="27.0" r="6" fill="#fbbf24" />
    <circle cx="259.6" cy="55.0" r="6" fill="#ef4444" />
    <circle cx="255.9" cy="75.7" r="6" fill="#22c55e" />
    <circle cx="254.2" cy="108.7" r="6" fill="#22c55e" />
    <circle cx="256.4" cy="132.4" r="6" fill="#fbbf24" />
    <circle cx="254.8" cy="183.3" r="6" fill="#22c55e" />
    <circle cx="251.8" cy="209.0" r="6" fill="#fbbf24" />
    <circle cx="256.5" cy="257.3" r="6" fill="#fbbf24" />
    <circle cx="254.5" cy="283.0" r="6" fill="#22c55e" />
    <circle cx="257.3" cy="326.3" r="6" fill="#22c55e" />
    <circle cx="254.5" cy="352.5" r="6" fill="#fbbf24" />
    <circle cx="258.8" cy="381.0" r="6" fill="#ef4444" />
    <circle cx="256.1" cy="409.5" r="6" fill="#22c55e" />
    <circle cx="250.3" cy="434.4" r="6" fill="#22c55e" />
    <circle cx="255.7" cy="482.8" r="6" fill="#22c55e" />
    <circle cx="252.0" cy="508.0" r="6" fill="#fbbf24" />
    <circle cx="282.3" cy="31.2" r="6" fill="#ef4444" />
    <circle cx="284.5" cy="78.5" r="6" fill="#fbbf24" />
    <circle cx="281.6" cy="105.5" r="6" fill="#22c55e" />
    <circle cx="278.7" cy="154.0" r="6" fill="#fbbf24" />
    <circle cx="276.9" cy="205.6" r="6" fill="#fbbf24" />
    <circle cx="283.4" cy="255.4" r="6" fill="#ef4444" />
    <circle cx="275.2" cy="282.4" r="6" fill="#ef4444" />
    <circle cx="279.6" cy="301.5" r="6" fill="#22c55e" />
    <circle cx="280.3" cy="330.9" r="6" fill="#22c55e" />
    <circle cx="275.1" cy="359.3" r="6" fill="#fbbf24" />
    <circle cx="275.8" cy="425.5" r="6" fill="#ef4444" />
    <circle cx="282.5" cy="458.0" r="6" fill="#fbbf24" />
    <circle cx="281.8" cy="475.7" r="6" fill="#22c55e" />
    <circle cx="284.4" cy="529.5" r="6" fill="#fbbf24" />
    <circle cx="303.4" cy="9.7" r="6" fill="#ef4444" />
    <circle cx="302.1" cy="29.4" r="6" fill="#fbbf24" />
    <circle cx="305.9" cy="55.6" r="6" fill="#ef4444" />
    <circle cx="307.8" cy="81.8" r="6" fill="#ef4444" />
    <circle cx="300.8" cy="105.6" r="6" fill="#ef4444" />
    <circle cx="303.5" cy="157.6" r="6" fill="#22c55e" />
    <circle cx="306.6" cy="180.7" r="6" fill="#ef4444" />
    <circle cx="306.2" cy="352.0" r="6" fill="#22c55e" />
    <circle cx="307.0" cy="407.7" r="6" fill="#fbbf24" />
    <circle cx="304.6" cy="431.9" r="6" fill="#fbbf24" />
    <circle cx="302.3" cy="453.9" r="6" fill="#ef4444" />
    <circle cx="309.9" cy="477.2" r="6" fill="#ef4444" />
    <circle cx="300.5" cy="500.8" r="6" fill="#22c55e" />
    <circle cx="327.8" cy="0.5" r="6" fill="#ef4444" />
    <circle cx="325.3" cy="84.2" r="6" fill="#22c55e" />
    <circle cx="333.4" cy="131.7" r="6" fill="#22c55e" />
    <circle cx="333.7" cy="158.7" r="6" fill="#ef4444" />
    <circle cx="328.1" cy="178.5" r="6" fill="#fbbf24" />
    <circle cx="328.7" cy="209.8" r="6" fill="#22c55e" />
    <circle cx="328.2" cy="229.1" r="6" fill="#ef4444" />
    <circle cx="326.5" cy="256.5" r="6" fill="#22c55e" />
    <circle cx="334.4" cy="281.3" r="6" fill="#22c55e" />
    <circle cx="333.1" cy="327.8" r="6" fill="#22c55e" />
    <circle cx="334.9" cy="354.4" r="6" fill="#fbbf24" />
    <circle cx="327.6" cy="376.1" r="6" fill="#fbbf24" />
    <circle cx="331.3" cy="431.6" r="6" fill="#22c55e" />
    <circle cx="331.4" cy="478.7" r="6" fill="#fbbf24" />
    <circle cx="334.0" cy="507.1" r="6" fill="#fbbf24" />
    <circle cx="330.7" cy="528.7" r="6" fill="#ef4444" />
    <circle cx="354.6" cy="4.9" r="6" fill="#fbbf24" />
    <circle cx="356.3" cy="55.2" r="6" fill="#22c55e" />
    <circle cx="355.0" cy="101.7" r="6" fill="#22c55e" />
    <circle cx="355.2" cy="159.4" r="6" fill="#fbbf24" />
    <circle cx="351.9" cy="203.1" r="6" fill="#22c55e" />
    <circle cx="355.2" cy="255.9" r="6" fill="#fbbf24" />
    <circle cx="356.4" cy="278.1" r="6" fill="#ef4444" />
    <circle cx="352.2" cy="302.4" r="6" fill="#22c55e" />
    <circle cx="355.1" cy="330.4" r="6" fill="#fbbf24" />
    <circle cx="355.1" cy="360.0" r="6" fill="#ef4444" />
    <circle cx="351.0" cy="384.8" r="6" fill="#fbbf24" />
    <circle cx="352.6" cy="405.6" r="6" fill="#ef4444" />
    <circle cx="351.0" cy="451.7" r="6" fill="#fbbf24" />
    <circle cx="357.5" cy="501.1" r="6" fill="#22c55e" />
    <circle cx="354.4" cy="529.5" r="6" fill="#22c55e" />
    <circle cx="380.5" cy="1.8" r="6" fill="#22c55e" />
    <circle cx="381.0" cy="30.7" r="6" fill="#ef4444" />
    <circle cx="383.7" cy="57.5" r="6" fill="#ef4444" />
    <circle cx="378.5" cy="105.8" r="6" fill="#22c55e" />
    <circle cx="376.9" cy="176.0" r="6" fill="#22c55e" />
    <circle cx="381.5" cy="253.7" r="6" fill="#ef4444" />
    <circle cx="384.2" cy="283.4" r="6" fill="#fbbf24" />
    <circle cx="384.5" cy="333.8" r="6" fill="#22c55e" />
    <circle cx="378.5" cy="351.4" r="6" fill="#ef4444" />
    <circle cx="384.4" cy="380.7" r="6" fill="#fbbf24" />
    <circle cx="382.0" cy="425.8" r="6" fill="#fbbf24" />
    <circle cx="384.5" cy="533.0" r="6" fill="#fbbf24" /></g>
  <circle cx="319.2" cy="69.9" r="24.0" fill="#22c55e" opacity="0.22" />
    <polygon points="366.5,-5.5 398.7,26.8 366.5,59.1 334.2,26.8" fill="#fbbf24" opacity="0.24" />
    <polygon points="205.3,186.3 237.0,249.6 173.7,249.6" fill="#fbbf24" opacity="0.12" />
    <circle cx="167.8" cy="385.4" r="34.1" fill="#ef4444" opacity="0.26" />
    <polygon points="334.0,267.6 379.4,358.3 288.7,358.3" fill="#fbbf24" opacity="0.17" />
    <rect x="140.0" y="321.8" width="28.8" height="28.8" fill="#22c55e" opacity="0.15" />
    <rect x="281.6" y="531.9" width="31.6" height="31.6" fill="#ef4444" opacity="0.20" />
    <rect x="322.4" y="375.7" width="70.0" height="70.0" fill="#ef4444" opacity="0.38" />
    <polygon points="142.2,293.1 185.0,378.7 99.5,378.7" fill="#fbbf24" opacity="0.14" />
    <circle cx="374.6" cy="107.3" r="23.0" fill="#22c55e" opacity="0.29" />
    <polygon points="65.1,10.3 84.7,49.5 45.6,49.5" fill="#fbbf24" opacity="0.19" />
  
  <!-- Text background banner -->
  <defs>
    <linearGradient id="text-bg-16" x1="0%" y1="0%" x2="100%" y2="0%">
      <stop offset="0%" style="stop-color:#000000;stop-opacity:0.7" />
      <stop offset="50%" style="stop-color:#ef4444;stop-opacity:0.4" />
      <stop offset="100%" style="stop-color:#000000;stop-opacity:0.7" />
    </linearGradient>
  </defs>
  <rect x="0" y="494" width="400" height="56" fill="url(#text-bg-16)" />

  <!-- Text shadow -->
  <text x="200" y="522" font-family="system-ui, -apple-system, sans-serif" font-size="24" font-weight="bold" text-anchor="middle" fill="#000000" opacity="0.8">Easter Egg Eddie</text>

  <!-- Main text -->
  <text x="200" y="520" font-family="system-ui, -apple-system, sans-serif" font-size="24" font-weight="bold" text-anchor="middle" fill="#ffffff">Easter Egg Eddie</text>
  
  <!-- Rarity border -->
  <rect x="4" y="4" width="392" height="542"
        fill="none" stroke="#eab308" stroke-width="8" rx="8" ry="8" />
</svg>