<?xml version="1.0" encoding="UTF-8"?>
<svg xmlns="http://www.w3.org/2000/svg" viewBox="0 0 400 550" width="400" height="550">
  <defs>
    <linearGradient id="bg-gradient-124" x1="0%" y1="0%" x2="100%" y2="100%">
      <stop offset="0%" style="stop-color:#ef4444;stop-opacity:0.26" />
      <stop offset="50%" style="stop-color:#22c55e;stop-opacity:0.4" />
      <stop offset="100%" style="stop-color:#ef4444;stop-opacity:0.26" />
    </linearGradient>
    
  <filter id="shadow-124">
    <feDropShadow dx="0" dy="2" stdDeviation="3" flood-opacity="0.8"/>
  </filter>
  </defs>
  <rect width="400" height="550" fill="url(#bg-gradient-0.48284105747006834)" />
  <g opacity="0.3"><polyline points="0,99.0 5,98.3 10,97.6 15,96.9 20,96.3 25,95.6 30,95.0 35,94.4 40,93.8 45,93.3 50,92.8 55,92.3 60,91.9 65,91.5 70,91.1 75,90.8 80,90.5 85,90.3 90,90.1 95,90.0 100,89.9 105,89.8 110,89.8 115,89.9 120,90.0 125,90.1 130,90.3 135,90.6 140,90.8 145,91.2 150,91.5 155,91.9 160,92.4 165,92.9 170,93.4 175,93.9 180,94.5 185,95.1 190,95.7 195,96.4 200,97.0 205,97.7 210,98.4 215,99.1 220,99.8 225,100.5 230,101.2 235,102.0 240,102.7 245,103.4 250,104.0 255,104.7 260,105.4 265,106.0 270,106.6 275,107.2 280,107.7 285,108.3 290,108.7 295,109.2 300,109.6 305,110.0 310,110.3 315,110.6 320,110.9 325,111.1 330,111.2 335,111.3 340,111.4 345,111.4 350,111.4 355,111.3 360,111.2 365,111.0 370,110.8 375,110.5 380,110.2 385,109.9 390,109.5 395,109.0 400,108.6" fill="none" stroke="#fbbf24" stroke-width="1.9" opacity="0.27" />
    <polyline points="0,122.0 5,122.8 10,123.7 15,124.8 20,126.0 25,127.4 30,128.8 35,130.4 40,132.1 45,133.9 50,135.7 55,137.7 60,139.7 65,141.8 70,143.9 75,146.0 80,148.2 85,150.4 90,152.6 95,154.7 100,156.9 105,159.0 110,161.1 115,163.1 120,165.0 125,166.9 130,168.7 135,170.4 140,172.0 145,173.5 150,174.8 155,176.0 160,177.1 165,178.1 170,178.9 175,179.5 180,180.0 185,180.4 190,180.6 195,180.6 200,180.5 205,180.2 210,179.7 215,179.2 220,178.4 225,177.5 230,176.5 235,175.3 240,174.0 245,172.6 250,171.0 255,169.4 260,167.6 265,165.8 270,163.9 275,161.9 280,159.8 285,157.7 290,155.6 295,153.4 300,151.3 305,149.1 310,146.9 315,144.7 320,142.6 325,140.5 330,138.5 335,136.5 340,134.6 345,132.8 350,131.1 355,129.4 360,127.9 365,126.5 370,125.3 375,124.1 380,123.2 385,122.3 390,121.6 395,121.0 400,120.6" fill="none" stroke="#fbbf24" stroke-width="1.8" opacity="0.23" />
    <polyline points="0,310.7 5,310.3 10,310.3 15,310.6 20,311.3 25,312.2 30,313.4 35,314.9 40,316.7 45,318.6 50,320.7 55,322.9 60,325.1 65,327.4 70,329.7 75,331.9 80,333.9 85,335.8 90,337.6 95,339.0 100,340.3 105,341.2 110,341.8 115,342.1 120,342.1 125,341.8 130,341.1 135,340.1 140,338.9 145,337.3 150,335.6 155,333.6 160,331.6 165,329.4 170,327.1 175,324.8 180,322.5 185,320.4 190,318.3 195,316.4 200,314.7 205,313.3 210,312.1 215,311.2 220,310.6 225,310.3 230,310.4 235,310.7 240,311.4 245,312.4 250,313.7 255,315.3 260,317.0 265,319.0 270,321.1 275,323.3 280,325.6 285,327.9 290,330.1 295,332.3 300,334.3 305,336.2 310,337.9 315,339.3 320,340.5 325,341.3 330,341.9 335,342.1 340,342.1 345,341.6 350,340.9 355,339.9 360,338.6 365,337.0 370,335.2 375,333.2 380,331.1 385,328.9 390,326.6 395,324.3 400,322.1" fill="none" stroke="#fbbf24" stroke-width="1.9" opacity="0.21" />
    <polyline points="0,136.6 5,138.5 10,140.2 15,141.8 20,143.3 25,144.6 30,145.7 35,146.6 40,147.2 45,147.6 50,147.7 55,147.5 60,147.1 65,146.5 70,145.6 75,144.5 80,143.2 85,141.7 90,140.0 95,138.3 100,136.4 105,134.6 110,132.7 115,130.9 120,129.1 125,127.4 130,125.8 135,124.5 140,123.3 145,122.3 150,121.6 155,121.1 160,120.8 165,120.8 170,121.1 175,121.7 180,122.5 185,123.5 190,124.7 195,126.1 200,127.7 205,129.4 210,131.2 215,133.1 220,134.9 225,136.8 230,138.6 235,140.3 240,142.0 245,143.4 250,144.7 255,145.8 260,146.6 265,147.2 270,147.6 275,147.7 280,147.5 285,147.1 290,146.4 295,145.5 300,144.4 305,143.0 310,141.5 315,139.9 320,138.1 325,136.3 330,134.4 335,132.5 340,130.7 345,128.9 350,127.3 355,125.7 360,124.4 365,123.2 370,122.2 375,121.5 380,121.0 385,120.8 390,120.9 395,121.2 400,121.7" fill="none" stroke="#fbbf24" stroke-width="1.7" opacity="0.23" />
    <polyline points="0,176.2 5,178.1 10,180.0 15,181.8 20,183.5 25,185.1 30,186.6 35,188.1 40,189.4 45,190.6 50,191.7 55,192.7 60,193.5 65,194.2 70,194.8 75,195.2 80,195.5 85,195.7 90,195.7 95,195.5 100,195.3 105,194.8 110,194.3 115,193.5 120,192.7 125,191.7 130,190.6 135,189.4 140,188.1 145,186.7 150,185.1 155,183.5 160,181.8 165,180.0 170,178.2 175,176.3 180,174.3 185,172.4 190,170.4 195,168.3 200,166.3 205,164.3 210,162.3 215,160.3 220,158.4 225,156.5 230,154.7 235,152.9 240,151.3 245,149.7 250,148.1 255,146.7 260,145.4 265,144.2 270,143.2 275,142.2 280,141.4 285,140.8 290,140.2 295,139.8 300,139.6 305,139.5 310,139.5 315,139.7 320,140.0 325,140.5 330,141.1 335,141.8 340,142.7 345,143.7 350,144.8 355,146.1 360,147.4 365,148.9 370,150.4 375,152.1 380,153.8 385,155.6 390,157.5 395,159.4 400,161.3" fill="none" stroke="#ef4444" stroke-width="2.9" opacity="0.26" />
    <polyline points="0,152.2 5,151.6 10,150.6 15,149.3 20,147.5 25,145.4 30,143.1 35,140.4 40,137.6 45,134.6 50,131.6 55,128.5 60,125.4 65,122.5 70,119.6 75,117.0 80,114.6 85,112.5 90,110.8 95,109.4 100,108.4 105,107.8 110,107.7 115,107.9 120,108.6 125,109.7 130,111.2 135,113.1 140,115.2 145,117.7 150,120.4 155,123.3 160,126.3 165,129.3 170,132.4 175,135.5 180,138.4 185,141.2 190,143.7 195,146.0 200,148.0 205,149.7 210,150.9 215,151.8 220,152.3 225,152.3 230,151.9 235,151.1 240,149.8 245,148.2 250,146.3 255,144.0 260,141.5 265,138.7 270,135.8 275,132.8 280,129.7 285,126.6 290,123.6 295,120.7 300,118.0 305,115.5 310,113.3 315,111.4 320,109.9 325,108.7 330,108.0 335,107.7 340,107.8 345,108.3 350,109.3 355,110.6 360,112.3 365,114.4 370,116.7 375,119.3 380,122.1 385,125.1 390,128.2 395,131.3 400,134.3" fill="none" stroke="#22c55e" stroke-width="2.5" opacity="0.15" />
    <polyline points="0,403.9 5,403.4 10,402.5 15,401.4 20,400.0 25,398.4 30,396.5 35,394.4 40,392.1 45,389.7 50,387.2 55,384.6 60,381.9 65,379.1 70,376.4 75,373.7 80,371.1 85,368.6 90,366.2 95,364.0 100,362.0 105,360.1 110,358.6 115,357.2 120,356.2 125,355.4 130,354.9 135,354.7 140,354.8 145,355.2 150,355.9 155,356.9 160,358.2 165,359.7 170,361.5 175,363.5 180,365.6 185,368.0 190,370.5 195,373.1 200,375.7 205,378.5 210,381.2 215,383.9 220,386.5 225,389.1 230,391.6 235,393.9 240,396.0 245,397.9 250,399.6 255,401.1 260,402.3 265,403.2 270,403.8 275,404.1 280,404.2 285,403.9 290,403.3 295,402.5 300,401.3 305,399.9 310,398.3 315,396.4 320,394.3 325,392.0 330,389.6 335,387.1 340,384.4 345,381.7 350,379.0 355,376.3 360,373.6 365,371.0 370,368.5 375,366.1 380,363.9 385,361.9 390,360.1 395,358.5 400,357.2" fill="none" stroke="#ef4444" stroke-width="1.5" opacity="0.15" />
    <polyline points="0,394.4 5,393.0 10,391.8 15,390.7 20,389.8 25,389.1 30,388.5 35,388.2 40,388.0 45,388.0 50,388.2 55,388.5 60,389.1 65,389.8 70,390.7 75,391.7 80,392.9 85,394.3 90,395.8 95,397.4 100,399.2 105,401.0 110,403.0 115,405.0 120,407.1 125,409.2 130,411.4 135,413.6 140,415.9 145,418.1 150,420.2 155,422.4 160,424.5 165,426.5 170,428.4 175,430.2 180,432.0 185,433.6 190,435.1 195,436.4 200,437.6 205,438.6 210,439.4 215,440.1 220,440.6 225,441.0 230,441.1 235,441.0 240,440.8 245,440.4 250,439.8 255,439.1 260,438.1 265,437.0 270,435.8 275,434.4 280,432.8 285,431.2 290,429.4 295,427.5 300,425.5 305,423.5 310,421.4 315,419.2 320,417.0 325,414.8 330,412.6 335,410.4 340,408.2 345,406.1 350,404.0 355,402.0 360,400.1 365,398.3 370,396.6 375,395.1 380,393.6 385,392.3 390,391.2 395,390.2 400,389.4" fill="none" stroke="#22c55e" stroke-width="2.3" opacity="0.24" />
    <polyline points="0,-3.2 5,-1.2 10,0.8 15,2.9 20,5.1 25,7.3 30,9.6 35,12.0 40,14.4 45,16.7 50,19.1 55,21.5 60,23.9 65,26.2 70,28.5 75,30.7 80,32.8 85,34.9 90,36.9 95,38.8 100,40.6 105,42.3 110,43.9 115,45.3 120,46.6 125,47.7 130,48.7 135,49.5 140,50.2 145,50.7 150,51.0 155,51.2 160,51.2 165,51.1 170,50.7 175,50.3 180,49.6 185,48.8 190,47.8 195,46.7 200,45.4 205,44.0 210,42.5 215,40.8 220,39.0 225,37.1 230,35.1 235,33.1 240,30.9 245,28.7 250,26.4 255,24.1 260,21.7 265,19.4 270,17.0 275,14.6 280,12.2 285,9.9 290,7.6 295,5.3 300,3.1 305,1.0 310,-1.0 315,-3.0 320,-4.8 325,-6.6 330,-8.2 335,-9.7 340,-11.0 345,-12.2 350,-13.3 355,-14.2 360,-15.0 365,-15.6 370,-16.0 375,-16.2 380,-16.3 385,-16.3 390,-16.0 395,-15.6 400,-15.0" fill="none" stroke="#22c55e" stroke-width="1.5" opacity="0.14" />
    <polyline points="0,427.3 5,426.6 10,425.9 15,425.0 20,424.1 25,423.1 30,422.0 35,420.9 40,419.7 45,418.4 50,417.1 55,415.8 60,414.4 65,413.0 70,411.5 75,410.1 80,408.7 85,407.2 90,405.8 95,404.4 100,403.0 105,401.7 110,400.4 115,399.2 120,398.0 125,396.9 130,395.8 135,394.8 140,393.9 145,393.1 150,392.4 155,391.8 160,391.3 165,390.8 170,390.5 175,390.3 180,390.2 185,390.2 190,390.3 195,390.5 200,390.8 205,391.2 210,391.7 215,392.4 220,393.1 225,393.9 230,394.8 235,395.7 240,396.8 245,397.9 250,399.1 255,400.3 260,401.6 265,402.9 270,404.3 275,405.7 280,407.1 285,408.6 290,410.0 295,411.4 300,412.9 305,414.3 310,415.7 315,417.0 320,418.3 325,419.6 330,420.8 335,421.9 340,423.0 345,424.0 350,425.0 355,425.8 360,426.6 365,427.2 370,427.8 375,428.2 380,428.6 385,428.9 390,429.0 395,429.1 400,429.0" fill="none" stroke="#ef4444" stroke-width="2.4" opacity="0.23" /></g>
  <rect x="346.1" y="-38.3" width="91.3" height="91.3" fill="#ef4444" opacity="0.21" />
    <circle cx="32.5" cy="214.9" r="38.4" fill="#22c55e" opacity="0.18" />
    <rect x="51.1" y="4.9" width="47.1" height="47.1" fill="#ef4444" opacity="0.17" />
    <polygon points="177.9,510.5 206.0,538.6 177.9,566.7 149.8,538.6" fill="#22c55e" opacity="0.20" />
    <polygon points="151.6,331.4 172.8,352.7 151.6,373.9 130.3,352.7" fill="#22c55e" opacity="0.17" />
    <polygon points="396.2,177.3 410.2,191.3 396.2,205.3 382.2,191.3" fill="#fbbf24" opacity="0.15" />
    <polygon points="323.6,469.4 338.0,483.7 323.6,498.1 309.2,483.7" fill="#fbbf24" opacity="0.11" />
    <polygon points="94.2,218.2 116.4,262.6 72.0,262.6" fill="#fbbf24" opacity="0.19" />
    <polygon points="372.3,197.9 413.8,239.4 372.3,280.9 330.8,239.4" fill="#22c55e" opacity="0.24" />
    <rect x="107.8" y="289.6" width="96.4" height="96.4" fill="#ef4444" opacity="0.16" />
    <rect x="256.3" y="19.2" width="66.6" height="66.6" fill="#22c55e" opacity="0.26" />
    <rect x="74.8" y="46.7" width="28.1" height="28.1" fill="#22c55e" opacity="0.12" />
    <polygon points="115.8,-37.2 158.9,5.9 115.8,49.0 72.7,5.9" fill="#22c55e" opacity="0.25" />
    <polygon points="49.6,443.4 76.7,497.6 22.5,497.6" fill="#fbbf24" opacity="0.18" />
  
  <!-- Text background banner -->
  <defs>
    <linearGradient id="text-bg-13" x1="0%" y1="0%" x2="100%" y2="0%">
      <stop offset="0%" style="stop-color:#000000;stop-opacity:0.7" />
      <stop offset="50%" style="stop-color:#ef4444;stop-opacity:0.4" />
      <stop offset="100%" style="stop-color:#000000;stop-opacity:0.7" />
    </linearGradient>
  </defs>
  <rect x="0" y="494" width="400" height="56" fill="url(#text-bg-13)" />

  <!-- Text shadow -->
  <text x="200" y="522" font-family="system-ui, -apple-system, sans-serif" font-size="24" font-weight="bold" text-anchor="middle" fill="#000000" opacity="0.8">Valentine Vic</text>

  <!-- Main text -->
  <text x="200" y="520" font-family="system-ui, -apple-system, sans-serif" font-size="24" font-weight="bold" text-anchor="middle" fill="#ffffff">Valentine Vic</text>
  
  <!-- Rarity border -->
  <rect x="5" y="5" width="390" height="540"
        fill="none" stroke="#a855f7" stroke-width="10" rx="8" ry="8" />
</svg>