<?xml version="1.0" encoding="UTF-8"?>
<svg xmlns="http://www.w3.org/2000/svg" viewBox="0 0 400 550" width="400" height="550">
  <defs>
    <linearGradient id="bg-gradient-125" x1="0%" y1="0%" x2="100%" y2="100%">
      <stop offset="0%" style="stop-color:#ef4444;stop-opacity:0.26" />
      <stop offset="50%" style="stop-color:#22c55e;stop-opacity:0.4" />
      <stop offset="100%" style="stop-color:#ef4444;stop-opacity:0.26" />
    </linearGradient>
    
  <filter id="shadow-125">
    <feDropShadow dx="0" dy="2" stdDeviation="3" flood-opacity="0.8"/>
  </filter>
  </defs>
  <rect width="400" height="550" fill="url(#bg-gradient-0.6336973563302308)" />
  <g opacity="0.3"><circle cx="67.6" cy="412.2" r="39.5" fill="none" stroke="#ef4444" stroke-width="2.5" opacity="0.14" />
    <rect x="238.6" y="274.7" width="73.6" height="73.6" fill="none" stroke="#fbbf24" stroke-width="2.9" opacity="0.12" />
    <rect x="183.6" y="152.5" width="32.3" height="32.3" fill="none" stroke="#ef4444" stroke-width="2.2" opacity="0.24" />
    <rect x="147.6" y="134.7" width="23.8" height="23.8" fill="none" stroke="#fbbf24" stroke-width="2.4" opacity="0.19" />
    <rect x="44.2" y="474.2" width="70.6" height="70.6" fill="none" stroke="#fbbf24" stroke-width="2.8" opacity="0.19" />
    <circle cx="113.6" cy="217.3" r="25.4" fill="none" stroke="#ef4444" stroke-width="2.9" opacity="0.21" />
    <rect x="-10.6" y="492.3" width="49.0" height="49.0" fill="none" stroke="#fbbf24" stroke-width="2.2" opacity="0.21" />
    <circle cx="287.5" cy="468.8" r="18.0" fill="none" stroke="#fbbf24" stroke-width="1.9" opacity="0.23" />
    <circle cx="95.5" cy="429.6" r="15.5" fill="none" stroke="#fbbf24" stroke-width="2.5" opacity="0.30" />
    <rect x="174.6" y="476.5" width="44.7" height="44.7" fill="none" stroke="#22c55e" stroke-width="2.6" opacity="0.30" />
    <rect x="50.8" y="129.2" width="66.4" height="66.4" fill="none" stroke="#ef4444" stroke-width="2.9" opacity="0.20" />
    <circle cx="261.2" cy="80.7" r="28.1" fill="none" stroke="#22c55e" stroke-width="1.7" opacity="0.25" />
    <circle cx="337.7" cy="461.8" r="23.4" fill="none" stroke="#ef4444" stroke-width="3.0" opacity="0.23" /></g>
  <rect x="287.6" y="99.1" width="25.4" height="25.4" fill="#ef4444" opacity="0.20" />
    <rect x="133.4" y="259.0" width="39.3" height="39.3" fill="#ef4444" opacity="0.32" />
    <polygon points="65.0,466.0 111.9,513.0 65.0,559.9 18.0,513.0" fill="#22c55e" opacity="0.11" />
    <rect x="131.2" y="169.9" width="82.3" height="82.3" fill="#22c55e" opacity="0.17" />
    <polygon points="323.2,458.1 336.8,471.8 323.2,485.4 309.5,471.8" fill="#ef4444" opacity="0.38" />
    <polygon points="243.4,219.5 261.2,237.2 243.4,254.9 225.7,237.2" fill="#22c55e" opacity="0.40" />
    <polygon points="297.3,455.4 323.4,507.6 271.2,507.6" fill="#22c55e" opacity="0.11" />
    <circle cx="55.0" cy="155.5" r="33.5" fill="#22c55e" opacity="0.25" />
    <polygon points="49.3,311.5 98.0,409.0 0.5,409.0" fill="#ef4444" opacity="0.14" />
    <circle cx="394.5" cy="220.8" r="30.3" fill="#ef4444" opacity="0.29" />
    <rect x="184.3" y="2.5" width="73.3" height="73.3" fill="#22c55e" opacity="0.10" />
    <circle cx="4.2" cy="320.2" r="45.1" fill="#22c55e" opacity="0.23" />
    <rect x="36.1" y="19.5" width="23.6" height="23.6" fill="#fbbf24" opacity="0.26" />
    <rect x="124.3" y="459.4" width="85.1" height="85.1" fill="#ef4444" opacity="0.36" />
    <polygon points="127.0,477.8 149.9,523.6 104.1,523.6" fill="#ef4444" opacity="0.32" />
    <polygon points="65.5,369.6 91.7,422.0 39.2,422.0" fill="#22c55e" opacity="0.28" />
    <rect x="266.4" y="372.5" width="26.5" height="26.5" fill="#fbbf24" opacity="0.18" />
  
  <!-- Text background banner -->
  <defs>
    <linearGradient id="text-bg-12" x1="0%" y1="0%" x2="100%" y2="0%">
      <stop offset="0%" style="stop-color:#000000;stop-opacity:0.7" />
      <stop offset="50%" style="stop-color:#ef4444;stop-opacity:0.4" />
      <stop offset="100%" style="stop-color:#000000;stop-opacity:0.7" />
    </linearGradient>
  </defs>
  <rect x="0" y="494" width="400" height="56" fill="url(#text-bg-12)" />

  <!-- Text shadow -->
  <text x="200" y="522" font-family="system-ui, -apple-system, sans-serif" font-size="24" font-weight="bold" text-anchor="middle" fill="#000000" opacity="0.8">New Year Ned</text>

  <!-- Main text -->
  <text x="200" y="520" font-family="system-ui, -apple-system, sans-serif" font-size="24" font-weight="bold" text-anchor="middle" fill="#ffffff">New Year Ned</text>
  
  <!-- Rarity border -->
  <rect x="6" y="6" width="388" height="538"
        fill="none" stroke="#f97316" stroke-width="12" rx="8" ry="8" />
</svg>