<?xml version="1.0" encoding="UTF-8"?>
<svg xmlns="http://www.w3.org/2000/svg" viewBox="0 0 400 550" width="400" height="550">
  <defs>
    <linearGradient id="bg-gradient-127" x1="0%" y1="0%" x2="100%" y2="100%">
      <stop offset="0%" style="stop-color:#a8a29e;stop-opacity:0.26" />
      <stop offset="50%" style="stop-color:#78716c;stop-opacity:0.4" />
      <stop offset="100%" style="stop-color:#a8a29e;stop-opacity:0.26" />
    </linearGradient>
    
  <filter id="shadow-127">
    <feDropShadow dx="0" dy="2" stdDeviation="3" flood-opacity="0.8"/>
  </filter>
  </defs>
  <rect width="400" height="550" fill="url(#bg-gradient-0.37108338973484933)" />
  <g opacity="0.3"><circle cx="9.9" cy="0.8" r="4" fill="#fbbf24" />
    <circle cx="1.5" cy="33.8" r="4" fill="#78716c" />
    <circle cx="6.5" cy="121.2" r="4" fill="#a8a29e" />
    <circle cx="4.2" cy="212.5" r="4" fill="#fbbf24" />
    <circle cx="7.1" cy="241.3" r="4" fill="#78716c" />
    <circle cx="1.9" cy="270.9" r="4" fill="#a8a29e" />
    <circle cx="1.8" cy="307.7" r="4" fill="#a8a29e" />
    <circle cx="4.8" cy="336.9" r="4" fill="#a8a29e" />
    <circle cx="5.1" cy="363.1" r="4" fill="#fbbf24" />
    <circle cx="9.3" cy="488.5" r="4" fill="#fbbf24" />
    <circle cx="4.8" cy="514.7" r="4" fill="#fbbf24" />
    <circle cx="37.9" cy="6.8" r="4" fill="#a8a29e" />
    <circle cx="32.8" cy="38.3" r="4" fill="#fbbf24" />
    <circle cx="34.5" cy="67.3" r="4" fill="#fbbf24" />
    <circle cx="35.8" cy="127.8" r="4" fill="#78716c" />
    <circle cx="31.9" cy="151.3" r="4" fill="#fbbf24" />
    <circle cx="35.9" cy="182.8" r="4" fill="#a8a29e" />
    <circle cx="39.1" cy="216.8" r="4" fill="#fbbf24" />
    <circle cx="31.5" cy="240.0" r="4" fill="#78716c" />
    <circle cx="33.9" cy="274.8" r="4" fill="#78716c" />
    <circle cx="38.1" cy="333.0" r="4" fill="#fbbf24" />
    <circle cx="31.8" cy="425.0" r="4" fill="#fbbf24" />
    <circle cx="31.7" cy="456.3" r="4" fill="#fbbf24" />
    <circle cx="32.4" cy="483.4" r="4" fill="#fbbf24" />
    <circle cx="36.0" cy="511.1" r="4" fill="#78716c" />
    <circle cx="36.1" cy="543.1" r="4" fill="#a8a29e" />
    <circle cx="64.2" cy="3.6" r="4" fill="#fbbf24" />
    <circle cx="63.0" cy="65.1" r="4" fill="#a8a29e" />
    <circle cx="65.7" cy="91.7" r="4" fill="#78716c" />
    <circle cx="64.4" cy="128.3" r="4" fill="#a8a29e" />
    <circle cx="68.2" cy="217.7" r="4" fill="#fbbf24" />
    <circle cx="66.2" cy="248.1" r="4" fill="#fbbf24" />
    <circle cx="66.7" cy="271.1" r="4" fill="#78716c" />
    <circle cx="62.9" cy="308.3" r="4" fill="#78716c" />
    <circle cx="69.5" cy="332.2" r="4" fill="#fbbf24" />
    <circle cx="66.3" cy="392.6" r="4" fill="#fbbf24" />
    <circle cx="69.8" cy="424.0" r="4" fill="#78716c" />
    <circle cx="67.4" cy="460.0" r="4" fill="#fbbf24" />
    <circle cx="64.8" cy="486.2" r="4" fill="#a8a29e" />
    <circle cx="65.0" cy="513.8" r="4" fill="#fbbf24" />
    <circle cx="63.9" cy="541.5" r="4" fill="#a8a29e" />
    <circle cx="90.8" cy="4.3" r="4" fill="#fbbf24" />
    <circle cx="99.0" cy="37.8" r="4" fill="#fbbf24" />
    <circle cx="98.7" cy="62.5" r="4" fill="#78716c" />
    <circle cx="95.2" cy="121.8" r="4" fill="#fbbf24" />
    <circle cx="99.4" cy="154.9" r="4" fill="#a8a29e" />
    <circle cx="97.6" cy="186.3" r="4" fill="#fbbf24" />
    <circle cx="97.6" cy="217.3" r="4" fill="#a8a29e" />
    <circle cx="91.2" cy="276.8" r="4" fill="#a8a29e" />
    <circle cx="99.3" cy="302.9" r="4" fill="#78716c" />
    <circle cx="94.8" cy="362.4" r="4" fill="#fbbf24" />
    <circle cx="95.0" cy="420.5" r="4" fill="#78716c" />
    <circle cx="91.0" cy="453.7" r="4" fill="#78716c" />
    <circle cx="96.6" cy="487.1" r="4" fill="#a8a29e" />
    <circle cx="94.9" cy="519.1" r="4" fill="#78716c" />
    <circle cx="94.3" cy="548.9" r="4" fill="#a8a29e" />
    <circle cx="123.1" cy="40.0" r="4" fill="#78716c" />
    <circle cx="127.6" cy="65.1" r="4" fill="#78716c" />
    <circle cx="126.3" cy="90.4" r="4" fill="#fbbf24" />
    <circle cx="122.5" cy="123.0" r="4" fill="#a8a29e" />
    <circle cx="127.2" cy="158.8" r="4" fill="#a8a29e" />
    <circle cx="124.7" cy="189.1" r="4" fill="#78716c" />
    <circle cx="127.7" cy="217.7" r="4" fill="#a8a29e" />
    <circle cx="120.1" cy="275.0" r="4" fill="#78716c" />
    <circle cx="126.3" cy="306.1" r="4" fill="#78716c" />
    <circle cx="128.1" cy="363.3" r="4" fill="#78716c" />
    <circle cx="128.1" cy="422.4" r="4" fill="#78716c" />
    <circle cx="126.8" cy="453.2" r="4" fill="#a8a29e" />
    <circle cx="120.6" cy="489.0" r="4" fill="#fbbf24" />
    <circle cx="126.6" cy="516.4" r="4" fill="#a8a29e" />
    <circle cx="153.1" cy="0.2" r="4" fill="#fbbf24" />
    <circle cx="150.2" cy="96.5" r="4" fill="#78716c" />
    <circle cx="158.5" cy="124.2" r="4" fill="#78716c" />
    <circle cx="150.5" cy="150.1" r="4" fill="#78716c" />
    <circle cx="155.2" cy="180.3" r="4" fill="#fbbf24" />
    <circle cx="155.7" cy="214.8" r="4" fill="#78716c" />
    <circle cx="158.1" cy="240.1" r="4" fill="#fbbf24" />
    <circle cx="150.8" cy="272.2" r="4" fill="#78716c" />
    <circle cx="159.3" cy="304.0" r="4" fill="#78716c" />
    <circle cx="152.3" cy="335.7" r="4" fill="#a8a29e" />
    <circle cx="156.6" cy="369.0" r="4" fill="#a8a29e" />
    <circle cx="157.7" cy="392.9" r="4" fill="#fbbf24" />
    <circle cx="159.6" cy="424.2" r="4" fill="#78716c" />
    <circle cx="153.6" cy="455.7" r="4" fill="#fbbf24" />
    <circle cx="157.6" cy="517.8" r="4" fill="#a8a29e" />
    <circle cx="151.9" cy="542.6" r="4" fill="#a8a29e" />
    <circle cx="186.8" cy="3.1" r="4" fill="#78716c" />
    <circle cx="189.6" cy="32.1" r="4" fill="#fbbf24" />
    <circle cx="182.4" cy="69.4" r="4" fill="#fbbf24" />
    <circle cx="189.7" cy="99.2" r="4" fill="#fbbf24" />
    <circle cx="188.0" cy="153.2" r="4" fill="#fbbf24" />
    <circle cx="181.5" cy="188.6" r="4" fill="#a8a29e" />
    <circle cx="187.2" cy="214.8" r="4" fill="#a8a29e" />
    <circle cx="182.3" cy="245.5" r="4" fill="#78716c" />
    <circle cx="187.5" cy="277.4" r="4" fill="#78716c" />
    <circle cx="186.5" cy="302.2" r="4" fill="#fbbf24" />
    <circle cx="183.3" cy="361.0" r="4" fill="#fbbf24" />
    <circle cx="182.3" cy="394.8" r="4" fill="#78716c" />
    <circle cx="189.6" cy="428.1" r="4" fill="#fbbf24" />
    <circle cx="184.1" cy="487.9" r="4" fill="#fbbf24" />
    <circle cx="212.7" cy="34.9" r="4" fill="#a8a29e" />
    <circle cx="210.7" cy="92.2" r="4" fill="#fbbf24" />
    <circle cx="218.4" cy="124.5" r="4" fill="#a8a29e" />
    <circle cx="219.2" cy="155.8" r="4" fill="#fbbf24" />
    <circle cx="210.4" cy="189.0" r="4" fill="#a8a29e" />
    <circle cx="215.2" cy="240.3" r="4" fill="#fbbf24" />
    <circle cx="218.4" cy="276.7" r="4" fill="#a8a29e" />
    <circle cx="211.0" cy="336.0" r="4" fill="#fbbf24" />
    <circle cx="216.6" cy="366.5" r="4" fill="#fbbf24" />
    <circle cx="210.9" cy="395.1" r="4" fill="#fbbf24" />
    <circle cx="211.1" cy="420.2" r="4" fill="#fbbf24" />
    <circle cx="215.3" cy="451.6" r="4" fill="#78716c" />
    <circle cx="215.9" cy="518.8" r="4" fill="#78716c" />
    <circle cx="218.9" cy="541.0" r="4" fill="#a8a29e" />
    <circle cx="244.6" cy="31.2" r="4" fill="#78716c" />
    <circle cx="241.5" cy="69.2" r="4" fill="#78716c" />
    <circle cx="247.1" cy="95.2" r="4" fill="#a8a29e" />
    <circle cx="248.7" cy="126.6" r="4" fill="#fbbf24" />
    <circle cx="247.9" cy="150.7" r="4" fill="#a8a29e" />
    <circle cx="247.8" cy="184.8" r="4" fill="#a8a29e" />
    <circle cx="244.8" cy="215.0" r="4" fill="#fbbf24" />
    <circle cx="241.8" cy="279.2" r="4" fill="#78716c" />
    <circle cx="247.3" cy="300.5" r="4" fill="#fbbf24" />
    <circle cx="242.9" cy="333.2" r="4" fill="#fbbf24" />
    <circle cx="248.8" cy="369.7" r="4" fill="#a8a29e" />
    <circle cx="249.7" cy="394.9" r="4" fill="#fbbf24" />
    <circle cx="247.0" cy="421.6" r="4" fill="#fbbf24" />
    <circle cx="241.4" cy="453.2" r="4" fill="#a8a29e" />
    <circle cx="240.7" cy="519.0" r="4" fill="#78716c" />
    <circle cx="277.6" cy="5.1" r="4" fill="#a8a29e" />
    <circle cx="274.9" cy="35.0" r="4" fill="#fbbf24" />
    <circle cx="275.7" cy="95.3" r="4" fill="#78716c" />
    <circle cx="275.5" cy="246.2" r="4" fill="#fbbf24" />
    <circle cx="272.6" cy="270.2" r="4" fill="#a8a29e" />
    <circle cx="278.7" cy="305.9" r="4" fill="#78716c" />
    <circle cx="277.8" cy="333.1" r="4" fill="#a8a29e" />
    <circle cx="273.1" cy="362.2" r="4" fill="#fbbf24" />
    <circle cx="273.8" cy="397.9" r="4" fill="#fbbf24" />
    <circle cx="272.7" cy="422.0" r="4" fill="#78716c" />
    <circle cx="273.3" cy="519.0" r="4" fill="#78716c" />
    <circle cx="309.3" cy="35.7" r="4" fill="#78716c" />
    <circle cx="309.8" cy="65.5" r="4" fill="#78716c" />
    <circle cx="308.9" cy="124.5" r="4" fill="#78716c" />
    <circle cx="306.6" cy="153.8" r="4" fill="#a8a29e" />
    <circle cx="305.8" cy="243.9" r="4" fill="#fbbf24" />
    <circle cx="303.5" cy="275.0" r="4" fill="#78716c" />
    <circle cx="300.0" cy="398.4" r="4" fill="#a8a29e" />
    <circle cx="305.3" cy="428.2" r="4" fill="#78716c" />
    <circle cx="305.5" cy="487.2" r="4" fill="#78716c" />
    <circle cx="300.4" cy="546.0" r="4" fill="#78716c" />
    <circle cx="334.2" cy="67.7" r="4" fill="#fbbf24" />
    <circle cx="335.4" cy="94.8" r="4" fill="#fbbf24" />
    <circle cx="330.5" cy="183.5" r="4" fill="#fbbf24" />
    <circle cx="331.1" cy="211.6" r="4" fill="#78716c" />
    <circle cx="336.3" cy="246.5" r="4" fill="#a8a29e" />
    <circle cx="333.6" cy="270.3" r="4" fill="#fbbf24" />
    <circle cx="337.0" cy="307.5" r="4" fill="#fbbf24" />
    <circle cx="334.4" cy="333.2" r="4" fill="#a8a29e" />
    <circle cx="337.1" cy="393.6" r="4" fill="#78716c" />
    <circle cx="336.8" cy="420.6" r="4" fill="#78716c" />
    <circle cx="333.8" cy="487.6" r="4" fill="#a8a29e" />
    <circle cx="334.3" cy="517.8" r="4" fill="#fbbf24" />
    <circle cx="336.5" cy="547.8" r="4" fill="#fbbf24" />
    <circle cx="365.2" cy="6.7" r="4" fill="#fbbf24" />
    <circle cx="364.8" cy="125.1" r="4" fill="#78716c" />
    <circle cx="364.6" cy="186.6" r="4" fill="#fbbf24" />
    <circle cx="362.3" cy="274.6" r="4" fill="#a8a29e" />
    <circle cx="367.7" cy="330.9" r="4" fill="#fbbf24" />
    <circle cx="367.3" cy="360.7" r="4" fill="#78716c" />
    <circle cx="365.5" cy="399.7" r="4" fill="#fbbf24" />
    <circle cx="364.4" cy="485.6" r="4" fill="#78716c" />
    <circle cx="366.1" cy="514.8" r="4" fill="#fbbf24" />
    <circle cx="393.9" cy="1.6" r="4" fill="#78716c" />
    <circle cx="396.8" cy="32.0" r="4" fill="#fbbf24" />
    <circle cx="394.5" cy="69.3" r="4" fill="#fbbf24" />
    <circle cx="394.7" cy="91.2" r="4" fill="#fbbf24" />
    <circle cx="395.3" cy="125.4" r="4" fill="#a8a29e" />
    <circle cx="394.0" cy="155.0" r="4" fill="#78716c" />
    <circle cx="391.0" cy="181.1" r="4" fill="#fbbf24" />
    <circle cx="393.4" cy="217.9" r="4" fill="#fbbf24" />
    <circle cx="395.0" cy="250.0" r="4" fill="#78716c" />
    <circle cx="398.2" cy="278.9" r="4" fill="#fbbf24" />
    <circle cx="390.4" cy="304.3" r="4" fill="#a8a29e" />
    <circle cx="391.2" cy="334.7" r="4" fill="#78716c" />
    <circle cx="396.9" cy="364.0" r="4" fill="#a8a29e" />
    <circle cx="394.1" cy="397.4" r="4" fill="#fbbf24" />
    <circle cx="397.9" cy="423.5" r="4" fill="#fbbf24" />
    <circle cx="395.1" cy="453.2" r="4" fill="#78716c" />
    <circle cx="398.9" cy="480.6" r="4" fill="#a8a29e" />
    <circle cx="392.0" cy="516.8" r="4" fill="#78716c" /></g>
  <polygon points="5.4,447.2 18.3,473.1 -7.6,473.1" fill="#78716c" opacity="0.25" />
    <polygon points="362.7,314.3 373.8,325.4 362.7,336.5 351.6,325.4" fill="#a8a29e" opacity="0.12" />
    <polygon points="150.0,307.5 187.0,381.6 112.9,381.6" fill="#fbbf24" opacity="0.30" />
    <polygon points="377.5,205.0 409.7,237.2 377.5,269.3 345.3,237.2" fill="#fbbf24" opacity="0.39" />
    <polygon points="311.4,487.6 329.1,523.0 293.6,523.0" fill="#78716c" opacity="0.25" />
    <polygon points="176.5,273.2 195.4,311.1 157.5,311.1" fill="#fbbf24" opacity="0.21" />
    <rect x="85.0" y="391.6" width="25.5" height="25.5" fill="#78716c" opacity="0.10" />
    <circle cx="100.3" cy="117.6" r="48.2" fill="#78716c" opacity="0.30" />
  
  <!-- Text background banner -->
  <defs>
    <linearGradient id="text-bg-12" x1="0%" y1="0%" x2="100%" y2="0%">
      <stop offset="0%" style="stop-color:#000000;stop-opacity:0.7" />
      <stop offset="50%" style="stop-color:#a8a29e;stop-opacity:0.4" />
      <stop offset="100%" style="stop-color:#000000;stop-opacity:0.7" />
    </linearGradient>
  </defs>
  <rect x="0" y="494" width="400" height="56" fill="url(#text-bg-12)" />

  <!-- Text shadow -->
  <text x="200" y="522" font-family="system-ui, -apple-system, sans-serif" font-size="24" font-weight="bold" text-anchor="middle" fill="#000000" opacity="0.8">Rotary Ralph</text>

  <!-- Main text -->
  <text x="200" y="520" font-family="system-ui, -apple-system, sans-serif" font-size="24" font-weight="bold" text-anchor="middle" fill="#ffffff">Rotary Ralph</text>
  
  <!-- Rarity border -->
  <rect x="3" y="3" width="394" height="544"
        fill="none" stroke="#3b82f6" stroke-width="6" rx="8" ry="8" />
</svg>