<?xml version="1.0" encoding="UTF-8"?>
<svg xmlns="http://www.w3.org/2000/svg" viewBox="0 0 400 550" width="400" height="550">
  <defs>
    <linearGradient id="bg-gradient-128" x1="0%" y1="0%" x2="100%" y2="100%">
      <stop offset="0%" style="stop-color:#a8a29e;stop-opacity:0.26" />
      <stop offset="50%" style="stop-color:#78716c;stop-opacity:0.4" />
      <stop offset="100%" style="stop-color:#a8a29e;stop-opacity:0.26" />
    </linearGradient>
    
  <filter id="shadow-128">
    <feDropShadow dx="0" dy="2" stdDeviation="3" flood-opacity="0.8"/>
  </filter>
  </defs>
  <rect width="400" height="550" fill="url(#bg-gradient-0.9875378017313778)" />
  <g opacity="0.3"><polyline points="0,562.7 5,562.3 10,561.8 15,561.2 20,560.4 25,559.5 30,558.5 35,557.4 40,556.1 45,554.7 50,553.2 55,551.6 60,549.9 65,548.1 70,546.2 75,544.3 80,542.2 85,540.1 90,537.9 95,535.7 100,533.4 105,531.1 110,528.8 115,526.4 120,524.1 125,521.7 130,519.3 135,517.0 140,514.7 145,512.4 150,510.1 155,507.9 160,505.7 165,503.6 170,501.6 175,499.6 180,497.8 185,496.0 190,494.3 195,492.7 200,491.2 205,489.8 210,488.6 215,487.5 220,486.5 225,485.6 230,484.8 235,484.2 240,483.8 245,483.4 250,483.2 255,483.2 260,483.3 265,483.5 270,483.9 275,484.4 280,485.0 285,485.8 290,486.7 295,487.8 300,488.9 305,490.2 310,491.6 315,493.1 320,494.8 325,496.5 330,498.3 335,500.2 340,502.2 345,504.2 350,506.3 355,508.5 360,510.7 365,513.0 370,515.3 375,517.7 380,520.0 385,522.4 390,524.8 395,527.1 400,529.5" fill="none" stroke="#fbbf24" stroke-width="1.2" opacity="0.20" />
    <polyline points="0,298.8 5,300.9 10,303.1 15,305.5 20,308.1 25,310.8 30,313.5 35,316.4 40,319.2 45,322.0 50,324.8 55,327.5 60,330.2 65,332.6 70,334.9 75,337.1 80,339.0 85,340.7 90,342.1 95,343.2 100,344.1 105,344.7 110,345.0 115,345.0 120,344.6 125,344.0 130,343.1 135,341.9 140,340.4 145,338.7 150,336.8 155,334.6 160,332.3 165,329.8 170,327.2 175,324.4 180,321.6 185,318.8 190,316.0 195,313.2 200,310.4 205,307.7 210,305.2 215,302.8 220,300.6 225,298.5 230,296.8 235,295.2 240,293.9 245,292.9 250,292.2 255,291.8 260,291.6 265,291.8 270,292.3 275,293.1 280,294.1 285,295.5 290,297.1 295,298.9 300,301.0 305,303.2 310,305.6 315,308.2 320,310.9 325,313.7 330,316.5 335,319.3 340,322.2 345,324.9 350,327.7 355,330.3 360,332.7 365,335.0 370,337.2 375,339.1 380,340.7 385,342.1 390,343.3 395,344.2 400,344.7" fill="none" stroke="#78716c" stroke-width="2.8" opacity="0.13" />
    <polyline points="0,57.8 5,59.5 10,61.3 15,63.0 20,64.6 25,66.3 30,67.9 35,69.4 40,70.9 45,72.4 50,73.8 55,75.1 60,76.4 65,77.6 70,78.7 75,79.8 80,80.8 85,81.8 90,82.6 95,83.4 100,84.1 105,84.7 110,85.2 115,85.6 120,86.0 125,86.2 130,86.4 135,86.5 140,86.4 145,86.3 150,86.2 155,85.9 160,85.5 165,85.0 170,84.5 175,83.9 180,83.1 185,82.3 190,81.5 195,80.5 200,79.5 205,78.4 210,77.2 215,76.0 220,74.7 225,73.3 230,71.9 235,70.4 240,68.9 245,67.4 250,65.7 255,64.1 260,62.4 265,60.7 270,59.0 275,57.2 280,55.5 285,53.7 290,51.9 295,50.1 300,48.3 305,46.5 310,44.8 315,43.0 320,41.3 325,39.6 330,37.9 335,36.2 340,34.6 345,33.0 350,31.5 355,30.0 360,28.6 365,27.2 370,25.9 375,24.7 380,23.5 385,22.4 390,21.4 395,20.4 400,19.5" fill="none" stroke="#fbbf24" stroke-width="2.9" opacity="0.25" />
    <polyline points="0,553.6 5,552.6 10,551.4 15,550.1 20,548.6 25,546.9 30,545.1 35,543.3 40,541.5 45,539.7 50,537.9 55,536.2 60,534.7 65,533.2 70,532.0 75,531.0 80,530.2 85,529.6 90,529.3 95,529.2 100,529.4 105,529.9 110,530.6 115,531.6 120,532.7 125,534.1 130,535.6 135,537.2 140,539.0 145,540.8 150,542.6 155,544.4 160,546.2 165,547.9 170,549.5 175,550.9 180,552.2 185,553.2 190,554.1 195,554.7 200,555.0 205,555.1 210,554.9 215,554.5 220,553.8 225,552.9 230,551.7 235,550.4 240,548.9 245,547.3 250,545.6 255,543.8 260,541.9 265,540.1 270,538.3 275,536.6 280,535.0 285,533.6 290,532.3 295,531.2 300,530.3 305,529.7 310,529.3 315,529.2 320,529.4 325,529.8 330,530.4 335,531.3 340,532.4 345,533.7 350,535.2 355,536.8 360,538.6 365,540.3 370,542.2 375,544.0 380,545.8 385,547.5 390,549.1 395,550.6 400,551.9" fill="none" stroke="#78716c" stroke-width="1.8" opacity="0.21" />
    <polyline points="0,123.1 5,123.4 10,123.8 15,124.3 20,124.9 25,125.6 30,126.4 35,127.3 40,128.3 45,129.4 50,130.6 55,131.8 60,133.1 65,134.6 70,136.0 75,137.6 80,139.2 85,140.8 90,142.5 95,144.2 100,146.0 105,147.8 110,149.6 115,151.4 120,153.2 125,155.0 130,156.9 135,158.7 140,160.5 145,162.2 150,164.0 155,165.7 160,167.3 165,168.9 170,170.5 175,171.9 180,173.4 185,174.7 190,176.0 195,177.2 200,178.3 205,179.3 210,180.2 215,181.0 220,181.8 225,182.4 230,182.9 235,183.3 240,183.7 245,183.9 250,183.9 255,183.9 260,183.8 265,183.6 270,183.2 275,182.8 280,182.2 285,181.6 290,180.8 295,180.0 300,179.0 305,178.0 310,176.8 315,175.6 320,174.3 325,173.0 330,171.5 335,170.0 340,168.4 345,166.8 350,165.2 355,163.5 360,161.7 365,159.9 370,158.1 375,156.3 380,154.5 385,152.7 390,150.8 395,149.0 400,147.2" fill="none" stroke="#78716c" stroke-width="2.7" opacity="0.18" />
    <polyline points="0,146.3 5,145.2 10,144.0 15,142.7 20,141.3 25,139.9 30,138.4 35,136.9 40,135.4 45,133.8 50,132.2 55,130.6 60,129.0 65,127.3 70,125.7 75,124.2 80,122.6 85,121.1 90,119.6 95,118.2 100,116.8 105,115.5 110,114.3 115,113.1 120,112.1 125,111.1 130,110.2 135,109.4 140,108.7 145,108.1 150,107.7 155,107.3 160,107.0 165,106.9 170,106.9 175,107.0 180,107.2 185,107.5 190,107.9 195,108.5 200,109.1 205,109.9 210,110.7 215,111.7 220,112.7 225,113.9 230,115.1 235,116.3 240,117.7 245,119.1 250,120.6 255,122.1 260,123.6 265,125.2 270,126.8 275,128.4 280,130.0 285,131.6 290,133.2 295,134.8 300,136.4 305,137.9 310,139.4 315,140.8 320,142.2 325,143.5 330,144.8 335,145.9 340,147.0 345,148.0 350,148.9 355,149.7 360,150.5 365,151.1 370,151.6 375,151.9 380,152.2 385,152.4 390,152.4 395,152.3 400,152.2" fill="none" stroke="#fbbf24" stroke-width="2.9" opacity="0.13" />
    <polyline points="0,321.3 5,320.9 10,320.8 15,320.9 20,321.3 25,321.9 30,322.9 35,324.0 40,325.4 45,327.1 50,329.0 55,331.0 60,333.3 65,335.7 70,338.2 75,340.9 80,343.7 85,346.5 90,349.4 95,352.2 100,355.1 105,358.0 110,360.8 115,363.5 120,366.0 125,368.5 130,370.8 135,373.0 140,374.9 145,376.6 150,378.1 155,379.4 160,380.4 165,381.2 170,381.6 175,381.9 180,381.8 185,381.5 190,380.9 195,380.0 200,378.9 205,377.5 210,375.9 215,374.1 220,372.1 225,369.9 230,367.5 235,365.0 240,362.4 245,359.6 250,356.8 255,354.0 260,351.1 265,348.2 270,345.3 275,342.5 280,339.8 285,337.2 290,334.7 295,332.4 300,330.2 305,328.2 310,326.4 315,324.8 320,323.5 325,322.4 330,321.6 335,321.1 340,320.8 345,320.8 350,321.0 355,321.6 360,322.4 365,323.4 370,324.7 375,326.3 380,328.0 385,330.0 390,332.2 395,334.5 400,337.0" fill="none" stroke="#78716c" stroke-width="2.6" opacity="0.29" />
    <polyline points="0,219.1 5,217.3 10,215.1 15,212.4 20,209.3 25,205.9 30,202.3 35,198.4 40,194.4 45,190.3 50,186.3 55,182.3 60,178.5 65,175.0 70,171.7 75,168.8 80,166.3 85,164.3 90,162.8 95,161.8 100,161.3 105,161.4 110,162.1 115,163.3 120,165.0 125,167.1 130,169.8 135,172.8 140,176.2 145,179.8 150,183.7 155,187.7 160,191.7 165,195.8 170,199.8 175,203.6 180,207.1 185,210.4 190,213.4 195,215.9 200,218.0 205,219.6 210,220.6 215,221.1 220,221.1 225,220.5 230,219.4 235,217.7 240,215.6 245,213.0 250,210.0 255,206.7 260,203.1 265,199.2 270,195.2 275,191.2 280,187.1 285,183.1 290,179.3 295,175.7 300,172.4 305,169.4 310,166.8 315,164.7 320,163.1 325,162.0 330,161.4 335,161.4 340,161.9 345,163.0 350,164.6 355,166.6 360,169.2 365,172.1 370,175.4 375,179.0 380,182.8 385,186.8 390,190.9 395,194.9 400,198.9" fill="none" stroke="#fbbf24" stroke-width="2.1" opacity="0.12" /></g>
  <polygon points="255.6,298.0 278.8,321.3 255.6,344.6 232.3,321.3" fill="#a8a29e" opacity="0.17" />
    <circle cx="290.5" cy="429.3" r="37.1" fill="#fbbf24" opacity="0.22" />
    <polygon points="102.0,485.4 133.5,548.4 70.5,548.4" fill="#fbbf24" opacity="0.14" />
    <polygon points="200.2,2.2 221.1,44.0 179.4,44.0" fill="#a8a29e" opacity="0.21" />
    <polygon points="224.6,67.3 267.7,153.6 181.4,153.6" fill="#a8a29e" opacity="0.30" />
    <polygon points="229.1,-5.3 260.6,57.7 197.6,57.7" fill="#78716c" opacity="0.30" />
    <polygon points="180.9,406.9 200.6,426.6 180.9,446.2 161.3,426.6" fill="#fbbf24" opacity="0.20" />
    <polygon points="64.8,348.4 91.8,375.4 64.8,402.4 37.8,375.4" fill="#fbbf24" opacity="0.33" />
    <rect x="-19.1" y="-23.2" width="96.0" height="96.0" fill="#a8a29e" opacity="0.29" />
    <rect x="46.5" y="340.9" width="41.6" height="41.6" fill="#a8a29e" opacity="0.20" />
    <polygon points="127.9,478.7 166.0,554.9 89.8,554.9" fill="#78716c" opacity="0.16" />
  
  <!-- Text background banner -->
  <defs>
    <linearGradient id="text-bg-13" x1="0%" y1="0%" x2="100%" y2="0%">
      <stop offset="0%" style="stop-color:#000000;stop-opacity:0.7" />
      <stop offset="50%" style="stop-color:#a8a29e;stop-opacity:0.4" />
      <stop offset="100%" style="stop-color:#000000;stop-opacity:0.7" />
    </linearGradient>
  </defs>
  <rect x="0" y="494" width="400" height="56" fill="url(#text-bg-13)" />

  <!-- Text shadow -->
  <text x="200" y="522" font-family="system-ui, -apple-system, sans-serif" font-size="24" font-weight="bold" text-anchor="middle" fill="#000000" opacity="0.8">Cassette Carl</text>

  <!-- Main text -->
  <text x="200" y="520" font-family="system-ui, -apple-system, sans-serif" font-size="24" font-weight="bold" text-anchor="middle" fill="#ffffff">Cassette Carl</text>
  
  <!-- Rarity border -->
  <rect x="4" y="4" width="392" height="542"
        fill="none" stroke="#eab308" stroke-width="8" rx="8" ry="8" />
</svg>