<?xml version="1.0" encoding="UTF-8"?>
<svg xmlns="http://www.w3.org/2000/svg" viewBox="0 0 400 550" width="400" height="550">
  <defs>
    <linearGradient id="bg-gradient-129" x1="0%" y1="0%" x2="100%" y2="100%">
      <stop offset="0%" style="stop-color:#a8a29e;stop-opacity:0.26" />
      <stop offset="50%" style="stop-color:#78716c;stop-opacity:0.4" />
      <stop offset="100%" style="stop-color:#a8a29e;stop-opacity:0.26" />
    </linearGradient>
    
  <filter id="shadow-129">
    <feDropShadow dx="0" dy="2" stdDeviation="3" flood-opacity="0.8"/>
  </filter>
  </defs>
  <rect width="400" height="550" fill="url(#bg-gradient-0.17230379185639322)" />
  <g opacity="0.3"><polyline points="0,407.4 5,405.6 10,404.0 15,402.5 20,401.2 25,400.1 30,399.2 35,398.4 40,397.9 45,397.5 50,397.4 55,397.4 60,397.7 65,398.1 70,398.8 75,399.6 80,400.6 85,401.8 90,403.2 95,404.7 100,406.4 105,408.2 110,410.2 115,412.3 120,414.4 125,416.7 130,419.0 135,421.4 140,423.8 145,426.3 150,428.7 155,431.2 160,433.6 165,436.0 170,438.3 175,440.5 180,442.7 185,444.7 190,446.6 195,448.4 200,450.1 205,451.6 210,452.9 215,454.1 220,455.0 225,455.8 230,456.4 235,456.8 240,457.0 245,457.0 250,456.8 255,456.4 260,455.8 265,455.0 270,454.0 275,452.8 280,451.5 285,450.0 290,448.3 295,446.5 300,444.6 305,442.6 310,440.4 315,438.2 320,435.9 325,433.5 330,431.1 335,428.6 340,426.2 345,423.7 350,421.3 355,418.9 360,416.6 365,414.3 370,412.2 375,410.1 380,408.2 385,406.3 390,404.6 395,403.1 400,401.8" fill="none" stroke="#78716c" stroke-width="1.8" opacity="0.24" />
    <polyline points="0,48.0 5,49.9 10,52.0 15,54.4 20,56.9 25,59.5 30,62.2 35,64.9 40,67.5 45,70.0 50,72.4 55,74.5 60,76.4 65,78.0 70,79.3 75,80.3 80,80.8 85,81.0 90,80.9 95,80.3 100,79.3 105,78.1 110,76.5 115,74.6 120,72.4 125,70.1 130,67.6 135,64.9 140,62.3 145,59.6 150,57.0 155,54.4 160,52.1 165,49.9 170,48.0 175,46.4 180,45.1 185,44.2 190,43.6 195,43.4 200,43.6 205,44.2 210,45.1 215,46.4 220,48.0 225,49.9 230,52.0 235,54.4 240,56.9 245,59.5 250,62.2 255,64.9 260,67.5 265,70.0 270,72.4 275,74.5 280,76.4 285,78.0 290,79.3 295,80.3 300,80.8 305,81.0 310,80.9 315,80.3 320,79.3 325,78.1 330,76.5 335,74.6 340,72.4 345,70.1 350,67.5 355,64.9 360,62.3 365,59.6 370,57.0 375,54.4 380,52.1 385,49.9 390,48.0 395,46.4 400,45.1" fill="none" stroke="#a8a29e" stroke-width="1.1" opacity="0.18" />
    <polyline points="0,167.4 5,165.0 10,162.1 15,158.8 20,155.1 25,151.2 30,147.0 35,142.7 40,138.3 45,133.9 50,129.6 55,125.5 60,121.5 65,117.9 70,114.6 75,111.8 80,109.4 85,107.5 90,106.2 95,105.5 100,105.3 105,105.7 110,106.7 115,108.2 120,110.3 125,112.9 130,115.9 135,119.4 140,123.1 145,127.1 150,131.4 155,135.7 160,140.1 165,144.5 170,148.8 175,152.8 180,156.7 185,160.2 190,163.3 195,166.0 200,168.2 205,169.9 210,171.0 215,171.6 220,171.5 225,170.9 230,169.7 235,168.0 240,165.7 245,163.0 250,159.8 255,156.3 260,152.4 265,148.3 270,144.0 275,139.6 280,135.2 285,130.9 290,126.7 295,122.7 300,119.0 305,115.6 310,112.6 315,110.1 320,108.1 325,106.6 330,105.6 335,105.3 340,105.5 345,106.3 350,107.7 355,109.7 360,112.1 365,115.0 370,118.3 375,122.0 380,125.9 385,130.1 390,134.4 395,138.8 400,143.2" fill="none" stroke="#a8a29e" stroke-width="1.8" opacity="0.11" />
    <polyline points="0,196.7 5,195.8 10,194.9 15,193.9 20,192.9 25,191.9 30,190.8 35,189.7 40,188.6 45,187.6 50,186.4 55,185.3 60,184.2 65,183.1 70,182.0 75,180.9 80,179.8 85,178.7 90,177.6 95,176.6 100,175.6 105,174.6 110,173.6 115,172.6 120,171.7 125,170.9 130,170.0 135,169.2 140,168.5 145,167.7 150,167.1 155,166.5 160,165.9 165,165.4 170,164.9 175,164.5 180,164.2 185,163.9 190,163.6 195,163.4 200,163.3 205,163.2 210,163.2 215,163.3 220,163.4 225,163.6 230,163.8 235,164.1 240,164.4 245,164.8 250,165.3 255,165.8 260,166.4 265,167.0 270,167.6 275,168.3 280,169.1 285,169.9 290,170.7 295,171.6 300,172.5 305,173.4 310,174.4 315,175.4 320,176.4 325,177.4 330,178.5 335,179.6 340,180.7 345,181.8 350,182.9 355,184.0 360,185.1 365,186.2 370,187.3 375,188.4 380,189.5 385,190.6 390,191.7 395,192.7 400,193.7" fill="none" stroke="#fbbf24" stroke-width="2.8" opacity="0.10" />
    <polyline points="0,337.6 5,338.8 10,340.0 15,341.3 20,342.7 25,344.1 30,345.5 35,347.0 40,348.4 45,349.9 50,351.3 55,352.7 60,354.0 65,355.3 70,356.4 75,357.6 80,358.6 85,359.5 90,360.3 95,361.0 100,361.6 105,362.0 110,362.3 115,362.5 120,362.5 125,362.4 130,362.2 135,361.8 140,361.3 145,360.7 150,359.9 155,359.1 160,358.1 165,357.0 170,355.9 175,354.6 180,353.3 185,352.0 190,350.6 195,349.2 200,347.7 205,346.3 210,344.8 215,343.4 220,342.0 225,340.7 230,339.4 235,338.2 240,337.0 245,336.0 250,335.1 255,334.2 260,333.5 265,332.9 270,332.5 275,332.1 280,331.9 285,331.9 290,332.0 295,332.2 300,332.5 305,333.0 310,333.6 315,334.3 320,335.2 325,336.1 330,337.2 335,338.3 340,339.5 345,340.8 350,342.2 355,343.6 360,345.0 365,346.4 370,347.9 375,349.3 380,350.7 385,352.1 390,353.5 395,354.8 400,356.0" fill="none" stroke="#78716c" stroke-width="1.0" opacity="0.29" />
    <polyline points="0,323.6 5,327.2 10,331.1 15,335.2 20,339.4 25,343.5 30,347.7 35,351.6 40,355.4 45,358.9 50,362.0 55,364.7 60,366.9 65,368.6 70,369.7 75,370.3 80,370.2 85,369.6 90,368.4 95,366.7 100,364.5 105,361.7 110,358.6 115,355.1 120,351.3 125,347.3 130,343.2 135,339.0 140,334.9 145,330.8 150,326.9 155,323.3 160,320.1 165,317.2 170,314.8 175,312.9 180,311.5 185,310.7 190,310.5 195,310.9 200,311.8 205,313.3 210,315.4 215,317.9 220,320.9 225,324.2 230,327.9 235,331.8 240,335.9 245,340.1 250,344.3 255,348.4 260,352.3 265,356.0 270,359.4 275,362.5 280,365.1 285,367.2 290,368.8 295,369.8 300,370.3 305,370.2 310,369.5 315,368.2 320,366.4 325,364.0 330,361.2 335,358.0 340,354.5 345,350.6 350,346.6 355,342.5 360,338.3 365,334.1 370,330.1 375,326.3 380,322.7 385,319.6 390,316.8 395,314.4 400,312.6" fill="none" stroke="#78716c" stroke-width="2.6" opacity="0.19" />
    <polyline points="0,329.4 5,328.6 10,328.4 15,328.6 20,329.3 25,330.5 30,332.1 35,334.1 40,336.5 45,339.2 50,342.1 55,345.3 60,348.7 65,352.1 70,355.5 75,358.9 80,362.2 85,365.3 90,368.2 95,370.7 100,373.0 105,374.8 110,376.2 115,377.2 120,377.7 125,377.7 130,377.3 135,376.4 140,375.0 145,373.2 150,371.0 155,368.5 160,365.7 165,362.6 170,359.3 175,356.0 180,352.5 185,349.1 190,345.7 195,342.5 200,339.5 205,336.8 210,334.4 215,332.3 220,330.7 225,329.4 230,328.7 235,328.4 240,328.6 245,329.3 250,330.4 255,332.0 260,333.9 265,336.3 270,339.0 275,341.9 280,345.1 285,348.4 290,351.8 295,355.3 300,358.7 305,362.0 310,365.1 315,368.0 320,370.6 325,372.8 330,374.7 335,376.1 340,377.1 345,377.7 350,377.8 355,377.3 360,376.5 365,375.1 370,373.4 375,371.2 380,368.7 385,365.9 390,362.8 395,359.6 400,356.2" fill="none" stroke="#a8a29e" stroke-width="1.1" opacity="0.17" />
    <polyline points="0,477.0 5,479.0 10,481.2 15,483.6 20,486.3 25,489.0 30,492.0 35,495.0 40,498.2 45,501.5 50,504.8 55,508.2 60,511.5 65,514.9 70,518.2 75,521.4 80,524.5 85,527.6 90,530.5 95,533.2 100,535.7 105,538.1 110,540.2 115,542.1 120,543.8 125,545.2 130,546.3 135,547.1 140,547.7 145,547.9 150,547.9 155,547.6 160,546.9 165,546.0 170,544.9 175,543.4 180,541.7 185,539.7 190,537.6 195,535.2 200,532.6 205,529.8 210,526.9 215,523.8 220,520.7 225,517.4 230,514.1 235,510.7 240,507.4 245,504.0 250,500.7 255,497.5 260,494.3 265,491.3 270,488.4 275,485.6 280,483.1 285,480.7 290,478.5 295,476.6 300,475.0 305,473.5 310,472.4 315,471.5 320,471.0 325,470.7 330,470.7 335,471.0 340,471.6 345,472.4 350,473.6 355,475.0 360,476.7 365,478.6 370,480.8 375,483.2 380,485.7 385,488.5 390,491.4 395,494.5 400,497.6" fill="none" stroke="#a8a29e" stroke-width="1.2" opacity="0.25" />
    <polyline points="0,26.9 5,28.5 10,30.2 15,32.2 20,34.2 25,36.4 30,38.7 35,41.1 40,43.6 45,46.1 50,48.6 55,51.2 60,53.8 65,56.4 70,58.9 75,61.4 80,63.8 85,66.2 90,68.4 95,70.5 100,72.5 105,74.4 110,76.0 115,77.5 120,78.9 125,80.0 130,80.9 135,81.6 140,82.1 145,82.4 150,82.5 155,82.4 160,82.0 165,81.5 170,80.7 175,79.7 180,78.5 185,77.1 190,75.6 195,73.9 200,72.0 205,70.0 210,67.8 215,65.6 220,63.2 225,60.8 230,58.2 235,55.7 240,53.1 245,50.5 250,47.9 255,45.4 260,42.9 265,40.4 270,38.1 275,35.8 280,33.6 285,31.6 290,29.7 295,28.0 300,26.5 305,25.1 310,23.9 315,22.9 320,22.1 325,21.5 330,21.2 335,21.0 340,21.1 345,21.4 350,21.9 355,22.6 360,23.5 365,24.6 370,25.9 375,27.4 380,29.1 385,30.9 390,32.9 395,35.0 400,37.3" fill="none" stroke="#78716c" stroke-width="1.3" opacity="0.24" />
    <polyline points="0,306.1 5,307.3 10,308.5 15,309.7 20,310.9 25,312.1 30,313.2 35,314.4 40,315.4 45,316.5 50,317.5 55,318.4 60,319.3 65,320.1 70,320.9 75,321.5 80,322.1 85,322.7 90,323.1 95,323.5 100,323.7 105,323.9 110,324.0 115,324.1 120,324.0 125,323.8 130,323.6 135,323.2 140,322.8 145,322.3 150,321.7 155,321.1 160,320.4 165,319.6 170,318.7 175,317.8 180,316.8 185,315.8 190,314.7 195,313.6 200,312.5 205,311.3 210,310.1 215,308.9 220,307.7 225,306.5 230,305.2 235,304.0 240,302.8 245,301.7 250,300.5 255,299.4 260,298.4 265,297.4 270,296.4 275,295.5 280,294.6 285,293.9 290,293.1 295,292.5 300,291.9 305,291.5 310,291.1 315,290.7 320,290.5 325,290.4 330,290.3 335,290.3 340,290.5 345,290.7 350,291.0 355,291.3 360,291.8 365,292.4 370,293.0 375,293.7 380,294.4 385,295.3 390,296.2 395,297.1 400,298.1" fill="none" stroke="#a8a29e" stroke-width="1.7" opacity="0.20" /></g>
  <circle cx="383.3" cy="239.5" r="33.2" fill="#a8a29e" opacity="0.39" />
    <polygon points="303.5,189.0 321.9,226.0 285.0,226.0" fill="#a8a29e" opacity="0.27" />
    <rect x="305.0" y="32.5" width="53.0" height="53.0" fill="#fbbf24" opacity="0.26" />
    <polygon points="394.8,-19.3 417.5,3.5 394.8,26.2 372.0,3.5" fill="#fbbf24" opacity="0.40" />
    <rect x="-33.2" y="210.4" width="70.4" height="70.4" fill="#a8a29e" opacity="0.12" />
    <polygon points="161.8,23.7 201.8,103.8 121.8,103.8" fill="#fbbf24" opacity="0.35" />
    <rect x="258.4" y="385.6" width="43.8" height="43.8" fill="#a8a29e" opacity="0.19" />
    <circle cx="171.1" cy="406.5" r="14.5" fill="#fbbf24" opacity="0.40" />
    <polygon points="192.7,-5.5 217.0,18.8 192.7,43.1 168.4,18.8" fill="#fbbf24" opacity="0.17" />
    <rect x="70.3" y="420.6" width="49.8" height="49.8" fill="#fbbf24" opacity="0.28" />
    <circle cx="295.2" cy="229.5" r="34.9" fill="#a8a29e" opacity="0.16" />
    <circle cx="52.0" cy="431.4" r="40.3" fill="#78716c" opacity="0.25" />
    <rect x="-42.8" y="318.1" width="97.8" height="97.8" fill="#78716c" opacity="0.31" />
    <circle cx="178.4" cy="209.6" r="36.5" fill="#78716c" opacity="0.13" />
  
  <!-- Text background banner -->
  <defs>
    <linearGradient id="text-bg-11" x1="0%" y1="0%" x2="100%" y2="0%">
      <stop offset="0%" style="stop-color:#000000;stop-opacity:0.7" />
      <stop offset="50%" style="stop-color:#a8a29e;stop-opacity:0.4" />
      <stop offset="100%" style="stop-color:#000000;stop-opacity:0.7" />
    </linearGradient>
  </defs>
  <rect x="0" y="494" width="400" height="56" fill="url(#text-bg-11)" />

  <!-- Text shadow -->
  <text x="200" y="522" font-family="system-ui, -apple-system, sans-serif" font-size="24" font-weight="bold" text-anchor="middle" fill="#000000" opacity="0.8">Tube TV Tom</text>

  <!-- Main text -->
  <text x="200" y="520" font-family="system-ui, -apple-system, sans-serif" font-size="24" font-weight="bold" text-anchor="middle" fill="#ffffff">Tube TV Tom</text>
  
  <!-- Rarity border -->
  <rect x="5" y="5" width="390" height="540"
        fill="none" stroke="#a855f7" stroke-width="10" rx="8" ry="8" />
</svg>