<?xml version="1.0" encoding="UTF-8"?>
<svg xmlns="http://www.w3.org/2000/svg" viewBox="0 0 400 550" width="400" height="550">
  <defs>
    <linearGradient id="bg-gradient-130" x1="0%" y1="0%" x2="100%" y2="100%">
      <stop offset="0%" style="stop-color:#a8a29e;stop-opacity:0.26" />
      <stop offset="50%" style="stop-color:#78716c;stop-opacity:0.4" />
      <stop offset="100%" style="stop-color:#a8a29e;stop-opacity:0.26" />
    </linearGradient>
    
  <filter id="shadow-130">
    <feDropShadow dx="0" dy="2" stdDeviation="3" flood-opacity="0.8"/>
  </filter>
  </defs>
  <rect width="400" height="550" fill="url(#bg-gradient-0.30766977998428047)" />
  <g opacity="0.3"><circle cx="3.4" cy="51.2" r="10" fill="#fbbf24" />
    <circle cx="8.7" cy="69.9" r="10" fill="#78716c" />
    <circle cx="1.3" cy="79.4" r="10" fill="#fbbf24" />
    <circle cx="2.5" cy="98.1" r="10" fill="#a8a29e" />
    <circle cx="8.8" cy="106.5" r="10" fill="#78716c" />
    <circle cx="9.3" cy="125.5" r="10" fill="#78716c" />
    <circle cx="3.4" cy="144.0" r="10" fill="#78716c" />
    <circle cx="0.3" cy="186.9" r="10" fill="#fbbf24" />
    <circle cx="5.5" cy="204.5" r="10" fill="#fbbf24" />
    <circle cx="4.3" cy="210.6" r="10" fill="#a8a29e" />
    <circle cx="5.5" cy="225.7" r="10" fill="#a8a29e" />
    <circle cx="6.8" cy="249.4" r="10" fill="#fbbf24" />
    <circle cx="7.6" cy="261.6" r="10" fill="#fbbf24" />
    <circle cx="3.3" cy="279.6" r="10" fill="#fbbf24" />
    <circle cx="8.0" cy="293.7" r="10" fill="#fbbf24" />
    <circle cx="2.4" cy="300.2" r="10" fill="#fbbf24" />
    <circle cx="1.9" cy="337.7" r="10" fill="#78716c" />
    <circle cx="6.0" cy="346.5" r="10" fill="#fbbf24" />
    <circle cx="4.6" cy="363.3" r="10" fill="#fbbf24" />
    <circle cx="1.0" cy="383.0" r="10" fill="#fbbf24" />
    <circle cx="7.9" cy="425.1" r="10" fill="#a8a29e" />
    <circle cx="7.3" cy="438.7" r="10" fill="#78716c" />
    <circle cx="3.4" cy="451.4" r="10" fill="#fbbf24" />
    <circle cx="2.8" cy="471.3" r="10" fill="#a8a29e" />
    <circle cx="9.9" cy="480.2" r="10" fill="#a8a29e" />
    <circle cx="9.8" cy="519.9" r="10" fill="#fbbf24" />
    <circle cx="15.5" cy="3.6" r="10" fill="#fbbf24" />
    <circle cx="17.8" cy="20.5" r="10" fill="#a8a29e" />
    <circle cx="20.8" cy="32.7" r="10" fill="#fbbf24" />
    <circle cx="15.1" cy="53.8" r="10" fill="#fbbf24" />
    <circle cx="15.6" cy="66.1" r="10" fill="#a8a29e" />
    <circle cx="22.5" cy="83.1" r="10" fill="#a8a29e" />
    <circle cx="23.6" cy="92.5" r="10" fill="#a8a29e" />
    <circle cx="23.4" cy="107.1" r="10" fill="#78716c" />
    <circle cx="22.2" cy="126.6" r="10" fill="#a8a29e" />
    <circle cx="15.8" cy="144.7" r="10" fill="#fbbf24" />
    <circle cx="22.1" cy="151.4" r="10" fill="#a8a29e" />
    <circle cx="17.9" cy="165.4" r="10" fill="#78716c" />
    <circle cx="15.6" cy="182.9" r="10" fill="#fbbf24" />
    <circle cx="17.4" cy="197.8" r="10" fill="#fbbf24" />
    <circle cx="20.0" cy="218.3" r="10" fill="#fbbf24" />
    <circle cx="18.6" cy="246.8" r="10" fill="#78716c" />
    <circle cx="20.6" cy="276.9" r="10" fill="#a8a29e" />
    <circle cx="20.5" cy="290.1" r="10" fill="#78716c" />
    <circle cx="19.5" cy="303.2" r="10" fill="#a8a29e" />
    <circle cx="15.6" cy="323.4" r="10" fill="#fbbf24" />
    <circle cx="22.4" cy="337.9" r="10" fill="#fbbf24" />
    <circle cx="21.1" cy="352.7" r="10" fill="#fbbf24" />
    <circle cx="15.3" cy="395.1" r="10" fill="#fbbf24" />
    <circle cx="17.7" cy="410.7" r="10" fill="#78716c" />
    <circle cx="18.5" cy="427.4" r="10" fill="#78716c" />
    <circle cx="23.6" cy="457.8" r="10" fill="#fbbf24" />
    <circle cx="20.2" cy="471.8" r="10" fill="#a8a29e" />
    <circle cx="15.8" cy="517.2" r="10" fill="#fbbf24" />
    <circle cx="19.5" cy="540.1" r="10" fill="#fbbf24" />
    <circle cx="30.7" cy="9.0" r="10" fill="#fbbf24" />
    <circle cx="33.3" cy="24.6" r="10" fill="#a8a29e" />
    <circle cx="36.4" cy="37.1" r="10" fill="#a8a29e" />
    <circle cx="39.1" cy="48.1" r="10" fill="#fbbf24" />
    <circle cx="30.7" cy="67.4" r="10" fill="#a8a29e" />
    <circle cx="30.8" cy="77.8" r="10" fill="#a8a29e" />
    <circle cx="30.3" cy="93.5" r="10" fill="#78716c" />
    <circle cx="32.0" cy="123.7" r="10" fill="#fbbf24" />
    <circle cx="37.3" cy="136.7" r="10" fill="#a8a29e" />
    <circle cx="37.6" cy="167.1" r="10" fill="#a8a29e" />
    <circle cx="33.0" cy="184.1" r="10" fill="#a8a29e" />
    <circle cx="34.1" cy="211.6" r="10" fill="#78716c" />
    <circle cx="33.6" cy="259.7" r="10" fill="#fbbf24" />
    <circle cx="38.4" cy="302.2" r="10" fill="#78716c" />
    <circle cx="38.5" cy="318.0" r="10" fill="#fbbf24" />
    <circle cx="31.9" cy="349.7" r="10" fill="#fbbf24" />
    <circle cx="38.5" cy="361.1" r="10" fill="#fbbf24" />
    <circle cx="35.6" cy="375.0" r="10" fill="#78716c" />
    <circle cx="33.9" cy="410.8" r="10" fill="#fbbf24" />
    <circle cx="36.9" cy="443.7" r="10" fill="#a8a29e" />
    <circle cx="32.1" cy="451.6" r="10" fill="#fbbf24" />
    <circle cx="33.5" cy="467.7" r="10" fill="#a8a29e" />
    <circle cx="37.0" cy="482.9" r="10" fill="#fbbf24" />
    <circle cx="39.2" cy="495.6" r="10" fill="#78716c" />
    <circle cx="38.9" cy="527.1" r="10" fill="#fbbf24" />
    <circle cx="34.3" cy="540.2" r="10" fill="#78716c" />
    <circle cx="49.5" cy="9.9" r="10" fill="#78716c" />
    <circle cx="47.2" cy="18.6" r="10" fill="#a8a29e" />
    <circle cx="51.1" cy="32.4" r="10" fill="#a8a29e" />
    <circle cx="53.3" cy="54.7" r="10" fill="#78716c" />
    <circle cx="52.9" cy="76.4" r="10" fill="#a8a29e" />
    <circle cx="50.7" cy="94.8" r="10" fill="#78716c" />
    <circle cx="51.9" cy="127.2" r="10" fill="#78716c" />
    <circle cx="53.4" cy="181.7" r="10" fill="#78716c" />
    <circle cx="48.3" cy="201.9" r="10" fill="#78716c" />
    <circle cx="53.1" cy="219.8" r="10" fill="#a8a29e" />
    <circle cx="54.2" cy="225.4" r="10" fill="#a8a29e" />
    <circle cx="48.4" cy="240.2" r="10" fill="#78716c" />
    <circle cx="52.1" cy="262.9" r="10" fill="#fbbf24" />
    <circle cx="54.8" cy="273.0" r="10" fill="#fbbf24" />
    <circle cx="53.3" cy="294.2" r="10" fill="#a8a29e" />
    <circle cx="52.4" cy="319.8" r="10" fill="#fbbf24" />
    <circle cx="45.0" cy="332.5" r="10" fill="#78716c" />
    <circle cx="47.1" cy="345.2" r="10" fill="#78716c" />
    <circle cx="51.1" cy="360.6" r="10" fill="#fbbf24" />
    <circle cx="47.0" cy="379.0" r="10" fill="#fbbf24" />
    <circle cx="46.4" cy="391.7" r="10" fill="#a8a29e" />
    <circle cx="53.3" cy="426.0" r="10" fill="#78716c" />
    <circle cx="47.9" cy="438.8" r="10" fill="#a8a29e" />
    <circle cx="53.6" cy="456.0" r="10" fill="#a8a29e" />
    <circle cx="45.7" cy="467.7" r="10" fill="#78716c" />
    <circle cx="50.6" cy="484.2" r="10" fill="#fbbf24" />
    <circle cx="47.8" cy="513.9" r="10" fill="#fbbf24" />
    <circle cx="50.1" cy="530.8" r="10" fill="#a8a29e" />
    <circle cx="64.0" cy="15.2" r="10" fill="#a8a29e" />
    <circle cx="68.1" cy="32.5" r="10" fill="#a8a29e" />
    <circle cx="65.9" cy="47.6" r="10" fill="#a8a29e" />
    <circle cx="67.7" cy="66.5" r="10" fill="#fbbf24" />
    <circle cx="65.2" cy="83.4" r="10" fill="#fbbf24" />
    <circle cx="63.7" cy="97.8" r="10" fill="#a8a29e" />
    <circle cx="60.6" cy="110.9" r="10" fill="#78716c" />
    <circle cx="65.2" cy="137.2" r="10" fill="#a8a29e" />
    <circle cx="62.6" cy="150.9" r="10" fill="#a8a29e" />
    <circle cx="62.5" cy="172.8" r="10" fill="#a8a29e" />
    <circle cx="66.0" cy="186.7" r="10" fill="#a8a29e" />
    <circle cx="63.1" cy="200.6" r="10" fill="#fbbf24" />
    <circle cx="63.4" cy="247.5" r="10" fill="#a8a29e" />
    <circle cx="67.2" cy="261.3" r="10" fill="#a8a29e" />
    <circle cx="64.6" cy="276.4" r="10" fill="#78716c" />
    <circle cx="66.9" cy="285.3" r="10" fill="#a8a29e" />
    <circle cx="64.0" cy="308.8" r="10" fill="#a8a29e" />
    <circle cx="67.7" cy="330.4" r="10" fill="#a8a29e" />
    <circle cx="65.3" cy="354.9" r="10" fill="#a8a29e" />
    <circle cx="66.3" cy="362.7" r="10" fill="#78716c" />
    <circle cx="67.0" cy="378.8" r="10" fill="#78716c" />
    <circle cx="65.6" cy="391.9" r="10" fill="#a8a29e" />
    <circle cx="60.1" cy="413.5" r="10" fill="#a8a29e" />
    <circle cx="66.4" cy="429.0" r="10" fill="#78716c" />
    <circle cx="61.6" cy="435.6" r="10" fill="#78716c" />
    <circle cx="63.6" cy="489.0" r="10" fill="#a8a29e" />
    <circle cx="65.4" cy="498.0" r="10" fill="#78716c" />
    <circle cx="60.3" cy="514.3" r="10" fill="#a8a29e" />
    <circle cx="60.4" cy="533.1" r="10" fill="#a8a29e" />
    <circle cx="63.9" cy="540.6" r="10" fill="#a8a29e" />
    <circle cx="83.7" cy="8.1" r="10" fill="#78716c" />
    <circle cx="80.9" cy="33.3" r="10" fill="#78716c" />
    <circle cx="83.3" cy="69.8" r="10" fill="#a8a29e" />
    <circle cx="78.8" cy="76.9" r="10" fill="#fbbf24" />
    <circle cx="76.2" cy="94.6" r="10" fill="#fbbf24" />
    <circle cx="75.6" cy="112.6" r="10" fill="#a8a29e" />
    <circle cx="76.8" cy="127.7" r="10" fill="#a8a29e" />
    <circle cx="77.7" cy="143.5" r="10" fill="#78716c" />
    <circle cx="78.1" cy="169.5" r="10" fill="#a8a29e" />
    <circle cx="84.5" cy="188.9" r="10" fill="#78716c" />
    <circle cx="80.2" cy="199.7" r="10" fill="#78716c" />
    <circle cx="80.5" cy="216.9" r="10" fill="#fbbf24" />
    <circle cx="75.7" cy="246.3" r="10" fill="#fbbf24" />
    <circle cx="82.5" cy="260.1" r="10" fill="#78716c" />
    <circle cx="77.3" cy="287.3" r="10" fill="#78716c" />
    <circle cx="82.1" cy="308.9" r="10" fill="#78716c" />
    <circle cx="81.7" cy="319.6" r="10" fill="#78716c" />
    <circle cx="75.9" cy="365.1" r="10" fill="#fbbf24" />
    <circle cx="78.8" cy="384.8" r="10" fill="#a8a29e" />
    <circle cx="84.5" cy="393.2" r="10" fill="#78716c" />
    <circle cx="75.7" cy="421.4" r="10" fill="#a8a29e" />
    <circle cx="79.4" cy="459.5" r="10" fill="#78716c" />
    <circle cx="76.6" cy="470.2" r="10" fill="#fbbf24" />
    <circle cx="77.8" cy="503.7" r="10" fill="#fbbf24" />
    <circle cx="80.1" cy="513.0" r="10" fill="#78716c" />
    <circle cx="83.2" cy="534.3" r="10" fill="#fbbf24" />
    <circle cx="82.9" cy="546.3" r="10" fill="#78716c" />
    <circle cx="98.9" cy="1.0" r="10" fill="#fbbf24" />
    <circle cx="99.5" cy="21.7" r="10" fill="#a8a29e" />
    <circle cx="90.1" cy="45.7" r="10" fill="#a8a29e" />
    <circle cx="99.2" cy="69.8" r="10" fill="#78716c" />
    <circle cx="94.2" cy="113.6" r="10" fill="#78716c" />
    <circle cx="92.6" cy="121.3" r="10" fill="#a8a29e" />
    <circle cx="99.8" cy="137.6" r="10" fill="#a8a29e" />
    <circle cx="96.4" cy="152.3" r="10" fill="#fbbf24" />
    <circle cx="93.6" cy="188.8" r="10" fill="#78716c" />
    <circle cx="98.8" cy="198.3" r="10" fill="#fbbf24" />
    <circle cx="90.4" cy="214.8" r="10" fill="#78716c" />
    <circle cx="90.7" cy="229.1" r="10" fill="#78716c" />
    <circle cx="97.7" cy="258.8" r="10" fill="#78716c" />
    <circle cx="90.0" cy="270.9" r="10" fill="#78716c" />
    <circle cx="91.6" cy="287.8" r="10" fill="#78716c" />
    <circle cx="94.4" cy="317.6" r="10" fill="#fbbf24" />
    <circle cx="92.8" cy="331.4" r="10" fill="#a8a29e" />
    <circle cx="96.7" cy="347.4" r="10" fill="#78716c" />
    <circle cx="98.4" cy="364.4" r="10" fill="#78716c" />
    <circle cx="92.3" cy="384.9" r="10" fill="#fbbf24" />
    <circle cx="92.6" cy="393.9" r="10" fill="#fbbf24" />
    <circle cx="92.7" cy="413.8" r="10" fill="#a8a29e" />
    <circle cx="98.7" cy="440.9" r="10" fill="#78716c" />
    <circle cx="96.0" cy="457.5" r="10" fill="#78716c" />
    <circle cx="99.2" cy="489.7" r="10" fill="#a8a29e" />
    <circle cx="93.2" cy="499.7" r="10" fill="#fbbf24" />
    <circle cx="90.2" cy="530.2" r="10" fill="#fbbf24" />
    <circle cx="97.6" cy="546.5" r="10" fill="#fbbf24" />
    <circle cx="111.7" cy="5.5" r="10" fill="#a8a29e" />
    <circle cx="106.2" cy="20.3" r="10" fill="#a8a29e" />
    <circle cx="107.2" cy="36.5" r="10" fill="#a8a29e" />
    <circle cx="114.0" cy="52.7" r="10" fill="#fbbf24" />
    <circle cx="112.3" cy="65.4" r="10" fill="#fbbf24" />
    <circle cx="113.9" cy="76.1" r="10" fill="#fbbf24" />
    <circle cx="109.1" cy="113.3" r="10" fill="#fbbf24" />
    <circle cx="108.2" cy="120.4" r="10" fill="#fbbf24" />
    <circle cx="105.0" cy="158.5" r="10" fill="#a8a29e" />
    <circle cx="108.6" cy="182.7" r="10" fill="#fbbf24" />
    <circle cx="108.7" cy="214.1" r="10" fill="#a8a29e" />
    <circle cx="109.0" cy="294.0" r="10" fill="#78716c" />
    <circle cx="112.8" cy="308.8" r="10" fill="#a8a29e" />
    <circle cx="113.9" cy="323.9" r="10" fill="#78716c" />
    <circle cx="108.9" cy="331.9" r="10" fill="#a8a29e" />
    <circle cx="108.1" cy="349.4" r="10" fill="#fbbf24" />
    <circle cx="108.5" cy="368.3" r="10" fill="#fbbf24" />
    <circle cx="105.4" cy="376.8" r="10" fill="#fbbf24" />
    <circle cx="113.2" cy="392.7" r="10" fill="#78716c" />
    <circle cx="113.0" cy="407.8" r="10" fill="#a8a29e" />
    <circle cx="114.5" cy="423.4" r="10" fill="#fbbf24" />
    <circle cx="108.1" cy="436.9" r="10" fill="#fbbf24" />
    <circle cx="107.0" cy="471.3" r="10" fill="#a8a29e" />
    <circle cx="105.6" cy="485.9" r="10" fill="#a8a29e" />
    <circle cx="111.8" cy="549.1" r="10" fill="#fbbf24" />
    <circle cx="122.4" cy="5.9" r="10" fill="#fbbf24" />
    <circle cx="127.5" cy="24.9" r="10" fill="#a8a29e" />
    <circle cx="124.4" cy="51.5" r="10" fill="#78716c" />
    <circle cx="124.8" cy="69.7" r="10" fill="#a8a29e" />
    <circle cx="122.3" cy="91.2" r="10" fill="#fbbf24" />
    <circle cx="122.3" cy="109.0" r="10" fill="#78716c" />
    <circle cx="128.3" cy="123.1" r="10" fill="#78716c" />
    <circle cx="121.4" cy="138.0" r="10" fill="#fbbf24" />
    <circle cx="125.3" cy="155.9" r="10" fill="#78716c" />
    <circle cx="127.9" cy="167.2" r="10" fill="#fbbf24" />
    <circle cx="121.0" cy="229.7" r="10" fill="#a8a29e" />
    <circle cx="128.0" cy="259.0" r="10" fill="#78716c" />
    <circle cx="126.4" cy="272.7" r="10" fill="#a8a29e" />
    <circle cx="123.8" cy="319.8" r="10" fill="#a8a29e" />
    <circle cx="129.7" cy="335.6" r="10" fill="#fbbf24" />
    <circle cx="126.7" cy="349.3" r="10" fill="#fbbf24" />
    <circle cx="127.7" cy="361.4" r="10" fill="#78716c" />
    <circle cx="127.6" cy="382.3" r="10" fill="#fbbf24" />
    <circle cx="122.6" cy="407.4" r="10" fill="#a8a29e" />
    <circle cx="124.3" cy="428.0" r="10" fill="#fbbf24" />
    <circle cx="121.5" cy="437.1" r="10" fill="#a8a29e" />
    <circle cx="123.0" cy="459.0" r="10" fill="#fbbf24" />
    <circle cx="127.4" cy="469.5" r="10" fill="#78716c" />
    <circle cx="125.3" cy="482.7" r="10" fill="#78716c" />
    <circle cx="123.2" cy="503.0" r="10" fill="#a8a29e" />
    <circle cx="122.7" cy="510.1" r="10" fill="#78716c" />
    <circle cx="128.2" cy="540.2" r="10" fill="#fbbf24" />
    <circle cx="141.9" cy="2.6" r="10" fill="#78716c" />
    <circle cx="136.3" cy="46.9" r="10" fill="#fbbf24" />
    <circle cx="138.0" cy="64.0" r="10" fill="#fbbf24" />
    <circle cx="137.7" cy="80.4" r="10" fill="#a8a29e" />
    <circle cx="136.4" cy="109.8" r="10" fill="#78716c" />
    <circle cx="137.4" cy="126.6" r="10" fill="#fbbf24" />
    <circle cx="142.6" cy="140.5" r="10" fill="#78716c" />
    <circle cx="139.4" cy="153.9" r="10" fill="#a8a29e" />
    <circle cx="140.7" cy="170.7" r="10" fill="#fbbf24" />
    <circle cx="142.0" cy="189.3" r="10" fill="#fbbf24" />
    <circle cx="136.0" cy="199.1" r="10" fill="#a8a29e" />
    <circle cx="136.3" cy="216.3" r="10" fill="#78716c" />
    <circle cx="142.3" cy="231.0" r="10" fill="#fbbf24" />
    <circle cx="136.8" cy="261.6" r="10" fill="#78716c" />
    <circle cx="140.7" cy="274.3" r="10" fill="#fbbf24" />
    <circle cx="142.7" cy="291.7" r="10" fill="#78716c" />
    <circle cx="143.7" cy="309.4" r="10" fill="#78716c" />
    <circle cx="141.8" cy="366.6" r="10" fill="#a8a29e" />
    <circle cx="143.3" cy="381.9" r="10" fill="#78716c" />
    <circle cx="136.0" cy="390.2" r="10" fill="#fbbf24" />
    <circle cx="135.6" cy="427.0" r="10" fill="#78716c" />
    <circle cx="136.8" cy="459.7" r="10" fill="#78716c" />
    <circle cx="138.5" cy="499.9" r="10" fill="#78716c" />
    <circle cx="141.8" cy="518.4" r="10" fill="#fbbf24" />
    <circle cx="141.8" cy="531.1" r="10" fill="#a8a29e" />
    <circle cx="151.7" cy="36.4" r="10" fill="#fbbf24" />
    <circle cx="155.3" cy="49.2" r="10" fill="#a8a29e" />
    <circle cx="155.3" cy="78.7" r="10" fill="#fbbf24" />
    <circle cx="156.1" cy="106.4" r="10" fill="#fbbf24" />
    <circle cx="152.4" cy="123.6" r="10" fill="#a8a29e" />
    <circle cx="151.4" cy="137.4" r="10" fill="#78716c" />
    <circle cx="153.8" cy="167.1" r="10" fill="#fbbf24" />
    <circle cx="150.4" cy="187.4" r="10" fill="#78716c" />
    <circle cx="159.5" cy="198.1" r="10" fill="#a8a29e" />
    <circle cx="152.4" cy="231.1" r="10" fill="#fbbf24" />
    <circle cx="158.6" cy="243.9" r="10" fill="#fbbf24" />
    <circle cx="156.2" cy="286.7" r="10" fill="#fbbf24" />
    <circle cx="156.4" cy="300.5" r="10" fill="#78716c" />
    <circle cx="159.4" cy="338.5" r="10" fill="#a8a29e" />
    <circle cx="159.5" cy="352.9" r="10" fill="#a8a29e" />
    <circle cx="156.1" cy="367.3" r="10" fill="#fbbf24" />
    <circle cx="158.9" cy="378.4" r="10" fill="#a8a29e" />
    <circle cx="155.2" cy="397.6" r="10" fill="#a8a29e" />
    <circle cx="150.4" cy="405.6" r="10" fill="#a8a29e" />
    <circle cx="156.0" cy="427.0" r="10" fill="#fbbf24" />
    <circle cx="156.6" cy="441.9" r="10" fill="#fbbf24" />
    <circle cx="155.5" cy="451.0" r="10" fill="#fbbf24" />
    <circle cx="150.5" cy="465.5" r="10" fill="#a8a29e" />
    <circle cx="150.4" cy="485.5" r="10" fill="#a8a29e" />
    <circle cx="158.0" cy="499.7" r="10" fill="#fbbf24" />
    <circle cx="158.8" cy="513.9" r="10" fill="#fbbf24" />
    <circle cx="159.0" cy="534.1" r="10" fill="#fbbf24" />
    <circle cx="159.3" cy="540.1" r="10" fill="#78716c" />
    <circle cx="171.9" cy="24.1" r="10" fill="#78716c" />
    <circle cx="166.1" cy="64.8" r="10" fill="#a8a29e" />
    <circle cx="166.4" cy="81.1" r="10" fill="#fbbf24" />
    <circle cx="170.0" cy="95.7" r="10" fill="#fbbf24" />
    <circle cx="172.0" cy="141.1" r="10" fill="#fbbf24" />
    <circle cx="172.1" cy="166.9" r="10" fill="#78716c" />
    <circle cx="168.3" cy="197.6" r="10" fill="#a8a29e" />
    <circle cx="172.4" cy="219.4" r="10" fill="#fbbf24" />
    <circle cx="171.9" cy="247.0" r="10" fill="#a8a29e" />
    <circle cx="174.1" cy="257.0" r="10" fill="#fbbf24" />
    <circle cx="172.8" cy="274.3" r="10" fill="#fbbf24" />
    <circle cx="168.0" cy="303.7" r="10" fill="#78716c" />
    <circle cx="165.3" cy="322.6" r="10" fill="#fbbf24" />
    <circle cx="169.9" cy="332.4" r="10" fill="#fbbf24" />
    <circle cx="170.4" cy="354.2" r="10" fill="#a8a29e" />
    <circle cx="167.5" cy="366.4" r="10" fill="#78716c" />
    <circle cx="168.2" cy="394.9" r="10" fill="#a8a29e" />
    <circle cx="169.4" cy="413.4" r="10" fill="#78716c" />
    <circle cx="169.5" cy="444.5" r="10" fill="#a8a29e" />
    <circle cx="171.8" cy="450.3" r="10" fill="#78716c" />
    <circle cx="170.7" cy="484.5" r="10" fill="#fbbf24" />
    <circle cx="172.2" cy="525.2" r="10" fill="#78716c" />
    <circle cx="189.8" cy="5.9" r="10" fill="#78716c" />
    <circle cx="184.9" cy="23.6" r="10" fill="#78716c" />
    <circle cx="184.3" cy="37.6" r="10" fill="#78716c" />
    <circle cx="184.5" cy="49.0" r="10" fill="#a8a29e" />
    <circle cx="182.8" cy="67.8" r="10" fill="#fbbf24" />
    <circle cx="185.8" cy="80.7" r="10" fill="#fbbf24" />
    <circle cx="185.1" cy="98.3" r="10" fill="#fbbf24" />
    <circle cx="183.7" cy="150.2" r="10" fill="#fbbf24" />
    <circle cx="182.9" cy="170.5" r="10" fill="#a8a29e" />
    <circle cx="185.6" cy="189.2" r="10" fill="#78716c" />
    <circle cx="185.2" cy="197.8" r="10" fill="#78716c" />
    <circle cx="186.8" cy="225.1" r="10" fill="#fbbf24" />
    <circle cx="187.9" cy="249.3" r="10" fill="#fbbf24" />
    <circle cx="181.6" cy="302.4" r="10" fill="#fbbf24" />
    <circle cx="183.8" cy="338.3" r="10" fill="#a8a29e" />
    <circle cx="186.3" cy="349.2" r="10" fill="#78716c" />
    <circle cx="189.7" cy="361.8" r="10" fill="#78716c" />
    <circle cx="188.4" cy="380.5" r="10" fill="#fbbf24" />
    <circle cx="188.3" cy="394.1" r="10" fill="#a8a29e" />
    <circle cx="185.9" cy="441.6" r="10" fill="#fbbf24" />
    <circle cx="183.2" cy="454.6" r="10" fill="#78716c" />
    <circle cx="183.2" cy="473.9" r="10" fill="#78716c" />
    <circle cx="198.2" cy="3.6" r="10" fill="#fbbf24" />
    <circle cx="196.8" cy="18.8" r="10" fill="#fbbf24" />
    <circle cx="199.8" cy="30.2" r="10" fill="#78716c" />
    <circle cx="201.0" cy="51.4" r="10" fill="#78716c" />
    <circle cx="197.5" cy="110.1" r="10" fill="#a8a29e" />
    <circle cx="203.3" cy="124.1" r="10" fill="#a8a29e" />
    <circle cx="196.3" cy="143.9" r="10" fill="#a8a29e" />
    <circle cx="203.9" cy="166.6" r="10" fill="#78716c" />
    <circle cx="204.5" cy="186.8" r="10" fill="#fbbf24" />
    <circle cx="203.7" cy="197.1" r="10" fill="#a8a29e" />
    <circle cx="196.1" cy="228.6" r="10" fill="#fbbf24" />
    <circle cx="198.0" cy="241.6" r="10" fill="#fbbf24" />
    <circle cx="199.4" cy="259.6" r="10" fill="#a8a29e" />
    <circle cx="202.8" cy="271.7" r="10" fill="#78716c" />
    <circle cx="201.6" cy="289.3" r="10" fill="#fbbf24" />
    <circle cx="203.5" cy="317.6" r="10" fill="#fbbf24" />
    <circle cx="202.1" cy="330.6" r="10" fill="#a8a29e" />
    <circle cx="198.0" cy="364.0" r="10" fill="#78716c" />
    <circle cx="200.0" cy="379.1" r="10" fill="#78716c" />
    <circle cx="204.0" cy="399.0" r="10" fill="#fbbf24" />
    <circle cx="202.6" cy="413.0" r="10" fill="#a8a29e" />
    <circle cx="200.3" cy="427.0" r="10" fill="#a8a29e" />
    <circle cx="202.9" cy="436.2" r="10" fill="#a8a29e" />
    <circle cx="202.7" cy="451.1" r="10" fill="#a8a29e" />
    <circle cx="202.4" cy="469.5" r="10" fill="#a8a29e" />
    <circle cx="201.8" cy="485.3" r="10" fill="#78716c" />
    <circle cx="201.5" cy="544.3" r="10" fill="#a8a29e" />
    <circle cx="218.9" cy="8.5" r="10" fill="#fbbf24" />
    <circle cx="218.3" cy="51.5" r="10" fill="#a8a29e" />
    <circle cx="213.6" cy="66.0" r="10" fill="#a8a29e" />
    <circle cx="215.1" cy="83.7" r="10" fill="#fbbf24" />
    <circle cx="215.5" cy="98.1" r="10" fill="#78716c" />
    <circle cx="214.6" cy="105.5" r="10" fill="#78716c" />
    <circle cx="213.0" cy="124.3" r="10" fill="#fbbf24" />
    <circle cx="211.2" cy="138.2" r="10" fill="#a8a29e" />
    <circle cx="216.1" cy="154.2" r="10" fill="#a8a29e" />
    <circle cx="219.7" cy="168.8" r="10" fill="#a8a29e" />
    <circle cx="219.7" cy="182.8" r="10" fill="#fbbf24" />
    <circle cx="219.5" cy="198.1" r="10" fill="#78716c" />
    <circle cx="213.3" cy="218.3" r="10" fill="#78716c" />
    <circle cx="216.5" cy="229.9" r="10" fill="#78716c" />
    <circle cx="217.3" cy="242.9" r="10" fill="#a8a29e" />
    <circle cx="212.6" cy="290.0" r="10" fill="#78716c" />
    <circle cx="218.2" cy="303.3" r="10" fill="#fbbf24" />
    <circle cx="211.7" cy="319.3" r="10" fill="#fbbf24" />
    <circle cx="216.5" cy="332.4" r="10" fill="#78716c" />
    <circle cx="218.4" cy="351.6" r="10" fill="#fbbf24" />
    <circle cx="212.2" cy="366.9" r="10" fill="#78716c" />
    <circle cx="218.9" cy="383.4" r="10" fill="#fbbf24" />
    <circle cx="214.5" cy="443.5" r="10" fill="#fbbf24" />
    <circle cx="214.3" cy="455.5" r="10" fill="#78716c" />
    <circle cx="216.6" cy="474.1" r="10" fill="#78716c" />
    <circle cx="210.1" cy="485.0" r="10" fill="#fbbf24" />
    <circle cx="216.9" cy="497.2" r="10" fill="#fbbf24" />
    <circle cx="216.4" cy="517.7" r="10" fill="#fbbf24" />
    <circle cx="217.0" cy="543.1" r="10" fill="#78716c" />
    <circle cx="226.1" cy="18.7" r="10" fill="#a8a29e" />
    <circle cx="227.3" cy="31.6" r="10" fill="#78716c" />
    <circle cx="226.6" cy="69.8" r="10" fill="#a8a29e" />
    <circle cx="233.8" cy="81.6" r="10" fill="#a8a29e" />
    <circle cx="232.1" cy="99.5" r="10" fill="#78716c" />
    <circle cx="228.0" cy="113.5" r="10" fill="#a8a29e" />
    <circle cx="225.7" cy="137.9" r="10" fill="#78716c" />
    <circle cx="225.6" cy="151.8" r="10" fill="#78716c" />
    <circle cx="228.7" cy="170.4" r="10" fill="#fbbf24" />
    <circle cx="232.8" cy="195.3" r="10" fill="#a8a29e" />
    <circle cx="228.9" cy="226.6" r="10" fill="#fbbf24" />
    <circle cx="225.4" cy="247.2" r="10" fill="#78716c" />
    <circle cx="233.2" cy="261.3" r="10" fill="#a8a29e" />
    <circle cx="231.4" cy="278.8" r="10" fill="#78716c" />
    <circle cx="227.7" cy="289.1" r="10" fill="#a8a29e" />
    <circle cx="233.5" cy="304.1" r="10" fill="#a8a29e" />
    <circle cx="231.5" cy="324.9" r="10" fill="#a8a29e" />
    <circle cx="228.6" cy="337.7" r="10" fill="#fbbf24" />
    <circle cx="228.7" cy="346.1" r="10" fill="#fbbf24" />
    <circle cx="225.3" cy="360.4" r="10" fill="#a8a29e" />
    <circle cx="229.6" cy="379.9" r="10" fill="#fbbf24" />
    <circle cx="234.3" cy="399.4" r="10" fill="#fbbf24" />
    <circle cx="227.3" cy="405.1" r="10" fill="#fbbf24" />
    <circle cx="232.8" cy="424.3" r="10" fill="#a8a29e" />
    <circle cx="227.9" cy="439.4" r="10" fill="#78716c" />
    <circle cx="225.2" cy="458.1" r="10" fill="#78716c" />
    <circle cx="234.9" cy="485.5" r="10" fill="#fbbf24" />
    <circle cx="227.6" cy="528.9" r="10" fill="#a8a29e" />
    <circle cx="225.5" cy="542.8" r="10" fill="#fbbf24" />
    <circle cx="242.0" cy="6.4" r="10" fill="#78716c" />
    <circle cx="243.8" cy="16.2" r="10" fill="#fbbf24" />
    <circle cx="241.4" cy="50.5" r="10" fill="#78716c" />
    <circle cx="246.1" cy="84.1" r="10" fill="#a8a29e" />
    <circle cx="243.9" cy="96.2" r="10" fill="#a8a29e" />
    <circle cx="247.0" cy="139.8" r="10" fill="#fbbf24" />
    <circle cx="241.2" cy="156.0" r="10" fill="#fbbf24" />
    <circle cx="244.8" cy="190.0" r="10" fill="#78716c" />
    <circle cx="246.5" cy="203.0" r="10" fill="#a8a29e" />
    <circle cx="248.7" cy="215.5" r="10" fill="#a8a29e" />
    <circle cx="245.8" cy="226.3" r="10" fill="#a8a29e" />
    <circle cx="240.6" cy="245.9" r="10" fill="#fbbf24" />
    <circle cx="244.6" cy="263.9" r="10" fill="#78716c" />
    <circle cx="246.2" cy="276.7" r="10" fill="#fbbf24" />
    <circle cx="241.1" cy="294.6" r="10" fill="#a8a29e" />
    <circle cx="242.7" cy="307.1" r="10" fill="#a8a29e" />
    <circle cx="240.4" cy="322.0" r="10" fill="#a8a29e" />
    <circle cx="247.0" cy="330.4" r="10" fill="#a8a29e" />
    <circle cx="243.5" cy="369.5" r="10" fill="#fbbf24" />
    <circle cx="244.6" cy="375.2" r="10" fill="#78716c" />
    <circle cx="245.5" cy="410.7" r="10" fill="#78716c" />
    <circle cx="245.2" cy="426.8" r="10" fill="#fbbf24" />
    <circle cx="245.0" cy="442.4" r="10" fill="#fbbf24" />
    <circle cx="244.0" cy="466.3" r="10" fill="#78716c" />
    <circle cx="248.6" cy="488.8" r="10" fill="#78716c" />
    <circle cx="240.3" cy="500.3" r="10" fill="#78716c" />
    <circle cx="247.4" cy="513.8" r="10" fill="#78716c" />
    <circle cx="246.9" cy="547.0" r="10" fill="#78716c" />
    <circle cx="258.2" cy="20.2" r="10" fill="#78716c" />
    <circle cx="260.8" cy="61.5" r="10" fill="#fbbf24" />
    <circle cx="261.1" cy="99.2" r="10" fill="#a8a29e" />
    <circle cx="258.8" cy="106.6" r="10" fill="#78716c" />
    <circle cx="262.4" cy="126.8" r="10" fill="#fbbf24" />
    <circle cx="260.0" cy="153.7" r="10" fill="#78716c" />
    <circle cx="264.7" cy="170.7" r="10" fill="#a8a29e" />
    <circle cx="256.8" cy="184.7" r="10" fill="#78716c" />
    <circle cx="260.8" cy="197.3" r="10" fill="#fbbf24" />
    <circle cx="259.8" cy="210.4" r="10" fill="#78716c" />
    <circle cx="258.5" cy="227.5" r="10" fill="#fbbf24" />
    <circle cx="260.6" cy="257.7" r="10" fill="#78716c" />
    <circle cx="257.9" cy="274.3" r="10" fill="#fbbf24" />
    <circle cx="255.5" cy="301.5" r="10" fill="#fbbf24" />
    <circle cx="257.8" cy="350.2" r="10" fill="#fbbf24" />
    <circle cx="264.0" cy="362.6" r="10" fill="#fbbf24" />
    <circle cx="262.1" cy="375.2" r="10" fill="#78716c" />
    <circle cx="255.9" cy="396.5" r="10" fill="#a8a29e" />
    <circle cx="263.7" cy="407.9" r="10" fill="#78716c" />
    <circle cx="258.3" cy="420.7" r="10" fill="#a8a29e" />
    <circle cx="257.9" cy="472.5" r="10" fill="#78716c" />
    <circle cx="256.7" cy="488.1" r="10" fill="#a8a29e" />
    <circle cx="263.1" cy="502.3" r="10" fill="#78716c" />
    <circle cx="262.6" cy="540.6" r="10" fill="#fbbf24" />
    <circle cx="273.2" cy="4.9" r="10" fill="#fbbf24" />
    <circle cx="273.7" cy="46.3" r="10" fill="#a8a29e" />
    <circle cx="274.1" cy="75.5" r="10" fill="#a8a29e" />
    <circle cx="276.1" cy="106.9" r="10" fill="#a8a29e" />
    <circle cx="278.9" cy="141.4" r="10" fill="#fbbf24" />
    <circle cx="279.8" cy="171.6" r="10" fill="#fbbf24" />
    <circle cx="272.5" cy="182.1" r="10" fill="#78716c" />
    <circle cx="274.9" cy="216.9" r="10" fill="#fbbf24" />
    <circle cx="279.5" cy="225.4" r="10" fill="#fbbf24" />
    <circle cx="274.3" cy="272.2" r="10" fill="#a8a29e" />
    <circle cx="276.5" cy="303.8" r="10" fill="#a8a29e" />
    <circle cx="275.3" cy="316.1" r="10" fill="#fbbf24" />
    <circle cx="279.3" cy="353.1" r="10" fill="#a8a29e" />
    <circle cx="272.7" cy="364.8" r="10" fill="#a8a29e" />
    <circle cx="270.6" cy="375.1" r="10" fill="#fbbf24" />
    <circle cx="275.8" cy="414.4" r="10" fill="#fbbf24" />
    <circle cx="277.7" cy="436.4" r="10" fill="#fbbf24" />
    <circle cx="274.3" cy="472.1" r="10" fill="#78716c" />
    <circle cx="273.3" cy="483.2" r="10" fill="#a8a29e" />
    <circle cx="272.8" cy="496.4" r="10" fill="#78716c" />
    <circle cx="278.8" cy="514.3" r="10" fill="#a8a29e" />
    <circle cx="273.5" cy="525.7" r="10" fill="#a8a29e" />
    <circle cx="273.4" cy="543.9" r="10" fill="#78716c" />
    <circle cx="294.7" cy="16.4" r="10" fill="#a8a29e" />
    <circle cx="293.9" cy="66.6" r="10" fill="#a8a29e" />
    <circle cx="287.2" cy="97.8" r="10" fill="#a8a29e" />
    <circle cx="287.6" cy="107.0" r="10" fill="#fbbf24" />
    <circle cx="285.7" cy="125.6" r="10" fill="#fbbf24" />
    <circle cx="288.0" cy="144.7" r="10" fill="#78716c" />
    <circle cx="292.5" cy="167.1" r="10" fill="#a8a29e" />
    <circle cx="285.1" cy="182.8" r="10" fill="#a8a29e" />
    <circle cx="285.1" cy="204.8" r="10" fill="#78716c" />
    <circle cx="286.6" cy="213.9" r="10" fill="#a8a29e" />
    <circle cx="293.5" cy="240.7" r="10" fill="#fbbf24" />
    <circle cx="289.9" cy="273.3" r="10" fill="#fbbf24" />
    <circle cx="287.7" cy="306.2" r="10" fill="#fbbf24" />
    <circle cx="293.7" cy="322.3" r="10" fill="#a8a29e" />
    <circle cx="291.8" cy="350.1" r="10" fill="#a8a29e" />
    <circle cx="286.6" cy="365.2" r="10" fill="#fbbf24" />
    <circle cx="289.2" cy="381.7" r="10" fill="#78716c" />
    <circle cx="286.6" cy="397.3" r="10" fill="#a8a29e" />
    <circle cx="286.0" cy="429.7" r="10" fill="#78716c" />
    <circle cx="285.6" cy="437.9" r="10" fill="#a8a29e" />
    <circle cx="291.5" cy="471.2" r="10" fill="#a8a29e" />
    <circle cx="294.8" cy="484.0" r="10" fill="#78716c" />
    <circle cx="286.1" cy="504.1" r="10" fill="#a8a29e" />
    <circle cx="291.7" cy="516.3" r="10" fill="#78716c" />
    <circle cx="291.6" cy="530.4" r="10" fill="#fbbf24" />
    <circle cx="289.8" cy="545.1" r="10" fill="#78716c" />
    <circle cx="304.1" cy="7.7" r="10" fill="#a8a29e" />
    <circle cx="307.2" cy="16.1" r="10" fill="#fbbf24" />
    <circle cx="306.1" cy="33.3" r="10" fill="#78716c" />
    <circle cx="305.9" cy="45.9" r="10" fill="#a8a29e" />
    <circle cx="302.7" cy="63.9" r="10" fill="#78716c" />
    <circle cx="302.1" cy="78.2" r="10" fill="#fbbf24" />
    <circle cx="300.6" cy="127.8" r="10" fill="#fbbf24" />
    <circle cx="304.8" cy="144.8" r="10" fill="#a8a29e" />
    <circle cx="306.3" cy="157.3" r="10" fill="#78716c" />
    <circle cx="303.1" cy="174.0" r="10" fill="#fbbf24" />
    <circle cx="304.9" cy="188.5" r="10" fill="#78716c" />
    <circle cx="300.2" cy="201.4" r="10" fill="#fbbf24" />
    <circle cx="308.0" cy="214.6" r="10" fill="#78716c" />
    <circle cx="309.7" cy="229.1" r="10" fill="#78716c" />
    <circle cx="306.2" cy="242.4" r="10" fill="#78716c" />
    <circle cx="304.7" cy="263.9" r="10" fill="#a8a29e" />
    <circle cx="301.7" cy="276.1" r="10" fill="#78716c" />
    <circle cx="300.7" cy="287.5" r="10" fill="#a8a29e" />
    <circle cx="302.5" cy="307.0" r="10" fill="#78716c" />
    <circle cx="307.5" cy="324.2" r="10" fill="#a8a29e" />
    <circle cx="303.9" cy="348.1" r="10" fill="#a8a29e" />
    <circle cx="308.8" cy="383.5" r="10" fill="#78716c" />
    <circle cx="300.3" cy="391.2" r="10" fill="#a8a29e" />
    <circle cx="301.9" cy="429.9" r="10" fill="#78716c" />
    <circle cx="305.7" cy="437.9" r="10" fill="#78716c" />
    <circle cx="302.2" cy="472.6" r="10" fill="#a8a29e" />
    <circle cx="305.1" cy="484.7" r="10" fill="#78716c" />
    <circle cx="303.1" cy="504.2" r="10" fill="#a8a29e" />
    <circle cx="315.6" cy="2.3" r="10" fill="#a8a29e" />
    <circle cx="322.1" cy="52.6" r="10" fill="#a8a29e" />
    <circle cx="316.6" cy="76.6" r="10" fill="#78716c" />
    <circle cx="319.0" cy="106.1" r="10" fill="#a8a29e" />
    <circle cx="320.0" cy="135.8" r="10" fill="#a8a29e" />
    <circle cx="323.9" cy="155.8" r="10" fill="#fbbf24" />
    <circle cx="320.6" cy="169.3" r="10" fill="#a8a29e" />
    <circle cx="316.4" cy="186.8" r="10" fill="#fbbf24" />
    <circle cx="319.5" cy="196.0" r="10" fill="#fbbf24" />
    <circle cx="317.9" cy="219.3" r="10" fill="#fbbf24" />
    <circle cx="318.7" cy="243.9" r="10" fill="#fbbf24" />
    <circle cx="324.6" cy="259.4" r="10" fill="#fbbf24" />
    <circle cx="320.6" cy="277.5" r="10" fill="#78716c" />
    <circle cx="321.3" cy="300.9" r="10" fill="#fbbf24" />
    <circle cx="323.3" cy="324.4" r="10" fill="#fbbf24" />
    <circle cx="315.6" cy="336.1" r="10" fill="#fbbf24" />
    <circle cx="317.3" cy="346.0" r="10" fill="#78716c" />
    <circle cx="319.8" cy="364.8" r="10" fill="#fbbf24" />
    <circle cx="320.3" cy="397.4" r="10" fill="#fbbf24" />
    <circle cx="324.9" cy="438.7" r="10" fill="#a8a29e" />
    <circle cx="316.9" cy="456.0" r="10" fill="#78716c" />
    <circle cx="317.6" cy="474.7" r="10" fill="#a8a29e" />
    <circle cx="324.4" cy="485.7" r="10" fill="#a8a29e" />
    <circle cx="317.7" cy="503.8" r="10" fill="#a8a29e" />
    <circle cx="324.7" cy="547.4" r="10" fill="#78716c" />
    <circle cx="334.1" cy="20.1" r="10" fill="#78716c" />
    <circle cx="330.7" cy="38.9" r="10" fill="#78716c" />
    <circle cx="332.3" cy="50.8" r="10" fill="#fbbf24" />
    <circle cx="334.5" cy="67.4" r="10" fill="#a8a29e" />
    <circle cx="330.5" cy="96.8" r="10" fill="#fbbf24" />
    <circle cx="339.3" cy="137.3" r="10" fill="#fbbf24" />
    <circle cx="335.1" cy="154.0" r="10" fill="#fbbf24" />
    <circle cx="336.2" cy="189.2" r="10" fill="#fbbf24" />
    <circle cx="337.4" cy="204.9" r="10" fill="#fbbf24" />
    <circle cx="339.8" cy="210.8" r="10" fill="#fbbf24" />
    <circle cx="335.0" cy="248.1" r="10" fill="#a8a29e" />
    <circle cx="336.5" cy="263.9" r="10" fill="#78716c" />
    <circle cx="339.5" cy="335.4" r="10" fill="#a8a29e" />
    <circle cx="332.0" cy="368.2" r="10" fill="#fbbf24" />
    <circle cx="334.5" cy="382.8" r="10" fill="#a8a29e" />
    <circle cx="331.7" cy="391.4" r="10" fill="#78716c" />
    <circle cx="339.0" cy="408.8" r="10" fill="#78716c" />
    <circle cx="334.3" cy="420.1" r="10" fill="#a8a29e" />
    <circle cx="335.5" cy="439.6" r="10" fill="#a8a29e" />
    <circle cx="333.4" cy="451.1" r="10" fill="#78716c" />
    <circle cx="330.1" cy="504.3" r="10" fill="#78716c" />
    <circle cx="335.4" cy="514.0" r="10" fill="#78716c" />
    <circle cx="338.3" cy="528.6" r="10" fill="#fbbf24" />
    <circle cx="332.4" cy="543.0" r="10" fill="#a8a29e" />
    <circle cx="349.6" cy="6.9" r="10" fill="#78716c" />
    <circle cx="351.2" cy="24.9" r="10" fill="#a8a29e" />
    <circle cx="347.6" cy="33.0" r="10" fill="#a8a29e" />
    <circle cx="354.0" cy="52.1" r="10" fill="#78716c" />
    <circle cx="348.4" cy="63.7" r="10" fill="#a8a29e" />
    <circle cx="349.7" cy="81.6" r="10" fill="#a8a29e" />
    <circle cx="346.2" cy="108.8" r="10" fill="#fbbf24" />
    <circle cx="351.2" cy="128.9" r="10" fill="#a8a29e" />
    <circle cx="353.4" cy="157.4" r="10" fill="#a8a29e" />
    <circle cx="345.3" cy="195.9" r="10" fill="#a8a29e" />
    <circle cx="348.1" cy="225.8" r="10" fill="#a8a29e" />
    <circle cx="354.4" cy="259.4" r="10" fill="#a8a29e" />
    <circle cx="345.4" cy="294.9" r="10" fill="#78716c" />
    <circle cx="349.9" cy="306.7" r="10" fill="#78716c" />
    <circle cx="352.3" cy="320.9" r="10" fill="#78716c" />
    <circle cx="346.1" cy="398.1" r="10" fill="#fbbf24" />
    <circle cx="347.0" cy="406.3" r="10" fill="#a8a29e" />
    <circle cx="345.4" cy="426.7" r="10" fill="#fbbf24" />
    <circle cx="351.3" cy="436.3" r="10" fill="#fbbf24" />
    <circle cx="352.8" cy="456.9" r="10" fill="#fbbf24" />
    <circle cx="347.9" cy="480.6" r="10" fill="#78716c" />
    <circle cx="352.7" cy="502.5" r="10" fill="#78716c" />
    <circle cx="350.7" cy="526.0" r="10" fill="#fbbf24" />
    <circle cx="352.6" cy="541.0" r="10" fill="#a8a29e" />
    <circle cx="365.6" cy="9.9" r="10" fill="#78716c" />
    <circle cx="361.9" cy="17.9" r="10" fill="#fbbf24" />
    <circle cx="366.3" cy="49.4" r="10" fill="#78716c" />
    <circle cx="369.5" cy="91.2" r="10" fill="#78716c" />
    <circle cx="361.0" cy="113.6" r="10" fill="#a8a29e" />
    <circle cx="364.1" cy="135.8" r="10" fill="#a8a29e" />
    <circle cx="363.4" cy="152.6" r="10" fill="#fbbf24" />
    <circle cx="366.5" cy="217.2" r="10" fill="#a8a29e" />
    <circle cx="369.3" cy="232.3" r="10" fill="#fbbf24" />
    <circle cx="365.4" cy="241.1" r="10" fill="#fbbf24" />
    <circle cx="365.6" cy="261.7" r="10" fill="#78716c" />
    <circle cx="360.6" cy="288.7" r="10" fill="#a8a29e" />
    <circle cx="364.3" cy="317.5" r="10" fill="#fbbf24" />
    <circle cx="365.6" cy="335.1" r="10" fill="#78716c" />
    <circle cx="360.1" cy="366.2" r="10" fill="#78716c" />
    <circle cx="366.9" cy="390.6" r="10" fill="#fbbf24" />
    <circle cx="367.7" cy="409.3" r="10" fill="#fbbf24" />
    <circle cx="362.7" cy="428.7" r="10" fill="#a8a29e" />
    <circle cx="365.4" cy="459.0" r="10" fill="#a8a29e" />
    <circle cx="364.5" cy="467.7" r="10" fill="#fbbf24" />
    <circle cx="365.3" cy="487.6" r="10" fill="#fbbf24" />
    <circle cx="367.8" cy="501.7" r="10" fill="#78716c" />
    <circle cx="369.8" cy="519.9" r="10" fill="#fbbf24" />
    <circle cx="369.6" cy="534.9" r="10" fill="#78716c" />
    <circle cx="380.8" cy="6.7" r="10" fill="#78716c" />
    <circle cx="380.9" cy="39.3" r="10" fill="#fbbf24" />
    <circle cx="376.9" cy="46.3" r="10" fill="#fbbf24" />
    <circle cx="377.2" cy="107.7" r="10" fill="#a8a29e" />
    <circle cx="379.9" cy="139.4" r="10" fill="#78716c" />
    <circle cx="381.9" cy="150.5" r="10" fill="#78716c" />
    <circle cx="376.1" cy="166.8" r="10" fill="#fbbf24" />
    <circle cx="378.8" cy="189.2" r="10" fill="#fbbf24" />
    <circle cx="376.6" cy="205.0" r="10" fill="#fbbf24" />
    <circle cx="383.7" cy="244.2" r="10" fill="#78716c" />
    <circle cx="380.1" cy="263.1" r="10" fill="#a8a29e" />
    <circle cx="378.9" cy="302.1" r="10" fill="#78716c" />
    <circle cx="384.8" cy="338.3" r="10" fill="#a8a29e" />
    <circle cx="384.6" cy="346.7" r="10" fill="#a8a29e" />
    <circle cx="378.9" cy="362.5" r="10" fill="#78716c" />
    <circle cx="381.7" cy="380.9" r="10" fill="#a8a29e" />
    <circle cx="380.9" cy="391.1" r="10" fill="#fbbf24" />
    <circle cx="379.3" cy="407.1" r="10" fill="#a8a29e" />
    <circle cx="376.0" cy="420.6" r="10" fill="#a8a29e" />
    <circle cx="378.1" cy="481.8" r="10" fill="#a8a29e" />
    <circle cx="384.4" cy="495.8" r="10" fill="#fbbf24" />
    <circle cx="379.9" cy="510.2" r="10" fill="#78716c" />
    <circle cx="380.6" cy="546.7" r="10" fill="#a8a29e" />
    <circle cx="395.6" cy="8.5" r="10" fill="#a8a29e" />
    <circle cx="393.4" cy="16.7" r="10" fill="#78716c" />
    <circle cx="396.4" cy="30.1" r="10" fill="#fbbf24" />
    <circle cx="396.1" cy="92.6" r="10" fill="#a8a29e" />
    <circle cx="394.0" cy="124.0" r="10" fill="#a8a29e" />
    <circle cx="399.2" cy="143.4" r="10" fill="#78716c" />
    <circle cx="398.9" cy="156.5" r="10" fill="#a8a29e" />
    <circle cx="394.0" cy="189.0" r="10" fill="#78716c" />
    <circle cx="392.4" cy="200.2" r="10" fill="#78716c" />
    <circle cx="392.6" cy="211.6" r="10" fill="#fbbf24" />
    <circle cx="394.0" cy="275.1" r="10" fill="#78716c" />
    <circle cx="392.1" cy="290.3" r="10" fill="#fbbf24" />
    <circle cx="395.5" cy="321.5" r="10" fill="#fbbf24" />
    <circle cx="393.5" cy="369.7" r="10" fill="#a8a29e" />
    <circle cx="393.6" cy="383.3" r="10" fill="#fbbf24" />
    <circle cx="390.8" cy="394.8" r="10" fill="#a8a29e" />
    <circle cx="390.7" cy="405.1" r="10" fill="#78716c" />
    <circle cx="400.0" cy="424.6" r="10" fill="#78716c" />
    <circle cx="398.0" cy="451.1" r="10" fill="#78716c" />
    <circle cx="393.3" cy="468.3" r="10" fill="#fbbf24" />
    <circle cx="398.2" cy="489.7" r="10" fill="#a8a29e" />
    <circle cx="396.8" cy="501.0" r="10" fill="#a8a29e" />
    <circle cx="399.2" cy="545.3" r="10" fill="#78716c" /></g>
  <circle cx="0.7" cy="65.2" r="27.3" fill="#a8a29e" opacity="0.30" />
    <rect x="253.3" y="409.2" width="85.7" height="85.7" fill="#a8a29e" opacity="0.30" />
    <rect x="322.2" y="377.1" width="34.3" height="34.3" fill="#fbbf24" opacity="0.10" />
    <rect x="77.4" y="241.0" width="38.8" height="38.8" fill="#78716c" opacity="0.14" />
    <polygon points="136.3,368.6 173.2,405.5 136.3,442.5 99.4,405.5" fill="#fbbf24" opacity="0.37" />
    <rect x="298.3" y="71.0" width="51.2" height="51.2" fill="#a8a29e" opacity="0.33" />
    <rect x="312.8" y="473.3" width="43.7" height="43.7" fill="#fbbf24" opacity="0.22" />
    <polygon points="184.8,439.0 233.1,487.2 184.8,535.5 136.6,487.2" fill="#a8a29e" opacity="0.10" />
    <polygon points="120.7,257.8 147.2,284.3 120.7,310.7 94.3,284.3" fill="#78716c" opacity="0.33" />
    <rect x="369.6" y="121.8" width="34.2" height="34.2" fill="#a8a29e" opacity="0.38" />
    <polygon points="165.6,412.7 197.4,444.5 165.6,476.3 133.8,444.5" fill="#fbbf24" opacity="0.39" />
    <rect x="160.5" y="401.4" width="82.1" height="82.1" fill="#fbbf24" opacity="0.14" />
    <polygon points="109.7,17.5 126.3,50.8 93.0,50.8" fill="#a8a29e" opacity="0.39" />
    <circle cx="258.1" cy="90.0" r="31.6" fill="#a8a29e" opacity="0.33" />
    <polygon points="169.6,19.1 191.7,41.2 169.6,63.3 147.6,41.2" fill="#fbbf24" opacity="0.33" />
    <polygon points="250.9,201.7 285.1,235.9 250.9,270.0 216.8,235.9" fill="#78716c" opacity="0.13" />
    <rect x="166.6" y="417.1" width="58.5" height="58.5" fill="#fbbf24" opacity="0.30" />
  
  <!-- Text background banner -->
  <defs>
    <linearGradient id="text-bg-7" x1="0%" y1="0%" x2="100%" y2="0%">
      <stop offset="0%" style="stop-color:#000000;stop-opacity:0.7" />
      <stop offset="50%" style="stop-color:#a8a29e;stop-opacity:0.4" />
      <stop offset="100%" style="stop-color:#000000;stop-opacity:0.7" />
    </linearGradient>
  </defs>
  <rect x="0" y="494" width="400" height="56" fill="url(#text-bg-7)" />

  <!-- Text shadow -->
  <text x="200" y="522" font-family="system-ui, -apple-system, sans-serif" font-size="24" font-weight="bold" text-anchor="middle" fill="#000000" opacity="0.8">VHS Vic</text>

  <!-- Main text -->
  <text x="200" y="520" font-family="system-ui, -apple-system, sans-serif" font-size="24" font-weight="bold" text-anchor="middle" fill="#ffffff">VHS Vic</text>
  
  <!-- Rarity border -->
  <rect x="6" y="6" width="388" height="538"
        fill="none" stroke="#f97316" stroke-width="12" rx="8" ry="8" />
</svg>