<?xml version="1.0" encoding="UTF-8"?>
<svg xmlns="http://www.w3.org/2000/svg" viewBox="0 0 400 550" width="400" height="550">
  <defs>
    <linearGradient id="bg-gradient-131" x1="0%" y1="0%" x2="100%" y2="100%">
      <stop offset="0%" style="stop-color:#64748b;stop-opacity:0.26" />
      <stop offset="50%" style="stop-color:#94a3b8;stop-opacity:0.4" />
      <stop offset="100%" style="stop-color:#64748b;stop-opacity:0.26" />
    </linearGradient>
    
  <filter id="shadow-131">
    <feDropShadow dx="0" dy="2" stdDeviation="3" flood-opacity="0.8"/>
  </filter>
  </defs>
  <rect width="400" height="550" fill="url(#bg-gradient-0.44424962694756687)" />
  <g opacity="0.3"><rect x="1.0" y="147.4" width="55.7" height="55.7" fill="none" stroke="#fbbf24" stroke-width="2.1" opacity="0.23" />
    <rect x="120.4" y="289.7" width="65.3" height="65.3" fill="none" stroke="#64748b" stroke-width="2.1" opacity="0.18" />
    <circle cx="103.6" cy="415.6" r="38.2" fill="none" stroke="#fbbf24" stroke-width="2.9" opacity="0.25" />
    <circle cx="166.0" cy="242.0" r="20.6" fill="none" stroke="#fbbf24" stroke-width="1.9" opacity="0.29" />
    <rect x="5.1" y="196.2" width="62.0" height="62.0" fill="none" stroke="#94a3b8" stroke-width="2.9" opacity="0.12" />
    <circle cx="247.2" cy="381.8" r="28.8" fill="none" stroke="#64748b" stroke-width="1.7" opacity="0.18" />
    <rect x="5.2" y="350.9" width="23.7" height="23.7" fill="none" stroke="#fbbf24" stroke-width="1.6" opacity="0.20" />
    <circle cx="236.7" cy="276.6" r="26.4" fill="none" stroke="#fbbf24" stroke-width="1.8" opacity="0.23" />
    <rect x="353.2" y="5.0" width="72.3" height="72.3" fill="none" stroke="#94a3b8" stroke-width="2.8" opacity="0.27" />
    <circle cx="210.7" cy="193.2" r="35.2" fill="none" stroke="#64748b" stroke-width="1.5" opacity="0.23" />
    <circle cx="233.4" cy="51.1" r="33.9" fill="none" stroke="#fbbf24" stroke-width="2.8" opacity="0.23" />
    <rect x="217.0" y="369.0" width="32.2" height="32.2" fill="none" stroke="#fbbf24" stroke-width="1.6" opacity="0.16" />
    <circle cx="323.2" cy="99.6" r="12.0" fill="none" stroke="#fbbf24" stroke-width="1.9" opacity="0.23" /></g>
  <polygon points="229.6,-28.8 261.1,2.8 229.6,34.3 198.0,2.8" fill="#64748b" opacity="0.28" />
    <rect x="328.9" y="40.6" width="67.3" height="67.3" fill="#fbbf24" opacity="0.17" />
    <polygon points="362.5,240.7 398.4,276.6 362.5,312.5 326.6,276.6" fill="#fbbf24" opacity="0.27" />
    <circle cx="304.8" cy="425.3" r="25.2" fill="#94a3b8" opacity="0.15" />
    <polygon points="130.8,186.7 154.6,210.4 130.8,234.2 107.1,210.4" fill="#64748b" opacity="0.33" />
    <polygon points="219.3,57.5 260.8,99.0 219.3,140.6 177.7,99.0" fill="#fbbf24" opacity="0.39" />
    <rect x="344.9" y="447.0" width="34.5" height="34.5" fill="#64748b" opacity="0.29" />
    <polygon points="226.3,113.8 258.8,178.7 193.9,178.7" fill="#64748b" opacity="0.13" />
    <polygon points="318.3,263.1 333.3,293.0 303.4,293.0" fill="#fbbf24" opacity="0.28" />
    <circle cx="142.7" cy="250.0" r="27.7" fill="#94a3b8" opacity="0.37" />
    <polygon points="358.3,401.7 378.9,443.1 337.6,443.1" fill="#fbbf24" opacity="0.29" />
    <circle cx="74.2" cy="372.4" r="27.5" fill="#64748b" opacity="0.38" />
    <polygon points="366.9,459.4 407.9,541.3 325.9,541.3" fill="#64748b" opacity="0.37" />
    <rect x="314.1" y="87.6" width="43.4" height="43.4" fill="#94a3b8" opacity="0.32" />
    <polygon points="62.7,456.4 75.6,469.4 62.7,482.4 49.7,469.4" fill="#64748b" opacity="0.32" />
    <rect x="377.4" y="61.1" width="37.2" height="37.2" fill="#fbbf24" opacity="0.27" />
    <rect x="131.1" y="274.9" width="99.9" height="99.9" fill="#94a3b8" opacity="0.19" />
  
  <!-- Text background banner -->
  <defs>
    <linearGradient id="text-bg-25" x1="0%" y1="0%" x2="100%" y2="0%">
      <stop offset="0%" style="stop-color:#000000;stop-opacity:0.7" />
      <stop offset="50%" style="stop-color:#64748b;stop-opacity:0.4" />
      <stop offset="100%" style="stop-color:#000000;stop-opacity:0.7" />
    </linearGradient>
  </defs>
  <rect x="0" y="494" width="400" height="56" fill="url(#text-bg-25)" />

  <!-- Text shadow -->
  <text x="200" y="522" font-family="system-ui, -apple-system, sans-serif" font-size="24" font-weight="bold" text-anchor="middle" fill="#000000" opacity="0.8">Paul Atreides Ass-Traitor</text>

  <!-- Main text -->
  <text x="200" y="520" font-family="system-ui, -apple-system, sans-serif" font-size="24" font-weight="bold" text-anchor="middle" fill="#ffffff">Paul Atreides Ass-Traitor</text>
  
  <!-- Rarity border -->
  <rect x="6" y="6" width="388" height="538"
        fill="none" stroke="#f97316" stroke-width="12" rx="8" ry="8" />
</svg>