<?xml version="1.0" encoding="UTF-8"?>
<svg xmlns="http://www.w3.org/2000/svg" viewBox="0 0 400 550" width="400" height="550">
  <defs>
    <linearGradient id="bg-gradient-133" x1="0%" y1="0%" x2="100%" y2="100%">
      <stop offset="0%" style="stop-color:#64748b;stop-opacity:0.26" />
      <stop offset="50%" style="stop-color:#94a3b8;stop-opacity:0.4" />
      <stop offset="100%" style="stop-color:#64748b;stop-opacity:0.26" />
    </linearGradient>
    
  <filter id="shadow-133">
    <feDropShadow dx="0" dy="2" stdDeviation="3" flood-opacity="0.8"/>
  </filter>
  </defs>
  <rect width="400" height="550" fill="url(#bg-gradient-0.9057739588897675)" />
  <g opacity="0.3"><polyline points="0,31.2 5,33.9 10,36.4 15,38.6 20,40.4 25,42.0 30,43.1 35,43.9 40,44.2 45,44.1 50,43.6 55,42.6 60,41.3 65,39.6 70,37.5 75,35.2 80,32.6 85,29.8 90,26.9 95,23.9 100,20.9 105,17.9 110,15.0 115,12.3 120,9.8 125,7.5 130,5.6 135,4.0 140,2.8 145,1.9 150,1.5 155,1.6 160,2.0 165,2.9 170,4.1 175,5.8 180,7.8 185,10.0 190,12.6 195,15.3 200,18.2 205,21.2 210,24.2 215,27.2 220,30.1 225,32.9 230,35.4 235,37.8 240,39.8 245,41.4 250,42.7 255,43.6 260,44.1 265,44.2 270,43.8 275,43.0 280,41.8 285,40.3 290,38.3 295,36.1 300,33.6 305,30.9 310,28.0 315,25.1 320,22.0 325,19.0 330,16.1 335,13.3 340,10.7 345,8.4 350,6.3 355,4.6 360,3.2 365,2.2 370,1.6 375,1.5 380,1.8 385,2.5 390,3.6 395,5.1 400,7.0" fill="none" stroke="#94a3b8" stroke-width="1.8" opacity="0.16" />
    <polyline points="0,124.2 5,126.5 10,128.9 15,131.6 20,134.4 25,137.3 30,140.2 35,143.1 40,146.0 45,148.8 50,151.4 55,153.8 60,155.9 65,157.8 70,159.3 75,160.6 80,161.4 85,161.9 90,162.0 95,161.7 100,161.0 105,160.0 110,158.5 115,156.8 120,154.8 125,152.5 130,150.0 135,147.3 140,144.5 145,141.6 150,138.6 155,135.7 160,132.8 165,130.1 170,127.6 175,125.2 180,123.1 185,121.3 190,119.9 195,118.7 200,118.0 205,117.6 210,117.6 215,118.0 220,118.7 225,119.9 230,121.4 235,123.2 240,125.3 245,127.6 250,130.2 255,132.9 260,135.8 265,138.7 270,141.6 275,144.5 280,147.4 285,150.1 290,152.6 295,154.8 300,156.9 305,158.6 310,160.0 315,161.0 320,161.7 325,162.0 330,161.9 335,161.4 340,160.5 345,159.3 350,157.7 355,155.9 360,153.7 365,151.3 370,148.7 375,145.9 380,143.0 385,140.1 390,137.2 395,134.3 400,131.5" fill="none" stroke="#94a3b8" stroke-width="1.5" opacity="0.22" />
    <polyline points="0,213.8 5,212.2 10,210.6 15,209.0 20,207.2 25,205.5 30,203.8 35,202.1 40,200.5 45,199.0 50,197.7 55,196.4 60,195.4 65,194.5 70,193.8 75,193.3 80,193.1 85,193.0 90,193.2 95,193.6 100,194.2 105,195.0 110,196.0 115,197.2 120,198.5 125,200.0 130,201.5 135,203.1 140,204.8 145,206.6 150,208.3 155,210.0 160,211.6 165,213.2 170,214.6 175,216.0 180,217.1 185,218.1 190,218.9 195,219.5 200,219.9 205,220.1 210,220.1 215,219.8 220,219.3 225,218.6 230,217.7 235,216.7 240,215.5 245,214.1 250,212.6 255,211.0 260,209.3 265,207.6 270,205.9 275,204.2 280,202.5 285,200.9 290,199.4 295,198.0 300,196.7 305,195.6 310,194.7 315,194.0 320,193.4 325,193.1 330,193.0 335,193.2 340,193.5 345,194.1 350,194.8 355,195.8 360,196.9 365,198.2 370,199.6 375,201.2 380,202.8 385,204.5 390,206.2 395,207.9 400,209.6" fill="none" stroke="#64748b" stroke-width="2.8" opacity="0.27" />
    <polyline points="0,114.8 5,113.5 10,112.1 15,110.7 20,109.3 25,107.9 30,106.5 35,105.2 40,104.0 45,102.8 50,101.7 55,100.7 60,99.8 65,99.0 70,98.3 75,97.7 80,97.3 85,97.0 90,96.8 95,96.8 100,96.9 105,97.2 110,97.6 115,98.1 120,98.8 125,99.5 130,100.4 135,101.4 140,102.5 145,103.7 150,104.9 155,106.2 160,107.5 165,108.9 170,110.3 175,111.7 180,113.1 185,114.5 190,115.8 195,117.1 200,118.4 205,119.5 210,120.6 215,121.6 220,122.5 225,123.3 230,123.9 235,124.4 240,124.8 245,125.1 250,125.2 255,125.2 260,125.0 265,124.7 270,124.3 275,123.8 280,123.1 285,122.3 290,121.4 295,120.4 300,119.2 305,118.1 310,116.8 315,115.5 320,114.2 325,112.8 330,111.4 335,110.0 340,108.6 345,107.2 350,105.9 355,104.6 360,103.4 365,102.2 370,101.2 375,100.2 380,99.3 385,98.6 390,98.0 395,97.5 400,97.1" fill="none" stroke="#94a3b8" stroke-width="3.0" opacity="0.24" />
    <polyline points="0,288.1 5,285.9 10,283.6 15,281.5 20,279.5 25,277.6 30,275.9 35,274.4 40,273.2 45,272.3 50,271.7 55,271.4 60,271.4 65,271.8 70,272.5 75,273.5 80,274.7 85,276.3 90,278.0 95,280.0 100,282.0 105,284.2 110,286.4 115,288.6 120,290.8 125,292.9 130,294.8 135,296.6 140,298.1 145,299.3 150,300.3 155,301.0 160,301.4 165,301.4 170,301.1 175,300.5 180,299.6 185,298.3 190,296.9 195,295.2 200,293.3 205,291.2 210,289.1 215,286.9 220,284.6 225,282.4 230,280.4 235,278.4 240,276.6 245,275.0 250,273.7 255,272.6 260,271.9 265,271.5 270,271.4 275,271.6 280,272.1 285,273.0 290,274.1 295,275.6 300,277.2 305,279.1 310,281.1 315,283.2 320,285.4 325,287.7 330,289.8 335,292.0 340,294.0 345,295.8 350,297.4 355,298.8 360,299.9 365,300.7 370,301.2 375,301.4 380,301.3 385,300.8 390,300.0 395,298.9 400,297.6" fill="none" stroke="#fbbf24" stroke-width="2.7" opacity="0.29" />
    <polyline points="0,361.4 5,361.9 10,362.6 15,363.4 20,364.2 25,365.2 30,366.2 35,367.4 40,368.5 45,369.7 50,370.9 55,372.1 60,373.3 65,374.4 70,375.5 75,376.5 80,377.4 85,378.2 90,379.0 95,379.6 100,380.1 105,380.4 110,380.6 115,380.7 120,380.6 125,380.4 130,380.0 135,379.5 140,378.9 145,378.2 150,377.3 155,376.4 160,375.4 165,374.3 170,373.1 175,372.0 180,370.8 185,369.6 190,368.4 195,367.3 200,366.2 205,365.1 210,364.2 215,363.3 220,362.5 225,361.9 230,361.4 235,361.0 240,360.7 245,360.6 250,360.7 255,360.8 260,361.2 265,361.6 270,362.2 275,362.9 280,363.7 285,364.6 290,365.6 295,366.7 300,367.8 305,369.0 310,370.2 315,371.4 320,372.6 325,373.7 330,374.8 335,375.9 340,376.9 345,377.8 350,378.6 355,379.2 360,379.8 365,380.2 370,380.5 375,380.7 380,380.7 385,380.5 390,380.3 395,379.8 400,379.3" fill="none" stroke="#fbbf24" stroke-width="1.3" opacity="0.10" />
    <polyline points="0,182.2 5,182.5 10,182.6 15,182.5 20,182.0 25,181.2 30,180.1 35,178.8 40,177.2 45,175.3 50,173.3 55,171.0 60,168.5 65,165.9 70,163.2 75,160.3 80,157.4 85,154.4 90,151.5 95,148.5 100,145.6 105,142.7 110,139.9 115,137.3 120,134.8 125,132.5 130,130.4 135,128.6 140,126.9 145,125.6 150,124.5 155,123.6 160,123.1 165,122.9 170,122.9 175,123.3 180,124.0 185,124.9 190,126.1 195,127.6 200,129.3 205,131.3 210,133.5 215,135.9 220,138.4 225,141.1 230,143.9 235,146.8 240,149.7 245,152.7 250,155.7 255,158.7 260,161.5 265,164.4 270,167.0 275,169.6 280,172.0 285,174.2 290,176.1 295,177.9 300,179.4 305,180.6 310,181.5 315,182.2 320,182.6 325,182.6 330,182.4 335,181.9 340,181.1 345,180.0 350,178.6 355,177.0 360,175.1 365,173.0 370,170.7 375,168.3 380,165.6 385,162.9 390,160.0 395,157.1 400,154.1" fill="none" stroke="#fbbf24" stroke-width="2.1" opacity="0.18" />
    <polyline points="0,199.8 5,198.7 10,197.8 15,197.0 20,196.4 25,195.9 30,195.6 35,195.5 40,195.5 45,195.7 50,196.1 55,196.6 60,197.3 65,198.2 70,199.2 75,200.4 80,201.7 85,203.2 90,204.7 95,206.4 100,208.2 105,210.1 110,212.1 115,214.1 120,216.2 125,218.4 130,220.6 135,222.8 140,225.0 145,227.3 150,229.5 155,231.7 160,233.8 165,235.9 170,238.0 175,239.9 180,241.8 185,243.6 190,245.2 195,246.8 200,248.2 205,249.5 210,250.6 215,251.6 220,252.5 225,253.1 230,253.6 235,254.0 240,254.2 245,254.2 250,254.0 255,253.7 260,253.2 265,252.5 270,251.7 275,250.7 280,249.6 285,248.3 290,246.9 295,245.4 300,243.7 305,241.9 310,240.1 315,238.1 320,236.1 325,234.0 330,231.9 335,229.7 340,227.4 345,225.2 350,223.0 355,220.8 360,218.6 365,216.4 370,214.3 375,212.2 380,210.2 385,208.4 390,206.5 395,204.9 400,203.3" fill="none" stroke="#64748b" stroke-width="1.8" opacity="0.18" />
    <polyline points="0,95.2 5,99.3 10,103.1 15,106.4 20,109.3 25,111.7 30,113.4 35,114.6 40,115.0 45,114.9 50,114.1 55,112.6 60,110.5 65,107.9 70,104.8 75,101.2 80,97.2 85,93.0 90,88.6 95,84.0 100,79.4 105,74.9 110,70.6 115,66.5 120,62.8 125,59.5 130,56.7 135,54.4 140,52.7 145,51.7 150,51.3 155,51.5 160,52.4 165,54.0 170,56.1 175,58.8 180,62.0 185,65.6 190,69.6 195,73.9 200,78.4 205,82.9 210,87.5 215,92.0 220,96.3 225,100.3 230,104.0 235,107.2 240,110.0 245,112.2 250,113.8 255,114.8 260,115.1 265,114.7 270,113.7 275,112.1 280,109.9 285,107.1 290,103.9 295,100.2 300,96.2 305,91.9 310,87.4 315,82.8 320,78.2 325,73.8 330,69.5 335,65.5 340,61.9 345,58.7 350,56.0 355,53.9 360,52.4 365,51.5 370,51.3 375,51.7 380,52.8 385,54.5 390,56.8 395,59.6 400,62.9" fill="none" stroke="#64748b" stroke-width="2.5" opacity="0.20" />
    <polyline points="0,472.8 5,471.0 10,469.1 15,467.0 20,464.7 25,462.4 30,459.9 35,457.4 40,454.7 45,452.0 50,449.3 55,446.5 60,443.6 65,440.8 70,438.0 75,435.2 80,432.5 85,429.8 90,427.1 95,424.6 100,422.1 105,419.7 110,417.5 115,415.4 120,413.5 125,411.6 130,410.0 135,408.5 140,407.3 145,406.2 150,405.3 155,404.5 160,404.0 165,403.7 170,403.6 175,403.8 180,404.1 185,404.6 190,405.3 195,406.2 200,407.3 205,408.6 210,410.1 215,411.8 220,413.6 225,415.6 230,417.7 235,419.9 240,422.3 245,424.8 250,427.3 255,430.0 260,432.7 265,435.4 270,438.2 275,441.0 280,443.9 285,446.7 290,449.5 295,452.2 300,454.9 305,457.6 310,460.1 315,462.6 320,464.9 325,467.1 330,469.2 335,471.2 340,473.0 345,474.6 350,476.1 355,477.3 360,478.4 365,479.3 370,480.0 375,480.5 380,480.8 385,480.9 390,480.8 395,480.4 400,479.9" fill="none" stroke="#64748b" stroke-width="2.0" opacity="0.12" /></g>
  <circle cx="289.1" cy="0.5" r="40.9" fill="#64748b" opacity="0.25" />
    <rect x="275.4" y="461.3" width="56.8" height="56.8" fill="#fbbf24" opacity="0.27" />
    <circle cx="80.3" cy="382.0" r="32.3" fill="#fbbf24" opacity="0.16" />
    <circle cx="314.3" cy="440.4" r="29.6" fill="#94a3b8" opacity="0.34" />
    <polygon points="195.6,32.7 219.6,80.6 171.6,80.6" fill="#64748b" opacity="0.37" />
    <rect x="100.7" y="197.1" width="81.7" height="81.7" fill="#fbbf24" opacity="0.20" />
    <polygon points="292.1,333.9 320.7,391.0 263.5,391.0" fill="#64748b" opacity="0.39" />
    <rect x="342.1" y="376.2" width="97.2" height="97.2" fill="#fbbf24" opacity="0.38" />
    <rect x="186.1" y="461.7" width="58.0" height="58.0" fill="#94a3b8" opacity="0.22" />
    <circle cx="347.4" cy="155.5" r="40.3" fill="#64748b" opacity="0.28" />
    <rect x="-36.2" y="264.1" width="86.0" height="86.0" fill="#fbbf24" opacity="0.21" />
    <polygon points="224.0,342.8 252.5,371.3 224.0,399.8 195.5,371.3" fill="#64748b" opacity="0.26" />
    <rect x="227.4" y="3.2" width="46.3" height="46.3" fill="#64748b" opacity="0.21" />
    <rect x="337.1" y="29.7" width="48.0" height="48.0" fill="#fbbf24" opacity="0.36" />
  
  <!-- Text background banner -->
  <defs>
    <linearGradient id="text-bg-21" x1="0%" y1="0%" x2="100%" y2="0%">
      <stop offset="0%" style="stop-color:#000000;stop-opacity:0.7" />
      <stop offset="50%" style="stop-color:#64748b;stop-opacity:0.4" />
      <stop offset="100%" style="stop-color:#000000;stop-opacity:0.7" />
    </linearGradient>
  </defs>
  <rect x="0" y="494" width="400" height="56" fill="url(#text-bg-21)" />

  <!-- Text shadow -->
  <text x="200" y="522" font-family="system-ui, -apple-system, sans-serif" font-size="24" font-weight="bold" text-anchor="middle" fill="#000000" opacity="0.8">Duncan Idaho Dick-Hoe</text>

  <!-- Main text -->
  <text x="200" y="520" font-family="system-ui, -apple-system, sans-serif" font-size="24" font-weight="bold" text-anchor="middle" fill="#ffffff">Duncan Idaho Dick-Hoe</text>
  
  <!-- Rarity border -->
  <rect x="5" y="5" width="390" height="540"
        fill="none" stroke="#a855f7" stroke-width="10" rx="8" ry="8" />
</svg>