<?xml version="1.0" encoding="UTF-8"?>
<svg xmlns="http://www.w3.org/2000/svg" viewBox="0 0 400 550" width="400" height="550">
  <defs>
    <linearGradient id="bg-gradient-135" x1="0%" y1="0%" x2="100%" y2="100%">
      <stop offset="0%" style="stop-color:#64748b;stop-opacity:0.26" />
      <stop offset="50%" style="stop-color:#94a3b8;stop-opacity:0.4" />
      <stop offset="100%" style="stop-color:#64748b;stop-opacity:0.26" />
    </linearGradient>
    
  <filter id="shadow-135">
    <feDropShadow dx="0" dy="2" stdDeviation="3" flood-opacity="0.8"/>
  </filter>
  </defs>
  <rect width="400" height="550" fill="url(#bg-gradient-0.9963115709833801)" />
  <g opacity="0.3"><line x1="91.0" y1="0" x2="91.0" y2="550" stroke="#94a3b8" stroke-width="3.5" opacity="0.12" />
    <line x1="157.5" y1="0" x2="157.5" y2="550" stroke="#fbbf24" stroke-width="1.7" opacity="0.38" />
    <line x1="376.8" y1="0" x2="376.8" y2="550" stroke="#94a3b8" stroke-width="2.3" opacity="0.11" />
    <line x1="0" y1="346.5" x2="400" y2="346.5" stroke="#64748b" stroke-width="3.8" opacity="0.21" />
    <line x1="23.9" y1="0" x2="23.9" y2="550" stroke="#94a3b8" stroke-width="1.3" opacity="0.16" />
    <line x1="150.7" y1="0" x2="150.7" y2="550" stroke="#94a3b8" stroke-width="1.2" opacity="0.15" />
    <line x1="198.9" y1="0" x2="198.9" y2="550" stroke="#fbbf24" stroke-width="3.4" opacity="0.19" />
    <line x1="0" y1="469.0" x2="400" y2="469.0" stroke="#94a3b8" stroke-width="2.9" opacity="0.28" />
    <line x1="0" y1="202.8" x2="400" y2="202.8" stroke="#94a3b8" stroke-width="1.3" opacity="0.35" />
    <line x1="0" y1="51.1" x2="400" y2="51.1" stroke="#64748b" stroke-width="1.4" opacity="0.32" />
    <line x1="0" y1="142.1" x2="400" y2="142.1" stroke="#94a3b8" stroke-width="2.1" opacity="0.40" />
    <line x1="0" y1="24.2" x2="400" y2="24.2" stroke="#64748b" stroke-width="2.9" opacity="0.12" />
    <line x1="0" y1="240.9" x2="400" y2="240.9" stroke="#64748b" stroke-width="3.8" opacity="0.39" />
    <line x1="257.9" y1="0" x2="257.9" y2="550" stroke="#94a3b8" stroke-width="1.0" opacity="0.16" />
    <line x1="167.3" y1="0" x2="167.3" y2="550" stroke="#64748b" stroke-width="1.3" opacity="0.37" />
    <line x1="0" y1="481.0" x2="400" y2="481.0" stroke="#fbbf24" stroke-width="1.5" opacity="0.37" />
    <line x1="0" y1="191.5" x2="400" y2="191.5" stroke="#94a3b8" stroke-width="3.3" opacity="0.12" />
    <line x1="235.6" y1="0" x2="235.6" y2="550" stroke="#94a3b8" stroke-width="2.1" opacity="0.12" />
    <line x1="0" y1="387.6" x2="400" y2="387.6" stroke="#fbbf24" stroke-width="2.1" opacity="0.37" />
    <line x1="0" y1="138.3" x2="400" y2="138.3" stroke="#fbbf24" stroke-width="1.7" opacity="0.13" /></g>
  <polygon points="57.3,301.4 75.3,319.5 57.3,337.5 39.3,319.5" fill="#94a3b8" opacity="0.39" />
    <polygon points="318.9,310.1 338.6,349.5 299.2,349.5" fill="#fbbf24" opacity="0.23" />
    <polygon points="270.1,201.7 310.9,283.2 229.3,283.2" fill="#64748b" opacity="0.24" />
    <polygon points="357.0,232.7 381.8,282.2 332.3,282.2" fill="#64748b" opacity="0.27" />
    <polygon points="78.7,343.0 128.3,392.6 78.7,442.2 29.1,392.6" fill="#64748b" opacity="0.18" />
    <rect x="307.2" y="226.7" width="36.4" height="36.4" fill="#fbbf24" opacity="0.33" />
    <polygon points="292.3,514.9 314.7,537.3 292.3,559.8 269.8,537.3" fill="#94a3b8" opacity="0.21" />
    <polygon points="238.0,130.3 287.4,179.7 238.0,229.1 188.6,179.7" fill="#64748b" opacity="0.32" />
    <polygon points="265.8,218.2 290.2,267.0 241.4,267.0" fill="#94a3b8" opacity="0.39" />
    <rect x="182.7" y="-11.0" width="89.9" height="89.9" fill="#64748b" opacity="0.37" />
    <polygon points="343.2,71.7 356.0,97.4 330.3,97.4" fill="#64748b" opacity="0.13" />
  
  <!-- Text background banner -->
  <defs>
    <linearGradient id="text-bg-21" x1="0%" y1="0%" x2="100%" y2="0%">
      <stop offset="0%" style="stop-color:#000000;stop-opacity:0.7" />
      <stop offset="50%" style="stop-color:#64748b;stop-opacity:0.4" />
      <stop offset="100%" style="stop-color:#000000;stop-opacity:0.7" />
    </linearGradient>
  </defs>
  <rect x="0" y="494" width="400" height="56" fill="url(#text-bg-21)" />

  <!-- Text shadow -->
  <text x="200" y="522" font-family="system-ui, -apple-system, sans-serif" font-size="24" font-weight="bold" text-anchor="middle" fill="#000000" opacity="0.8">Coke Can Cock-Crasher</text>

  <!-- Main text -->
  <text x="200" y="520" font-family="system-ui, -apple-system, sans-serif" font-size="24" font-weight="bold" text-anchor="middle" fill="#ffffff">Coke Can Cock-Crasher</text>
  
  <!-- Rarity border -->
  <rect x="4" y="4" width="392" height="542"
        fill="none" stroke="#eab308" stroke-width="8" rx="8" ry="8" />
</svg>