<?xml version="1.0" encoding="UTF-8"?>
<svg xmlns="http://www.w3.org/2000/svg" viewBox="0 0 400 550" width="400" height="550">
  <defs>
    <linearGradient id="bg-gradient-136" x1="0%" y1="0%" x2="100%" y2="100%">
      <stop offset="0%" style="stop-color:#64748b;stop-opacity:0.26" />
      <stop offset="50%" style="stop-color:#94a3b8;stop-opacity:0.4" />
      <stop offset="100%" style="stop-color:#64748b;stop-opacity:0.26" />
    </linearGradient>
    
  <filter id="shadow-136">
    <feDropShadow dx="0" dy="2" stdDeviation="3" flood-opacity="0.8"/>
  </filter>
  </defs>
  <rect width="400" height="550" fill="url(#bg-gradient-0.43013524380512536)" />
  <g opacity="0.3"><line x1="0" y1="444.8" x2="400" y2="444.8" stroke="#64748b" stroke-width="1.3" opacity="0.14" />
    <line x1="0" y1="270.7" x2="400" y2="270.7" stroke="#fbbf24" stroke-width="1.3" opacity="0.23" />
    <line x1="294.0" y1="0" x2="294.0" y2="550" stroke="#94a3b8" stroke-width="2.9" opacity="0.21" />
    <line x1="0" y1="255.4" x2="400" y2="255.4" stroke="#fbbf24" stroke-width="1.5" opacity="0.17" />
    <line x1="262.3" y1="0" x2="262.3" y2="550" stroke="#94a3b8" stroke-width="1.4" opacity="0.30" />
    <line x1="0" y1="325.6" x2="400" y2="325.6" stroke="#64748b" stroke-width="1.0" opacity="0.22" />
    <line x1="274.8" y1="0" x2="274.8" y2="550" stroke="#94a3b8" stroke-width="1.1" opacity="0.38" />
    <line x1="116.1" y1="0" x2="116.1" y2="550" stroke="#64748b" stroke-width="2.6" opacity="0.18" />
    <line x1="0" y1="21.2" x2="400" y2="21.2" stroke="#94a3b8" stroke-width="2.2" opacity="0.20" />
    <line x1="271.6" y1="0" x2="271.6" y2="550" stroke="#94a3b8" stroke-width="3.8" opacity="0.21" />
    <line x1="316.0" y1="0" x2="316.0" y2="550" stroke="#64748b" stroke-width="4.0" opacity="0.33" />
    <line x1="392.8" y1="0" x2="392.8" y2="550" stroke="#64748b" stroke-width="2.6" opacity="0.15" />
    <line x1="0" y1="216.8" x2="400" y2="216.8" stroke="#94a3b8" stroke-width="1.2" opacity="0.26" />
    <line x1="165.3" y1="0" x2="165.3" y2="550" stroke="#64748b" stroke-width="3.9" opacity="0.18" />
    <line x1="0" y1="186.8" x2="400" y2="186.8" stroke="#fbbf24" stroke-width="2.3" opacity="0.26" />
    <line x1="110.4" y1="0" x2="110.4" y2="550" stroke="#94a3b8" stroke-width="3.7" opacity="0.39" />
    <line x1="23.0" y1="0" x2="23.0" y2="550" stroke="#64748b" stroke-width="4.0" opacity="0.17" />
    <line x1="126.3" y1="0" x2="126.3" y2="550" stroke="#fbbf24" stroke-width="2.5" opacity="0.15" />
    <line x1="298.4" y1="0" x2="298.4" y2="550" stroke="#64748b" stroke-width="1.9" opacity="0.20" />
    <line x1="0" y1="240.1" x2="400" y2="240.1" stroke="#fbbf24" stroke-width="1.0" opacity="0.15" />
    <line x1="344.3" y1="0" x2="344.3" y2="550" stroke="#94a3b8" stroke-width="2.4" opacity="0.26" />
    <line x1="0" y1="304.2" x2="400" y2="304.2" stroke="#fbbf24" stroke-width="1.2" opacity="0.23" />
    <line x1="233.9" y1="0" x2="233.9" y2="550" stroke="#64748b" stroke-width="1.6" opacity="0.13" />
    <line x1="0" y1="159.2" x2="400" y2="159.2" stroke="#fbbf24" stroke-width="1.4" opacity="0.11" />
    <line x1="165.7" y1="0" x2="165.7" y2="550" stroke="#64748b" stroke-width="3.5" opacity="0.20" /></g>
  <rect x="133.3" y="42.0" width="60.4" height="60.4" fill="#fbbf24" opacity="0.22" />
    <polygon points="95.6,174.4 136.7,256.6 54.5,256.6" fill="#64748b" opacity="0.14" />
    <polygon points="189.0,51.7 230.7,135.2 147.2,135.2" fill="#fbbf24" opacity="0.28" />
    <polygon points="285.3,83.7 324.5,162.0 246.1,162.0" fill="#94a3b8" opacity="0.26" />
    <rect x="362.1" y="291.1" width="55.7" height="55.7" fill="#94a3b8" opacity="0.22" />
    <circle cx="62.3" cy="385.2" r="48.9" fill="#fbbf24" opacity="0.37" />
    <circle cx="172.0" cy="436.4" r="33.8" fill="#fbbf24" opacity="0.21" />
    <polygon points="150.8,342.5 175.2,366.9 150.8,391.3 126.4,366.9" fill="#fbbf24" opacity="0.10" />
    <rect x="205.1" y="354.1" width="93.6" height="93.6" fill="#94a3b8" opacity="0.16" />
    <rect x="256.3" y="72.8" width="89.9" height="89.9" fill="#fbbf24" opacity="0.26" />
    <circle cx="184.8" cy="194.0" r="46.6" fill="#94a3b8" opacity="0.22" />
    <polygon points="187.5,204.8 223.1,276.0 152.0,276.0" fill="#64748b" opacity="0.15" />
    <polygon points="274.2,536.2 285.9,559.6 262.5,559.6" fill="#fbbf24" opacity="0.33" />
    <polygon points="0.0,-2.7 28.6,54.4 -28.5,54.4" fill="#64748b" opacity="0.13" />
  
  <!-- Text background banner -->
  <defs>
    <linearGradient id="text-bg-13" x1="0%" y1="0%" x2="100%" y2="0%">
      <stop offset="0%" style="stop-color:#000000;stop-opacity:0.7" />
      <stop offset="50%" style="stop-color:#64748b;stop-opacity:0.4" />
      <stop offset="100%" style="stop-color:#000000;stop-opacity:0.7" />
    </linearGradient>
  </defs>
  <rect x="0" y="494" width="400" height="56" fill="url(#text-bg-13)" />

  <!-- Text shadow -->
  <text x="200" y="522" font-family="system-ui, -apple-system, sans-serif" font-size="24" font-weight="bold" text-anchor="middle" fill="#000000" opacity="0.8">Diet Dad Cola</text>

  <!-- Main text -->
  <text x="200" y="520" font-family="system-ui, -apple-system, sans-serif" font-size="24" font-weight="bold" text-anchor="middle" fill="#ffffff">Diet Dad Cola</text>
  
  <!-- Rarity border -->
  <rect x="5" y="5" width="390" height="540"
        fill="none" stroke="#a855f7" stroke-width="10" rx="8" ry="8" />
</svg>