<?xml version="1.0" encoding="UTF-8"?>
<svg xmlns="http://www.w3.org/2000/svg" viewBox="0 0 400 550" width="400" height="550">
  <defs>
    <linearGradient id="bg-gradient-137" x1="0%" y1="0%" x2="100%" y2="100%">
      <stop offset="0%" style="stop-color:#64748b;stop-opacity:0.26" />
      <stop offset="50%" style="stop-color:#94a3b8;stop-opacity:0.4" />
      <stop offset="100%" style="stop-color:#64748b;stop-opacity:0.26" />
    </linearGradient>
    
  <filter id="shadow-137">
    <feDropShadow dx="0" dy="2" stdDeviation="3" flood-opacity="0.8"/>
  </filter>
  </defs>
  <rect width="400" height="550" fill="url(#bg-gradient-0.6529726379085332)" />
  <g opacity="0.3"><polyline points="0,1.3 5,4.2 10,7.3 15,10.4 20,13.7 25,17.1 30,20.4 35,23.8 40,27.1 45,30.3 50,33.4 55,36.3 60,39.0 65,41.5 70,43.7 75,45.6 80,47.2 85,48.5 90,49.5 95,50.1 100,50.3 105,50.2 110,49.7 115,48.9 120,47.7 125,46.2 130,44.4 135,42.2 140,39.8 145,37.2 150,34.4 155,31.3 160,28.2 165,24.9 170,21.6 175,18.2 180,14.8 185,11.5 190,8.3 195,5.2 200,2.3 205,-0.4 210,-3.0 215,-5.2 220,-7.2 225,-8.9 230,-10.2 235,-11.2 240,-11.9 245,-12.1 250,-12.1 255,-11.6 260,-10.9 265,-9.7 270,-8.2 275,-6.5 280,-4.4 285,-2.0 290,0.6 295,3.4 300,6.4 305,9.5 310,12.8 315,16.1 320,19.5 325,22.9 330,26.2 335,29.4 340,32.5 345,35.5 350,38.2 355,40.8 360,43.1 365,45.1 370,46.8 375,48.2 380,49.2 385,49.9 390,50.3 395,50.3 400,49.9" fill="none" stroke="#fbbf24" stroke-width="2.2" opacity="0.18" />
    <polyline points="0,194.0 5,190.2 10,186.3 15,182.3 20,178.2 25,174.1 30,169.9 35,165.9 40,161.9 45,158.1 50,154.6 55,151.2 60,148.2 65,145.5 70,143.2 75,141.3 80,139.8 85,138.7 90,138.1 95,137.9 100,138.2 105,139.0 110,140.2 115,141.8 120,143.8 125,146.2 130,149.0 135,152.1 140,155.5 145,159.1 150,163.0 155,167.0 160,171.0 165,175.2 170,179.3 175,183.4 180,187.4 185,191.3 190,194.9 195,198.4 200,201.5 205,204.3 210,206.8 215,208.9 220,210.6 225,211.8 230,212.6 235,213.0 240,212.9 245,212.3 250,211.3 255,209.8 260,207.9 265,205.7 270,203.0 275,200.1 280,196.8 285,193.2 290,189.5 295,185.6 300,181.5 305,177.4 310,173.2 315,169.1 320,165.1 325,161.1 330,157.4 335,153.9 340,150.6 345,147.7 350,145.1 355,142.8 360,141.0 365,139.5 370,138.6 375,138.0 380,138.0 385,138.3 390,139.2 395,140.5 400,142.2" fill="none" stroke="#fbbf24" stroke-width="2.9" opacity="0.11" />
    <polyline points="0,100.7 5,102.2 10,103.6 15,104.8 20,106.0 25,107.1 30,108.0 35,108.8 40,109.5 45,110.1 50,110.5 55,110.7 60,110.9 65,110.9 70,110.7 75,110.4 80,110.0 85,109.4 90,108.8 95,107.9 100,107.0 105,105.9 110,104.7 115,103.4 120,102.0 125,100.5 130,98.9 135,97.2 140,95.4 145,93.6 150,91.7 155,89.8 160,87.8 165,85.7 170,83.7 175,81.6 180,79.5 185,77.5 190,75.4 195,73.3 200,71.3 205,69.4 210,67.4 215,65.6 220,63.8 225,62.0 230,60.4 235,58.8 240,57.4 245,56.0 250,54.8 255,53.7 260,52.6 265,51.8 270,51.0 275,50.4 280,49.9 285,49.5 290,49.3 295,49.2 300,49.3 305,49.5 310,49.8 315,50.3 320,50.9 325,51.7 330,52.6 335,53.6 340,54.7 345,55.9 350,57.3 355,58.7 360,60.3 365,61.9 370,63.6 375,65.4 380,67.3 385,69.2 390,71.2 395,73.2 400,75.2" fill="none" stroke="#fbbf24" stroke-width="2.3" opacity="0.21" />
    <polyline points="0,57.3 5,55.3 10,53.7 15,52.5 20,51.6 25,51.2 30,51.2 35,51.6 40,52.4 45,53.7 50,55.3 55,57.2 60,59.5 65,62.0 70,64.8 75,67.7 80,70.8 85,73.8 90,76.9 95,80.0 100,82.9 105,85.6 110,88.1 115,90.3 120,92.3 125,93.8 130,95.0 135,95.8 140,96.2 145,96.1 150,95.7 155,94.8 160,93.5 165,91.8 170,89.8 175,87.5 180,84.9 185,82.2 190,79.2 195,76.2 200,73.1 205,70.0 210,67.0 215,64.1 220,61.4 225,58.9 230,56.7 235,54.9 240,53.3 245,52.2 250,51.5 255,51.2 260,51.3 265,51.8 270,52.7 275,54.1 280,55.8 285,57.8 290,60.2 295,62.8 300,65.6 305,68.6 310,71.6 315,74.7 320,77.8 325,80.8 330,83.6 335,86.3 340,88.8 345,90.9 350,92.7 355,94.2 360,95.3 365,96.0 370,96.2 375,96.0 380,95.5 385,94.5 390,93.1 395,91.3 400,89.2" fill="none" stroke="#64748b" stroke-width="2.5" opacity="0.19" />
    <polyline points="0,126.3 5,122.8 10,119.5 15,116.4 20,113.6 25,111.2 30,109.2 35,107.7 40,106.6 45,106.0 50,106.0 55,106.5 60,107.5 65,108.9 70,110.8 75,113.2 80,115.9 85,118.9 90,122.2 95,125.7 100,129.4 105,133.1 110,136.8 115,140.4 120,143.8 125,147.1 130,150.0 135,152.7 140,154.9 145,156.7 150,158.1 155,158.9 160,159.3 165,159.1 170,158.4 175,157.2 180,155.6 185,153.5 190,151.0 195,148.1 200,145.0 205,141.6 210,138.0 215,134.3 220,130.6 225,127.0 230,123.4 235,120.0 240,116.9 245,114.1 250,111.6 255,109.5 260,107.9 265,106.8 270,106.1 275,106.0 280,106.4 285,107.2 290,108.6 295,110.5 300,112.7 305,115.4 310,118.4 315,121.6 320,125.1 325,128.7 330,132.4 335,136.1 340,139.7 345,143.2 350,146.5 355,149.5 360,152.2 365,154.5 370,156.4 375,157.9 380,158.8 385,159.2 390,159.2 395,158.6 400,157.5" fill="none" stroke="#fbbf24" stroke-width="2.7" opacity="0.27" />
    <polyline points="0,274.1 5,272.7 10,271.2 15,269.5 20,267.6 25,265.6 30,263.5 35,261.2 40,258.8 45,256.3 50,253.8 55,251.2 60,248.5 65,245.8 70,243.0 75,240.3 80,237.6 85,234.9 90,232.3 95,229.7 100,227.2 105,224.8 110,222.6 115,220.4 120,218.4 125,216.5 130,214.8 135,213.2 140,211.9 145,210.7 150,209.7 155,208.9 160,208.4 165,208.0 170,207.8 175,207.9 180,208.2 185,208.7 190,209.4 195,210.2 200,211.3 205,212.6 210,214.1 215,215.7 220,217.5 225,219.5 230,221.6 235,223.8 240,226.2 245,228.6 250,231.2 255,233.8 260,236.4 265,239.1 270,241.8 275,244.6 280,247.3 285,250.0 290,252.6 295,255.2 300,257.8 305,260.2 310,262.5 315,264.7 320,266.8 325,268.7 330,270.5 335,272.1 340,273.5 345,274.8 350,275.8 355,276.7 360,277.3 365,277.8 370,278.0 375,278.0 380,277.8 385,277.4 390,276.8 395,276.0 400,274.9" fill="none" stroke="#64748b" stroke-width="1.7" opacity="0.22" />
    <polyline points="0,40.0 5,40.1 10,40.0 15,39.8 20,39.4 25,39.0 30,38.3 35,37.6 40,36.7 45,35.7 50,34.7 55,33.5 60,32.3 65,31.0 70,29.7 75,28.3 80,26.9 85,25.6 90,24.2 95,22.9 100,21.7 105,20.5 110,19.4 115,18.4 120,17.4 125,16.6 130,16.0 135,15.4 140,15.0 145,14.7 150,14.6 155,14.7 160,14.8 165,15.2 170,15.6 175,16.2 180,16.9 185,17.8 190,18.7 195,19.8 200,20.9 205,22.1 210,23.4 215,24.7 220,26.1 225,27.5 230,28.8 235,30.2 240,31.5 245,32.8 250,34.0 255,35.1 260,36.1 265,37.1 270,37.9 275,38.6 280,39.2 285,39.6 290,39.9 295,40.0 300,40.0 305,39.9 310,39.6 315,39.2 320,38.6 325,37.9 330,37.1 335,36.1 340,35.1 345,34.0 350,32.8 355,31.5 360,30.2 365,28.9 370,27.5 375,26.1 380,24.8 385,23.5 390,22.2 395,21.0 400,19.8" fill="none" stroke="#64748b" stroke-width="1.9" opacity="0.30" />
    <polyline points="0,148.6 5,146.5 10,144.5 15,142.4 20,140.3 25,138.3 30,136.3 35,134.5 40,132.8 45,131.3 50,130.0 55,128.9 60,128.0 65,127.3 70,126.9 75,126.7 80,126.8 85,127.1 90,127.7 95,128.6 100,129.6 105,130.9 110,132.4 115,134.0 120,135.8 125,137.7 130,139.7 135,141.7 140,143.8 145,145.9 150,148.0 155,150.0 160,151.9 165,153.7 170,155.3 175,156.8 180,158.1 185,159.2 190,160.0 195,160.7 200,161.0 205,161.1 210,161.0 215,160.6 220,160.0 225,159.1 230,158.0 235,156.7 240,155.2 245,153.5 250,151.7 255,149.8 260,147.8 265,145.7 270,143.6 275,141.5 280,139.5 285,137.5 290,135.6 295,133.8 300,132.2 305,130.8 310,129.5 315,128.5 320,127.7 325,127.1 330,126.8 335,126.7 340,126.9 345,127.4 350,128.0 355,129.0 360,130.1 365,131.5 370,133.0 375,134.7 380,136.5 385,138.5 390,140.5 395,142.6 400,144.7" fill="none" stroke="#fbbf24" stroke-width="2.7" opacity="0.23" /></g>
  <rect x="242.3" y="343.2" width="40.4" height="40.4" fill="#94a3b8" opacity="0.20" />
    <polygon points="189.7,301.7 205.1,317.2 189.7,332.6 174.2,317.2" fill="#64748b" opacity="0.31" />
    <circle cx="121.0" cy="459.0" r="44.0" fill="#64748b" opacity="0.36" />
    <rect x="236.2" y="466.6" width="64.0" height="64.0" fill="#64748b" opacity="0.34" />
    <circle cx="43.9" cy="181.6" r="31.2" fill="#94a3b8" opacity="0.24" />
    <polygon points="253.1,94.4 302.6,143.8 253.1,193.3 203.7,143.8" fill="#64748b" opacity="0.27" />
    <rect x="15.6" y="37.3" width="32.9" height="32.9" fill="#fbbf24" opacity="0.23" />
    <circle cx="256.7" cy="337.5" r="24.8" fill="#94a3b8" opacity="0.16" />
    <circle cx="347.5" cy="308.4" r="25.4" fill="#fbbf24" opacity="0.11" />
    <circle cx="164.5" cy="529.6" r="29.7" fill="#94a3b8" opacity="0.35" />
    <polygon points="202.8,106.6 251.7,155.4 202.8,204.3 154.0,155.4" fill="#94a3b8" opacity="0.11" />
  
  <!-- Text background banner -->
  <defs>
    <linearGradient id="text-bg-25" x1="0%" y1="0%" x2="100%" y2="0%">
      <stop offset="0%" style="stop-color:#000000;stop-opacity:0.7" />
      <stop offset="50%" style="stop-color:#64748b;stop-opacity:0.4" />
      <stop offset="100%" style="stop-color:#000000;stop-opacity:0.7" />
    </linearGradient>
  </defs>
  <rect x="0" y="494" width="400" height="56" fill="url(#text-bg-25)" />

  <!-- Text shadow -->
  <text x="200" y="522" font-family="system-ui, -apple-system, sans-serif" font-size="24" font-weight="bold" text-anchor="middle" fill="#000000" opacity="0.8">Billy Bookshelf Boner-...</text>

  <!-- Main text -->
  <text x="200" y="520" font-family="system-ui, -apple-system, sans-serif" font-size="24" font-weight="bold" text-anchor="middle" fill="#ffffff">Billy Bookshelf Boner-...</text>
  
  <!-- Rarity border -->
  <rect x="4" y="4" width="392" height="542"
        fill="none" stroke="#eab308" stroke-width="8" rx="8" ry="8" />
</svg>