<?xml version="1.0" encoding="UTF-8"?>
<svg xmlns="http://www.w3.org/2000/svg" viewBox="0 0 400 550" width="400" height="550">
  <defs>
    <linearGradient id="bg-gradient-140" x1="0%" y1="0%" x2="100%" y2="100%">
      <stop offset="0%" style="stop-color:#ef4444;stop-opacity:0.26" />
      <stop offset="50%" style="stop-color:#dc2626;stop-opacity:0.4" />
      <stop offset="100%" style="stop-color:#ef4444;stop-opacity:0.26" />
    </linearGradient>
    
  <filter id="shadow-140">
    <feDropShadow dx="0" dy="2" stdDeviation="3" flood-opacity="0.8"/>
  </filter>
  </defs>
  <rect width="400" height="550" fill="url(#bg-gradient-0.5605348485987633)" />
  <g opacity="0.3"><line x1="0" y1="366.9" x2="400" y2="366.9" stroke="#f97316" stroke-width="1.7" opacity="0.19" />
    <line x1="0" y1="367.4" x2="400" y2="367.4" stroke="#f97316" stroke-width="2.0" opacity="0.11" />
    <line x1="61.8" y1="0" x2="61.8" y2="550" stroke="#ef4444" stroke-width="3.0" opacity="0.30" />
    <line x1="133.6" y1="0" x2="133.6" y2="550" stroke="#dc2626" stroke-width="1.5" opacity="0.35" />
    <line x1="358.1" y1="0" x2="358.1" y2="550" stroke="#dc2626" stroke-width="2.1" opacity="0.37" />
    <line x1="315.7" y1="0" x2="315.7" y2="550" stroke="#f97316" stroke-width="2.6" opacity="0.34" />
    <line x1="281.3" y1="0" x2="281.3" y2="550" stroke="#f97316" stroke-width="1.5" opacity="0.38" />
    <line x1="0" y1="540.0" x2="400" y2="540.0" stroke="#ef4444" stroke-width="2.8" opacity="0.23" />
    <line x1="0" y1="498.3" x2="400" y2="498.3" stroke="#dc2626" stroke-width="3.9" opacity="0.35" />
    <line x1="278.6" y1="0" x2="278.6" y2="550" stroke="#dc2626" stroke-width="3.9" opacity="0.10" />
    <line x1="0" y1="440.7" x2="400" y2="440.7" stroke="#ef4444" stroke-width="3.8" opacity="0.15" />
    <line x1="0" y1="129.1" x2="400" y2="129.1" stroke="#f97316" stroke-width="3.1" opacity="0.11" />
    <line x1="0" y1="507.1" x2="400" y2="507.1" stroke="#dc2626" stroke-width="2.6" opacity="0.35" />
    <line x1="0" y1="263.5" x2="400" y2="263.5" stroke="#f97316" stroke-width="2.5" opacity="0.16" />
    <line x1="300.5" y1="0" x2="300.5" y2="550" stroke="#dc2626" stroke-width="1.2" opacity="0.28" />
    <line x1="0" y1="85.8" x2="400" y2="85.8" stroke="#dc2626" stroke-width="1.6" opacity="0.22" />
    <line x1="107.6" y1="0" x2="107.6" y2="550" stroke="#ef4444" stroke-width="3.5" opacity="0.28" />
    <line x1="12.5" y1="0" x2="12.5" y2="550" stroke="#ef4444" stroke-width="2.7" opacity="0.36" />
    <line x1="17.0" y1="0" x2="17.0" y2="550" stroke="#ef4444" stroke-width="2.8" opacity="0.22" />
    <line x1="0" y1="115.7" x2="400" y2="115.7" stroke="#f97316" stroke-width="2.1" opacity="0.29" />
    <line x1="0" y1="140.3" x2="400" y2="140.3" stroke="#ef4444" stroke-width="2.9" opacity="0.14" />
    <line x1="264.6" y1="0" x2="264.6" y2="550" stroke="#ef4444" stroke-width="2.2" opacity="0.38" />
    <line x1="392.8" y1="0" x2="392.8" y2="550" stroke="#f97316" stroke-width="1.5" opacity="0.17" />
    <line x1="0" y1="313.1" x2="400" y2="313.1" stroke="#f97316" stroke-width="3.8" opacity="0.28" />
    <line x1="379.2" y1="0" x2="379.2" y2="550" stroke="#ef4444" stroke-width="2.5" opacity="0.19" /></g>
  <circle cx="13.0" cy="527.2" r="24.2" fill="#ef4444" opacity="0.37" />
    <rect x="107.0" y="181.3" width="25.5" height="25.5" fill="#f97316" opacity="0.30" />
    <circle cx="379.9" cy="57.1" r="16.6" fill="#ef4444" opacity="0.19" />
    <rect x="213.6" y="210.2" width="33.7" height="33.7" fill="#dc2626" opacity="0.32" />
    <circle cx="343.7" cy="507.0" r="34.4" fill="#dc2626" opacity="0.22" />
    <rect x="106.6" y="322.2" width="34.1" height="34.1" fill="#dc2626" opacity="0.32" />
    <polygon points="173.1,44.1 185.8,56.8 173.1,69.6 160.4,56.8" fill="#f97316" opacity="0.36" />
    <polygon points="28.5,422.3 51.3,445.0 28.5,467.8 5.7,445.0" fill="#dc2626" opacity="0.16" />
    <circle cx="108.4" cy="469.1" r="49.7" fill="#dc2626" opacity="0.19" />
    <polygon points="284.6,154.5 325.5,236.4 243.6,236.4" fill="#ef4444" opacity="0.18" />
    <polygon points="158.9,381.3 182.7,428.8 135.1,428.8" fill="#f97316" opacity="0.28" />
    <circle cx="187.7" cy="135.4" r="39.9" fill="#f97316" opacity="0.22" />
    <rect x="75.8" y="59.4" width="46.6" height="46.6" fill="#ef4444" opacity="0.34" />
    <circle cx="72.2" cy="206.3" r="45.8" fill="#ef4444" opacity="0.14" />
  
  <!-- Text background banner -->
  <defs>
    <linearGradient id="text-bg-21" x1="0%" y1="0%" x2="100%" y2="0%">
      <stop offset="0%" style="stop-color:#000000;stop-opacity:0.7" />
      <stop offset="50%" style="stop-color:#ef4444;stop-opacity:0.4" />
      <stop offset="100%" style="stop-color:#000000;stop-opacity:0.7" />
    </linearGradient>
  </defs>
  <rect x="0" y="494" width="400" height="56" fill="url(#text-bg-21)" />

  <!-- Text shadow -->
  <text x="200" y="522" font-family="system-ui, -apple-system, sans-serif" font-size="24" font-weight="bold" text-anchor="middle" fill="#000000" opacity="0.8">Wingman Wiener-Wanker</text>

  <!-- Main text -->
  <text x="200" y="520" font-family="system-ui, -apple-system, sans-serif" font-size="24" font-weight="bold" text-anchor="middle" fill="#ffffff">Wingman Wiener-Wanker</text>
  
  <!-- Rarity border -->
  <rect x="5" y="5" width="390" height="540"
        fill="none" stroke="#a855f7" stroke-width="10" rx="8" ry="8" />
</svg>