<?xml version="1.0" encoding="UTF-8"?>
<svg xmlns="http://www.w3.org/2000/svg" viewBox="0 0 400 550" width="400" height="550">
  <defs>
    <linearGradient id="bg-gradient-141" x1="0%" y1="0%" x2="100%" y2="100%">
      <stop offset="0%" style="stop-color:#64748b;stop-opacity:0.26" />
      <stop offset="50%" style="stop-color:#94a3b8;stop-opacity:0.4" />
      <stop offset="100%" style="stop-color:#64748b;stop-opacity:0.26" />
    </linearGradient>
    
  <filter id="shadow-141">
    <feDropShadow dx="0" dy="2" stdDeviation="3" flood-opacity="0.8"/>
  </filter>
  </defs>
  <rect width="400" height="550" fill="url(#bg-gradient-0.8449966737534851)" />
  <g opacity="0.3"><polyline points="0,278.9 5,280.5 10,282.1 15,283.6 20,285.0 25,286.2 30,287.3 35,288.3 40,289.1 45,289.8 50,290.4 55,290.7 60,290.9 65,291.0 70,290.8 75,290.5 80,290.1 85,289.5 90,288.7 95,287.8 100,286.7 105,285.5 110,284.2 115,282.7 120,281.2 125,279.6 130,277.9 135,276.1 140,274.3 145,272.5 150,270.6 155,268.7 160,266.9 165,265.0 170,263.2 175,261.5 180,259.8 185,258.2 190,256.7 195,255.3 200,254.1 205,252.9 210,251.9 215,251.0 220,250.3 225,249.7 230,249.3 235,249.1 240,249.0 245,249.1 250,249.3 255,249.7 260,250.3 265,251.0 270,251.9 275,253.0 280,254.1 285,255.4 290,256.8 295,258.3 300,259.9 305,261.6 310,263.3 315,265.1 320,267.0 325,268.8 330,270.7 335,272.6 340,274.4 345,276.2 350,278.0 355,279.7 360,281.3 365,282.8 370,284.3 375,285.6 380,286.8 385,287.8 390,288.7 395,289.5 400,290.1" fill="none" stroke="#94a3b8" stroke-width="1.2" opacity="0.29" />
    <polyline points="0,439.9 5,438.4 10,436.9 15,435.5 20,434.2 25,433.0 30,431.8 35,430.8 40,429.8 45,429.0 50,428.2 55,427.6 60,427.1 65,426.7 70,426.4 75,426.3 80,426.2 85,426.3 90,426.5 95,426.9 100,427.3 105,427.9 110,428.5 115,429.3 120,430.2 125,431.2 130,432.3 135,433.5 140,434.7 145,436.1 150,437.5 155,439.0 160,440.6 165,442.2 170,443.9 175,445.6 180,447.4 185,449.1 190,450.9 195,452.7 200,454.6 205,456.4 210,458.2 215,459.9 220,461.7 225,463.4 230,465.1 235,466.7 240,468.3 245,469.8 250,471.2 255,472.5 260,473.8 265,475.0 270,476.1 275,477.1 280,477.9 285,478.7 290,479.4 295,479.9 300,480.4 305,480.7 310,480.9 315,481.0 320,480.9 325,480.8 330,480.5 335,480.1 340,479.6 345,478.9 350,478.2 355,477.4 360,476.4 365,475.3 370,474.2 375,473.0 380,471.6 385,470.2 390,468.8 395,467.2 400,465.6" fill="none" stroke="#64748b" stroke-width="1.6" opacity="0.18" />
    <polyline points="0,217.7 5,218.6 10,219.5 15,220.5 20,221.5 25,222.6 30,223.8 35,224.9 40,226.0 45,227.2 50,228.3 55,229.4 60,230.5 65,231.5 70,232.5 75,233.4 80,234.2 85,234.9 90,235.5 95,236.1 100,236.5 105,236.8 110,237.0 115,237.1 120,237.1 125,237.0 130,236.7 135,236.3 140,235.9 145,235.3 150,234.6 155,233.9 160,233.0 165,232.1 170,231.1 175,230.1 180,229.0 185,227.9 190,226.7 195,225.6 200,224.4 205,223.3 210,222.2 215,221.1 220,220.1 225,219.1 230,218.2 235,217.4 240,216.6 245,216.0 250,215.4 255,215.0 260,214.7 265,214.4 270,214.3 275,214.3 280,214.4 285,214.7 290,215.0 295,215.5 300,216.0 305,216.7 310,217.4 315,218.3 320,219.2 325,220.2 330,221.2 335,222.3 340,223.4 345,224.5 350,225.7 355,226.8 360,228.0 365,229.1 370,230.2 375,231.2 380,232.2 385,233.1 390,233.9 395,234.7 400,235.3" fill="none" stroke="#94a3b8" stroke-width="2.2" opacity="0.14" />
    <polyline points="0,360.6 5,356.3 10,351.9 15,347.5 20,343.2 25,339.1 30,335.2 35,331.6 40,328.3 45,325.5 50,323.1 55,321.3 60,320.0 65,319.2 70,319.0 75,319.4 80,320.4 85,322.0 90,324.0 95,326.6 100,329.6 105,333.0 110,336.7 115,340.7 120,344.9 125,349.3 130,353.7 135,358.0 140,362.3 145,366.4 150,370.3 155,373.8 160,377.0 165,379.7 170,382.0 175,383.7 180,385.0 185,385.6 190,385.7 195,385.2 200,384.1 205,382.4 210,380.3 215,377.6 220,374.6 225,371.1 230,367.3 235,363.3 240,359.0 245,354.7 250,350.3 255,345.9 260,341.7 265,337.6 270,333.8 275,330.3 280,327.2 285,324.6 290,322.4 295,320.7 300,319.6 305,319.1 310,319.1 315,319.7 320,320.9 325,322.6 330,324.9 335,327.6 340,330.8 345,334.3 350,338.1 355,342.2 360,346.5 365,350.9 370,355.3 375,359.6 380,363.8 385,367.8 390,371.6 395,375.0 400,378.0" fill="none" stroke="#94a3b8" stroke-width="1.1" opacity="0.29" />
    <polyline points="0,418.3 5,417.1 10,416.0 15,415.0 20,414.3 25,413.7 30,413.4 35,413.3 40,413.3 45,413.6 50,414.1 55,414.8 60,415.7 65,416.7 70,417.9 75,419.3 80,420.8 85,422.4 90,424.1 95,425.9 100,427.7 105,429.6 110,431.5 115,433.3 120,435.1 125,436.8 130,438.5 135,440.0 140,441.5 145,442.8 150,443.9 155,444.8 160,445.6 165,446.1 170,446.5 175,446.7 180,446.6 185,446.4 190,445.9 195,445.2 200,444.4 205,443.3 210,442.1 215,440.8 220,439.3 225,437.7 230,436.0 235,434.2 240,432.4 245,430.5 250,428.7 255,426.8 260,425.0 265,423.3 270,421.6 275,420.0 280,418.6 285,417.3 290,416.2 295,415.2 300,414.4 305,413.8 310,413.5 315,413.3 320,413.3 325,413.5 330,414.0 335,414.6 340,415.5 345,416.5 350,417.7 355,419.0 360,420.5 365,422.1 370,423.8 375,425.5 380,427.4 385,429.2 390,431.1 395,432.9 400,434.8" fill="none" stroke="#fbbf24" stroke-width="1.8" opacity="0.21" />
    <polyline points="0,211.4 5,215.6 10,219.8 15,223.7 20,227.4 25,230.8 30,233.9 35,236.5 40,238.7 45,240.4 50,241.6 55,242.3 60,242.5 65,242.1 70,241.1 75,239.7 80,237.7 85,235.3 90,232.5 95,229.3 100,225.7 105,221.9 110,217.8 115,213.6 120,209.3 125,205.0 130,200.7 135,196.5 140,192.5 145,188.8 150,185.3 155,182.2 160,179.5 165,177.2 170,175.4 175,174.1 180,173.4 185,173.1 190,173.4 195,174.3 200,175.6 205,177.5 210,179.8 215,182.6 220,185.8 225,189.3 230,193.1 235,197.1 240,201.3 245,205.6 250,209.9 255,214.2 260,218.4 265,222.4 270,226.2 275,229.7 280,232.9 285,235.7 290,238.0 295,239.9 300,241.3 305,242.2 310,242.5 315,242.3 320,241.5 325,240.2 330,238.5 335,236.2 340,233.5 345,230.4 350,226.9 355,223.2 360,219.2 365,215.0 370,210.8 375,206.4 380,202.1 385,197.9 390,193.9 395,190.0 400,186.5" fill="none" stroke="#fbbf24" stroke-width="1.4" opacity="0.16" />
    <polyline points="0,537.7 5,538.5 10,539.5 15,540.5 20,541.6 25,542.8 30,544.1 35,545.5 40,546.8 45,548.2 50,549.6 55,551.0 60,552.3 65,553.6 70,554.8 75,555.9 80,556.9 85,557.8 90,558.6 95,559.2 100,559.7 105,560.0 110,560.1 115,560.1 120,560.0 125,559.7 130,559.2 135,558.6 140,557.8 145,557.0 150,556.0 155,554.8 160,553.7 165,552.4 170,551.1 175,549.7 180,548.3 185,546.9 190,545.5 195,544.2 200,542.9 205,541.7 210,540.5 215,539.5 220,538.6 225,537.8 230,537.1 235,536.6 240,536.2 245,536.0 250,535.9 255,536.0 260,536.3 265,536.7 270,537.3 275,538.0 280,538.9 285,539.8 290,540.9 295,542.1 300,543.3 305,544.6 310,546.0 315,547.4 320,548.7 325,550.1 330,551.5 335,552.8 340,554.0 345,555.2 350,556.3 355,557.2 360,558.1 365,558.8 370,559.4 375,559.8 380,560.0 385,560.2 390,560.1 395,559.9 400,559.5" fill="none" stroke="#64748b" stroke-width="1.8" opacity="0.24" />
    <polyline points="0,346.9 5,344.4 10,341.9 15,339.4 20,336.9 25,334.5 30,332.1 35,329.7 40,327.5 45,325.3 50,323.3 55,321.4 60,319.5 65,317.9 70,316.3 75,314.9 80,313.7 85,312.6 90,311.8 95,311.1 100,310.5 105,310.2 110,310.0 115,310.1 120,310.3 125,310.7 130,311.3 135,312.1 140,313.0 145,314.1 150,315.4 155,316.9 160,318.4 165,320.2 170,322.0 175,324.0 180,326.1 185,328.3 190,330.6 195,332.9 200,335.3 205,337.8 210,340.3 215,342.8 220,345.3 225,347.8 230,350.2 235,352.7 240,355.1 245,357.4 250,359.6 255,361.8 260,363.8 265,365.8 270,367.6 275,369.3 280,370.8 285,372.2 290,373.4 295,374.4 300,375.3 305,376.0 310,376.6 315,376.9 320,377.0 325,377.0 330,376.8 335,376.4 340,375.8 345,375.0 350,374.0 355,372.9 360,371.6 365,370.2 370,368.6 375,366.9 380,365.0 385,363.0 390,360.9 395,358.7 400,356.4" fill="none" stroke="#64748b" stroke-width="2.0" opacity="0.11" /></g>
  <polygon points="50.4,172.7 63.2,185.4 50.4,198.1 37.7,185.4" fill="#94a3b8" opacity="0.30" />
    <polygon points="297.3,-1.2 315.4,35.1 279.1,35.1" fill="#94a3b8" opacity="0.32" />
    <circle cx="180.4" cy="316.3" r="41.6" fill="#64748b" opacity="0.28" />
    <rect x="0.0" y="215.0" width="99.7" height="99.7" fill="#94a3b8" opacity="0.24" />
    <circle cx="271.8" cy="165.6" r="37.6" fill="#64748b" opacity="0.25" />
    <polygon points="49.1,28.4 71.0,72.2 27.2,72.2" fill="#64748b" opacity="0.15" />
    <rect x="120.4" y="307.6" width="89.4" height="89.4" fill="#64748b" opacity="0.14" />
    <circle cx="275.1" cy="508.4" r="15.6" fill="#94a3b8" opacity="0.17" />
    <rect x="87.2" y="-32.2" width="64.9" height="64.9" fill="#64748b" opacity="0.21" />
    <rect x="247.5" y="220.5" width="35.7" height="35.7" fill="#94a3b8" opacity="0.21" />
    <rect x="344.5" y="69.1" width="99.2" height="99.2" fill="#94a3b8" opacity="0.27" />
  
  <!-- Text background banner -->
  <defs>
    <linearGradient id="text-bg-18" x1="0%" y1="0%" x2="100%" y2="0%">
      <stop offset="0%" style="stop-color:#000000;stop-opacity:0.7" />
      <stop offset="50%" style="stop-color:#64748b;stop-opacity:0.4" />
      <stop offset="100%" style="stop-color:#000000;stop-opacity:0.7" />
    </linearGradient>
  </defs>
  <rect x="0" y="494" width="400" height="56" fill="url(#text-bg-18)" />

  <!-- Text shadow -->
  <text x="200" y="522" font-family="system-ui, -apple-system, sans-serif" font-size="24" font-weight="bold" text-anchor="middle" fill="#000000" opacity="0.8">Skater Spawn Shawn</text>

  <!-- Main text -->
  <text x="200" y="520" font-family="system-ui, -apple-system, sans-serif" font-size="24" font-weight="bold" text-anchor="middle" fill="#ffffff">Skater Spawn Shawn</text>
  
  <!-- Rarity border -->
  <rect x="4" y="4" width="392" height="542"
        fill="none" stroke="#eab308" stroke-width="8" rx="8" ry="8" />
</svg>