<?xml version="1.0" encoding="UTF-8"?>
<svg xmlns="http://www.w3.org/2000/svg" viewBox="0 0 400 550" width="400" height="550">
  <defs>
    <linearGradient id="bg-gradient-142" x1="0%" y1="0%" x2="100%" y2="100%">
      <stop offset="0%" style="stop-color:#64748b;stop-opacity:0.26" />
      <stop offset="50%" style="stop-color:#94a3b8;stop-opacity:0.4" />
      <stop offset="100%" style="stop-color:#64748b;stop-opacity:0.26" />
    </linearGradient>
    
  <filter id="shadow-142">
    <feDropShadow dx="0" dy="2" stdDeviation="3" flood-opacity="0.8"/>
  </filter>
  </defs>
  <rect width="400" height="550" fill="url(#bg-gradient-0.5143232732079923)" />
  <g opacity="0.3"><polyline points="0,86.3 5,84.6 10,83.0 15,81.5 20,80.2 25,78.9 30,77.7 35,76.7 40,75.8 45,74.9 50,74.3 55,73.7 60,73.3 65,73.0 70,72.9 75,72.8 80,73.0 85,73.2 90,73.6 95,74.1 100,74.7 105,75.5 110,76.4 115,77.4 120,78.5 125,79.8 130,81.1 135,82.6 140,84.1 145,85.8 150,87.5 155,89.3 160,91.2 165,93.1 170,95.1 175,97.1 180,99.2 185,101.3 190,103.4 195,105.6 200,107.7 205,109.9 210,112.0 215,114.1 220,116.2 225,118.3 230,120.3 235,122.3 240,124.2 245,126.0 250,127.8 255,129.5 260,131.1 265,132.6 270,134.0 275,135.3 280,136.6 285,137.6 290,138.6 295,139.5 300,140.2 305,140.8 310,141.3 315,141.6 320,141.8 325,141.9 330,141.8 335,141.6 340,141.3 345,140.8 350,140.2 355,139.5 360,138.6 365,137.7 370,136.6 375,135.4 380,134.1 385,132.7 390,131.1 395,129.5 400,127.9" fill="none" stroke="#64748b" stroke-width="1.9" opacity="0.12" />
    <polyline points="0,159.4 5,159.3 10,159.4 15,159.8 20,160.5 25,161.5 30,162.7 35,164.2 40,165.9 45,167.9 50,170.0 55,172.4 60,174.9 65,177.6 70,180.5 75,183.4 80,186.5 85,189.6 90,192.8 95,195.9 100,199.1 105,202.3 110,205.4 115,208.4 120,211.3 125,214.1 130,216.8 135,219.3 140,221.6 145,223.7 150,225.6 155,227.3 160,228.7 165,229.9 170,230.8 175,231.5 180,231.8 185,231.9 190,231.7 195,231.3 200,230.5 205,229.5 210,228.2 215,226.7 220,224.9 225,223.0 230,220.8 235,218.4 240,215.8 245,213.1 250,210.2 255,207.3 260,204.2 265,201.1 270,197.9 275,194.7 280,191.6 285,188.4 290,185.3 295,182.3 300,179.4 305,176.6 310,174.0 315,171.5 320,169.2 325,167.1 330,165.3 335,163.6 340,162.2 345,161.1 350,160.2 355,159.6 360,159.3 365,159.3 370,159.5 375,160.0 380,160.8 385,161.9 390,163.2 395,164.7 400,166.5" fill="none" stroke="#fbbf24" stroke-width="1.7" opacity="0.14" />
    <polyline points="0,412.6 5,411.7 10,410.5 15,409.0 20,407.2 25,405.1 30,402.7 35,400.1 40,397.3 45,394.3 50,391.1 55,387.8 60,384.4 65,380.9 70,377.4 75,373.9 80,370.4 85,367.0 90,363.7 95,360.5 100,357.4 105,354.5 110,351.8 115,349.4 120,347.2 125,345.3 130,343.7 135,342.4 140,341.4 145,340.7 150,340.4 155,340.4 160,340.8 165,341.4 170,342.5 175,343.8 180,345.4 185,347.4 190,349.6 195,352.0 200,354.7 205,357.6 210,360.7 215,363.9 220,367.2 225,370.7 230,374.2 235,377.7 240,381.2 245,384.7 250,388.0 255,391.3 260,394.5 265,397.5 270,400.3 275,402.9 280,405.2 285,407.3 290,409.1 295,410.6 300,411.8 305,412.7 310,413.2 315,413.4 320,413.2 325,412.8 330,411.9 335,410.8 340,409.4 345,407.6 350,405.6 355,403.3 360,400.7 365,397.9 370,395.0 375,391.8 380,388.6 385,385.2 390,381.7 395,378.2 400,374.7" fill="none" stroke="#94a3b8" stroke-width="2.4" opacity="0.26" />
    <polyline points="0,500.6 5,503.4 10,506.1 15,508.7 20,511.2 25,513.5 30,515.6 35,517.4 40,518.9 45,520.1 50,521.0 55,521.5 60,521.6 65,521.4 70,520.8 75,519.9 80,518.6 85,517.1 90,515.2 95,513.1 100,510.7 105,508.2 110,505.6 115,502.8 120,500.0 125,497.3 130,494.5 135,491.9 140,489.5 145,487.2 150,485.2 155,483.4 160,481.9 165,480.7 170,479.9 175,479.5 180,479.4 185,479.6 190,480.3 195,481.2 200,482.6 205,484.2 210,486.1 215,488.3 220,490.6 225,493.2 230,495.8 235,498.6 240,501.4 245,504.1 250,506.8 255,509.4 260,511.9 265,514.1 270,516.1 275,517.9 280,519.3 285,520.4 290,521.2 295,521.6 300,521.6 305,521.3 310,520.6 315,519.6 320,518.2 325,516.6 330,514.6 335,512.4 340,510.0 345,507.5 350,504.8 355,502.0 360,499.3 365,496.5 370,493.8 375,491.2 380,488.8 385,486.6 390,484.6 395,482.9 400,481.5" fill="none" stroke="#64748b" stroke-width="2.3" opacity="0.29" />
    <polyline points="0,217.3 5,214.3 10,211.6 15,209.2 20,207.2 25,205.6 30,204.4 35,203.7 40,203.4 45,203.6 50,204.3 55,205.4 60,207.0 65,208.9 70,211.2 75,213.9 80,216.8 85,220.0 90,223.3 95,226.8 100,230.3 105,233.8 110,237.2 115,240.5 120,243.7 125,246.6 130,249.1 135,251.4 140,253.3 145,254.7 150,255.8 155,256.4 160,256.5 165,256.1 170,255.3 175,254.1 180,252.4 185,250.3 190,247.9 195,245.1 200,242.1 205,238.9 210,235.5 215,232.0 220,228.5 225,225.0 230,221.6 235,218.3 240,215.3 245,212.5 250,210.0 255,207.9 260,206.1 265,204.8 270,203.9 275,203.5 280,203.5 285,204.0 290,205.0 295,206.4 300,208.2 305,210.4 310,212.9 315,215.8 320,218.9 325,222.1 330,225.6 335,229.1 340,232.6 345,236.1 350,239.4 355,242.6 360,245.6 365,248.3 370,250.7 375,252.7 380,254.3 385,255.5 390,256.2 395,256.5 400,256.3" fill="none" stroke="#94a3b8" stroke-width="2.4" opacity="0.24" />
    <polyline points="0,264.7 5,264.0 10,263.2 15,262.5 20,261.8 25,261.1 30,260.4 35,259.7 40,259.1 45,258.6 50,258.0 55,257.5 60,257.1 65,256.7 70,256.3 75,256.0 80,255.7 85,255.5 90,255.3 95,255.2 100,255.1 105,255.0 110,255.1 115,255.1 120,255.3 125,255.4 130,255.7 135,255.9 140,256.3 145,256.6 150,257.0 155,257.5 160,258.0 165,258.5 170,259.1 175,259.7 180,260.4 185,261.0 190,261.7 195,262.4 200,263.2 205,263.9 210,264.7 215,265.5 220,266.3 225,267.1 230,267.9 235,268.7 240,269.5 245,270.2 250,271.0 255,271.8 260,272.5 265,273.2 270,273.9 275,274.6 280,275.3 285,275.9 290,276.5 295,277.0 300,277.5 305,278.0 310,278.4 315,278.8 320,279.1 325,279.4 330,279.6 335,279.8 340,279.9 345,280.0 350,280.0 355,280.0 360,280.0 365,279.8 370,279.7 375,279.4 380,279.2 385,278.9 390,278.5 395,278.1 400,277.6" fill="none" stroke="#64748b" stroke-width="1.5" opacity="0.15" /></g>
  <circle cx="163.1" cy="411.8" r="15.3" fill="#64748b" opacity="0.29" />
    <rect x="269.5" y="281.2" width="99.7" height="99.7" fill="#fbbf24" opacity="0.10" />
    <rect x="191.0" y="128.8" width="75.3" height="75.3" fill="#94a3b8" opacity="0.29" />
    <polygon points="17.2,204.5 40.0,250.1 -5.6,250.1" fill="#64748b" opacity="0.26" />
    <rect x="-13.2" y="0.5" width="37.4" height="37.4" fill="#94a3b8" opacity="0.15" />
    <circle cx="252.4" cy="300.0" r="27.8" fill="#94a3b8" opacity="0.37" />
    <polygon points="134.3,1.3 168.1,69.0 100.5,69.0" fill="#fbbf24" opacity="0.35" />
    <polygon points="97.8,119.5 119.6,163.1 76.0,163.1" fill="#94a3b8" opacity="0.34" />
  
  <!-- Text background banner -->
  <defs>
    <linearGradient id="text-bg-18" x1="0%" y1="0%" x2="100%" y2="0%">
      <stop offset="0%" style="stop-color:#000000;stop-opacity:0.7" />
      <stop offset="50%" style="stop-color:#64748b;stop-opacity:0.4" />
      <stop offset="100%" style="stop-color:#000000;stop-opacity:0.7" />
    </linearGradient>
  </defs>
  <rect x="0" y="494" width="400" height="56" fill="url(#text-bg-18)" />

  <!-- Text shadow -->
  <text x="200" y="522" font-family="system-ui, -apple-system, sans-serif" font-size="24" font-weight="bold" text-anchor="middle" fill="#000000" opacity="0.8">Gamer Gizzard Greg</text>

  <!-- Main text -->
  <text x="200" y="520" font-family="system-ui, -apple-system, sans-serif" font-size="24" font-weight="bold" text-anchor="middle" fill="#ffffff">Gamer Gizzard Greg</text>
  
  <!-- Rarity border -->
  <rect x="3" y="3" width="394" height="544"
        fill="none" stroke="#3b82f6" stroke-width="6" rx="8" ry="8" />
</svg>