<?xml version="1.0" encoding="UTF-8"?>
<svg xmlns="http://www.w3.org/2000/svg" viewBox="0 0 400 550" width="400" height="550">
  <defs>
    <linearGradient id="bg-gradient-143" x1="0%" y1="0%" x2="100%" y2="100%">
      <stop offset="0%" style="stop-color:#64748b;stop-opacity:0.26" />
      <stop offset="50%" style="stop-color:#94a3b8;stop-opacity:0.4" />
      <stop offset="100%" style="stop-color:#64748b;stop-opacity:0.26" />
    </linearGradient>
    
  <filter id="shadow-143">
    <feDropShadow dx="0" dy="2" stdDeviation="3" flood-opacity="0.8"/>
  </filter>
  </defs>
  <rect width="400" height="550" fill="url(#bg-gradient-0.4820649200119078)" />
  <g opacity="0.3"><polyline points="0,283.4 5,283.5 10,283.2 15,282.4 20,281.2 25,279.6 30,277.6 35,275.2 40,272.5 45,269.5 50,266.3 55,262.8 60,259.2 65,255.5 70,251.8 75,248.1 80,244.4 85,240.9 90,237.5 95,234.3 100,231.5 105,228.9 110,226.7 115,224.9 120,223.4 125,222.4 130,221.9 135,221.8 140,222.1 145,222.9 150,224.1 155,225.8 160,227.8 165,230.2 170,233.0 175,236.0 180,239.3 185,242.7 190,246.3 195,250.0 200,253.8 205,257.5 210,261.2 215,264.7 220,268.0 225,271.2 230,274.0 235,276.5 240,278.7 245,280.5 250,281.9 255,282.9 260,283.4 265,283.5 270,283.1 275,282.3 280,281.0 285,279.3 290,277.2 295,274.8 300,272.0 305,269.0 310,265.7 315,262.2 320,258.6 325,254.9 330,251.2 335,247.4 340,243.8 345,240.3 350,237.0 355,233.8 360,231.0 365,228.5 370,226.4 375,224.6 380,223.2 385,222.3 390,221.8 395,221.8 400,222.2" fill="none" stroke="#94a3b8" stroke-width="2.0" opacity="0.20" />
    <polyline points="0,18.7 5,18.5 10,18.4 15,18.4 20,18.4 25,18.4 30,18.5 35,18.7 40,18.9 45,19.2 50,19.6 55,19.9 60,20.4 65,20.9 70,21.4 75,22.0 80,22.6 85,23.3 90,24.0 95,24.8 100,25.5 105,26.3 110,27.1 115,28.0 120,28.8 125,29.7 130,30.6 135,31.5 140,32.4 145,33.2 150,34.1 155,35.0 160,35.8 165,36.6 170,37.5 175,38.2 180,39.0 185,39.7 190,40.4 195,41.1 200,41.7 205,42.2 210,42.7 215,43.2 220,43.6 225,44.0 230,44.3 235,44.6 240,44.8 245,44.9 250,45.0 255,45.0 260,45.0 265,44.9 270,44.8 275,44.6 280,44.3 285,44.0 290,43.6 295,43.2 300,42.7 305,42.2 310,41.6 315,41.0 320,40.4 325,39.7 330,38.9 335,38.2 340,37.4 345,36.6 350,35.8 355,34.9 360,34.0 365,33.2 370,32.3 375,31.4 380,30.5 385,29.6 390,28.8 395,27.9 400,27.1" fill="none" stroke="#94a3b8" stroke-width="2.1" opacity="0.27" />
    <polyline points="0,-3.8 5,-3.0 10,-2.1 15,-1.1 20,-0.1 25,1.0 30,2.2 35,3.4 40,4.7 45,5.9 50,7.2 55,8.5 60,9.7 65,11.0 70,12.1 75,13.3 80,14.3 85,15.3 90,16.3 95,17.1 100,17.8 105,18.4 110,18.9 115,19.3 120,19.6 125,19.7 130,19.7 135,19.6 140,19.4 145,19.1 150,18.6 155,18.0 160,17.3 165,16.5 170,15.6 175,14.7 180,13.6 185,12.5 190,11.3 195,10.1 200,8.9 205,7.6 210,6.3 215,5.1 220,3.8 225,2.6 230,1.4 235,0.3 240,-0.8 245,-1.8 250,-2.7 255,-3.5 260,-4.3 265,-4.9 270,-5.4 275,-5.8 280,-6.1 285,-6.2 290,-6.2 295,-6.1 300,-5.9 305,-5.5 310,-5.1 315,-4.5 320,-3.8 325,-3.0 330,-2.1 335,-1.2 340,-0.1 345,1.0 350,2.2 355,3.4 360,4.6 365,5.9 370,7.2 375,8.4 380,9.7 385,10.9 390,12.1 395,13.2 400,14.3" fill="none" stroke="#fbbf24" stroke-width="1.2" opacity="0.22" />
    <polyline points="0,64.9 5,64.3 10,63.7 15,63.1 20,62.5 25,62.0 30,61.5 35,61.0 40,60.5 45,60.1 50,59.7 55,59.3 60,59.0 65,58.7 70,58.4 75,58.2 80,57.9 85,57.8 90,57.6 95,57.5 100,57.5 105,57.5 110,57.5 115,57.5 120,57.6 125,57.8 130,57.9 135,58.1 140,58.4 145,58.7 150,59.0 155,59.3 160,59.7 165,60.1 170,60.5 175,61.0 180,61.5 185,62.0 190,62.5 195,63.1 200,63.6 205,64.2 210,64.8 215,65.4 220,66.1 225,66.7 230,67.4 235,68.0 240,68.6 245,69.3 250,69.9 255,70.6 260,71.2 265,71.8 270,72.4 275,73.0 280,73.6 285,74.2 290,74.7 295,75.3 300,75.8 305,76.2 310,76.7 315,77.1 320,77.5 325,77.9 330,78.2 335,78.5 340,78.7 345,79.0 350,79.2 355,79.3 360,79.4 365,79.5 370,79.6 375,79.6 380,79.5 385,79.4 390,79.3 395,79.2 400,79.0" fill="none" stroke="#64748b" stroke-width="2.0" opacity="0.18" />
    <polyline points="0,316.4 5,315.9 10,315.4 15,315.0 20,314.7 25,314.5 30,314.3 35,314.3 40,314.3 45,314.4 50,314.5 55,314.8 60,315.2 65,315.6 70,316.1 75,316.6 80,317.3 85,317.9 90,318.7 95,319.5 100,320.3 105,321.2 110,322.1 115,323.0 120,323.9 125,324.9 130,325.8 135,326.7 140,327.7 145,328.5 150,329.4 155,330.2 160,331.0 165,331.7 170,332.4 175,333.0 180,333.5 185,334.0 190,334.4 195,334.7 200,334.9 205,335.1 210,335.2 215,335.1 220,335.0 225,334.9 230,334.6 235,334.2 240,333.8 245,333.3 250,332.8 255,332.1 260,331.4 265,330.7 270,329.9 275,329.1 280,328.2 285,327.3 290,326.4 295,325.4 300,324.5 305,323.6 310,322.6 315,321.7 320,320.8 325,320.0 330,319.2 335,318.4 340,317.7 345,317.0 350,316.4 355,315.9 360,315.4 365,315.0 370,314.7 375,314.5 380,314.3 385,314.3 390,314.3 395,314.4 400,314.6" fill="none" stroke="#fbbf24" stroke-width="1.0" opacity="0.15" />
    <polyline points="0,38.0 5,35.9 10,34.1 15,32.5 20,31.2 25,30.3 30,29.7 35,29.5 40,29.6 45,30.1 50,31.0 55,32.1 60,33.6 65,35.4 70,37.4 75,39.6 80,41.9 85,44.4 90,47.0 95,49.5 100,52.1 105,54.5 110,56.8 115,58.9 120,60.8 125,62.5 130,63.8 135,64.8 140,65.5 145,65.8 150,65.8 155,65.4 160,64.6 165,63.6 170,62.2 175,60.5 180,58.5 185,56.4 190,54.0 195,51.6 200,49.0 205,46.5 210,43.9 215,41.5 220,39.1 225,37.0 230,35.0 235,33.3 240,31.9 245,30.8 250,30.0 255,29.6 260,29.5 265,29.8 270,30.5 275,31.5 280,32.8 285,34.4 290,36.3 295,38.4 300,40.7 305,43.1 310,45.6 315,48.2 320,50.7 325,53.2 330,55.6 335,57.8 340,59.8 345,61.6 350,63.1 355,64.3 360,65.2 365,65.7 370,65.8 375,65.6 380,65.1 385,64.2 390,62.9 395,61.4 400,59.6" fill="none" stroke="#64748b" stroke-width="2.6" opacity="0.30" />
    <polyline points="0,343.4 5,343.7 10,343.9 15,343.9 20,343.9 25,343.9 30,343.7 35,343.4 40,343.1 45,342.6 50,342.1 55,341.5 60,340.9 65,340.1 70,339.3 75,338.4 80,337.5 85,336.5 90,335.5 95,334.4 100,333.3 105,332.2 110,331.0 115,329.8 120,328.6 125,327.4 130,326.2 135,325.1 140,323.9 145,322.7 150,321.6 155,320.5 160,319.5 165,318.5 170,317.5 175,316.6 180,315.8 185,315.0 190,314.3 195,313.7 200,313.1 205,312.7 210,312.3 215,312.0 220,311.8 225,311.6 230,311.6 235,311.6 240,311.8 245,312.0 250,312.3 255,312.7 260,313.2 265,313.7 270,314.4 275,315.1 280,315.9 285,316.7 290,317.6 295,318.6 300,319.6 305,320.6 310,321.7 315,322.8 320,324.0 325,325.2 330,326.3 335,327.5 340,328.7 345,329.9 350,331.1 355,332.3 360,333.4 365,334.5 370,335.6 375,336.6 380,337.6 385,338.5 390,339.4 395,340.2 400,340.9" fill="none" stroke="#64748b" stroke-width="2.6" opacity="0.30" />
    <polyline points="0,495.5 5,495.7 10,496.0 15,496.4 20,496.9 25,497.6 30,498.3 35,499.2 40,500.1 45,501.2 50,502.3 55,503.5 60,504.8 65,506.2 70,507.6 75,509.1 80,510.7 85,512.3 90,513.9 95,515.6 100,517.2 105,518.9 110,520.6 115,522.3 120,524.0 125,525.6 130,527.3 135,528.8 140,530.4 145,531.9 150,533.3 155,534.6 160,535.9 165,537.1 170,538.2 175,539.2 180,540.2 185,541.0 190,541.7 195,542.3 200,542.8 205,543.2 210,543.4 215,543.6 220,543.6 225,543.5 230,543.3 235,543.0 240,542.5 245,542.0 250,541.3 255,540.5 260,539.7 265,538.7 270,537.6 275,536.4 280,535.2 285,533.9 290,532.5 295,531.0 300,529.5 305,528.0 310,526.3 315,524.7 320,523.0 325,521.4 330,519.7 335,518.0 340,516.3 345,514.6 350,513.0 355,511.4 360,509.8 365,508.3 370,506.8 375,505.4 380,504.1 385,502.8 390,501.6 395,500.6 400,499.6" fill="none" stroke="#94a3b8" stroke-width="2.2" opacity="0.14" /></g>
  <polygon points="372.2,300.2 405.9,367.5 338.5,367.5" fill="#64748b" opacity="0.16" />
    <circle cx="340.3" cy="93.4" r="24.1" fill="#64748b" opacity="0.14" />
    <rect x="174.6" y="363.5" width="82.4" height="82.4" fill="#fbbf24" opacity="0.13" />
    <polygon points="371.5,364.8 402.9,396.1 371.5,427.5 340.2,396.1" fill="#64748b" opacity="0.26" />
    <polygon points="46.4,249.9 88.2,291.7 46.4,333.5 4.6,291.7" fill="#94a3b8" opacity="0.11" />
    <polygon points="92.3,-40.2 139.6,54.3 45.1,54.3" fill="#94a3b8" opacity="0.30" />
    <polygon points="220.9,436.0 235.7,465.7 206.0,465.7" fill="#94a3b8" opacity="0.40" />
    <polygon points="146.4,495.0 182.5,567.0 110.4,567.0" fill="#fbbf24" opacity="0.22" />
    <rect x="125.9" y="413.0" width="32.7" height="32.7" fill="#64748b" opacity="0.24" />
    <rect x="165.1" y="440.0" width="79.5" height="79.5" fill="#94a3b8" opacity="0.33" />
    <polygon points="0.8,28.8 22.8,50.7 0.8,72.7 -21.2,50.7" fill="#94a3b8" opacity="0.16" />
  
  <!-- Text background banner -->
  <defs>
    <linearGradient id="text-bg-17" x1="0%" y1="0%" x2="100%" y2="0%">
      <stop offset="0%" style="stop-color:#000000;stop-opacity:0.7" />
      <stop offset="50%" style="stop-color:#64748b;stop-opacity:0.4" />
      <stop offset="100%" style="stop-color:#000000;stop-opacity:0.7" />
    </linearGradient>
  </defs>
  <rect x="0" y="494" width="400" height="56" fill="url(#text-bg-17)" />

  <!-- Text shadow -->
  <text x="200" y="522" font-family="system-ui, -apple-system, sans-serif" font-size="24" font-weight="bold" text-anchor="middle" fill="#000000" opacity="0.8">Selfie Slut Sarah</text>

  <!-- Main text -->
  <text x="200" y="520" font-family="system-ui, -apple-system, sans-serif" font-size="24" font-weight="bold" text-anchor="middle" fill="#ffffff">Selfie Slut Sarah</text>
  
  <!-- Rarity border -->
  <rect x="4" y="4" width="392" height="542"
        fill="none" stroke="#eab308" stroke-width="8" rx="8" ry="8" />
</svg>