<?xml version="1.0" encoding="UTF-8"?>
<svg xmlns="http://www.w3.org/2000/svg" viewBox="0 0 400 550" width="400" height="550">
  <defs>
    <linearGradient id="bg-gradient-144" x1="0%" y1="0%" x2="100%" y2="100%">
      <stop offset="0%" style="stop-color:#64748b;stop-opacity:0.26" />
      <stop offset="50%" style="stop-color:#94a3b8;stop-opacity:0.4" />
      <stop offset="100%" style="stop-color:#64748b;stop-opacity:0.26" />
    </linearGradient>
    
  <filter id="shadow-144">
    <feDropShadow dx="0" dy="2" stdDeviation="3" flood-opacity="0.8"/>
  </filter>
  </defs>
  <rect width="400" height="550" fill="url(#bg-gradient-0.5734823194798082)" />
  <g opacity="0.3"><circle cx="5.9" cy="0.3" r="4" fill="#fbbf24" />
    <circle cx="4.4" cy="32.6" r="4" fill="#94a3b8" />
    <circle cx="6.4" cy="65.6" r="4" fill="#64748b" />
    <circle cx="8.8" cy="90.0" r="4" fill="#fbbf24" />
    <circle cx="5.2" cy="120.3" r="4" fill="#64748b" />
    <circle cx="5.9" cy="159.8" r="4" fill="#94a3b8" />
    <circle cx="8.2" cy="188.9" r="4" fill="#fbbf24" />
    <circle cx="9.0" cy="240.4" r="4" fill="#94a3b8" />
    <circle cx="7.6" cy="369.2" r="4" fill="#94a3b8" />
    <circle cx="1.6" cy="392.2" r="4" fill="#fbbf24" />
    <circle cx="5.3" cy="428.0" r="4" fill="#94a3b8" />
    <circle cx="3.5" cy="457.3" r="4" fill="#64748b" />
    <circle cx="8.4" cy="488.0" r="4" fill="#64748b" />
    <circle cx="3.0" cy="515.5" r="4" fill="#94a3b8" />
    <circle cx="7.7" cy="547.4" r="4" fill="#94a3b8" />
    <circle cx="33.7" cy="30.5" r="4" fill="#94a3b8" />
    <circle cx="38.4" cy="96.0" r="4" fill="#fbbf24" />
    <circle cx="33.2" cy="123.5" r="4" fill="#64748b" />
    <circle cx="35.4" cy="159.8" r="4" fill="#94a3b8" />
    <circle cx="32.5" cy="189.0" r="4" fill="#94a3b8" />
    <circle cx="40.0" cy="212.5" r="4" fill="#64748b" />
    <circle cx="30.3" cy="275.0" r="4" fill="#fbbf24" />
    <circle cx="33.8" cy="332.5" r="4" fill="#94a3b8" />
    <circle cx="31.7" cy="451.4" r="4" fill="#64748b" />
    <circle cx="36.7" cy="518.9" r="4" fill="#94a3b8" />
    <circle cx="38.9" cy="547.8" r="4" fill="#94a3b8" />
    <circle cx="63.5" cy="1.0" r="4" fill="#64748b" />
    <circle cx="60.7" cy="67.6" r="4" fill="#64748b" />
    <circle cx="65.4" cy="125.9" r="4" fill="#64748b" />
    <circle cx="61.9" cy="300.3" r="4" fill="#fbbf24" />
    <circle cx="67.0" cy="360.2" r="4" fill="#fbbf24" />
    <circle cx="61.0" cy="391.5" r="4" fill="#94a3b8" />
    <circle cx="69.8" cy="428.2" r="4" fill="#94a3b8" />
    <circle cx="61.2" cy="455.5" r="4" fill="#64748b" />
    <circle cx="60.5" cy="481.8" r="4" fill="#fbbf24" />
    <circle cx="60.7" cy="519.5" r="4" fill="#fbbf24" />
    <circle cx="61.2" cy="545.6" r="4" fill="#94a3b8" />
    <circle cx="99.5" cy="5.6" r="4" fill="#fbbf24" />
    <circle cx="95.1" cy="90.3" r="4" fill="#64748b" />
    <circle cx="99.8" cy="123.3" r="4" fill="#fbbf24" />
    <circle cx="96.6" cy="215.3" r="4" fill="#94a3b8" />
    <circle cx="96.8" cy="240.2" r="4" fill="#94a3b8" />
    <circle cx="98.2" cy="277.6" r="4" fill="#64748b" />
    <circle cx="95.8" cy="309.8" r="4" fill="#94a3b8" />
    <circle cx="91.0" cy="331.5" r="4" fill="#64748b" />
    <circle cx="97.8" cy="367.0" r="4" fill="#64748b" />
    <circle cx="98.2" cy="393.7" r="4" fill="#fbbf24" />
    <circle cx="95.0" cy="421.9" r="4" fill="#94a3b8" />
    <circle cx="94.4" cy="451.9" r="4" fill="#fbbf24" />
    <circle cx="94.0" cy="519.4" r="4" fill="#fbbf24" />
    <circle cx="98.5" cy="549.8" r="4" fill="#94a3b8" />
    <circle cx="128.3" cy="3.2" r="4" fill="#64748b" />
    <circle cx="129.0" cy="64.3" r="4" fill="#64748b" />
    <circle cx="126.4" cy="159.5" r="4" fill="#94a3b8" />
    <circle cx="120.0" cy="182.3" r="4" fill="#94a3b8" />
    <circle cx="127.7" cy="242.3" r="4" fill="#fbbf24" />
    <circle cx="129.9" cy="275.5" r="4" fill="#94a3b8" />
    <circle cx="128.6" cy="302.1" r="4" fill="#94a3b8" />
    <circle cx="129.8" cy="336.7" r="4" fill="#64748b" />
    <circle cx="126.5" cy="368.2" r="4" fill="#64748b" />
    <circle cx="125.4" cy="426.4" r="4" fill="#64748b" />
    <circle cx="124.6" cy="459.7" r="4" fill="#fbbf24" />
    <circle cx="126.6" cy="518.5" r="4" fill="#94a3b8" />
    <circle cx="124.7" cy="541.4" r="4" fill="#94a3b8" />
    <circle cx="152.4" cy="2.5" r="4" fill="#64748b" />
    <circle cx="152.3" cy="64.2" r="4" fill="#64748b" />
    <circle cx="157.2" cy="127.0" r="4" fill="#fbbf24" />
    <circle cx="150.3" cy="219.9" r="4" fill="#fbbf24" />
    <circle cx="158.0" cy="247.9" r="4" fill="#64748b" />
    <circle cx="159.3" cy="309.9" r="4" fill="#94a3b8" />
    <circle cx="159.8" cy="336.8" r="4" fill="#fbbf24" />
    <circle cx="159.7" cy="399.4" r="4" fill="#fbbf24" />
    <circle cx="153.4" cy="450.2" r="4" fill="#64748b" />
    <circle cx="159.0" cy="490.0" r="4" fill="#64748b" />
    <circle cx="151.6" cy="517.0" r="4" fill="#64748b" />
    <circle cx="159.3" cy="545.8" r="4" fill="#64748b" />
    <circle cx="188.8" cy="124.5" r="4" fill="#94a3b8" />
    <circle cx="184.1" cy="154.5" r="4" fill="#64748b" />
    <circle cx="184.0" cy="180.7" r="4" fill="#fbbf24" />
    <circle cx="183.2" cy="211.3" r="4" fill="#fbbf24" />
    <circle cx="181.7" cy="244.4" r="4" fill="#fbbf24" />
    <circle cx="181.5" cy="278.9" r="4" fill="#fbbf24" />
    <circle cx="180.5" cy="306.3" r="4" fill="#94a3b8" />
    <circle cx="187.6" cy="339.6" r="4" fill="#94a3b8" />
    <circle cx="181.8" cy="390.8" r="4" fill="#fbbf24" />
    <circle cx="183.6" cy="451.6" r="4" fill="#64748b" />
    <circle cx="188.4" cy="512.6" r="4" fill="#94a3b8" />
    <circle cx="181.8" cy="544.8" r="4" fill="#94a3b8" />
    <circle cx="215.3" cy="67.4" r="4" fill="#fbbf24" />
    <circle cx="212.1" cy="98.3" r="4" fill="#64748b" />
    <circle cx="214.8" cy="157.4" r="4" fill="#94a3b8" />
    <circle cx="211.5" cy="215.9" r="4" fill="#fbbf24" />
    <circle cx="214.4" cy="243.1" r="4" fill="#64748b" />
    <circle cx="217.7" cy="308.4" r="4" fill="#64748b" />
    <circle cx="211.8" cy="338.9" r="4" fill="#64748b" />
    <circle cx="215.8" cy="392.5" r="4" fill="#64748b" />
    <circle cx="217.8" cy="420.0" r="4" fill="#fbbf24" />
    <circle cx="216.5" cy="487.2" r="4" fill="#64748b" />
    <circle cx="246.4" cy="39.7" r="4" fill="#fbbf24" />
    <circle cx="246.1" cy="62.9" r="4" fill="#64748b" />
    <circle cx="240.7" cy="94.6" r="4" fill="#94a3b8" />
    <circle cx="249.7" cy="120.4" r="4" fill="#94a3b8" />
    <circle cx="246.9" cy="152.7" r="4" fill="#64748b" />
    <circle cx="243.2" cy="210.7" r="4" fill="#94a3b8" />
    <circle cx="247.5" cy="243.4" r="4" fill="#64748b" />
    <circle cx="249.3" cy="335.1" r="4" fill="#fbbf24" />
    <circle cx="244.9" cy="369.1" r="4" fill="#fbbf24" />
    <circle cx="241.4" cy="392.8" r="4" fill="#64748b" />
    <circle cx="244.6" cy="420.5" r="4" fill="#fbbf24" />
    <circle cx="241.3" cy="454.7" r="4" fill="#64748b" />
    <circle cx="241.4" cy="482.2" r="4" fill="#94a3b8" />
    <circle cx="243.7" cy="516.0" r="4" fill="#64748b" />
    <circle cx="248.3" cy="546.4" r="4" fill="#fbbf24" />
    <circle cx="272.7" cy="2.5" r="4" fill="#94a3b8" />
    <circle cx="272.5" cy="34.8" r="4" fill="#64748b" />
    <circle cx="274.6" cy="67.7" r="4" fill="#64748b" />
    <circle cx="278.7" cy="92.2" r="4" fill="#94a3b8" />
    <circle cx="274.8" cy="125.3" r="4" fill="#64748b" />
    <circle cx="277.1" cy="158.7" r="4" fill="#94a3b8" />
    <circle cx="270.7" cy="214.2" r="4" fill="#64748b" />
    <circle cx="276.4" cy="270.5" r="4" fill="#94a3b8" />
    <circle cx="276.2" cy="302.5" r="4" fill="#64748b" />
    <circle cx="271.3" cy="360.9" r="4" fill="#64748b" />
    <circle cx="270.9" cy="398.3" r="4" fill="#fbbf24" />
    <circle cx="271.9" cy="421.2" r="4" fill="#fbbf24" />
    <circle cx="275.0" cy="451.2" r="4" fill="#fbbf24" />
    <circle cx="278.5" cy="519.8" r="4" fill="#fbbf24" />
    <circle cx="271.6" cy="547.5" r="4" fill="#fbbf24" />
    <circle cx="302.6" cy="37.7" r="4" fill="#94a3b8" />
    <circle cx="304.2" cy="62.9" r="4" fill="#fbbf24" />
    <circle cx="303.4" cy="95.6" r="4" fill="#64748b" />
    <circle cx="302.6" cy="129.2" r="4" fill="#64748b" />
    <circle cx="305.1" cy="158.8" r="4" fill="#94a3b8" />
    <circle cx="309.4" cy="211.6" r="4" fill="#94a3b8" />
    <circle cx="300.4" cy="240.5" r="4" fill="#64748b" />
    <circle cx="303.4" cy="309.6" r="4" fill="#64748b" />
    <circle cx="302.4" cy="335.3" r="4" fill="#64748b" />
    <circle cx="300.1" cy="367.9" r="4" fill="#94a3b8" />
    <circle cx="307.5" cy="399.5" r="4" fill="#64748b" />
    <circle cx="304.6" cy="456.6" r="4" fill="#94a3b8" />
    <circle cx="308.1" cy="484.2" r="4" fill="#64748b" />
    <circle cx="302.8" cy="540.4" r="4" fill="#64748b" />
    <circle cx="332.1" cy="0.5" r="4" fill="#64748b" />
    <circle cx="330.5" cy="30.7" r="4" fill="#94a3b8" />
    <circle cx="333.4" cy="66.8" r="4" fill="#fbbf24" />
    <circle cx="332.4" cy="122.6" r="4" fill="#94a3b8" />
    <circle cx="334.8" cy="158.0" r="4" fill="#fbbf24" />
    <circle cx="335.4" cy="188.4" r="4" fill="#94a3b8" />
    <circle cx="333.5" cy="218.5" r="4" fill="#fbbf24" />
    <circle cx="340.0" cy="245.6" r="4" fill="#64748b" />
    <circle cx="339.3" cy="270.1" r="4" fill="#64748b" />
    <circle cx="334.3" cy="309.7" r="4" fill="#64748b" />
    <circle cx="333.4" cy="339.6" r="4" fill="#64748b" />
    <circle cx="332.7" cy="365.2" r="4" fill="#94a3b8" />
    <circle cx="330.2" cy="399.4" r="4" fill="#fbbf24" />
    <circle cx="332.9" cy="516.9" r="4" fill="#94a3b8" />
    <circle cx="330.7" cy="545.6" r="4" fill="#fbbf24" />
    <circle cx="367.4" cy="4.8" r="4" fill="#fbbf24" />
    <circle cx="368.4" cy="68.2" r="4" fill="#fbbf24" />
    <circle cx="364.3" cy="99.0" r="4" fill="#94a3b8" />
    <circle cx="369.5" cy="120.9" r="4" fill="#94a3b8" />
    <circle cx="363.5" cy="184.6" r="4" fill="#64748b" />
    <circle cx="368.6" cy="241.2" r="4" fill="#fbbf24" />
    <circle cx="361.3" cy="309.4" r="4" fill="#94a3b8" />
    <circle cx="369.1" cy="338.7" r="4" fill="#94a3b8" />
    <circle cx="364.1" cy="392.0" r="4" fill="#64748b" />
    <circle cx="366.9" cy="429.9" r="4" fill="#94a3b8" />
    <circle cx="365.7" cy="458.9" r="4" fill="#94a3b8" />
    <circle cx="364.4" cy="489.2" r="4" fill="#fbbf24" />
    <circle cx="395.3" cy="31.1" r="4" fill="#94a3b8" />
    <circle cx="398.4" cy="61.5" r="4" fill="#fbbf24" />
    <circle cx="397.9" cy="217.4" r="4" fill="#94a3b8" />
    <circle cx="390.7" cy="242.5" r="4" fill="#64748b" />
    <circle cx="395.8" cy="274.4" r="4" fill="#64748b" />
    <circle cx="393.9" cy="302.1" r="4" fill="#64748b" />
    <circle cx="395.2" cy="330.3" r="4" fill="#fbbf24" />
    <circle cx="394.7" cy="365.6" r="4" fill="#94a3b8" />
    <circle cx="398.8" cy="390.3" r="4" fill="#fbbf24" />
    <circle cx="390.0" cy="481.6" r="4" fill="#fbbf24" />
    <circle cx="391.6" cy="512.5" r="4" fill="#fbbf24" />
    <circle cx="395.7" cy="545.7" r="4" fill="#fbbf24" /></g>
  <circle cx="170.0" cy="205.4" r="12.3" fill="#64748b" opacity="0.16" />
    <polygon points="177.2,303.7 218.4,344.9 177.2,386.1 136.0,344.9" fill="#94a3b8" opacity="0.18" />
    <circle cx="231.4" cy="152.5" r="14.7" fill="#64748b" opacity="0.38" />
    <polygon points="101.3,241.8 117.8,274.7 84.9,274.7" fill="#64748b" opacity="0.28" />
    <rect x="84.6" y="269.6" width="69.2" height="69.2" fill="#64748b" opacity="0.20" />
    <polygon points="94.0,184.7 132.4,223.2 94.0,261.6 55.5,223.2" fill="#94a3b8" opacity="0.16" />
    <polygon points="382.2,-20.3 420.7,56.7 343.8,56.7" fill="#fbbf24" opacity="0.25" />
    <polygon points="45.1,505.0 84.7,544.7 45.1,584.4 5.4,544.7" fill="#fbbf24" opacity="0.17" />
  
  <!-- Text background banner -->
  <defs>
    <linearGradient id="text-bg-22" x1="0%" y1="0%" x2="100%" y2="0%">
      <stop offset="0%" style="stop-color:#000000;stop-opacity:0.7" />
      <stop offset="50%" style="stop-color:#64748b;stop-opacity:0.4" />
      <stop offset="100%" style="stop-color:#000000;stop-opacity:0.7" />
    </linearGradient>
  </defs>
  <rect x="0" y="494" width="400" height="56" fill="url(#text-bg-22)" />

  <!-- Text shadow -->
  <text x="200" y="522" font-family="system-ui, -apple-system, sans-serif" font-size="24" font-weight="bold" text-anchor="middle" fill="#000000" opacity="0.8">Cheerleader Cum-Caller</text>

  <!-- Main text -->
  <text x="200" y="520" font-family="system-ui, -apple-system, sans-serif" font-size="24" font-weight="bold" text-anchor="middle" fill="#ffffff">Cheerleader Cum-Caller</text>
  
  <!-- Rarity border -->
  <rect x="3" y="3" width="394" height="544"
        fill="none" stroke="#3b82f6" stroke-width="6" rx="8" ry="8" />
</svg>