<?xml version="1.0" encoding="UTF-8"?>
<svg xmlns="http://www.w3.org/2000/svg" viewBox="0 0 400 550" width="400" height="550">
  <defs>
    <linearGradient id="bg-gradient-145" x1="0%" y1="0%" x2="100%" y2="100%">
      <stop offset="0%" style="stop-color:#64748b;stop-opacity:0.26" />
      <stop offset="50%" style="stop-color:#94a3b8;stop-opacity:0.4" />
      <stop offset="100%" style="stop-color:#64748b;stop-opacity:0.26" />
    </linearGradient>
    
  <filter id="shadow-145">
    <feDropShadow dx="0" dy="2" stdDeviation="3" flood-opacity="0.8"/>
  </filter>
  </defs>
  <rect width="400" height="550" fill="url(#bg-gradient-0.8137488702777773)" />
  <g opacity="0.3"><polyline points="0,156.1 5,155.1 10,154.1 15,152.9 20,151.7 25,150.3 30,148.8 35,147.3 40,145.7 45,144.0 50,142.3 55,140.6 60,138.9 65,137.1 70,135.3 75,133.6 80,131.9 85,130.2 90,128.5 95,127.0 100,125.5 105,124.1 110,122.7 115,121.5 120,120.4 125,119.4 130,118.6 135,117.8 140,117.2 145,116.8 150,116.5 155,116.3 160,116.3 165,116.4 170,116.7 175,117.1 180,117.6 185,118.3 190,119.2 195,120.1 200,121.2 205,122.4 210,123.7 215,125.1 220,126.5 225,128.1 230,129.7 235,131.4 240,133.1 245,134.8 250,136.6 255,138.4 260,140.1 265,141.9 270,143.6 275,145.2 280,146.9 285,148.4 290,149.9 295,151.3 300,152.6 305,153.8 310,154.8 315,155.8 320,156.6 325,157.3 330,157.9 335,158.3 340,158.6 345,158.7 350,158.7 355,158.5 360,158.2 365,157.8 370,157.2 375,156.5 380,155.6 385,154.6 390,153.5 395,152.3 400,151.0" fill="none" stroke="#94a3b8" stroke-width="1.2" opacity="0.20" />
    <polyline points="0,201.2 5,200.5 10,199.8 15,199.1 20,198.4 25,197.7 30,197.0 35,196.2 40,195.5 45,194.7 50,194.0 55,193.2 60,192.5 65,191.8 70,191.0 75,190.3 80,189.6 85,188.9 90,188.3 95,187.6 100,187.0 105,186.4 110,185.8 115,185.2 120,184.7 125,184.2 130,183.8 135,183.3 140,182.9 145,182.6 150,182.3 155,182.0 160,181.7 165,181.5 170,181.4 175,181.2 180,181.2 185,181.1 190,181.1 195,181.1 200,181.2 205,181.3 210,181.5 215,181.7 220,181.9 225,182.2 230,182.5 235,182.9 240,183.3 245,183.7 250,184.2 255,184.7 260,185.2 265,185.7 270,186.3 275,186.9 280,187.5 285,188.2 290,188.9 295,189.5 300,190.2 305,191.0 310,191.7 315,192.4 320,193.2 325,193.9 330,194.6 335,195.4 340,196.1 345,196.9 350,197.6 355,198.4 360,199.1 365,199.8 370,200.5 375,201.1 380,201.8 385,202.4 390,203.0 395,203.6 400,204.2" fill="none" stroke="#94a3b8" stroke-width="1.5" opacity="0.29" />
    <polyline points="0,35.6 5,34.4 10,33.3 15,32.2 20,31.3 25,30.5 30,29.8 35,29.2 40,28.7 45,28.4 50,28.2 55,28.1 60,28.2 65,28.4 70,28.8 75,29.3 80,29.9 85,30.6 90,31.5 95,32.4 100,33.4 105,34.6 110,35.8 115,37.0 120,38.3 125,39.7 130,41.1 135,42.4 140,43.8 145,45.2 150,46.5 155,47.8 160,49.0 165,50.1 170,51.2 175,52.2 180,53.0 185,53.8 190,54.5 195,55.0 200,55.4 205,55.6 210,55.7 215,55.7 220,55.6 225,55.3 230,54.9 235,54.3 240,53.6 245,52.9 250,52.0 255,51.0 260,49.9 265,48.7 270,47.5 275,46.2 280,44.9 285,43.5 290,42.1 295,40.7 300,39.4 305,38.0 310,36.7 315,35.5 320,34.3 325,33.2 330,32.2 335,31.3 340,30.4 345,29.7 350,29.2 355,28.7 360,28.4 365,28.2 370,28.1 375,28.2 380,28.5 385,28.8 390,29.3 395,29.9 400,30.7" fill="none" stroke="#94a3b8" stroke-width="1.5" opacity="0.19" />
    <polyline points="0,307.1 5,306.4 10,305.4 15,304.2 20,302.8 25,301.2 30,299.3 35,297.3 40,295.1 45,292.7 50,290.1 55,287.4 60,284.6 65,281.7 70,278.7 75,275.6 80,272.5 85,269.4 90,266.2 95,263.1 100,260.0 105,257.0 110,254.1 115,251.3 120,248.5 125,245.9 130,243.5 135,241.2 140,239.1 145,237.3 150,235.6 155,234.1 160,232.9 165,231.9 170,231.1 175,230.6 180,230.4 185,230.4 190,230.6 195,231.1 200,231.9 205,232.9 210,234.1 215,235.6 220,237.3 225,239.2 230,241.3 235,243.5 240,246.0 245,248.6 250,251.3 255,254.1 260,257.1 265,260.1 270,263.2 275,266.3 280,269.4 285,272.5 290,275.6 295,278.7 300,281.7 305,284.6 310,287.4 315,290.1 320,292.7 325,295.1 330,297.3 335,299.4 340,301.2 345,302.8 350,304.3 355,305.4 360,306.4 365,307.1 370,307.5 375,307.7 380,307.7 385,307.3 390,306.8 395,306.0 400,304.9" fill="none" stroke="#fbbf24" stroke-width="2.5" opacity="0.27" />
    <polyline points="0,519.4 5,521.3 10,523.1 15,524.9 20,526.7 25,528.3 30,529.8 35,531.2 40,532.5 45,533.6 50,534.4 55,535.1 60,535.6 65,535.9 70,536.0 75,535.9 80,535.5 85,534.9 90,534.2 95,533.2 100,532.1 105,530.8 110,529.3 115,527.8 120,526.1 125,524.3 130,522.5 135,520.6 140,518.8 145,516.9 150,515.1 155,513.3 160,511.6 165,510.1 170,508.6 175,507.3 180,506.2 185,505.2 190,504.4 195,503.8 200,503.5 205,503.3 210,503.4 215,503.7 220,504.2 225,504.8 230,505.7 235,506.8 240,508.0 245,509.4 250,511.0 255,512.6 260,514.3 265,516.1 270,518.0 275,519.9 280,521.7 285,523.6 290,525.4 295,527.1 300,528.7 305,530.2 310,531.6 315,532.8 320,533.8 325,534.6 330,535.3 335,535.7 340,536.0 345,536.0 350,535.8 355,535.4 360,534.8 365,534.0 370,533.0 375,531.8 380,530.4 385,529.0 390,527.4 395,525.7 400,523.9" fill="none" stroke="#64748b" stroke-width="2.2" opacity="0.25" />
    <polyline points="0,471.9 5,470.9 10,469.4 15,467.7 20,465.6 25,463.4 30,460.8 35,458.2 40,455.4 45,452.6 50,449.7 55,447.0 60,444.3 65,441.8 70,439.4 75,437.4 80,435.6 85,434.1 90,433.0 95,432.2 100,431.9 105,431.9 110,432.3 115,433.1 120,434.3 125,435.8 130,437.6 135,439.7 140,442.1 145,444.6 150,447.3 155,450.1 160,453.0 165,455.8 170,458.5 175,461.2 180,463.7 185,465.9 190,467.9 195,469.6 200,471.0 205,472.1 210,472.7 215,473.0 220,472.8 225,472.3 230,471.4 235,470.2 240,468.6 245,466.7 250,464.5 255,462.1 260,459.5 265,456.8 270,454.0 275,451.1 280,448.3 285,445.6 290,443.0 295,440.5 300,438.3 305,436.4 310,434.8 315,433.5 320,432.6 325,432.0 330,431.8 335,432.1 340,432.7 345,433.7 350,435.0 355,436.7 360,438.7 365,440.9 370,443.4 375,446.0 380,448.8 385,451.6 390,454.4 395,457.2 400,459.9" fill="none" stroke="#fbbf24" stroke-width="2.0" opacity="0.27" />
    <polyline points="0,402.2 5,402.7 10,403.6 15,404.7 20,406.2 25,407.9 30,409.9 35,412.0 40,414.3 45,416.7 50,419.1 55,421.5 60,423.9 65,426.2 70,428.4 75,430.4 80,432.1 85,433.6 90,434.8 95,435.8 100,436.3 105,436.6 110,436.5 115,436.0 120,435.3 125,434.2 130,432.8 135,431.1 140,429.2 145,427.1 150,424.9 155,422.5 160,420.1 165,417.6 170,415.2 175,412.9 180,410.7 185,408.7 190,406.9 195,405.3 200,404.0 205,403.0 210,402.4 215,402.1 220,402.1 225,402.5 230,403.2 235,404.2 240,405.5 245,407.1 250,409.0 255,411.0 260,413.2 265,415.6 270,418.0 275,420.4 280,422.9 285,425.2 290,427.4 295,429.5 300,431.4 305,433.0 310,434.3 315,435.4 320,436.1 325,436.5 330,436.6 335,436.3 340,435.6 345,434.7 350,433.4 355,431.9 360,430.1 365,428.1 370,425.9 375,423.5 380,421.1 385,418.7 390,416.3 395,413.9 400,411.7" fill="none" stroke="#fbbf24" stroke-width="2.2" opacity="0.13" />
    <polyline points="0,447.7 5,448.8 10,449.9 15,451.0 20,452.1 25,453.2 30,454.2 35,455.2 40,456.1 45,456.9 50,457.6 55,458.3 60,458.8 65,459.3 70,459.6 75,459.8 80,459.9 85,459.9 90,459.7 95,459.5 100,459.1 105,458.6 110,458.0 115,457.3 120,456.5 125,455.7 130,454.7 135,453.8 140,452.7 145,451.6 150,450.5 155,449.4 160,448.3 165,447.2 170,446.1 175,445.1 180,444.1 185,443.2 190,442.3 195,441.5 200,440.9 205,440.3 210,439.8 215,439.5 220,439.2 225,439.1 230,439.1 235,439.2 240,439.4 245,439.8 250,440.2 255,440.8 260,441.5 265,442.2 270,443.1 275,444.0 280,445.0 285,446.0 290,447.1 295,448.2 300,449.3 305,450.4 310,451.5 315,452.6 320,453.7 325,454.7 330,455.6 335,456.5 340,457.3 345,458.0 350,458.6 355,459.1 360,459.5 365,459.7 370,459.9 375,459.9 380,459.8 385,459.6 390,459.3 395,458.9 400,458.3" fill="none" stroke="#fbbf24" stroke-width="1.7" opacity="0.16" /></g>
  <rect x="342.9" y="208.3" width="57.8" height="57.8" fill="#94a3b8" opacity="0.38" />
    <polygon points="146.0,45.8 194.2,142.3 97.7,142.3" fill="#94a3b8" opacity="0.28" />
    <circle cx="6.2" cy="157.6" r="10.3" fill="#fbbf24" opacity="0.18" />
    <polygon points="389.7,199.2 413.4,246.7 366.0,246.7" fill="#94a3b8" opacity="0.22" />
    <polygon points="44.4,467.9 74.2,527.4 14.7,527.4" fill="#fbbf24" opacity="0.22" />
    <rect x="91.7" y="58.7" width="92.0" height="92.0" fill="#94a3b8" opacity="0.24" />
    <polygon points="189.3,73.1 209.3,113.1 169.3,113.1" fill="#94a3b8" opacity="0.33" />
    <rect x="198.2" y="500.7" width="34.9" height="34.9" fill="#fbbf24" opacity="0.11" />
    <polygon points="127.4,383.9 159.9,448.8 95.0,448.8" fill="#fbbf24" opacity="0.18" />
    <rect x="304.0" y="280.4" width="72.1" height="72.1" fill="#fbbf24" opacity="0.21" />
    <circle cx="100.6" cy="348.2" r="34.8" fill="#94a3b8" opacity="0.11" />
  
  <!-- Text background banner -->
  <defs>
    <linearGradient id="text-bg-21" x1="0%" y1="0%" x2="100%" y2="0%">
      <stop offset="0%" style="stop-color:#000000;stop-opacity:0.7" />
      <stop offset="50%" style="stop-color:#64748b;stop-opacity:0.4" />
      <stop offset="100%" style="stop-color:#000000;stop-opacity:0.7" />
    </linearGradient>
  </defs>
  <rect x="0" y="494" width="400" height="56" fill="url(#text-bg-21)" />

  <!-- Text shadow -->
  <text x="200" y="522" font-family="system-ui, -apple-system, sans-serif" font-size="24" font-weight="bold" text-anchor="middle" fill="#000000" opacity="0.8">Uncle Useless Ulysses</text>

  <!-- Main text -->
  <text x="200" y="520" font-family="system-ui, -apple-system, sans-serif" font-size="24" font-weight="bold" text-anchor="middle" fill="#ffffff">Uncle Useless Ulysses</text>
  
  <!-- Rarity border -->
  <rect x="4" y="4" width="392" height="542"
        fill="none" stroke="#eab308" stroke-width="8" rx="8" ry="8" />
</svg>