<?xml version="1.0" encoding="UTF-8"?>
<svg xmlns="http://www.w3.org/2000/svg" viewBox="0 0 400 550" width="400" height="550">
  <defs>
    <linearGradient id="bg-gradient-146" x1="0%" y1="0%" x2="100%" y2="100%">
      <stop offset="0%" style="stop-color:#64748b;stop-opacity:0.26" />
      <stop offset="50%" style="stop-color:#94a3b8;stop-opacity:0.4" />
      <stop offset="100%" style="stop-color:#64748b;stop-opacity:0.26" />
    </linearGradient>
    
  <filter id="shadow-146">
    <feDropShadow dx="0" dy="2" stdDeviation="3" flood-opacity="0.8"/>
  </filter>
  </defs>
  <rect width="400" height="550" fill="url(#bg-gradient-0.2450779799837619)" />
  <g opacity="0.3"><line x1="242.0" y1="0" x2="242.0" y2="550" stroke="#64748b" stroke-width="1.4" opacity="0.31" />
    <line x1="0" y1="91.5" x2="400" y2="91.5" stroke="#64748b" stroke-width="3.7" opacity="0.35" />
    <line x1="57.3" y1="0" x2="57.3" y2="550" stroke="#94a3b8" stroke-width="2.4" opacity="0.10" />
    <line x1="328.3" y1="0" x2="328.3" y2="550" stroke="#64748b" stroke-width="1.1" opacity="0.39" />
    <line x1="329.5" y1="0" x2="329.5" y2="550" stroke="#fbbf24" stroke-width="2.0" opacity="0.29" />
    <line x1="0" y1="159.8" x2="400" y2="159.8" stroke="#64748b" stroke-width="2.4" opacity="0.12" />
    <line x1="0" y1="195.7" x2="400" y2="195.7" stroke="#64748b" stroke-width="3.1" opacity="0.18" />
    <line x1="0" y1="473.3" x2="400" y2="473.3" stroke="#64748b" stroke-width="2.7" opacity="0.30" />
    <line x1="77.2" y1="0" x2="77.2" y2="550" stroke="#94a3b8" stroke-width="2.8" opacity="0.27" />
    <line x1="204.7" y1="0" x2="204.7" y2="550" stroke="#94a3b8" stroke-width="2.6" opacity="0.33" />
    <line x1="0" y1="243.3" x2="400" y2="243.3" stroke="#64748b" stroke-width="4.0" opacity="0.20" />
    <line x1="125.5" y1="0" x2="125.5" y2="550" stroke="#fbbf24" stroke-width="1.2" opacity="0.29" />
    <line x1="239.5" y1="0" x2="239.5" y2="550" stroke="#fbbf24" stroke-width="3.3" opacity="0.16" />
    <line x1="282.0" y1="0" x2="282.0" y2="550" stroke="#94a3b8" stroke-width="1.8" opacity="0.21" />
    <line x1="0" y1="229.3" x2="400" y2="229.3" stroke="#fbbf24" stroke-width="1.5" opacity="0.14" /></g>
  <polygon points="369.5,246.8 412.2,289.4 369.5,332.0 326.9,289.4" fill="#64748b" opacity="0.12" />
    <polygon points="312.0,177.2 340.4,205.7 312.0,234.1 283.6,205.7" fill="#94a3b8" opacity="0.28" />
    <polygon points="261.7,148.6 303.0,231.3 220.3,231.3" fill="#fbbf24" opacity="0.27" />
    <polygon points="190.4,18.1 224.0,51.7 190.4,85.2 156.9,51.7" fill="#94a3b8" opacity="0.19" />
    <polygon points="358.7,285.3 383.3,334.5 334.1,334.5" fill="#64748b" opacity="0.29" />
    <circle cx="233.1" cy="251.2" r="17.7" fill="#64748b" opacity="0.18" />
    <rect x="93.3" y="83.4" width="59.4" height="59.4" fill="#fbbf24" opacity="0.15" />
    <polygon points="256.7,347.3 277.6,368.2 256.7,389.2 235.7,368.2" fill="#64748b" opacity="0.10" />
  
  <!-- Text background banner -->
  <defs>
    <linearGradient id="text-bg-20" x1="0%" y1="0%" x2="100%" y2="0%">
      <stop offset="0%" style="stop-color:#000000;stop-opacity:0.7" />
      <stop offset="50%" style="stop-color:#64748b;stop-opacity:0.4" />
      <stop offset="100%" style="stop-color:#000000;stop-opacity:0.7" />
    </linearGradient>
  </defs>
  <rect x="0" y="494" width="400" height="56" fill="url(#text-bg-20)" />

  <!-- Text shadow -->
  <text x="200" y="522" font-family="system-ui, -apple-system, sans-serif" font-size="24" font-weight="bold" text-anchor="middle" fill="#000000" opacity="0.8">Uncle Unhinged Uriah</text>

  <!-- Main text -->
  <text x="200" y="520" font-family="system-ui, -apple-system, sans-serif" font-size="24" font-weight="bold" text-anchor="middle" fill="#ffffff">Uncle Unhinged Uriah</text>
  
  <!-- Rarity border -->
  <rect x="3" y="3" width="394" height="544"
        fill="none" stroke="#3b82f6" stroke-width="6" rx="8" ry="8" />
</svg>