<?xml version="1.0" encoding="UTF-8"?>
<svg xmlns="http://www.w3.org/2000/svg" viewBox="0 0 400 550" width="400" height="550">
  <defs>
    <linearGradient id="bg-gradient-147" x1="0%" y1="0%" x2="100%" y2="100%">
      <stop offset="0%" style="stop-color:#64748b;stop-opacity:0.26" />
      <stop offset="50%" style="stop-color:#94a3b8;stop-opacity:0.4" />
      <stop offset="100%" style="stop-color:#64748b;stop-opacity:0.26" />
    </linearGradient>
    
  <filter id="shadow-147">
    <feDropShadow dx="0" dy="2" stdDeviation="3" flood-opacity="0.8"/>
  </filter>
  </defs>
  <rect width="400" height="550" fill="url(#bg-gradient-0.6213725116103888)" />
  <g opacity="0.3"><line x1="0" y1="25.8" x2="400" y2="25.8" stroke="#64748b" stroke-width="1.3" opacity="0.23" />
    <line x1="258.5" y1="0" x2="258.5" y2="550" stroke="#94a3b8" stroke-width="2.7" opacity="0.28" />
    <line x1="131.4" y1="0" x2="131.4" y2="550" stroke="#64748b" stroke-width="1.6" opacity="0.35" />
    <line x1="61.9" y1="0" x2="61.9" y2="550" stroke="#94a3b8" stroke-width="1.8" opacity="0.12" />
    <line x1="0" y1="359.8" x2="400" y2="359.8" stroke="#fbbf24" stroke-width="1.3" opacity="0.16" />
    <line x1="98.5" y1="0" x2="98.5" y2="550" stroke="#64748b" stroke-width="3.0" opacity="0.16" />
    <line x1="340.2" y1="0" x2="340.2" y2="550" stroke="#64748b" stroke-width="2.6" opacity="0.11" />
    <line x1="357.4" y1="0" x2="357.4" y2="550" stroke="#94a3b8" stroke-width="1.1" opacity="0.31" />
    <line x1="0" y1="390.9" x2="400" y2="390.9" stroke="#94a3b8" stroke-width="1.6" opacity="0.21" />
    <line x1="0" y1="69.7" x2="400" y2="69.7" stroke="#94a3b8" stroke-width="2.0" opacity="0.12" />
    <line x1="179.3" y1="0" x2="179.3" y2="550" stroke="#94a3b8" stroke-width="3.7" opacity="0.11" />
    <line x1="0" y1="124.8" x2="400" y2="124.8" stroke="#fbbf24" stroke-width="1.1" opacity="0.11" />
    <line x1="0" y1="114.0" x2="400" y2="114.0" stroke="#fbbf24" stroke-width="3.0" opacity="0.15" />
    <line x1="275.6" y1="0" x2="275.6" y2="550" stroke="#64748b" stroke-width="3.1" opacity="0.15" />
    <line x1="0" y1="243.5" x2="400" y2="243.5" stroke="#fbbf24" stroke-width="3.3" opacity="0.21" />
    <line x1="360.6" y1="0" x2="360.6" y2="550" stroke="#64748b" stroke-width="1.5" opacity="0.36" />
    <line x1="0" y1="102.0" x2="400" y2="102.0" stroke="#fbbf24" stroke-width="2.9" opacity="0.10" />
    <line x1="232.9" y1="0" x2="232.9" y2="550" stroke="#94a3b8" stroke-width="2.7" opacity="0.33" />
    <line x1="245.2" y1="0" x2="245.2" y2="550" stroke="#fbbf24" stroke-width="3.9" opacity="0.23" />
    <line x1="0" y1="297.1" x2="400" y2="297.1" stroke="#fbbf24" stroke-width="2.7" opacity="0.10" /></g>
  <rect x="-2.8" y="168.5" width="73.3" height="73.3" fill="#94a3b8" opacity="0.27" />
    <rect x="158.8" y="415.5" width="98.1" height="98.1" fill="#fbbf24" opacity="0.17" />
    <polygon points="182.7,450.3 220.3,525.5 145.0,525.5" fill="#64748b" opacity="0.29" />
    <rect x="96.1" y="448.7" width="96.8" height="96.8" fill="#94a3b8" opacity="0.29" />
    <rect x="79.8" y="212.0" width="45.2" height="45.2" fill="#64748b" opacity="0.36" />
    <polygon points="178.2,-36.2 227.6,13.1 178.2,62.4 128.9,13.1" fill="#94a3b8" opacity="0.14" />
    <polygon points="210.1,-14.7 228.4,21.9 191.8,21.9" fill="#64748b" opacity="0.39" />
    <polygon points="140.5,206.4 169.8,264.9 111.2,264.9" fill="#fbbf24" opacity="0.28" />
    <rect x="246.6" y="236.9" width="28.3" height="28.3" fill="#fbbf24" opacity="0.17" />
    <polygon points="2.6,175.4 39.0,211.8 2.6,248.1 -33.8,211.8" fill="#94a3b8" opacity="0.26" />
    <polygon points="287.2,302.5 336.2,400.4 238.2,400.4" fill="#fbbf24" opacity="0.18" />
  
  <!-- Text background banner -->
  <defs>
    <linearGradient id="text-bg-21" x1="0%" y1="0%" x2="100%" y2="0%">
      <stop offset="0%" style="stop-color:#000000;stop-opacity:0.7" />
      <stop offset="50%" style="stop-color:#64748b;stop-opacity:0.4" />
      <stop offset="100%" style="stop-color:#000000;stop-opacity:0.7" />
    </linearGradient>
  </defs>
  <rect x="0" y="494" width="400" height="56" fill="url(#text-bg-21)" />

  <!-- Text shadow -->
  <text x="200" y="522" font-family="system-ui, -apple-system, sans-serif" font-size="24" font-weight="bold" text-anchor="middle" fill="#000000" opacity="0.8">Mailman Meat-Molester</text>

  <!-- Main text -->
  <text x="200" y="520" font-family="system-ui, -apple-system, sans-serif" font-size="24" font-weight="bold" text-anchor="middle" fill="#ffffff">Mailman Meat-Molester</text>
  
  <!-- Rarity border -->
  <rect x="4" y="4" width="392" height="542"
        fill="none" stroke="#eab308" stroke-width="8" rx="8" ry="8" />
</svg>