<?xml version="1.0" encoding="UTF-8"?>
<svg xmlns="http://www.w3.org/2000/svg" viewBox="0 0 400 550" width="400" height="550">
  <defs>
    <linearGradient id="bg-gradient-148" x1="0%" y1="0%" x2="100%" y2="100%">
      <stop offset="0%" style="stop-color:#64748b;stop-opacity:0.26" />
      <stop offset="50%" style="stop-color:#94a3b8;stop-opacity:0.4" />
      <stop offset="100%" style="stop-color:#64748b;stop-opacity:0.26" />
    </linearGradient>
    
  <filter id="shadow-148">
    <feDropShadow dx="0" dy="2" stdDeviation="3" flood-opacity="0.8"/>
  </filter>
  </defs>
  <rect width="400" height="550" fill="url(#bg-gradient-0.5114843838382512)" />
  <g opacity="0.3"><polyline points="0,117.0 5,120.6 10,124.2 15,127.6 20,130.8 25,133.7 30,136.4 35,138.8 40,140.8 45,142.4 50,143.7 55,144.6 60,145.0 65,145.1 70,144.7 75,143.9 80,142.7 85,141.2 90,139.2 95,136.9 100,134.3 105,131.4 110,128.2 115,124.9 120,121.4 125,117.7 130,114.0 135,110.2 140,106.5 145,102.8 150,99.2 155,95.7 160,92.5 165,89.4 170,86.7 175,84.2 180,82.1 185,80.3 190,78.9 195,77.9 200,77.3 205,77.2 210,77.4 215,78.1 220,79.2 225,80.6 230,82.5 235,84.7 240,87.2 245,90.0 250,93.1 255,96.4 260,99.9 265,103.5 270,107.2 275,111.0 280,114.7 285,118.5 290,122.1 295,125.6 300,128.9 305,132.0 310,134.8 315,137.4 320,139.6 325,141.5 330,143.0 335,144.1 340,144.8 345,145.1 350,145.0 355,144.4 360,143.5 365,142.1 370,140.4 375,138.3 380,135.9 385,133.1 390,130.1 395,126.9 400,123.5" fill="none" stroke="#64748b" stroke-width="2.7" opacity="0.16" />
    <polyline points="0,483.3 5,488.3 10,493.3 15,498.1 20,502.6 25,506.7 30,510.3 35,513.4 40,515.8 45,517.6 50,518.6 55,519.0 60,518.5 65,517.4 70,515.5 75,513.0 80,509.9 85,506.2 90,502.0 95,497.5 100,492.7 105,487.6 110,482.6 115,477.5 120,472.6 125,467.9 130,463.6 135,459.7 140,456.3 145,453.5 150,451.4 155,449.9 160,449.2 165,449.2 170,450.0 175,451.5 180,453.6 185,456.4 190,459.8 195,463.7 200,468.1 205,472.8 210,477.7 215,482.7 220,487.8 225,492.8 230,497.6 235,502.2 240,506.3 245,510.0 250,513.1 255,515.6 260,517.4 265,518.6 270,519.0 275,518.6 280,517.5 285,515.8 290,513.3 295,510.2 300,506.6 305,502.5 310,498.0 315,493.2 320,488.2 325,483.1 330,478.0 335,473.1 340,468.4 345,464.0 350,460.1 355,456.7 360,453.8 365,451.6 370,450.1 375,449.3 380,449.2 385,449.9 390,451.3 395,453.4 400,456.1" fill="none" stroke="#fbbf24" stroke-width="1.6" opacity="0.18" />
    <polyline points="0,449.5 5,453.6 10,457.6 15,461.6 20,465.5 25,469.1 30,472.6 35,475.7 40,478.6 45,481.2 50,483.4 55,485.2 60,486.6 65,487.5 70,488.1 75,488.1 80,487.8 85,487.0 90,485.8 95,484.1 100,482.1 105,479.7 110,476.9 115,473.8 120,470.5 125,466.9 130,463.1 135,459.2 140,455.2 145,451.1 150,446.9 155,442.9 160,438.9 165,435.0 170,431.4 175,427.9 180,424.7 185,421.8 190,419.2 195,417.0 200,415.2 205,413.8 210,412.8 215,412.2 220,412.1 225,412.4 230,413.2 235,414.4 240,416.0 245,418.1 250,420.4 255,423.2 260,426.2 265,429.6 270,433.1 275,436.9 280,440.8 285,444.9 290,449.0 295,453.1 300,457.2 305,461.1 310,465.0 315,468.7 320,472.2 325,475.4 330,478.3 335,480.9 340,483.1 345,485.0 350,486.4 355,487.4 360,488.0 365,488.2 370,487.9 375,487.1 380,485.9 385,484.3 390,482.3 395,480.0 400,477.2" fill="none" stroke="#fbbf24" stroke-width="2.6" opacity="0.24" />
    <polyline points="0,404.8 5,406.4 10,407.9 15,409.4 20,410.8 25,412.2 30,413.6 35,414.9 40,416.2 45,417.4 50,418.5 55,419.5 60,420.5 65,421.4 70,422.2 75,422.9 80,423.5 85,424.0 90,424.5 95,424.8 100,425.0 105,425.1 110,425.1 115,425.0 120,424.8 125,424.5 130,424.1 135,423.6 140,423.0 145,422.3 150,421.5 155,420.6 160,419.7 165,418.6 170,417.5 175,416.3 180,415.1 185,413.7 190,412.4 195,411.0 200,409.5 205,408.0 210,406.5 215,405.0 220,403.4 225,401.9 230,400.3 235,398.8 240,397.2 245,395.7 250,394.2 255,392.7 260,391.3 265,389.9 270,388.6 275,387.3 280,386.1 285,385.0 290,383.9 295,383.0 300,382.1 305,381.2 310,380.5 315,379.9 320,379.4 325,378.9 330,378.6 335,378.4 340,378.3 345,378.2 350,378.3 355,378.5 360,378.8 365,379.2 370,379.7 375,380.3 380,380.9 385,381.7 390,382.6 395,383.5 400,384.6" fill="none" stroke="#94a3b8" stroke-width="1.9" opacity="0.27" />
    <polyline points="0,222.3 5,219.7 10,217.0 15,214.2 20,211.4 25,208.6 30,205.7 35,202.9 40,200.1 45,197.4 50,194.7 55,192.1 60,189.6 65,187.2 70,184.9 75,182.8 80,180.7 85,178.9 90,177.2 95,175.7 100,174.4 105,173.2 110,172.3 115,171.6 120,171.1 125,170.8 130,170.7 135,170.8 140,171.1 145,171.7 150,172.4 155,173.4 160,174.6 165,175.9 170,177.5 175,179.2 180,181.0 185,183.1 190,185.3 195,187.6 200,190.0 205,192.5 210,195.1 215,197.8 220,200.6 225,203.4 230,206.2 235,209.0 240,211.8 245,214.6 250,217.4 255,220.1 260,222.8 265,225.3 270,227.8 275,230.1 280,232.3 285,234.4 290,236.3 295,238.1 300,239.7 305,241.1 310,242.3 315,243.3 320,244.2 325,244.8 330,245.2 335,245.4 340,245.4 345,245.1 350,244.7 355,244.0 360,243.1 365,242.1 370,240.8 375,239.3 380,237.7 385,235.9 390,234.0 395,231.8 400,229.6" fill="none" stroke="#64748b" stroke-width="2.7" opacity="0.12" />
    <polyline points="0,41.1 5,41.2 10,41.6 15,42.1 20,42.7 25,43.5 30,44.5 35,45.6 40,46.8 45,48.2 50,49.8 55,51.4 60,53.2 65,55.0 70,57.0 75,59.0 80,61.1 85,63.3 90,65.6 95,67.9 100,70.2 105,72.6 110,74.9 115,77.3 120,79.7 125,82.0 130,84.3 135,86.5 140,88.7 145,90.9 150,92.9 155,94.9 160,96.8 165,98.6 170,100.2 175,101.8 180,103.2 185,104.5 190,105.6 195,106.6 200,107.4 205,108.1 210,108.6 215,109.0 220,109.2 225,109.2 230,109.1 235,108.8 240,108.3 245,107.7 250,106.9 255,106.0 260,104.9 265,103.7 270,102.4 275,100.9 280,99.3 285,97.5 290,95.7 295,93.8 300,91.7 305,89.6 310,87.4 315,85.2 320,82.9 325,80.6 330,78.2 335,75.9 340,73.5 345,71.2 350,68.8 355,66.5 360,64.2 365,62.0 370,59.9 375,57.8 380,55.8 385,53.9 390,52.1 395,50.4 400,48.8" fill="none" stroke="#64748b" stroke-width="1.1" opacity="0.19" /></g>
  <rect x="169.5" y="382.2" width="90.9" height="90.9" fill="#94a3b8" opacity="0.38" />
    <polygon points="387.4,121.3 401.7,149.8 373.1,149.8" fill="#fbbf24" opacity="0.27" />
    <circle cx="266.3" cy="528.5" r="20.0" fill="#94a3b8" opacity="0.39" />
    <rect x="178.5" y="-18.8" width="51.3" height="51.3" fill="#fbbf24" opacity="0.38" />
    <polygon points="116.8,133.3 129.8,159.4 103.8,159.4" fill="#94a3b8" opacity="0.36" />
    <polygon points="301.5,529.6 315.9,558.4 287.1,558.4" fill="#fbbf24" opacity="0.24" />
    <circle cx="136.8" cy="60.1" r="22.7" fill="#64748b" opacity="0.31" />
    <rect x="110.8" y="485.8" width="33.5" height="33.5" fill="#64748b" opacity="0.19" />
  
  <!-- Text background banner -->
  <defs>
    <linearGradient id="text-bg-22" x1="0%" y1="0%" x2="100%" y2="0%">
      <stop offset="0%" style="stop-color:#000000;stop-opacity:0.7" />
      <stop offset="50%" style="stop-color:#64748b;stop-opacity:0.4" />
      <stop offset="100%" style="stop-color:#000000;stop-opacity:0.7" />
    </linearGradient>
  </defs>
  <rect x="0" y="494" width="400" height="56" fill="url(#text-bg-22)" />

  <!-- Text shadow -->
  <text x="200" y="522" font-family="system-ui, -apple-system, sans-serif" font-size="24" font-weight="bold" text-anchor="middle" fill="#000000" opacity="0.8">Dog Walker Dick-Wagger</text>

  <!-- Main text -->
  <text x="200" y="520" font-family="system-ui, -apple-system, sans-serif" font-size="24" font-weight="bold" text-anchor="middle" fill="#ffffff">Dog Walker Dick-Wagger</text>
  
  <!-- Rarity border -->
  <rect x="3" y="3" width="394" height="544"
        fill="none" stroke="#3b82f6" stroke-width="6" rx="8" ry="8" />
</svg>