<?xml version="1.0" encoding="UTF-8"?>
<svg xmlns="http://www.w3.org/2000/svg" viewBox="0 0 400 550" width="400" height="550">
  <defs>
    <linearGradient id="bg-gradient-149" x1="0%" y1="0%" x2="100%" y2="100%">
      <stop offset="0%" style="stop-color:#ef4444;stop-opacity:0.26" />
      <stop offset="50%" style="stop-color:#f97316;stop-opacity:0.4" />
      <stop offset="100%" style="stop-color:#ef4444;stop-opacity:0.26" />
    </linearGradient>
    
  <filter id="shadow-149">
    <feDropShadow dx="0" dy="2" stdDeviation="3" flood-opacity="0.8"/>
  </filter>
  </defs>
  <rect width="400" height="550" fill="url(#bg-gradient-0.5598309456836432)" />
  <g opacity="0.3"><line x1="0" y1="24.1" x2="400" y2="24.1" stroke="#fbbf24" stroke-width="1.7" opacity="0.34" />
    <line x1="334.9" y1="0" x2="334.9" y2="550" stroke="#fbbf24" stroke-width="3.5" opacity="0.14" />
    <line x1="0" y1="102.6" x2="400" y2="102.6" stroke="#ef4444" stroke-width="1.9" opacity="0.20" />
    <line x1="10.3" y1="0" x2="10.3" y2="550" stroke="#f97316" stroke-width="1.6" opacity="0.25" />
    <line x1="0" y1="26.7" x2="400" y2="26.7" stroke="#ef4444" stroke-width="1.5" opacity="0.31" />
    <line x1="0" y1="89.0" x2="400" y2="89.0" stroke="#f97316" stroke-width="2.7" opacity="0.33" />
    <line x1="320.1" y1="0" x2="320.1" y2="550" stroke="#f97316" stroke-width="2.7" opacity="0.16" />
    <line x1="140.0" y1="0" x2="140.0" y2="550" stroke="#f97316" stroke-width="2.4" opacity="0.37" />
    <line x1="101.3" y1="0" x2="101.3" y2="550" stroke="#fbbf24" stroke-width="3.4" opacity="0.35" />
    <line x1="0" y1="13.8" x2="400" y2="13.8" stroke="#ef4444" stroke-width="1.1" opacity="0.22" />
    <line x1="0" y1="437.2" x2="400" y2="437.2" stroke="#ef4444" stroke-width="2.0" opacity="0.17" />
    <line x1="170.3" y1="0" x2="170.3" y2="550" stroke="#fbbf24" stroke-width="3.0" opacity="0.14" />
    <line x1="204.2" y1="0" x2="204.2" y2="550" stroke="#f97316" stroke-width="4.0" opacity="0.35" />
    <line x1="348.5" y1="0" x2="348.5" y2="550" stroke="#fbbf24" stroke-width="1.7" opacity="0.40" />
    <line x1="0" y1="2.8" x2="400" y2="2.8" stroke="#ef4444" stroke-width="2.0" opacity="0.38" />
    <line x1="59.5" y1="0" x2="59.5" y2="550" stroke="#fbbf24" stroke-width="3.0" opacity="0.28" />
    <line x1="0" y1="328.0" x2="400" y2="328.0" stroke="#f97316" stroke-width="3.4" opacity="0.40" />
    <line x1="0" y1="536.0" x2="400" y2="536.0" stroke="#fbbf24" stroke-width="1.1" opacity="0.36" />
    <line x1="0" y1="343.1" x2="400" y2="343.1" stroke="#ef4444" stroke-width="2.2" opacity="0.13" />
    <line x1="71.8" y1="0" x2="71.8" y2="550" stroke="#f97316" stroke-width="1.1" opacity="0.15" /></g>
  <polygon points="171.9,178.0 191.9,218.2 151.8,218.2" fill="#ef4444" opacity="0.36" />
    <circle cx="209.3" cy="338.0" r="39.5" fill="#ef4444" opacity="0.23" />
    <rect x="6.1" y="327.2" width="35.0" height="35.0" fill="#f97316" opacity="0.11" />
    <circle cx="41.7" cy="326.3" r="20.2" fill="#fbbf24" opacity="0.36" />
    <rect x="277.0" y="151.0" width="45.7" height="45.7" fill="#ef4444" opacity="0.35" />
    <circle cx="147.1" cy="482.5" r="39.4" fill="#ef4444" opacity="0.20" />
    <polygon points="349.5,481.5 384.6,551.7 314.4,551.7" fill="#f97316" opacity="0.16" />
    <circle cx="309.4" cy="276.9" r="48.6" fill="#fbbf24" opacity="0.14" />
    <circle cx="316.3" cy="33.4" r="43.4" fill="#fbbf24" opacity="0.12" />
    <polygon points="324.7,287.2 366.3,328.8 324.7,370.4 283.1,328.8" fill="#ef4444" opacity="0.15" />
    <polygon points="75.9,118.3 122.4,164.7 75.9,211.2 29.4,164.7" fill="#fbbf24" opacity="0.39" />
  
  <!-- Text background banner -->
  <defs>
    <linearGradient id="text-bg-25" x1="0%" y1="0%" x2="100%" y2="0%">
      <stop offset="0%" style="stop-color:#000000;stop-opacity:0.7" />
      <stop offset="50%" style="stop-color:#ef4444;stop-opacity:0.4" />
      <stop offset="100%" style="stop-color:#000000;stop-opacity:0.7" />
    </linearGradient>
  </defs>
  <rect x="0" y="494" width="400" height="56" fill="url(#text-bg-25)" />

  <!-- Text shadow -->
  <text x="200" y="522" font-family="system-ui, -apple-system, sans-serif" font-size="24" font-weight="bold" text-anchor="middle" fill="#000000" opacity="0.8">Grill Master Gary the ...</text>

  <!-- Main text -->
  <text x="200" y="520" font-family="system-ui, -apple-system, sans-serif" font-size="24" font-weight="bold" text-anchor="middle" fill="#ffffff">Grill Master Gary the ...</text>
  
  <!-- Rarity border -->
  <rect x="4" y="4" width="392" height="542"
        fill="none" stroke="#eab308" stroke-width="8" rx="8" ry="8" />
</svg>