<?xml version="1.0" encoding="UTF-8"?>
<svg xmlns="http://www.w3.org/2000/svg" viewBox="0 0 400 550" width="400" height="550">
  <defs>
    <linearGradient id="bg-gradient-150" x1="0%" y1="0%" x2="100%" y2="100%">
      <stop offset="0%" style="stop-color:#3b82f6;stop-opacity:0.26" />
      <stop offset="50%" style="stop-color:#6366f1;stop-opacity:0.4" />
      <stop offset="100%" style="stop-color:#3b82f6;stop-opacity:0.26" />
    </linearGradient>
    
  <filter id="shadow-150">
    <feDropShadow dx="0" dy="2" stdDeviation="3" flood-opacity="0.8"/>
  </filter>
  </defs>
  <rect width="400" height="550" fill="url(#bg-gradient-0.0906863824930042)" />
  <g opacity="0.3"><circle cx="6.4" cy="9.1" r="8" fill="#8b5cf6" />
    <circle cx="4.1" cy="43.4" r="8" fill="#3b82f6" />
    <circle cx="4.8" cy="67.5" r="8" fill="#3b82f6" />
    <circle cx="9.5" cy="80.3" r="8" fill="#8b5cf6" />
    <circle cx="4.2" cy="188.0" r="8" fill="#8b5cf6" />
    <circle cx="5.3" cy="206.4" r="8" fill="#6366f1" />
    <circle cx="6.7" cy="247.2" r="8" fill="#3b82f6" />
    <circle cx="2.2" cy="269.3" r="8" fill="#3b82f6" />
    <circle cx="4.0" cy="281.4" r="8" fill="#6366f1" />
    <circle cx="0.2" cy="301.5" r="8" fill="#3b82f6" />
    <circle cx="2.5" cy="384.3" r="8" fill="#3b82f6" />
    <circle cx="9.4" cy="425.3" r="8" fill="#8b5cf6" />
    <circle cx="7.0" cy="443.5" r="8" fill="#6366f1" />
    <circle cx="7.0" cy="487.1" r="8" fill="#6366f1" />
    <circle cx="5.0" cy="507.4" r="8" fill="#8b5cf6" />
    <circle cx="1.9" cy="521.6" r="8" fill="#3b82f6" />
    <circle cx="22.0" cy="9.2" r="8" fill="#3b82f6" />
    <circle cx="27.2" cy="24.3" r="8" fill="#6366f1" />
    <circle cx="20.2" cy="104.5" r="8" fill="#6366f1" />
    <circle cx="25.0" cy="122.4" r="8" fill="#8b5cf6" />
    <circle cx="25.3" cy="145.3" r="8" fill="#6366f1" />
    <circle cx="24.7" cy="160.0" r="8" fill="#6366f1" />
    <circle cx="23.0" cy="200.1" r="8" fill="#8b5cf6" />
    <circle cx="29.4" cy="229.1" r="8" fill="#6366f1" />
    <circle cx="23.6" cy="240.2" r="8" fill="#3b82f6" />
    <circle cx="26.7" cy="268.9" r="8" fill="#6366f1" />
    <circle cx="22.2" cy="305.5" r="8" fill="#8b5cf6" />
    <circle cx="26.8" cy="329.8" r="8" fill="#3b82f6" />
    <circle cx="23.9" cy="365.1" r="8" fill="#8b5cf6" />
    <circle cx="21.8" cy="444.6" r="8" fill="#3b82f6" />
    <circle cx="22.9" cy="504.0" r="8" fill="#6366f1" />
    <circle cx="28.4" cy="549.6" r="8" fill="#3b82f6" />
    <circle cx="43.6" cy="5.0" r="8" fill="#3b82f6" />
    <circle cx="49.3" cy="21.3" r="8" fill="#6366f1" />
    <circle cx="45.8" cy="45.4" r="8" fill="#8b5cf6" />
    <circle cx="48.0" cy="68.1" r="8" fill="#6366f1" />
    <circle cx="42.8" cy="84.4" r="8" fill="#6366f1" />
    <circle cx="45.3" cy="106.0" r="8" fill="#8b5cf6" />
    <circle cx="42.3" cy="120.9" r="8" fill="#3b82f6" />
    <circle cx="40.9" cy="142.7" r="8" fill="#6366f1" />
    <circle cx="46.8" cy="188.1" r="8" fill="#8b5cf6" />
    <circle cx="46.0" cy="209.8" r="8" fill="#3b82f6" />
    <circle cx="47.8" cy="224.7" r="8" fill="#8b5cf6" />
    <circle cx="43.3" cy="262.2" r="8" fill="#6366f1" />
    <circle cx="43.0" cy="280.4" r="8" fill="#6366f1" />
    <circle cx="45.3" cy="308.4" r="8" fill="#8b5cf6" />
    <circle cx="47.4" cy="366.8" r="8" fill="#6366f1" />
    <circle cx="45.7" cy="381.9" r="8" fill="#3b82f6" />
    <circle cx="44.7" cy="406.2" r="8" fill="#8b5cf6" />
    <circle cx="40.0" cy="423.7" r="8" fill="#6366f1" />
    <circle cx="48.9" cy="442.8" r="8" fill="#6366f1" />
    <circle cx="47.1" cy="463.9" r="8" fill="#8b5cf6" />
    <circle cx="40.7" cy="487.4" r="8" fill="#3b82f6" />
    <circle cx="47.7" cy="506.3" r="8" fill="#8b5cf6" />
    <circle cx="49.7" cy="521.8" r="8" fill="#8b5cf6" />
    <circle cx="41.6" cy="543.4" r="8" fill="#3b82f6" />
    <circle cx="63.0" cy="2.1" r="8" fill="#8b5cf6" />
    <circle cx="68.8" cy="21.5" r="8" fill="#6366f1" />
    <circle cx="64.8" cy="45.7" r="8" fill="#3b82f6" />
    <circle cx="68.6" cy="105.5" r="8" fill="#6366f1" />
    <circle cx="60.0" cy="128.6" r="8" fill="#8b5cf6" />
    <circle cx="68.4" cy="160.2" r="8" fill="#3b82f6" />
    <circle cx="64.5" cy="185.2" r="8" fill="#8b5cf6" />
    <circle cx="62.5" cy="207.5" r="8" fill="#3b82f6" />
    <circle cx="62.8" cy="264.6" r="8" fill="#6366f1" />
    <circle cx="60.3" cy="386.7" r="8" fill="#6366f1" />
    <circle cx="69.0" cy="424.2" r="8" fill="#8b5cf6" />
    <circle cx="63.8" cy="442.7" r="8" fill="#3b82f6" />
    <circle cx="61.1" cy="467.1" r="8" fill="#3b82f6" />
    <circle cx="62.8" cy="483.1" r="8" fill="#3b82f6" />
    <circle cx="61.4" cy="542.8" r="8" fill="#8b5cf6" />
    <circle cx="83.5" cy="9.6" r="8" fill="#6366f1" />
    <circle cx="81.1" cy="61.8" r="8" fill="#6366f1" />
    <circle cx="86.5" cy="83.8" r="8" fill="#8b5cf6" />
    <circle cx="88.1" cy="161.7" r="8" fill="#8b5cf6" />
    <circle cx="87.6" cy="183.0" r="8" fill="#8b5cf6" />
    <circle cx="83.4" cy="208.7" r="8" fill="#8b5cf6" />
    <circle cx="82.2" cy="227.6" r="8" fill="#3b82f6" />
    <circle cx="80.5" cy="268.3" r="8" fill="#6366f1" />
    <circle cx="83.6" cy="288.3" r="8" fill="#8b5cf6" />
    <circle cx="89.4" cy="303.5" r="8" fill="#3b82f6" />
    <circle cx="85.4" cy="325.2" r="8" fill="#6366f1" />
    <circle cx="81.2" cy="404.9" r="8" fill="#6366f1" />
    <circle cx="89.9" cy="422.3" r="8" fill="#6366f1" />
    <circle cx="83.1" cy="444.8" r="8" fill="#8b5cf6" />
    <circle cx="86.5" cy="488.1" r="8" fill="#8b5cf6" />
    <circle cx="89.6" cy="505.1" r="8" fill="#6366f1" />
    <circle cx="87.3" cy="543.7" r="8" fill="#3b82f6" />
    <circle cx="104.9" cy="7.7" r="8" fill="#8b5cf6" />
    <circle cx="109.2" cy="22.4" r="8" fill="#8b5cf6" />
    <circle cx="105.4" cy="65.2" r="8" fill="#3b82f6" />
    <circle cx="102.0" cy="81.9" r="8" fill="#6366f1" />
    <circle cx="103.2" cy="106.5" r="8" fill="#8b5cf6" />
    <circle cx="107.6" cy="128.2" r="8" fill="#3b82f6" />
    <circle cx="109.1" cy="144.9" r="8" fill="#3b82f6" />
    <circle cx="107.9" cy="167.4" r="8" fill="#3b82f6" />
    <circle cx="105.2" cy="189.8" r="8" fill="#6366f1" />
    <circle cx="101.7" cy="305.0" r="8" fill="#6366f1" />
    <circle cx="109.0" cy="329.9" r="8" fill="#6366f1" />
    <circle cx="101.0" cy="347.1" r="8" fill="#8b5cf6" />
    <circle cx="101.0" cy="380.2" r="8" fill="#6366f1" />
    <circle cx="107.6" cy="408.3" r="8" fill="#6366f1" />
    <circle cx="101.3" cy="427.3" r="8" fill="#6366f1" />
    <circle cx="104.3" cy="447.6" r="8" fill="#3b82f6" />
    <circle cx="105.0" cy="465.0" r="8" fill="#3b82f6" />
    <circle cx="105.6" cy="506.1" r="8" fill="#3b82f6" />
    <circle cx="102.3" cy="526.7" r="8" fill="#6366f1" />
    <circle cx="109.6" cy="546.3" r="8" fill="#8b5cf6" />
    <circle cx="129.6" cy="5.5" r="8" fill="#6366f1" />
    <circle cx="129.5" cy="41.0" r="8" fill="#3b82f6" />
    <circle cx="128.4" cy="61.1" r="8" fill="#3b82f6" />
    <circle cx="122.0" cy="81.3" r="8" fill="#3b82f6" />
    <circle cx="128.8" cy="108.2" r="8" fill="#3b82f6" />
    <circle cx="129.0" cy="122.7" r="8" fill="#6366f1" />
    <circle cx="127.9" cy="145.4" r="8" fill="#6366f1" />
    <circle cx="129.0" cy="181.6" r="8" fill="#8b5cf6" />
    <circle cx="124.6" cy="204.9" r="8" fill="#8b5cf6" />
    <circle cx="124.0" cy="224.4" r="8" fill="#8b5cf6" />
    <circle cx="123.1" cy="240.0" r="8" fill="#8b5cf6" />
    <circle cx="127.3" cy="288.4" r="8" fill="#3b82f6" />
    <circle cx="121.7" cy="301.6" r="8" fill="#8b5cf6" />
    <circle cx="129.4" cy="322.5" r="8" fill="#8b5cf6" />
    <circle cx="126.9" cy="347.1" r="8" fill="#3b82f6" />
    <circle cx="127.3" cy="405.0" r="8" fill="#8b5cf6" />
    <circle cx="128.8" cy="420.5" r="8" fill="#8b5cf6" />
    <circle cx="123.3" cy="444.8" r="8" fill="#6366f1" />
    <circle cx="122.2" cy="489.7" r="8" fill="#3b82f6" />
    <circle cx="127.5" cy="507.4" r="8" fill="#8b5cf6" />
    <circle cx="121.6" cy="527.9" r="8" fill="#6366f1" />
    <circle cx="149.8" cy="1.5" r="8" fill="#8b5cf6" />
    <circle cx="149.4" cy="46.6" r="8" fill="#8b5cf6" />
    <circle cx="147.6" cy="66.8" r="8" fill="#8b5cf6" />
    <circle cx="142.4" cy="88.8" r="8" fill="#3b82f6" />
    <circle cx="145.8" cy="100.0" r="8" fill="#3b82f6" />
    <circle cx="147.4" cy="129.9" r="8" fill="#3b82f6" />
    <circle cx="143.2" cy="163.5" r="8" fill="#6366f1" />
    <circle cx="145.0" cy="189.9" r="8" fill="#3b82f6" />
    <circle cx="144.5" cy="201.1" r="8" fill="#6366f1" />
    <circle cx="149.3" cy="220.4" r="8" fill="#6366f1" />
    <circle cx="141.6" cy="243.4" r="8" fill="#6366f1" />
    <circle cx="143.9" cy="268.2" r="8" fill="#3b82f6" />
    <circle cx="140.3" cy="308.9" r="8" fill="#6366f1" />
    <circle cx="146.0" cy="326.7" r="8" fill="#8b5cf6" />
    <circle cx="140.8" cy="363.2" r="8" fill="#3b82f6" />
    <circle cx="142.8" cy="407.5" r="8" fill="#6366f1" />
    <circle cx="144.3" cy="440.0" r="8" fill="#8b5cf6" />
    <circle cx="144.6" cy="460.1" r="8" fill="#8b5cf6" />
    <circle cx="149.6" cy="523.3" r="8" fill="#8b5cf6" />
    <circle cx="141.1" cy="549.3" r="8" fill="#6366f1" />
    <circle cx="163.6" cy="0.4" r="8" fill="#8b5cf6" />
    <circle cx="166.1" cy="20.7" r="8" fill="#6366f1" />
    <circle cx="160.1" cy="67.0" r="8" fill="#8b5cf6" />
    <circle cx="165.6" cy="84.9" r="8" fill="#6366f1" />
    <circle cx="166.7" cy="109.4" r="8" fill="#8b5cf6" />
    <circle cx="161.0" cy="150.0" r="8" fill="#6366f1" />
    <circle cx="168.4" cy="168.3" r="8" fill="#8b5cf6" />
    <circle cx="161.6" cy="182.4" r="8" fill="#6366f1" />
    <circle cx="168.0" cy="203.3" r="8" fill="#3b82f6" />
    <circle cx="169.1" cy="227.0" r="8" fill="#3b82f6" />
    <circle cx="160.5" cy="285.8" r="8" fill="#6366f1" />
    <circle cx="166.7" cy="303.3" r="8" fill="#3b82f6" />
    <circle cx="162.0" cy="328.9" r="8" fill="#6366f1" />
    <circle cx="166.6" cy="340.4" r="8" fill="#8b5cf6" />
    <circle cx="165.9" cy="364.0" r="8" fill="#6366f1" />
    <circle cx="165.2" cy="388.6" r="8" fill="#8b5cf6" />
    <circle cx="168.4" cy="402.0" r="8" fill="#8b5cf6" />
    <circle cx="160.9" cy="422.7" r="8" fill="#6366f1" />
    <circle cx="165.4" cy="464.9" r="8" fill="#3b82f6" />
    <circle cx="168.9" cy="506.5" r="8" fill="#8b5cf6" />
    <circle cx="167.9" cy="549.6" r="8" fill="#8b5cf6" />
    <circle cx="189.7" cy="3.9" r="8" fill="#3b82f6" />
    <circle cx="188.6" cy="29.0" r="8" fill="#3b82f6" />
    <circle cx="183.6" cy="43.2" r="8" fill="#6366f1" />
    <circle cx="181.8" cy="68.0" r="8" fill="#6366f1" />
    <circle cx="189.7" cy="85.9" r="8" fill="#3b82f6" />
    <circle cx="183.9" cy="107.5" r="8" fill="#6366f1" />
    <circle cx="186.6" cy="122.4" r="8" fill="#8b5cf6" />
    <circle cx="182.0" cy="161.8" r="8" fill="#8b5cf6" />
    <circle cx="189.9" cy="180.6" r="8" fill="#6366f1" />
    <circle cx="188.5" cy="208.0" r="8" fill="#6366f1" />
    <circle cx="190.0" cy="226.1" r="8" fill="#6366f1" />
    <circle cx="189.1" cy="245.6" r="8" fill="#3b82f6" />
    <circle cx="187.7" cy="260.8" r="8" fill="#6366f1" />
    <circle cx="183.2" cy="286.7" r="8" fill="#6366f1" />
    <circle cx="183.7" cy="301.8" r="8" fill="#8b5cf6" />
    <circle cx="183.5" cy="321.4" r="8" fill="#6366f1" />
    <circle cx="186.0" cy="406.6" r="8" fill="#8b5cf6" />
    <circle cx="182.4" cy="423.3" r="8" fill="#6366f1" />
    <circle cx="189.1" cy="440.8" r="8" fill="#6366f1" />
    <circle cx="187.1" cy="489.3" r="8" fill="#3b82f6" />
    <circle cx="181.1" cy="501.1" r="8" fill="#3b82f6" />
    <circle cx="187.3" cy="520.5" r="8" fill="#6366f1" />
    <circle cx="203.9" cy="3.9" r="8" fill="#3b82f6" />
    <circle cx="200.2" cy="21.8" r="8" fill="#6366f1" />
    <circle cx="205.0" cy="65.3" r="8" fill="#3b82f6" />
    <circle cx="207.1" cy="80.3" r="8" fill="#6366f1" />
    <circle cx="209.9" cy="125.6" r="8" fill="#3b82f6" />
    <circle cx="201.3" cy="143.9" r="8" fill="#8b5cf6" />
    <circle cx="207.3" cy="167.0" r="8" fill="#8b5cf6" />
    <circle cx="207.8" cy="185.3" r="8" fill="#8b5cf6" />
    <circle cx="201.5" cy="207.4" r="8" fill="#3b82f6" />
    <circle cx="202.3" cy="242.1" r="8" fill="#3b82f6" />
    <circle cx="201.2" cy="260.8" r="8" fill="#6366f1" />
    <circle cx="209.4" cy="289.2" r="8" fill="#8b5cf6" />
    <circle cx="204.0" cy="325.4" r="8" fill="#6366f1" />
    <circle cx="200.1" cy="360.1" r="8" fill="#8b5cf6" />
    <circle cx="205.6" cy="382.2" r="8" fill="#3b82f6" />
    <circle cx="200.6" cy="401.3" r="8" fill="#8b5cf6" />
    <circle cx="204.4" cy="428.5" r="8" fill="#3b82f6" />
    <circle cx="200.7" cy="523.8" r="8" fill="#8b5cf6" />
    <circle cx="203.7" cy="547.3" r="8" fill="#3b82f6" />
    <circle cx="226.3" cy="5.4" r="8" fill="#6366f1" />
    <circle cx="224.0" cy="48.4" r="8" fill="#8b5cf6" />
    <circle cx="229.4" cy="101.2" r="8" fill="#6366f1" />
    <circle cx="226.1" cy="127.5" r="8" fill="#6366f1" />
    <circle cx="225.3" cy="167.9" r="8" fill="#8b5cf6" />
    <circle cx="225.5" cy="205.8" r="8" fill="#3b82f6" />
    <circle cx="228.9" cy="222.7" r="8" fill="#6366f1" />
    <circle cx="221.1" cy="247.5" r="8" fill="#6366f1" />
    <circle cx="224.6" cy="263.5" r="8" fill="#8b5cf6" />
    <circle cx="220.8" cy="280.0" r="8" fill="#3b82f6" />
    <circle cx="228.6" cy="326.8" r="8" fill="#6366f1" />
    <circle cx="224.5" cy="347.9" r="8" fill="#3b82f6" />
    <circle cx="222.2" cy="360.2" r="8" fill="#6366f1" />
    <circle cx="229.1" cy="382.7" r="8" fill="#3b82f6" />
    <circle cx="221.2" cy="408.3" r="8" fill="#6366f1" />
    <circle cx="223.7" cy="421.4" r="8" fill="#3b82f6" />
    <circle cx="220.6" cy="466.9" r="8" fill="#8b5cf6" />
    <circle cx="225.8" cy="484.1" r="8" fill="#3b82f6" />
    <circle cx="225.3" cy="508.6" r="8" fill="#8b5cf6" />
    <circle cx="228.7" cy="523.8" r="8" fill="#3b82f6" />
    <circle cx="224.1" cy="548.1" r="8" fill="#6366f1" />
    <circle cx="242.9" cy="9.1" r="8" fill="#3b82f6" />
    <circle cx="247.1" cy="21.0" r="8" fill="#8b5cf6" />
    <circle cx="242.1" cy="40.6" r="8" fill="#8b5cf6" />
    <circle cx="240.6" cy="63.3" r="8" fill="#3b82f6" />
    <circle cx="249.1" cy="163.7" r="8" fill="#3b82f6" />
    <circle cx="241.7" cy="188.3" r="8" fill="#3b82f6" />
    <circle cx="243.2" cy="200.9" r="8" fill="#8b5cf6" />
    <circle cx="240.4" cy="229.8" r="8" fill="#6366f1" />
    <circle cx="249.5" cy="246.4" r="8" fill="#6366f1" />
    <circle cx="242.6" cy="262.1" r="8" fill="#8b5cf6" />
    <circle cx="245.2" cy="307.4" r="8" fill="#8b5cf6" />
    <circle cx="249.9" cy="325.0" r="8" fill="#8b5cf6" />
    <circle cx="248.6" cy="343.8" r="8" fill="#8b5cf6" />
    <circle cx="247.1" cy="363.3" r="8" fill="#6366f1" />
    <circle cx="247.9" cy="383.8" r="8" fill="#8b5cf6" />
    <circle cx="248.0" cy="404.5" r="8" fill="#8b5cf6" />
    <circle cx="246.9" cy="442.8" r="8" fill="#6366f1" />
    <circle cx="243.3" cy="469.5" r="8" fill="#8b5cf6" />
    <circle cx="242.2" cy="488.3" r="8" fill="#3b82f6" />
    <circle cx="241.9" cy="526.7" r="8" fill="#3b82f6" />
    <circle cx="248.5" cy="547.6" r="8" fill="#6366f1" />
    <circle cx="268.9" cy="9.2" r="8" fill="#6366f1" />
    <circle cx="266.3" cy="86.1" r="8" fill="#3b82f6" />
    <circle cx="262.0" cy="106.4" r="8" fill="#6366f1" />
    <circle cx="266.2" cy="123.4" r="8" fill="#6366f1" />
    <circle cx="261.2" cy="186.5" r="8" fill="#8b5cf6" />
    <circle cx="265.3" cy="229.9" r="8" fill="#8b5cf6" />
    <circle cx="269.8" cy="263.0" r="8" fill="#6366f1" />
    <circle cx="263.9" cy="285.2" r="8" fill="#3b82f6" />
    <circle cx="264.0" cy="329.6" r="8" fill="#8b5cf6" />
    <circle cx="261.6" cy="348.3" r="8" fill="#3b82f6" />
    <circle cx="267.0" cy="366.7" r="8" fill="#3b82f6" />
    <circle cx="268.4" cy="381.1" r="8" fill="#6366f1" />
    <circle cx="265.9" cy="408.5" r="8" fill="#6366f1" />
    <circle cx="265.3" cy="421.0" r="8" fill="#8b5cf6" />
    <circle cx="260.3" cy="443.7" r="8" fill="#6366f1" />
    <circle cx="261.2" cy="464.2" r="8" fill="#8b5cf6" />
    <circle cx="269.7" cy="481.6" r="8" fill="#8b5cf6" />
    <circle cx="262.7" cy="501.1" r="8" fill="#8b5cf6" />
    <circle cx="264.8" cy="525.9" r="8" fill="#6366f1" />
    <circle cx="262.9" cy="548.2" r="8" fill="#3b82f6" />
    <circle cx="285.4" cy="4.4" r="8" fill="#8b5cf6" />
    <circle cx="289.1" cy="45.6" r="8" fill="#8b5cf6" />
    <circle cx="280.3" cy="65.9" r="8" fill="#8b5cf6" />
    <circle cx="285.2" cy="82.1" r="8" fill="#3b82f6" />
    <circle cx="287.5" cy="100.0" r="8" fill="#8b5cf6" />
    <circle cx="280.8" cy="129.2" r="8" fill="#6366f1" />
    <circle cx="281.7" cy="145.6" r="8" fill="#6366f1" />
    <circle cx="280.5" cy="161.3" r="8" fill="#3b82f6" />
    <circle cx="289.3" cy="182.9" r="8" fill="#6366f1" />
    <circle cx="281.1" cy="209.3" r="8" fill="#8b5cf6" />
    <circle cx="280.2" cy="228.6" r="8" fill="#8b5cf6" />
    <circle cx="284.9" cy="242.5" r="8" fill="#3b82f6" />
    <circle cx="282.8" cy="266.5" r="8" fill="#8b5cf6" />
    <circle cx="283.6" cy="287.5" r="8" fill="#6366f1" />
    <circle cx="285.1" cy="308.9" r="8" fill="#3b82f6" />
    <circle cx="285.0" cy="328.2" r="8" fill="#6366f1" />
    <circle cx="286.3" cy="360.8" r="8" fill="#6366f1" />
    <circle cx="282.2" cy="389.7" r="8" fill="#3b82f6" />
    <circle cx="281.5" cy="466.3" r="8" fill="#3b82f6" />
    <circle cx="287.7" cy="481.9" r="8" fill="#3b82f6" />
    <circle cx="280.6" cy="541.8" r="8" fill="#8b5cf6" />
    <circle cx="309.1" cy="7.8" r="8" fill="#8b5cf6" />
    <circle cx="308.3" cy="46.9" r="8" fill="#3b82f6" />
    <circle cx="304.2" cy="83.5" r="8" fill="#8b5cf6" />
    <circle cx="304.7" cy="100.4" r="8" fill="#3b82f6" />
    <circle cx="303.4" cy="122.0" r="8" fill="#3b82f6" />
    <circle cx="302.9" cy="141.8" r="8" fill="#6366f1" />
    <circle cx="301.6" cy="188.8" r="8" fill="#3b82f6" />
    <circle cx="309.7" cy="202.0" r="8" fill="#6366f1" />
    <circle cx="306.1" cy="223.3" r="8" fill="#3b82f6" />
    <circle cx="308.9" cy="245.7" r="8" fill="#3b82f6" />
    <circle cx="304.9" cy="267.8" r="8" fill="#3b82f6" />
    <circle cx="304.1" cy="288.7" r="8" fill="#3b82f6" />
    <circle cx="303.2" cy="304.1" r="8" fill="#3b82f6" />
    <circle cx="302.2" cy="325.6" r="8" fill="#6366f1" />
    <circle cx="301.4" cy="341.9" r="8" fill="#6366f1" />
    <circle cx="306.2" cy="360.8" r="8" fill="#6366f1" />
    <circle cx="303.7" cy="406.0" r="8" fill="#8b5cf6" />
    <circle cx="302.9" cy="448.6" r="8" fill="#8b5cf6" />
    <circle cx="307.6" cy="461.5" r="8" fill="#6366f1" />
    <circle cx="308.3" cy="487.2" r="8" fill="#6366f1" />
    <circle cx="304.5" cy="503.4" r="8" fill="#8b5cf6" />
    <circle cx="306.4" cy="521.7" r="8" fill="#6366f1" />
    <circle cx="306.2" cy="542.0" r="8" fill="#3b82f6" />
    <circle cx="327.7" cy="2.3" r="8" fill="#6366f1" />
    <circle cx="322.7" cy="49.2" r="8" fill="#6366f1" />
    <circle cx="325.8" cy="67.4" r="8" fill="#6366f1" />
    <circle cx="327.2" cy="108.1" r="8" fill="#3b82f6" />
    <circle cx="325.3" cy="127.5" r="8" fill="#3b82f6" />
    <circle cx="320.3" cy="162.1" r="8" fill="#3b82f6" />
    <circle cx="320.2" cy="184.4" r="8" fill="#6366f1" />
    <circle cx="329.3" cy="222.3" r="8" fill="#3b82f6" />
    <circle cx="321.6" cy="241.5" r="8" fill="#3b82f6" />
    <circle cx="327.4" cy="282.8" r="8" fill="#6366f1" />
    <circle cx="329.1" cy="308.9" r="8" fill="#6366f1" />
    <circle cx="327.0" cy="346.5" r="8" fill="#8b5cf6" />
    <circle cx="329.8" cy="406.2" r="8" fill="#8b5cf6" />
    <circle cx="329.9" cy="422.4" r="8" fill="#3b82f6" />
    <circle cx="326.8" cy="444.9" r="8" fill="#8b5cf6" />
    <circle cx="320.7" cy="461.1" r="8" fill="#3b82f6" />
    <circle cx="322.4" cy="486.9" r="8" fill="#3b82f6" />
    <circle cx="325.2" cy="506.2" r="8" fill="#6366f1" />
    <circle cx="327.1" cy="527.8" r="8" fill="#8b5cf6" />
    <circle cx="321.5" cy="548.7" r="8" fill="#6366f1" />
    <circle cx="347.7" cy="3.4" r="8" fill="#6366f1" />
    <circle cx="348.0" cy="27.4" r="8" fill="#6366f1" />
    <circle cx="341.6" cy="41.0" r="8" fill="#3b82f6" />
    <circle cx="345.5" cy="83.7" r="8" fill="#3b82f6" />
    <circle cx="348.4" cy="101.4" r="8" fill="#6366f1" />
    <circle cx="349.4" cy="127.5" r="8" fill="#3b82f6" />
    <circle cx="344.9" cy="145.8" r="8" fill="#8b5cf6" />
    <circle cx="349.6" cy="185.1" r="8" fill="#8b5cf6" />
    <circle cx="341.5" cy="207.3" r="8" fill="#8b5cf6" />
    <circle cx="343.8" cy="224.0" r="8" fill="#6366f1" />
    <circle cx="342.7" cy="285.6" r="8" fill="#6366f1" />
    <circle cx="342.7" cy="324.4" r="8" fill="#6366f1" />
    <circle cx="348.8" cy="347.3" r="8" fill="#6366f1" />
    <circle cx="344.2" cy="368.9" r="8" fill="#6366f1" />
    <circle cx="340.6" cy="387.0" r="8" fill="#8b5cf6" />
    <circle cx="346.8" cy="408.5" r="8" fill="#8b5cf6" />
    <circle cx="341.0" cy="424.5" r="8" fill="#3b82f6" />
    <circle cx="343.5" cy="466.3" r="8" fill="#6366f1" />
    <circle cx="346.0" cy="545.5" r="8" fill="#8b5cf6" />
    <circle cx="363.6" cy="2.6" r="8" fill="#3b82f6" />
    <circle cx="367.4" cy="28.6" r="8" fill="#3b82f6" />
    <circle cx="360.0" cy="62.7" r="8" fill="#3b82f6" />
    <circle cx="368.5" cy="106.2" r="8" fill="#6366f1" />
    <circle cx="368.3" cy="124.4" r="8" fill="#6366f1" />
    <circle cx="360.7" cy="161.6" r="8" fill="#8b5cf6" />
    <circle cx="368.9" cy="181.3" r="8" fill="#6366f1" />
    <circle cx="362.7" cy="201.5" r="8" fill="#8b5cf6" />
    <circle cx="360.9" cy="245.1" r="8" fill="#8b5cf6" />
    <circle cx="369.4" cy="265.5" r="8" fill="#3b82f6" />
    <circle cx="369.7" cy="303.0" r="8" fill="#3b82f6" />
    <circle cx="365.6" cy="329.5" r="8" fill="#3b82f6" />
    <circle cx="363.1" cy="382.0" r="8" fill="#8b5cf6" />
    <circle cx="362.8" cy="448.8" r="8" fill="#8b5cf6" />
    <circle cx="360.2" cy="466.0" r="8" fill="#6366f1" />
    <circle cx="361.7" cy="484.3" r="8" fill="#6366f1" />
    <circle cx="363.8" cy="504.9" r="8" fill="#6366f1" />
    <circle cx="363.1" cy="525.7" r="8" fill="#8b5cf6" />
    <circle cx="362.1" cy="544.4" r="8" fill="#8b5cf6" />
    <circle cx="384.1" cy="1.3" r="8" fill="#3b82f6" />
    <circle cx="383.6" cy="49.0" r="8" fill="#3b82f6" />
    <circle cx="389.5" cy="101.6" r="8" fill="#6366f1" />
    <circle cx="381.2" cy="120.9" r="8" fill="#8b5cf6" />
    <circle cx="382.8" cy="164.4" r="8" fill="#8b5cf6" />
    <circle cx="381.5" cy="209.7" r="8" fill="#3b82f6" />
    <circle cx="386.0" cy="250.0" r="8" fill="#6366f1" />
    <circle cx="389.5" cy="263.5" r="8" fill="#8b5cf6" />
    <circle cx="381.2" cy="322.0" r="8" fill="#3b82f6" />
    <circle cx="381.1" cy="349.8" r="8" fill="#3b82f6" />
    <circle cx="383.2" cy="385.3" r="8" fill="#6366f1" />
    <circle cx="386.6" cy="400.9" r="8" fill="#8b5cf6" />
    <circle cx="389.3" cy="421.7" r="8" fill="#6366f1" />
    <circle cx="389.2" cy="446.8" r="8" fill="#8b5cf6" />
    <circle cx="388.4" cy="461.3" r="8" fill="#3b82f6" />
    <circle cx="385.0" cy="480.3" r="8" fill="#6366f1" />
    <circle cx="389.0" cy="548.3" r="8" fill="#3b82f6" /></g>
  <rect x="208.8" y="463.0" width="88.9" height="88.9" fill="#6366f1" opacity="0.26" />
    <circle cx="343.4" cy="142.7" r="47.1" fill="#6366f1" opacity="0.10" />
    <polygon points="239.8,327.9 269.0,386.2 210.7,386.2" fill="#6366f1" opacity="0.20" />
    <rect x="36.3" y="367.4" width="29.2" height="29.2" fill="#8b5cf6" opacity="0.37" />
    <rect x="280.1" y="441.4" width="35.7" height="35.7" fill="#8b5cf6" opacity="0.18" />
    <polygon points="21.2,107.8 46.8,133.4 21.2,159.0 -4.4,133.4" fill="#6366f1" opacity="0.38" />
    <polygon points="5.7,103.8 24.0,140.4 -12.6,140.4" fill="#3b82f6" opacity="0.13" />
    <rect x="23.6" y="430.9" width="68.6" height="68.6" fill="#8b5cf6" opacity="0.35" />
    <polygon points="197.9,64.2 208.6,85.6 187.2,85.6" fill="#8b5cf6" opacity="0.11" />
    <rect x="331.1" y="232.9" width="67.7" height="67.7" fill="#8b5cf6" opacity="0.19" />
    <rect x="231.1" y="315.9" width="99.2" height="99.2" fill="#6366f1" opacity="0.37" />
    <circle cx="41.0" cy="382.1" r="43.0" fill="#3b82f6" opacity="0.22" />
    <circle cx="236.3" cy="472.1" r="42.4" fill="#6366f1" opacity="0.19" />
    <polygon points="135.1,218.5 166.8,282.0 103.3,282.0" fill="#6366f1" opacity="0.22" />
  
  <!-- Text background banner -->
  <defs>
    <linearGradient id="text-bg-21" x1="0%" y1="0%" x2="100%" y2="0%">
      <stop offset="0%" style="stop-color:#000000;stop-opacity:0.7" />
      <stop offset="50%" style="stop-color:#3b82f6;stop-opacity:0.4" />
      <stop offset="100%" style="stop-color:#000000;stop-opacity:0.7" />
    </linearGradient>
  </defs>
  <rect x="0" y="494" width="400" height="56" fill="url(#text-bg-21)" />

  <!-- Text shadow -->
  <text x="200" y="522" font-family="system-ui, -apple-system, sans-serif" font-size="24" font-weight="bold" text-anchor="middle" fill="#000000" opacity="0.8">Thermostat Tyrant Tim</text>

  <!-- Main text -->
  <text x="200" y="520" font-family="system-ui, -apple-system, sans-serif" font-size="24" font-weight="bold" text-anchor="middle" fill="#ffffff">Thermostat Tyrant Tim</text>
  
  <!-- Rarity border -->
  <rect x="5" y="5" width="390" height="540"
        fill="none" stroke="#a855f7" stroke-width="10" rx="8" ry="8" />
</svg>