<?xml version="1.0" encoding="UTF-8"?>
<svg xmlns="http://www.w3.org/2000/svg" viewBox="0 0 400 550" width="400" height="550">
  <defs>
    <linearGradient id="bg-gradient-151" x1="0%" y1="0%" x2="100%" y2="100%">
      <stop offset="0%" style="stop-color:#ec4899;stop-opacity:0.26" />
      <stop offset="50%" style="stop-color:#f472b6;stop-opacity:0.4" />
      <stop offset="100%" style="stop-color:#ec4899;stop-opacity:0.26" />
    </linearGradient>
    
  <filter id="shadow-151">
    <feDropShadow dx="0" dy="2" stdDeviation="3" flood-opacity="0.8"/>
  </filter>
  </defs>
  <rect width="400" height="550" fill="url(#bg-gradient-0.7332248599268496)" />
  <g opacity="0.3"><circle cx="8.1" cy="59.3" r="24.7" fill="none" stroke="#8b5cf6" stroke-width="2.3" opacity="0.29" />
    <rect x="31.3" y="244.1" width="37.9" height="37.9" fill="none" stroke="#f472b6" stroke-width="2.9" opacity="0.23" />
    <rect x="180.0" y="49.3" width="21.0" height="21.0" fill="none" stroke="#8b5cf6" stroke-width="2.9" opacity="0.23" />
    <circle cx="43.8" cy="487.9" r="20.4" fill="none" stroke="#f472b6" stroke-width="2.6" opacity="0.25" />
    <rect x="220.3" y="455.8" width="34.0" height="34.0" fill="none" stroke="#8b5cf6" stroke-width="2.1" opacity="0.16" /></g>
  <polygon points="15.5,64.1 54.6,103.2 15.5,142.3 -23.6,103.2" fill="#ec4899" opacity="0.17" />
    <polygon points="316.7,2.2 336.5,21.9 316.7,41.7 297.0,21.9" fill="#8b5cf6" opacity="0.30" />
    <circle cx="309.7" cy="100.4" r="17.1" fill="#8b5cf6" opacity="0.24" />
    <polygon points="41.9,182.9 61.0,202.0 41.9,221.1 22.9,202.0" fill="#f472b6" opacity="0.37" />
    <circle cx="266.1" cy="417.7" r="14.3" fill="#8b5cf6" opacity="0.12" />
  
  <!-- Text background banner -->
  <defs>
    <linearGradient id="text-bg-25" x1="0%" y1="0%" x2="100%" y2="0%">
      <stop offset="0%" style="stop-color:#000000;stop-opacity:0.7" />
      <stop offset="50%" style="stop-color:#ec4899;stop-opacity:0.4" />
      <stop offset="100%" style="stop-color:#000000;stop-opacity:0.7" />
    </linearGradient>
  </defs>
  <rect x="0" y="494" width="400" height="56" fill="url(#text-bg-25)" />

  <!-- Text shadow -->
  <text x="200" y="522" font-family="system-ui, -apple-system, sans-serif" font-size="24" font-weight="bold" text-anchor="middle" fill="#000000" opacity="0.8">New Balance Nathan Nut...</text>

  <!-- Main text -->
  <text x="200" y="520" font-family="system-ui, -apple-system, sans-serif" font-size="24" font-weight="bold" text-anchor="middle" fill="#ffffff">New Balance Nathan Nut...</text>
  
  <!-- Rarity border -->
  <rect x="2" y="2" width="396" height="546"
        fill="none" stroke="#9ca3af" stroke-width="4" rx="8" ry="8" />
</svg>