<?xml version="1.0" encoding="UTF-8"?>
<svg xmlns="http://www.w3.org/2000/svg" viewBox="0 0 400 550" width="400" height="550">
  <defs>
    <linearGradient id="bg-gradient-152" x1="0%" y1="0%" x2="100%" y2="100%">
      <stop offset="0%" style="stop-color:#ef4444;stop-opacity:0.26" />
      <stop offset="50%" style="stop-color:#f97316;stop-opacity:0.4" />
      <stop offset="100%" style="stop-color:#ef4444;stop-opacity:0.26" />
    </linearGradient>
    
  <filter id="shadow-152">
    <feDropShadow dx="0" dy="2" stdDeviation="3" flood-opacity="0.8"/>
  </filter>
  </defs>
  <rect width="400" height="550" fill="url(#bg-gradient-0.41813349025323987)" />
  <g opacity="0.3"><line x1="14.4" y1="0" x2="14.4" y2="550" stroke="#fbbf24" stroke-width="1.3" opacity="0.22" />
    <line x1="102.0" y1="0" x2="102.0" y2="550" stroke="#ef4444" stroke-width="2.1" opacity="0.25" />
    <line x1="351.9" y1="0" x2="351.9" y2="550" stroke="#ef4444" stroke-width="3.0" opacity="0.28" />
    <line x1="329.2" y1="0" x2="329.2" y2="550" stroke="#ef4444" stroke-width="1.5" opacity="0.36" />
    <line x1="0" y1="80.4" x2="400" y2="80.4" stroke="#fbbf24" stroke-width="1.6" opacity="0.26" />
    <line x1="283.4" y1="0" x2="283.4" y2="550" stroke="#fbbf24" stroke-width="1.2" opacity="0.34" />
    <line x1="237.9" y1="0" x2="237.9" y2="550" stroke="#ef4444" stroke-width="1.1" opacity="0.21" />
    <line x1="33.0" y1="0" x2="33.0" y2="550" stroke="#fbbf24" stroke-width="1.9" opacity="0.18" />
    <line x1="0" y1="458.2" x2="400" y2="458.2" stroke="#fbbf24" stroke-width="1.5" opacity="0.34" />
    <line x1="274.2" y1="0" x2="274.2" y2="550" stroke="#fbbf24" stroke-width="3.6" opacity="0.28" />
    <line x1="0" y1="74.6" x2="400" y2="74.6" stroke="#f97316" stroke-width="1.8" opacity="0.12" />
    <line x1="0" y1="286.4" x2="400" y2="286.4" stroke="#fbbf24" stroke-width="3.0" opacity="0.33" />
    <line x1="0" y1="10.9" x2="400" y2="10.9" stroke="#fbbf24" stroke-width="1.7" opacity="0.29" />
    <line x1="0" y1="364.5" x2="400" y2="364.5" stroke="#f97316" stroke-width="1.2" opacity="0.30" />
    <line x1="0" y1="147.7" x2="400" y2="147.7" stroke="#f97316" stroke-width="3.3" opacity="0.24" />
    <line x1="0" y1="514.9" x2="400" y2="514.9" stroke="#ef4444" stroke-width="1.6" opacity="0.37" />
    <line x1="0" y1="164.8" x2="400" y2="164.8" stroke="#ef4444" stroke-width="3.1" opacity="0.11" />
    <line x1="294.3" y1="0" x2="294.3" y2="550" stroke="#f97316" stroke-width="3.0" opacity="0.27" />
    <line x1="0" y1="530.5" x2="400" y2="530.5" stroke="#f97316" stroke-width="3.6" opacity="0.29" />
    <line x1="359.6" y1="0" x2="359.6" y2="550" stroke="#fbbf24" stroke-width="1.4" opacity="0.20" />
    <line x1="0" y1="304.9" x2="400" y2="304.9" stroke="#ef4444" stroke-width="3.8" opacity="0.29" />
    <line x1="0" y1="91.6" x2="400" y2="91.6" stroke="#f97316" stroke-width="3.8" opacity="0.30" />
    <line x1="0" y1="106.6" x2="400" y2="106.6" stroke="#fbbf24" stroke-width="2.4" opacity="0.23" />
    <line x1="101.7" y1="0" x2="101.7" y2="550" stroke="#ef4444" stroke-width="1.4" opacity="0.17" />
    <line x1="0" y1="470.4" x2="400" y2="470.4" stroke="#fbbf24" stroke-width="1.4" opacity="0.37" />
    <line x1="0" y1="217.6" x2="400" y2="217.6" stroke="#fbbf24" stroke-width="1.3" opacity="0.27" />
    <line x1="123.3" y1="0" x2="123.3" y2="550" stroke="#fbbf24" stroke-width="3.7" opacity="0.29" />
    <line x1="184.4" y1="0" x2="184.4" y2="550" stroke="#ef4444" stroke-width="2.9" opacity="0.28" />
    <line x1="25.0" y1="0" x2="25.0" y2="550" stroke="#ef4444" stroke-width="4.0" opacity="0.12" />
    <line x1="0" y1="40.2" x2="400" y2="40.2" stroke="#fbbf24" stroke-width="2.2" opacity="0.32" />
    <line x1="101.9" y1="0" x2="101.9" y2="550" stroke="#ef4444" stroke-width="2.2" opacity="0.27" />
    <line x1="257.4" y1="0" x2="257.4" y2="550" stroke="#ef4444" stroke-width="2.9" opacity="0.14" />
    <line x1="382.8" y1="0" x2="382.8" y2="550" stroke="#ef4444" stroke-width="2.6" opacity="0.31" />
    <line x1="0" y1="466.7" x2="400" y2="466.7" stroke="#ef4444" stroke-width="3.8" opacity="0.37" />
    <line x1="323.0" y1="0" x2="323.0" y2="550" stroke="#fbbf24" stroke-width="3.2" opacity="0.32" /></g>
  <rect x="88.2" y="124.5" width="76.1" height="76.1" fill="#ef4444" opacity="0.25" />
    <circle cx="224.4" cy="547.6" r="12.7" fill="#fbbf24" opacity="0.23" />
    <circle cx="399.6" cy="507.5" r="48.2" fill="#fbbf24" opacity="0.11" />
    <polygon points="115.7,359.9 165.1,458.8 66.3,458.8" fill="#fbbf24" opacity="0.39" />
    <circle cx="285.2" cy="25.9" r="36.5" fill="#f97316" opacity="0.15" />
    <rect x="325.8" y="269.9" width="90.3" height="90.3" fill="#f97316" opacity="0.39" />
    <polygon points="163.0,225.9 178.8,241.8 163.0,257.6 147.1,241.8" fill="#fbbf24" opacity="0.25" />
    <rect x="54.9" y="219.5" width="84.9" height="84.9" fill="#f97316" opacity="0.10" />
    <circle cx="18.9" cy="184.5" r="15.0" fill="#f97316" opacity="0.36" />
    <rect x="160.4" y="-21.8" width="56.3" height="56.3" fill="#fbbf24" opacity="0.12" />
    <circle cx="301.9" cy="278.0" r="15.8" fill="#ef4444" opacity="0.13" />
    <circle cx="379.6" cy="340.6" r="24.3" fill="#f97316" opacity="0.22" />
    <polygon points="349.0,388.8 394.1,433.9 349.0,479.0 303.9,433.9" fill="#fbbf24" opacity="0.13" />
    <polygon points="346.6,89.9 374.3,117.6 346.6,145.2 319.0,117.6" fill="#fbbf24" opacity="0.14" />
    <polygon points="228.6,314.9 275.6,361.8 228.6,408.7 181.7,361.8" fill="#ef4444" opacity="0.40" />
    <polygon points="297.6,450.4 323.0,501.2 272.2,501.2" fill="#ef4444" opacity="0.27" />
    <polygon points="27.0,189.4 47.3,230.1 6.6,230.1" fill="#ef4444" opacity="0.24" />
    <polygon points="41.5,434.2 66.6,484.4 16.4,484.4" fill="#fbbf24" opacity="0.18" />
    <polygon points="225.3,58.8 274.7,157.5 176.0,157.5" fill="#fbbf24" opacity="0.16" />
    <circle cx="1.1" cy="60.7" r="25.2" fill="#f97316" opacity="0.19" />
  
  <!-- Text background banner -->
  <defs>
    <linearGradient id="text-bg-25" x1="0%" y1="0%" x2="100%" y2="0%">
      <stop offset="0%" style="stop-color:#000000;stop-opacity:0.7" />
      <stop offset="50%" style="stop-color:#ef4444;stop-opacity:0.4" />
      <stop offset="100%" style="stop-color:#000000;stop-opacity:0.7" />
    </linearGradient>
  </defs>
  <rect x="0" y="494" width="400" height="56" fill="url(#text-bg-25)" />

  <!-- Text shadow -->
  <text x="200" y="522" font-family="system-ui, -apple-system, sans-serif" font-size="24" font-weight="bold" text-anchor="middle" fill="#000000" opacity="0.8">The Ultimate Dicktator...</text>

  <!-- Main text -->
  <text x="200" y="520" font-family="system-ui, -apple-system, sans-serif" font-size="24" font-weight="bold" text-anchor="middle" fill="#ffffff">The Ultimate Dicktator...</text>
  
  <!-- Rarity border -->
  <rect x="8" y="8" width="384" height="534"
        fill="none" stroke="#ec4899" stroke-width="16" rx="8" ry="8" />
</svg>