<?xml version="1.0" encoding="UTF-8"?>
<svg xmlns="http://www.w3.org/2000/svg" viewBox="0 0 400 550" width="400" height="550">
  <defs>
    <linearGradient id="bg-gradient-153" x1="0%" y1="0%" x2="100%" y2="100%">
      <stop offset="0%" style="stop-color:#ef4444;stop-opacity:0.26" />
      <stop offset="50%" style="stop-color:#f97316;stop-opacity:0.4" />
      <stop offset="100%" style="stop-color:#ef4444;stop-opacity:0.26" />
    </linearGradient>
    
  <filter id="shadow-153">
    <feDropShadow dx="0" dy="2" stdDeviation="3" flood-opacity="0.8"/>
  </filter>
  </defs>
  <rect width="400" height="550" fill="url(#bg-gradient-0.9940219316631556)" />
  <g opacity="0.3"><line x1="0" y1="254.3" x2="400" y2="254.3" stroke="#ef4444" stroke-width="3.5" opacity="0.34" />
    <line x1="0" y1="80.2" x2="400" y2="80.2" stroke="#fbbf24" stroke-width="2.7" opacity="0.21" />
    <line x1="200.9" y1="0" x2="200.9" y2="550" stroke="#f97316" stroke-width="1.2" opacity="0.21" />
    <line x1="0" y1="260.9" x2="400" y2="260.9" stroke="#ef4444" stroke-width="2.7" opacity="0.25" />
    <line x1="0" y1="50.4" x2="400" y2="50.4" stroke="#fbbf24" stroke-width="1.7" opacity="0.14" />
    <line x1="21.2" y1="0" x2="21.2" y2="550" stroke="#fbbf24" stroke-width="3.9" opacity="0.19" />
    <line x1="0" y1="157.6" x2="400" y2="157.6" stroke="#fbbf24" stroke-width="3.3" opacity="0.21" />
    <line x1="155.1" y1="0" x2="155.1" y2="550" stroke="#ef4444" stroke-width="3.6" opacity="0.30" />
    <line x1="361.6" y1="0" x2="361.6" y2="550" stroke="#ef4444" stroke-width="1.3" opacity="0.18" />
    <line x1="0" y1="161.7" x2="400" y2="161.7" stroke="#ef4444" stroke-width="4.0" opacity="0.39" />
    <line x1="0" y1="13.9" x2="400" y2="13.9" stroke="#ef4444" stroke-width="3.3" opacity="0.32" />
    <line x1="0" y1="200.7" x2="400" y2="200.7" stroke="#f97316" stroke-width="2.3" opacity="0.18" />
    <line x1="234.2" y1="0" x2="234.2" y2="550" stroke="#fbbf24" stroke-width="2.9" opacity="0.16" />
    <line x1="0" y1="470.9" x2="400" y2="470.9" stroke="#ef4444" stroke-width="2.5" opacity="0.35" />
    <line x1="0" y1="362.2" x2="400" y2="362.2" stroke="#ef4444" stroke-width="1.2" opacity="0.23" />
    <line x1="216.2" y1="0" x2="216.2" y2="550" stroke="#fbbf24" stroke-width="2.5" opacity="0.30" />
    <line x1="0" y1="164.9" x2="400" y2="164.9" stroke="#fbbf24" stroke-width="4.0" opacity="0.15" />
    <line x1="216.6" y1="0" x2="216.6" y2="550" stroke="#ef4444" stroke-width="2.1" opacity="0.32" />
    <line x1="0" y1="462.2" x2="400" y2="462.2" stroke="#fbbf24" stroke-width="3.2" opacity="0.16" />
    <line x1="0" y1="228.0" x2="400" y2="228.0" stroke="#f97316" stroke-width="1.3" opacity="0.30" /></g>
  <rect x="66.4" y="4.9" width="61.6" height="61.6" fill="#ef4444" opacity="0.22" />
    <polygon points="390.7,172.7 435.5,262.3 345.9,262.3" fill="#f97316" opacity="0.31" />
    <circle cx="109.9" cy="423.2" r="14.2" fill="#fbbf24" opacity="0.27" />
    <rect x="-42.9" y="153.1" width="92.5" height="92.5" fill="#ef4444" opacity="0.28" />
    <polygon points="233.1,488.9 270.8,564.3 195.4,564.3" fill="#f97316" opacity="0.18" />
    <polygon points="274.1,361.9 290.5,394.7 257.7,394.7" fill="#f97316" opacity="0.31" />
    <rect x="67.3" y="95.2" width="75.4" height="75.4" fill="#ef4444" opacity="0.40" />
    <polygon points="179.8,201.4 210.6,263.0 149.0,263.0" fill="#f97316" opacity="0.17" />
    <polygon points="7.9,432.0 36.9,490.1 -21.1,490.1" fill="#fbbf24" opacity="0.40" />
    <circle cx="67.2" cy="429.6" r="36.4" fill="#ef4444" opacity="0.34" />
    <polygon points="189.4,244.4 225.8,280.9 189.4,317.3 153.0,280.9" fill="#fbbf24" opacity="0.21" />
  
  <!-- Text background banner -->
  <defs>
    <linearGradient id="text-bg-24" x1="0%" y1="0%" x2="100%" y2="0%">
      <stop offset="0%" style="stop-color:#000000;stop-opacity:0.7" />
      <stop offset="50%" style="stop-color:#ef4444;stop-opacity:0.4" />
      <stop offset="100%" style="stop-color:#000000;stop-opacity:0.7" />
    </linearGradient>
  </defs>
  <rect x="0" y="494" width="400" height="56" fill="url(#text-bg-24)" />

  <!-- Text shadow -->
  <text x="200" y="522" font-family="system-ui, -apple-system, sans-serif" font-size="24" font-weight="bold" text-anchor="middle" fill="#000000" opacity="0.8">Smoker Steve Meat-Smoker</text>

  <!-- Main text -->
  <text x="200" y="520" font-family="system-ui, -apple-system, sans-serif" font-size="24" font-weight="bold" text-anchor="middle" fill="#ffffff">Smoker Steve Meat-Smoker</text>
  
  <!-- Rarity border -->
  <rect x="4" y="4" width="392" height="542"
        fill="none" stroke="#eab308" stroke-width="8" rx="8" ry="8" />
</svg>