<?xml version="1.0" encoding="UTF-8"?>
<svg xmlns="http://www.w3.org/2000/svg" viewBox="0 0 400 550" width="400" height="550">
  <defs>
    <linearGradient id="bg-gradient-CURSE_002" x1="0%" y1="0%" x2="100%" y2="100%">
      <stop offset="0%" style="stop-color:#dc2626;stop-opacity:0.26" />
      <stop offset="50%" style="stop-color:#991b1b;stop-opacity:0.4" />
      <stop offset="100%" style="stop-color:#dc2626;stop-opacity:0.26" />
    </linearGradient>
    
  <filter id="shadow-CURSE_002">
    <feDropShadow dx="0" dy="2" stdDeviation="3" flood-opacity="0.8"/>
  </filter>
  </defs>
  <rect width="400" height="550" fill="url(#bg-gradient-0.5319374592509121)" />
  <g opacity="0.3"><line x1="0" y1="140.9" x2="400" y2="140.9" stroke="#dc2626" stroke-width="1.1" opacity="0.20" />
    <line x1="0" y1="496.5" x2="400" y2="496.5" stroke="#7c2d12" stroke-width="2.5" opacity="0.25" />
    <line x1="289.2" y1="0" x2="289.2" y2="550" stroke="#dc2626" stroke-width="1.5" opacity="0.38" />
    <line x1="313.3" y1="0" x2="313.3" y2="550" stroke="#dc2626" stroke-width="2.7" opacity="0.32" />
    <line x1="0" y1="519.3" x2="400" y2="519.3" stroke="#991b1b" stroke-width="3.1" opacity="0.19" />
    <line x1="90.4" y1="0" x2="90.4" y2="550" stroke="#dc2626" stroke-width="1.4" opacity="0.32" />
    <line x1="141.0" y1="0" x2="141.0" y2="550" stroke="#7c2d12" stroke-width="2.8" opacity="0.17" />
    <line x1="354.1" y1="0" x2="354.1" y2="550" stroke="#7c2d12" stroke-width="2.1" opacity="0.34" />
    <line x1="46.3" y1="0" x2="46.3" y2="550" stroke="#991b1b" stroke-width="1.3" opacity="0.36" />
    <line x1="0" y1="316.3" x2="400" y2="316.3" stroke="#7c2d12" stroke-width="1.3" opacity="0.21" />
    <line x1="35.0" y1="0" x2="35.0" y2="550" stroke="#7c2d12" stroke-width="3.3" opacity="0.29" />
    <line x1="0" y1="546.9" x2="400" y2="546.9" stroke="#991b1b" stroke-width="1.9" opacity="0.29" />
    <line x1="43.4" y1="0" x2="43.4" y2="550" stroke="#991b1b" stroke-width="3.1" opacity="0.22" />
    <line x1="0" y1="200.9" x2="400" y2="200.9" stroke="#7c2d12" stroke-width="3.8" opacity="0.27" />
    <line x1="0" y1="36.1" x2="400" y2="36.1" stroke="#991b1b" stroke-width="3.6" opacity="0.37" /></g>
  <polygon points="93.5,75.3 111.5,93.2 93.5,111.2 75.5,93.2" fill="#7c2d12" opacity="0.11" />
    <polygon points="10.1,192.5 30.8,213.2 10.1,233.8 -10.6,213.2" fill="#7c2d12" opacity="0.24" />
    <rect x="255.4" y="441.4" width="34.3" height="34.3" fill="#dc2626" opacity="0.29" />
    <circle cx="57.3" cy="412.8" r="33.0" fill="#991b1b" opacity="0.27" />
    <circle cx="140.0" cy="111.5" r="20.9" fill="#7c2d12" opacity="0.39" />
    <polygon points="48.2,297.7 81.5,330.9 48.2,364.2 15.0,330.9" fill="#7c2d12" opacity="0.36" />
    <circle cx="181.6" cy="122.3" r="16.6" fill="#991b1b" opacity="0.18" />
    <polygon points="324.9,-2.7 338.3,10.7 324.9,24.0 311.5,10.7" fill="#7c2d12" opacity="0.37" />
  
  <!-- Text background banner -->
  <defs>
    <linearGradient id="text-bg-25" x1="0%" y1="0%" x2="100%" y2="0%">
      <stop offset="0%" style="stop-color:#000000;stop-opacity:0.7" />
      <stop offset="50%" style="stop-color:#dc2626;stop-opacity:0.4" />
      <stop offset="100%" style="stop-color:#000000;stop-opacity:0.7" />
    </linearGradient>
  </defs>
  <rect x="0" y="494" width="400" height="56" fill="url(#text-bg-25)" />

  <!-- Text shadow -->
  <text x="200" y="522" font-family="system-ui, -apple-system, sans-serif" font-size="24" font-weight="bold" text-anchor="middle" fill="#000000" opacity="0.8">Microwave Mind-Control...</text>

  <!-- Main text -->
  <text x="200" y="520" font-family="system-ui, -apple-system, sans-serif" font-size="24" font-weight="bold" text-anchor="middle" fill="#ffffff">Microwave Mind-Control...</text>
  
  <!-- Rarity border -->
  <rect x="3" y="3" width="394" height="544"
        fill="none" stroke="#3b82f6" stroke-width="6" rx="8" ry="8" />
</svg>