<?xml version="1.0" encoding="UTF-8"?>
<svg xmlns="http://www.w3.org/2000/svg" viewBox="0 0 400 550" width="400" height="550">
  <defs>
    <linearGradient id="bg-gradient-CURSE_003" x1="0%" y1="0%" x2="100%" y2="100%">
      <stop offset="0%" style="stop-color:#dc2626;stop-opacity:0.26" />
      <stop offset="50%" style="stop-color:#991b1b;stop-opacity:0.4" />
      <stop offset="100%" style="stop-color:#dc2626;stop-opacity:0.26" />
    </linearGradient>
    
  <filter id="shadow-CURSE_003">
    <feDropShadow dx="0" dy="2" stdDeviation="3" flood-opacity="0.8"/>
  </filter>
  </defs>
  <rect width="400" height="550" fill="url(#bg-gradient-0.08702861424535513)" />
  <g opacity="0.3"><line x1="0" y1="384.9" x2="400" y2="384.9" stroke="#dc2626" stroke-width="1.8" opacity="0.15" />
    <line x1="134.5" y1="0" x2="134.5" y2="550" stroke="#991b1b" stroke-width="1.7" opacity="0.21" />
    <line x1="270.9" y1="0" x2="270.9" y2="550" stroke="#7c2d12" stroke-width="3.9" opacity="0.15" />
    <line x1="203.1" y1="0" x2="203.1" y2="550" stroke="#7c2d12" stroke-width="3.3" opacity="0.29" />
    <line x1="240.8" y1="0" x2="240.8" y2="550" stroke="#7c2d12" stroke-width="2.3" opacity="0.27" />
    <line x1="0" y1="161.5" x2="400" y2="161.5" stroke="#dc2626" stroke-width="3.8" opacity="0.30" />
    <line x1="0" y1="114.8" x2="400" y2="114.8" stroke="#7c2d12" stroke-width="1.4" opacity="0.28" />
    <line x1="0" y1="371.7" x2="400" y2="371.7" stroke="#dc2626" stroke-width="1.5" opacity="0.37" />
    <line x1="0" y1="45.9" x2="400" y2="45.9" stroke="#991b1b" stroke-width="2.4" opacity="0.35" />
    <line x1="175.6" y1="0" x2="175.6" y2="550" stroke="#dc2626" stroke-width="3.6" opacity="0.27" /></g>
  <rect x="-26.1" y="-23.7" width="97.0" height="97.0" fill="#991b1b" opacity="0.34" />
    <polygon points="306.8,361.9 325.0,398.2 288.7,398.2" fill="#991b1b" opacity="0.21" />
    <polygon points="5.1,8.5 51.5,54.9 5.1,101.3 -41.3,54.9" fill="#991b1b" opacity="0.39" />
    <circle cx="361.6" cy="241.2" r="36.6" fill="#7c2d12" opacity="0.35" />
    <rect x="216.3" y="171.2" width="91.0" height="91.0" fill="#7c2d12" opacity="0.12" />
  
  <!-- Text background banner -->
  <defs>
    <linearGradient id="text-bg-22" x1="0%" y1="0%" x2="100%" y2="0%">
      <stop offset="0%" style="stop-color:#000000;stop-opacity:0.7" />
      <stop offset="50%" style="stop-color:#dc2626;stop-opacity:0.4" />
      <stop offset="100%" style="stop-color:#000000;stop-opacity:0.7" />
    </linearGradient>
  </defs>
  <rect x="0" y="494" width="400" height="56" fill="url(#text-bg-22)" />

  <!-- Text shadow -->
  <text x="200" y="522" font-family="system-ui, -apple-system, sans-serif" font-size="24" font-weight="bold" text-anchor="middle" fill="#000000" opacity="0.8">Fluoride Fuckery Curse</text>

  <!-- Main text -->
  <text x="200" y="520" font-family="system-ui, -apple-system, sans-serif" font-size="24" font-weight="bold" text-anchor="middle" fill="#ffffff">Fluoride Fuckery Curse</text>
  
  <!-- Rarity border -->
  <rect x="2" y="2" width="396" height="546"
        fill="none" stroke="#9ca3af" stroke-width="4" rx="8" ry="8" />
</svg>