<?xml version="1.0" encoding="UTF-8"?>
<svg xmlns="http://www.w3.org/2000/svg" viewBox="0 0 400 550" width="400" height="550">
  <defs>
    <linearGradient id="bg-gradient-daddypass_exclusive_mythic" x1="0%" y1="0%" x2="100%" y2="100%">
      <stop offset="0%" style="stop-color:#64748b;stop-opacity:0.26" />
      <stop offset="50%" style="stop-color:#94a3b8;stop-opacity:0.4" />
      <stop offset="100%" style="stop-color:#64748b;stop-opacity:0.26" />
    </linearGradient>
    
  <filter id="shadow-daddypass_exclusive_mythic">
    <feDropShadow dx="0" dy="2" stdDeviation="3" flood-opacity="0.8"/>
  </filter>
  </defs>
  <rect width="400" height="550" fill="url(#bg-gradient-0.6553159924224019)" />
  <g opacity="0.3"><line x1="0" y1="235.6" x2="400" y2="235.6" stroke="#94a3b8" stroke-width="1.1" opacity="0.21" />
    <line x1="0" y1="28.0" x2="400" y2="28.0" stroke="#fbbf24" stroke-width="2.3" opacity="0.31" />
    <line x1="41.1" y1="0" x2="41.1" y2="550" stroke="#64748b" stroke-width="1.1" opacity="0.34" />
    <line x1="110.1" y1="0" x2="110.1" y2="550" stroke="#64748b" stroke-width="2.4" opacity="0.28" />
    <line x1="351.1" y1="0" x2="351.1" y2="550" stroke="#fbbf24" stroke-width="3.9" opacity="0.28" />
    <line x1="0" y1="307.3" x2="400" y2="307.3" stroke="#fbbf24" stroke-width="1.8" opacity="0.25" />
    <line x1="90.2" y1="0" x2="90.2" y2="550" stroke="#fbbf24" stroke-width="3.9" opacity="0.21" />
    <line x1="0" y1="236.3" x2="400" y2="236.3" stroke="#fbbf24" stroke-width="3.3" opacity="0.22" />
    <line x1="0" y1="21.8" x2="400" y2="21.8" stroke="#fbbf24" stroke-width="1.4" opacity="0.14" />
    <line x1="151.3" y1="0" x2="151.3" y2="550" stroke="#fbbf24" stroke-width="2.8" opacity="0.26" />
    <line x1="246.2" y1="0" x2="246.2" y2="550" stroke="#94a3b8" stroke-width="3.8" opacity="0.37" />
    <line x1="0" y1="526.4" x2="400" y2="526.4" stroke="#fbbf24" stroke-width="1.7" opacity="0.25" />
    <line x1="0" y1="369.9" x2="400" y2="369.9" stroke="#94a3b8" stroke-width="4.0" opacity="0.29" />
    <line x1="0" y1="198.4" x2="400" y2="198.4" stroke="#fbbf24" stroke-width="3.0" opacity="0.11" />
    <line x1="386.2" y1="0" x2="386.2" y2="550" stroke="#fbbf24" stroke-width="3.0" opacity="0.17" />
    <line x1="0" y1="515.9" x2="400" y2="515.9" stroke="#64748b" stroke-width="3.7" opacity="0.37" />
    <line x1="339.8" y1="0" x2="339.8" y2="550" stroke="#94a3b8" stroke-width="1.3" opacity="0.10" />
    <line x1="0" y1="514.8" x2="400" y2="514.8" stroke="#94a3b8" stroke-width="2.9" opacity="0.40" />
    <line x1="283.5" y1="0" x2="283.5" y2="550" stroke="#64748b" stroke-width="1.1" opacity="0.20" />
    <line x1="0" y1="419.1" x2="400" y2="419.1" stroke="#fbbf24" stroke-width="3.4" opacity="0.28" />
    <line x1="194.2" y1="0" x2="194.2" y2="550" stroke="#94a3b8" stroke-width="3.4" opacity="0.27" />
    <line x1="273.0" y1="0" x2="273.0" y2="550" stroke="#fbbf24" stroke-width="2.8" opacity="0.37" />
    <line x1="0" y1="1.9" x2="400" y2="1.9" stroke="#fbbf24" stroke-width="2.7" opacity="0.14" />
    <line x1="0" y1="66.1" x2="400" y2="66.1" stroke="#fbbf24" stroke-width="3.3" opacity="0.13" />
    <line x1="46.6" y1="0" x2="46.6" y2="550" stroke="#94a3b8" stroke-width="2.0" opacity="0.31" />
    <line x1="0" y1="459.9" x2="400" y2="459.9" stroke="#94a3b8" stroke-width="3.2" opacity="0.26" />
    <line x1="0" y1="500.9" x2="400" y2="500.9" stroke="#64748b" stroke-width="2.2" opacity="0.14" />
    <line x1="67.4" y1="0" x2="67.4" y2="550" stroke="#64748b" stroke-width="2.8" opacity="0.26" />
    <line x1="113.8" y1="0" x2="113.8" y2="550" stroke="#64748b" stroke-width="1.6" opacity="0.15" />
    <line x1="0" y1="367.0" x2="400" y2="367.0" stroke="#94a3b8" stroke-width="2.2" opacity="0.20" />
    <line x1="261.2" y1="0" x2="261.2" y2="550" stroke="#fbbf24" stroke-width="3.6" opacity="0.17" />
    <line x1="0" y1="14.4" x2="400" y2="14.4" stroke="#64748b" stroke-width="2.7" opacity="0.20" />
    <line x1="307.4" y1="0" x2="307.4" y2="550" stroke="#fbbf24" stroke-width="2.2" opacity="0.11" />
    <line x1="0" y1="477.8" x2="400" y2="477.8" stroke="#fbbf24" stroke-width="2.6" opacity="0.15" />
    <line x1="10.0" y1="0" x2="10.0" y2="550" stroke="#fbbf24" stroke-width="1.0" opacity="0.29" /></g>
  <polygon points="40.1,328.4 55.9,344.3 40.1,360.1 24.2,344.3" fill="#64748b" opacity="0.34" />
    <polygon points="286.7,312.4 323.9,386.7 249.5,386.7" fill="#94a3b8" opacity="0.26" />
    <polygon points="217.3,20.1 256.9,59.7 217.3,99.3 177.7,59.7" fill="#fbbf24" opacity="0.28" />
    <polygon points="229.4,285.4 256.1,312.1 229.4,338.8 202.7,312.1" fill="#94a3b8" opacity="0.29" />
    <polygon points="113.9,294.8 143.1,324.0 113.9,353.2 84.7,324.0" fill="#94a3b8" opacity="0.32" />
    <polygon points="31.6,412.3 63.5,476.3 -0.4,476.3" fill="#fbbf24" opacity="0.15" />
    <polygon points="211.8,184.6 227.9,216.8 195.7,216.8" fill="#fbbf24" opacity="0.16" />
    <circle cx="87.8" cy="108.7" r="44.8" fill="#fbbf24" opacity="0.35" />
    <circle cx="30.9" cy="12.5" r="18.4" fill="#fbbf24" opacity="0.24" />
    <polygon points="392.7,51.6 436.9,95.8 392.7,140.0 348.5,95.8" fill="#64748b" opacity="0.17" />
    <polygon points="96.4,112.3 146.3,212.1 46.5,212.1" fill="#fbbf24" opacity="0.36" />
    <circle cx="296.7" cy="486.5" r="35.1" fill="#64748b" opacity="0.32" />
    <polygon points="25.3,236.5 40.9,267.6 9.7,267.6" fill="#64748b" opacity="0.32" />
    <rect x="218.0" y="272.0" width="96.3" height="96.3" fill="#fbbf24" opacity="0.18" />
    <polygon points="302.7,427.9 335.9,494.3 269.6,494.3" fill="#fbbf24" opacity="0.14" />
    <circle cx="293.0" cy="51.9" r="39.3" fill="#64748b" opacity="0.28" />
    <circle cx="349.4" cy="541.9" r="32.4" fill="#64748b" opacity="0.35" />
    <rect x="274.7" y="39.6" width="45.5" height="45.5" fill="#fbbf24" opacity="0.21" />
    <polygon points="43.3,290.6 65.1,312.3 43.3,334.0 21.6,312.3" fill="#fbbf24" opacity="0.15" />
    <circle cx="171.7" cy="411.8" r="15.5" fill="#94a3b8" opacity="0.18" />
  
  <!-- Text background banner -->
  <defs>
    <linearGradient id="text-bg-20" x1="0%" y1="0%" x2="100%" y2="0%">
      <stop offset="0%" style="stop-color:#000000;stop-opacity:0.7" />
      <stop offset="50%" style="stop-color:#64748b;stop-opacity:0.4" />
      <stop offset="100%" style="stop-color:#000000;stop-opacity:0.7" />
    </linearGradient>
  </defs>
  <rect x="0" y="494" width="400" height="56" fill="url(#text-bg-20)" />

  <!-- Text shadow -->
  <text x="200" y="522" font-family="system-ui, -apple-system, sans-serif" font-size="24" font-weight="bold" text-anchor="middle" fill="#000000" opacity="0.8">Ultimate DadPass Dad</text>

  <!-- Main text -->
  <text x="200" y="520" font-family="system-ui, -apple-system, sans-serif" font-size="24" font-weight="bold" text-anchor="middle" fill="#ffffff">Ultimate DadPass Dad</text>
  
  <!-- Rarity border -->
  <rect x="8" y="8" width="384" height="534"
        fill="none" stroke="#ec4899" stroke-width="16" rx="8" ry="8" />
</svg>