<?xml version="1.0" encoding="UTF-8"?>
<svg xmlns="http://www.w3.org/2000/svg" viewBox="0 0 400 550" width="400" height="550">
  <defs>
    <linearGradient id="bg-gradient-daddypass_exclusive_legendary" x1="0%" y1="0%" x2="100%" y2="100%">
      <stop offset="0%" style="stop-color:#64748b;stop-opacity:0.26" />
      <stop offset="50%" style="stop-color:#94a3b8;stop-opacity:0.4" />
      <stop offset="100%" style="stop-color:#64748b;stop-opacity:0.26" />
    </linearGradient>
    
  <filter id="shadow-daddypass_exclusive_legendary">
    <feDropShadow dx="0" dy="2" stdDeviation="3" flood-opacity="0.8"/>
  </filter>
  </defs>
  <rect width="400" height="550" fill="url(#bg-gradient-0.8044751244597137)" />
  <g opacity="0.3"><circle cx="320.8" cy="112.6" r="24.0" fill="none" stroke="#94a3b8" stroke-width="1.0" opacity="0.28" />
    <circle cx="245.5" cy="370.9" r="32.4" fill="none" stroke="#64748b" stroke-width="1.9" opacity="0.12" />
    <rect x="174.5" y="132.7" width="31.5" height="31.5" fill="none" stroke="#94a3b8" stroke-width="1.1" opacity="0.10" />
    <rect x="-9.9" y="389.7" width="44.4" height="44.4" fill="none" stroke="#fbbf24" stroke-width="1.6" opacity="0.27" />
    <circle cx="117.9" cy="511.1" r="22.9" fill="none" stroke="#fbbf24" stroke-width="1.4" opacity="0.21" />
    <rect x="94.8" y="265.5" width="78.0" height="78.0" fill="none" stroke="#64748b" stroke-width="1.5" opacity="0.25" />
    <circle cx="137.4" cy="42.4" r="37.6" fill="none" stroke="#94a3b8" stroke-width="1.3" opacity="0.20" />
    <circle cx="328.0" cy="521.1" r="30.2" fill="none" stroke="#94a3b8" stroke-width="1.8" opacity="0.27" />
    <circle cx="122.7" cy="374.6" r="28.5" fill="none" stroke="#94a3b8" stroke-width="1.5" opacity="0.15" />
    <circle cx="20.7" cy="170.7" r="30.0" fill="none" stroke="#94a3b8" stroke-width="3.0" opacity="0.27" />
    <rect x="283.0" y="366.9" width="55.7" height="55.7" fill="none" stroke="#94a3b8" stroke-width="2.6" opacity="0.24" />
    <circle cx="329.8" cy="372.0" r="19.2" fill="none" stroke="#94a3b8" stroke-width="2.8" opacity="0.19" />
    <circle cx="162.2" cy="370.7" r="35.5" fill="none" stroke="#64748b" stroke-width="2.4" opacity="0.13" /></g>
  <polygon points="122.1,5.0 134.8,30.3 109.4,30.3" fill="#94a3b8" opacity="0.40" />
    <polygon points="264.1,392.0 311.8,439.7 264.1,487.4 216.4,439.7" fill="#94a3b8" opacity="0.20" />
    <polygon points="334.3,79.7 366.4,111.7 334.3,143.8 302.3,111.7" fill="#64748b" opacity="0.17" />
    <rect x="347.7" y="384.0" width="87.9" height="87.9" fill="#94a3b8" opacity="0.32" />
    <rect x="-1.9" y="246.6" width="38.7" height="38.7" fill="#64748b" opacity="0.37" />
    <rect x="109.2" y="62.3" width="56.6" height="56.6" fill="#64748b" opacity="0.23" />
    <rect x="10.5" y="139.0" width="29.6" height="29.6" fill="#fbbf24" opacity="0.38" />
    <polygon points="389.4,370.6 407.0,406.0 371.7,406.0" fill="#94a3b8" opacity="0.34" />
    <polygon points="70.4,389.4 108.2,465.1 32.6,465.1" fill="#94a3b8" opacity="0.15" />
    <polygon points="287.4,118.7 311.3,166.5 263.5,166.5" fill="#fbbf24" opacity="0.33" />
    <circle cx="291.8" cy="536.6" r="34.2" fill="#64748b" opacity="0.16" />
    <rect x="100.0" y="-4.1" width="52.2" height="52.2" fill="#94a3b8" opacity="0.30" />
    <circle cx="179.9" cy="240.4" r="39.6" fill="#fbbf24" opacity="0.28" />
    <polygon points="0.4,226.6 25.3,251.5 0.4,276.4 -24.4,251.5" fill="#fbbf24" opacity="0.15" />
    <circle cx="301.9" cy="112.3" r="44.6" fill="#94a3b8" opacity="0.21" />
    <polygon points="244.1,164.9 271.0,218.8 217.1,218.8" fill="#94a3b8" opacity="0.10" />
    <rect x="214.0" y="-9.4" width="56.4" height="56.4" fill="#64748b" opacity="0.13" />
  
  <!-- Text background banner -->
  <defs>
    <linearGradient id="text-bg-14" x1="0%" y1="0%" x2="100%" y2="0%">
      <stop offset="0%" style="stop-color:#000000;stop-opacity:0.7" />
      <stop offset="50%" style="stop-color:#64748b;stop-opacity:0.4" />
      <stop offset="100%" style="stop-color:#000000;stop-opacity:0.7" />
    </linearGradient>
  </defs>
  <rect x="0" y="494" width="400" height="56" fill="url(#text-bg-14)" />

  <!-- Text shadow -->
  <text x="200" y="522" font-family="system-ui, -apple-system, sans-serif" font-size="24" font-weight="bold" text-anchor="middle" fill="#000000" opacity="0.8">DadPass Legend</text>

  <!-- Main text -->
  <text x="200" y="520" font-family="system-ui, -apple-system, sans-serif" font-size="24" font-weight="bold" text-anchor="middle" fill="#ffffff">DadPass Legend</text>
  
  <!-- Rarity border -->
  <rect x="6" y="6" width="388" height="538"
        fill="none" stroke="#f97316" stroke-width="12" rx="8" ry="8" />
</svg>