<?xml version="1.0" encoding="UTF-8"?>
<svg xmlns="http://www.w3.org/2000/svg" viewBox="0 0 400 550" width="400" height="550">
  <defs>
    <linearGradient id="bg-gradient-DAUGHTER_DINGBAT_001" x1="0%" y1="0%" x2="100%" y2="100%">
      <stop offset="0%" style="stop-color:#64748b;stop-opacity:0.26" />
      <stop offset="50%" style="stop-color:#94a3b8;stop-opacity:0.4" />
      <stop offset="100%" style="stop-color:#64748b;stop-opacity:0.26" />
    </linearGradient>
    
  <filter id="shadow-DAUGHTER_DINGBAT_001">
    <feDropShadow dx="0" dy="2" stdDeviation="3" flood-opacity="0.8"/>
  </filter>
  </defs>
  <rect width="400" height="550" fill="url(#bg-gradient-0.7216112990863621)" />
  <g opacity="0.3"><line x1="312.2" y1="0" x2="312.2" y2="550" stroke="#64748b" stroke-width="1.4" opacity="0.37" />
    <line x1="0" y1="425.9" x2="400" y2="425.9" stroke="#fbbf24" stroke-width="1.5" opacity="0.35" />
    <line x1="0" y1="77.3" x2="400" y2="77.3" stroke="#fbbf24" stroke-width="2.8" opacity="0.19" />
    <line x1="162.6" y1="0" x2="162.6" y2="550" stroke="#64748b" stroke-width="2.2" opacity="0.12" />
    <line x1="0" y1="506.5" x2="400" y2="506.5" stroke="#94a3b8" stroke-width="3.7" opacity="0.21" />
    <line x1="0" y1="229.2" x2="400" y2="229.2" stroke="#64748b" stroke-width="2.0" opacity="0.18" />
    <line x1="0" y1="503.9" x2="400" y2="503.9" stroke="#64748b" stroke-width="3.0" opacity="0.33" />
    <line x1="0" y1="398.7" x2="400" y2="398.7" stroke="#94a3b8" stroke-width="3.4" opacity="0.14" />
    <line x1="286.6" y1="0" x2="286.6" y2="550" stroke="#fbbf24" stroke-width="3.6" opacity="0.22" />
    <line x1="209.3" y1="0" x2="209.3" y2="550" stroke="#64748b" stroke-width="2.7" opacity="0.25" />
    <line x1="294.4" y1="0" x2="294.4" y2="550" stroke="#64748b" stroke-width="3.9" opacity="0.15" />
    <line x1="0" y1="144.1" x2="400" y2="144.1" stroke="#64748b" stroke-width="2.2" opacity="0.25" />
    <line x1="277.6" y1="0" x2="277.6" y2="550" stroke="#fbbf24" stroke-width="2.6" opacity="0.19" />
    <line x1="0" y1="292.9" x2="400" y2="292.9" stroke="#94a3b8" stroke-width="2.4" opacity="0.35" />
    <line x1="0" y1="456.5" x2="400" y2="456.5" stroke="#fbbf24" stroke-width="1.5" opacity="0.23" />
    <line x1="0" y1="374.6" x2="400" y2="374.6" stroke="#94a3b8" stroke-width="1.8" opacity="0.32" />
    <line x1="237.6" y1="0" x2="237.6" y2="550" stroke="#94a3b8" stroke-width="1.5" opacity="0.19" />
    <line x1="288.2" y1="0" x2="288.2" y2="550" stroke="#fbbf24" stroke-width="1.1" opacity="0.31" />
    <line x1="0" y1="416.5" x2="400" y2="416.5" stroke="#64748b" stroke-width="1.9" opacity="0.40" />
    <line x1="166.9" y1="0" x2="166.9" y2="550" stroke="#94a3b8" stroke-width="1.9" opacity="0.29" /></g>
  <rect x="-24.3" y="207.2" width="67.2" height="67.2" fill="#64748b" opacity="0.39" />
    <rect x="-13.7" y="251.2" width="93.8" height="93.8" fill="#fbbf24" opacity="0.14" />
    <polygon points="76.1,256.5 95.7,276.1 76.1,295.8 56.5,276.1" fill="#fbbf24" opacity="0.36" />
    <circle cx="162.9" cy="413.0" r="44.0" fill="#94a3b8" opacity="0.11" />
    <polygon points="285.1,159.7 327.3,201.8 285.1,244.0 243.0,201.8" fill="#fbbf24" opacity="0.33" />
    <polygon points="272.9,170.9 297.8,195.8 272.9,220.7 248.1,195.8" fill="#94a3b8" opacity="0.12" />
    <polygon points="331.3,40.9 345.8,55.4 331.3,69.9 316.8,55.4" fill="#fbbf24" opacity="0.10" />
    <rect x="380.3" y="526.1" width="30.8" height="30.8" fill="#fbbf24" opacity="0.35" />
    <polygon points="356.0,401.8 387.5,433.3 356.0,464.7 324.6,433.3" fill="#fbbf24" opacity="0.29" />
    <polygon points="265.9,175.0 276.4,185.4 265.9,195.8 255.5,185.4" fill="#64748b" opacity="0.14" />
    <rect x="355.6" y="324.9" width="21.5" height="21.5" fill="#64748b" opacity="0.25" />
  
  <!-- Text background banner -->
  <defs>
    <linearGradient id="text-bg-17" x1="0%" y1="0%" x2="100%" y2="0%">
      <stop offset="0%" style="stop-color:#000000;stop-opacity:0.7" />
      <stop offset="50%" style="stop-color:#64748b;stop-opacity:0.4" />
      <stop offset="100%" style="stop-color:#000000;stop-opacity:0.7" />
    </linearGradient>
  </defs>
  <rect x="0" y="494" width="400" height="56" fill="url(#text-bg-17)" />

  <!-- Text shadow -->
  <text x="200" y="522" font-family="system-ui, -apple-system, sans-serif" font-size="24" font-weight="bold" text-anchor="middle" fill="#000000" opacity="0.8">Selfie Slut Sarah</text>

  <!-- Main text -->
  <text x="200" y="520" font-family="system-ui, -apple-system, sans-serif" font-size="24" font-weight="bold" text-anchor="middle" fill="#ffffff">Selfie Slut Sarah</text>
  
  <!-- Rarity border -->
  <rect x="4" y="4" width="392" height="542"
        fill="none" stroke="#eab308" stroke-width="8" rx="8" ry="8" />
</svg>