<?xml version="1.0" encoding="UTF-8"?>
<svg xmlns="http://www.w3.org/2000/svg" viewBox="0 0 400 550" width="400" height="550">
  <defs>
    <linearGradient id="bg-gradient-DUNE_003" x1="0%" y1="0%" x2="100%" y2="100%">
      <stop offset="0%" style="stop-color:#64748b;stop-opacity:0.26" />
      <stop offset="50%" style="stop-color:#94a3b8;stop-opacity:0.4" />
      <stop offset="100%" style="stop-color:#64748b;stop-opacity:0.26" />
    </linearGradient>
    
  <filter id="shadow-DUNE_003">
    <feDropShadow dx="0" dy="2" stdDeviation="3" flood-opacity="0.8"/>
  </filter>
  </defs>
  <rect width="400" height="550" fill="url(#bg-gradient-0.27394789829850197)" />
  <g opacity="0.3"><rect x="291.0" y="198.1" width="31.0" height="31.0" fill="none" stroke="#94a3b8" stroke-width="2.3" opacity="0.13" />
    <circle cx="18.1" cy="415.9" r="26.7" fill="none" stroke="#64748b" stroke-width="1.0" opacity="0.15" />
    <rect x="241.8" y="9.0" width="29.0" height="29.0" fill="none" stroke="#64748b" stroke-width="1.8" opacity="0.15" />
    <circle cx="58.2" cy="479.6" r="38.6" fill="none" stroke="#64748b" stroke-width="2.4" opacity="0.18" />
    <circle cx="124.2" cy="201.6" r="23.0" fill="none" stroke="#94a3b8" stroke-width="1.6" opacity="0.29" />
    <circle cx="171.7" cy="413.6" r="27.3" fill="none" stroke="#64748b" stroke-width="2.0" opacity="0.16" />
    <circle cx="140.7" cy="153.1" r="20.8" fill="none" stroke="#fbbf24" stroke-width="1.4" opacity="0.18" />
    <circle cx="134.7" cy="178.4" r="14.4" fill="none" stroke="#94a3b8" stroke-width="1.5" opacity="0.12" />
    <rect x="152.8" y="422.5" width="34.0" height="34.0" fill="none" stroke="#fbbf24" stroke-width="1.4" opacity="0.22" />
    <circle cx="385.2" cy="449.6" r="14.7" fill="none" stroke="#94a3b8" stroke-width="1.5" opacity="0.30" />
    <circle cx="88.5" cy="32.1" r="35.3" fill="none" stroke="#94a3b8" stroke-width="1.5" opacity="0.15" /></g>
  <polygon points="233.3,47.5 252.2,85.4 214.3,85.4" fill="#94a3b8" opacity="0.25" />
    <rect x="24.0" y="64.3" width="82.7" height="82.7" fill="#94a3b8" opacity="0.18" />
    <polygon points="65.5,-17.3 84.8,2.0 65.5,21.2 46.3,2.0" fill="#64748b" opacity="0.33" />
    <circle cx="307.3" cy="390.6" r="45.2" fill="#94a3b8" opacity="0.27" />
    <circle cx="236.4" cy="271.1" r="39.8" fill="#94a3b8" opacity="0.22" />
    <rect x="321.7" y="292.0" width="45.4" height="45.4" fill="#fbbf24" opacity="0.16" />
    <rect x="323.3" y="210.0" width="53.8" height="53.8" fill="#64748b" opacity="0.25" />
    <polygon points="225.6,173.1 252.4,199.9 225.6,226.6 198.9,199.9" fill="#94a3b8" opacity="0.27" />
    <polygon points="107.9,200.7 134.3,253.5 81.5,253.5" fill="#fbbf24" opacity="0.37" />
    <rect x="-5.2" y="125.1" width="98.6" height="98.6" fill="#fbbf24" opacity="0.31" />
    <rect x="193.1" y="94.3" width="89.5" height="89.5" fill="#64748b" opacity="0.25" />
    <polygon points="306.9,331.2 334.8,386.9 279.0,386.9" fill="#64748b" opacity="0.20" />
    <polygon points="104.9,156.8 150.6,248.3 59.2,248.3" fill="#64748b" opacity="0.32" />
    <circle cx="258.8" cy="142.4" r="21.3" fill="#fbbf24" opacity="0.11" />
  
  <!-- Text background banner -->
  <defs>
    <linearGradient id="text-bg-25" x1="0%" y1="0%" x2="100%" y2="0%">
      <stop offset="0%" style="stop-color:#000000;stop-opacity:0.7" />
      <stop offset="50%" style="stop-color:#64748b;stop-opacity:0.4" />
      <stop offset="100%" style="stop-color:#000000;stop-opacity:0.7" />
    </linearGradient>
  </defs>
  <rect x="0" y="494" width="400" height="56" fill="url(#text-bg-25)" />

  <!-- Text shadow -->
  <text x="200" y="522" font-family="system-ui, -apple-system, sans-serif" font-size="24" font-weight="bold" text-anchor="middle" fill="#000000" opacity="0.8">Baron Harkonnen the Bl...</text>

  <!-- Main text -->
  <text x="200" y="520" font-family="system-ui, -apple-system, sans-serif" font-size="24" font-weight="bold" text-anchor="middle" fill="#ffffff">Baron Harkonnen the Bl...</text>
  
  <!-- Rarity border -->
  <rect x="5" y="5" width="390" height="540"
        fill="none" stroke="#a855f7" stroke-width="10" rx="8" ry="8" />
</svg>