<?xml version="1.0" encoding="UTF-8"?>
<svg xmlns="http://www.w3.org/2000/svg" viewBox="0 0 400 550" width="400" height="550">
  <defs>
    <linearGradient id="bg-gradient-DUNE_001" x1="0%" y1="0%" x2="100%" y2="100%">
      <stop offset="0%" style="stop-color:#64748b;stop-opacity:0.26" />
      <stop offset="50%" style="stop-color:#94a3b8;stop-opacity:0.4" />
      <stop offset="100%" style="stop-color:#64748b;stop-opacity:0.26" />
    </linearGradient>
    
  <filter id="shadow-DUNE_001">
    <feDropShadow dx="0" dy="2" stdDeviation="3" flood-opacity="0.8"/>
  </filter>
  </defs>
  <rect width="400" height="550" fill="url(#bg-gradient-0.8177849873900414)" />
  <g opacity="0.3"><rect x="217.3" y="262.1" width="21.9" height="21.9" fill="none" stroke="#94a3b8" stroke-width="1.9" opacity="0.10" />
    <rect x="292.7" y="205.5" width="69.0" height="69.0" fill="none" stroke="#fbbf24" stroke-width="1.9" opacity="0.29" />
    <rect x="278.9" y="180.9" width="47.6" height="47.6" fill="none" stroke="#fbbf24" stroke-width="1.0" opacity="0.21" />
    <circle cx="179.1" cy="266.0" r="11.9" fill="none" stroke="#64748b" stroke-width="2.2" opacity="0.15" />
    <circle cx="240.9" cy="34.4" r="34.7" fill="none" stroke="#fbbf24" stroke-width="3.0" opacity="0.14" />
    <circle cx="14.5" cy="39.1" r="19.1" fill="none" stroke="#64748b" stroke-width="1.3" opacity="0.15" />
    <rect x="120.3" y="486.7" width="69.9" height="69.9" fill="none" stroke="#fbbf24" stroke-width="2.6" opacity="0.11" />
    <circle cx="323.8" cy="182.8" r="13.7" fill="none" stroke="#64748b" stroke-width="1.2" opacity="0.21" />
    <rect x="1.8" y="289.1" width="26.6" height="26.6" fill="none" stroke="#94a3b8" stroke-width="2.5" opacity="0.29" />
    <rect x="270.5" y="74.3" width="41.5" height="41.5" fill="none" stroke="#64748b" stroke-width="1.8" opacity="0.26" />
    <circle cx="336.1" cy="195.3" r="32.2" fill="none" stroke="#fbbf24" stroke-width="1.2" opacity="0.25" />
    <circle cx="326.8" cy="215.6" r="30.0" fill="none" stroke="#fbbf24" stroke-width="1.1" opacity="0.26" />
    <rect x="160.9" y="442.7" width="58.5" height="58.5" fill="none" stroke="#fbbf24" stroke-width="3.0" opacity="0.13" /></g>
  <circle cx="390.3" cy="194.1" r="10.6" fill="#fbbf24" opacity="0.12" />
    <polygon points="387.8,259.3 405.3,276.8 387.8,294.3 370.4,276.8" fill="#fbbf24" opacity="0.35" />
    <polygon points="349.2,303.6 387.0,341.4 349.2,379.2 311.4,341.4" fill="#fbbf24" opacity="0.30" />
    <polygon points="368.9,207.0 412.0,293.1 325.9,293.1" fill="#94a3b8" opacity="0.35" />
    <circle cx="180.2" cy="305.0" r="36.8" fill="#fbbf24" opacity="0.15" />
    <polygon points="13.5,396.8 28.7,412.0 13.5,427.2 -1.7,412.0" fill="#64748b" opacity="0.21" />
    <circle cx="81.6" cy="216.4" r="46.1" fill="#fbbf24" opacity="0.20" />
    <polygon points="117.5,388.5 137.4,408.4 117.5,428.4 97.5,408.4" fill="#94a3b8" opacity="0.33" />
    <circle cx="101.2" cy="85.1" r="34.2" fill="#fbbf24" opacity="0.22" />
    <circle cx="399.7" cy="327.5" r="49.0" fill="#64748b" opacity="0.35" />
    <polygon points="6.7,403.4 25.3,421.9 6.7,440.5 -11.9,421.9" fill="#64748b" opacity="0.10" />
    <circle cx="353.9" cy="0.0" r="17.2" fill="#94a3b8" opacity="0.36" />
    <circle cx="250.1" cy="518.0" r="16.9" fill="#64748b" opacity="0.28" />
    <polygon points="187.1,-2.8 217.6,58.2 156.6,58.2" fill="#fbbf24" opacity="0.13" />
    <circle cx="107.7" cy="355.9" r="27.4" fill="#94a3b8" opacity="0.27" />
    <circle cx="266.9" cy="17.5" r="11.5" fill="#fbbf24" opacity="0.33" />
    <circle cx="219.5" cy="524.3" r="26.6" fill="#fbbf24" opacity="0.32" />
  
  <!-- Text background banner -->
  <defs>
    <linearGradient id="text-bg-25" x1="0%" y1="0%" x2="100%" y2="0%">
      <stop offset="0%" style="stop-color:#000000;stop-opacity:0.7" />
      <stop offset="50%" style="stop-color:#64748b;stop-opacity:0.4" />
      <stop offset="100%" style="stop-color:#000000;stop-opacity:0.7" />
    </linearGradient>
  </defs>
  <rect x="0" y="494" width="400" height="56" fill="url(#text-bg-25)" />

  <!-- Text shadow -->
  <text x="200" y="522" font-family="system-ui, -apple-system, sans-serif" font-size="24" font-weight="bold" text-anchor="middle" fill="#000000" opacity="0.8">Paul Atreides Ass-Traitor</text>

  <!-- Main text -->
  <text x="200" y="520" font-family="system-ui, -apple-system, sans-serif" font-size="24" font-weight="bold" text-anchor="middle" fill="#ffffff">Paul Atreides Ass-Traitor</text>
  
  <!-- Rarity border -->
  <rect x="6" y="6" width="388" height="538"
        fill="none" stroke="#f97316" stroke-width="12" rx="8" ry="8" />
</svg>