<?xml version="1.0" encoding="UTF-8"?>
<svg xmlns="http://www.w3.org/2000/svg" viewBox="0 0 400 550" width="400" height="550">
  <defs>
    <linearGradient id="bg-gradient-DUNE_004" x1="0%" y1="0%" x2="100%" y2="100%">
      <stop offset="0%" style="stop-color:#64748b;stop-opacity:0.26" />
      <stop offset="50%" style="stop-color:#94a3b8;stop-opacity:0.4" />
      <stop offset="100%" style="stop-color:#64748b;stop-opacity:0.26" />
    </linearGradient>
    
  <filter id="shadow-DUNE_004">
    <feDropShadow dx="0" dy="2" stdDeviation="3" flood-opacity="0.8"/>
  </filter>
  </defs>
  <rect width="400" height="550" fill="url(#bg-gradient-0.6956948763690889)" />
  <g opacity="0.3"><circle cx="0.9" cy="8.1" r="6" fill="#fbbf24" />
    <circle cx="5.5" cy="32.0" r="6" fill="#64748b" />
    <circle cx="3.7" cy="54.3" r="6" fill="#94a3b8" />
    <circle cx="1.0" cy="79.0" r="6" fill="#fbbf24" />
    <circle cx="6.8" cy="106.8" r="6" fill="#94a3b8" />
    <circle cx="0.4" cy="184.7" r="6" fill="#94a3b8" />
    <circle cx="8.2" cy="206.4" r="6" fill="#64748b" />
    <circle cx="7.3" cy="231.5" r="6" fill="#94a3b8" />
    <circle cx="8.7" cy="250.9" r="6" fill="#fbbf24" />
    <circle cx="2.2" cy="275.8" r="6" fill="#64748b" />
    <circle cx="5.2" cy="300.5" r="6" fill="#64748b" />
    <circle cx="4.3" cy="334.8" r="6" fill="#64748b" />
    <circle cx="0.1" cy="358.5" r="6" fill="#fbbf24" />
    <circle cx="5.5" cy="427.1" r="6" fill="#94a3b8" />
    <circle cx="5.6" cy="477.8" r="6" fill="#fbbf24" />
    <circle cx="30.0" cy="3.1" r="6" fill="#64748b" />
    <circle cx="25.4" cy="27.5" r="6" fill="#94a3b8" />
    <circle cx="33.5" cy="50.8" r="6" fill="#94a3b8" />
    <circle cx="26.4" cy="79.4" r="6" fill="#94a3b8" />
    <circle cx="27.1" cy="106.7" r="6" fill="#fbbf24" />
    <circle cx="28.9" cy="128.4" r="6" fill="#fbbf24" />
    <circle cx="25.7" cy="159.8" r="6" fill="#94a3b8" />
    <circle cx="34.2" cy="181.5" r="6" fill="#fbbf24" />
    <circle cx="25.6" cy="206.4" r="6" fill="#94a3b8" />
    <circle cx="31.6" cy="232.6" r="6" fill="#fbbf24" />
    <circle cx="30.0" cy="304.9" r="6" fill="#94a3b8" />
    <circle cx="34.5" cy="332.8" r="6" fill="#fbbf24" />
    <circle cx="28.4" cy="376.7" r="6" fill="#94a3b8" />
    <circle cx="32.6" cy="458.2" r="6" fill="#94a3b8" />
    <circle cx="29.0" cy="477.2" r="6" fill="#fbbf24" />
    <circle cx="33.8" cy="533.7" r="6" fill="#94a3b8" />
    <circle cx="59.3" cy="25.3" r="6" fill="#94a3b8" />
    <circle cx="56.9" cy="80.6" r="6" fill="#fbbf24" />
    <circle cx="56.5" cy="107.3" r="6" fill="#fbbf24" />
    <circle cx="55.7" cy="152.9" r="6" fill="#64748b" />
    <circle cx="53.3" cy="207.8" r="6" fill="#94a3b8" />
    <circle cx="53.6" cy="232.7" r="6" fill="#fbbf24" />
    <circle cx="51.6" cy="251.8" r="6" fill="#64748b" />
    <circle cx="53.7" cy="281.7" r="6" fill="#fbbf24" />
    <circle cx="53.7" cy="305.7" r="6" fill="#94a3b8" />
    <circle cx="55.6" cy="327.8" r="6" fill="#fbbf24" />
    <circle cx="54.8" cy="407.5" r="6" fill="#64748b" />
    <circle cx="50.0" cy="427.5" r="6" fill="#64748b" />
    <circle cx="55.3" cy="452.0" r="6" fill="#94a3b8" />
    <circle cx="56.5" cy="529.2" r="6" fill="#64748b" />
    <circle cx="83.5" cy="5.1" r="6" fill="#64748b" />
    <circle cx="84.9" cy="28.1" r="6" fill="#64748b" />
    <circle cx="83.2" cy="56.7" r="6" fill="#fbbf24" />
    <circle cx="82.9" cy="78.2" r="6" fill="#64748b" />
    <circle cx="78.4" cy="102.1" r="6" fill="#94a3b8" />
    <circle cx="82.4" cy="125.3" r="6" fill="#fbbf24" />
    <circle cx="82.5" cy="152.3" r="6" fill="#fbbf24" />
    <circle cx="81.4" cy="179.5" r="6" fill="#64748b" />
    <circle cx="82.1" cy="207.5" r="6" fill="#fbbf24" />
    <circle cx="78.4" cy="227.9" r="6" fill="#fbbf24" />
    <circle cx="78.9" cy="256.3" r="6" fill="#64748b" />
    <circle cx="75.5" cy="304.9" r="6" fill="#94a3b8" />
    <circle cx="83.4" cy="350.5" r="6" fill="#94a3b8" />
    <circle cx="76.8" cy="381.2" r="6" fill="#fbbf24" />
    <circle cx="78.0" cy="408.6" r="6" fill="#94a3b8" />
    <circle cx="82.3" cy="427.0" r="6" fill="#64748b" />
    <circle cx="78.6" cy="459.6" r="6" fill="#fbbf24" />
    <circle cx="80.8" cy="482.2" r="6" fill="#94a3b8" />
    <circle cx="77.1" cy="532.5" r="6" fill="#64748b" />
    <circle cx="102.3" cy="7.4" r="6" fill="#64748b" />
    <circle cx="105.2" cy="25.1" r="6" fill="#64748b" />
    <circle cx="104.8" cy="100.3" r="6" fill="#fbbf24" />
    <circle cx="104.3" cy="134.8" r="6" fill="#94a3b8" />
    <circle cx="103.1" cy="179.0" r="6" fill="#fbbf24" />
    <circle cx="104.7" cy="206.1" r="6" fill="#fbbf24" />
    <circle cx="105.5" cy="234.1" r="6" fill="#64748b" />
    <circle cx="103.6" cy="259.5" r="6" fill="#64748b" />
    <circle cx="105.7" cy="275.1" r="6" fill="#94a3b8" />
    <circle cx="104.4" cy="358.7" r="6" fill="#64748b" />
    <circle cx="108.7" cy="384.3" r="6" fill="#fbbf24" />
    <circle cx="100.8" cy="430.6" r="6" fill="#94a3b8" />
    <circle cx="109.0" cy="480.5" r="6" fill="#94a3b8" />
    <circle cx="108.7" cy="505.6" r="6" fill="#64748b" />
    <circle cx="106.5" cy="526.9" r="6" fill="#fbbf24" />
    <circle cx="127.4" cy="9.8" r="6" fill="#64748b" />
    <circle cx="131.8" cy="105.1" r="6" fill="#64748b" />
    <circle cx="125.8" cy="158.0" r="6" fill="#64748b" />
    <circle cx="134.2" cy="176.9" r="6" fill="#94a3b8" />
    <circle cx="134.2" cy="204.8" r="6" fill="#64748b" />
    <circle cx="131.8" cy="229.5" r="6" fill="#94a3b8" />
    <circle cx="125.6" cy="256.5" r="6" fill="#94a3b8" />
    <circle cx="130.0" cy="282.7" r="6" fill="#64748b" />
    <circle cx="131.1" cy="306.4" r="6" fill="#64748b" />
    <circle cx="126.4" cy="328.5" r="6" fill="#64748b" />
    <circle cx="127.8" cy="357.7" r="6" fill="#fbbf24" />
    <circle cx="128.1" cy="375.7" r="6" fill="#94a3b8" />
    <circle cx="130.0" cy="401.4" r="6" fill="#64748b" />
    <circle cx="129.2" cy="426.7" r="6" fill="#fbbf24" />
    <circle cx="125.9" cy="458.8" r="6" fill="#64748b" />
    <circle cx="133.9" cy="509.6" r="6" fill="#64748b" />
    <circle cx="131.2" cy="529.8" r="6" fill="#94a3b8" />
    <circle cx="150.7" cy="8.2" r="6" fill="#fbbf24" />
    <circle cx="157.2" cy="29.4" r="6" fill="#64748b" />
    <circle cx="152.6" cy="81.1" r="6" fill="#94a3b8" />
    <circle cx="157.6" cy="100.8" r="6" fill="#64748b" />
    <circle cx="158.9" cy="125.8" r="6" fill="#94a3b8" />
    <circle cx="159.2" cy="156.7" r="6" fill="#94a3b8" />
    <circle cx="152.6" cy="179.4" r="6" fill="#94a3b8" />
    <circle cx="157.4" cy="207.8" r="6" fill="#64748b" />
    <circle cx="151.1" cy="230.6" r="6" fill="#fbbf24" />
    <circle cx="154.6" cy="259.1" r="6" fill="#94a3b8" />
    <circle cx="154.9" cy="275.7" r="6" fill="#94a3b8" />
    <circle cx="154.8" cy="305.5" r="6" fill="#94a3b8" />
    <circle cx="153.4" cy="430.1" r="6" fill="#64748b" />
    <circle cx="152.3" cy="453.5" r="6" fill="#fbbf24" />
    <circle cx="150.1" cy="484.4" r="6" fill="#fbbf24" />
    <circle cx="157.1" cy="531.8" r="6" fill="#64748b" />
    <circle cx="184.5" cy="6.5" r="6" fill="#64748b" />
    <circle cx="176.6" cy="103.1" r="6" fill="#94a3b8" />
    <circle cx="183.2" cy="128.1" r="6" fill="#fbbf24" />
    <circle cx="181.1" cy="159.0" r="6" fill="#64748b" />
    <circle cx="182.4" cy="209.7" r="6" fill="#fbbf24" />
    <circle cx="182.0" cy="278.7" r="6" fill="#94a3b8" />
    <circle cx="182.7" cy="307.4" r="6" fill="#fbbf24" />
    <circle cx="176.7" cy="359.7" r="6" fill="#64748b" />
    <circle cx="183.6" cy="382.1" r="6" fill="#fbbf24" />
    <circle cx="179.7" cy="433.2" r="6" fill="#94a3b8" />
    <circle cx="182.8" cy="476.7" r="6" fill="#94a3b8" />
    <circle cx="181.7" cy="503.4" r="6" fill="#64748b" />
    <circle cx="178.5" cy="532.1" r="6" fill="#fbbf24" />
    <circle cx="209.4" cy="2.1" r="6" fill="#94a3b8" />
    <circle cx="202.2" cy="28.4" r="6" fill="#94a3b8" />
    <circle cx="207.3" cy="75.5" r="6" fill="#64748b" />
    <circle cx="200.7" cy="103.0" r="6" fill="#64748b" />
    <circle cx="203.2" cy="181.9" r="6" fill="#94a3b8" />
    <circle cx="202.5" cy="205.7" r="6" fill="#64748b" />
    <circle cx="207.8" cy="227.5" r="6" fill="#fbbf24" />
    <circle cx="203.1" cy="277.3" r="6" fill="#fbbf24" />
    <circle cx="209.9" cy="300.3" r="6" fill="#64748b" />
    <circle cx="204.5" cy="329.1" r="6" fill="#64748b" />
    <circle cx="206.1" cy="384.7" r="6" fill="#94a3b8" />
    <circle cx="209.2" cy="410.0" r="6" fill="#94a3b8" />
    <circle cx="205.8" cy="426.1" r="6" fill="#94a3b8" />
    <circle cx="200.1" cy="481.5" r="6" fill="#fbbf24" />
    <circle cx="204.2" cy="509.4" r="6" fill="#94a3b8" />
    <circle cx="205.8" cy="529.8" r="6" fill="#64748b" />
    <circle cx="230.5" cy="8.4" r="6" fill="#94a3b8" />
    <circle cx="226.8" cy="33.7" r="6" fill="#64748b" />
    <circle cx="234.9" cy="51.4" r="6" fill="#94a3b8" />
    <circle cx="229.4" cy="106.7" r="6" fill="#94a3b8" />
    <circle cx="232.0" cy="126.7" r="6" fill="#94a3b8" />
    <circle cx="227.4" cy="155.6" r="6" fill="#64748b" />
    <circle cx="230.5" cy="182.7" r="6" fill="#fbbf24" />
    <circle cx="232.3" cy="233.7" r="6" fill="#94a3b8" />
    <circle cx="234.7" cy="284.6" r="6" fill="#64748b" />
    <circle cx="233.9" cy="301.9" r="6" fill="#94a3b8" />
    <circle cx="227.4" cy="325.3" r="6" fill="#fbbf24" />
    <circle cx="231.7" cy="383.8" r="6" fill="#94a3b8" />
    <circle cx="226.0" cy="434.2" r="6" fill="#94a3b8" />
    <circle cx="230.7" cy="458.6" r="6" fill="#94a3b8" />
    <circle cx="227.0" cy="509.9" r="6" fill="#fbbf24" />
    <circle cx="226.7" cy="528.3" r="6" fill="#fbbf24" />
    <circle cx="258.1" cy="4.3" r="6" fill="#fbbf24" />
    <circle cx="253.0" cy="26.0" r="6" fill="#94a3b8" />
    <circle cx="251.3" cy="84.4" r="6" fill="#64748b" />
    <circle cx="257.1" cy="129.6" r="6" fill="#fbbf24" />
    <circle cx="254.4" cy="176.8" r="6" fill="#94a3b8" />
    <circle cx="258.9" cy="204.5" r="6" fill="#94a3b8" />
    <circle cx="259.5" cy="234.2" r="6" fill="#94a3b8" />
    <circle cx="256.0" cy="251.9" r="6" fill="#fbbf24" />
    <circle cx="254.6" cy="305.8" r="6" fill="#fbbf24" />
    <circle cx="254.5" cy="328.3" r="6" fill="#94a3b8" />
    <circle cx="253.1" cy="352.1" r="6" fill="#94a3b8" />
    <circle cx="259.3" cy="376.2" r="6" fill="#fbbf24" />
    <circle cx="251.8" cy="406.3" r="6" fill="#64748b" />
    <circle cx="258.4" cy="457.8" r="6" fill="#fbbf24" />
    <circle cx="252.3" cy="478.9" r="6" fill="#fbbf24" />
    <circle cx="253.5" cy="526.8" r="6" fill="#64748b" />
    <circle cx="283.1" cy="32.8" r="6" fill="#94a3b8" />
    <circle cx="283.0" cy="83.5" r="6" fill="#64748b" />
    <circle cx="277.3" cy="105.8" r="6" fill="#fbbf24" />
    <circle cx="276.4" cy="158.5" r="6" fill="#fbbf24" />
    <circle cx="276.2" cy="209.0" r="6" fill="#fbbf24" />
    <circle cx="280.3" cy="228.5" r="6" fill="#94a3b8" />
    <circle cx="276.8" cy="257.3" r="6" fill="#fbbf24" />
    <circle cx="276.8" cy="276.1" r="6" fill="#64748b" />
    <circle cx="275.5" cy="302.2" r="6" fill="#94a3b8" />
    <circle cx="279.8" cy="331.7" r="6" fill="#64748b" />
    <circle cx="276.4" cy="354.0" r="6" fill="#94a3b8" />
    <circle cx="280.6" cy="383.1" r="6" fill="#64748b" />
    <circle cx="276.9" cy="407.4" r="6" fill="#94a3b8" />
    <circle cx="284.7" cy="457.5" r="6" fill="#64748b" />
    <circle cx="276.6" cy="477.6" r="6" fill="#64748b" />
    <circle cx="305.3" cy="1.5" r="6" fill="#fbbf24" />
    <circle cx="306.5" cy="26.0" r="6" fill="#64748b" />
    <circle cx="304.4" cy="57.5" r="6" fill="#64748b" />
    <circle cx="301.2" cy="82.2" r="6" fill="#fbbf24" />
    <circle cx="304.9" cy="100.7" r="6" fill="#fbbf24" />
    <circle cx="304.2" cy="127.4" r="6" fill="#64748b" />
    <circle cx="301.6" cy="150.7" r="6" fill="#fbbf24" />
    <circle cx="302.4" cy="231.5" r="6" fill="#fbbf24" />
    <circle cx="301.0" cy="254.7" r="6" fill="#94a3b8" />
    <circle cx="308.4" cy="281.3" r="6" fill="#fbbf24" />
    <circle cx="306.4" cy="302.9" r="6" fill="#fbbf24" />
    <circle cx="307.9" cy="429.9" r="6" fill="#fbbf24" />
    <circle cx="303.1" cy="451.8" r="6" fill="#fbbf24" />
    <circle cx="308.6" cy="475.7" r="6" fill="#64748b" />
    <circle cx="301.2" cy="506.0" r="6" fill="#94a3b8" />
    <circle cx="302.3" cy="531.5" r="6" fill="#64748b" />
    <circle cx="325.9" cy="31.2" r="6" fill="#fbbf24" />
    <circle cx="326.1" cy="57.4" r="6" fill="#64748b" />
    <circle cx="333.6" cy="82.9" r="6" fill="#fbbf24" />
    <circle cx="329.0" cy="103.4" r="6" fill="#64748b" />
    <circle cx="333.3" cy="127.5" r="6" fill="#64748b" />
    <circle cx="330.5" cy="176.3" r="6" fill="#fbbf24" />
    <circle cx="325.2" cy="200.7" r="6" fill="#94a3b8" />
    <circle cx="331.1" cy="225.0" r="6" fill="#64748b" />
    <circle cx="329.5" cy="280.6" r="6" fill="#64748b" />
    <circle cx="330.2" cy="301.9" r="6" fill="#94a3b8" />
    <circle cx="327.1" cy="383.6" r="6" fill="#64748b" />
    <circle cx="325.3" cy="406.4" r="6" fill="#64748b" />
    <circle cx="325.3" cy="426.8" r="6" fill="#64748b" />
    <circle cx="330.8" cy="458.6" r="6" fill="#fbbf24" />
    <circle cx="327.3" cy="480.7" r="6" fill="#64748b" />
    <circle cx="326.2" cy="503.2" r="6" fill="#94a3b8" />
    <circle cx="328.9" cy="528.0" r="6" fill="#64748b" />
    <circle cx="359.1" cy="5.0" r="6" fill="#fbbf24" />
    <circle cx="350.8" cy="29.3" r="6" fill="#fbbf24" />
    <circle cx="351.1" cy="57.6" r="6" fill="#fbbf24" />
    <circle cx="358.0" cy="102.5" r="6" fill="#64748b" />
    <circle cx="355.5" cy="206.8" r="6" fill="#64748b" />
    <circle cx="357.8" cy="258.5" r="6" fill="#94a3b8" />
    <circle cx="355.0" cy="305.7" r="6" fill="#64748b" />
    <circle cx="351.1" cy="334.3" r="6" fill="#64748b" />
    <circle cx="356.5" cy="357.0" r="6" fill="#fbbf24" />
    <circle cx="357.4" cy="382.1" r="6" fill="#64748b" />
    <circle cx="353.9" cy="402.4" r="6" fill="#64748b" />
    <circle cx="356.8" cy="484.2" r="6" fill="#64748b" />
    <circle cx="356.7" cy="510.0" r="6" fill="#fbbf24" />
    <circle cx="359.8" cy="533.9" r="6" fill="#94a3b8" />
    <circle cx="375.7" cy="31.2" r="6" fill="#fbbf24" />
    <circle cx="376.0" cy="59.9" r="6" fill="#fbbf24" />
    <circle cx="382.3" cy="108.2" r="6" fill="#94a3b8" />
    <circle cx="379.7" cy="130.3" r="6" fill="#64748b" />
    <circle cx="378.1" cy="151.0" r="6" fill="#64748b" />
    <circle cx="376.2" cy="182.1" r="6" fill="#64748b" />
    <circle cx="384.2" cy="202.9" r="6" fill="#64748b" />
    <circle cx="375.0" cy="231.8" r="6" fill="#94a3b8" />
    <circle cx="381.0" cy="256.0" r="6" fill="#fbbf24" />
    <circle cx="380.5" cy="281.0" r="6" fill="#94a3b8" />
    <circle cx="379.8" cy="334.9" r="6" fill="#94a3b8" />
    <circle cx="382.1" cy="352.7" r="6" fill="#94a3b8" />
    <circle cx="375.2" cy="380.9" r="6" fill="#94a3b8" />
    <circle cx="379.3" cy="455.3" r="6" fill="#fbbf24" />
    <circle cx="383.5" cy="479.4" r="6" fill="#fbbf24" />
    <circle cx="376.7" cy="503.1" r="6" fill="#94a3b8" />
    <circle cx="380.9" cy="526.3" r="6" fill="#94a3b8" /></g>
  <rect x="53.6" y="337.8" width="45.7" height="45.7" fill="#64748b" opacity="0.11" />
    <rect x="319.5" y="493.9" width="75.6" height="75.6" fill="#fbbf24" opacity="0.37" />
    <rect x="268.1" y="12.8" width="69.6" height="69.6" fill="#94a3b8" opacity="0.14" />
    <polygon points="235.8,96.8 285.4,196.0 186.2,196.0" fill="#fbbf24" opacity="0.19" />
    <polygon points="366.1,325.6 415.1,423.5 317.2,423.5" fill="#94a3b8" opacity="0.26" />
    <rect x="348.8" y="253.7" width="23.1" height="23.1" fill="#fbbf24" opacity="0.22" />
    <circle cx="393.4" cy="197.3" r="32.0" fill="#94a3b8" opacity="0.20" />
    <circle cx="318.1" cy="261.0" r="29.9" fill="#94a3b8" opacity="0.14" />
    <rect x="56.3" y="26.3" width="57.0" height="57.0" fill="#94a3b8" opacity="0.13" />
    <polygon points="391.1,167.6 427.0,239.4 355.2,239.4" fill="#64748b" opacity="0.26" />
    <polygon points="97.5,410.6 137.5,450.6 97.5,490.6 57.5,450.6" fill="#94a3b8" opacity="0.28" />
  
  <!-- Text background banner -->
  <defs>
    <linearGradient id="text-bg-25" x1="0%" y1="0%" x2="100%" y2="0%">
      <stop offset="0%" style="stop-color:#000000;stop-opacity:0.7" />
      <stop offset="50%" style="stop-color:#64748b;stop-opacity:0.4" />
      <stop offset="100%" style="stop-color:#000000;stop-opacity:0.7" />
    </linearGradient>
  </defs>
  <rect x="0" y="494" width="400" height="56" fill="url(#text-bg-25)" />

  <!-- Text shadow -->
  <text x="200" y="522" font-family="system-ui, -apple-system, sans-serif" font-size="24" font-weight="bold" text-anchor="middle" fill="#000000" opacity="0.8">Feyd-Rautha the Fury-F...</text>

  <!-- Main text -->
  <text x="200" y="520" font-family="system-ui, -apple-system, sans-serif" font-size="24" font-weight="bold" text-anchor="middle" fill="#ffffff">Feyd-Rautha the Fury-F...</text>
  
  <!-- Rarity border -->
  <rect x="4" y="4" width="392" height="542"
        fill="none" stroke="#eab308" stroke-width="8" rx="8" ry="8" />
</svg>