<?xml version="1.0" encoding="UTF-8"?>
<svg xmlns="http://www.w3.org/2000/svg" viewBox="0 0 400 550" width="400" height="550">
  <defs>
    <linearGradient id="bg-gradient-EVOLUTION_001" x1="0%" y1="0%" x2="100%" y2="100%">
      <stop offset="0%" style="stop-color:#8b5cf6;stop-opacity:0.26" />
      <stop offset="50%" style="stop-color:#a855f7;stop-opacity:0.4" />
      <stop offset="100%" style="stop-color:#8b5cf6;stop-opacity:0.26" />
    </linearGradient>
    
  <filter id="shadow-EVOLUTION_001">
    <feDropShadow dx="0" dy="2" stdDeviation="3" flood-opacity="0.8"/>
  </filter>
  </defs>
  <rect width="400" height="550" fill="url(#bg-gradient-0.960924930870533)" />
  <g opacity="0.3"><polyline points="0,442.2 5,443.3 10,444.5 15,445.7 20,446.9 25,448.1 30,449.3 35,450.5 40,451.7 45,452.9 50,454.1 55,455.2 60,456.4 65,457.5 70,458.6 75,459.7 80,460.7 85,461.7 90,462.7 95,463.6 100,464.4 105,465.2 110,466.0 115,466.7 120,467.4 125,468.0 130,468.5 135,469.0 140,469.4 145,469.7 150,470.0 155,470.2 160,470.3 165,470.4 170,470.4 175,470.3 180,470.2 185,470.0 190,469.7 195,469.3 200,468.9 205,468.5 210,467.9 215,467.3 220,466.7 225,465.9 230,465.2 235,464.4 240,463.5 245,462.6 250,461.6 255,460.6 260,459.6 265,458.5 270,457.4 275,456.3 280,455.1 285,454.0 290,452.8 295,451.6 300,450.4 305,449.2 310,448.0 315,446.8 320,445.6 325,444.4 330,443.2 335,442.1 340,441.0 345,439.9 350,438.8 355,437.8 360,436.8 365,435.8 370,434.9 375,434.1 380,433.3 385,432.5 390,431.8 395,431.2 400,430.6" fill="none" stroke="#8b5cf6" stroke-width="2.8" opacity="0.23" />
    <polyline points="0,187.3 5,184.8 10,182.4 15,180.2 20,178.1 25,176.3 30,174.7 35,173.3 40,172.2 45,171.3 50,170.6 55,170.2 60,170.1 65,170.2 70,170.5 75,171.2 80,172.0 85,173.1 90,174.5 95,176.1 100,177.9 105,179.9 110,182.0 115,184.4 120,186.9 125,189.6 130,192.4 135,195.3 140,198.3 145,201.3 150,204.4 155,207.6 160,210.7 165,213.8 170,216.9 175,219.9 180,222.9 185,225.7 190,228.4 195,231.0 200,233.5 205,235.8 210,237.9 215,239.8 220,241.4 225,242.9 230,244.1 235,245.1 240,245.9 245,246.4 250,246.6 255,246.6 260,246.3 265,245.8 270,245.0 275,244.0 280,242.7 285,241.2 290,239.5 295,237.6 300,235.5 305,233.2 310,230.7 315,228.1 320,225.4 325,222.5 330,219.5 335,216.5 340,213.4 345,210.3 350,207.2 355,204.0 360,200.9 365,197.9 370,194.9 375,192.0 380,189.2 385,186.6 390,184.1 395,181.8 400,179.6" fill="none" stroke="#8b5cf6" stroke-width="1.7" opacity="0.28" />
    <polyline points="0,321.0 5,317.9 10,315.0 15,312.3 20,309.7 25,307.4 30,305.3 35,303.5 40,302.0 45,300.7 50,299.7 55,299.0 60,298.7 65,298.6 70,298.8 75,299.4 80,300.3 85,301.4 90,302.9 95,304.6 100,306.6 105,308.8 110,311.2 115,313.9 120,316.7 125,319.7 130,322.9 135,326.1 140,329.5 145,332.9 150,336.3 155,339.7 160,343.1 165,346.5 170,349.8 175,352.9 180,355.9 185,358.8 190,361.5 195,364.0 200,366.3 205,368.3 210,370.0 215,371.5 220,372.7 225,373.6 230,374.2 235,374.5 240,374.5 245,374.2 250,373.6 255,372.6 260,371.4 265,369.9 270,368.1 275,366.1 280,363.8 285,361.3 290,358.6 295,355.7 300,352.7 305,349.5 310,346.2 315,342.9 320,339.5 325,336.0 330,332.6 335,329.2 340,325.9 345,322.6 350,319.5 355,316.5 360,313.7 365,311.0 370,308.6 375,306.4 380,304.4 385,302.7 390,301.3 395,300.2 400,299.3" fill="none" stroke="#ec4899" stroke-width="1.8" opacity="0.28" />
    <polyline points="0,79.4 5,77.5 10,75.6 15,73.7 20,71.7 25,69.8 30,67.8 35,65.9 40,64.0 45,62.1 50,60.3 55,58.5 60,56.8 65,55.2 70,53.7 75,52.3 80,51.0 85,49.8 90,48.7 95,47.7 100,46.9 105,46.2 110,45.6 115,45.2 120,44.9 125,44.8 130,44.8 135,45.0 140,45.3 145,45.8 150,46.4 155,47.1 160,48.0 165,49.0 170,50.1 175,51.3 180,52.7 185,54.1 190,55.7 195,57.3 200,59.0 205,60.8 210,62.6 215,64.5 220,66.4 225,68.3 230,70.3 235,72.3 240,74.2 245,76.2 250,78.1 255,79.9 260,81.8 265,83.5 270,85.2 275,86.8 280,88.4 285,89.8 290,91.1 295,92.3 300,93.4 305,94.4 310,95.2 315,95.9 320,96.5 325,96.9 330,97.2 335,97.3 340,97.3 345,97.2 350,96.9 355,96.4 360,95.8 365,95.1 370,94.2 375,93.2 380,92.1 385,90.9 390,89.6 395,88.1 400,86.6" fill="none" stroke="#ec4899" stroke-width="2.3" opacity="0.28" />
    <polyline points="0,410.8 5,413.8 10,416.7 15,419.6 20,422.4 25,425.0 30,427.4 35,429.6 40,431.6 45,433.2 50,434.6 55,435.7 60,436.4 65,436.9 70,436.9 75,436.6 80,436.0 85,435.1 90,433.8 95,432.2 100,430.4 105,428.2 110,425.9 115,423.4 120,420.6 125,417.8 130,414.9 135,411.9 140,408.9 145,405.9 150,403.0 155,400.2 160,397.5 165,395.0 170,392.7 175,390.6 180,388.8 185,387.3 190,386.1 195,385.3 200,384.7 205,384.5 210,384.7 215,385.1 220,386.0 225,387.1 230,388.6 235,390.3 240,392.3 245,394.6 250,397.1 255,399.7 260,402.5 265,405.4 270,408.4 275,411.4 280,414.4 285,417.3 290,420.2 295,422.9 300,425.5 305,427.9 310,430.0 315,431.9 320,433.6 325,434.9 330,435.9 335,436.6 340,436.9 345,436.9 350,436.5 355,435.9 360,434.8 365,433.5 370,431.9 375,429.9 380,427.8 385,425.4 390,422.8 395,420.1 400,417.2" fill="none" stroke="#8b5cf6" stroke-width="2.0" opacity="0.10" />
    <polyline points="0,385.5 5,383.0 10,380.4 15,377.8 20,375.1 25,372.3 30,369.6 35,366.9 40,364.3 45,361.7 50,359.3 55,356.9 60,354.8 65,352.8 70,351.0 75,349.4 80,348.1 85,347.0 90,346.1 95,345.5 100,345.2 105,345.2 110,345.4 115,345.9 120,346.7 125,347.7 130,348.9 135,350.5 140,352.2 145,354.1 150,356.2 155,358.5 160,360.9 165,363.4 170,366.0 175,368.7 180,371.4 185,374.2 190,376.9 195,379.6 200,382.2 205,384.7 210,387.1 215,389.3 220,391.4 225,393.3 230,394.9 235,396.4 240,397.6 245,398.6 250,399.3 255,399.7 260,399.9 265,399.8 270,399.4 275,398.8 280,397.9 285,396.8 290,395.4 295,393.7 300,391.9 305,389.9 310,387.7 315,385.3 320,382.9 325,380.3 330,377.6 335,374.9 340,372.2 345,369.5 350,366.8 355,364.1 360,361.6 365,359.1 370,356.8 375,354.7 380,352.7 385,350.9 390,349.3 395,348.0 400,346.9" fill="none" stroke="#a855f7" stroke-width="2.5" opacity="0.11" />
    <polyline points="0,395.0 5,394.6 10,395.0 15,396.0 20,397.7 25,400.0 30,403.0 35,406.4 40,410.3 45,414.5 50,419.0 55,423.7 60,428.4 65,433.1 70,437.6 75,441.9 80,445.9 85,449.4 90,452.4 95,454.9 100,456.7 105,457.9 110,458.3 115,458.1 120,457.2 125,455.6 130,453.3 135,450.5 140,447.1 145,443.3 150,439.1 155,434.6 160,430.0 165,425.3 170,420.6 175,416.0 180,411.7 185,407.7 190,404.1 195,401.0 200,398.4 205,396.5 210,395.2 215,394.6 220,394.8 225,395.6 230,397.1 235,399.3 240,402.0 245,405.3 250,409.0 255,413.2 260,417.6 265,422.2 270,427.0 275,431.7 280,436.3 285,440.7 290,444.7 295,448.4 300,451.6 305,454.2 310,456.2 315,457.6 320,458.3 325,458.3 330,457.5 335,456.1 340,454.1 345,451.4 350,448.2 355,444.5 360,440.4 365,436.0 370,431.4 375,426.7 380,422.0 385,417.4 390,413.0 395,408.8 400,405.1" fill="none" stroke="#a855f7" stroke-width="1.4" opacity="0.25" />
    <polyline points="0,342.6 5,344.6 10,346.7 15,348.9 20,351.1 25,353.5 30,355.9 35,358.5 40,361.0 45,363.6 50,366.2 55,368.9 60,371.6 65,374.2 70,376.9 75,379.5 80,382.0 85,384.6 90,387.0 95,389.4 100,391.7 105,393.9 110,396.0 115,398.0 120,399.8 125,401.5 130,403.1 135,404.6 140,405.9 145,407.0 150,408.0 155,408.8 160,409.4 165,409.8 170,410.1 175,410.2 180,410.1 185,409.9 190,409.5 195,408.8 200,408.1 205,407.1 210,406.0 215,404.7 220,403.3 225,401.7 230,400.0 235,398.2 240,396.2 245,394.1 250,391.9 255,389.7 260,387.3 265,384.8 270,382.3 275,379.8 280,377.2 285,374.5 290,371.9 295,369.2 300,366.6 305,363.9 310,361.3 315,358.8 320,356.2 325,353.8 330,351.4 335,349.1 340,346.9 345,344.8 350,342.9 355,341.0 360,339.3 365,337.7 370,336.3 375,335.0 380,333.9 385,332.9 390,332.2 395,331.5 400,331.1" fill="none" stroke="#8b5cf6" stroke-width="2.0" opacity="0.23" />
    <polyline points="0,317.5 5,318.0 10,318.4 15,318.8 20,319.0 25,319.2 30,319.3 35,319.4 40,319.3 45,319.2 50,319.0 55,318.7 60,318.3 65,317.9 70,317.4 75,316.8 80,316.2 85,315.5 90,314.7 95,313.9 100,313.1 105,312.3 110,311.4 115,310.5 120,309.6 125,308.7 130,307.7 135,306.8 140,306.0 145,305.1 150,304.3 155,303.5 160,302.7 165,302.0 170,301.4 175,300.8 180,300.3 185,299.8 190,299.4 195,299.1 200,298.9 205,298.7 210,298.6 215,298.6 220,298.7 225,298.9 230,299.2 235,299.5 240,299.9 245,300.3 250,300.9 255,301.5 260,302.1 265,302.8 270,303.6 275,304.4 280,305.2 285,306.1 290,307.0 295,307.9 300,308.8 305,309.7 310,310.6 315,311.5 320,312.4 325,313.3 330,314.1 335,314.9 340,315.6 345,316.3 350,316.9 355,317.5 360,318.0 365,318.4 370,318.7 375,319.0 380,319.2 385,319.3 390,319.4 395,319.3 400,319.2" fill="none" stroke="#a855f7" stroke-width="1.9" opacity="0.11" />
    <polyline points="0,421.6 5,422.9 10,424.5 15,426.2 20,428.1 25,430.2 30,432.5 35,434.8 40,437.3 45,439.9 50,442.6 55,445.4 60,448.1 65,450.9 70,453.7 75,456.5 80,459.2 85,461.9 90,464.5 95,466.9 100,469.3 105,471.5 110,473.5 115,475.4 120,477.0 125,478.5 130,479.8 135,480.8 140,481.6 145,482.2 150,482.5 155,482.6 160,482.4 165,482.0 170,481.4 175,480.5 180,479.4 185,478.1 190,476.5 195,474.8 200,472.9 205,470.8 210,468.5 215,466.2 220,463.7 225,461.1 230,458.4 235,455.6 240,452.8 245,450.1 250,447.3 255,444.5 260,441.8 265,439.1 270,436.5 275,434.1 280,431.7 285,429.5 290,427.5 295,425.6 300,424.0 305,422.5 310,421.2 315,420.2 320,419.4 325,418.8 330,418.5 335,418.4 340,418.6 345,419.0 350,419.6 355,420.5 360,421.6 365,422.9 370,424.5 375,426.2 380,428.1 385,430.2 390,432.5 395,434.9 400,437.4" fill="none" stroke="#ec4899" stroke-width="2.5" opacity="0.22" />
    <polyline points="0,108.5 5,108.7 10,109.0 15,109.3 20,109.7 25,110.0 30,110.4 35,110.9 40,111.3 45,111.8 50,112.4 55,112.9 60,113.5 65,114.1 70,114.7 75,115.3 80,115.9 85,116.6 90,117.2 95,117.9 100,118.6 105,119.2 110,119.9 115,120.6 120,121.3 125,121.9 130,122.6 135,123.2 140,123.9 145,124.5 150,125.1 155,125.7 160,126.2 165,126.8 170,127.3 175,127.8 180,128.3 185,128.7 190,129.1 195,129.5 200,129.8 205,130.1 210,130.4 215,130.6 220,130.8 225,131.0 230,131.1 235,131.2 240,131.3 245,131.3 250,131.2 255,131.2 260,131.1 265,130.9 270,130.7 275,130.5 280,130.3 285,130.0 290,129.6 295,129.3 300,128.9 305,128.5 310,128.0 315,127.5 320,127.0 325,126.5 330,125.9 335,125.4 340,124.8 345,124.1 350,123.5 355,122.9 360,122.2 365,121.6 370,120.9 375,120.2 380,119.5 385,118.9 390,118.2 395,117.5 400,116.9" fill="none" stroke="#8b5cf6" stroke-width="2.2" opacity="0.29" />
    <polyline points="0,524.8 5,525.8 10,526.7 15,527.7 20,528.6 25,529.4 30,530.3 35,531.1 40,531.9 45,532.6 50,533.3 55,533.9 60,534.5 65,535.1 70,535.6 75,536.1 80,536.5 85,536.8 90,537.2 95,537.4 100,537.6 105,537.7 110,537.8 115,537.8 120,537.8 125,537.7 130,537.6 135,537.4 140,537.1 145,536.8 150,536.5 155,536.1 160,535.6 165,535.1 170,534.5 175,533.9 180,533.3 185,532.6 190,531.8 195,531.0 200,530.2 205,529.4 210,528.5 215,527.6 220,526.7 225,525.7 230,524.8 235,523.8 240,522.8 245,521.8 250,520.7 255,519.7 260,518.7 265,517.7 270,516.6 275,515.6 280,514.6 285,513.6 290,512.7 295,511.7 300,510.8 305,509.9 310,509.0 315,508.1 320,507.3 325,506.5 330,505.8 335,505.1 340,504.4 345,503.8 350,503.3 355,502.7 360,502.3 365,501.8 370,501.5 375,501.2 380,500.9 385,500.7 390,500.6 395,500.5 400,500.4" fill="none" stroke="#a855f7" stroke-width="2.9" opacity="0.28" /></g>
  <polygon points="389.5,402.3 403.1,415.9 389.5,429.5 375.8,415.9" fill="#ec4899" opacity="0.11" />
    <rect x="127.7" y="131.3" width="91.2" height="91.2" fill="#8b5cf6" opacity="0.40" />
    <polygon points="313.3,518.3 327.9,532.9 313.3,547.5 298.7,532.9" fill="#ec4899" opacity="0.26" />
    <circle cx="81.5" cy="357.1" r="27.1" fill="#ec4899" opacity="0.30" />
    <polygon points="277.4,365.3 316.5,404.4 277.4,443.4 238.4,404.4" fill="#8b5cf6" opacity="0.18" />
    <polygon points="122.4,470.8 143.5,513.0 101.3,513.0" fill="#8b5cf6" opacity="0.40" />
    <polygon points="339.3,75.2 389.1,125.0 339.3,174.8 289.5,125.0" fill="#8b5cf6" opacity="0.30" />
    <polygon points="6.7,230.8 24.3,248.4 6.7,266.0 -10.9,248.4" fill="#8b5cf6" opacity="0.25" />
    <rect x="368.0" y="325.9" width="62.4" height="62.4" fill="#ec4899" opacity="0.28" />
    <circle cx="230.9" cy="190.9" r="22.0" fill="#8b5cf6" opacity="0.36" />
    <rect x="85.8" y="147.2" width="47.5" height="47.5" fill="#a855f7" opacity="0.19" />
    <circle cx="301.8" cy="163.2" r="12.2" fill="#8b5cf6" opacity="0.37" />
    <circle cx="283.5" cy="25.8" r="23.9" fill="#ec4899" opacity="0.10" />
    <rect x="25.6" y="71.0" width="42.1" height="42.1" fill="#8b5cf6" opacity="0.11" />
    <polygon points="99.0,86.0 111.0,98.1 99.0,110.2 86.9,98.1" fill="#a855f7" opacity="0.16" />
    <polygon points="105.8,199.1 154.3,247.5 105.8,295.9 57.4,247.5" fill="#a855f7" opacity="0.22" />
    <polygon points="264.0,319.3 304.5,400.4 223.4,400.4" fill="#a855f7" opacity="0.36" />
  
  <!-- Text background banner -->
  <defs>
    <linearGradient id="text-bg-14" x1="0%" y1="0%" x2="100%" y2="0%">
      <stop offset="0%" style="stop-color:#000000;stop-opacity:0.7" />
      <stop offset="50%" style="stop-color:#8b5cf6;stop-opacity:0.4" />
      <stop offset="100%" style="stop-color:#000000;stop-opacity:0.7" />
    </linearGradient>
  </defs>
  <rect x="0" y="494" width="400" height="56" fill="url(#text-bg-14)" />

  <!-- Text shadow -->
  <text x="200" y="522" font-family="system-ui, -apple-system, sans-serif" font-size="24" font-weight="bold" text-anchor="middle" fill="#000000" opacity="0.8">Grill God Gary</text>

  <!-- Main text -->
  <text x="200" y="520" font-family="system-ui, -apple-system, sans-serif" font-size="24" font-weight="bold" text-anchor="middle" fill="#ffffff">Grill God Gary</text>
  
  <!-- Rarity border -->
  <rect x="6" y="6" width="388" height="538"
        fill="none" stroke="#f97316" stroke-width="12" rx="8" ry="8" />
</svg>