<?xml version="1.0" encoding="UTF-8"?>
<svg xmlns="http://www.w3.org/2000/svg" viewBox="0 0 400 550" width="400" height="550">
  <defs>
    <linearGradient id="bg-gradient-fd_001" x1="0%" y1="0%" x2="100%" y2="100%">
      <stop offset="0%" style="stop-color:#3b82f6;stop-opacity:0.26" />
      <stop offset="50%" style="stop-color:#64748b;stop-opacity:0.4" />
      <stop offset="100%" style="stop-color:#3b82f6;stop-opacity:0.26" />
    </linearGradient>
    
  <filter id="shadow-fd_001">
    <feDropShadow dx="0" dy="2" stdDeviation="3" flood-opacity="0.8"/>
  </filter>
  </defs>
  <rect width="400" height="550" fill="url(#bg-gradient-0.6704421350732446)" />
  <g opacity="0.3"><polyline points="0,437.8 5,437.1 10,436.6 15,436.2 20,435.9 25,435.8 30,435.9 35,436.1 40,436.4 45,436.9 50,437.5 55,438.3 60,439.2 65,440.2 70,441.4 75,442.7 80,444.1 85,445.6 90,447.2 95,449.0 100,450.8 105,452.7 110,454.7 115,456.8 120,458.9 125,461.1 130,463.4 135,465.6 140,468.0 145,470.3 150,472.6 155,475.0 160,477.3 165,479.7 170,482.0 175,484.2 180,486.5 185,488.7 190,490.8 195,492.8 200,494.8 205,496.7 210,498.5 215,500.2 220,501.9 225,503.3 230,504.7 235,506.0 240,507.1 245,508.1 250,509.0 255,509.7 260,510.3 265,510.8 270,511.1 275,511.3 280,511.3 285,511.1 290,510.9 295,510.4 300,509.9 305,509.2 310,508.3 315,507.3 320,506.2 325,505.0 330,503.6 335,502.1 340,500.6 345,498.9 350,497.1 355,495.2 360,493.2 365,491.2 370,489.1 375,486.9 380,484.7 385,482.4 390,480.1 395,477.8 400,475.4" fill="none" stroke="#64748b" stroke-width="2.6" opacity="0.17" />
    <polyline points="0,66.7 5,66.6 10,66.8 15,67.5 20,68.6 25,70.1 30,72.0 35,74.2 40,76.7 45,79.6 50,82.6 55,85.9 60,89.4 65,93.0 70,96.6 75,100.3 80,104.0 85,107.6 90,111.1 95,114.4 100,117.5 105,120.4 110,123.0 115,125.2 120,127.2 125,128.7 130,129.9 135,130.7 140,131.0 145,130.9 150,130.4 155,129.5 160,128.2 165,126.5 170,124.4 175,122.0 180,119.3 185,116.3 190,113.1 195,109.7 200,106.2 205,102.6 210,98.9 215,95.2 220,91.6 225,88.0 230,84.6 235,81.4 240,78.4 245,75.7 250,73.3 255,71.2 260,69.5 265,68.1 270,67.2 275,66.7 280,66.6 285,66.9 290,67.6 295,68.8 300,70.3 305,72.2 310,74.5 315,77.0 320,79.9 325,83.0 330,86.3 335,89.8 340,93.4 345,97.0 350,100.7 355,104.4 360,108.0 365,111.5 370,114.8 375,117.8 380,120.7 385,123.2 390,125.5 395,127.4 400,128.9" fill="none" stroke="#64748b" stroke-width="1.3" opacity="0.30" />
    <polyline points="0,381.7 5,377.8 10,373.9 15,370.0 20,366.2 25,362.4 30,358.8 35,355.4 40,352.2 45,349.4 50,346.8 55,344.7 60,342.9 65,341.5 70,340.6 75,340.1 80,340.1 85,340.5 90,341.4 95,342.7 100,344.5 105,346.6 110,349.1 115,351.9 120,355.1 125,358.5 130,362.0 135,365.8 140,369.6 145,373.5 150,377.4 155,381.3 160,385.0 165,388.6 170,392.0 175,395.1 180,398.0 185,400.5 190,402.6 195,404.3 200,405.6 205,406.5 210,407.0 215,406.9 220,406.4 225,405.5 230,404.1 235,402.3 240,400.2 245,397.6 250,394.7 255,391.6 260,388.2 265,384.6 270,380.8 275,376.9 280,373.0 285,369.1 290,365.3 295,361.6 300,358.0 305,354.6 310,351.5 315,348.7 320,346.3 325,344.2 330,342.5 335,341.3 340,340.4 345,340.1 350,340.1 355,340.7 360,341.7 365,343.1 370,344.9 375,347.2 380,349.7 385,352.6 390,355.8 395,359.3 400,362.9" fill="none" stroke="#64748b" stroke-width="2.3" opacity="0.24" />
    <polyline points="0,8.8 5,9.8 10,11.0 15,12.4 20,14.0 25,15.8 30,17.8 35,19.9 40,22.1 45,24.4 50,26.8 55,29.2 60,31.6 65,33.9 70,36.2 75,38.5 80,40.5 85,42.5 90,44.3 95,45.9 100,47.3 105,48.4 110,49.3 115,50.0 120,50.4 125,50.5 130,50.4 135,50.0 140,49.3 145,48.4 150,47.3 155,45.9 160,44.3 165,42.5 170,40.5 175,38.4 180,36.2 185,33.9 190,31.6 195,29.2 200,26.8 205,24.4 210,22.1 215,19.9 220,17.8 225,15.8 230,14.0 235,12.4 240,10.9 245,9.8 250,8.8 255,8.1 260,7.7 265,7.5 270,7.6 275,8.0 280,8.6 285,9.5 290,10.6 295,12.0 300,13.6 305,15.3 310,17.3 315,19.3 320,21.5 325,23.8 330,26.2 335,28.6 340,31.0 345,33.4 350,35.7 355,37.9 360,40.0 365,42.0 370,43.9 375,45.5 380,46.9 385,48.2 390,49.1 395,49.8 400,50.3" fill="none" stroke="#fbbf24" stroke-width="2.3" opacity="0.16" />
    <polyline points="0,398.2 5,398.0 10,397.7 15,397.4 20,396.9 25,396.4 30,395.8 35,395.2 40,394.4 45,393.7 50,392.8 55,391.9 60,390.9 65,389.9 70,388.8 75,387.7 80,386.6 85,385.4 90,384.3 95,383.0 100,381.8 105,380.6 110,379.4 115,378.1 120,376.9 125,375.7 130,374.6 135,373.4 140,372.3 145,371.2 150,370.2 155,369.2 160,368.2 165,367.3 170,366.5 175,365.7 180,365.0 185,364.4 190,363.9 195,363.4 200,363.0 205,362.7 210,362.4 215,362.3 220,362.2 225,362.2 230,362.3 235,362.5 240,362.7 245,363.1 250,363.5 255,364.0 260,364.6 265,365.2 270,365.9 275,366.7 280,367.5 285,368.4 290,369.4 295,370.4 300,371.4 305,372.5 310,373.7 315,374.8 320,376.0 325,377.2 330,378.4 335,379.7 340,380.9 345,382.1 350,383.3 355,384.5 360,385.7 365,386.9 370,388.0 375,389.1 380,390.1 385,391.1 390,392.1 395,393.0 400,393.8" fill="none" stroke="#64748b" stroke-width="2.5" opacity="0.22" />
    <polyline points="0,391.4 5,389.4 10,387.5 15,385.6 20,383.7 25,381.8 30,379.9 35,378.0 40,376.2 45,374.4 50,372.6 55,370.9 60,369.2 65,367.6 70,366.0 75,364.5 80,363.0 85,361.6 90,360.3 95,359.1 100,357.9 105,356.8 110,355.8 115,354.9 120,354.1 125,353.4 130,352.7 135,352.2 140,351.7 145,351.4 150,351.1 155,351.0 160,350.9 165,350.9 170,351.1 175,351.3 180,351.7 185,352.1 190,352.6 195,353.3 200,354.0 205,354.8 210,355.7 215,356.7 220,357.7 225,358.9 230,360.1 235,361.4 240,362.8 245,364.2 250,365.7 255,367.3 260,368.9 265,370.6 270,372.3 275,374.1 280,375.9 285,377.7 290,379.6 295,381.5 300,383.4 305,385.3 310,387.2 315,389.1 320,391.0 325,393.0 330,394.9 335,396.8 340,398.6 345,400.5 350,402.3 355,404.0 360,405.8 365,407.5 370,409.1 375,410.7 380,412.2 385,413.6 390,415.0 395,416.4 400,417.6" fill="none" stroke="#3b82f6" stroke-width="1.7" opacity="0.10" />
    <polyline points="0,185.7 5,184.5 10,183.2 15,181.7 20,180.1 25,178.3 30,176.5 35,174.6 40,172.6 45,170.6 50,168.6 55,166.6 60,164.6 65,162.6 70,160.7 75,158.9 80,157.2 85,155.6 90,154.1 95,152.7 100,151.6 105,150.5 110,149.7 115,149.0 120,148.6 125,148.3 130,148.2 135,148.3 140,148.7 145,149.2 150,149.9 155,150.8 160,151.9 165,153.1 170,154.5 175,156.0 180,157.7 185,159.4 190,161.3 195,163.2 200,165.2 205,167.2 210,169.2 215,171.2 220,173.2 225,175.1 230,177.0 235,178.8 240,180.5 245,182.1 250,183.5 255,184.8 260,186.0 265,187.0 270,187.8 275,188.4 280,188.8 285,189.0 290,189.0 295,188.8 300,188.5 305,187.9 310,187.1 315,186.2 320,185.0 325,183.8 330,182.3 335,180.8 340,179.1 345,177.3 350,175.4 355,173.5 360,171.5 365,169.5 370,167.5 375,165.5 380,163.5 385,161.6 390,159.7 395,157.9 400,156.3" fill="none" stroke="#3b82f6" stroke-width="2.4" opacity="0.23" />
    <polyline points="0,163.4 5,161.8 10,160.3 15,158.9 20,157.6 25,156.5 30,155.6 35,154.9 40,154.4 45,154.0 50,153.9 55,154.0 60,154.4 65,154.9 70,155.6 75,156.5 80,157.6 85,158.9 90,160.3 95,161.8 100,163.4 105,165.1 110,166.9 115,168.7 120,170.4 125,172.2 130,173.8 135,175.4 140,176.9 145,178.3 150,179.6 155,180.6 160,181.5 165,182.2 170,182.7 175,183.0 180,183.1 185,182.9 190,182.6 195,182.0 200,181.2 205,180.3 210,179.2 215,177.9 220,176.4 225,174.9 230,173.3 235,171.6 240,169.8 245,168.0 250,166.3 255,164.6 260,162.9 265,161.3 270,159.8 275,158.5 280,157.2 285,156.2 290,155.3 295,154.7 300,154.2 305,154.0 310,153.9 315,154.1 320,154.5 325,155.1 330,155.9 335,156.9 340,158.1 345,159.4 350,160.8 355,162.4 360,164.0 365,165.7 370,167.5 375,169.3 380,171.0 385,172.7 390,174.4 395,176.0 400,177.4" fill="none" stroke="#3b82f6" stroke-width="1.9" opacity="0.25" /></g>
  <rect x="181.8" y="46.1" width="37.2" height="37.2" fill="#fbbf24" opacity="0.37" />
    <polygon points="345.9,369.9 385.0,448.1 306.8,448.1" fill="#3b82f6" opacity="0.15" />
    <circle cx="275.4" cy="398.4" r="38.3" fill="#64748b" opacity="0.19" />
    <rect x="357.9" y="27.6" width="77.5" height="77.5" fill="#64748b" opacity="0.28" />
    <rect x="280.6" y="466.4" width="26.1" height="26.1" fill="#3b82f6" opacity="0.35" />
    <circle cx="350.7" cy="467.0" r="19.5" fill="#fbbf24" opacity="0.20" />
    <polygon points="275.3,12.0 298.6,35.2 275.3,58.5 252.0,35.2" fill="#3b82f6" opacity="0.31" />
    <polygon points="153.3,341.3 163.9,351.8 153.3,362.4 142.7,351.8" fill="#fbbf24" opacity="0.17" />
    <circle cx="378.8" cy="149.0" r="11.7" fill="#64748b" opacity="0.21" />
    <rect x="314.4" y="448.1" width="48.2" height="48.2" fill="#64748b" opacity="0.27" />
    <polygon points="281.6,447.9 317.9,484.2 281.6,520.5 245.3,484.2" fill="#3b82f6" opacity="0.38" />
  
  <!-- Text background banner -->
  <defs>
    <linearGradient id="text-bg-18" x1="0%" y1="0%" x2="100%" y2="0%">
      <stop offset="0%" style="stop-color:#000000;stop-opacity:0.7" />
      <stop offset="50%" style="stop-color:#3b82f6;stop-opacity:0.4" />
      <stop offset="100%" style="stop-color:#000000;stop-opacity:0.7" />
    </linearGradient>
  </defs>
  <rect x="0" y="494" width="400" height="56" fill="url(#text-bg-18)" />

  <!-- Text shadow -->
  <text x="200" y="522" font-family="system-ui, -apple-system, sans-serif" font-size="24" font-weight="bold" text-anchor="middle" fill="#000000" opacity="0.8">Father's Day Frank</text>

  <!-- Main text -->
  <text x="200" y="520" font-family="system-ui, -apple-system, sans-serif" font-size="24" font-weight="bold" text-anchor="middle" fill="#ffffff">Father's Day Frank</text>
  
  <!-- Rarity border -->
  <rect x="4" y="4" width="392" height="542"
        fill="none" stroke="#eab308" stroke-width="8" rx="8" ry="8" />
</svg>