<?xml version="1.0" encoding="UTF-8"?>
<svg xmlns="http://www.w3.org/2000/svg" viewBox="0 0 400 550" width="400" height="550">
  <defs>
    <linearGradient id="bg-gradient-fd_004" x1="0%" y1="0%" x2="100%" y2="100%">
      <stop offset="0%" style="stop-color:#ef4444;stop-opacity:0.26" />
      <stop offset="50%" style="stop-color:#f97316;stop-opacity:0.4" />
      <stop offset="100%" style="stop-color:#ef4444;stop-opacity:0.26" />
    </linearGradient>
    
  <filter id="shadow-fd_004">
    <feDropShadow dx="0" dy="2" stdDeviation="3" flood-opacity="0.8"/>
  </filter>
  </defs>
  <rect width="400" height="550" fill="url(#bg-gradient-0.7610623023938388)" />
  <g opacity="0.3"><circle cx="2.9" cy="25.7" r="6" fill="#fbbf24" />
    <circle cx="5.3" cy="58.0" r="6" fill="#ef4444" />
    <circle cx="7.5" cy="80.9" r="6" fill="#ef4444" />
    <circle cx="0.5" cy="105.2" r="6" fill="#f97316" />
    <circle cx="2.4" cy="134.1" r="6" fill="#f97316" />
    <circle cx="9.7" cy="184.6" r="6" fill="#ef4444" />
    <circle cx="6.5" cy="233.1" r="6" fill="#ef4444" />
    <circle cx="6.8" cy="308.6" r="6" fill="#ef4444" />
    <circle cx="1.2" cy="378.8" r="6" fill="#ef4444" />
    <circle cx="4.0" cy="403.7" r="6" fill="#ef4444" />
    <circle cx="0.9" cy="432.5" r="6" fill="#ef4444" />
    <circle cx="6.3" cy="458.0" r="6" fill="#f97316" />
    <circle cx="9.7" cy="527.1" r="6" fill="#fbbf24" />
    <circle cx="30.0" cy="55.3" r="6" fill="#ef4444" />
    <circle cx="31.3" cy="79.7" r="6" fill="#ef4444" />
    <circle cx="33.3" cy="106.1" r="6" fill="#ef4444" />
    <circle cx="31.0" cy="159.2" r="6" fill="#ef4444" />
    <circle cx="31.2" cy="205.5" r="6" fill="#fbbf24" />
    <circle cx="30.4" cy="234.1" r="6" fill="#ef4444" />
    <circle cx="31.8" cy="259.1" r="6" fill="#f97316" />
    <circle cx="27.4" cy="275.2" r="6" fill="#fbbf24" />
    <circle cx="25.3" cy="375.5" r="6" fill="#ef4444" />
    <circle cx="26.7" cy="403.6" r="6" fill="#ef4444" />
    <circle cx="29.7" cy="432.7" r="6" fill="#fbbf24" />
    <circle cx="27.2" cy="477.9" r="6" fill="#ef4444" />
    <circle cx="30.7" cy="527.9" r="6" fill="#f97316" />
    <circle cx="55.3" cy="29.8" r="6" fill="#fbbf24" />
    <circle cx="56.5" cy="50.8" r="6" fill="#f97316" />
    <circle cx="55.8" cy="80.7" r="6" fill="#ef4444" />
    <circle cx="54.4" cy="105.2" r="6" fill="#fbbf24" />
    <circle cx="52.8" cy="125.3" r="6" fill="#fbbf24" />
    <circle cx="53.8" cy="153.1" r="6" fill="#fbbf24" />
    <circle cx="59.0" cy="201.3" r="6" fill="#f97316" />
    <circle cx="50.3" cy="228.1" r="6" fill="#fbbf24" />
    <circle cx="50.6" cy="250.8" r="6" fill="#ef4444" />
    <circle cx="53.0" cy="331.0" r="6" fill="#fbbf24" />
    <circle cx="53.3" cy="358.4" r="6" fill="#f97316" />
    <circle cx="55.9" cy="380.9" r="6" fill="#fbbf24" />
    <circle cx="53.8" cy="407.2" r="6" fill="#f97316" />
    <circle cx="51.2" cy="455.7" r="6" fill="#ef4444" />
    <circle cx="57.2" cy="483.7" r="6" fill="#fbbf24" />
    <circle cx="58.9" cy="505.4" r="6" fill="#ef4444" />
    <circle cx="57.0" cy="529.4" r="6" fill="#ef4444" />
    <circle cx="76.4" cy="28.7" r="6" fill="#f97316" />
    <circle cx="83.2" cy="55.4" r="6" fill="#f97316" />
    <circle cx="78.9" cy="76.4" r="6" fill="#f97316" />
    <circle cx="80.9" cy="106.2" r="6" fill="#f97316" />
    <circle cx="75.6" cy="134.1" r="6" fill="#ef4444" />
    <circle cx="84.5" cy="180.0" r="6" fill="#f97316" />
    <circle cx="78.0" cy="206.5" r="6" fill="#fbbf24" />
    <circle cx="81.3" cy="229.5" r="6" fill="#f97316" />
    <circle cx="84.4" cy="280.1" r="6" fill="#fbbf24" />
    <circle cx="79.1" cy="356.8" r="6" fill="#f97316" />
    <circle cx="79.1" cy="380.2" r="6" fill="#ef4444" />
    <circle cx="78.8" cy="409.9" r="6" fill="#ef4444" />
    <circle cx="77.7" cy="428.8" r="6" fill="#ef4444" />
    <circle cx="81.8" cy="453.0" r="6" fill="#fbbf24" />
    <circle cx="81.5" cy="481.1" r="6" fill="#fbbf24" />
    <circle cx="79.1" cy="509.9" r="6" fill="#ef4444" />
    <circle cx="81.3" cy="528.6" r="6" fill="#ef4444" />
    <circle cx="102.6" cy="1.8" r="6" fill="#f97316" />
    <circle cx="108.1" cy="53.7" r="6" fill="#ef4444" />
    <circle cx="101.8" cy="84.7" r="6" fill="#fbbf24" />
    <circle cx="102.7" cy="105.1" r="6" fill="#ef4444" />
    <circle cx="109.2" cy="127.6" r="6" fill="#f97316" />
    <circle cx="104.6" cy="151.6" r="6" fill="#ef4444" />
    <circle cx="104.7" cy="175.2" r="6" fill="#fbbf24" />
    <circle cx="102.6" cy="200.1" r="6" fill="#f97316" />
    <circle cx="101.2" cy="229.4" r="6" fill="#ef4444" />
    <circle cx="105.1" cy="250.1" r="6" fill="#ef4444" />
    <circle cx="106.6" cy="281.9" r="6" fill="#f97316" />
    <circle cx="103.6" cy="305.0" r="6" fill="#f97316" />
    <circle cx="100.5" cy="327.2" r="6" fill="#fbbf24" />
    <circle cx="103.8" cy="352.2" r="6" fill="#f97316" />
    <circle cx="109.9" cy="408.1" r="6" fill="#ef4444" />
    <circle cx="107.3" cy="429.3" r="6" fill="#ef4444" />
    <circle cx="100.4" cy="477.5" r="6" fill="#fbbf24" />
    <circle cx="106.5" cy="508.2" r="6" fill="#fbbf24" />
    <circle cx="126.5" cy="8.7" r="6" fill="#fbbf24" />
    <circle cx="133.7" cy="31.5" r="6" fill="#fbbf24" />
    <circle cx="130.8" cy="51.9" r="6" fill="#f97316" />
    <circle cx="131.2" cy="77.2" r="6" fill="#f97316" />
    <circle cx="133.9" cy="104.2" r="6" fill="#f97316" />
    <circle cx="125.0" cy="134.6" r="6" fill="#f97316" />
    <circle cx="131.9" cy="150.9" r="6" fill="#fbbf24" />
    <circle cx="127.4" cy="178.2" r="6" fill="#f97316" />
    <circle cx="129.3" cy="208.4" r="6" fill="#ef4444" />
    <circle cx="128.7" cy="275.1" r="6" fill="#ef4444" />
    <circle cx="127.5" cy="301.7" r="6" fill="#fbbf24" />
    <circle cx="128.4" cy="403.4" r="6" fill="#f97316" />
    <circle cx="131.0" cy="453.3" r="6" fill="#fbbf24" />
    <circle cx="125.2" cy="484.6" r="6" fill="#f97316" />
    <circle cx="132.1" cy="503.5" r="6" fill="#ef4444" />
    <circle cx="150.4" cy="1.4" r="6" fill="#f97316" />
    <circle cx="157.0" cy="29.6" r="6" fill="#f97316" />
    <circle cx="151.4" cy="59.6" r="6" fill="#f97316" />
    <circle cx="154.3" cy="77.6" r="6" fill="#f97316" />
    <circle cx="153.4" cy="101.8" r="6" fill="#ef4444" />
    <circle cx="151.0" cy="126.3" r="6" fill="#ef4444" />
    <circle cx="156.1" cy="158.9" r="6" fill="#fbbf24" />
    <circle cx="150.2" cy="175.5" r="6" fill="#f97316" />
    <circle cx="153.2" cy="205.3" r="6" fill="#fbbf24" />
    <circle cx="155.5" cy="229.9" r="6" fill="#ef4444" />
    <circle cx="155.5" cy="304.9" r="6" fill="#fbbf24" />
    <circle cx="151.5" cy="329.8" r="6" fill="#ef4444" />
    <circle cx="154.6" cy="375.9" r="6" fill="#fbbf24" />
    <circle cx="151.7" cy="408.3" r="6" fill="#ef4444" />
    <circle cx="155.9" cy="432.7" r="6" fill="#fbbf24" />
    <circle cx="151.0" cy="452.8" r="6" fill="#fbbf24" />
    <circle cx="155.0" cy="475.4" r="6" fill="#ef4444" />
    <circle cx="176.9" cy="34.1" r="6" fill="#ef4444" />
    <circle cx="176.2" cy="82.0" r="6" fill="#f97316" />
    <circle cx="181.4" cy="109.4" r="6" fill="#fbbf24" />
    <circle cx="176.3" cy="132.1" r="6" fill="#fbbf24" />
    <circle cx="177.1" cy="155.8" r="6" fill="#f97316" />
    <circle cx="176.2" cy="182.5" r="6" fill="#fbbf24" />
    <circle cx="176.7" cy="201.7" r="6" fill="#f97316" />
    <circle cx="184.7" cy="228.6" r="6" fill="#fbbf24" />
    <circle cx="176.2" cy="252.3" r="6" fill="#ef4444" />
    <circle cx="179.2" cy="275.3" r="6" fill="#f97316" />
    <circle cx="179.4" cy="378.7" r="6" fill="#ef4444" />
    <circle cx="175.8" cy="408.7" r="6" fill="#fbbf24" />
    <circle cx="182.0" cy="456.9" r="6" fill="#ef4444" />
    <circle cx="178.8" cy="482.4" r="6" fill="#ef4444" />
    <circle cx="180.6" cy="509.2" r="6" fill="#f97316" />
    <circle cx="207.8" cy="3.4" r="6" fill="#f97316" />
    <circle cx="203.7" cy="34.7" r="6" fill="#f97316" />
    <circle cx="204.7" cy="51.4" r="6" fill="#fbbf24" />
    <circle cx="208.2" cy="84.6" r="6" fill="#f97316" />
    <circle cx="203.2" cy="106.6" r="6" fill="#ef4444" />
    <circle cx="203.7" cy="155.1" r="6" fill="#fbbf24" />
    <circle cx="208.3" cy="183.3" r="6" fill="#fbbf24" />
    <circle cx="203.9" cy="202.4" r="6" fill="#ef4444" />
    <circle cx="207.7" cy="254.3" r="6" fill="#ef4444" />
    <circle cx="205.4" cy="282.6" r="6" fill="#ef4444" />
    <circle cx="206.5" cy="307.5" r="6" fill="#fbbf24" />
    <circle cx="202.5" cy="327.1" r="6" fill="#f97316" />
    <circle cx="209.3" cy="359.3" r="6" fill="#ef4444" />
    <circle cx="203.3" cy="377.7" r="6" fill="#f97316" />
    <circle cx="201.8" cy="431.1" r="6" fill="#ef4444" />
    <circle cx="206.2" cy="459.3" r="6" fill="#ef4444" />
    <circle cx="202.2" cy="478.9" r="6" fill="#ef4444" />
    <circle cx="202.5" cy="502.1" r="6" fill="#ef4444" />
    <circle cx="202.7" cy="525.2" r="6" fill="#f97316" />
    <circle cx="227.1" cy="5.6" r="6" fill="#f97316" />
    <circle cx="229.9" cy="55.7" r="6" fill="#fbbf24" />
    <circle cx="225.2" cy="75.6" r="6" fill="#f97316" />
    <circle cx="227.5" cy="105.7" r="6" fill="#fbbf24" />
    <circle cx="231.8" cy="151.9" r="6" fill="#fbbf24" />
    <circle cx="234.7" cy="175.4" r="6" fill="#f97316" />
    <circle cx="233.7" cy="206.1" r="6" fill="#fbbf24" />
    <circle cx="229.1" cy="231.6" r="6" fill="#f97316" />
    <circle cx="227.3" cy="250.3" r="6" fill="#f97316" />
    <circle cx="232.3" cy="280.6" r="6" fill="#ef4444" />
    <circle cx="234.7" cy="331.0" r="6" fill="#f97316" />
    <circle cx="234.9" cy="358.5" r="6" fill="#f97316" />
    <circle cx="227.2" cy="379.1" r="6" fill="#fbbf24" />
    <circle cx="225.7" cy="400.8" r="6" fill="#ef4444" />
    <circle cx="226.1" cy="450.3" r="6" fill="#fbbf24" />
    <circle cx="234.9" cy="476.5" r="6" fill="#f97316" />
    <circle cx="233.6" cy="504.5" r="6" fill="#ef4444" />
    <circle cx="232.3" cy="527.9" r="6" fill="#ef4444" />
    <circle cx="250.8" cy="2.1" r="6" fill="#f97316" />
    <circle cx="259.7" cy="31.9" r="6" fill="#f97316" />
    <circle cx="253.3" cy="82.3" r="6" fill="#f97316" />
    <circle cx="254.5" cy="109.0" r="6" fill="#fbbf24" />
    <circle cx="257.1" cy="130.4" r="6" fill="#f97316" />
    <circle cx="257.5" cy="150.5" r="6" fill="#fbbf24" />
    <circle cx="259.3" cy="183.5" r="6" fill="#ef4444" />
    <circle cx="259.5" cy="209.7" r="6" fill="#f97316" />
    <circle cx="258.0" cy="225.1" r="6" fill="#ef4444" />
    <circle cx="252.2" cy="255.3" r="6" fill="#fbbf24" />
    <circle cx="256.4" cy="302.2" r="6" fill="#fbbf24" />
    <circle cx="259.9" cy="325.4" r="6" fill="#ef4444" />
    <circle cx="254.4" cy="354.1" r="6" fill="#ef4444" />
    <circle cx="251.7" cy="384.3" r="6" fill="#fbbf24" />
    <circle cx="257.8" cy="400.2" r="6" fill="#fbbf24" />
    <circle cx="251.7" cy="427.7" r="6" fill="#f97316" />
    <circle cx="253.9" cy="459.5" r="6" fill="#ef4444" />
    <circle cx="256.9" cy="482.3" r="6" fill="#f97316" />
    <circle cx="278.2" cy="26.3" r="6" fill="#ef4444" />
    <circle cx="278.1" cy="50.9" r="6" fill="#ef4444" />
    <circle cx="277.1" cy="79.7" r="6" fill="#ef4444" />
    <circle cx="281.3" cy="178.7" r="6" fill="#ef4444" />
    <circle cx="276.0" cy="205.7" r="6" fill="#ef4444" />
    <circle cx="283.2" cy="255.0" r="6" fill="#f97316" />
    <circle cx="278.3" cy="279.4" r="6" fill="#ef4444" />
    <circle cx="277.9" cy="328.4" r="6" fill="#ef4444" />
    <circle cx="280.0" cy="376.8" r="6" fill="#fbbf24" />
    <circle cx="283.8" cy="409.5" r="6" fill="#ef4444" />
    <circle cx="282.6" cy="453.7" r="6" fill="#ef4444" />
    <circle cx="276.4" cy="530.9" r="6" fill="#fbbf24" />
    <circle cx="308.5" cy="8.0" r="6" fill="#fbbf24" />
    <circle cx="306.7" cy="33.8" r="6" fill="#f97316" />
    <circle cx="306.3" cy="54.1" r="6" fill="#ef4444" />
    <circle cx="301.6" cy="77.2" r="6" fill="#ef4444" />
    <circle cx="305.3" cy="129.1" r="6" fill="#fbbf24" />
    <circle cx="303.7" cy="159.0" r="6" fill="#f97316" />
    <circle cx="302.7" cy="183.9" r="6" fill="#fbbf24" />
    <circle cx="304.0" cy="207.7" r="6" fill="#fbbf24" />
    <circle cx="302.3" cy="252.4" r="6" fill="#ef4444" />
    <circle cx="302.4" cy="305.5" r="6" fill="#f97316" />
    <circle cx="302.1" cy="330.7" r="6" fill="#ef4444" />
    <circle cx="307.8" cy="358.0" r="6" fill="#fbbf24" />
    <circle cx="306.7" cy="385.0" r="6" fill="#ef4444" />
    <circle cx="300.8" cy="408.1" r="6" fill="#f97316" />
    <circle cx="303.9" cy="431.5" r="6" fill="#ef4444" />
    <circle cx="309.1" cy="476.5" r="6" fill="#fbbf24" />
    <circle cx="300.8" cy="503.1" r="6" fill="#fbbf24" />
    <circle cx="302.8" cy="528.5" r="6" fill="#fbbf24" />
    <circle cx="325.1" cy="25.9" r="6" fill="#ef4444" />
    <circle cx="327.4" cy="53.2" r="6" fill="#ef4444" />
    <circle cx="331.4" cy="76.0" r="6" fill="#ef4444" />
    <circle cx="330.9" cy="101.0" r="6" fill="#ef4444" />
    <circle cx="329.9" cy="176.6" r="6" fill="#f97316" />
    <circle cx="326.0" cy="254.4" r="6" fill="#ef4444" />
    <circle cx="331.8" cy="279.9" r="6" fill="#f97316" />
    <circle cx="327.3" cy="303.9" r="6" fill="#f97316" />
    <circle cx="327.3" cy="334.9" r="6" fill="#f97316" />
    <circle cx="326.5" cy="359.5" r="6" fill="#f97316" />
    <circle cx="332.0" cy="383.5" r="6" fill="#fbbf24" />
    <circle cx="328.2" cy="455.4" r="6" fill="#ef4444" />
    <circle cx="331.4" cy="480.5" r="6" fill="#fbbf24" />
    <circle cx="358.2" cy="0.5" r="6" fill="#f97316" />
    <circle cx="357.8" cy="206.3" r="6" fill="#f97316" />
    <circle cx="352.6" cy="229.3" r="6" fill="#f97316" />
    <circle cx="359.9" cy="252.2" r="6" fill="#fbbf24" />
    <circle cx="358.9" cy="276.4" r="6" fill="#fbbf24" />
    <circle cx="358.5" cy="325.4" r="6" fill="#fbbf24" />
    <circle cx="353.9" cy="355.8" r="6" fill="#f97316" />
    <circle cx="358.1" cy="400.9" r="6" fill="#ef4444" />
    <circle cx="352.0" cy="480.1" r="6" fill="#f97316" />
    <circle cx="359.0" cy="502.9" r="6" fill="#ef4444" />
    <circle cx="355.3" cy="534.0" r="6" fill="#fbbf24" />
    <circle cx="384.8" cy="6.9" r="6" fill="#ef4444" />
    <circle cx="375.7" cy="31.5" r="6" fill="#f97316" />
    <circle cx="376.8" cy="51.7" r="6" fill="#f97316" />
    <circle cx="380.1" cy="82.7" r="6" fill="#ef4444" />
    <circle cx="381.4" cy="103.8" r="6" fill="#ef4444" />
    <circle cx="375.8" cy="153.8" r="6" fill="#f97316" />
    <circle cx="375.1" cy="178.8" r="6" fill="#fbbf24" />
    <circle cx="377.0" cy="254.3" r="6" fill="#ef4444" />
    <circle cx="380.8" cy="277.4" r="6" fill="#fbbf24" />
    <circle cx="378.5" cy="330.0" r="6" fill="#f97316" />
    <circle cx="377.5" cy="354.0" r="6" fill="#ef4444" />
    <circle cx="380.7" cy="377.6" r="6" fill="#fbbf24" />
    <circle cx="383.4" cy="404.7" r="6" fill="#f97316" />
    <circle cx="380.1" cy="433.6" r="6" fill="#ef4444" />
    <circle cx="378.8" cy="501.0" r="6" fill="#fbbf24" />
    <circle cx="380.1" cy="526.0" r="6" fill="#fbbf24" /></g>
  <polygon points="333.2,129.5 346.1,142.3 333.2,155.2 320.4,142.3" fill="#ef4444" opacity="0.17" />
    <rect x="323.4" y="274.5" width="27.9" height="27.9" fill="#fbbf24" opacity="0.27" />
    <polygon points="301.5,529.4 322.0,570.5 280.9,570.5" fill="#ef4444" opacity="0.26" />
    <polygon points="155.1,256.5 202.3,303.6 155.1,350.8 108.0,303.6" fill="#fbbf24" opacity="0.18" />
    <circle cx="86.9" cy="325.5" r="37.5" fill="#fbbf24" opacity="0.27" />
    <polygon points="385.7,323.9 410.4,373.4 361.0,373.4" fill="#fbbf24" opacity="0.23" />
    <polygon points="114.8,417.7 134.7,457.5 94.9,457.5" fill="#f97316" opacity="0.19" />
    <circle cx="31.6" cy="436.9" r="48.2" fill="#ef4444" opacity="0.37" />
    <circle cx="340.7" cy="100.0" r="31.2" fill="#f97316" opacity="0.37" />
    <rect x="65.1" y="383.3" width="22.5" height="22.5" fill="#fbbf24" opacity="0.19" />
    <polygon points="129.8,407.6 173.2,494.5 86.4,494.5" fill="#ef4444" opacity="0.38" />
  
  <!-- Text background banner -->
  <defs>
    <linearGradient id="text-bg-15" x1="0%" y1="0%" x2="100%" y2="0%">
      <stop offset="0%" style="stop-color:#000000;stop-opacity:0.7" />
      <stop offset="50%" style="stop-color:#ef4444;stop-opacity:0.4" />
      <stop offset="100%" style="stop-color:#000000;stop-opacity:0.7" />
    </linearGradient>
  </defs>
  <rect x="0" y="494" width="400" height="56" fill="url(#text-bg-15)" />

  <!-- Text shadow -->
  <text x="200" y="522" font-family="system-ui, -apple-system, sans-serif" font-size="24" font-weight="bold" text-anchor="middle" fill="#000000" opacity="0.8">Grill Gift Guru</text>

  <!-- Main text -->
  <text x="200" y="520" font-family="system-ui, -apple-system, sans-serif" font-size="24" font-weight="bold" text-anchor="middle" fill="#ffffff">Grill Gift Guru</text>
  
  <!-- Rarity border -->
  <rect x="4" y="4" width="392" height="542"
        fill="none" stroke="#eab308" stroke-width="8" rx="8" ry="8" />
</svg>