<?xml version="1.0" encoding="UTF-8"?>
<svg xmlns="http://www.w3.org/2000/svg" viewBox="0 0 400 550" width="400" height="550">
  <defs>
    <linearGradient id="bg-gradient-fd_002" x1="0%" y1="0%" x2="100%" y2="100%">
      <stop offset="0%" style="stop-color:#ffffff;stop-opacity:0.26" />
      <stop offset="50%" style="stop-color:#ef4444;stop-opacity:0.4" />
      <stop offset="100%" style="stop-color:#ffffff;stop-opacity:0.26" />
    </linearGradient>
    
  <filter id="shadow-fd_002">
    <feDropShadow dx="0" dy="2" stdDeviation="3" flood-opacity="0.8"/>
  </filter>
  </defs>
  <rect width="400" height="550" fill="url(#bg-gradient-0.7517114093061537)" />
  <g opacity="0.3"><circle cx="163.2" cy="2.6" r="36.2" fill="none" stroke="#ef4444" stroke-width="1.2" opacity="0.20" />
    <circle cx="254.8" cy="519.7" r="39.5" fill="none" stroke="#ef4444" stroke-width="1.8" opacity="0.14" />
    <rect x="30.7" y="94.1" width="69.3" height="69.3" fill="none" stroke="#ef4444" stroke-width="2.4" opacity="0.26" />
    <circle cx="217.0" cy="395.1" r="35.5" fill="none" stroke="#fbbf24" stroke-width="1.3" opacity="0.25" />
    <circle cx="375.0" cy="144.7" r="13.4" fill="none" stroke="#ef4444" stroke-width="2.5" opacity="0.18" />
    <circle cx="47.7" cy="74.0" r="15.0" fill="none" stroke="#fbbf24" stroke-width="1.4" opacity="0.19" />
    <rect x="249.7" y="196.8" width="77.2" height="77.2" fill="none" stroke="#ef4444" stroke-width="1.7" opacity="0.12" />
    <circle cx="353.5" cy="187.9" r="27.3" fill="none" stroke="#ef4444" stroke-width="2.7" opacity="0.18" />
    <rect x="224.0" y="250.6" width="63.2" height="63.2" fill="none" stroke="#ffffff" stroke-width="2.8" opacity="0.26" />
    <circle cx="332.7" cy="20.6" r="27.6" fill="none" stroke="#fbbf24" stroke-width="1.7" opacity="0.26" />
    <rect x="129.9" y="91.8" width="30.8" height="30.8" fill="none" stroke="#ffffff" stroke-width="3.0" opacity="0.17" /></g>
  <rect x="89.6" y="163.4" width="86.5" height="86.5" fill="#ef4444" opacity="0.16" />
    <polygon points="372.4,149.1 415.9,192.7 372.4,236.2 328.8,192.7" fill="#ef4444" opacity="0.32" />
    <circle cx="203.3" cy="267.2" r="21.5" fill="#ef4444" opacity="0.25" />
    <polygon points="375.2,52.3 422.1,146.1 328.2,146.1" fill="#ffffff" opacity="0.15" />
    <circle cx="53.4" cy="166.1" r="33.9" fill="#ef4444" opacity="0.20" />
    <polygon points="46.9,514.4 77.1,544.7 46.9,574.9 16.6,544.7" fill="#fbbf24" opacity="0.34" />
    <circle cx="236.7" cy="547.3" r="29.1" fill="#ffffff" opacity="0.20" />
    <polygon points="363.1,522.1 386.7,545.7 363.1,569.3 339.5,545.7" fill="#fbbf24" opacity="0.15" />
    <polygon points="142.2,497.3 159.8,532.4 124.7,532.4" fill="#fbbf24" opacity="0.36" />
    <polygon points="273.6,403.8 294.9,425.2 273.6,446.5 252.2,425.2" fill="#ef4444" opacity="0.14" />
    <polygon points="252.2,322.3 281.1,351.2 252.2,380.1 223.2,351.2" fill="#ffffff" opacity="0.15" />
    <rect x="44.5" y="49.0" width="60.0" height="60.0" fill="#ffffff" opacity="0.36" />
    <polygon points="387.0,346.2 435.0,442.1 339.1,442.1" fill="#ef4444" opacity="0.17" />
    <rect x="225.3" y="186.7" width="61.1" height="61.1" fill="#ef4444" opacity="0.15" />
  
  <!-- Text background banner -->
  <defs>
    <linearGradient id="text-bg-20" x1="0%" y1="0%" x2="100%" y2="0%">
      <stop offset="0%" style="stop-color:#000000;stop-opacity:0.7" />
      <stop offset="50%" style="stop-color:#ffffff;stop-opacity:0.4" />
      <stop offset="100%" style="stop-color:#000000;stop-opacity:0.7" />
    </linearGradient>
  </defs>
  <rect x="0" y="494" width="400" height="56" fill="url(#text-bg-20)" />

  <!-- Text shadow -->
  <text x="200" y="522" font-family="system-ui, -apple-system, sans-serif" font-size="24" font-weight="bold" text-anchor="middle" fill="#000000" opacity="0.8">Breakfast in Bed Dad</text>

  <!-- Main text -->
  <text x="200" y="520" font-family="system-ui, -apple-system, sans-serif" font-size="24" font-weight="bold" text-anchor="middle" fill="#ffffff">Breakfast in Bed Dad</text>
  
  <!-- Rarity border -->
  <rect x="5" y="5" width="390" height="540"
        fill="none" stroke="#a855f7" stroke-width="10" rx="8" ry="8" />
</svg>