<?xml version="1.0" encoding="UTF-8"?>
<svg xmlns="http://www.w3.org/2000/svg" viewBox="0 0 400 550" width="400" height="550">
  <defs>
    <linearGradient id="bg-gradient-fd_003" x1="0%" y1="0%" x2="100%" y2="100%">
      <stop offset="0%" style="stop-color:#64748b;stop-opacity:0.26" />
      <stop offset="50%" style="stop-color:#94a3b8;stop-opacity:0.4" />
      <stop offset="100%" style="stop-color:#64748b;stop-opacity:0.26" />
    </linearGradient>
    
  <filter id="shadow-fd_003">
    <feDropShadow dx="0" dy="2" stdDeviation="3" flood-opacity="0.8"/>
  </filter>
  </defs>
  <rect width="400" height="550" fill="url(#bg-gradient-0.4396245477255434)" />
  <g opacity="0.3"><circle cx="3.1" cy="5.2" r="2" fill="#64748b" />
    <circle cx="4.8" cy="79.9" r="2" fill="#fbbf24" />
    <circle cx="1.1" cy="105.2" r="2" fill="#fbbf24" />
    <circle cx="8.9" cy="145.4" r="2" fill="#fbbf24" />
    <circle cx="6.1" cy="213.9" r="2" fill="#94a3b8" />
    <circle cx="6.9" cy="280.1" r="2" fill="#94a3b8" />
    <circle cx="2.8" cy="318.5" r="2" fill="#fbbf24" />
    <circle cx="3.2" cy="354.6" r="2" fill="#94a3b8" />
    <circle cx="7.3" cy="455.2" r="2" fill="#94a3b8" />
    <circle cx="2.7" cy="494.4" r="2" fill="#94a3b8" />
    <circle cx="3.8" cy="533.0" r="2" fill="#fbbf24" />
    <circle cx="41.3" cy="3.8" r="2" fill="#64748b" />
    <circle cx="42.8" cy="36.6" r="2" fill="#fbbf24" />
    <circle cx="41.1" cy="78.4" r="2" fill="#fbbf24" />
    <circle cx="42.2" cy="112.0" r="2" fill="#94a3b8" />
    <circle cx="40.9" cy="177.3" r="2" fill="#fbbf24" />
    <circle cx="36.3" cy="210.9" r="2" fill="#64748b" />
    <circle cx="42.2" cy="248.8" r="2" fill="#64748b" />
    <circle cx="42.0" cy="285.5" r="2" fill="#64748b" />
    <circle cx="39.0" cy="352.1" r="2" fill="#fbbf24" />
    <circle cx="44.5" cy="429.3" r="2" fill="#fbbf24" />
    <circle cx="41.9" cy="496.5" r="2" fill="#fbbf24" />
    <circle cx="72.9" cy="73.3" r="2" fill="#fbbf24" />
    <circle cx="77.7" cy="109.7" r="2" fill="#fbbf24" />
    <circle cx="79.4" cy="147.7" r="2" fill="#fbbf24" />
    <circle cx="70.2" cy="183.2" r="2" fill="#94a3b8" />
    <circle cx="77.1" cy="216.9" r="2" fill="#fbbf24" />
    <circle cx="79.7" cy="251.7" r="2" fill="#94a3b8" />
    <circle cx="78.9" cy="324.2" r="2" fill="#fbbf24" />
    <circle cx="73.5" cy="356.0" r="2" fill="#fbbf24" />
    <circle cx="74.3" cy="385.5" r="2" fill="#94a3b8" />
    <circle cx="79.8" cy="422.7" r="2" fill="#64748b" />
    <circle cx="79.9" cy="459.9" r="2" fill="#94a3b8" />
    <circle cx="77.9" cy="491.2" r="2" fill="#64748b" />
    <circle cx="74.2" cy="531.6" r="2" fill="#94a3b8" />
    <circle cx="114.3" cy="0.7" r="2" fill="#64748b" />
    <circle cx="107.1" cy="35.3" r="2" fill="#64748b" />
    <circle cx="109.3" cy="108.7" r="2" fill="#94a3b8" />
    <circle cx="114.0" cy="145.2" r="2" fill="#94a3b8" />
    <circle cx="110.0" cy="245.3" r="2" fill="#94a3b8" />
    <circle cx="112.0" cy="318.7" r="2" fill="#94a3b8" />
    <circle cx="106.0" cy="455.2" r="2" fill="#fbbf24" />
    <circle cx="105.4" cy="494.6" r="2" fill="#94a3b8" />
    <circle cx="111.3" cy="529.3" r="2" fill="#fbbf24" />
    <circle cx="143.4" cy="5.0" r="2" fill="#94a3b8" />
    <circle cx="142.3" cy="35.2" r="2" fill="#fbbf24" />
    <circle cx="142.9" cy="72.4" r="2" fill="#fbbf24" />
    <circle cx="145.8" cy="113.4" r="2" fill="#94a3b8" />
    <circle cx="142.7" cy="141.6" r="2" fill="#64748b" />
    <circle cx="142.1" cy="214.8" r="2" fill="#fbbf24" />
    <circle cx="144.4" cy="254.3" r="2" fill="#94a3b8" />
    <circle cx="144.1" cy="286.0" r="2" fill="#fbbf24" />
    <circle cx="146.3" cy="321.9" r="2" fill="#94a3b8" />
    <circle cx="143.2" cy="359.4" r="2" fill="#fbbf24" />
    <circle cx="145.0" cy="427.4" r="2" fill="#94a3b8" />
    <circle cx="145.3" cy="461.4" r="2" fill="#64748b" />
    <circle cx="181.9" cy="9.6" r="2" fill="#fbbf24" />
    <circle cx="181.3" cy="37.1" r="2" fill="#64748b" />
    <circle cx="178.2" cy="77.7" r="2" fill="#64748b" />
    <circle cx="181.8" cy="144.9" r="2" fill="#94a3b8" />
    <circle cx="183.4" cy="183.1" r="2" fill="#fbbf24" />
    <circle cx="184.5" cy="210.5" r="2" fill="#fbbf24" />
    <circle cx="176.5" cy="250.1" r="2" fill="#fbbf24" />
    <circle cx="179.5" cy="324.7" r="2" fill="#94a3b8" />
    <circle cx="183.3" cy="353.3" r="2" fill="#94a3b8" />
    <circle cx="178.8" cy="427.9" r="2" fill="#fbbf24" />
    <circle cx="175.7" cy="497.5" r="2" fill="#94a3b8" />
    <circle cx="182.2" cy="534.4" r="2" fill="#64748b" />
    <circle cx="218.2" cy="7.5" r="2" fill="#fbbf24" />
    <circle cx="211.0" cy="79.1" r="2" fill="#64748b" />
    <circle cx="211.9" cy="110.9" r="2" fill="#64748b" />
    <circle cx="210.1" cy="148.4" r="2" fill="#94a3b8" />
    <circle cx="210.7" cy="217.2" r="2" fill="#64748b" />
    <circle cx="212.9" cy="247.2" r="2" fill="#64748b" />
    <circle cx="213.1" cy="282.3" r="2" fill="#fbbf24" />
    <circle cx="217.9" cy="353.9" r="2" fill="#94a3b8" />
    <circle cx="211.2" cy="394.6" r="2" fill="#fbbf24" />
    <circle cx="210.6" cy="424.6" r="2" fill="#64748b" />
    <circle cx="218.6" cy="456.0" r="2" fill="#64748b" />
    <circle cx="211.1" cy="496.4" r="2" fill="#94a3b8" />
    <circle cx="245.7" cy="44.4" r="2" fill="#64748b" />
    <circle cx="245.1" cy="74.7" r="2" fill="#fbbf24" />
    <circle cx="245.2" cy="217.5" r="2" fill="#fbbf24" />
    <circle cx="245.5" cy="287.2" r="2" fill="#94a3b8" />
    <circle cx="245.6" cy="322.2" r="2" fill="#fbbf24" />
    <circle cx="252.1" cy="387.2" r="2" fill="#64748b" />
    <circle cx="249.7" cy="423.5" r="2" fill="#fbbf24" />
    <circle cx="252.6" cy="455.6" r="2" fill="#64748b" />
    <circle cx="250.6" cy="496.4" r="2" fill="#fbbf24" />
    <circle cx="254.6" cy="528.2" r="2" fill="#64748b" />
    <circle cx="288.3" cy="6.7" r="2" fill="#64748b" />
    <circle cx="280.4" cy="36.1" r="2" fill="#fbbf24" />
    <circle cx="283.3" cy="107.4" r="2" fill="#94a3b8" />
    <circle cx="280.8" cy="143.3" r="2" fill="#94a3b8" />
    <circle cx="284.0" cy="178.9" r="2" fill="#fbbf24" />
    <circle cx="288.8" cy="219.9" r="2" fill="#fbbf24" />
    <circle cx="285.9" cy="251.6" r="2" fill="#64748b" />
    <circle cx="285.8" cy="321.4" r="2" fill="#64748b" />
    <circle cx="289.2" cy="358.6" r="2" fill="#fbbf24" />
    <circle cx="288.2" cy="423.9" r="2" fill="#94a3b8" />
    <circle cx="283.0" cy="462.0" r="2" fill="#94a3b8" />
    <circle cx="287.0" cy="498.0" r="2" fill="#64748b" />
    <circle cx="319.4" cy="5.8" r="2" fill="#94a3b8" />
    <circle cx="324.4" cy="37.4" r="2" fill="#94a3b8" />
    <circle cx="317.9" cy="113.6" r="2" fill="#94a3b8" />
    <circle cx="324.3" cy="176.9" r="2" fill="#94a3b8" />
    <circle cx="318.1" cy="318.5" r="2" fill="#64748b" />
    <circle cx="320.0" cy="387.0" r="2" fill="#64748b" />
    <circle cx="323.7" cy="423.2" r="2" fill="#64748b" />
    <circle cx="322.1" cy="457.6" r="2" fill="#fbbf24" />
    <circle cx="320.5" cy="490.9" r="2" fill="#64748b" />
    <circle cx="352.6" cy="43.7" r="2" fill="#64748b" />
    <circle cx="353.2" cy="112.4" r="2" fill="#94a3b8" />
    <circle cx="357.2" cy="143.4" r="2" fill="#fbbf24" />
    <circle cx="357.1" cy="184.7" r="2" fill="#64748b" />
    <circle cx="354.0" cy="210.3" r="2" fill="#fbbf24" />
    <circle cx="357.4" cy="254.2" r="2" fill="#94a3b8" />
    <circle cx="359.2" cy="286.3" r="2" fill="#fbbf24" />
    <circle cx="354.3" cy="388.3" r="2" fill="#64748b" />
    <circle cx="358.5" cy="427.0" r="2" fill="#fbbf24" />
    <circle cx="351.0" cy="494.7" r="2" fill="#94a3b8" />
    <circle cx="350.9" cy="526.9" r="2" fill="#64748b" />
    <circle cx="390.7" cy="36.5" r="2" fill="#94a3b8" />
    <circle cx="394.6" cy="73.7" r="2" fill="#64748b" />
    <circle cx="393.8" cy="105.4" r="2" fill="#fbbf24" />
    <circle cx="391.4" cy="140.1" r="2" fill="#64748b" />
    <circle cx="389.2" cy="175.5" r="2" fill="#94a3b8" />
    <circle cx="389.8" cy="251.0" r="2" fill="#fbbf24" />
    <circle cx="386.2" cy="289.6" r="2" fill="#64748b" />
    <circle cx="386.3" cy="319.5" r="2" fill="#94a3b8" />
    <circle cx="392.7" cy="427.7" r="2" fill="#64748b" />
    <circle cx="390.6" cy="456.2" r="2" fill="#fbbf24" />
    <circle cx="389.2" cy="491.7" r="2" fill="#fbbf24" />
    <circle cx="386.0" cy="525.6" r="2" fill="#64748b" /></g>
  <polygon points="56.2,420.7 66.5,430.9 56.2,441.2 45.9,430.9" fill="#64748b" opacity="0.35" />
    <rect x="41.2" y="393.0" width="76.0" height="76.0" fill="#fbbf24" opacity="0.22" />
    <circle cx="284.5" cy="267.9" r="49.7" fill="#64748b" opacity="0.38" />
    <polygon points="45.5,23.9 64.1,61.2 26.8,61.2" fill="#64748b" opacity="0.19" />
    <polygon points="382.4,227.8 393.2,238.6 382.4,249.4 371.6,238.6" fill="#64748b" opacity="0.29" />
  
  <!-- Text background banner -->
  <defs>
    <linearGradient id="text-bg-14" x1="0%" y1="0%" x2="100%" y2="0%">
      <stop offset="0%" style="stop-color:#000000;stop-opacity:0.7" />
      <stop offset="50%" style="stop-color:#64748b;stop-opacity:0.4" />
      <stop offset="100%" style="stop-color:#000000;stop-opacity:0.7" />
    </linearGradient>
  </defs>
  <rect x="0" y="494" width="400" height="56" fill="url(#text-bg-14)" />

  <!-- Text shadow -->
  <text x="200" y="522" font-family="system-ui, -apple-system, sans-serif" font-size="24" font-weight="bold" text-anchor="middle" fill="#000000" opacity="0.8">World's #1 Dad</text>

  <!-- Main text -->
  <text x="200" y="520" font-family="system-ui, -apple-system, sans-serif" font-size="24" font-weight="bold" text-anchor="middle" fill="#ffffff">World's #1 Dad</text>
  
  <!-- Rarity border -->
  <rect x="2" y="2" width="396" height="546"
        fill="none" stroke="#9ca3af" stroke-width="4" rx="8" ry="8" />
</svg>