<?xml version="1.0" encoding="UTF-8"?>
<svg xmlns="http://www.w3.org/2000/svg" viewBox="0 0 400 550" width="400" height="550">
  <defs>
    <linearGradient id="bg-gradient-GAMER_GIZZARD_001" x1="0%" y1="0%" x2="100%" y2="100%">
      <stop offset="0%" style="stop-color:#64748b;stop-opacity:0.26" />
      <stop offset="50%" style="stop-color:#94a3b8;stop-opacity:0.4" />
      <stop offset="100%" style="stop-color:#64748b;stop-opacity:0.26" />
    </linearGradient>
    
  <filter id="shadow-GAMER_GIZZARD_001">
    <feDropShadow dx="0" dy="2" stdDeviation="3" flood-opacity="0.8"/>
  </filter>
  </defs>
  <rect width="400" height="550" fill="url(#bg-gradient-0.3100385454017669)" />
  <g opacity="0.3"><line x1="94.2" y1="0" x2="94.2" y2="550" stroke="#64748b" stroke-width="2.1" opacity="0.21" />
    <line x1="203.5" y1="0" x2="203.5" y2="550" stroke="#fbbf24" stroke-width="3.9" opacity="0.25" />
    <line x1="346.9" y1="0" x2="346.9" y2="550" stroke="#64748b" stroke-width="3.4" opacity="0.33" />
    <line x1="0" y1="430.8" x2="400" y2="430.8" stroke="#94a3b8" stroke-width="1.8" opacity="0.18" />
    <line x1="0" y1="178.9" x2="400" y2="178.9" stroke="#fbbf24" stroke-width="3.8" opacity="0.27" />
    <line x1="0" y1="363.2" x2="400" y2="363.2" stroke="#94a3b8" stroke-width="2.1" opacity="0.40" />
    <line x1="329.0" y1="0" x2="329.0" y2="550" stroke="#94a3b8" stroke-width="2.1" opacity="0.16" />
    <line x1="0" y1="377.0" x2="400" y2="377.0" stroke="#64748b" stroke-width="1.6" opacity="0.16" />
    <line x1="301.0" y1="0" x2="301.0" y2="550" stroke="#64748b" stroke-width="1.7" opacity="0.38" />
    <line x1="320.1" y1="0" x2="320.1" y2="550" stroke="#94a3b8" stroke-width="2.6" opacity="0.10" />
    <line x1="0" y1="300.9" x2="400" y2="300.9" stroke="#64748b" stroke-width="3.3" opacity="0.31" />
    <line x1="111.5" y1="0" x2="111.5" y2="550" stroke="#64748b" stroke-width="1.6" opacity="0.33" />
    <line x1="42.8" y1="0" x2="42.8" y2="550" stroke="#94a3b8" stroke-width="2.6" opacity="0.36" />
    <line x1="17.5" y1="0" x2="17.5" y2="550" stroke="#94a3b8" stroke-width="3.0" opacity="0.29" />
    <line x1="0" y1="287.6" x2="400" y2="287.6" stroke="#94a3b8" stroke-width="1.0" opacity="0.22" />
    <line x1="330.0" y1="0" x2="330.0" y2="550" stroke="#94a3b8" stroke-width="3.6" opacity="0.37" />
    <line x1="361.2" y1="0" x2="361.2" y2="550" stroke="#fbbf24" stroke-width="1.5" opacity="0.37" />
    <line x1="0" y1="169.6" x2="400" y2="169.6" stroke="#64748b" stroke-width="3.3" opacity="0.26" />
    <line x1="381.2" y1="0" x2="381.2" y2="550" stroke="#94a3b8" stroke-width="1.5" opacity="0.37" />
    <line x1="0" y1="503.9" x2="400" y2="503.9" stroke="#94a3b8" stroke-width="2.5" opacity="0.39" /></g>
  <rect x="176.4" y="296.1" width="56.4" height="56.4" fill="#fbbf24" opacity="0.29" />
    <rect x="165.2" y="78.4" width="99.2" height="99.2" fill="#fbbf24" opacity="0.27" />
    <rect x="83.9" y="319.0" width="32.9" height="32.9" fill="#94a3b8" opacity="0.28" />
    <polygon points="109.6,501.5 120.5,512.4 109.6,523.3 98.7,512.4" fill="#fbbf24" opacity="0.31" />
    <polygon points="149.4,21.2 173.2,68.8 125.6,68.8" fill="#64748b" opacity="0.25" />
    <polygon points="65.8,488.7 115.6,538.4 65.8,588.2 16.1,538.4" fill="#fbbf24" opacity="0.11" />
    <circle cx="91.7" cy="192.5" r="49.4" fill="#94a3b8" opacity="0.31" />
    <rect x="-27.5" y="309.7" width="74.9" height="74.9" fill="#94a3b8" opacity="0.21" />
    <polygon points="77.6,332.5 88.1,353.4 67.1,353.4" fill="#94a3b8" opacity="0.19" />
    <polygon points="340.8,54.1 380.2,132.8 301.5,132.8" fill="#fbbf24" opacity="0.29" />
    <circle cx="157.3" cy="274.6" r="11.0" fill="#fbbf24" opacity="0.20" />
  
  <!-- Text background banner -->
  <defs>
    <linearGradient id="text-bg-23" x1="0%" y1="0%" x2="100%" y2="0%">
      <stop offset="0%" style="stop-color:#000000;stop-opacity:0.7" />
      <stop offset="50%" style="stop-color:#64748b;stop-opacity:0.4" />
      <stop offset="100%" style="stop-color:#000000;stop-opacity:0.7" />
    </linearGradient>
  </defs>
  <rect x="0" y="494" width="400" height="56" fill="url(#text-bg-23)" />

  <!-- Text shadow -->
  <text x="200" y="522" font-family="system-ui, -apple-system, sans-serif" font-size="24" font-weight="bold" text-anchor="middle" fill="#000000" opacity="0.8">Controller Cock-Crusher</text>

  <!-- Main text -->
  <text x="200" y="520" font-family="system-ui, -apple-system, sans-serif" font-size="24" font-weight="bold" text-anchor="middle" fill="#ffffff">Controller Cock-Crusher</text>
  
  <!-- Rarity border -->
  <rect x="4" y="4" width="392" height="542"
        fill="none" stroke="#eab308" stroke-width="8" rx="8" ry="8" />
</svg>