<?xml version="1.0" encoding="UTF-8"?>
<svg xmlns="http://www.w3.org/2000/svg" viewBox="0 0 400 550" width="400" height="550">
  <defs>
    <linearGradient id="bg-gradient-holiday_002" x1="0%" y1="0%" x2="100%" y2="100%">
      <stop offset="0%" style="stop-color:#ec4899;stop-opacity:0.26" />
      <stop offset="50%" style="stop-color:#06b6d4;stop-opacity:0.4" />
      <stop offset="100%" style="stop-color:#ec4899;stop-opacity:0.26" />
    </linearGradient>
    
  <filter id="shadow-holiday_002">
    <feDropShadow dx="0" dy="2" stdDeviation="3" flood-opacity="0.8"/>
  </filter>
  </defs>
  <rect width="400" height="550" fill="url(#bg-gradient-0.9191071565728635)" />
  <g opacity="0.3"><circle cx="48.5" cy="186.7" r="35.1" fill="none" stroke="#06b6d4" stroke-width="2.1" opacity="0.27" />
    <circle cx="114.7" cy="508.2" r="20.6" fill="none" stroke="#fbbf24" stroke-width="1.0" opacity="0.16" />
    <circle cx="14.5" cy="149.7" r="21.8" fill="none" stroke="#ec4899" stroke-width="2.6" opacity="0.24" />
    <rect x="-14.2" y="31.0" width="36.4" height="36.4" fill="none" stroke="#fbbf24" stroke-width="1.9" opacity="0.28" />
    <circle cx="88.7" cy="465.5" r="13.0" fill="none" stroke="#06b6d4" stroke-width="2.5" opacity="0.28" />
    <rect x="241.5" y="141.9" width="68.3" height="68.3" fill="none" stroke="#06b6d4" stroke-width="1.6" opacity="0.21" />
    <rect x="186.2" y="68.0" width="78.2" height="78.2" fill="none" stroke="#fbbf24" stroke-width="2.7" opacity="0.22" />
    <rect x="300.7" y="204.9" width="69.0" height="69.0" fill="none" stroke="#fbbf24" stroke-width="2.3" opacity="0.16" />
    <rect x="279.7" y="185.0" width="38.9" height="38.9" fill="none" stroke="#fbbf24" stroke-width="2.3" opacity="0.20" />
    <rect x="291.2" y="469.4" width="20.8" height="20.8" fill="none" stroke="#ec4899" stroke-width="1.5" opacity="0.17" />
    <circle cx="381.2" cy="524.0" r="21.9" fill="none" stroke="#ec4899" stroke-width="1.5" opacity="0.14" /></g>
  <rect x="152.3" y="85.3" width="59.6" height="59.6" fill="#fbbf24" opacity="0.34" />
    <circle cx="364.8" cy="162.9" r="10.8" fill="#06b6d4" opacity="0.37" />
    <circle cx="272.2" cy="282.6" r="14.9" fill="#ec4899" opacity="0.34" />
    <polygon points="255.2,-28.9 290.7,42.3 219.6,42.3" fill="#06b6d4" opacity="0.20" />
    <polygon points="80.0,467.6 92.3,492.2 67.6,492.2" fill="#ec4899" opacity="0.28" />
    <circle cx="274.3" cy="145.8" r="19.5" fill="#fbbf24" opacity="0.28" />
    <rect x="91.8" y="19.7" width="49.1" height="49.1" fill="#fbbf24" opacity="0.27" />
    <polygon points="279.5,472.0 297.4,489.9 279.5,507.9 261.6,489.9" fill="#fbbf24" opacity="0.21" />
    <polygon points="228.1,93.6 241.8,107.3 228.1,121.1 214.3,107.3" fill="#06b6d4" opacity="0.32" />
    <polygon points="36.8,310.8 83.4,403.9 -9.7,403.9" fill="#ec4899" opacity="0.12" />
    <polygon points="150.5,338.8 194.8,427.3 106.2,427.3" fill="#06b6d4" opacity="0.10" />
    <rect x="-6.2" y="156.4" width="44.8" height="44.8" fill="#ec4899" opacity="0.20" />
    <polygon points="103.8,217.7 151.9,313.9 55.7,313.9" fill="#fbbf24" opacity="0.34" />
    <rect x="37.9" y="401.6" width="23.0" height="23.0" fill="#06b6d4" opacity="0.12" />
  
  <!-- Text background banner -->
  <defs>
    <linearGradient id="text-bg-18" x1="0%" y1="0%" x2="100%" y2="0%">
      <stop offset="0%" style="stop-color:#000000;stop-opacity:0.7" />
      <stop offset="50%" style="stop-color:#ec4899;stop-opacity:0.4" />
      <stop offset="100%" style="stop-color:#000000;stop-opacity:0.7" />
    </linearGradient>
  </defs>
  <rect x="0" y="494" width="400" height="56" fill="url(#text-bg-18)" />

  <!-- Text shadow -->
  <text x="200" y="522" font-family="system-ui, -apple-system, sans-serif" font-size="24" font-weight="bold" text-anchor="middle" fill="#000000" opacity="0.8">Ugly Sweater Steve</text>

  <!-- Main text -->
  <text x="200" y="520" font-family="system-ui, -apple-system, sans-serif" font-size="24" font-weight="bold" text-anchor="middle" fill="#ffffff">Ugly Sweater Steve</text>
  
  <!-- Rarity border -->
  <rect x="5" y="5" width="390" height="540"
        fill="none" stroke="#a855f7" stroke-width="10" rx="8" ry="8" />
</svg>