<?xml version="1.0" encoding="UTF-8"?>
<svg xmlns="http://www.w3.org/2000/svg" viewBox="0 0 400 550" width="400" height="550">
  <defs>
    <linearGradient id="bg-gradient-MARVEL_001" x1="0%" y1="0%" x2="100%" y2="100%">
      <stop offset="0%" style="stop-color:#64748b;stop-opacity:0.26" />
      <stop offset="50%" style="stop-color:#94a3b8;stop-opacity:0.4" />
      <stop offset="100%" style="stop-color:#64748b;stop-opacity:0.26" />
    </linearGradient>
    
  <filter id="shadow-MARVEL_001">
    <feDropShadow dx="0" dy="2" stdDeviation="3" flood-opacity="0.8"/>
  </filter>
  </defs>
  <rect width="400" height="550" fill="url(#bg-gradient-0.4616800379008055)" />
  <g opacity="0.3"><polyline points="0,296.6 5,295.9 10,295.2 15,294.7 20,294.4 25,294.2 30,294.1 35,294.3 40,294.5 45,294.9 50,295.5 55,296.2 60,297.0 65,297.9 70,299.0 75,300.2 80,301.5 85,302.9 90,304.3 95,305.9 100,307.4 105,309.0 110,310.7 115,312.3 120,314.0 125,315.6 130,317.2 135,318.7 140,320.2 145,321.7 150,323.0 155,324.2 160,325.4 165,326.4 170,327.3 175,328.1 180,328.7 185,329.2 190,329.6 195,329.8 200,329.8 205,329.7 210,329.4 215,329.0 220,328.5 225,327.8 230,327.0 235,326.0 240,324.9 245,323.7 250,322.5 255,321.1 260,319.6 265,318.1 270,316.5 275,314.9 280,313.3 285,311.6 290,310.0 295,308.4 300,306.8 305,305.2 310,303.7 315,302.3 320,301.0 325,299.7 330,298.6 335,297.5 340,296.6 345,295.9 350,295.2 355,294.7 360,294.4 365,294.2 370,294.1 375,294.3 380,294.5 385,294.9 390,295.5 395,296.2 400,297.0" fill="none" stroke="#fbbf24" stroke-width="2.9" opacity="0.27" />
    <polyline points="0,-3.8 5,-0.8 10,2.3 15,5.4 20,8.5 25,11.5 30,14.5 35,17.5 40,20.3 45,23.0 50,25.5 55,27.9 60,30.1 65,32.0 70,33.8 75,35.3 80,36.5 85,37.5 90,38.2 95,38.6 100,38.8 105,38.7 110,38.2 115,37.5 120,36.6 125,35.3 130,33.9 135,32.1 140,30.2 145,28.0 150,25.6 155,23.1 160,20.4 165,17.6 170,14.7 175,11.7 180,8.6 185,5.5 190,2.5 195,-0.6 200,-3.6 205,-6.6 210,-9.4 215,-12.1 220,-14.7 225,-17.1 230,-19.3 235,-21.4 240,-23.1 245,-24.7 250,-26.0 255,-27.0 260,-27.8 265,-28.3 270,-28.5 275,-28.4 280,-28.1 285,-27.4 290,-26.5 295,-25.4 300,-23.9 305,-22.2 310,-20.3 315,-18.2 320,-15.9 325,-13.4 330,-10.7 335,-7.9 340,-5.0 345,-2.1 350,1.0 355,4.1 360,7.2 365,10.2 370,13.3 375,16.2 380,19.1 385,21.8 390,24.4 395,26.9 400,29.2" fill="none" stroke="#64748b" stroke-width="2.6" opacity="0.25" />
    <polyline points="0,458.3 5,454.9 10,451.0 15,446.7 20,442.1 25,437.3 30,432.3 35,427.2 40,422.1 45,417.1 50,412.2 55,407.6 60,403.4 65,399.5 70,396.2 75,393.3 80,391.0 85,389.3 90,388.3 95,387.9 100,388.1 105,389.1 110,390.6 115,392.8 120,395.6 125,398.8 130,402.6 135,406.8 140,411.3 145,416.1 150,421.1 155,426.2 160,431.3 165,436.3 170,441.2 175,445.9 180,450.2 185,454.2 190,457.7 195,460.7 200,463.1 205,465.0 210,466.2 215,466.7 220,466.6 225,465.9 230,464.5 235,462.5 240,459.8 245,456.7 250,453.0 255,448.9 260,444.5 265,439.8 270,434.8 275,429.8 280,424.7 285,419.6 290,414.7 295,409.9 300,405.5 305,401.4 310,397.8 315,394.7 320,392.1 325,390.1 330,388.7 335,388.0 340,387.9 345,388.5 350,389.7 355,391.6 360,394.1 365,397.1 370,400.6 375,404.6 380,409.0 385,413.6 390,418.5 395,423.6 400,428.7" fill="none" stroke="#fbbf24" stroke-width="2.9" opacity="0.22" />
    <polyline points="0,120.7 5,124.3 10,127.7 15,130.9 20,133.7 25,136.3 30,138.5 35,140.4 40,141.9 45,142.9 50,143.6 55,143.8 60,143.5 65,142.9 70,141.8 75,140.3 80,138.5 85,136.2 90,133.7 95,130.8 100,127.6 105,124.2 110,120.6 115,116.9 120,113.0 125,109.1 130,105.2 135,101.3 140,97.5 145,93.8 150,90.3 155,87.0 160,83.9 165,81.2 170,78.8 175,76.7 180,75.0 185,73.7 190,72.8 195,72.3 200,72.3 205,72.7 210,73.5 215,74.7 220,76.4 225,78.4 230,80.8 235,83.5 240,86.5 245,89.7 250,93.2 255,96.9 260,100.7 265,104.5 270,108.5 275,112.4 280,116.3 285,120.0 290,123.6 295,127.1 300,130.3 305,133.2 310,135.8 315,138.1 320,140.1 325,141.6 330,142.7 335,143.5 340,143.8 345,143.6 350,143.0 355,142.1 360,140.7 365,138.9 370,136.7 375,134.2 380,131.4 385,128.2 390,124.9 395,121.3 400,117.6" fill="none" stroke="#64748b" stroke-width="1.5" opacity="0.21" />
    <polyline points="0,31.4 5,30.9 10,30.2 15,29.4 20,28.5 25,27.4 30,26.2 35,24.8 40,23.4 45,21.9 50,20.4 55,18.8 60,17.3 65,15.7 70,14.2 75,12.8 80,11.4 85,10.2 90,9.0 95,8.0 100,7.1 105,6.4 110,5.9 115,5.5 120,5.3 125,5.3 130,5.5 135,5.8 140,6.4 145,7.1 150,7.9 155,8.9 160,10.1 165,11.3 170,12.7 175,14.1 180,15.6 185,17.2 190,18.7 195,20.3 200,21.8 205,23.3 210,24.7 215,26.1 220,27.3 225,28.4 230,29.4 235,30.2 240,30.8 245,31.3 250,31.6 255,31.8 260,31.7 265,31.5 270,31.1 275,30.5 280,29.7 285,28.8 290,27.7 295,26.6 300,25.3 305,23.9 310,22.4 315,20.9 320,19.3 325,17.8 330,16.2 335,14.7 340,13.3 345,11.9 350,10.6 355,9.4 360,8.3 365,7.4 370,6.6 375,6.0 380,5.6 385,5.3 390,5.3 395,5.4 400,5.7" fill="none" stroke="#fbbf24" stroke-width="2.6" opacity="0.22" />
    <polyline points="0,242.9 5,244.7 10,246.5 15,248.4 20,250.3 25,252.2 30,254.1 35,256.0 40,258.0 45,259.9 50,261.8 55,263.6 60,265.4 65,267.2 70,268.9 75,270.6 80,272.2 85,273.7 90,275.1 95,276.5 100,277.7 105,278.9 110,279.9 115,280.8 120,281.6 125,282.4 130,282.9 135,283.4 140,283.7 145,283.9 150,284.0 155,284.0 160,283.8 165,283.5 170,283.1 175,282.5 180,281.9 185,281.1 190,280.2 195,279.2 200,278.1 205,276.9 210,275.5 215,274.1 220,272.7 225,271.1 230,269.5 235,267.8 240,266.0 245,264.2 250,262.3 255,260.5 260,258.6 265,256.6 270,254.7 275,252.8 280,250.9 285,249.0 290,247.1 295,245.3 300,243.5 305,241.7 310,240.0 315,238.4 320,236.8 325,235.3 330,233.9 335,232.6 340,231.4 345,230.3 350,229.3 355,228.4 360,227.7 365,227.0 370,226.5 375,226.1 380,225.8 385,225.6 390,225.6 395,225.7 400,225.9" fill="none" stroke="#fbbf24" stroke-width="2.0" opacity="0.25" />
    <polyline points="0,10.9 5,12.2 10,13.6 15,14.9 20,16.3 25,17.6 30,18.9 35,20.2 40,21.5 45,22.7 50,23.9 55,25.1 60,26.2 65,27.3 70,28.3 75,29.3 80,30.3 85,31.1 90,32.0 95,32.7 100,33.4 105,34.0 110,34.6 115,35.1 120,35.5 125,35.8 130,36.1 135,36.3 140,36.4 145,36.5 150,36.4 155,36.3 160,36.1 165,35.9 170,35.5 175,35.1 180,34.6 185,34.1 190,33.5 195,32.8 200,32.0 205,31.2 210,30.4 215,29.4 220,28.4 225,27.4 230,26.3 235,25.2 240,24.0 245,22.8 250,21.6 255,20.3 260,19.1 265,17.8 270,16.4 275,15.1 280,13.7 285,12.4 290,11.0 295,9.7 300,8.4 305,7.0 310,5.7 315,4.5 320,3.2 325,2.0 330,0.8 335,-0.4 340,-1.5 345,-2.6 350,-3.6 355,-4.5 360,-5.5 365,-6.3 370,-7.1 375,-7.9 380,-8.5 385,-9.1 390,-9.7 395,-10.1 400,-10.5" fill="none" stroke="#64748b" stroke-width="1.7" opacity="0.29" />
    <polyline points="0,360.4 5,358.5 10,356.4 15,354.3 20,352.2 25,350.0 30,347.9 35,345.9 40,344.0 45,342.3 50,340.8 55,339.5 60,338.4 65,337.7 70,337.2 75,337.1 80,337.2 85,337.7 90,338.4 95,339.4 100,340.7 105,342.2 110,344.0 115,345.8 120,347.9 125,350.0 130,352.1 135,354.3 140,356.4 145,358.4 150,360.3 155,362.1 160,363.6 165,365.0 170,366.0 175,366.8 180,367.4 185,367.6 190,367.5 195,367.1 200,366.4 205,365.4 210,364.1 215,362.7 220,361.0 225,359.1 230,357.1 235,355.0 240,352.9 245,350.7 250,348.6 255,346.6 260,344.6 265,342.8 270,341.2 275,339.9 280,338.8 285,337.9 290,337.3 295,337.1 300,337.1 305,337.5 310,338.1 315,339.1 320,340.3 325,341.7 330,343.4 335,345.2 340,347.2 345,349.2 350,351.4 355,353.5 360,355.7 365,357.8 370,359.7 375,361.5 380,363.1 385,364.6 390,365.7 395,366.6 400,367.2" fill="none" stroke="#64748b" stroke-width="2.4" opacity="0.13" />
    <polyline points="0,319.5 5,317.3 10,315.1 15,312.6 20,310.0 25,307.2 30,304.3 35,301.3 40,298.2 45,295.1 50,291.9 55,288.7 60,285.4 65,282.2 70,279.1 75,276.0 80,273.0 85,270.1 90,267.3 95,264.6 100,262.2 105,259.8 110,257.7 115,255.8 120,254.1 125,252.6 130,251.4 135,250.4 140,249.6 145,249.1 150,248.9 155,249.0 160,249.3 165,249.8 170,250.6 175,251.7 180,253.0 185,254.5 190,256.3 195,258.3 200,260.4 205,262.8 210,265.3 215,268.0 220,270.8 225,273.8 230,276.8 235,279.9 240,283.1 245,286.3 250,289.5 255,292.7 260,295.9 265,299.0 270,302.1 275,305.1 280,307.9 285,310.7 290,313.3 295,315.7 300,317.9 305,320.0 310,321.8 315,323.4 320,324.8 325,326.0 330,326.9 335,327.5 340,327.9 345,328.0 350,327.9 355,327.5 360,326.9 365,326.0 370,324.8 375,323.4 380,321.8 385,319.9 390,317.9 395,315.6 400,313.2" fill="none" stroke="#64748b" stroke-width="2.1" opacity="0.12" />
    <polyline points="0,71.0 5,69.2 10,68.0 15,67.3 20,67.2 25,67.7 30,68.8 35,70.3 40,72.5 45,75.0 50,78.1 55,81.5 60,85.3 65,89.3 70,93.5 75,97.8 80,102.2 85,106.6 90,110.9 95,115.0 100,118.8 105,122.4 110,125.5 115,128.3 120,130.6 125,132.3 130,133.5 135,134.2 140,134.3 145,133.8 150,132.8 155,131.2 160,129.1 165,126.5 170,123.4 175,120.0 180,116.2 185,112.2 190,108.0 195,103.7 200,99.3 205,94.9 210,90.6 215,86.5 220,82.7 225,79.2 230,76.0 235,73.2 240,71.0 245,69.2 250,68.0 255,67.3 260,67.2 265,67.7 270,68.8 275,70.4 280,72.5 285,75.1 290,78.2 295,81.6 300,85.3 305,89.4 310,93.6 315,97.9 320,102.3 325,106.7 330,111.0 335,115.0 340,118.9 345,122.4 350,125.6 355,128.3 360,130.6 365,132.4 370,133.6 375,134.2 380,134.3 385,133.8 390,132.8 395,131.1 400,129.0" fill="none" stroke="#fbbf24" stroke-width="1.5" opacity="0.21" />
    <polyline points="0,253.4 5,254.5 10,255.6 15,256.6 20,257.7 25,258.6 30,259.6 35,260.5 40,261.3 45,262.1 50,262.8 55,263.4 60,264.0 65,264.5 70,264.9 75,265.2 80,265.5 85,265.7 90,265.8 95,265.8 100,265.8 105,265.7 110,265.5 115,265.2 120,264.8 125,264.4 130,263.9 135,263.3 140,262.7 145,261.9 150,261.2 155,260.3 160,259.5 165,258.5 170,257.5 175,256.5 180,255.4 185,254.3 190,253.2 195,252.0 200,250.9 205,249.7 210,248.5 215,247.3 220,246.1 225,244.9 230,243.8 235,242.6 240,241.5 245,240.4 250,239.3 255,238.3 260,237.3 265,236.4 270,235.5 275,234.6 280,233.9 285,233.1 290,232.5 295,231.9 300,231.4 305,231.0 310,230.6 315,230.3 320,230.1 325,230.0 330,230.0 335,230.0 340,230.1 345,230.3 350,230.6 355,230.9 360,231.4 365,231.8 370,232.4 375,233.1 380,233.8 385,234.5 390,235.3 395,236.2 400,237.2" fill="none" stroke="#64748b" stroke-width="1.2" opacity="0.24" />
    <polyline points="0,362.2 5,361.9 10,361.4 15,360.9 20,360.1 25,359.3 30,358.3 35,357.2 40,356.0 45,354.7 50,353.3 55,351.8 60,350.3 65,348.7 70,347.1 75,345.4 80,343.8 85,342.2 90,340.5 95,339.0 100,337.4 105,335.9 110,334.6 115,333.2 120,332.0 125,330.9 130,330.0 135,329.1 140,328.4 145,327.8 150,327.4 155,327.1 160,326.9 165,327.0 170,327.1 175,327.5 180,327.9 185,328.6 190,329.3 195,330.2 200,331.2 205,332.4 210,333.6 215,334.9 220,336.3 225,337.8 230,339.4 235,341.0 240,342.6 245,344.2 250,345.9 255,347.5 260,349.1 265,350.7 270,352.2 275,353.7 280,355.1 285,356.3 290,357.5 295,358.6 300,359.5 305,360.4 310,361.0 315,361.6 320,362.0 325,362.2 330,362.3 335,362.2 340,362.0 345,361.7 350,361.2 355,360.5 360,359.7 365,358.8 370,357.7 375,356.6 380,355.3 385,353.9 390,352.5 395,351.0 400,349.4" fill="none" stroke="#fbbf24" stroke-width="1.9" opacity="0.28" /></g>
  <rect x="166.7" y="71.5" width="20.5" height="20.5" fill="#94a3b8" opacity="0.40" />
    <rect x="311.8" y="135.2" width="73.0" height="73.0" fill="#94a3b8" opacity="0.22" />
    <polygon points="231.5,-39.5 277.5,6.4 231.5,52.4 185.6,6.4" fill="#64748b" opacity="0.25" />
    <polygon points="161.5,505.9 185.0,529.4 161.5,552.9 138.0,529.4" fill="#64748b" opacity="0.21" />
    <polygon points="212.8,334.5 225.6,360.2 199.9,360.2" fill="#94a3b8" opacity="0.27" />
    <polygon points="195.8,244.0 220.8,293.8 170.9,293.8" fill="#94a3b8" opacity="0.40" />
    <circle cx="311.3" cy="367.3" r="20.3" fill="#64748b" opacity="0.10" />
    <polygon points="229.7,35.8 254.4,60.5 229.7,85.2 205.0,60.5" fill="#fbbf24" opacity="0.22" />
    <polygon points="307.2,171.3 346.8,210.8 307.2,250.3 267.7,210.8" fill="#64748b" opacity="0.35" />
    <polygon points="283.3,101.2 323.4,181.5 243.2,181.5" fill="#94a3b8" opacity="0.23" />
    <rect x="271.0" y="11.6" width="99.4" height="99.4" fill="#94a3b8" opacity="0.18" />
    <polygon points="206.7,404.8 229.2,449.9 184.2,449.9" fill="#94a3b8" opacity="0.15" />
    <circle cx="202.3" cy="447.6" r="45.3" fill="#94a3b8" opacity="0.16" />
    <polygon points="93.9,5.6 117.3,52.3 70.5,52.3" fill="#64748b" opacity="0.21" />
    <rect x="140.5" y="429.5" width="55.4" height="55.4" fill="#94a3b8" opacity="0.35" />
    <polygon points="247.2,155.5 284.9,193.2 247.2,230.8 209.6,193.2" fill="#fbbf24" opacity="0.13" />
    <polygon points="156.3,39.7 178.6,84.3 134.0,84.3" fill="#64748b" opacity="0.36" />
  
  <!-- Text background banner -->
  <defs>
    <linearGradient id="text-bg-19" x1="0%" y1="0%" x2="100%" y2="0%">
      <stop offset="0%" style="stop-color:#000000;stop-opacity:0.7" />
      <stop offset="50%" style="stop-color:#64748b;stop-opacity:0.4" />
      <stop offset="100%" style="stop-color:#000000;stop-opacity:0.7" />
    </linearGradient>
  </defs>
  <rect x="0" y="494" width="400" height="56" fill="url(#text-bg-19)" />

  <!-- Text shadow -->
  <text x="200" y="522" font-family="system-ui, -apple-system, sans-serif" font-size="24" font-weight="bold" text-anchor="middle" fill="#000000" opacity="0.8">Iron Dad Tony Stark</text>

  <!-- Main text -->
  <text x="200" y="520" font-family="system-ui, -apple-system, sans-serif" font-size="24" font-weight="bold" text-anchor="middle" fill="#ffffff">Iron Dad Tony Stark</text>
  
  <!-- Rarity border -->
  <rect x="6" y="6" width="388" height="538"
        fill="none" stroke="#f97316" stroke-width="12" rx="8" ry="8" />
</svg>