<?xml version="1.0" encoding="UTF-8"?>
<svg xmlns="http://www.w3.org/2000/svg" viewBox="0 0 400 550" width="400" height="550">
  <defs>
    <linearGradient id="bg-gradient-PREPPER_PENIS_001" x1="0%" y1="0%" x2="100%" y2="100%">
      <stop offset="0%" style="stop-color:#78716c;stop-opacity:0.26" />
      <stop offset="50%" style="stop-color:#a8a29e;stop-opacity:0.4" />
      <stop offset="100%" style="stop-color:#78716c;stop-opacity:0.26" />
    </linearGradient>
    
  <filter id="shadow-PREPPER_PENIS_001">
    <feDropShadow dx="0" dy="2" stdDeviation="3" flood-opacity="0.8"/>
  </filter>
  </defs>
  <rect width="400" height="550" fill="url(#bg-gradient-0.32530745840631425)" />
  <g opacity="0.3"><circle cx="4.4" cy="4.2" r="6" fill="#a8a29e" />
    <circle cx="9.9" cy="31.2" r="6" fill="#a8a29e" />
    <circle cx="8.0" cy="58.9" r="6" fill="#fbbf24" />
    <circle cx="0.4" cy="103.9" r="6" fill="#a8a29e" />
    <circle cx="3.9" cy="125.9" r="6" fill="#78716c" />
    <circle cx="4.2" cy="159.7" r="6" fill="#a8a29e" />
    <circle cx="6.1" cy="209.1" r="6" fill="#78716c" />
    <circle cx="2.6" cy="283.9" r="6" fill="#a8a29e" />
    <circle cx="5.2" cy="309.0" r="6" fill="#a8a29e" />
    <circle cx="1.7" cy="332.1" r="6" fill="#a8a29e" />
    <circle cx="6.7" cy="358.0" r="6" fill="#a8a29e" />
    <circle cx="0.2" cy="384.9" r="6" fill="#fbbf24" />
    <circle cx="9.8" cy="431.8" r="6" fill="#fbbf24" />
    <circle cx="6.2" cy="455.5" r="6" fill="#78716c" />
    <circle cx="5.7" cy="483.5" r="6" fill="#78716c" />
    <circle cx="4.0" cy="502.2" r="6" fill="#78716c" />
    <circle cx="3.8" cy="529.6" r="6" fill="#a8a29e" />
    <circle cx="31.9" cy="9.9" r="6" fill="#78716c" />
    <circle cx="29.0" cy="53.2" r="6" fill="#78716c" />
    <circle cx="30.4" cy="79.4" r="6" fill="#a8a29e" />
    <circle cx="30.9" cy="127.5" r="6" fill="#a8a29e" />
    <circle cx="34.6" cy="158.6" r="6" fill="#a8a29e" />
    <circle cx="26.7" cy="175.7" r="6" fill="#fbbf24" />
    <circle cx="34.3" cy="208.9" r="6" fill="#78716c" />
    <circle cx="33.6" cy="277.9" r="6" fill="#a8a29e" />
    <circle cx="31.1" cy="301.6" r="6" fill="#fbbf24" />
    <circle cx="32.4" cy="326.7" r="6" fill="#fbbf24" />
    <circle cx="29.8" cy="356.3" r="6" fill="#a8a29e" />
    <circle cx="33.6" cy="377.8" r="6" fill="#fbbf24" />
    <circle cx="31.6" cy="433.4" r="6" fill="#fbbf24" />
    <circle cx="28.9" cy="503.7" r="6" fill="#a8a29e" />
    <circle cx="33.8" cy="529.0" r="6" fill="#a8a29e" />
    <circle cx="56.1" cy="33.4" r="6" fill="#a8a29e" />
    <circle cx="59.1" cy="55.4" r="6" fill="#a8a29e" />
    <circle cx="52.3" cy="76.2" r="6" fill="#78716c" />
    <circle cx="57.8" cy="106.1" r="6" fill="#a8a29e" />
    <circle cx="59.3" cy="133.2" r="6" fill="#fbbf24" />
    <circle cx="57.3" cy="153.8" r="6" fill="#fbbf24" />
    <circle cx="55.6" cy="178.2" r="6" fill="#a8a29e" />
    <circle cx="56.6" cy="201.3" r="6" fill="#a8a29e" />
    <circle cx="54.1" cy="229.6" r="6" fill="#fbbf24" />
    <circle cx="55.8" cy="256.7" r="6" fill="#a8a29e" />
    <circle cx="56.0" cy="304.6" r="6" fill="#fbbf24" />
    <circle cx="55.2" cy="357.6" r="6" fill="#78716c" />
    <circle cx="52.9" cy="410.0" r="6" fill="#a8a29e" />
    <circle cx="53.3" cy="425.9" r="6" fill="#fbbf24" />
    <circle cx="52.3" cy="452.2" r="6" fill="#78716c" />
    <circle cx="58.0" cy="503.3" r="6" fill="#a8a29e" />
    <circle cx="80.5" cy="2.3" r="6" fill="#fbbf24" />
    <circle cx="84.6" cy="54.7" r="6" fill="#fbbf24" />
    <circle cx="76.2" cy="77.0" r="6" fill="#78716c" />
    <circle cx="83.2" cy="109.0" r="6" fill="#fbbf24" />
    <circle cx="78.3" cy="133.8" r="6" fill="#a8a29e" />
    <circle cx="77.6" cy="205.6" r="6" fill="#a8a29e" />
    <circle cx="80.1" cy="251.6" r="6" fill="#78716c" />
    <circle cx="78.1" cy="280.3" r="6" fill="#78716c" />
    <circle cx="83.3" cy="325.9" r="6" fill="#a8a29e" />
    <circle cx="82.3" cy="352.6" r="6" fill="#a8a29e" />
    <circle cx="75.2" cy="384.6" r="6" fill="#fbbf24" />
    <circle cx="83.0" cy="434.6" r="6" fill="#fbbf24" />
    <circle cx="76.4" cy="456.0" r="6" fill="#78716c" />
    <circle cx="79.7" cy="478.6" r="6" fill="#a8a29e" />
    <circle cx="77.4" cy="506.0" r="6" fill="#fbbf24" />
    <circle cx="80.2" cy="531.8" r="6" fill="#a8a29e" />
    <circle cx="100.6" cy="2.0" r="6" fill="#fbbf24" />
    <circle cx="102.9" cy="53.0" r="6" fill="#78716c" />
    <circle cx="103.7" cy="78.6" r="6" fill="#a8a29e" />
    <circle cx="104.3" cy="134.8" r="6" fill="#fbbf24" />
    <circle cx="102.9" cy="208.7" r="6" fill="#fbbf24" />
    <circle cx="107.0" cy="252.7" r="6" fill="#78716c" />
    <circle cx="108.0" cy="278.8" r="6" fill="#fbbf24" />
    <circle cx="104.4" cy="303.8" r="6" fill="#a8a29e" />
    <circle cx="104.1" cy="327.0" r="6" fill="#a8a29e" />
    <circle cx="106.3" cy="359.0" r="6" fill="#a8a29e" />
    <circle cx="109.9" cy="408.6" r="6" fill="#fbbf24" />
    <circle cx="100.7" cy="429.1" r="6" fill="#fbbf24" />
    <circle cx="103.5" cy="457.7" r="6" fill="#fbbf24" />
    <circle cx="107.6" cy="478.8" r="6" fill="#fbbf24" />
    <circle cx="106.7" cy="502.0" r="6" fill="#a8a29e" />
    <circle cx="107.2" cy="528.1" r="6" fill="#a8a29e" />
    <circle cx="128.6" cy="29.9" r="6" fill="#78716c" />
    <circle cx="126.2" cy="54.5" r="6" fill="#a8a29e" />
    <circle cx="126.3" cy="80.7" r="6" fill="#78716c" />
    <circle cx="128.6" cy="126.9" r="6" fill="#fbbf24" />
    <circle cx="126.3" cy="151.4" r="6" fill="#fbbf24" />
    <circle cx="129.5" cy="175.4" r="6" fill="#a8a29e" />
    <circle cx="126.7" cy="204.4" r="6" fill="#fbbf24" />
    <circle cx="126.6" cy="257.7" r="6" fill="#a8a29e" />
    <circle cx="126.2" cy="275.7" r="6" fill="#a8a29e" />
    <circle cx="131.2" cy="300.9" r="6" fill="#a8a29e" />
    <circle cx="127.3" cy="329.6" r="6" fill="#a8a29e" />
    <circle cx="134.4" cy="383.4" r="6" fill="#a8a29e" />
    <circle cx="125.7" cy="425.0" r="6" fill="#fbbf24" />
    <circle cx="127.1" cy="458.4" r="6" fill="#a8a29e" />
    <circle cx="132.3" cy="477.2" r="6" fill="#a8a29e" />
    <circle cx="155.2" cy="7.3" r="6" fill="#fbbf24" />
    <circle cx="153.8" cy="30.6" r="6" fill="#fbbf24" />
    <circle cx="150.5" cy="82.3" r="6" fill="#78716c" />
    <circle cx="158.2" cy="183.9" r="6" fill="#fbbf24" />
    <circle cx="156.2" cy="207.1" r="6" fill="#78716c" />
    <circle cx="151.1" cy="231.2" r="6" fill="#fbbf24" />
    <circle cx="154.9" cy="277.6" r="6" fill="#a8a29e" />
    <circle cx="151.5" cy="330.6" r="6" fill="#fbbf24" />
    <circle cx="155.7" cy="358.3" r="6" fill="#a8a29e" />
    <circle cx="155.8" cy="384.2" r="6" fill="#fbbf24" />
    <circle cx="157.4" cy="405.9" r="6" fill="#78716c" />
    <circle cx="153.0" cy="428.6" r="6" fill="#fbbf24" />
    <circle cx="159.4" cy="455.8" r="6" fill="#78716c" />
    <circle cx="151.8" cy="481.0" r="6" fill="#78716c" />
    <circle cx="152.0" cy="531.5" r="6" fill="#78716c" />
    <circle cx="179.3" cy="2.9" r="6" fill="#78716c" />
    <circle cx="175.0" cy="31.6" r="6" fill="#a8a29e" />
    <circle cx="179.4" cy="81.0" r="6" fill="#a8a29e" />
    <circle cx="175.3" cy="132.2" r="6" fill="#a8a29e" />
    <circle cx="179.9" cy="181.6" r="6" fill="#a8a29e" />
    <circle cx="176.5" cy="201.4" r="6" fill="#a8a29e" />
    <circle cx="181.0" cy="258.6" r="6" fill="#78716c" />
    <circle cx="176.5" cy="276.4" r="6" fill="#78716c" />
    <circle cx="177.0" cy="308.7" r="6" fill="#fbbf24" />
    <circle cx="175.1" cy="329.1" r="6" fill="#a8a29e" />
    <circle cx="175.3" cy="358.8" r="6" fill="#fbbf24" />
    <circle cx="184.9" cy="378.3" r="6" fill="#a8a29e" />
    <circle cx="177.3" cy="406.0" r="6" fill="#a8a29e" />
    <circle cx="177.0" cy="427.6" r="6" fill="#fbbf24" />
    <circle cx="200.3" cy="7.2" r="6" fill="#fbbf24" />
    <circle cx="200.2" cy="32.8" r="6" fill="#fbbf24" />
    <circle cx="203.5" cy="57.1" r="6" fill="#78716c" />
    <circle cx="208.7" cy="78.3" r="6" fill="#a8a29e" />
    <circle cx="201.6" cy="109.4" r="6" fill="#a8a29e" />
    <circle cx="202.7" cy="126.1" r="6" fill="#a8a29e" />
    <circle cx="204.1" cy="159.0" r="6" fill="#a8a29e" />
    <circle cx="208.1" cy="200.6" r="6" fill="#fbbf24" />
    <circle cx="202.7" cy="233.9" r="6" fill="#fbbf24" />
    <circle cx="202.8" cy="255.2" r="6" fill="#78716c" />
    <circle cx="206.7" cy="301.2" r="6" fill="#a8a29e" />
    <circle cx="204.5" cy="332.6" r="6" fill="#fbbf24" />
    <circle cx="206.7" cy="357.3" r="6" fill="#78716c" />
    <circle cx="200.8" cy="375.9" r="6" fill="#fbbf24" />
    <circle cx="200.1" cy="410.0" r="6" fill="#a8a29e" />
    <circle cx="208.0" cy="459.5" r="6" fill="#fbbf24" />
    <circle cx="201.0" cy="529.7" r="6" fill="#a8a29e" />
    <circle cx="229.1" cy="34.3" r="6" fill="#a8a29e" />
    <circle cx="225.0" cy="84.7" r="6" fill="#78716c" />
    <circle cx="228.5" cy="103.9" r="6" fill="#78716c" />
    <circle cx="230.0" cy="159.8" r="6" fill="#a8a29e" />
    <circle cx="226.6" cy="203.4" r="6" fill="#fbbf24" />
    <circle cx="234.8" cy="227.7" r="6" fill="#a8a29e" />
    <circle cx="228.9" cy="255.7" r="6" fill="#fbbf24" />
    <circle cx="228.1" cy="276.1" r="6" fill="#a8a29e" />
    <circle cx="225.4" cy="302.6" r="6" fill="#78716c" />
    <circle cx="230.9" cy="328.8" r="6" fill="#78716c" />
    <circle cx="233.2" cy="352.4" r="6" fill="#fbbf24" />
    <circle cx="234.5" cy="378.6" r="6" fill="#78716c" />
    <circle cx="232.4" cy="401.4" r="6" fill="#78716c" />
    <circle cx="229.6" cy="434.0" r="6" fill="#78716c" />
    <circle cx="231.0" cy="455.4" r="6" fill="#fbbf24" />
    <circle cx="225.7" cy="508.0" r="6" fill="#78716c" />
    <circle cx="252.5" cy="2.6" r="6" fill="#78716c" />
    <circle cx="256.6" cy="34.6" r="6" fill="#a8a29e" />
    <circle cx="257.9" cy="79.9" r="6" fill="#a8a29e" />
    <circle cx="255.0" cy="101.1" r="6" fill="#78716c" />
    <circle cx="255.0" cy="134.6" r="6" fill="#a8a29e" />
    <circle cx="252.2" cy="156.8" r="6" fill="#fbbf24" />
    <circle cx="252.4" cy="177.4" r="6" fill="#a8a29e" />
    <circle cx="250.3" cy="207.3" r="6" fill="#a8a29e" />
    <circle cx="251.6" cy="233.1" r="6" fill="#78716c" />
    <circle cx="258.2" cy="283.7" r="6" fill="#fbbf24" />
    <circle cx="258.8" cy="300.5" r="6" fill="#78716c" />
    <circle cx="253.9" cy="384.3" r="6" fill="#fbbf24" />
    <circle cx="254.0" cy="400.5" r="6" fill="#fbbf24" />
    <circle cx="258.3" cy="432.1" r="6" fill="#a8a29e" />
    <circle cx="253.4" cy="453.8" r="6" fill="#78716c" />
    <circle cx="255.6" cy="502.1" r="6" fill="#fbbf24" />
    <circle cx="253.7" cy="525.3" r="6" fill="#78716c" />
    <circle cx="275.7" cy="2.4" r="6" fill="#a8a29e" />
    <circle cx="282.4" cy="25.9" r="6" fill="#a8a29e" />
    <circle cx="275.6" cy="150.6" r="6" fill="#a8a29e" />
    <circle cx="279.5" cy="184.6" r="6" fill="#78716c" />
    <circle cx="278.9" cy="258.8" r="6" fill="#78716c" />
    <circle cx="284.9" cy="276.8" r="6" fill="#78716c" />
    <circle cx="279.9" cy="303.3" r="6" fill="#78716c" />
    <circle cx="278.3" cy="333.5" r="6" fill="#78716c" />
    <circle cx="284.7" cy="350.1" r="6" fill="#fbbf24" />
    <circle cx="277.1" cy="377.8" r="6" fill="#a8a29e" />
    <circle cx="281.0" cy="409.9" r="6" fill="#78716c" />
    <circle cx="278.8" cy="457.7" r="6" fill="#78716c" />
    <circle cx="278.2" cy="478.5" r="6" fill="#78716c" />
    <circle cx="283.6" cy="509.6" r="6" fill="#fbbf24" />
    <circle cx="280.5" cy="531.7" r="6" fill="#78716c" />
    <circle cx="300.2" cy="2.7" r="6" fill="#78716c" />
    <circle cx="302.8" cy="126.2" r="6" fill="#fbbf24" />
    <circle cx="301.0" cy="157.3" r="6" fill="#fbbf24" />
    <circle cx="308.0" cy="182.8" r="6" fill="#a8a29e" />
    <circle cx="304.8" cy="204.7" r="6" fill="#fbbf24" />
    <circle cx="301.1" cy="231.7" r="6" fill="#a8a29e" />
    <circle cx="302.6" cy="325.8" r="6" fill="#fbbf24" />
    <circle cx="305.2" cy="351.0" r="6" fill="#fbbf24" />
    <circle cx="301.9" cy="452.1" r="6" fill="#78716c" />
    <circle cx="300.1" cy="477.5" r="6" fill="#78716c" />
    <circle cx="331.5" cy="6.0" r="6" fill="#a8a29e" />
    <circle cx="330.1" cy="33.2" r="6" fill="#78716c" />
    <circle cx="325.0" cy="78.5" r="6" fill="#a8a29e" />
    <circle cx="331.2" cy="131.7" r="6" fill="#78716c" />
    <circle cx="329.5" cy="151.0" r="6" fill="#fbbf24" />
    <circle cx="334.7" cy="184.8" r="6" fill="#fbbf24" />
    <circle cx="334.5" cy="201.1" r="6" fill="#78716c" />
    <circle cx="325.7" cy="227.0" r="6" fill="#a8a29e" />
    <circle cx="326.5" cy="275.2" r="6" fill="#78716c" />
    <circle cx="334.8" cy="300.5" r="6" fill="#fbbf24" />
    <circle cx="334.1" cy="325.4" r="6" fill="#a8a29e" />
    <circle cx="328.6" cy="356.2" r="6" fill="#a8a29e" />
    <circle cx="333.4" cy="377.9" r="6" fill="#78716c" />
    <circle cx="331.1" cy="407.6" r="6" fill="#a8a29e" />
    <circle cx="331.2" cy="426.8" r="6" fill="#fbbf24" />
    <circle cx="327.8" cy="459.8" r="6" fill="#a8a29e" />
    <circle cx="333.9" cy="509.1" r="6" fill="#a8a29e" />
    <circle cx="328.1" cy="529.5" r="6" fill="#78716c" />
    <circle cx="357.9" cy="7.5" r="6" fill="#fbbf24" />
    <circle cx="355.7" cy="54.1" r="6" fill="#78716c" />
    <circle cx="356.0" cy="80.3" r="6" fill="#a8a29e" />
    <circle cx="357.8" cy="107.8" r="6" fill="#78716c" />
    <circle cx="352.8" cy="157.5" r="6" fill="#fbbf24" />
    <circle cx="359.7" cy="175.1" r="6" fill="#78716c" />
    <circle cx="352.8" cy="209.6" r="6" fill="#fbbf24" />
    <circle cx="351.5" cy="231.8" r="6" fill="#78716c" />
    <circle cx="359.9" cy="250.6" r="6" fill="#78716c" />
    <circle cx="354.1" cy="283.2" r="6" fill="#a8a29e" />
    <circle cx="355.4" cy="301.2" r="6" fill="#a8a29e" />
    <circle cx="352.2" cy="329.3" r="6" fill="#fbbf24" />
    <circle cx="354.9" cy="355.2" r="6" fill="#fbbf24" />
    <circle cx="356.3" cy="380.9" r="6" fill="#78716c" />
    <circle cx="355.9" cy="408.2" r="6" fill="#a8a29e" />
    <circle cx="356.6" cy="425.8" r="6" fill="#a8a29e" />
    <circle cx="356.5" cy="453.5" r="6" fill="#78716c" />
    <circle cx="358.4" cy="476.5" r="6" fill="#78716c" />
    <circle cx="379.3" cy="27.6" r="6" fill="#fbbf24" />
    <circle cx="383.5" cy="56.6" r="6" fill="#a8a29e" />
    <circle cx="377.2" cy="80.5" r="6" fill="#a8a29e" />
    <circle cx="382.2" cy="103.3" r="6" fill="#fbbf24" />
    <circle cx="377.1" cy="127.7" r="6" fill="#78716c" />
    <circle cx="376.3" cy="205.1" r="6" fill="#a8a29e" />
    <circle cx="384.7" cy="228.7" r="6" fill="#a8a29e" />
    <circle cx="376.2" cy="258.2" r="6" fill="#fbbf24" />
    <circle cx="375.1" cy="308.9" r="6" fill="#a8a29e" />
    <circle cx="382.6" cy="328.0" r="6" fill="#a8a29e" />
    <circle cx="377.1" cy="352.9" r="6" fill="#fbbf24" />
    <circle cx="376.9" cy="376.4" r="6" fill="#fbbf24" />
    <circle cx="381.5" cy="410.0" r="6" fill="#a8a29e" />
    <circle cx="380.4" cy="429.3" r="6" fill="#fbbf24" />
    <circle cx="384.2" cy="509.9" r="6" fill="#a8a29e" /></g>
  <polygon points="397.2,215.7 435.2,253.7 397.2,291.7 359.3,253.7" fill="#a8a29e" opacity="0.28" />
    <polygon points="62.6,101.5 89.3,128.2 62.6,154.9 36.0,128.2" fill="#a8a29e" opacity="0.30" />
    <rect x="71.8" y="107.5" width="68.6" height="68.6" fill="#fbbf24" opacity="0.14" />
    <rect x="59.9" y="458.8" width="96.3" height="96.3" fill="#fbbf24" opacity="0.34" />
    <circle cx="388.7" cy="215.1" r="31.9" fill="#fbbf24" opacity="0.18" />
    <circle cx="179.6" cy="102.1" r="34.4" fill="#78716c" opacity="0.40" />
    <polygon points="280.3,-8.3 313.4,57.9 247.2,57.9" fill="#78716c" opacity="0.34" />
    <rect x="197.0" y="-31.4" width="80.6" height="80.6" fill="#a8a29e" opacity="0.30" />
    <rect x="-37.2" y="211.7" width="86.2" height="86.2" fill="#a8a29e" opacity="0.26" />
    <rect x="92.0" y="94.0" width="53.7" height="53.7" fill="#fbbf24" opacity="0.22" />
    <rect x="145.7" y="194.6" width="35.7" height="35.7" fill="#fbbf24" opacity="0.33" />
  
  <!-- Text background banner -->
  <defs>
    <linearGradient id="text-bg-19" x1="0%" y1="0%" x2="100%" y2="0%">
      <stop offset="0%" style="stop-color:#000000;stop-opacity:0.7" />
      <stop offset="50%" style="stop-color:#78716c;stop-opacity:0.4" />
      <stop offset="100%" style="stop-color:#000000;stop-opacity:0.7" />
    </linearGradient>
  </defs>
  <rect x="0" y="494" width="400" height="56" fill="url(#text-bg-19)" />

  <!-- Text shadow -->
  <text x="200" y="522" font-family="system-ui, -apple-system, sans-serif" font-size="24" font-weight="bold" text-anchor="middle" fill="#000000" opacity="0.8">Bunker Boner-Bunker</text>

  <!-- Main text -->
  <text x="200" y="520" font-family="system-ui, -apple-system, sans-serif" font-size="24" font-weight="bold" text-anchor="middle" fill="#ffffff">Bunker Boner-Bunker</text>
  
  <!-- Rarity border -->
  <rect x="4" y="4" width="392" height="542"
        fill="none" stroke="#eab308" stroke-width="8" rx="8" ry="8" />
</svg>