<?xml version="1.0" encoding="UTF-8"?>
<svg xmlns="http://www.w3.org/2000/svg" viewBox="0 0 400 550" width="400" height="550">
  <defs>
    <linearGradient id="bg-gradient-SON_SPAWN_001" x1="0%" y1="0%" x2="100%" y2="100%">
      <stop offset="0%" style="stop-color:#64748b;stop-opacity:0.26" />
      <stop offset="50%" style="stop-color:#94a3b8;stop-opacity:0.4" />
      <stop offset="100%" style="stop-color:#64748b;stop-opacity:0.26" />
    </linearGradient>
    
  <filter id="shadow-SON_SPAWN_001">
    <feDropShadow dx="0" dy="2" stdDeviation="3" flood-opacity="0.8"/>
  </filter>
  </defs>
  <rect width="400" height="550" fill="url(#bg-gradient-0.8602122855372727)" />
  <g opacity="0.3"><line x1="0" y1="282.5" x2="400" y2="282.5" stroke="#94a3b8" stroke-width="1.3" opacity="0.30" />
    <line x1="0" y1="125.1" x2="400" y2="125.1" stroke="#64748b" stroke-width="1.6" opacity="0.32" />
    <line x1="338.0" y1="0" x2="338.0" y2="550" stroke="#fbbf24" stroke-width="3.7" opacity="0.13" />
    <line x1="9.2" y1="0" x2="9.2" y2="550" stroke="#64748b" stroke-width="3.7" opacity="0.23" />
    <line x1="17.4" y1="0" x2="17.4" y2="550" stroke="#fbbf24" stroke-width="3.1" opacity="0.34" />
    <line x1="180.0" y1="0" x2="180.0" y2="550" stroke="#fbbf24" stroke-width="1.3" opacity="0.39" />
    <line x1="0" y1="93.6" x2="400" y2="93.6" stroke="#fbbf24" stroke-width="3.8" opacity="0.16" />
    <line x1="171.8" y1="0" x2="171.8" y2="550" stroke="#64748b" stroke-width="2.5" opacity="0.12" />
    <line x1="0" y1="517.8" x2="400" y2="517.8" stroke="#fbbf24" stroke-width="3.4" opacity="0.26" />
    <line x1="0" y1="436.7" x2="400" y2="436.7" stroke="#94a3b8" stroke-width="3.7" opacity="0.22" />
    <line x1="0" y1="382.1" x2="400" y2="382.1" stroke="#64748b" stroke-width="1.3" opacity="0.34" />
    <line x1="355.3" y1="0" x2="355.3" y2="550" stroke="#94a3b8" stroke-width="1.6" opacity="0.27" />
    <line x1="0" y1="433.8" x2="400" y2="433.8" stroke="#64748b" stroke-width="2.7" opacity="0.37" />
    <line x1="200.7" y1="0" x2="200.7" y2="550" stroke="#94a3b8" stroke-width="2.6" opacity="0.25" />
    <line x1="0" y1="40.4" x2="400" y2="40.4" stroke="#94a3b8" stroke-width="3.4" opacity="0.29" />
    <line x1="319.1" y1="0" x2="319.1" y2="550" stroke="#fbbf24" stroke-width="3.6" opacity="0.32" />
    <line x1="310.1" y1="0" x2="310.1" y2="550" stroke="#64748b" stroke-width="2.5" opacity="0.34" />
    <line x1="165.3" y1="0" x2="165.3" y2="550" stroke="#94a3b8" stroke-width="2.7" opacity="0.10" />
    <line x1="53.9" y1="0" x2="53.9" y2="550" stroke="#64748b" stroke-width="2.3" opacity="0.20" />
    <line x1="342.5" y1="0" x2="342.5" y2="550" stroke="#64748b" stroke-width="1.3" opacity="0.36" /></g>
  <polygon points="113.2,457.5 131.4,493.9 95.0,493.9" fill="#94a3b8" opacity="0.12" />
    <polygon points="298.8,131.6 337.6,209.2 260.0,209.2" fill="#64748b" opacity="0.33" />
    <polygon points="146.2,233.0 188.3,275.0 146.2,317.1 104.2,275.0" fill="#fbbf24" opacity="0.34" />
    <circle cx="231.0" cy="77.5" r="35.6" fill="#64748b" opacity="0.14" />
    <polygon points="393.3,358.9 405.4,383.1 381.1,383.1" fill="#fbbf24" opacity="0.30" />
    <polygon points="129.3,402.5 144.7,433.2 114.0,433.2" fill="#64748b" opacity="0.29" />
    <polygon points="353.2,313.6 370.1,330.5 353.2,347.4 336.3,330.5" fill="#94a3b8" opacity="0.13" />
    <polygon points="376.5,458.2 398.7,502.7 354.3,502.7" fill="#fbbf24" opacity="0.17" />
    <polygon points="45.0,62.2 59.0,90.3 31.0,90.3" fill="#64748b" opacity="0.29" />
    <polygon points="67.5,185.0 115.2,232.7 67.5,280.4 19.8,232.7" fill="#94a3b8" opacity="0.23" />
    <circle cx="3.1" cy="95.8" r="30.4" fill="#64748b" opacity="0.19" />
  
  <!-- Text background banner -->
  <defs>
    <linearGradient id="text-bg-18" x1="0%" y1="0%" x2="100%" y2="0%">
      <stop offset="0%" style="stop-color:#000000;stop-opacity:0.7" />
      <stop offset="50%" style="stop-color:#64748b;stop-opacity:0.4" />
      <stop offset="100%" style="stop-color:#000000;stop-opacity:0.7" />
    </linearGradient>
  </defs>
  <rect x="0" y="494" width="400" height="56" fill="url(#text-bg-18)" />

  <!-- Text shadow -->
  <text x="200" y="522" font-family="system-ui, -apple-system, sans-serif" font-size="24" font-weight="bold" text-anchor="middle" fill="#000000" opacity="0.8">Skater Spawn Shawn</text>

  <!-- Main text -->
  <text x="200" y="520" font-family="system-ui, -apple-system, sans-serif" font-size="24" font-weight="bold" text-anchor="middle" fill="#ffffff">Skater Spawn Shawn</text>
  
  <!-- Rarity border -->
  <rect x="4" y="4" width="392" height="542"
        fill="none" stroke="#eab308" stroke-width="8" rx="8" ry="8" />
</svg>