<?xml version="1.0" encoding="UTF-8"?>
<svg xmlns="http://www.w3.org/2000/svg" viewBox="0 0 400 550" width="400" height="550">
  <defs>
    <linearGradient id="bg-gradient-SUBURBAN_SPY_001" x1="0%" y1="0%" x2="100%" y2="100%">
      <stop offset="0%" style="stop-color:#64748b;stop-opacity:0.26" />
      <stop offset="50%" style="stop-color:#94a3b8;stop-opacity:0.4" />
      <stop offset="100%" style="stop-color:#64748b;stop-opacity:0.26" />
    </linearGradient>
    
  <filter id="shadow-SUBURBAN_SPY_001">
    <feDropShadow dx="0" dy="2" stdDeviation="3" flood-opacity="0.8"/>
  </filter>
  </defs>
  <rect width="400" height="550" fill="url(#bg-gradient-0.6838340100366622)" />
  <g opacity="0.3"><circle cx="7.5" cy="4.8" r="6" fill="#94a3b8" />
    <circle cx="1.6" cy="31.7" r="6" fill="#64748b" />
    <circle cx="0.8" cy="100.5" r="6" fill="#fbbf24" />
    <circle cx="5.8" cy="127.0" r="6" fill="#fbbf24" />
    <circle cx="2.4" cy="151.6" r="6" fill="#94a3b8" />
    <circle cx="7.8" cy="181.9" r="6" fill="#94a3b8" />
    <circle cx="4.1" cy="200.9" r="6" fill="#fbbf24" />
    <circle cx="3.4" cy="234.7" r="6" fill="#64748b" />
    <circle cx="3.0" cy="253.5" r="6" fill="#64748b" />
    <circle cx="9.6" cy="278.6" r="6" fill="#fbbf24" />
    <circle cx="9.6" cy="330.3" r="6" fill="#fbbf24" />
    <circle cx="8.0" cy="351.2" r="6" fill="#64748b" />
    <circle cx="5.6" cy="375.4" r="6" fill="#64748b" />
    <circle cx="4.6" cy="402.2" r="6" fill="#64748b" />
    <circle cx="7.8" cy="430.5" r="6" fill="#64748b" />
    <circle cx="5.8" cy="453.4" r="6" fill="#fbbf24" />
    <circle cx="4.8" cy="485.0" r="6" fill="#94a3b8" />
    <circle cx="6.1" cy="533.1" r="6" fill="#fbbf24" />
    <circle cx="34.4" cy="4.6" r="6" fill="#64748b" />
    <circle cx="31.2" cy="32.5" r="6" fill="#fbbf24" />
    <circle cx="30.0" cy="52.7" r="6" fill="#94a3b8" />
    <circle cx="30.0" cy="78.9" r="6" fill="#fbbf24" />
    <circle cx="33.2" cy="104.7" r="6" fill="#94a3b8" />
    <circle cx="28.7" cy="127.4" r="6" fill="#fbbf24" />
    <circle cx="33.6" cy="158.0" r="6" fill="#fbbf24" />
    <circle cx="32.1" cy="183.3" r="6" fill="#64748b" />
    <circle cx="28.7" cy="200.5" r="6" fill="#94a3b8" />
    <circle cx="32.2" cy="279.5" r="6" fill="#94a3b8" />
    <circle cx="32.5" cy="358.5" r="6" fill="#94a3b8" />
    <circle cx="29.2" cy="381.3" r="6" fill="#94a3b8" />
    <circle cx="26.4" cy="404.0" r="6" fill="#64748b" />
    <circle cx="26.5" cy="426.8" r="6" fill="#64748b" />
    <circle cx="28.4" cy="456.9" r="6" fill="#64748b" />
    <circle cx="31.4" cy="484.2" r="6" fill="#fbbf24" />
    <circle cx="29.0" cy="507.2" r="6" fill="#fbbf24" />
    <circle cx="26.0" cy="525.0" r="6" fill="#94a3b8" />
    <circle cx="50.2" cy="27.6" r="6" fill="#94a3b8" />
    <circle cx="52.2" cy="52.6" r="6" fill="#fbbf24" />
    <circle cx="51.5" cy="82.9" r="6" fill="#94a3b8" />
    <circle cx="59.7" cy="109.8" r="6" fill="#fbbf24" />
    <circle cx="57.6" cy="128.3" r="6" fill="#64748b" />
    <circle cx="53.4" cy="158.8" r="6" fill="#fbbf24" />
    <circle cx="55.1" cy="208.6" r="6" fill="#64748b" />
    <circle cx="54.4" cy="233.2" r="6" fill="#64748b" />
    <circle cx="54.7" cy="255.2" r="6" fill="#fbbf24" />
    <circle cx="56.9" cy="276.1" r="6" fill="#fbbf24" />
    <circle cx="59.1" cy="301.8" r="6" fill="#94a3b8" />
    <circle cx="54.1" cy="400.9" r="6" fill="#64748b" />
    <circle cx="59.4" cy="428.7" r="6" fill="#fbbf24" />
    <circle cx="56.3" cy="476.4" r="6" fill="#94a3b8" />
    <circle cx="52.5" cy="500.6" r="6" fill="#94a3b8" />
    <circle cx="59.8" cy="533.7" r="6" fill="#64748b" />
    <circle cx="84.4" cy="4.6" r="6" fill="#94a3b8" />
    <circle cx="84.7" cy="25.9" r="6" fill="#64748b" />
    <circle cx="77.4" cy="110.0" r="6" fill="#64748b" />
    <circle cx="80.7" cy="125.6" r="6" fill="#94a3b8" />
    <circle cx="82.0" cy="156.2" r="6" fill="#fbbf24" />
    <circle cx="82.5" cy="184.3" r="6" fill="#fbbf24" />
    <circle cx="82.3" cy="233.8" r="6" fill="#fbbf24" />
    <circle cx="82.4" cy="278.8" r="6" fill="#fbbf24" />
    <circle cx="77.8" cy="302.1" r="6" fill="#94a3b8" />
    <circle cx="78.7" cy="350.4" r="6" fill="#fbbf24" />
    <circle cx="81.0" cy="378.7" r="6" fill="#fbbf24" />
    <circle cx="83.3" cy="403.1" r="6" fill="#64748b" />
    <circle cx="84.3" cy="425.2" r="6" fill="#94a3b8" />
    <circle cx="83.6" cy="529.0" r="6" fill="#94a3b8" />
    <circle cx="108.2" cy="3.9" r="6" fill="#64748b" />
    <circle cx="104.2" cy="30.6" r="6" fill="#94a3b8" />
    <circle cx="107.2" cy="52.6" r="6" fill="#64748b" />
    <circle cx="100.7" cy="78.7" r="6" fill="#fbbf24" />
    <circle cx="104.8" cy="100.2" r="6" fill="#64748b" />
    <circle cx="106.6" cy="155.6" r="6" fill="#fbbf24" />
    <circle cx="107.2" cy="177.3" r="6" fill="#64748b" />
    <circle cx="106.2" cy="201.3" r="6" fill="#94a3b8" />
    <circle cx="103.7" cy="228.2" r="6" fill="#94a3b8" />
    <circle cx="109.2" cy="250.9" r="6" fill="#94a3b8" />
    <circle cx="101.2" cy="276.7" r="6" fill="#64748b" />
    <circle cx="100.3" cy="308.0" r="6" fill="#94a3b8" />
    <circle cx="100.3" cy="325.9" r="6" fill="#94a3b8" />
    <circle cx="108.8" cy="352.7" r="6" fill="#64748b" />
    <circle cx="100.1" cy="375.1" r="6" fill="#94a3b8" />
    <circle cx="105.9" cy="405.1" r="6" fill="#94a3b8" />
    <circle cx="109.6" cy="453.5" r="6" fill="#94a3b8" />
    <circle cx="101.9" cy="476.9" r="6" fill="#94a3b8" />
    <circle cx="100.3" cy="500.7" r="6" fill="#64748b" />
    <circle cx="103.2" cy="533.8" r="6" fill="#94a3b8" />
    <circle cx="127.5" cy="0.8" r="6" fill="#94a3b8" />
    <circle cx="128.7" cy="56.3" r="6" fill="#fbbf24" />
    <circle cx="129.9" cy="107.9" r="6" fill="#64748b" />
    <circle cx="129.5" cy="154.4" r="6" fill="#94a3b8" />
    <circle cx="129.8" cy="177.7" r="6" fill="#fbbf24" />
    <circle cx="132.5" cy="206.1" r="6" fill="#64748b" />
    <circle cx="133.8" cy="229.1" r="6" fill="#fbbf24" />
    <circle cx="133.6" cy="252.2" r="6" fill="#64748b" />
    <circle cx="125.8" cy="280.8" r="6" fill="#94a3b8" />
    <circle cx="126.5" cy="352.9" r="6" fill="#94a3b8" />
    <circle cx="126.5" cy="384.9" r="6" fill="#64748b" />
    <circle cx="130.4" cy="406.5" r="6" fill="#94a3b8" />
    <circle cx="134.0" cy="429.0" r="6" fill="#64748b" />
    <circle cx="131.5" cy="456.1" r="6" fill="#fbbf24" />
    <circle cx="127.2" cy="478.2" r="6" fill="#94a3b8" />
    <circle cx="134.9" cy="505.9" r="6" fill="#94a3b8" />
    <circle cx="130.6" cy="530.2" r="6" fill="#fbbf24" />
    <circle cx="151.9" cy="1.8" r="6" fill="#94a3b8" />
    <circle cx="150.4" cy="104.5" r="6" fill="#64748b" />
    <circle cx="157.7" cy="179.3" r="6" fill="#64748b" />
    <circle cx="156.7" cy="202.6" r="6" fill="#64748b" />
    <circle cx="153.4" cy="226.5" r="6" fill="#94a3b8" />
    <circle cx="151.9" cy="253.5" r="6" fill="#94a3b8" />
    <circle cx="155.0" cy="301.9" r="6" fill="#64748b" />
    <circle cx="151.7" cy="327.9" r="6" fill="#fbbf24" />
    <circle cx="150.4" cy="434.4" r="6" fill="#64748b" />
    <circle cx="153.5" cy="451.9" r="6" fill="#94a3b8" />
    <circle cx="156.3" cy="501.1" r="6" fill="#fbbf24" />
    <circle cx="180.0" cy="3.4" r="6" fill="#64748b" />
    <circle cx="178.5" cy="34.4" r="6" fill="#64748b" />
    <circle cx="178.6" cy="80.6" r="6" fill="#fbbf24" />
    <circle cx="178.0" cy="104.5" r="6" fill="#fbbf24" />
    <circle cx="175.1" cy="127.5" r="6" fill="#94a3b8" />
    <circle cx="182.6" cy="159.5" r="6" fill="#fbbf24" />
    <circle cx="178.4" cy="181.4" r="6" fill="#fbbf24" />
    <circle cx="177.5" cy="203.6" r="6" fill="#fbbf24" />
    <circle cx="182.3" cy="226.4" r="6" fill="#fbbf24" />
    <circle cx="178.9" cy="250.5" r="6" fill="#fbbf24" />
    <circle cx="176.0" cy="282.4" r="6" fill="#94a3b8" />
    <circle cx="181.0" cy="329.8" r="6" fill="#94a3b8" />
    <circle cx="178.6" cy="351.7" r="6" fill="#64748b" />
    <circle cx="176.7" cy="377.8" r="6" fill="#64748b" />
    <circle cx="176.7" cy="401.5" r="6" fill="#94a3b8" />
    <circle cx="176.9" cy="434.4" r="6" fill="#94a3b8" />
    <circle cx="175.8" cy="457.2" r="6" fill="#64748b" />
    <circle cx="176.3" cy="479.2" r="6" fill="#64748b" />
    <circle cx="183.5" cy="507.1" r="6" fill="#94a3b8" />
    <circle cx="203.1" cy="4.5" r="6" fill="#64748b" />
    <circle cx="205.1" cy="56.7" r="6" fill="#64748b" />
    <circle cx="205.0" cy="77.6" r="6" fill="#94a3b8" />
    <circle cx="201.5" cy="100.5" r="6" fill="#64748b" />
    <circle cx="206.5" cy="180.5" r="6" fill="#94a3b8" />
    <circle cx="209.6" cy="200.6" r="6" fill="#94a3b8" />
    <circle cx="208.5" cy="234.6" r="6" fill="#64748b" />
    <circle cx="206.9" cy="301.3" r="6" fill="#fbbf24" />
    <circle cx="203.4" cy="328.5" r="6" fill="#64748b" />
    <circle cx="200.2" cy="356.3" r="6" fill="#fbbf24" />
    <circle cx="207.8" cy="380.5" r="6" fill="#64748b" />
    <circle cx="208.1" cy="402.5" r="6" fill="#fbbf24" />
    <circle cx="206.6" cy="456.7" r="6" fill="#fbbf24" />
    <circle cx="207.8" cy="501.7" r="6" fill="#fbbf24" />
    <circle cx="200.6" cy="532.4" r="6" fill="#64748b" />
    <circle cx="230.9" cy="31.9" r="6" fill="#fbbf24" />
    <circle cx="228.8" cy="59.8" r="6" fill="#fbbf24" />
    <circle cx="225.5" cy="79.1" r="6" fill="#94a3b8" />
    <circle cx="233.2" cy="109.1" r="6" fill="#94a3b8" />
    <circle cx="235.0" cy="132.7" r="6" fill="#64748b" />
    <circle cx="234.0" cy="150.5" r="6" fill="#fbbf24" />
    <circle cx="230.9" cy="175.9" r="6" fill="#94a3b8" />
    <circle cx="231.5" cy="208.9" r="6" fill="#94a3b8" />
    <circle cx="227.5" cy="234.3" r="6" fill="#94a3b8" />
    <circle cx="230.2" cy="257.7" r="6" fill="#64748b" />
    <circle cx="226.8" cy="277.0" r="6" fill="#fbbf24" />
    <circle cx="226.3" cy="308.6" r="6" fill="#94a3b8" />
    <circle cx="232.5" cy="378.0" r="6" fill="#fbbf24" />
    <circle cx="228.5" cy="427.5" r="6" fill="#fbbf24" />
    <circle cx="235.0" cy="457.3" r="6" fill="#64748b" />
    <circle cx="228.2" cy="481.5" r="6" fill="#94a3b8" />
    <circle cx="226.2" cy="534.9" r="6" fill="#64748b" />
    <circle cx="256.9" cy="2.7" r="6" fill="#fbbf24" />
    <circle cx="259.9" cy="26.5" r="6" fill="#fbbf24" />
    <circle cx="251.3" cy="78.1" r="6" fill="#fbbf24" />
    <circle cx="251.2" cy="109.0" r="6" fill="#94a3b8" />
    <circle cx="253.1" cy="175.4" r="6" fill="#fbbf24" />
    <circle cx="256.2" cy="202.3" r="6" fill="#94a3b8" />
    <circle cx="254.6" cy="226.1" r="6" fill="#94a3b8" />
    <circle cx="253.2" cy="258.5" r="6" fill="#94a3b8" />
    <circle cx="252.4" cy="280.1" r="6" fill="#64748b" />
    <circle cx="251.9" cy="302.8" r="6" fill="#64748b" />
    <circle cx="253.5" cy="380.4" r="6" fill="#fbbf24" />
    <circle cx="252.1" cy="457.3" r="6" fill="#94a3b8" />
    <circle cx="259.0" cy="502.2" r="6" fill="#64748b" />
    <circle cx="250.6" cy="532.5" r="6" fill="#64748b" />
    <circle cx="276.4" cy="28.3" r="6" fill="#94a3b8" />
    <circle cx="281.1" cy="56.1" r="6" fill="#94a3b8" />
    <circle cx="277.2" cy="80.0" r="6" fill="#64748b" />
    <circle cx="278.7" cy="205.1" r="6" fill="#fbbf24" />
    <circle cx="278.0" cy="226.6" r="6" fill="#64748b" />
    <circle cx="278.0" cy="278.2" r="6" fill="#fbbf24" />
    <circle cx="278.5" cy="329.5" r="6" fill="#fbbf24" />
    <circle cx="283.7" cy="353.8" r="6" fill="#64748b" />
    <circle cx="275.7" cy="383.2" r="6" fill="#64748b" />
    <circle cx="276.2" cy="429.0" r="6" fill="#94a3b8" />
    <circle cx="280.5" cy="457.3" r="6" fill="#94a3b8" />
    <circle cx="275.9" cy="479.6" r="6" fill="#fbbf24" />
    <circle cx="305.5" cy="1.5" r="6" fill="#64748b" />
    <circle cx="300.5" cy="33.8" r="6" fill="#fbbf24" />
    <circle cx="309.7" cy="54.3" r="6" fill="#64748b" />
    <circle cx="306.1" cy="82.3" r="6" fill="#64748b" />
    <circle cx="304.9" cy="109.9" r="6" fill="#94a3b8" />
    <circle cx="307.3" cy="229.1" r="6" fill="#64748b" />
    <circle cx="302.0" cy="255.1" r="6" fill="#94a3b8" />
    <circle cx="304.7" cy="277.9" r="6" fill="#64748b" />
    <circle cx="309.0" cy="334.6" r="6" fill="#94a3b8" />
    <circle cx="301.8" cy="409.8" r="6" fill="#64748b" />
    <circle cx="309.2" cy="450.5" r="6" fill="#64748b" />
    <circle cx="303.8" cy="479.8" r="6" fill="#94a3b8" />
    <circle cx="308.6" cy="507.2" r="6" fill="#94a3b8" />
    <circle cx="306.5" cy="530.5" r="6" fill="#64748b" />
    <circle cx="334.6" cy="2.6" r="6" fill="#94a3b8" />
    <circle cx="326.3" cy="78.2" r="6" fill="#fbbf24" />
    <circle cx="334.4" cy="106.5" r="6" fill="#fbbf24" />
    <circle cx="329.2" cy="131.6" r="6" fill="#64748b" />
    <circle cx="334.6" cy="180.4" r="6" fill="#fbbf24" />
    <circle cx="334.8" cy="200.1" r="6" fill="#64748b" />
    <circle cx="325.5" cy="232.5" r="6" fill="#64748b" />
    <circle cx="326.3" cy="251.6" r="6" fill="#fbbf24" />
    <circle cx="325.7" cy="301.4" r="6" fill="#64748b" />
    <circle cx="330.4" cy="331.6" r="6" fill="#94a3b8" />
    <circle cx="327.5" cy="358.7" r="6" fill="#94a3b8" />
    <circle cx="332.0" cy="434.4" r="6" fill="#94a3b8" />
    <circle cx="327.3" cy="483.7" r="6" fill="#fbbf24" />
    <circle cx="329.1" cy="501.4" r="6" fill="#64748b" />
    <circle cx="334.2" cy="526.6" r="6" fill="#64748b" />
    <circle cx="350.5" cy="26.2" r="6" fill="#64748b" />
    <circle cx="354.1" cy="53.0" r="6" fill="#94a3b8" />
    <circle cx="354.3" cy="82.7" r="6" fill="#64748b" />
    <circle cx="355.5" cy="106.4" r="6" fill="#fbbf24" />
    <circle cx="355.9" cy="159.3" r="6" fill="#fbbf24" />
    <circle cx="353.0" cy="178.0" r="6" fill="#fbbf24" />
    <circle cx="353.3" cy="200.9" r="6" fill="#fbbf24" />
    <circle cx="358.8" cy="253.3" r="6" fill="#94a3b8" />
    <circle cx="357.7" cy="277.6" r="6" fill="#94a3b8" />
    <circle cx="353.4" cy="301.2" r="6" fill="#fbbf24" />
    <circle cx="359.7" cy="383.6" r="6" fill="#64748b" />
    <circle cx="351.0" cy="404.6" r="6" fill="#64748b" />
    <circle cx="350.9" cy="457.7" r="6" fill="#fbbf24" />
    <circle cx="351.4" cy="500.5" r="6" fill="#fbbf24" />
    <circle cx="378.9" cy="2.3" r="6" fill="#64748b" />
    <circle cx="376.8" cy="27.5" r="6" fill="#fbbf24" />
    <circle cx="379.6" cy="55.6" r="6" fill="#64748b" />
    <circle cx="379.7" cy="103.8" r="6" fill="#94a3b8" />
    <circle cx="382.3" cy="128.1" r="6" fill="#fbbf24" />
    <circle cx="378.4" cy="177.1" r="6" fill="#fbbf24" />
    <circle cx="384.9" cy="209.0" r="6" fill="#fbbf24" />
    <circle cx="384.1" cy="229.5" r="6" fill="#64748b" />
    <circle cx="377.0" cy="255.6" r="6" fill="#64748b" />
    <circle cx="375.6" cy="278.5" r="6" fill="#fbbf24" />
    <circle cx="381.8" cy="308.7" r="6" fill="#64748b" />
    <circle cx="378.6" cy="400.1" r="6" fill="#94a3b8" />
    <circle cx="378.2" cy="431.6" r="6" fill="#64748b" />
    <circle cx="382.4" cy="452.1" r="6" fill="#fbbf24" />
    <circle cx="384.1" cy="532.9" r="6" fill="#fbbf24" /></g>
  <polygon points="179.0,140.0 208.2,198.4 149.8,198.4" fill="#fbbf24" opacity="0.26" />
    <polygon points="83.6,318.4 112.5,347.3 83.6,376.1 54.8,347.3" fill="#fbbf24" opacity="0.19" />
    <circle cx="240.7" cy="424.9" r="17.1" fill="#64748b" opacity="0.11" />
    <rect x="85.9" y="424.9" width="47.8" height="47.8" fill="#64748b" opacity="0.34" />
    <polygon points="317.6,384.8 364.4,431.6 317.6,478.4 270.8,431.6" fill="#64748b" opacity="0.38" />
    <polygon points="285.8,65.0 327.9,107.0 285.8,149.1 243.8,107.0" fill="#94a3b8" opacity="0.30" />
    <polygon points="320.0,-4.0 345.3,46.7 294.6,46.7" fill="#fbbf24" opacity="0.26" />
    <rect x="237.1" y="80.9" width="51.0" height="51.0" fill="#fbbf24" opacity="0.28" />
    <polygon points="86.6,536.2 97.4,557.8 75.8,557.8" fill="#64748b" opacity="0.14" />
    <circle cx="265.4" cy="548.8" r="13.2" fill="#94a3b8" opacity="0.31" />
    <polygon points="118.5,503.5 138.4,543.4 98.5,543.4" fill="#fbbf24" opacity="0.19" />
  
  <!-- Text background banner -->
  <defs>
    <linearGradient id="text-bg-22" x1="0%" y1="0%" x2="100%" y2="0%">
      <stop offset="0%" style="stop-color:#000000;stop-opacity:0.7" />
      <stop offset="50%" style="stop-color:#64748b;stop-opacity:0.4" />
      <stop offset="100%" style="stop-color:#000000;stop-opacity:0.7" />
    </linearGradient>
  </defs>
  <rect x="0" y="494" width="400" height="56" fill="url(#text-bg-22)" />

  <!-- Text shadow -->
  <text x="200" y="522" font-family="system-ui, -apple-system, sans-serif" font-size="24" font-weight="bold" text-anchor="middle" fill="#000000" opacity="0.8">Binocular Boner-Bugger</text>

  <!-- Main text -->
  <text x="200" y="520" font-family="system-ui, -apple-system, sans-serif" font-size="24" font-weight="bold" text-anchor="middle" fill="#ffffff">Binocular Boner-Bugger</text>
  
  <!-- Rarity border -->
  <rect x="4" y="4" width="392" height="542"
        fill="none" stroke="#eab308" stroke-width="8" rx="8" ry="8" />
</svg>