<?xml version="1.0" encoding="UTF-8"?>
<svg xmlns="http://www.w3.org/2000/svg" viewBox="0 0 400 550" width="400" height="550">
  <defs>
    <linearGradient id="bg-gradient-SUBURBAN_SIDEKICK_001" x1="0%" y1="0%" x2="100%" y2="100%">
      <stop offset="0%" style="stop-color:#64748b;stop-opacity:0.26" />
      <stop offset="50%" style="stop-color:#94a3b8;stop-opacity:0.4" />
      <stop offset="100%" style="stop-color:#64748b;stop-opacity:0.26" />
    </linearGradient>
    
  <filter id="shadow-SUBURBAN_SIDEKICK_001">
    <feDropShadow dx="0" dy="2" stdDeviation="3" flood-opacity="0.8"/>
  </filter>
  </defs>
  <rect width="400" height="550" fill="url(#bg-gradient-0.6795595127623528)" />
  <g opacity="0.3"><polyline points="0,330.4 5,327.9 10,325.4 15,323.0 20,320.5 25,318.1 30,315.8 35,313.5 40,311.3 45,309.2 50,307.2 55,305.3 60,303.5 65,301.8 70,300.3 75,298.9 80,297.6 85,296.6 90,295.6 95,294.9 100,294.3 105,293.8 110,293.6 115,293.5 120,293.6 125,293.8 130,294.3 135,294.9 140,295.7 145,296.6 150,297.7 155,298.9 160,300.3 165,301.9 170,303.5 175,305.3 180,307.2 185,309.3 190,311.4 195,313.6 200,315.9 205,318.2 210,320.6 215,323.0 220,325.5 225,328.0 230,330.5 235,333.0 240,335.5 245,337.9 250,340.3 255,342.7 260,345.0 265,347.2 270,349.4 275,351.4 280,353.3 285,355.1 290,356.8 295,358.4 300,359.8 305,361.1 310,362.2 315,363.2 320,364.0 325,364.6 330,365.1 335,365.4 340,365.5 345,365.5 350,365.2 355,364.8 360,364.3 365,363.5 370,362.6 375,361.6 380,360.4 385,359.0 390,357.5 395,355.9 400,354.1" fill="none" stroke="#64748b" stroke-width="2.1" opacity="0.29" />
    <polyline points="0,281.3 5,283.2 10,285.3 15,287.5 20,289.7 25,291.9 30,294.2 35,296.4 40,298.5 45,300.5 50,302.4 55,304.1 60,305.6 65,307.0 70,308.1 75,309.0 80,309.6 85,310.0 90,310.1 95,309.9 100,309.5 105,308.8 110,307.9 115,306.7 120,305.4 125,303.8 130,302.0 135,300.1 140,298.1 145,295.9 150,293.7 155,291.5 160,289.3 165,287.1 170,284.9 175,282.8 180,280.9 185,279.1 190,277.5 195,276.0 200,274.8 205,273.8 210,273.1 215,272.6 220,272.4 225,272.4 230,272.7 235,273.3 240,274.1 245,275.1 250,276.4 255,277.9 260,279.6 265,281.5 270,283.4 275,285.5 280,287.7 285,289.9 290,292.2 295,294.4 300,296.6 305,298.7 310,300.7 315,302.6 320,304.3 325,305.8 330,307.1 335,308.2 340,309.1 345,309.7 350,310.0 355,310.1 360,309.9 365,309.5 370,308.8 375,307.8 380,306.6 385,305.2 390,303.6 395,301.8 400,299.9" fill="none" stroke="#fbbf24" stroke-width="2.2" opacity="0.25" />
    <polyline points="0,369.9 5,370.0 10,370.2 15,370.5 20,370.9 25,371.4 30,371.9 35,372.5 40,373.2 45,373.9 50,374.6 55,375.4 60,376.3 65,377.2 70,378.1 75,379.0 80,380.0 85,380.9 90,381.9 95,382.8 100,383.8 105,384.7 110,385.6 115,386.4 120,387.3 125,388.0 130,388.8 135,389.4 140,390.1 145,390.6 150,391.1 155,391.5 160,391.8 165,392.1 170,392.3 175,392.4 180,392.4 185,392.3 190,392.2 195,392.0 200,391.7 205,391.3 210,390.8 215,390.3 220,389.7 225,389.1 230,388.4 235,387.6 240,386.8 245,386.0 250,385.1 255,384.2 260,383.3 265,382.3 270,381.3 275,380.4 280,379.4 285,378.5 290,377.6 295,376.7 300,375.8 305,375.0 310,374.2 315,373.5 320,372.8 325,372.2 330,371.6 335,371.1 340,370.7 345,370.4 350,370.1 355,369.9 360,369.8 365,369.8 370,369.8 375,370.0 380,370.2 385,370.5 390,370.8 395,371.3 400,371.8" fill="none" stroke="#64748b" stroke-width="2.3" opacity="0.14" />
    <polyline points="0,506.7 5,506.0 10,505.1 15,504.0 20,502.7 25,501.2 30,499.5 35,497.6 40,495.5 45,493.3 50,491.0 55,488.5 60,486.0 65,483.3 70,480.6 75,477.8 80,475.0 85,472.2 90,469.3 95,466.5 100,463.8 105,461.1 110,458.5 115,456.0 120,453.6 125,451.3 130,449.2 135,447.2 140,445.4 145,443.8 150,442.4 155,441.2 160,440.2 165,439.5 170,438.9 175,438.6 180,438.5 185,438.7 190,439.1 195,439.7 200,440.5 205,441.6 210,442.8 215,444.3 220,446.0 225,447.8 230,449.8 235,452.0 240,454.3 245,456.7 250,459.3 255,461.9 260,464.6 265,467.4 270,470.2 275,473.0 280,475.8 285,478.6 290,481.4 295,484.1 300,486.8 305,489.3 310,491.7 315,494.0 320,496.2 325,498.2 330,500.0 335,501.7 340,503.1 345,504.4 350,505.4 355,506.3 360,506.9 365,507.2 370,507.4 375,507.3 380,507.0 385,506.4 390,505.6 395,504.6 400,503.4" fill="none" stroke="#64748b" stroke-width="2.9" opacity="0.27" />
    <polyline points="0,166.1 5,162.2 10,158.1 15,153.9 20,149.7 25,145.5 30,141.4 35,137.6 40,134.0 45,130.8 50,128.0 55,125.6 60,123.8 65,122.6 70,121.9 75,121.8 80,122.3 85,123.4 90,125.0 95,127.2 100,129.8 105,132.9 110,136.4 115,140.2 120,144.2 125,148.3 130,152.6 135,156.8 140,161.0 145,164.9 150,168.6 155,172.0 160,175.0 165,177.6 170,179.7 175,181.2 180,182.2 185,182.5 190,182.3 195,181.5 200,180.1 205,178.2 210,175.8 215,172.9 220,169.6 225,165.9 230,162.0 235,157.9 240,153.7 245,149.5 250,145.3 255,141.2 260,137.4 265,133.8 270,130.6 275,127.8 280,125.5 285,123.8 290,122.5 295,121.9 300,121.8 305,122.3 310,123.4 315,125.1 320,127.3 325,130.0 330,133.1 335,136.6 340,140.4 345,144.4 350,148.6 355,152.8 360,157.0 365,161.2 370,165.1 375,168.8 380,172.2 385,175.2 390,177.7 395,179.8 400,181.3" fill="none" stroke="#fbbf24" stroke-width="2.7" opacity="0.26" />
    <polyline points="0,201.9 5,199.9 10,198.0 15,196.2 20,194.6 25,193.2 30,191.9 35,190.9 40,190.0 45,189.4 50,189.0 55,188.9 60,189.0 65,189.3 70,189.8 75,190.6 80,191.6 85,192.7 90,194.1 95,195.7 100,197.4 105,199.2 110,201.2 115,203.3 120,205.5 125,207.7 130,209.9 135,212.2 140,214.5 145,216.7 150,218.9 155,220.9 160,222.9 165,224.8 170,226.5 175,228.0 180,229.4 185,230.6 190,231.5 195,232.3 200,232.8 205,233.1 210,233.2 215,233.0 220,232.6 225,232.0 230,231.2 235,230.1 240,228.9 245,227.4 250,225.8 255,224.0 260,222.1 265,220.1 270,218.0 275,215.8 280,213.6 285,211.3 290,209.0 295,206.8 300,204.6 305,202.4 310,200.4 315,198.5 320,196.7 325,195.0 330,193.5 335,192.2 340,191.1 345,190.2 350,189.6 355,189.1 360,188.9 365,188.9 370,189.2 375,189.6 380,190.3 385,191.3 390,192.4 395,193.7 400,195.2" fill="none" stroke="#64748b" stroke-width="1.5" opacity="0.12" />
    <polyline points="0,352.8 5,352.5 10,351.9 15,351.0 20,349.9 25,348.6 30,347.0 35,345.2 40,343.3 45,341.2 50,338.9 55,336.6 60,334.1 65,331.6 70,329.0 75,326.5 80,323.9 85,321.4 90,319.0 95,316.6 100,314.4 105,312.3 110,310.4 115,308.6 120,307.1 125,305.8 130,304.7 135,303.9 140,303.3 145,303.0 150,302.9 155,303.1 160,303.6 165,304.3 170,305.3 175,306.5 180,308.0 185,309.6 190,311.5 195,313.5 200,315.7 205,318.0 210,320.4 215,322.9 220,325.4 225,328.0 230,330.6 235,333.1 240,335.6 245,338.0 250,340.3 255,342.5 260,344.5 265,346.3 270,348.0 275,349.4 280,350.6 285,351.5 290,352.2 295,352.7 300,352.9 305,352.8 310,352.5 315,351.9 320,351.0 325,349.9 330,348.6 335,347.0 340,345.3 345,343.3 350,341.2 355,339.0 360,336.6 365,334.2 370,331.6 375,329.1 380,326.5 385,323.9 390,321.4 395,319.0 400,316.6" fill="none" stroke="#64748b" stroke-width="1.3" opacity="0.13" />
    <polyline points="0,360.1 5,358.6 10,356.7 15,354.5 20,351.9 25,349.1 30,346.1 35,342.9 40,339.7 45,336.5 50,333.3 55,330.3 60,327.5 65,325.0 70,322.8 75,320.9 80,319.5 85,318.4 90,317.9 95,317.8 100,318.2 105,319.1 110,320.4 115,322.1 120,324.2 125,326.6 130,329.3 135,332.3 140,335.4 145,338.6 150,341.8 155,345.0 160,348.1 165,351.0 170,353.7 175,356.0 180,358.0 185,359.7 190,360.9 195,361.6 200,361.9 205,361.7 210,361.1 215,360.0 220,358.5 225,356.5 230,354.2 235,351.6 240,348.8 245,345.7 250,342.6 255,339.3 260,336.1 265,333.0 270,330.0 275,327.2 280,324.7 285,322.5 290,320.7 295,319.3 300,318.4 305,317.9 310,317.8 315,318.3 320,319.2 325,320.5 330,322.3 335,324.4 340,326.9 345,329.6 350,332.6 355,335.7 360,338.9 365,342.2 370,345.4 375,348.4 380,351.3 385,353.9 390,356.3 395,358.2 400,359.8" fill="none" stroke="#64748b" stroke-width="1.5" opacity="0.16" /></g>
  <polygon points="79.3,44.0 111.0,107.4 47.7,107.4" fill="#64748b" opacity="0.12" />
    <circle cx="323.5" cy="151.5" r="44.7" fill="#64748b" opacity="0.40" />
    <circle cx="113.8" cy="224.9" r="10.1" fill="#fbbf24" opacity="0.35" />
    <rect x="61.1" y="342.1" width="31.4" height="31.4" fill="#fbbf24" opacity="0.27" />
    <circle cx="239.3" cy="479.1" r="49.6" fill="#64748b" opacity="0.15" />
    <rect x="22.7" y="8.4" width="92.5" height="92.5" fill="#64748b" opacity="0.32" />
    <circle cx="179.9" cy="103.0" r="27.7" fill="#94a3b8" opacity="0.15" />
    <polygon points="276.3,219.4 317.0,300.8 235.6,300.8" fill="#94a3b8" opacity="0.30" />
    <polygon points="28.3,239.7 46.2,275.4 10.4,275.4" fill="#94a3b8" opacity="0.34" />
    <polygon points="94.4,248.4 138.3,336.2 50.6,336.2" fill="#fbbf24" opacity="0.35" />
    <circle cx="139.4" cy="308.5" r="27.3" fill="#94a3b8" opacity="0.27" />
  
  <!-- Text background banner -->
  <defs>
    <linearGradient id="text-bg-21" x1="0%" y1="0%" x2="100%" y2="0%">
      <stop offset="0%" style="stop-color:#000000;stop-opacity:0.7" />
      <stop offset="50%" style="stop-color:#64748b;stop-opacity:0.4" />
      <stop offset="100%" style="stop-color:#000000;stop-opacity:0.7" />
    </linearGradient>
  </defs>
  <rect x="0" y="494" width="400" height="56" fill="url(#text-bg-21)" />

  <!-- Text shadow -->
  <text x="200" y="522" font-family="system-ui, -apple-system, sans-serif" font-size="24" font-weight="bold" text-anchor="middle" fill="#000000" opacity="0.8">Mailman Meat-Molester</text>

  <!-- Main text -->
  <text x="200" y="520" font-family="system-ui, -apple-system, sans-serif" font-size="24" font-weight="bold" text-anchor="middle" fill="#ffffff">Mailman Meat-Molester</text>
  
  <!-- Rarity border -->
  <rect x="4" y="4" width="392" height="542"
        fill="none" stroke="#eab308" stroke-width="8" rx="8" ry="8" />
</svg>