<?xml version="1.0" encoding="UTF-8"?>
<svg xmlns="http://www.w3.org/2000/svg" viewBox="0 0 400 550" width="400" height="550">
  <defs>
    <linearGradient id="bg-gradient-summer_004" x1="0%" y1="0%" x2="100%" y2="100%">
      <stop offset="0%" style="stop-color:#3b82f6;stop-opacity:0.26" />
      <stop offset="50%" style="stop-color:#22d3ee;stop-opacity:0.4" />
      <stop offset="100%" style="stop-color:#3b82f6;stop-opacity:0.26" />
    </linearGradient>
    
  <filter id="shadow-summer_004">
    <feDropShadow dx="0" dy="2" stdDeviation="3" flood-opacity="0.8"/>
  </filter>
  </defs>
  <rect width="400" height="550" fill="url(#bg-gradient-0.9527509198524058)" />
  <g opacity="0.3"><circle cx="206.9" cy="436.9" r="33.0" fill="none" stroke="#3b82f6" stroke-width="2.8" opacity="0.13" />
    <circle cx="115.8" cy="46.7" r="26.3" fill="none" stroke="#22d3ee" stroke-width="2.6" opacity="0.28" />
    <circle cx="136.5" cy="286.4" r="12.3" fill="none" stroke="#3b82f6" stroke-width="2.2" opacity="0.19" />
    <circle cx="341.8" cy="288.1" r="35.0" fill="none" stroke="#3b82f6" stroke-width="2.1" opacity="0.25" />
    <rect x="48.7" y="191.3" width="44.9" height="44.9" fill="none" stroke="#3b82f6" stroke-width="2.1" opacity="0.14" />
    <rect x="37.2" y="247.6" width="61.8" height="61.8" fill="none" stroke="#3b82f6" stroke-width="1.9" opacity="0.24" />
    <circle cx="262.0" cy="89.6" r="26.0" fill="none" stroke="#a855f7" stroke-width="2.2" opacity="0.24" /></g>
  <polygon points="241.4,382.6 266.7,433.1 216.2,433.1" fill="#3b82f6" opacity="0.30" />
    <polygon points="171.8,491.3 187.9,523.6 155.6,523.6" fill="#3b82f6" opacity="0.27" />
    <polygon points="305.5,2.0 331.9,28.4 305.5,54.7 279.1,28.4" fill="#a855f7" opacity="0.24" />
    <polygon points="258.0,372.2 293.7,407.9 258.0,443.6 222.3,407.9" fill="#3b82f6" opacity="0.28" />
    <polygon points="304.7,129.7 321.5,163.3 287.9,163.3" fill="#3b82f6" opacity="0.19" />
    <rect x="232.7" y="323.2" width="64.7" height="64.7" fill="#a855f7" opacity="0.30" />
    <circle cx="14.3" cy="373.4" r="24.4" fill="#a855f7" opacity="0.15" />
    <circle cx="70.6" cy="399.8" r="30.4" fill="#a855f7" opacity="0.12" />
  
  <!-- Text background banner -->
  <defs>
    <linearGradient id="text-bg-21" x1="0%" y1="0%" x2="100%" y2="0%">
      <stop offset="0%" style="stop-color:#000000;stop-opacity:0.7" />
      <stop offset="50%" style="stop-color:#3b82f6;stop-opacity:0.4" />
      <stop offset="100%" style="stop-color:#000000;stop-opacity:0.7" />
    </linearGradient>
  </defs>
  <rect x="0" y="494" width="400" height="56" fill="url(#text-bg-21)" />

  <!-- Text shadow -->
  <text x="200" y="522" font-family="system-ui, -apple-system, sans-serif" font-size="24" font-weight="bold" text-anchor="middle" fill="#000000" opacity="0.8">Vacation Video Victor</text>

  <!-- Main text -->
  <text x="200" y="520" font-family="system-ui, -apple-system, sans-serif" font-size="24" font-weight="bold" text-anchor="middle" fill="#ffffff">Vacation Video Victor</text>
  
  <!-- Rarity border -->
  <rect x="3" y="3" width="394" height="544"
        fill="none" stroke="#3b82f6" stroke-width="6" rx="8" ry="8" />
</svg>