<?xml version="1.0" encoding="UTF-8"?>
<svg xmlns="http://www.w3.org/2000/svg" viewBox="0 0 400 550" width="400" height="550">
  <defs>
    <linearGradient id="bg-gradient-summer_002" x1="0%" y1="0%" x2="100%" y2="100%">
      <stop offset="0%" style="stop-color:#22c55e;stop-opacity:0.26" />
      <stop offset="50%" style="stop-color:#84cc16;stop-opacity:0.4" />
      <stop offset="100%" style="stop-color:#22c55e;stop-opacity:0.26" />
    </linearGradient>
    
  <filter id="shadow-summer_002">
    <feDropShadow dx="0" dy="2" stdDeviation="3" flood-opacity="0.8"/>
  </filter>
  </defs>
  <rect width="400" height="550" fill="url(#bg-gradient-0.5951876901090145)" />
  <g opacity="0.3"><circle cx="198.6" cy="27.4" r="35.2" fill="none" stroke="#84cc16" stroke-width="1.2" opacity="0.27" />
    <circle cx="317.8" cy="12.2" r="27.1" fill="none" stroke="#84cc16" stroke-width="1.4" opacity="0.18" />
    <circle cx="320.1" cy="124.9" r="18.6" fill="none" stroke="#84cc16" stroke-width="1.4" opacity="0.26" />
    <rect x="109.8" y="406.8" width="20.1" height="20.1" fill="none" stroke="#22c55e" stroke-width="2.0" opacity="0.10" />
    <circle cx="288.9" cy="461.2" r="30.2" fill="none" stroke="#22c55e" stroke-width="1.8" opacity="0.24" />
    <rect x="63.4" y="390.1" width="30.3" height="30.3" fill="none" stroke="#84cc16" stroke-width="2.8" opacity="0.25" />
    <circle cx="353.3" cy="226.4" r="25.2" fill="none" stroke="#84cc16" stroke-width="1.1" opacity="0.20" /></g>
  <rect x="-18.3" y="351.6" width="97.7" height="97.7" fill="#84cc16" opacity="0.31" />
    <circle cx="71.4" cy="481.1" r="19.7" fill="#84cc16" opacity="0.26" />
    <rect x="60.4" y="32.0" width="28.7" height="28.7" fill="#22c55e" opacity="0.29" />
    <rect x="304.2" y="-37.9" width="88.1" height="88.1" fill="#22c55e" opacity="0.39" />
    <polygon points="315.4,285.0 356.7,367.5 274.1,367.5" fill="#84cc16" opacity="0.33" />
    <rect x="315.9" y="154.7" width="55.4" height="55.4" fill="#fbbf24" opacity="0.16" />
    <polygon points="328.6,328.6 357.4,357.4 328.6,386.1 299.8,357.4" fill="#22c55e" opacity="0.12" />
    <rect x="299.1" y="333.2" width="24.4" height="24.4" fill="#84cc16" opacity="0.12" />
  
  <!-- Text background banner -->
  <defs>
    <linearGradient id="text-bg-20" x1="0%" y1="0%" x2="100%" y2="0%">
      <stop offset="0%" style="stop-color:#000000;stop-opacity:0.7" />
      <stop offset="50%" style="stop-color:#22c55e;stop-opacity:0.4" />
      <stop offset="100%" style="stop-color:#000000;stop-opacity:0.7" />
    </linearGradient>
  </defs>
  <rect x="0" y="494" width="400" height="56" fill="url(#text-bg-20)" />

  <!-- Text shadow -->
  <text x="200" y="522" font-family="system-ui, -apple-system, sans-serif" font-size="24" font-weight="bold" text-anchor="middle" fill="#000000" opacity="0.8">Lawn Sprinkler Larry</text>

  <!-- Main text -->
  <text x="200" y="520" font-family="system-ui, -apple-system, sans-serif" font-size="24" font-weight="bold" text-anchor="middle" fill="#ffffff">Lawn Sprinkler Larry</text>
  
  <!-- Rarity border -->
  <rect x="3" y="3" width="394" height="544"
        fill="none" stroke="#3b82f6" stroke-width="6" rx="8" ry="8" />
</svg>