<?xml version="1.0" encoding="UTF-8"?>
<svg xmlns="http://www.w3.org/2000/svg" viewBox="0 0 400 550" width="400" height="550">
  <defs>
    <linearGradient id="bg-gradient-TERRAIN_001" x1="0%" y1="0%" x2="100%" y2="100%">
      <stop offset="0%" style="stop-color:#22c55e;stop-opacity:0.26" />
      <stop offset="50%" style="stop-color:#16a34a;stop-opacity:0.4" />
      <stop offset="100%" style="stop-color:#22c55e;stop-opacity:0.26" />
    </linearGradient>
    
  <filter id="shadow-TERRAIN_001">
    <feDropShadow dx="0" dy="2" stdDeviation="3" flood-opacity="0.8"/>
  </filter>
  </defs>
  <rect width="400" height="550" fill="url(#bg-gradient-0.7110307365655899)" />
  <g opacity="0.3"><polyline points="0,146.3 5,143.4 10,140.4 15,137.3 20,134.1 25,130.9 30,127.8 35,124.8 40,122.0 45,119.3 50,116.9 55,114.8 60,113.1 65,111.7 70,110.7 75,110.1 80,110.0 85,110.2 90,110.9 95,112.0 100,113.4 105,115.3 110,117.4 115,119.9 120,122.5 125,125.4 130,128.5 135,131.6 140,134.8 145,138.0 150,141.1 155,144.0 160,146.8 165,149.4 170,151.7 175,153.7 180,155.4 185,156.7 190,157.6 195,158.0 200,158.1 205,157.7 210,156.9 215,155.8 220,154.2 225,152.3 230,150.0 235,147.5 240,144.8 245,141.8 250,138.8 255,135.6 260,132.4 265,129.3 270,126.2 275,123.3 280,120.5 285,118.0 290,115.8 295,113.9 300,112.3 305,111.1 310,110.4 315,110.0 320,110.1 325,110.5 330,111.4 335,112.7 340,114.4 345,116.4 350,118.7 355,121.3 360,124.1 365,127.0 370,130.1 375,133.3 380,136.5 385,139.6 390,142.7 395,145.6 400,148.2" fill="none" stroke="#16a34a" stroke-width="2.6" opacity="0.28" />
    <polyline points="0,94.6 5,96.6 10,98.6 15,100.4 20,102.0 25,103.5 30,104.8 35,105.8 40,106.6 45,107.2 50,107.6 55,107.6 60,107.5 65,107.0 70,106.3 75,105.4 80,104.3 85,102.9 90,101.4 95,99.7 100,97.8 105,95.9 110,93.8 115,91.7 120,89.6 125,87.4 130,85.3 135,83.3 140,81.3 145,79.5 150,77.9 155,76.4 160,75.1 165,74.0 170,73.1 175,72.5 180,72.1 185,72.0 190,72.1 195,72.5 200,73.1 205,74.0 210,75.1 215,76.5 220,78.0 225,79.6 230,81.5 235,83.4 240,85.5 245,87.6 250,89.7 255,91.8 260,93.9 265,96.0 270,98.0 275,99.8 280,101.5 285,103.0 290,104.4 295,105.5 300,106.4 305,107.1 310,107.5 315,107.6 320,107.5 325,107.2 330,106.6 335,105.7 340,104.7 345,103.4 350,101.9 355,100.2 360,98.4 365,96.5 370,94.5 375,92.4 380,90.3 385,88.1 390,86.0 395,83.9 400,82.0" fill="none" stroke="#fbbf24" stroke-width="1.3" opacity="0.23" />
    <polyline points="0,526.1 5,523.8 10,521.4 15,518.8 20,516.0 25,513.2 30,510.3 35,507.3 40,504.4 45,501.3 50,498.3 55,495.4 60,492.4 65,489.6 70,486.8 75,484.2 80,481.7 85,479.3 90,477.1 95,475.0 100,473.2 105,471.6 110,470.2 115,469.0 120,468.0 125,467.3 130,466.9 135,466.7 140,466.8 145,467.1 150,467.6 155,468.5 160,469.5 165,470.8 170,472.3 175,474.1 180,476.0 185,478.1 190,480.4 195,482.9 200,485.4 205,488.2 210,491.0 215,493.9 220,496.8 225,499.8 230,502.8 235,505.8 240,508.8 245,511.7 250,514.6 255,517.4 260,520.0 265,522.6 270,525.0 275,527.2 280,529.3 285,531.1 290,532.8 295,534.2 300,535.4 305,536.4 310,537.1 315,537.6 320,537.8 325,537.8 330,537.5 335,537.0 340,536.2 345,535.2 350,533.9 355,532.4 360,530.7 365,528.8 370,526.7 375,524.4 380,522.0 385,519.4 390,516.7 395,513.9 400,511.1" fill="none" stroke="#16a34a" stroke-width="1.1" opacity="0.28" />
    <polyline points="0,252.6 5,256.1 10,259.7 15,263.1 20,266.5 25,269.7 30,272.7 35,275.4 40,277.9 45,280.0 50,281.7 55,283.0 60,283.9 65,284.3 70,284.4 75,283.9 80,283.1 85,281.8 90,280.1 95,278.0 100,275.6 105,272.9 110,270.0 115,266.8 120,263.4 125,259.9 130,256.4 135,252.9 140,249.4 145,246.0 150,242.8 155,239.8 160,237.1 165,234.6 170,232.5 175,230.8 180,229.4 185,228.5 190,228.0 195,228.0 200,228.4 205,229.3 210,230.5 215,232.2 220,234.2 225,236.6 230,239.3 235,242.3 240,245.5 245,248.8 250,252.3 255,255.8 260,259.3 265,262.8 270,266.2 275,269.4 280,272.4 285,275.2 290,277.7 295,279.8 300,281.5 305,282.9 310,283.8 315,284.3 320,284.4 325,284.0 330,283.2 335,281.9 340,280.3 345,278.2 350,275.9 355,273.2 360,270.2 365,267.1 370,263.7 375,260.3 380,256.7 385,253.2 390,249.7 395,246.3 400,243.1" fill="none" stroke="#22c55e" stroke-width="2.7" opacity="0.23" />
    <polyline points="0,79.7 5,78.6 10,77.6 15,76.8 20,76.1 25,75.6 30,75.3 35,75.1 40,75.1 45,75.2 50,75.5 55,76.0 60,76.7 65,77.5 70,78.4 75,79.5 80,80.8 85,82.1 90,83.6 95,85.2 100,86.9 105,88.7 110,90.6 115,92.6 120,94.6 125,96.6 130,98.7 135,100.8 140,102.9 145,104.9 150,107.0 155,109.0 160,111.0 165,112.9 170,114.8 175,116.5 180,118.2 185,119.7 190,121.2 195,122.5 200,123.6 205,124.7 210,125.6 215,126.3 220,126.9 225,127.3 230,127.5 235,127.6 240,127.5 245,127.3 250,126.9 255,126.3 260,125.6 265,124.7 270,123.6 275,122.4 280,121.1 285,119.7 290,118.1 295,116.5 300,114.7 305,112.9 310,111.0 315,109.0 320,106.9 325,104.9 330,102.8 335,100.7 340,98.6 345,96.5 350,94.5 355,92.5 360,90.6 365,88.7 370,86.9 375,85.2 380,83.6 385,82.1 390,80.7 395,79.5 400,78.4" fill="none" stroke="#22c55e" stroke-width="2.1" opacity="0.23" />
    <polyline points="0,141.0 5,142.9 10,144.6 15,146.0 20,147.1 25,148.0 30,148.6 35,148.9 40,149.0 45,148.8 50,148.3 55,147.5 60,146.5 65,145.2 70,143.7 75,141.9 80,139.9 85,137.7 90,135.3 95,132.7 100,129.9 105,127.0 110,124.0 115,120.9 120,117.7 125,114.5 130,111.2 135,107.9 140,104.6 145,101.4 150,98.2 155,95.1 160,92.1 165,89.2 170,86.4 175,83.9 180,81.5 185,79.3 190,77.3 195,75.6 200,74.1 205,72.8 210,71.8 215,71.1 220,70.6 225,70.4 230,70.5 235,70.9 240,71.5 245,72.4 250,73.6 255,75.0 260,76.7 265,78.6 270,80.7 275,83.0 280,85.5 285,88.2 290,91.0 295,94.0 300,97.1 305,100.2 310,103.5 315,106.7 320,110.0 325,113.3 330,116.6 335,119.8 340,122.9 345,126.0 350,128.9 355,131.7 360,134.4 365,136.9 370,139.1 375,141.2 380,143.1 385,144.7 390,146.1 395,147.2 400,148.0" fill="none" stroke="#fbbf24" stroke-width="1.7" opacity="0.16" />
    <polyline points="0,261.8 5,259.4 10,257.1 15,254.8 20,252.5 25,250.4 30,248.3 35,246.3 40,244.5 45,242.7 50,241.1 55,239.5 60,238.1 65,236.9 70,235.7 75,234.8 80,233.9 85,233.2 90,232.7 95,232.3 100,232.1 105,232.0 110,232.1 115,232.4 120,232.8 125,233.3 130,234.0 135,234.9 140,235.9 145,237.0 150,238.3 155,239.7 160,241.3 165,243.0 170,244.7 175,246.6 180,248.6 185,250.7 190,252.8 195,255.1 200,257.4 205,259.7 210,262.2 215,264.6 220,267.1 225,269.6 230,272.1 235,274.6 240,277.1 245,279.5 250,282.0 255,284.4 260,286.7 265,289.0 270,291.2 275,293.4 280,295.4 285,297.4 290,299.2 295,301.0 300,302.6 305,304.1 310,305.5 315,306.8 320,307.9 325,308.9 330,309.7 335,310.4 340,310.9 345,311.3 350,311.5 355,311.5 360,311.4 365,311.2 370,310.8 375,310.2 380,309.5 385,308.6 390,307.6 395,306.4 400,305.1" fill="none" stroke="#22c55e" stroke-width="1.5" opacity="0.20" />
    <polyline points="0,381.2 5,379.5 10,377.7 15,376.0 20,374.1 25,372.3 30,370.5 35,368.7 40,366.9 45,365.2 50,363.4 55,361.7 60,360.1 65,358.5 70,356.9 75,355.4 80,354.0 85,352.7 90,351.5 95,350.3 100,349.3 105,348.3 110,347.5 115,346.7 120,346.1 125,345.6 130,345.2 135,344.9 140,344.7 145,344.7 150,344.7 155,344.9 160,345.2 165,345.6 170,346.2 175,346.8 180,347.6 185,348.5 190,349.4 195,350.5 200,351.7 205,352.9 210,354.3 215,355.7 220,357.1 225,358.7 230,360.3 235,362.0 240,363.7 245,365.4 250,367.2 255,369.0 260,370.8 265,372.6 270,374.4 275,376.2 280,378.0 285,379.8 290,381.5 295,383.2 300,384.8 305,386.4 310,387.9 315,389.4 320,390.8 325,392.1 330,393.3 335,394.4 340,395.5 345,396.4 350,397.2 355,397.9 360,398.5 365,399.0 370,399.4 375,399.7 380,399.8 385,399.8 390,399.7 395,399.5 400,399.2" fill="none" stroke="#16a34a" stroke-width="1.6" opacity="0.11" /></g>
  <polygon points="76.2,237.9 102.9,291.4 49.4,291.4" fill="#fbbf24" opacity="0.12" />
    <polygon points="315.0,445.9 338.1,469.0 315.0,492.0 292.0,469.0" fill="#16a34a" opacity="0.29" />
    <rect x="60.6" y="239.2" width="24.4" height="24.4" fill="#16a34a" opacity="0.40" />
    <rect x="307.6" y="446.0" width="38.4" height="38.4" fill="#fbbf24" opacity="0.32" />
    <rect x="93.4" y="109.1" width="79.5" height="79.5" fill="#fbbf24" opacity="0.23" />
    <circle cx="347.6" cy="319.9" r="39.2" fill="#fbbf24" opacity="0.13" />
    <polygon points="25.3,113.2 73.5,161.4 25.3,209.5 -22.8,161.4" fill="#22c55e" opacity="0.17" />
    <polygon points="127.1,104.2 155.8,161.6 98.4,161.6" fill="#fbbf24" opacity="0.37" />
    <polygon points="137.3,1.2 149.5,13.4 137.3,25.6 125.1,13.4" fill="#16a34a" opacity="0.15" />
    <polygon points="74.1,377.4 96.3,399.6 74.1,421.7 51.9,399.6" fill="#22c55e" opacity="0.13" />
    <rect x="185.8" y="287.1" width="25.2" height="25.2" fill="#fbbf24" opacity="0.14" />
  
  <!-- Text background banner -->
  <defs>
    <linearGradient id="text-bg-25" x1="0%" y1="0%" x2="100%" y2="0%">
      <stop offset="0%" style="stop-color:#000000;stop-opacity:0.7" />
      <stop offset="50%" style="stop-color:#22c55e;stop-opacity:0.4" />
      <stop offset="100%" style="stop-color:#000000;stop-opacity:0.7" />
    </linearGradient>
  </defs>
  <rect x="0" y="494" width="400" height="56" fill="url(#text-bg-25)" />

  <!-- Text shadow -->
  <text x="200" y="522" font-family="system-ui, -apple-system, sans-serif" font-size="24" font-weight="bold" text-anchor="middle" fill="#000000" opacity="0.8">Backyard BBQ Battleground</text>

  <!-- Main text -->
  <text x="200" y="520" font-family="system-ui, -apple-system, sans-serif" font-size="24" font-weight="bold" text-anchor="middle" fill="#ffffff">Backyard BBQ Battleground</text>
  
  <!-- Rarity border -->
  <rect x="4" y="4" width="392" height="542"
        fill="none" stroke="#eab308" stroke-width="8" rx="8" ry="8" />
</svg>