<?xml version="1.0" encoding="UTF-8"?>
<svg xmlns="http://www.w3.org/2000/svg" viewBox="0 0 400 550" width="400" height="550">
  <defs>
    <linearGradient id="bg-gradient-TRAP_001" x1="0%" y1="0%" x2="100%" y2="100%">
      <stop offset="0%" style="stop-color:#64748b;stop-opacity:0.26" />
      <stop offset="50%" style="stop-color:#475569;stop-opacity:0.4" />
      <stop offset="100%" style="stop-color:#64748b;stop-opacity:0.26" />
    </linearGradient>
    
  <filter id="shadow-TRAP_001">
    <feDropShadow dx="0" dy="2" stdDeviation="3" flood-opacity="0.8"/>
  </filter>
  </defs>
  <rect width="400" height="550" fill="url(#bg-gradient-0.21708720363676548)" />
  <g opacity="0.3"><circle cx="4.0" cy="3.3" r="6" fill="#64748b" />
    <circle cx="7.9" cy="78.9" r="6" fill="#475569" />
    <circle cx="2.2" cy="131.0" r="6" fill="#475569" />
    <circle cx="9.7" cy="183.4" r="6" fill="#64748b" />
    <circle cx="6.8" cy="231.1" r="6" fill="#ef4444" />
    <circle cx="7.3" cy="253.1" r="6" fill="#64748b" />
    <circle cx="3.8" cy="277.4" r="6" fill="#ef4444" />
    <circle cx="0.8" cy="307.0" r="6" fill="#475569" />
    <circle cx="2.5" cy="433.0" r="6" fill="#475569" />
    <circle cx="6.4" cy="458.2" r="6" fill="#64748b" />
    <circle cx="1.9" cy="476.2" r="6" fill="#475569" />
    <circle cx="3.3" cy="503.7" r="6" fill="#64748b" />
    <circle cx="5.5" cy="530.3" r="6" fill="#475569" />
    <circle cx="34.5" cy="4.6" r="6" fill="#64748b" />
    <circle cx="28.8" cy="31.2" r="6" fill="#475569" />
    <circle cx="29.4" cy="77.6" r="6" fill="#475569" />
    <circle cx="30.9" cy="132.5" r="6" fill="#64748b" />
    <circle cx="31.5" cy="180.1" r="6" fill="#ef4444" />
    <circle cx="28.8" cy="203.9" r="6" fill="#64748b" />
    <circle cx="29.9" cy="228.1" r="6" fill="#ef4444" />
    <circle cx="34.6" cy="252.4" r="6" fill="#475569" />
    <circle cx="30.5" cy="284.4" r="6" fill="#64748b" />
    <circle cx="27.9" cy="302.1" r="6" fill="#64748b" />
    <circle cx="32.6" cy="332.9" r="6" fill="#ef4444" />
    <circle cx="34.8" cy="357.6" r="6" fill="#64748b" />
    <circle cx="33.1" cy="384.5" r="6" fill="#ef4444" />
    <circle cx="31.0" cy="452.3" r="6" fill="#64748b" />
    <circle cx="33.7" cy="505.8" r="6" fill="#ef4444" />
    <circle cx="32.2" cy="534.3" r="6" fill="#475569" />
    <circle cx="59.7" cy="29.2" r="6" fill="#ef4444" />
    <circle cx="51.8" cy="58.0" r="6" fill="#475569" />
    <circle cx="59.2" cy="84.3" r="6" fill="#ef4444" />
    <circle cx="56.7" cy="108.2" r="6" fill="#475569" />
    <circle cx="57.4" cy="158.2" r="6" fill="#ef4444" />
    <circle cx="50.0" cy="184.1" r="6" fill="#475569" />
    <circle cx="55.8" cy="227.1" r="6" fill="#64748b" />
    <circle cx="51.4" cy="305.5" r="6" fill="#64748b" />
    <circle cx="59.2" cy="325.1" r="6" fill="#ef4444" />
    <circle cx="57.2" cy="352.2" r="6" fill="#ef4444" />
    <circle cx="51.0" cy="401.7" r="6" fill="#475569" />
    <circle cx="50.0" cy="429.1" r="6" fill="#475569" />
    <circle cx="57.6" cy="453.3" r="6" fill="#64748b" />
    <circle cx="59.2" cy="503.3" r="6" fill="#ef4444" />
    <circle cx="54.4" cy="533.2" r="6" fill="#64748b" />
    <circle cx="79.7" cy="9.2" r="6" fill="#475569" />
    <circle cx="84.1" cy="32.9" r="6" fill="#64748b" />
    <circle cx="84.6" cy="78.8" r="6" fill="#ef4444" />
    <circle cx="83.3" cy="103.1" r="6" fill="#64748b" />
    <circle cx="75.3" cy="127.7" r="6" fill="#475569" />
    <circle cx="82.7" cy="158.5" r="6" fill="#475569" />
    <circle cx="83.6" cy="209.9" r="6" fill="#ef4444" />
    <circle cx="82.0" cy="230.2" r="6" fill="#ef4444" />
    <circle cx="80.4" cy="254.7" r="6" fill="#ef4444" />
    <circle cx="80.5" cy="281.7" r="6" fill="#ef4444" />
    <circle cx="78.3" cy="305.8" r="6" fill="#475569" />
    <circle cx="81.0" cy="326.1" r="6" fill="#475569" />
    <circle cx="75.3" cy="379.3" r="6" fill="#475569" />
    <circle cx="82.8" cy="401.6" r="6" fill="#475569" />
    <circle cx="85.0" cy="429.0" r="6" fill="#64748b" />
    <circle cx="80.2" cy="457.6" r="6" fill="#ef4444" />
    <circle cx="77.3" cy="476.5" r="6" fill="#475569" />
    <circle cx="76.8" cy="509.6" r="6" fill="#64748b" />
    <circle cx="75.7" cy="526.9" r="6" fill="#475569" />
    <circle cx="100.2" cy="8.2" r="6" fill="#475569" />
    <circle cx="109.0" cy="51.8" r="6" fill="#475569" />
    <circle cx="101.7" cy="81.3" r="6" fill="#ef4444" />
    <circle cx="104.7" cy="107.7" r="6" fill="#ef4444" />
    <circle cx="104.8" cy="126.7" r="6" fill="#475569" />
    <circle cx="103.6" cy="209.8" r="6" fill="#475569" />
    <circle cx="105.2" cy="226.2" r="6" fill="#ef4444" />
    <circle cx="108.5" cy="284.4" r="6" fill="#64748b" />
    <circle cx="105.5" cy="304.5" r="6" fill="#475569" />
    <circle cx="103.6" cy="334.7" r="6" fill="#475569" />
    <circle cx="104.2" cy="357.3" r="6" fill="#ef4444" />
    <circle cx="107.4" cy="406.3" r="6" fill="#475569" />
    <circle cx="102.8" cy="431.5" r="6" fill="#ef4444" />
    <circle cx="104.0" cy="453.6" r="6" fill="#ef4444" />
    <circle cx="106.5" cy="506.9" r="6" fill="#475569" />
    <circle cx="102.4" cy="532.0" r="6" fill="#475569" />
    <circle cx="129.8" cy="0.4" r="6" fill="#64748b" />
    <circle cx="125.6" cy="25.4" r="6" fill="#64748b" />
    <circle cx="130.7" cy="52.7" r="6" fill="#475569" />
    <circle cx="132.4" cy="75.4" r="6" fill="#475569" />
    <circle cx="127.4" cy="132.6" r="6" fill="#ef4444" />
    <circle cx="132.6" cy="158.1" r="6" fill="#475569" />
    <circle cx="127.8" cy="232.8" r="6" fill="#64748b" />
    <circle cx="129.0" cy="253.5" r="6" fill="#ef4444" />
    <circle cx="129.0" cy="304.8" r="6" fill="#475569" />
    <circle cx="134.0" cy="332.0" r="6" fill="#475569" />
    <circle cx="133.7" cy="407.2" r="6" fill="#475569" />
    <circle cx="134.6" cy="477.2" r="6" fill="#ef4444" />
    <circle cx="130.2" cy="531.4" r="6" fill="#ef4444" />
    <circle cx="152.3" cy="2.4" r="6" fill="#64748b" />
    <circle cx="152.6" cy="26.2" r="6" fill="#ef4444" />
    <circle cx="150.1" cy="101.9" r="6" fill="#475569" />
    <circle cx="154.2" cy="133.8" r="6" fill="#475569" />
    <circle cx="158.8" cy="155.7" r="6" fill="#64748b" />
    <circle cx="157.3" cy="178.4" r="6" fill="#64748b" />
    <circle cx="159.4" cy="207.6" r="6" fill="#64748b" />
    <circle cx="159.1" cy="250.7" r="6" fill="#475569" />
    <circle cx="159.2" cy="276.3" r="6" fill="#ef4444" />
    <circle cx="157.3" cy="305.9" r="6" fill="#475569" />
    <circle cx="153.3" cy="326.7" r="6" fill="#64748b" />
    <circle cx="154.8" cy="350.3" r="6" fill="#64748b" />
    <circle cx="153.2" cy="383.1" r="6" fill="#475569" />
    <circle cx="156.2" cy="400.4" r="6" fill="#64748b" />
    <circle cx="150.5" cy="428.2" r="6" fill="#ef4444" />
    <circle cx="157.4" cy="475.1" r="6" fill="#64748b" />
    <circle cx="156.2" cy="529.1" r="6" fill="#ef4444" />
    <circle cx="176.0" cy="8.1" r="6" fill="#475569" />
    <circle cx="181.1" cy="50.9" r="6" fill="#475569" />
    <circle cx="180.4" cy="81.9" r="6" fill="#475569" />
    <circle cx="179.1" cy="107.7" r="6" fill="#64748b" />
    <circle cx="177.7" cy="131.4" r="6" fill="#ef4444" />
    <circle cx="182.9" cy="156.0" r="6" fill="#64748b" />
    <circle cx="177.8" cy="207.5" r="6" fill="#64748b" />
    <circle cx="183.5" cy="225.5" r="6" fill="#475569" />
    <circle cx="175.2" cy="259.6" r="6" fill="#64748b" />
    <circle cx="184.0" cy="327.4" r="6" fill="#ef4444" />
    <circle cx="184.2" cy="354.5" r="6" fill="#ef4444" />
    <circle cx="184.0" cy="433.1" r="6" fill="#64748b" />
    <circle cx="182.8" cy="503.4" r="6" fill="#475569" />
    <circle cx="200.3" cy="29.2" r="6" fill="#475569" />
    <circle cx="204.2" cy="53.0" r="6" fill="#64748b" />
    <circle cx="203.1" cy="100.3" r="6" fill="#64748b" />
    <circle cx="210.0" cy="151.1" r="6" fill="#475569" />
    <circle cx="200.3" cy="207.9" r="6" fill="#475569" />
    <circle cx="203.3" cy="228.9" r="6" fill="#64748b" />
    <circle cx="201.7" cy="253.7" r="6" fill="#475569" />
    <circle cx="204.1" cy="279.5" r="6" fill="#475569" />
    <circle cx="203.2" cy="306.4" r="6" fill="#ef4444" />
    <circle cx="206.3" cy="325.2" r="6" fill="#ef4444" />
    <circle cx="205.3" cy="353.6" r="6" fill="#475569" />
    <circle cx="205.8" cy="377.0" r="6" fill="#ef4444" />
    <circle cx="207.7" cy="403.8" r="6" fill="#475569" />
    <circle cx="200.1" cy="431.7" r="6" fill="#475569" />
    <circle cx="205.6" cy="455.7" r="6" fill="#475569" />
    <circle cx="202.9" cy="476.0" r="6" fill="#64748b" />
    <circle cx="201.2" cy="506.3" r="6" fill="#475569" />
    <circle cx="206.7" cy="534.3" r="6" fill="#475569" />
    <circle cx="231.8" cy="8.3" r="6" fill="#ef4444" />
    <circle cx="233.1" cy="77.8" r="6" fill="#64748b" />
    <circle cx="226.9" cy="108.8" r="6" fill="#475569" />
    <circle cx="234.9" cy="132.7" r="6" fill="#475569" />
    <circle cx="227.2" cy="151.6" r="6" fill="#475569" />
    <circle cx="232.2" cy="183.8" r="6" fill="#475569" />
    <circle cx="231.1" cy="200.8" r="6" fill="#ef4444" />
    <circle cx="233.9" cy="225.8" r="6" fill="#ef4444" />
    <circle cx="233.8" cy="308.7" r="6" fill="#64748b" />
    <circle cx="234.9" cy="381.8" r="6" fill="#64748b" />
    <circle cx="231.5" cy="427.6" r="6" fill="#ef4444" />
    <circle cx="225.9" cy="455.9" r="6" fill="#475569" />
    <circle cx="233.1" cy="481.0" r="6" fill="#64748b" />
    <circle cx="228.6" cy="507.6" r="6" fill="#64748b" />
    <circle cx="229.7" cy="528.4" r="6" fill="#475569" />
    <circle cx="252.4" cy="0.9" r="6" fill="#475569" />
    <circle cx="252.4" cy="30.8" r="6" fill="#ef4444" />
    <circle cx="258.3" cy="58.2" r="6" fill="#ef4444" />
    <circle cx="252.2" cy="75.5" r="6" fill="#64748b" />
    <circle cx="251.3" cy="125.6" r="6" fill="#475569" />
    <circle cx="254.4" cy="175.8" r="6" fill="#ef4444" />
    <circle cx="253.9" cy="209.7" r="6" fill="#ef4444" />
    <circle cx="257.0" cy="231.4" r="6" fill="#64748b" />
    <circle cx="252.8" cy="252.8" r="6" fill="#ef4444" />
    <circle cx="255.6" cy="329.3" r="6" fill="#64748b" />
    <circle cx="256.6" cy="355.2" r="6" fill="#ef4444" />
    <circle cx="258.8" cy="377.2" r="6" fill="#475569" />
    <circle cx="251.4" cy="402.8" r="6" fill="#ef4444" />
    <circle cx="255.8" cy="428.7" r="6" fill="#475569" />
    <circle cx="254.6" cy="454.1" r="6" fill="#ef4444" />
    <circle cx="250.8" cy="483.9" r="6" fill="#ef4444" />
    <circle cx="253.0" cy="503.3" r="6" fill="#64748b" />
    <circle cx="275.9" cy="27.6" r="6" fill="#64748b" />
    <circle cx="281.0" cy="57.2" r="6" fill="#64748b" />
    <circle cx="278.0" cy="75.1" r="6" fill="#475569" />
    <circle cx="280.8" cy="125.1" r="6" fill="#64748b" />
    <circle cx="276.2" cy="159.9" r="6" fill="#475569" />
    <circle cx="280.9" cy="203.0" r="6" fill="#475569" />
    <circle cx="282.9" cy="232.8" r="6" fill="#ef4444" />
    <circle cx="277.0" cy="256.3" r="6" fill="#475569" />
    <circle cx="283.7" cy="280.4" r="6" fill="#ef4444" />
    <circle cx="278.6" cy="304.2" r="6" fill="#ef4444" />
    <circle cx="282.0" cy="331.7" r="6" fill="#64748b" />
    <circle cx="276.2" cy="358.5" r="6" fill="#475569" />
    <circle cx="277.5" cy="380.8" r="6" fill="#475569" />
    <circle cx="275.5" cy="403.5" r="6" fill="#64748b" />
    <circle cx="280.5" cy="430.4" r="6" fill="#ef4444" />
    <circle cx="282.4" cy="478.5" r="6" fill="#475569" />
    <circle cx="279.1" cy="532.0" r="6" fill="#475569" />
    <circle cx="305.7" cy="4.4" r="6" fill="#ef4444" />
    <circle cx="306.3" cy="32.7" r="6" fill="#64748b" />
    <circle cx="300.5" cy="128.0" r="6" fill="#64748b" />
    <circle cx="309.8" cy="200.7" r="6" fill="#ef4444" />
    <circle cx="308.2" cy="234.1" r="6" fill="#64748b" />
    <circle cx="308.3" cy="256.1" r="6" fill="#475569" />
    <circle cx="302.4" cy="279.6" r="6" fill="#64748b" />
    <circle cx="301.6" cy="334.6" r="6" fill="#ef4444" />
    <circle cx="309.3" cy="350.3" r="6" fill="#ef4444" />
    <circle cx="309.2" cy="383.1" r="6" fill="#ef4444" />
    <circle cx="300.3" cy="405.6" r="6" fill="#475569" />
    <circle cx="304.1" cy="433.9" r="6" fill="#ef4444" />
    <circle cx="304.5" cy="456.7" r="6" fill="#ef4444" />
    <circle cx="302.2" cy="503.7" r="6" fill="#ef4444" />
    <circle cx="331.4" cy="28.6" r="6" fill="#475569" />
    <circle cx="329.2" cy="50.3" r="6" fill="#64748b" />
    <circle cx="333.2" cy="81.5" r="6" fill="#64748b" />
    <circle cx="328.1" cy="126.2" r="6" fill="#475569" />
    <circle cx="328.2" cy="176.2" r="6" fill="#64748b" />
    <circle cx="329.9" cy="208.8" r="6" fill="#475569" />
    <circle cx="334.8" cy="251.3" r="6" fill="#ef4444" />
    <circle cx="329.7" cy="282.5" r="6" fill="#475569" />
    <circle cx="326.7" cy="304.2" r="6" fill="#475569" />
    <circle cx="330.5" cy="327.7" r="6" fill="#ef4444" />
    <circle cx="326.8" cy="350.6" r="6" fill="#475569" />
    <circle cx="327.1" cy="384.2" r="6" fill="#ef4444" />
    <circle cx="326.4" cy="408.0" r="6" fill="#ef4444" />
    <circle cx="332.2" cy="530.8" r="6" fill="#475569" />
    <circle cx="353.2" cy="6.3" r="6" fill="#475569" />
    <circle cx="355.0" cy="55.4" r="6" fill="#ef4444" />
    <circle cx="352.2" cy="76.4" r="6" fill="#475569" />
    <circle cx="351.8" cy="104.8" r="6" fill="#475569" />
    <circle cx="355.5" cy="156.0" r="6" fill="#ef4444" />
    <circle cx="358.0" cy="181.5" r="6" fill="#64748b" />
    <circle cx="355.5" cy="202.9" r="6" fill="#64748b" />
    <circle cx="356.7" cy="233.3" r="6" fill="#475569" />
    <circle cx="353.6" cy="253.8" r="6" fill="#64748b" />
    <circle cx="357.7" cy="325.4" r="6" fill="#64748b" />
    <circle cx="358.5" cy="376.8" r="6" fill="#ef4444" />
    <circle cx="354.1" cy="403.7" r="6" fill="#475569" />
    <circle cx="354.3" cy="430.3" r="6" fill="#64748b" />
    <circle cx="353.5" cy="480.7" r="6" fill="#475569" />
    <circle cx="353.5" cy="534.5" r="6" fill="#475569" />
    <circle cx="383.5" cy="5.4" r="6" fill="#64748b" />
    <circle cx="377.8" cy="50.7" r="6" fill="#475569" />
    <circle cx="377.4" cy="78.4" r="6" fill="#64748b" />
    <circle cx="379.6" cy="101.8" r="6" fill="#475569" />
    <circle cx="382.5" cy="156.5" r="6" fill="#475569" />
    <circle cx="382.9" cy="178.6" r="6" fill="#475569" />
    <circle cx="383.6" cy="200.6" r="6" fill="#475569" />
    <circle cx="382.5" cy="226.8" r="6" fill="#ef4444" />
    <circle cx="381.3" cy="250.4" r="6" fill="#ef4444" />
    <circle cx="382.7" cy="284.9" r="6" fill="#475569" />
    <circle cx="375.3" cy="353.3" r="6" fill="#ef4444" />
    <circle cx="383.4" cy="380.4" r="6" fill="#ef4444" />
    <circle cx="384.7" cy="405.6" r="6" fill="#64748b" />
    <circle cx="376.4" cy="452.0" r="6" fill="#64748b" />
    <circle cx="380.1" cy="476.2" r="6" fill="#64748b" />
    <circle cx="376.2" cy="529.1" r="6" fill="#475569" /></g>
  <polygon points="8.2,72.0 32.8,121.1 -16.3,121.1" fill="#ef4444" opacity="0.31" />
    <circle cx="287.0" cy="422.1" r="21.2" fill="#64748b" opacity="0.35" />
    <rect x="21.3" y="-10.3" width="38.0" height="38.0" fill="#64748b" opacity="0.26" />
    <rect x="255.3" y="200.9" width="53.6" height="53.6" fill="#64748b" opacity="0.34" />
    <circle cx="207.2" cy="81.1" r="27.5" fill="#64748b" opacity="0.14" />
    <circle cx="80.0" cy="222.0" r="45.0" fill="#ef4444" opacity="0.31" />
    <circle cx="19.4" cy="116.5" r="35.8" fill="#ef4444" opacity="0.22" />
    <rect x="110.9" y="41.6" width="80.2" height="80.2" fill="#ef4444" opacity="0.23" />
    <rect x="286.8" y="-5.8" width="62.2" height="62.2" fill="#475569" opacity="0.37" />
    <circle cx="32.4" cy="302.8" r="30.5" fill="#475569" opacity="0.12" />
    <rect x="-18.2" y="239.9" width="70.8" height="70.8" fill="#475569" opacity="0.12" />
  
  <!-- Text background banner -->
  <defs>
    <linearGradient id="text-bg-20" x1="0%" y1="0%" x2="100%" y2="0%">
      <stop offset="0%" style="stop-color:#000000;stop-opacity:0.7" />
      <stop offset="50%" style="stop-color:#64748b;stop-opacity:0.4" />
      <stop offset="100%" style="stop-color:#000000;stop-opacity:0.7" />
    </linearGradient>
  </defs>
  <rect x="0" y="494" width="400" height="56" fill="url(#text-bg-20)" />

  <!-- Text shadow -->
  <text x="200" y="522" font-family="system-ui, -apple-system, sans-serif" font-size="24" font-weight="bold" text-anchor="middle" fill="#000000" opacity="0.8">Garage Sale Gangbang</text>

  <!-- Main text -->
  <text x="200" y="520" font-family="system-ui, -apple-system, sans-serif" font-size="24" font-weight="bold" text-anchor="middle" fill="#ffffff">Garage Sale Gangbang</text>
  
  <!-- Rarity border -->
  <rect x="4" y="4" width="392" height="542"
        fill="none" stroke="#eab308" stroke-width="8" rx="8" ry="8" />
</svg>