<?xml version="1.0" encoding="UTF-8"?>
<svg xmlns="http://www.w3.org/2000/svg" viewBox="0 0 400 550" width="400" height="550">
  <defs>
    <linearGradient id="bg-gradient-TRAP_002" x1="0%" y1="0%" x2="100%" y2="100%">
      <stop offset="0%" style="stop-color:#64748b;stop-opacity:0.26" />
      <stop offset="50%" style="stop-color:#475569;stop-opacity:0.4" />
      <stop offset="100%" style="stop-color:#64748b;stop-opacity:0.26" />
    </linearGradient>
    
  <filter id="shadow-TRAP_002">
    <feDropShadow dx="0" dy="2" stdDeviation="3" flood-opacity="0.8"/>
  </filter>
  </defs>
  <rect width="400" height="550" fill="url(#bg-gradient-0.17753162002190948)" />
  <g opacity="0.3"><line x1="107.1" y1="0" x2="107.1" y2="550" stroke="#ef4444" stroke-width="1.7" opacity="0.32" />
    <line x1="0" y1="489.4" x2="400" y2="489.4" stroke="#ef4444" stroke-width="1.4" opacity="0.39" />
    <line x1="304.9" y1="0" x2="304.9" y2="550" stroke="#64748b" stroke-width="3.5" opacity="0.37" />
    <line x1="245.9" y1="0" x2="245.9" y2="550" stroke="#475569" stroke-width="4.0" opacity="0.15" />
    <line x1="0" y1="231.8" x2="400" y2="231.8" stroke="#64748b" stroke-width="3.2" opacity="0.11" />
    <line x1="0" y1="302.1" x2="400" y2="302.1" stroke="#ef4444" stroke-width="3.7" opacity="0.23" />
    <line x1="0" y1="117.6" x2="400" y2="117.6" stroke="#ef4444" stroke-width="2.4" opacity="0.35" />
    <line x1="0" y1="226.7" x2="400" y2="226.7" stroke="#475569" stroke-width="2.8" opacity="0.18" />
    <line x1="0" y1="277.0" x2="400" y2="277.0" stroke="#ef4444" stroke-width="2.5" opacity="0.24" />
    <line x1="53.2" y1="0" x2="53.2" y2="550" stroke="#ef4444" stroke-width="3.0" opacity="0.20" />
    <line x1="228.0" y1="0" x2="228.0" y2="550" stroke="#64748b" stroke-width="3.3" opacity="0.19" />
    <line x1="259.8" y1="0" x2="259.8" y2="550" stroke="#64748b" stroke-width="3.3" opacity="0.17" />
    <line x1="204.1" y1="0" x2="204.1" y2="550" stroke="#475569" stroke-width="2.6" opacity="0.23" />
    <line x1="330.4" y1="0" x2="330.4" y2="550" stroke="#475569" stroke-width="3.5" opacity="0.39" />
    <line x1="68.3" y1="0" x2="68.3" y2="550" stroke="#475569" stroke-width="2.5" opacity="0.15" /></g>
  <rect x="219.5" y="90.3" width="44.6" height="44.6" fill="#475569" opacity="0.23" />
    <rect x="64.7" y="92.4" width="57.1" height="57.1" fill="#475569" opacity="0.14" />
    <rect x="10.2" y="174.3" width="95.4" height="95.4" fill="#64748b" opacity="0.11" />
    <rect x="261.9" y="383.7" width="82.4" height="82.4" fill="#64748b" opacity="0.25" />
    <circle cx="379.4" cy="55.0" r="11.8" fill="#64748b" opacity="0.24" />
    <polygon points="398.2,74.6 425.4,101.8 398.2,129.1 370.9,101.8" fill="#ef4444" opacity="0.15" />
    <polygon points="56.1,131.0 72.3,147.2 56.1,163.4 39.9,147.2" fill="#64748b" opacity="0.34" />
    <rect x="166.8" y="221.4" width="56.6" height="56.6" fill="#64748b" opacity="0.25" />
  
  <!-- Text background banner -->
  <defs>
    <linearGradient id="text-bg-20" x1="0%" y1="0%" x2="100%" y2="0%">
      <stop offset="0%" style="stop-color:#000000;stop-opacity:0.7" />
      <stop offset="50%" style="stop-color:#64748b;stop-opacity:0.4" />
      <stop offset="100%" style="stop-color:#000000;stop-opacity:0.7" />
    </linearGradient>
  </defs>
  <rect x="0" y="494" width="400" height="56" fill="url(#text-bg-20)" />

  <!-- Text shadow -->
  <text x="200" y="522" font-family="system-ui, -apple-system, sans-serif" font-size="24" font-weight="bold" text-anchor="middle" fill="#000000" opacity="0.8">HOA Violation Vortex</text>

  <!-- Main text -->
  <text x="200" y="520" font-family="system-ui, -apple-system, sans-serif" font-size="24" font-weight="bold" text-anchor="middle" fill="#ffffff">HOA Violation Vortex</text>
  
  <!-- Rarity border -->
  <rect x="3" y="3" width="394" height="544"
        fill="none" stroke="#3b82f6" stroke-width="6" rx="8" ry="8" />
</svg>