<?xml version="1.0" encoding="UTF-8"?>
<svg xmlns="http://www.w3.org/2000/svg" viewBox="0 0 400 550" width="400" height="550">
  <defs>
    <linearGradient id="bg-gradient-UNCLE_UPROAR_001" x1="0%" y1="0%" x2="100%" y2="100%">
      <stop offset="0%" style="stop-color:#64748b;stop-opacity:0.26" />
      <stop offset="50%" style="stop-color:#94a3b8;stop-opacity:0.4" />
      <stop offset="100%" style="stop-color:#64748b;stop-opacity:0.26" />
    </linearGradient>
    
  <filter id="shadow-UNCLE_UPROAR_001">
    <feDropShadow dx="0" dy="2" stdDeviation="3" flood-opacity="0.8"/>
  </filter>
  </defs>
  <rect width="400" height="550" fill="url(#bg-gradient-0.7150249765254557)" />
  <g opacity="0.3"><polyline points="0,68.0 5,67.7 10,67.3 15,67.1 20,66.9 25,66.9 30,66.9 35,67.0 40,67.1 45,67.4 50,67.7 55,68.1 60,68.6 65,69.1 70,69.8 75,70.5 80,71.2 85,72.1 90,73.0 95,73.9 100,74.9 105,76.0 110,77.1 115,78.2 120,79.4 125,80.6 130,81.8 135,83.1 140,84.3 145,85.6 150,86.9 155,88.2 160,89.5 165,90.8 170,92.1 175,93.4 180,94.6 185,95.8 190,97.0 195,98.2 200,99.3 205,100.3 210,101.4 215,102.3 220,103.2 225,104.1 230,104.9 235,105.6 240,106.2 245,106.8 250,107.3 255,107.7 260,108.1 265,108.3 270,108.5 275,108.6 280,108.7 285,108.6 290,108.5 295,108.3 300,108.0 305,107.6 310,107.2 315,106.6 320,106.0 325,105.4 330,104.6 335,103.8 340,103.0 345,102.0 350,101.1 355,100.0 360,99.0 365,97.8 370,96.7 375,95.5 380,94.3 385,93.0 390,91.7 395,90.5 400,89.2" fill="none" stroke="#94a3b8" stroke-width="2.1" opacity="0.24" />
    <polyline points="0,506.0 5,503.8 10,501.6 15,499.4 20,497.3 25,495.3 30,493.3 35,491.5 40,489.7 45,488.1 50,486.5 55,485.1 60,483.9 65,482.8 70,481.8 75,481.0 80,480.4 85,479.9 90,479.6 95,479.5 100,479.5 105,479.7 110,480.1 115,480.6 120,481.3 125,482.2 130,483.2 135,484.4 140,485.7 145,487.2 150,488.7 155,490.4 160,492.2 165,494.1 170,496.1 175,498.2 180,500.3 185,502.5 190,504.7 195,506.9 200,509.2 205,511.4 210,513.7 215,515.9 220,518.0 225,520.1 230,522.2 235,524.2 240,526.1 245,527.8 250,529.5 255,531.1 260,532.5 265,533.8 270,535.0 275,536.0 280,536.8 285,537.5 290,538.0 295,538.4 300,538.5 305,538.6 310,538.4 315,538.1 320,537.6 325,536.9 330,536.1 335,535.1 340,534.0 345,532.7 350,531.3 355,529.7 360,528.1 365,526.3 370,524.4 375,522.4 380,520.4 385,518.3 390,516.1 395,513.9 400,511.7" fill="none" stroke="#64748b" stroke-width="2.5" opacity="0.26" />
    <polyline points="0,274.3 5,277.0 10,279.7 15,282.3 20,284.9 25,287.3 30,289.7 35,291.9 40,293.9 45,295.8 50,297.5 55,299.0 60,300.3 65,301.4 70,302.3 75,302.9 80,303.3 85,303.5 90,303.4 95,303.1 100,302.5 105,301.8 110,300.8 115,299.5 120,298.1 125,296.5 130,294.7 135,292.7 140,290.5 145,288.3 150,285.8 155,283.3 160,280.7 165,278.1 170,275.3 175,272.6 180,269.8 185,267.1 190,264.4 195,261.7 200,259.1 205,256.6 210,254.2 215,252.0 220,249.8 225,247.9 230,246.1 235,244.5 240,243.1 245,242.0 250,241.0 255,240.3 260,239.8 265,239.5 270,239.5 275,239.7 280,240.1 285,240.8 290,241.7 295,242.8 300,244.2 305,245.7 310,247.5 315,249.4 320,251.4 325,253.7 330,256.0 335,258.5 340,261.1 345,263.7 350,266.4 355,269.2 360,271.9 365,274.7 370,277.4 375,280.1 380,282.7 385,285.3 390,287.7 395,290.0 400,292.2" fill="none" stroke="#fbbf24" stroke-width="1.5" opacity="0.12" />
    <polyline points="0,269.4 5,271.1 10,273.0 15,275.0 20,277.1 25,279.3 30,281.6 35,283.9 40,286.1 45,288.3 50,290.4 55,292.4 60,294.2 65,295.8 70,297.2 75,298.4 80,299.3 85,300.0 90,300.3 95,300.4 100,300.2 105,299.7 110,299.0 115,297.9 120,296.7 125,295.2 130,293.5 135,291.6 140,289.6 145,287.4 150,285.2 155,283.0 160,280.7 165,278.4 170,276.3 175,274.2 180,272.2 185,270.4 190,268.8 195,267.4 200,266.3 205,265.4 210,264.7 215,264.4 220,264.3 225,264.6 230,265.1 235,265.8 240,266.9 245,268.2 250,269.7 255,271.4 260,273.3 265,275.3 270,277.5 275,279.7 280,282.0 285,284.2 290,286.5 295,288.6 300,290.7 305,292.7 310,294.5 315,296.0 320,297.4 325,298.5 330,299.4 335,300.0 340,300.4 345,300.4 350,300.2 355,299.6 360,298.8 365,297.8 370,296.5 375,294.9 380,293.2 385,291.3 390,289.3 395,287.1 400,284.9" fill="none" stroke="#fbbf24" stroke-width="2.0" opacity="0.21" />
    <polyline points="0,35.0 5,35.8 10,37.2 15,39.1 20,41.5 25,44.3 30,47.5 35,51.0 40,54.8 45,58.7 50,62.7 55,66.6 60,70.5 65,74.2 70,77.6 75,80.7 80,83.4 85,85.7 90,87.4 95,88.6 100,89.2 105,89.2 110,88.7 115,87.6 120,85.9 125,83.7 130,81.1 135,78.0 140,74.6 145,71.0 150,67.1 155,63.1 160,59.2 165,55.2 170,51.4 175,47.9 180,44.6 185,41.8 190,39.3 195,37.4 200,36.0 205,35.1 210,34.8 215,35.1 220,36.0 225,37.4 230,39.4 235,41.8 240,44.7 245,48.0 250,51.5 255,55.3 260,59.3 265,63.2 270,67.2 275,71.1 280,74.7 285,78.1 290,81.2 295,83.8 300,85.9 305,87.6 310,88.7 315,89.2 320,89.2 325,88.6 330,87.4 335,85.6 340,83.4 345,80.7 350,77.5 355,74.1 360,70.4 365,66.5 370,62.6 375,58.6 380,54.7 385,50.9 390,47.4 395,44.2 400,41.4" fill="none" stroke="#94a3b8" stroke-width="1.7" opacity="0.11" />
    <polyline points="0,332.2 5,334.5 10,336.8 15,339.1 20,341.3 25,343.5 30,345.6 35,347.6 40,349.5 45,351.2 50,352.8 55,354.3 60,355.6 65,356.7 70,357.7 75,358.4 80,359.0 85,359.3 90,359.5 95,359.4 100,359.2 105,358.7 110,358.0 115,357.1 120,356.1 125,354.9 130,353.4 135,351.9 140,350.2 145,348.3 150,346.4 155,344.3 160,342.2 165,340.0 170,337.7 175,335.4 180,333.1 185,330.8 190,328.5 195,326.3 200,324.2 205,322.1 210,320.1 215,318.2 220,316.5 225,314.9 230,313.4 235,312.1 240,311.0 245,310.1 250,309.4 255,308.8 260,308.5 265,308.4 270,308.5 275,308.8 280,309.3 285,310.0 290,310.9 295,311.9 300,313.2 305,314.6 310,316.2 315,317.9 320,319.8 325,321.8 330,323.8 335,326.0 340,328.2 345,330.5 350,332.8 355,335.1 360,337.4 365,339.6 370,341.8 375,344.0 380,346.1 385,348.0 390,349.9 395,351.6 400,353.2" fill="none" stroke="#fbbf24" stroke-width="2.0" opacity="0.28" />
    <polyline points="0,181.9 5,182.1 10,182.3 15,182.7 20,183.0 25,183.5 30,184.0 35,184.5 40,185.1 45,185.7 50,186.3 55,187.0 60,187.8 65,188.5 70,189.3 75,190.1 80,190.9 85,191.7 90,192.5 95,193.3 100,194.1 105,194.9 110,195.7 115,196.4 120,197.1 125,197.8 130,198.5 135,199.1 140,199.7 145,200.2 150,200.7 155,201.1 160,201.5 165,201.8 170,202.1 175,202.3 180,202.4 185,202.5 190,202.5 195,202.5 200,202.3 205,202.2 210,201.9 215,201.6 220,201.3 225,200.9 230,200.4 235,199.9 240,199.4 245,198.8 250,198.1 255,197.5 260,196.7 265,196.0 270,195.2 275,194.5 280,193.7 285,192.9 290,192.1 295,191.2 300,190.4 305,189.6 310,188.9 315,188.1 320,187.4 325,186.7 330,186.0 335,185.3 340,184.7 345,184.2 350,183.7 355,183.2 360,182.8 365,182.5 370,182.2 375,182.0 380,181.8 385,181.7 390,181.6 395,181.7 400,181.7" fill="none" stroke="#fbbf24" stroke-width="1.8" opacity="0.13" />
    <polyline points="0,342.7 5,344.0 10,345.3 15,346.7 20,348.2 25,349.8 30,351.5 35,353.2 40,354.9 45,356.8 50,358.6 55,360.6 60,362.5 65,364.5 70,366.5 75,368.5 80,370.6 85,372.6 90,374.7 95,376.7 100,378.8 105,380.8 110,382.8 115,384.8 120,386.7 125,388.6 130,390.5 135,392.3 140,394.1 145,395.7 150,397.4 155,398.9 160,400.4 165,401.8 170,403.1 175,404.3 180,405.5 185,406.5 190,407.4 195,408.3 200,409.0 205,409.7 210,410.2 215,410.6 220,410.9 225,411.1 230,411.2 235,411.1 240,411.0 245,410.8 250,410.4 255,409.9 260,409.3 265,408.6 270,407.9 275,407.0 280,406.0 285,404.9 290,403.7 295,402.4 300,401.1 305,399.6 310,398.1 315,396.5 320,394.9 325,393.1 330,391.4 335,389.5 340,387.6 345,385.7 350,383.8 355,381.8 360,379.8 365,377.7 370,375.7 375,373.6 380,371.6 385,369.5 390,367.5 395,365.4 400,363.4" fill="none" stroke="#94a3b8" stroke-width="2.2" opacity="0.18" /></g>
  <rect x="268.6" y="341.4" width="49.2" height="49.2" fill="#94a3b8" opacity="0.13" />
    <polygon points="30.2,-27.5 79.2,21.5 30.2,70.5 -18.8,21.5" fill="#64748b" opacity="0.25" />
    <circle cx="43.4" cy="134.4" r="35.2" fill="#94a3b8" opacity="0.40" />
    <polygon points="375.4,363.0 410.6,433.6 340.1,433.6" fill="#64748b" opacity="0.24" />
    <rect x="347.3" y="326.1" width="22.4" height="22.4" fill="#fbbf24" opacity="0.20" />
    <polygon points="64.1,212.8 85.7,234.4 64.1,256.1 42.5,234.4" fill="#64748b" opacity="0.13" />
    <polygon points="278.4,431.1 315.3,504.8 241.6,504.8" fill="#94a3b8" opacity="0.23" />
    <circle cx="129.5" cy="368.3" r="43.9" fill="#94a3b8" opacity="0.32" />
    <circle cx="8.9" cy="453.1" r="37.8" fill="#64748b" opacity="0.30" />
    <rect x="153.2" y="232.5" width="50.2" height="50.2" fill="#fbbf24" opacity="0.34" />
    <rect x="-7.7" y="84.6" width="85.4" height="85.4" fill="#64748b" opacity="0.31" />
  
  <!-- Text background banner -->
  <defs>
    <linearGradient id="text-bg-21" x1="0%" y1="0%" x2="100%" y2="0%">
      <stop offset="0%" style="stop-color:#000000;stop-opacity:0.7" />
      <stop offset="50%" style="stop-color:#64748b;stop-opacity:0.4" />
      <stop offset="100%" style="stop-color:#000000;stop-opacity:0.7" />
    </linearGradient>
  </defs>
  <rect x="0" y="494" width="400" height="56" fill="url(#text-bg-21)" />

  <!-- Text shadow -->
  <text x="200" y="522" font-family="system-ui, -apple-system, sans-serif" font-size="24" font-weight="bold" text-anchor="middle" fill="#000000" opacity="0.8">Uncle Useless Ulysses</text>

  <!-- Main text -->
  <text x="200" y="520" font-family="system-ui, -apple-system, sans-serif" font-size="24" font-weight="bold" text-anchor="middle" fill="#ffffff">Uncle Useless Ulysses</text>
  
  <!-- Rarity border -->
  <rect x="4" y="4" width="392" height="542"
        fill="none" stroke="#eab308" stroke-width="8" rx="8" ry="8" />
</svg>